<?xml version="1.0" encoding="UTF-8"?>
<svg id="Ebene_2" xmlns="http://www.w3.org/2000/svg" xmlns:xlink="http://www.w3.org/1999/xlink" viewBox="0 0 7677 4326.23">
  <defs>
    <style>
      .cls-1 {
        fill: url(#linear-gradient-4);
      }

      .cls-2 {
        fill: url(#linear-gradient-3);
      }

      .cls-3 {
        fill: url(#linear-gradient-2);
      }

      .cls-4 {
        fill: url(#linear-gradient);
      }

      .cls-5 {
        fill: #64ad85;
      }

      .cls-6 {
        fill: #8fd8c6;
      }

      .cls-7 {
        fill: #4a8c65;
      }

      .cls-8 {
        fill: #74cfbb;
      }
    </style>
    <linearGradient id="linear-gradient" x1="3838.5" y1="4318.31" x2="3838.5" y2="0" gradientUnits="userSpaceOnUse">
      <stop offset=".5" stop-color="#c8e9f8"/>
      <stop offset="1" stop-color="#76c4e8"/>
    </linearGradient>
    <linearGradient id="linear-gradient-2" x1="1642.21" y1="2275.82" x2="1642.21" y2="1740.36" gradientUnits="userSpaceOnUse">
      <stop offset="0" stop-color="#fff" stop-opacity=".75"/>
      <stop offset="1" stop-color="#fff" stop-opacity=".25"/>
    </linearGradient>
    <linearGradient id="linear-gradient-3" x1="5560.24" y1="2945.82" x2="5560.24" y2="2324.02" xlink:href="#linear-gradient-2"/>
    <linearGradient id="linear-gradient-4" x1="6001.82" y1="895.57" x2="6001.82" y2="281.07" xlink:href="#linear-gradient-2"/>
  </defs>
  <g id="Ebene_1-2" data-name="Ebene_1">
    <rect class="cls-4" width="7677" height="4318.31"/>
    <path class="cls-8" d="M7677,3527.26v798.97H0v-798.97c97.56-149.74,192.6-301.8,299.44-444.99,40.82-54.74,83.37-108.12,128.43-159.66,105.28-120.23,227.67-224.03,339.43-337.99,60.42-61.62,88.49-92.28,176.13-95.48,118.67-4.4,279.81,92.08,385.81,145.7,149.94,75.81,244.02,171.01,354.02,292.17,3.32,3.68,6.72,7.36,10.08,11,303.32,328.27,773.54,580.93,1212.37,387.49,193.08-85.09,366.06-116.63,577.17-74.41,181.97,36.39,329.39,158.06,521.24,120.15,187.25-36.99,298.96-201.04,410.36-363.7,66.89-97.68,133.63-194.88,216.6-263.7,163.38-135.59,416.12-349.38,645.23-348.18,142.94.72,261.78,146.54,347.34,238.47,78.89,84.73,154.1,172.69,231.95,258.14,52.38,57.54,106,113.96,162.74,167.53,81.25,76.69,171.45,150.26,269.61,208.96,91.88,54.98,171.37,71.13,295.72,116.27,75.57,27.43,191.44,124.71,364.46,196.84,14.63,6.08,29.67,12,45.14,17.71,102.52,37.67,223.51,64.89,365.86,64.89s219.91-21.99,317.88-137.23Z"/>
    <path class="cls-6" d="M1693.34,2938.01c-14.59,9.6-32.47,17.23-50.18,22.27-19.79,5.64-39.34,8-53.94,6.2-41.94-5.2-79.41-27.95-115.43-50.14-62.06-38.27-124.15-76.53-186.25-114.8,22.67,37.11,45.3,74.21,67.93,111.32,10,16.35,20.31,36.19,12.67,53.78-6.96,15.99-26.99,22.91-44.26,20.35-17.27-2.56-32.43-12.44-47.02-22.07,12.91,15.03,26.67,34.83,18.75,52.98-9.92,22.67-42.86,20.47-65.93,11.48-64.53-25.11-119.43-71.53-143.7-136.15-10.16,69.97-44.34,134.47-101.6,177.25-36.03,26.95-82.01,44.34-126.07,35.31-44.06-9-82.65-50.5-77.77-95.2-24.11-4.8-46.98,39.86-64.18,22.23-4.2-4.32-5-10.84-5.4-16.83-4.04-61.58,10.96-124.23,42.38-177.33-151.3,81.25-302.6,162.46-453.9,243.63,40.82-54.74,83.37-108.12,128.43-159.66,105.28-120.23,227.67-224.03,339.43-337.99,60.42-61.62,88.49-92.28,176.13-95.48,118.67-4.4,279.81,92.08,385.81,145.7,149.94,75.81,244.02,171.01,354.02,292.17,3.32,3.68,6.72,7.36,10.08,11Z"/>
    <path class="cls-6" d="M5623.64,2634.13c78.89,84.73,154.1,172.69,231.95,258.14-16.03,31.11-47.26,54.58-82.05,58.46-37.42,4.16-73.81-13.39-105.4-33.87-80.41-52.02-146.18-126.39-187.97-212.52,21.07,45.18,27.27,97.12,17.43,145.98-31.31,6.72-64.33-8.12-86.57-31.15-19.71-20.47-32.35-46.54-42.42-73.25,1.08,13.4-10.48,28.19-24.63,31.03-17.99,3.6-35.99-6.16-49.94-18.07-24.79-21.15-42.66-50.3-50.3-82.01-14.27,99.88-51.82,196.36-108.8,279.61-24.11,35.23-54.82,70.13-96.48,79.41-58.66,12.99-117.91-32.35-140.18-88.13-22.31-55.82-16.19-118.55-6.6-177.85-35.59,13.71-64.61,43.58-77.25,79.57-16.03-35.91-13.71-79.45,6.04-113.48-124.07,99.76-256.62,188.97-395.69,266.38-3.24,1.8-6.72,3.56-10.32,5.16,66.89-97.68,133.63-194.88,216.6-263.7,163.38-135.59,416.12-349.38,645.23-348.18,142.94.72,261.78,146.54,347.34,238.47Z"/>
    <path class="cls-3" d="M3153.48,2275.82H130.94c70.63-45.31,136.51-88.46,218.66-71.32,13.41-116.06,68.08-229.99,161.24-300.49,93.16-70.51,226.3-91.01,330.23-37.65,103.93,53.36,165.59,184.95,126.62,295.09,51.69-62.83,166.91-52.5,206.62,18.51,41.62-43.11,120.19-41.67,160.21,2.92-27.39-171.83,137.11-314.15,298.65-378.8,158.66-63.5,339.56-89.28,500.43-31.61,160.87,57.67,292.92,212.87,287.48,383.67,79.8-90.58,250.55-68.44,304.62,39.49,30.07-85.68,123.66-144.19,213.85-133.72,90.19,10.48,204.29,123.61,213.92,213.9Z"/>
    <path class="cls-2" d="M7417.22,2945.82h-3713.95c4.18,0,8.36,0,12.54,0,23.09-111.44,149.08-174.01,231.16-95.18,49.23-265.67,271.11-504.43,540.49-525.36,269.38-20.94,543.22,222.03,513.03,490.53,107.36-131.46,335.09-136.33,447.97-9.57,106.95-150.69,257.7-283.29,440.26-311.91,182.55-28.62,392.73,79.5,428.34,260.82,53.58-104.09,177.7-166.83,293.28-148.25,115.59,18.58,213.79,117.06,232.04,232.7-43.61-20.96-7.31-96.81,41.07-96.14,48.38.67,84.66,42.66,114.11,81.04,143.03-32.61,299.46,37.23,419.66,121.33Z"/>
    <path class="cls-1" d="M7370.36,895.57h-2737.08c8.68,0,17.36,0,26.04,0,34.37-137.52,206.7-226.33,298.6-118.4,47.96-162.65,124.42-335.53,278.2-406.98,109.35-50.8,246.02-36.77,342.76,35.19,96.74,71.96,149.49,198.82,132.29,318.16,52.06-117.64,249.9-124.6,310.09-10.9,27.18-72.09,155.32-63.98,173.18,10.97,68.62-219.04,264.84-392.85,490.56-434.53,65.45-12.08,135.78-13.18,195.6,15.99,61.93,30.2,104.87,88.83,139.11,148.62,56.64,98.92,96.58,207.38,117.61,319.41,85.28-8.88,183.23,52.68,233.03,122.48Z"/>
    <path class="cls-5" d="M7262.69,3830.31c19.06,1.67,33.91,18.83,38.85,37.31,4.93,18.48,1.99,38.07-1.5,56.88,8.63-8.63,22.84-11.07,33.85-5.81,11.01,5.26,18.04,17.85,16.74,29.99,17.87-10.76,43.88-4.42,54.8,13.36,7.4-15.73,28.55-21.91,44.71-15.53,16.17,6.38,26.95,22.72,30.2,39.79,3.25,17.07-.07,34.77-5.51,51.28-88.93-13.94-177.86-27.88-266.79-41.82-25.13-3.94-54.06-10.57-65.05-33.52-8.36-17.45-1.41-40.7,15.14-50.72,16.55-10.01,40.38-5.36,51.95,10.15-.48-19.96-.83-40.62,6.89-59.04,7.72-18.42,25.83-34.06,45.72-32.32Z"/>
    <path class="cls-5" d="M228.94,3949.61c-35.53-9.2-75.56,21.24-76.2,57.94-.05,3.12.34,6.65,2.81,8.55,2.23,1.71,5.34,1.47,8.13,1.14,22.96-2.68,45.92-5.36,68.88-8.05,144.29-16.86,288.8-33.75,431.04-63.21-3.73-16.97-10.94-34.45-25.52-43.89-14.58-9.44-37.81-6.54-44.91,9.31-26.88-24.07-60.73-40.27-96.34-46.09-8.65-1.41-17.95-2.14-25.78,1.79-7.83,3.93-13.11,14.1-8.91,21.79-17.33-14.39-38.85-23.68-61.21-26.43-12.79-1.57-26.62-.79-37.22,6.54-10.6,7.33-16.23,22.81-9.35,33.7-21.51-14.98-50.47-18.63-75.02-9.45-24.55,9.18-44.01,30.93-50.42,56.35Z"/>
    <path class="cls-5" d="M5931.06,3791.19c-3.62-37.23,11.96-75.82,40.42-100.1,11.62-9.91,26.2-17.75,41.44-16.66,21.78,1.56,38.74,21.35,44.21,42.49,5.47,21.14,1.97,43.43-1.55,64.98,16.42-8.95,34.86-17.39,53.19-13.67,18.33,3.71,33.55,25.48,23.9,41.51,13.92-14.68,44.07,1.8,39.23,21.44,10.75-22.43,43.12-17.87,67.74-14.24,23.64,3.49,48.53,2.95,70.1,13.24,21.57,10.29,38.15,36.99,27.05,58.15-66.32,1.26-132.6,4.95-198.65,11.06-103.1,9.53-207.64,24.89-309.45,6.06-14.66-2.71-31.08-7.56-37.55-20.99-8.12-16.86,4.15-36.09,16.28-50.33,6.94-8.16,14.66-16.56,24.98-19.41,10.33-2.85,23.64,2.66,25.05,13.28,1.82-19.84,8.58-41,25.24-51.91,16.67-10.91,44.45-4.42,48.38,15.1Z"/>
    <g>
      <path class="cls-5" d="M927.49,3912.55c-3.84,1.21-7.48,3.05-10.73,5.43-15.95-43.29-26.82-88.44-32.33-134.24,5.9-1.92,11.8-3.84,17.7-5.76,5.22,12.13,7.62,25.26,9.9,38.27,5.62,32.02,10.77,64.13,15.45,96.3Z"/>
      <path class="cls-5" d="M850.24,3814c-3.07-9.96-4.75-20.75-1.88-30.77,2.87-10.02,11.17-19,21.53-20.11-20.86-9.81-31.74-36.78-23.54-58.32,8.2-21.54,34.26-34.44,56.36-27.89,15.4,4.56,27.63,17.15,34.22,31.8,8.81,19.59,8.06,43.22-1.96,62.21,17.72-.44,33.12,18.5,29.09,35.76-2.48,10.59-10.54,18.84-18.37,26.39-13.25,12.77-28.69,26.02-47.1,25.95-23.6-.1-41.42-22.46-48.36-45.02Z"/>
    </g>
    <g>
      <path class="cls-5" d="M2373.33,3547.46c6.81,87.4,14.22,174.75,22.22,262.05,4.65-5.24,15.09.85,21.1-2.75,4.06-2.44,4.55-8.03,4.5-12.77-.78-74.15-20.48-146.96-23.57-221.05-.29-6.99-.54-14.36-4.23-20.3s-14.29-9.19-20.01-5.18Z"/>
      <path class="cls-5" d="M2354.36,3595.93c-25.43-24.63-32.86-64.45-22.88-98.41,4.58-15.6,12.76-30.56,25.47-40.71,12.71-10.15,30.34-14.83,45.77-9.7,14.11,4.69,24.82,16.94,30.43,30.71,5.61,13.77,6.68,28.98,6.22,43.84-.81,26.31-6.21,52.48-15.88,76.96,18.95,5.56,33.4,23.93,34.33,43.66s-11.71,39.38-30.05,46.71c8.2,1.7,11.61,12.99,7.38,20.22-4.22,7.23-13.43,10.29-21.78,9.68-10.84-.79-21.98-8.35-23.08-19.15-22.91-2.14-43.86-18.59-51.39-40.34-7.52-21.75-1.22-47.63,15.47-63.47Z"/>
    </g>
    <g>
      <path class="cls-5" d="M6941.49,3683.32c6.81,87.4,14.22,174.75,22.22,262.05,4.65-5.24,15.09.85,21.1-2.75,4.06-2.44,4.55-8.03,4.5-12.77-.78-74.15-20.48-146.96-23.57-221.05-.29-6.99-.54-14.36-4.23-20.3-3.69-5.94-14.29-9.19-20.01-5.18Z"/>
      <path class="cls-5" d="M6922.52,3731.79c-25.43-24.63-32.86-64.45-22.88-98.41,4.58-15.6,12.76-30.56,25.47-40.71,12.71-10.15,30.34-14.83,45.77-9.7,14.11,4.69,24.82,16.94,30.43,30.71,5.61,13.77,6.68,28.98,6.22,43.84-.81,26.31-6.21,52.48-15.88,76.96,18.95,5.56,33.4,23.93,34.33,43.66.93,19.73-11.71,39.38-30.05,46.71,8.2,1.7,11.61,12.99,7.38,20.22-4.22,7.23-13.43,10.29-21.78,9.68-10.84-.79-21.98-8.35-23.08-19.15-22.91-2.14-43.86-18.59-51.39-40.34-7.52-21.75-1.22-47.63,15.47-63.47Z"/>
    </g>
    <g>
      <path class="cls-5" d="M4687.47,3726c-2.22,35.03-4.44,70.05-6.66,105.08-.75,11.77-1.49,23.54-2.24,35.31-.26,4.03-.57,8.24-2.7,11.67-3.1,4.98-10.18,5.16-15.09,3.84,1.04-57.09,3.16-114.2,4.75-171.28.13-4.65,22.92-.21,22.04,13.65-.04.58-.07,1.16-.11,1.74Z"/>
      <path class="cls-5" d="M4735.66,3677.72c.19,21.83-10.64,43.47-28.24,56.4,9.68,1.03,17.09,10.23,18.38,19.88,1.3,9.64-2.44,19.35-7.79,27.48-11.76,17.85-31.92,29.91-53.21,31.84-6.67.6-13.75.16-19.43-3.39-4.46-2.79-7.63-7.25-10.13-11.88-13.01-24.1-9.36-56.14,8.73-76.7-10.65-8.24-15.25-22.02-17.93-35.21-4.91-24.18-5.24-49.28-.97-73.58.99-5.61,2.36-11.46,6.21-15.66,3.85-4.2,10.94-5.95,15.29-2.28-1.76-17.07,2.33-34.68,11.42-49.23,5.29-8.46,12.64-16.17,22.15-19.19,15.56-4.95,33.09,4.49,41.38,18.55,8.29,14.06,8.92,31.44,6.39,47.57-2.97,19.02-10.03,37.39-20.56,53.5,7.94-2.15,16.66,2.01,21.6,8.6,4.94,6.58,6.62,15.1,6.7,23.32Z"/>
    </g>
    <g>
      <path class="cls-5" d="M3049.21,3807.27c-4.01.32-7.97,1.31-11.67,2.9-5.9-45.75-6.44-92.19-1.6-138.07,6.18-.56,12.36-1.12,18.54-1.67,2.38,12.99,1.8,26.33,1.13,39.52-1.66,32.47-3.79,64.92-6.4,97.32Z"/>
      <path class="cls-5" d="M2995.87,3693.99c-.77-10.39,0-21.28,5.03-30.41,5.03-9.13,15.12-16.03,25.47-14.8-18.14-14.21-22.74-42.92-9.95-62.1,12.8-19.17,41.08-25.93,61.16-14.63,14,7.88,23.12,22.87,26.27,38.62,4.22,21.06-1.77,43.93-15.77,60.21,17.37,3.52,28.17,25.42,20.39,41.34-4.77,9.77-14.48,16.01-23.79,21.63-15.76,9.5-33.77,18.97-51.69,14.8-22.98-5.35-35.37-31.13-37.11-54.66Z"/>
    </g>
    <path class="cls-5" d="M5055.88,3821.38c-6.04-35.13,18.29-74.08,53.44-80.01,35.14-5.93,72.5,27.34,66.99,62.55,9.4-7.62,23.38-9.04,34.12-3.47,10.74,5.57,17.63,17.82,16.82,29.89,16.59-23.97,49.12-35.58,77.14-27.53,8.82,2.54,18.7,10.37,15.37,18.92,4.01-20.31,8.23-41.17,19.44-58.58,11.21-17.41,31.18-30.81,51.71-28.07,20.52,2.74,37.37,26.43,28.41,45.09,13.89-2.59,28.88-4.33,41.61,1.82,12.72,6.15,21.09,23.12,13.41,34.98,18.59-13.41,44.49-15.91,65.3-6.3,22.15,10.23,41.27,37.06,37.32,62.37-4.36,27.95-28.4,25.92-51.82,24.72-102.29-5.27-204.67-8.75-307.07-10.43-51.2-.84-102.42-1.24-153.63-1.19-12.75.01-63.07,7.86-71.96-.28-11.4-10.45.67-42.84,7.99-52.45,12.6-16.56,38.04-23.48,55.42-12.02Z"/>
    <path class="cls-5" d="M2021.62,3719.96c-36.46,1.01-72.09,19.02-94.53,47.78-24.95-8.25-53.23-5.82-76.42,6.55-8.99,4.8-18.22,15.41-12.62,23.93,3.71,5.65,11.64,6.18,18.39,6.12,162.44-1.46,324.85-7.05,487.01-16.76,1.37-11.47-.47-24.04-8.27-32.56-7.8-8.53-22.64-10.97-30.93-2.93,4.09-14.39-5.86-29.84-19.11-36.81-13.24-6.96-28.87-7.37-43.83-7.04-5.61.12-11.54.43-16.21,3.53-4.67,3.11-7.24,10.05-3.82,14.5-14.87-10.07-38.52-1.39-43.36,15.9-15.9-17.84-38.98-29.1-62.83-30.66-23.85-1.56-48.19,6.61-66.28,22.23-2.45-10.77-16.16-14.09-27.21-13.78Z"/>
    <path class="cls-5" d="M2640.19,3756.38c7.58-14.13,25.36-20.3,41.32-18.74,15.96,1.56,30.56,9.36,44.52,17.26,11.43-12.94,27.55-21.28,44.45-24.82,14.6-3.06,31.06-2.27,42.72,7.04,11.66,9.31,15.32,28.99,4.44,39.2-8.08,7.58-20.44,7.61-31.51,7.23-118.38-4.09-236.92-3.54-355.25,1.66-7.9.35-17.2.08-21.79-6.37-3.33-4.67-2.83-11.17-.59-16.45,5.53-13.03,21.54-20.56,35.1-16.5-4.27-9.61,2.03-20.44,8.58-28.66,5.44-6.83,12.1-13.83,20.79-14.68,8.68-.86,18.04,8.61,13.74,16.21,2.49-13.41,16.95-23.35,30.36-20.88,13.41,2.47,23.38,16.91,20.93,30.33,9.8-7.02,25.66-2.46,30.23,8.7,10.85-7.97,26.04-7.78,38.6-2.93,12.56,4.85,23.09,13.71,33.36,22.42Z"/>
    <path class="cls-5" d="M4025.33,3829.77c-2.06-11.25,7.25-22.64,18.48-24.8,11.23-2.17,23.02,3.59,30.12,12.56-2.03-19.95,12.79-40.22,32.42-44.32,19.63-4.11,41.33,8.52,47.47,27.61,13.94-15.84,43.84-11.84,53.14,7.1,10.91-4.65,25.07,1.1,29.64,12.04,14.91-14.2,31.38-28.35,51.56-32.49,20.17-4.14,44.64,5.66,49.75,25.61-1.55-41.77,37.87-80.35,79.6-77.92,41.73,2.43,76.39,45.34,70,86.65,10.31-16.15,41.02-7.9,41.85,11.25,23.48-7.62,50.59,17.06,45.2,41.16-73.95,8.49-148.39-9.35-222.83-8.58-51.96.54-103.42,10.15-155.31,12.98-51.89,2.83-106.07-1.72-151.36-27.2-8.8-4.95-17.9-11.71-19.72-21.64Z"/>
    <path class="cls-5" d="M7677,4028.22v298H0v-298c50.94-8.08,101.96-16.15,152.94-24.15,47.18-7.4,94.36-14.75,141.58-22.07,20.67-3.16,41.34-6.36,62.02-9.52,19.11-2.96,38.19-5.88,57.3-8.76,35.91-5.48,71.85-10.88,107.8-16.27,45.38-6.76,90.8-13.43,136.23-20.03,7.92-1.16,15.83-2.32,23.75-3.44,38.5-5.56,77.01-11.04,115.55-16.43,36.95-5.16,73.89-10.24,110.84-15.19,5.12-.72,10.2-1.4,15.27-2.08.28-.04.56-.08.84-.12,71.85-9.64,143.7-18.95,215.6-27.79,29.59-3.68,59.22-7.24,88.85-10.76.72-.08,1.48-.16,2.24-.24,45.5-5.4,91-10.6,136.55-15.59,90.32-9.92,180.69-19.03,271.13-27.19,65.93-6,131.91-11.44,197.88-16.35,168.21-12.56,336.67-21.51,505.28-25.91,16.63-.48,33.27-.84,49.9-1.2,5.36-.12,10.72-.24,16.07-.32,4.12-.08,8.2-.16,12.28-.2,70.61-1.32,141.26-1.76,211.96-1.32,63.86.4,127.67,1.48,191.49,3.2,70.25,1.84,140.47,4.4,210.68,7.48,5.88.24,11.76.52,17.63.76,159.74,7.2,319.36,16.83,478.97,26.75,96.12,5.96,192.24,12.04,288.37,17.63,11.96.72,23.95,1.44,35.91,2.12,56.86,3.28,113.76,6.36,170.61,9.28,182.01,9.4,364.02,17.07,546.15,22.99h.04c29.87,1,59.78,1.92,89.65,2.8,5.96.2,11.88.36,17.83.56,103.08,2.96,206.16,5.44,309.28,7.32,30.75.56,61.54,1.08,92.28,1.52,70.89,1.12,141.74,1.92,212.64,2.48,94.64.76,189.33,1.04,284.01.84,49.54-.08,99-.28,148.54-.64h.04c20.99-.12,41.98-.32,62.98-.48h.04c2.56-.04,5.16-.04,7.72-.08,10.52-.08,20.99-.2,31.47-.32,18.75-.2,37.51-.4,56.22-.6,46.22-.56,92.4-1.12,138.51-1.72.24-.04.52-.04.8-.04,62.74-.8,125.39-1.64,187.93-2.36,42.26-.48,84.45-.92,126.63-1.28,18.31-.12,36.59-.24,54.86-.36,4.92,0,9.84-.04,14.75-.08,85.01-.44,169.89-.4,254.74.4,40.82.44,174.61,28.19,298.6,55.7,9.4,2.12,18.75,4.2,27.99,6.28,40.86,9.16,79.73,18.03,112.8,25.63,12.24,2.8,25.35,5.76,39.3,8.84,35.39,7.8,75.89,16.23,119.23,24.51,69.01,13.15,145.18,25.83,219.55,34.55,29.67,3.48,59.06,6.32,87.57,8.32,38.46,2.72,75.41,3.88,109.36,2.96Z"/>
    <path class="cls-7" d="M892.87,4206.28c-69.22-4.11-139.92-9.31-203.66-36.61-28.07-12.02-58.36-36.72-51.55-66.48,7.16-31.27,47.49-38.96,79.54-40.22-32.24-41.56-51.67-98.17-32.83-147.28,18.84-49.11,86.75-78.07,127.74-45.1,29.52-16.26,68.27-14.03,95.73,5.51,27.46,19.54,42.27,55.41,36.6,88.63,76.83-.24,147.26,68.45,148.93,145.27,27.64-27.91,71.84-37.98,108.84-24.79,37,13.19,64.87,48.95,68.62,88.04,1.07,11.14.06,23.19-6.72,32.1-10.93,14.34-31.83,15.21-49.86,14.73-107.19-2.84-214.34-7.44-321.38-13.79Z"/>
    <path class="cls-7" d="M2140.63,4261.77c-6.76-4.1-13.6-8.97-16.85-16.18-6.31-14.01,3.4-30.06,14.62-40.56,49.34-46.18,137.89-39.74,180.03,13.08-24.22-58.64,1.95-131.86,54.94-166.74,52.99-34.88,126.51-31.86,179.98,2.28,53.47,34.14,86.53,95.89,91.75,159.12,11.37-19.19,34.7-30.55,56.82-27.65,22.12,2.9,41.74,19.88,47.79,41.35,12.81-2.24,25.38-5.81,37.45-10.66,4.3,4.06,7.23,9.56,8.19,15.39,19.82-39.89,67.4-60.76,111.87-58.35,44.47,2.41,85.78,24.48,120.77,52.03,11.22,8.84,22.66,19.47,24.93,33.57,2.65,16.41-8.57,32.57-23,40.83-14.43,8.26-31.48,10.29-48.03,11.94-219.09,21.88-440,7.11-659.69-7.68-62.6-4.21-127.93-9.25-181.59-41.77Z"/>
    <path class="cls-7" d="M7580.43,4089.7c15.12-2.34,29.61,9.27,35.75,23.28,6.14,14.01,5.88,29.88,5.51,45.18-111.93-3.66-219.94,36.42-329.1,61.44-137.55,31.52-279.28,39.34-420.19,47.04-10.77-30.21-60.56-18.63-82.76-41.79-16.77-17.51-10.19-46.49,1.12-67.94,14.79-28.06,37.09-53.63,66.76-64.83,29.67-11.21,67.22-4.76,86.26,20.61.85-27.32,6.48-55.18,21.38-78.1,14.9-22.91,40.19-40.16,67.51-40.49s55.02,19.19,59.45,46.16c11.44-26.43,48.92-32.24,74.63-19.27,25.71,12.97,42.24,38.51,57.55,62.9-8.07-34.96,7.04-72.49,32.44-97.84,25.39-25.35,59.72-39.95,94.5-48.74,26.75-6.76,55-10.41,81.88-4.17,26.87,6.25,52.24,23.79,62.3,49.48-3.91-4.83-5.15-11.69-3.18-17.58,28.03.57,53.26,19.75,67.45,43.93,14.19,24.18,18.92,52.74,20.74,80.71Z"/>
    <g>
      <path class="cls-7" d="M5811.52,4130.26c1.45-129.54,12.88-258.97,34.16-386.75,15.32,1.66,30.93.53,45.86-3.31-5.49,133.03-17.35,265.8-35.52,397.71-14.13-5.46-29.35-8.08-44.49-7.64Z"/>
      <path class="cls-7" d="M5912.54,3950.95c1.85,4.72-37.66,17.63-41.91,18.1-13.82,1.53-22.22-2.88-34.82-7.42-32.03-11.54-62.58-21.31-85.52-48.2-46.24-54.21-34.34-130.09,20.17-172.51,2.26-1.76,4.82-3.99,4.53-6.83-.19-1.85-1.57-3.33-2.85-4.69-16.38-17.54-25.89-42.36-21.55-65.98,3.52-19.15,14.85-29.33,30.1-39.69,8.96-6.08,14.26-3.69,16.28-13.45,2.01-9.69-7.91-22.04-3.83-34.9,4.15-13.12,13.95-24.02,25.71-31.18,6.79-4.13,14.37-7.16,22.28-7.88,13.42-1.23,27.29,4.67,35.72,15.18,8.43,10.51,11.18,25.32,7.1,38.13,37.97-40.87,91.19,15.33,82.56,57.04,79.55-21.48,85.69,136.68,72.62,181.28-14.05,47.95-51.01,89.74-98.59,104.99,10.64,4.61,18.63,14.85,20.52,26.29-12.86,14.92-41.32,10.08-48.52-8.25Z"/>
    </g>
    <path class="cls-7" d="M3781.6,4182.79c-15.05,3.76-30.11,7.52-45.16,11.27-27.08-104.62-49.8-210.36-68.07-316.87,17.79.97,35.67.09,53.27-2.62,30.93,100.2,51.07,203.72,59.96,308.21Z"/>
    <path class="cls-7" d="M3879.2,3892.58c1.19,4.73,1.93,9.88.02,14.38-2.27,5.33-7.68,8.5-12.74,11.31-30.57,16.92-61.14,33.83-91.71,50.75-16.42,9.09-33.22,18.31-51.69,21.61-27.39,4.89-55.85-3.97-79.35-18.86-14.53-9.2-28.28-21.77-32.5-38.45-3.57-14.12,4.46-30,10.97-40.82-68.6-35.69-103.27-99.49-124.27-171.97-7.31-25.22-13.52-51.34-11.27-77.5,2.26-26.16,14.25-52.68,36.48-66.66,22.23-13.98,55.21-11.56,71.18,9.28-6.64-43.67-10.75-95.16,21.72-125.11,28.3-26.1,75.93-22.61,106.02,1.4,30.09,24.02,44.28,63.65,46.05,102.11,1.77,38.46-7.36,76.49-16.43,113.9,36.52-16.85,80.07,18.96,85.54,58.81,4.14,30.19-27.36,68.24-15.57,96.25,11.89,28.23,47.87,21.17,57.56,59.58Z"/>
    <path class="cls-7" d="M5344.59,3927.36c35.12-2.22,67.91,31.92,64.26,66.92,18.13-18.5,50.3-11.94,70.92,3.74,12.61,9.6,23.3,22.47,27.44,37.76,4.14,15.29.76,33.11-10.84,43.91-13.91,12.94-35.07,13.12-54.06,12.35-108.73-4.39-217.18-14.71-325.97-17.44-167.37-4.2-334.7,9.61-500.98,29.12-25.68,3.01-53.4,5.78-75.86-7.04-1.19,2.51,3.77,3.95,5.25,1.6,1.47-2.35.32-5.4-.76-7.95-20.52-48.51-1-110.53,43.6-138.55,44.6-28.02,108.95-18.68,143.74,20.86-2-13.42,6.78-26.71,18.44-33.65,11.66-6.94,25.65-8.67,39.21-9.18,32.38-1.22,71.86,9.46,79.79,40.88,16.66-23.43,48.11-33.61,76.53-29.21,28.41,4.4,53.67,21.58,72.66,43.17,4.11-55.69,37.88-108.32,86.79-135.27,48.91-26.95,111.44-27.37,160.72-1.09,34.68,18.5,64.13,54.3,60.14,93.41-.45-8.81,10.17-13.79,18.97-14.35Z"/>
    <g>
      <path class="cls-7" d="M362.84,4186.71c-9.31-129.21-8.66-259.14,1.93-388.25,15.4.38,30.87-2.04,45.42-7.1,5.58,133.03,4.78,266.33-2.38,399.28-14.53-4.27-29.92-5.62-44.97-3.92Z"/>
      <path class="cls-7" d="M448.62,3999.63c-34.14,29.37-86.88,34.76-126.25,12.91-10.23-5.68-19.84-13.32-25.11-23.77-13.23-26.22,4.91-56.75,22.31-80.42-79.01-63.03-99.55-187.99-44.89-273,11.34-17.64,26.41-34.22,46.38-40.6,19.97-6.38,45.33.78,53.87,19.92-12.36-25.97,14.18-58.51,42.94-57.98,28.76.53,52.58,25.9,59.49,53.82,6.91,27.92.25,57.42-9.45,84.5,10.44-9.56,27.24-9.29,39.73-2.64,12.49,6.65,21.42,18.41,28.83,30.47,26.14,42.58,38.11,94.72,28.09,143.67-10.02,48.95-43.38,93.67-89.54,112.81,10.98,3.71,19.8,13.25,22.63,24.49-11.57,15.94-40.34,13.48-49.04-4.2Z"/>
    </g>
    <path class="cls-7" d="M7677,4109.27v216.96H0v-216.96c20.15-.4,40.3-.8,60.46-1.2,98.28-1.96,197.88-.92,298.04,1.76,17.55.44,35.15.96,52.78,1.56,75.33,2.36,150.94,5.52,226.43,8.88,57.38,2.56,114.68,5.24,171.77,7.8,63.5,2.8,126.75,5.48,189.57,7.6,9.08.32,18.15.64,27.23.96,78.57,2.84,157.1,6.32,235.59,10.6.96.08,1.88.12,2.84.16,7.4.4,14.75.84,22.15,1.24h.04c146.1,8.32,291.97,19.51,437.47,34.67h.04c56.62,5.92,113.2,12.4,169.65,19.55,32.59,4.12,65.13,8.48,97.68,13.03,18.55,2.6,37.11,5.28,55.66,8.04,24.79,3.64,49.62,7.36,74.41,11.12,37.91,5.72,75.81,11.48,113.76,17.03,8.24,1.2,16.47,2.4,24.71,3.56,149.62,21.51,299.56,38.87,450.46,37.11,115-1.36,228.99-13.75,342.51-31.35,88.33-13.67,176.37-30.43,264.38-47.54,48.86-9.48,97.72-19.07,146.62-28.31h.04c14.63-2.76,29.23-5.48,43.86-8.12,25.35-4.64,50.7-9.16,76.05-13.44,28.07-4.76,56.1-9.12,84.17-13.15,18.43-2.68,36.87-5.2,55.3-7.6,17.75-2.32,35.47-4.52,53.22-6.6,17.07-2,34.11-3.92,51.18-5.72,31.35-3.32,62.74-6.32,94.08-9.08,82.41-7.28,164.82-12.76,247.22-17.47,36.19-2.08,72.33-4,108.48-5.88h.04c24.91-1.28,49.78-2.52,74.69-3.76h.04c53.66-2.72,107.28-5.4,160.94-8.32h.04c9.44-.52,18.83-1.04,28.27-1.6,83.97-4.72,167.89-10.24,251.78-17.55,237.63-20.71,476.69-25.11,714.92-13.15,101.56,5.08,202.96,13.11,304.08,24.15,16.83,1.8,33.67,3.72,50.46,5.72,22.03,2.64,44.02,5.36,65.97,8.28,54.14,7.12,108.16,15.11,162.02,23.95,48.22,7.92,96.4,16.51,144.62,25.31,64.61,11.76,129.27,23.87,193.92,35.19,6.96,1.2,13.95,2.4,20.91,3.6,69.29,11.88,138.67,22.63,208.12,30.83h.04c8.72,1.08,17.39,2.04,26.11,3,14.07,1.52,28.19,2.96,42.26,4.24,20.31,1.88,40.62,3.48,60.98,4.76,68.73,4.4,137.59,5.44,206.6,1.68,5.4-.28,10.8-.6,16.19-.96,126.51-8.24,250.86-32.79,374.81-60.46,63.58-14.15,136.87-39.5,230.75-49.82,19.27-2.16,39.46-3.64,60.58-4.28Z"/>
  </g>
</svg>