<?xml version="1.0" encoding="UTF-8"?>
<svg id="Ebene_2" xmlns="http://www.w3.org/2000/svg" xmlns:xlink="http://www.w3.org/1999/xlink" viewBox="0 0 1733.48 2710.99">
  <defs>
    <style>
      .cls-1 {
        fill: url(#linear-gradient-4);
      }

      .cls-1, .cls-2, .cls-3, .cls-4, .cls-5, .cls-6, .cls-7, .cls-8, .cls-9, .cls-10, .cls-11, .cls-12, .cls-13 {
        stroke-width: 2px;
      }

      .cls-1, .cls-2, .cls-3, .cls-8, .cls-11, .cls-12, .cls-13 {
        stroke-linecap: round;
        stroke-linejoin: round;
      }

      .cls-1, .cls-8 {
        stroke: #0e0e3f;
      }

      .cls-2 {
        fill: url(#linear-gradient-10);
      }

      .cls-2, .cls-3, .cls-4, .cls-5, .cls-6, .cls-7, .cls-9, .cls-10, .cls-11, .cls-12, .cls-13 {
        stroke: #15033a;
      }

      .cls-3 {
        fill: url(#linear-gradient-11);
      }

      .cls-14 {
        opacity: .5;
      }

      .cls-14, .cls-15 {
        fill: #fff;
      }

      .cls-4 {
        fill: url(#linear-gradient-3);
      }

      .cls-4, .cls-5, .cls-6, .cls-7, .cls-9, .cls-10 {
        stroke-miterlimit: 10;
      }

      .cls-5 {
        fill: url(#linear-gradient-2);
      }

      .cls-6 {
        fill: url(#linear-gradient-6);
      }

      .cls-7 {
        fill: url(#linear-gradient-5);
      }

      .cls-16 {
        fill: #2a688a;
      }

      .cls-8 {
        fill: url(#linear-gradient);
      }

      .cls-9 {
        fill: url(#linear-gradient-13);
      }

      .cls-10 {
        fill: url(#linear-gradient-12);
      }

      .cls-11 {
        fill: url(#linear-gradient-9);
      }

      .cls-12 {
        fill: url(#linear-gradient-8);
      }

      .cls-13 {
        fill: url(#linear-gradient-7);
      }

      .cls-17 {
        opacity: .2;
      }

      .cls-17, .cls-18 {
        fill: #15033a;
      }
    </style>
    <linearGradient id="linear-gradient" x1="2824.27" y1="2488.77" x2="3023.32" y2="2488.77" gradientTransform="translate(4208.15) rotate(-180) scale(1 -1)" gradientUnits="userSpaceOnUse">
      <stop offset="0" stop-color="#2b437a"/>
      <stop offset="1" stop-color="#0f0d26"/>
    </linearGradient>
    <linearGradient id="linear-gradient-2" x1="2529.57" y1="2513.48" x2="2738.18" y2="2513.48" gradientTransform="translate(3711.12 -170.04) rotate(174.53) scale(1 -1)" gradientUnits="userSpaceOnUse">
      <stop offset="0" stop-color="#ee2a7b"/>
      <stop offset=".99" stop-color="#262262"/>
    </linearGradient>
    <linearGradient id="linear-gradient-3" x1="2164.85" y1="2635.69" x2="2522.28" y2="2635.69" gradientTransform="translate(3760.62) rotate(-180) scale(1 -1)" gradientUnits="userSpaceOnUse">
      <stop offset="0" stop-color="#fbb040"/>
      <stop offset="1" stop-color="#ef4136"/>
    </linearGradient>
    <linearGradient id="linear-gradient-4" x1="1771.05" y1="2013.77" x2="1970.09" y2="2013.77" gradientTransform="translate(3409.61 1791.97) rotate(-145.43) scale(1 -1)" xlink:href="#linear-gradient"/>
    <linearGradient id="linear-gradient-5" x1="3172.44" y1="2467.1" x2="3381.06" y2="2467.1" xlink:href="#linear-gradient-2"/>
    <linearGradient id="linear-gradient-6" x1="2809.25" y1="2650.76" x2="3166.68" y2="2650.76" xlink:href="#linear-gradient-3"/>
    <linearGradient id="linear-gradient-7" x1="589.37" y1="2208.16" x2="597.51" y2="2430.67" gradientUnits="userSpaceOnUse">
      <stop offset="0" stop-color="#277592"/>
      <stop offset="1" stop-color="#262262"/>
    </linearGradient>
    <linearGradient id="linear-gradient-8" x1="897.78" y1="1592.15" x2="992.57" y2="2644.28" xlink:href="#linear-gradient-7"/>
    <linearGradient id="linear-gradient-9" x1="1039.82" y1="1685.13" x2="1123.43" y2="2613.22" gradientUnits="userSpaceOnUse">
      <stop offset="0" stop-color="#fff"/>
      <stop offset="1" stop-color="#d3e6ed"/>
    </linearGradient>
    <linearGradient id="linear-gradient-10" x1="834.82" y1="-84.16" x2="908.67" y2="1934.3" xlink:href="#linear-gradient-7"/>
    <linearGradient id="linear-gradient-11" x1="1080.79" y1="-19.37" x2="1137.15" y2="1521.24" xlink:href="#linear-gradient-9"/>
    <linearGradient id="linear-gradient-12" x1="1503.9" y1="1382.29" x2="1485.07" y2="1589.38" gradientUnits="userSpaceOnUse">
      <stop offset="0" stop-color="#fb6840"/>
      <stop offset="1" stop-color="#a82d26"/>
    </linearGradient>
    <linearGradient id="linear-gradient-13" x1="1550.34" y1="1159.74" x2="1515.4" y2="1544.2" gradientTransform="matrix(1,0,0,1,0,0)" xlink:href="#linear-gradient-3"/>
  </defs>
  <g id="Ebene_1-2" data-name="Ebene_1">
    <g>
      <g>
        <polygon class="cls-8" points="1270.13 2341.86 1383.87 2626.22 1327 2635.69 1184.83 2341.86 1270.13 2341.86"/>
        <g>
          <path class="cls-5" d="M1224.95,2594.75c2.89,29.99,29.49,51.96,59.45,49.07l98.83-12.86c29.96-2.89,51.93-29.46,49.07-59.45h0c-2.89-29.97-29.49-51.93-59.45-49.06l-98.83,12.87c-29.96,2.87-51.93,29.5-49.07,59.43h0Z"/>
          <g>
            <path class="cls-4" d="M1595.77,2694.92c0-65.42-80.02-118.46-178.71-118.46s-178.72,53.04-178.72,118.46h357.43Z"/>
            <path class="cls-17" d="M1341.22,2587.76c41.18,63.67,177.67,76.39,249.06,78.56,3.46,9.16,5.48,18.72,5.48,28.6h-357.43c0-47.43,42.15-88.22,102.88-107.16Z"/>
          </g>
        </g>
      </g>
      <g>
        <polygon class="cls-1" points="798.31 2259.62 730.61 2558.31 678.4 2533.84 728.07 2211.22 798.31 2259.62"/>
        <g>
          <path class="cls-7" d="M580.55,2609.85c2.89,29.96,29.49,51.93,59.45,49.07l98.83-12.89c29.96-2.86,51.93-29.46,49.07-59.43h0c-2.89-29.99-29.49-51.95-59.45-49.07l-98.83,12.87c-29.96,2.87-51.93,29.48-49.07,59.45h0Z"/>
          <g>
            <path class="cls-6" d="M951.37,2709.99c0-65.42-80.02-118.46-178.71-118.46s-178.72,53.04-178.72,118.46h357.43Z"/>
            <path class="cls-17" d="M696.82,2602.83c41.18,63.67,177.67,76.39,249.06,78.56,3.46,9.16,5.49,18.72,5.49,28.6h-357.43c0-47.43,42.15-88.22,102.89-107.16Z"/>
          </g>
        </g>
      </g>
      <g>
        <path class="cls-13" d="M583.95,2269.92l-256.78,145.64s218,85.29,540.27,18.95l-283.49-164.59Z"/>
        <g>
          <path class="cls-12" d="M993.24,1660c201.8,7.55,339.3,153.38,372.72,357.68,21.1,128.99,52.77,334.98-85.02,398.74-87.43,40.46-226.6,67.37-320.87,62.09h-15.97c-94.28,5.28-233.44-21.63-320.87-62.09-137.79-63.76-106.12-269.75-85.02-398.74,33.42-204.3,170.92-350.13,372.72-357.68h82.31Z"/>
          <path class="cls-11" d="M1365.95,2017.68c-19.77-120.87-75.98-221.24-160.37-284.65h-20.81c-201.8,7.55-339.3,153.38-372.72,357.68-19.92,121.77-49.18,312.1,63.51,386.67,24.34,1.81,47.58,2.29,68.54,1.12h15.97c94.28,5.28,233.44-21.63,320.87-62.09,137.79-63.76,106.12-269.75,85.02-398.74Z"/>
          <path class="cls-17" d="M1197.24,1721.79c84.18,71.06-34.9,124.47-93.87,136.73-110.28,22.91-227.64-13.07-322.76-68.77-36.03-21.1-101.97-59.33-32.38-90.67,73.87-33.27,157.33-37.12,236.99-31.18,68.15,5.07,157.23,7.66,212.02,53.9Z"/>
        </g>
        <g>
          <path class="cls-2" d="M842.8,1737.6c131.64,14,265.01,7.26,385.49-15.54,93.15-17.63,214.27-51.3,291.96-107.97,117.64-85.79,145.45-214,150.92-350.28,1.14-28.21,15.72-63.84,20.48-92.35,13.59-81.34,29.2-162.8,36.47-245.01,17.23-194.63-15.67-451.76-117.84-621.55C1460.62,56.15,1119.02,7.58,856.2,8.89c-154.74.76-311.49,19.56-452.65,86.79-131.92,62.83-258.46,167.68-325.31,298.84C-49.35,644.83-7.38,1017.31,120.4,1258.58c37.28,70.38,83.18,139.79,134.4,200.9,141.89,169.28,362.4,254.14,588,278.12Z"/>
          <path class="cls-16" d="M1575.19,341.86s111.69-11.18,141.48-119.15h-115.42s70.74-107.97,22.34-204.78c0,0-67.02,81.91-160.1,89.36l-3.72-93.08s-93.08,70.75-201.06,78.19l316.48,249.46Z"/>
          <path class="cls-17" d="M1665.86,625.92c-40.22,136.65-106.87,264.47-224.51,350.29-165.93,121-408.94,127.75-606.57,127.75-172.29,0-355.18-15.08-509.59-98.29-158.66-85.5-256.14-243.46-304.81-413.27,15.33,53.47-13.06,113.72-15.69,166.88-7.41,150.06,34.29,296.59,94.35,432.73,54.41,123.39,117.05,254.92,223.33,342.18,225.8,185.4,529.94,211.47,810.11,182.72,97.95-10.05,194.91-5.91,289.95-35.59,217.31-67.83,214.91-272.44,252.12-455.41,47.01-231.08,74.38-468.73,14.83-700.88-12.37,62.54-23.4,100.53-23.51,100.88Z"/>
          <path class="cls-3" d="M1630.35,410.45c-38.38-30.39-87.75-32.95-121.43,19.41-31.38,48.78-65.76,120.16-126.95,135.9-68.41,17.6-133.79-35.24-190.8-65.17-116.13-60.97-249.42-99.26-378.4-55.7-67.52,22.81-130.24,61.62-182.32,110.11-124.88,116.26-164.59,305.47-116.32,466.95,39.83,133.35,156.08,234.55,168.34,377.33,5.82,67.78-24.03,136.6-7,203.8,39.97,157.63,231.83,141.19,356.9,134.61,162.19-8.51,352.18-24.63,487.88-123.6,117.64-85.79,145.45-214,150.92-350.28,9.59-134.81,54.07-265.35,57.23-403.53,2.94-128.55,1.86-284.87-58.83-401.42-10.14-19.47-23.78-36.19-39.22-48.41Z"/>
          <g>
            <path class="cls-10" d="M1391.46,1507.52s-.01,27.19,69.89,66.02c0,0,139.8-89.32,139.8-151.45,0,0-128.14-19.42-209.7,85.43Z"/>
            <path class="cls-9" d="M1465.24,1212.39s213.58-27.19,229.12,240.77c0,0-166.97,3.86-302.9,54.36,0,0-108.74-166.96,73.78-295.13Z"/>
            <path class="cls-17" d="M1689.78,1410.26c-280.09,31.99-312.65-54.75-305.15-112.94-60.54,106.62,6.83,210.2,6.83,210.2,135.93-50.5,302.9-54.36,302.9-54.36-.89-15.28-2.5-29.48-4.58-42.9Z"/>
            <path class="cls-14" d="M1479.29,1235.79s108.02-15.22,170.39,104.97c0,0-80.63-60.85-219.07-56.29,0,0,16.73-30.43,48.68-48.69Z"/>
          </g>
          <path class="cls-15" d="M1194.76,97.65c-2.33,15.22-31.93,23.3-66.1,18.04-34.16-5.28-59.95-21.88-57.62-37.1,2.35-15.22,31.95-23.29,66.12-18.04,34.17,5.27,59.95,21.88,57.61,37.1Z"/>
          <path class="cls-18" d="M1623.43,894.42c-12.45,0-23.98,7.53-33.46,20.24,5.21,6.42,8.46,14.95,8.46,24.42,0,19.77-13.9,35.79-31.09,35.87-1.54,10.04-2.4,20.64-2.4,31.64,0,61.95,26.2,112.17,58.49,112.17s58.5-50.22,58.5-112.17-26.17-112.17-58.5-112.17Z"/>
          <path class="cls-18" d="M1575.18,356.08c-7.22,0-13.4-5.47-14.14-12.8-.78-7.81,4.91-14.77,12.72-15.56,4.12-.43,90-10.49,123.06-90.78h-95.57c-5.21,0-10.01-2.87-12.5-7.45-2.49-4.59-2.26-10.18.6-14.54.61-.94,56.44-88.17,29.51-171.13-26.06,25.65-82.38,71.9-154.24,77.65-3.81.42-7.67-.96-10.57-3.53-2.89-2.57-4.62-6.2-4.77-10.07l-2.7-67.48c-34.57,21.87-106.2,60.65-186.9,66.21-7.85.47-14.63-5.37-15.16-13.2-.54-7.84,5.37-14.62,13.2-15.16,102.29-7.05,192.54-74.65,193.45-75.33,4.22-3.2,9.89-3.78,14.66-1.53,4.79,2.26,7.93,7,8.14,12.29l3.1,77.61c78.48-13.63,134.92-81.59,135.51-82.32,3.05-3.73,7.74-5.69,12.58-5.12,4.79.53,8.98,3.46,11.14,7.77,38.49,77,8.16,158.69-10.87,196.92h91.23c4.44,0,8.62,2.08,11.31,5.6,2.69,3.53,3.58,8.12,2.4,12.4-32.02,116.03-152.56,129.39-153.77,129.52-.48.05-.96.07-1.43.07Z"/>
        </g>
        <path class="cls-18" d="M1177.41,931.32c-19.12,0-36.74,10.21-51.09,27.31,11.77,9.55,19.74,26.8,19.74,46.71,0,30.18-18.12,54.66-40.49,54.66-5.11,0-9.94-1.42-14.44-3.75-.43,5.73-.72,11.52-.72,17.43,0,78.6,38.95,142.34,87,142.34s87-63.74,87-142.34-38.95-142.36-87-142.36Z"/>
      </g>
    </g>
  </g>
</svg>