<?xml version="1.0" encoding="UTF-8"?>
<svg id="Ebene_2" xmlns="http://www.w3.org/2000/svg" viewBox="0 0 376.76 497.94">
  <defs>
    <style>
      .cls-1 {
        opacity: .71;
      }

      .cls-1, .cls-2 {
        fill: #3a1f04;
      }

      .cls-3 {
        fill: #d7a98c;
      }

      .cls-4 {
        fill: #edb388;
      }

      .cls-5 {
        fill: #ffebcd;
      }

      .cls-6 {
        fill: #b7825f;
      }
    </style>
  </defs>
  <g id="Layer_1">
    <g>
      <path class="cls-2" d="M348.84,8.97H28.1c-11.86,0-21.5,9.65-21.5,21.5v445.97c0,11.85,9.64,21.5,21.5,21.5h320.74c11.85,0,21.5-9.65,21.5-21.5V30.47c0-11.85-9.64-21.5-21.5-21.5Z"/>
      <path class="cls-3" d="M-31.51,68.58h439.97c11.87,0,21.5,9.63,21.5,21.5v320.74c0,11.87-9.63,21.5-21.5,21.5H-31.52c-11.87,0-21.5-9.63-21.5-21.5V90.08c0-11.87,9.63-21.5,21.5-21.5Z" transform="translate(438.92 61.98) rotate(90)"/>
      <rect class="cls-4" x="16.6" y="21.97" width="343.74" height="462.97" rx="11.5" ry="11.5"/>
      <rect class="cls-5" x="16.6" y="18.97" width="343.74" height="462.97" rx="11.5" ry="11.5"/>
      <path class="cls-3" d="M27,0h322.75c14.9,0,27,12.1,27,27v30.38c0,2.09-1.69,3.78-3.78,3.78H3.78C1.69,61.17,0,59.47,0,57.39v-30.38C0,12.1,12.1,0,27,0Z"/>
      <rect class="cls-1" x="4.15" y="62.01" width="367.3" height="8.21"/>
      <g>
        <path class="cls-6" d="M349.75,6H27C12.09,6,0,18.09,0,33.01v26.38c0,2.09,1.69,3.78,3.78,3.78h369.2c2.09,0,3.78-1.69,3.78-3.78v-26.38c0-14.91-12.09-27-27-27Z"/>
        <g>
          <circle class="cls-2" cx="360.99" cy="50.25" r="3.2"/>
          <circle class="cls-2" cx="360.99" cy="21.79" r="3.2"/>
        </g>
        <g>
          <circle class="cls-2" cx="15.23" cy="50.25" r="3.2"/>
          <circle class="cls-2" cx="15.23" cy="21.79" r="3.2"/>
        </g>
      </g>
    </g>
  </g>
</svg>