<?xml version="1.0" encoding="UTF-8"?>
<svg id="Ebene_2" xmlns="http://www.w3.org/2000/svg" xmlns:xlink="http://www.w3.org/1999/xlink" viewBox="0 0 268 268">
  <defs>
    <style>
      .cls-1 {
        fill: none;
      }

      .cls-1, .cls-2, .cls-3, .cls-4, .cls-5, .cls-6, .cls-7, .cls-8, .cls-9, .cls-10 {
        stroke: #15033a;
        stroke-miterlimit: 10;
        stroke-width: 2px;
      }

      .cls-11 {
        opacity: .5;
      }

      .cls-11, .cls-12, .cls-13 {
        fill: #fff;
      }

      .cls-12, .cls-14 {
        opacity: .3;
      }

      .cls-2 {
        fill: url(#linear-gradient-4);
      }

      .cls-3 {
        fill: url(#linear-gradient-3);
      }

      .cls-4 {
        fill: url(#linear-gradient-9);
      }

      .cls-5 {
        fill: url(#linear-gradient-2);
      }

      .cls-6 {
        fill: url(#linear-gradient-6);
      }

      .cls-7 {
        fill: url(#linear-gradient-8);
      }

      .cls-8 {
        fill: url(#linear-gradient-5);
      }

      .cls-9 {
        fill: url(#linear-gradient-7);
      }

      .cls-10 {
        fill: url(#linear-gradient);
      }

      .cls-15 {
        opacity: .4;
      }

      .cls-15, .cls-16, .cls-14, .cls-17 {
        fill: #15033a;
      }

      .cls-16 {
        opacity: .2;
      }
    </style>
    <linearGradient id="linear-gradient" x1="168.95" y1="152.55" x2="168.95" y2="203.15" gradientUnits="userSpaceOnUse">
      <stop offset="0" stop-color="#8a8484"/>
      <stop offset=".99" stop-color="#544a51"/>
    </linearGradient>
    <linearGradient id="linear-gradient-2" x1="85.67" y1="174.79" x2="60.35" y2="229.42" xlink:href="#linear-gradient"/>
    <linearGradient id="linear-gradient-3" x1="60.85" y1="149.89" x2="60.85" y2="170.25" gradientTransform="translate(255.69) rotate(-180) scale(1 -1)" gradientUnits="userSpaceOnUse">
      <stop offset="0" stop-color="#fbb040"/>
      <stop offset="1" stop-color="#45ef36"/>
    </linearGradient>
    <linearGradient id="linear-gradient-4" x1="131.17" y1="140.94" x2="131.17" y2="177.77" gradientUnits="userSpaceOnUse">
      <stop offset="0" stop-color="#13b040"/>
      <stop offset="1" stop-color="#334136"/>
    </linearGradient>
    <linearGradient id="linear-gradient-5" x1="134.19" y1="133.7" x2="134.19" y2="182.37" gradientTransform="translate(255.69) rotate(-180) scale(1 -1)" gradientUnits="userSpaceOnUse">
      <stop offset="0" stop-color="#9ee66a"/>
      <stop offset="1" stop-color="#334136"/>
    </linearGradient>
    <linearGradient id="linear-gradient-6" x1="100.78" y1="183.41" x2="100.78" y2="163.51" gradientTransform="matrix(1,0,0,1,0,0)" xlink:href="#linear-gradient-3"/>
    <linearGradient id="linear-gradient-7" x1="122.91" y1="183.41" x2="122.91" y2="163.51" gradientTransform="matrix(1,0,0,1,0,0)" xlink:href="#linear-gradient-3"/>
    <linearGradient id="linear-gradient-8" x1="145.05" y1="183.41" x2="145.05" y2="163.51" gradientTransform="matrix(1,0,0,1,0,0)" xlink:href="#linear-gradient-3"/>
    <linearGradient id="linear-gradient-9" x1="229.52" y1="140.88" x2="229.52" y2="177.61" xlink:href="#linear-gradient-4"/>
  </defs>
  <g id="Ebene_1-2" data-name="Ebene_1">
    <g>
      <circle class="cls-13" cx="134" cy="134" r="134"/>
      <g>
        <path d="M129.69,55.92c.54,0,1.39,1.23,1.39,1.31.31.69.39,1.08.39,1.39,0,.38-.15.62-.15.92,0,.38-.08.46-.08.69,0,.08,0,.23.08.46.15.46.39,1.46.39,1.54,0,.31-.08.31-.92,1.77-.54,1-1.23,1.46-1.46,1.46-.15,0-.23,0-.23.23v.46c0,.31-.08.46-.15.69-.15.31-.85.15-.85.85,0,.38.08.62.08.77s0,.23-.15.46c-.31.62-1.16,1.08-1.54,2.54-.31,1.16-.54.77-.54,1.08,0,.15.08.23.08.77,0,.62-.31.46-.54,1.15-.31.85-.39.77-.77,2.16-.38,1.39,0,.92-1.31,3.39-1.31,2.46-1.46,2.85-1.69,3.62s-.08.92-.69,1.46c-.62.62-.69,1.39-.69,1.85,0,.08-.08.31-.08.38-.08.15-.31.46-.69,1.31-.85,1.85-.92,2.54-1.08,3.16-.23.62-.77.31-1,.85-.23.54-.54,1.69-.69,2.85-.08.46-.08.69-.08.85,0,.23-.08.38-.69,1.46-.38.54-.69,1.08-.92,1.77l-.38,1.08c-.69,1.77-1.46,2.39-1.54,3.16,0,.77-.39,1.46-.54,2.23-.08.54-.15.85-.69,1.77-.54,1.08-.85,1.85-1.62,3.23-.77,1.46-.85,2.62-1.77,2.85-.31,0-1.23-.15-2-.92-.92-.92-1.46-1.62-1.62-2.16,0-.08-.15-.23-.38-1.23-.08-.31-.15-.62-.15-.92,0-.92.08-1.39.54-2l.15-.23c.31-.46,1.54-3,1.54-3.46.38-.69.85-1.62,1.39-3.54.62-2.16,1.85-5.62,2.93-7.55.69-1.23,1.15-2.31,1.39-2.93.23-.62.08-1.54.85-2.54.15-.23.62-.39.62-.39.08,0,.08-.08.23-.62.38-1.23.69-2.31,1.15-3.39.54-1.16,1-1.85,1.54-3,.46-1.23,1.69-4.7,1.69-4.77s.38-1,.85-2.16c.31-.85.62-1.15.69-1.69,0-.23.08-.46.08-.62,0-.08-.08-.31-.23-.31s-.38.15-.62.31c-.62.54-1,.77-1.85,1.46-.85.69-1.15,1.23-1.69,1.46-.54.23-1.08.15-1.08.46s-.31.85-.31.85c0,0-.39.39-1.08.85s-1.15.23-1.54.69c-.38.46-1.62.77-2.08,1.23s-.69.92-.85,1.15-.54.62-1.15,1.16c-.62.54-1.77.08-2,.77-.23.69-.08.77-.77,1.16-.69.38-2.46.85-2.69.85s-2.93-1.15-2.93-2.62c0-.46.92-.54,2.31-.92,1.31-.39,1.77-.69,3.39-1.62.92-.54,1.15-.77,1.85-.85.69-.08,1.08-.92,1.08-.92,0,0,.77-.69,1.69-1.15s1.46-1.15,2.39-1.85c.92-.69,2.62-2.08,3.31-2.54s1.39-1.23,2.31-1.85c.92-.62,1.85-2.08,2.39-2.16.54-.08,1-.77,1.23-1.23.46-1.23,2.23-1.62,3-2.69.31-.46.31-1.23,1.08-1.77s.62-.77,1.77-1.92c.54-.54,1.39-1.85,2.77-1.85Z"/>
        <path d="M127.61,105.74c1.15-.38,1.77-.46,4.77-2.46,3-2,6.78-6.08,6.78-6.08l4.08-3.7c1.31-1.23,1.85-2.08,2.62-3,.77-.92,1.62-2,2.16-2.39s.77-.77,1-1.15c.23-.39.92-1.31,2-2.23,1.08-.92.85-1.23,2.16-2.62,1.31-1.39,4.85-7.08,5.7-8.78.85-1.69.85-1.15,1-2.23.15-1.08.23-.92.54-1.85.31-.92.23-1.46.69-2.31s.31-2.31.54-3.16c0-.15.08-.23.08-.39,0-.77-.46-1.69-.69-2.69-.23-1.15-1.92-1.92-3.7-1.92-2.08,0-3.46.46-4.16.54-.77.08-1.08.77-1.46,1.08-.39.31-2.31,1-2.77,1.08s-.77.69-1.31,1.08c-.92.69-2.39,1.46-3.39,1.92-.46.23-.62.62-1,1s-.46.77-1.23,1.39c-.77.62-1.46,1.39-2,1.69-.54.31-.77.31-.77,1.08s-.77,1.15-1.23,1.92c-.46.77-.85,1.77-1.16,2.39l-.15.85c0,.46.08,1.15.15,1.92,0,1.39-1.08,1.77-2.54,1.92-1.23,0-2.46-1.15-2.46-2.16.08-1.85.62-2.77,1.31-4.62.69-1.85,1.39-2.31,2-2.93s1.08-1.54,2.08-2.77,1.77-1.85,3.31-3c1.54-1.15,4.16-3,5-3.46.85-.46,1.69-.85,2.85-1.15,1.16-.31,1.23-.54,3.7-1.62,1.69-.77,4.16-1.16,6.62-1.16,1.08,0,2.16.08,3.08.23,4.39.77,6.16,4.23,6.16,5.31s.77,2.62.85,3.7c0,.38.08.77.08,1.31,0,1-.15,2.39-.54,3.93-.62,2.31-1.62,5.85-2.31,7.01s-1,1.69-1.77,1.92-.77,1.31-.92,1.85c-.08.38-.15.15-.39.38s-.85,1.54-1.31,2.46c-.46.92-4.31,4.23-4.31,4.23,0,0-3.77,2.85-4,3.23-.23.38-.62,1-1.15,1.23s-.77.15-1.39.85c-.62.69-1.16,1.93-2.23,2.31-1.08.38-1.08.31-1.62.85-.54.54-2.85,2.39-3.46,2.85-.62.46-.85.92-1.54,1.39-.31.23-.54.23-.69.23-.54,0-.62.08-.77.08-.69.15-.31.39-.69.85-.38.46-1.31,1.23-2.23,1.54-.92.31-1.15.31-1.62.92-.46.62-.31.85-.77.85s-.77.15-1.62.62c-.23.15-.39.23-.39.31s.15.08.46.08,1.08-.15,1.69-.23c.46-.08,1.15-.15,1.69-.15.85,0,1.77.46,2.46.46s2.31,1,3,1.23c.69.23,3,.69,4.23,1.23s4.54.77,5.08,1.15c.23.15,1,.23,1.92.23,1.15,0,2.54-.15,3.39-.46,1.46-.62,2.54-1,3.16-1.77.62-.77,1.54-1.15,1.92-2.23.23-.62.77-.85,1.08-.85.23,0,.46.15.54.54v.54c0,.77-.23,1.69-.85,2.7-.38.69-.77.54-1.08,1.31-.31.77-1.62,2.23-2.93,3.08-.39.23-1.16.92-2,1.31-.77.31-2.08.46-3.23.46-1.46,0-2.08.15-2.69.15-.15,0-.31-.08-.46-.08-.77-.15-1.77-.15-2.16-.15s-3.08-.77-4.85-1.23c-.08,0-.23-.08-.31-.08-1.69-.46-2.69-.69-4.08-1.15s-5.16-1.08-6.62-1.15c-1.16,0-2.85.23-3.39.31-.62.08-1.69.39-2.62.62-1.31.38-2.93.54-3.31.54-1.23-.08-2.46-1.54-3.39-2.77-.31-.39-.38-.77-.38-1,0-.46.31-.69.62-.77.46-.15,2.23-.23,4.23-1.08,1.23-.46,2.16-.85,3.31-1.23Z"/>
      </g>
      <g>
        <rect class="cls-10" x="156.71" y="152.55" width="24.48" height="50.59" rx="7.78" ry="7.78"/>
        <g>
          <path class="cls-17" d="M101.86,193.98c0,1.47-1.2,2.67-2.67,2.67h0c-1.47,0-2.67-1.2-2.67-2.67v-5.55c0-1.47,1.2-2.67,2.67-2.67h0c1.47,0,2.67,1.2,2.67,2.67v5.55Z"/>
          <rect class="cls-1" x="78.57" y="182.12" width="37.39" height="17.73" rx="7.78" ry="7.78"/>
          <path class="cls-5" d="M65.72,182.5s-17.35,19.35-22.19,34.43c0,0,9.1,12.8,42.68,6.26,0,0-3.98-28.74,6.83-36.99,0,0-9.1-9.96-27.31-3.7Z"/>
          <path class="cls-15" d="M56.33,207.82c2.95-9.2,10.56-19.98,16.04-27-2.07.32-4.28.86-6.66,1.68,0,0-17.35,19.35-22.19,34.43,0,0,9.1,12.8,42.68,6.26,0,0-.42-3.02-.61-7.37-22.66,1.27-29.26-7.99-29.26-7.99Z"/>
        </g>
        <polygon class="cls-17" points="208.49 145.22 253.1 145.22 253.1 134 217.83 134 208.49 145.22"/>
        <polygon class="cls-17" points="243.53 142.04 254.47 142.04 254.47 130 246.64 130 243.53 142.04"/>
        <rect class="cls-17" x="74.64" y="166.34" width="97.27" height="24.83" rx="7.78" ry="7.78"/>
        <g>
          <rect class="cls-3" x="171" y="149.89" width="47.68" height="20.36"/>
          <rect class="cls-14" x="171" y="162.22" width="47.68" height="8.03"/>
          <rect class="cls-12" x="173.57" y="152.02" width="42.69" height="3.21"/>
        </g>
        <rect class="cls-2" x="70.21" y="140.94" width="121.92" height="36.83" rx="7.78" ry="7.78"/>
        <path class="cls-16" d="M185.31,165.01h-106.36c-4.3,0-7.78-3.48-7.78-7.78v-12.18c-.59,1.1-.96,2.33-.96,3.66v21.27c0,4.3,3.48,7.78,7.78,7.78h106.36c4.3,0,7.78-3.48,7.78-7.78v-9.09c-1.31,2.44-3.86,4.12-6.83,4.12Z"/>
        <path class="cls-8" d="M92.84,133.7h57.32c6.77,0,12.28,5.5,12.28,12.28v24.12c0,6.77-5.5,12.28-12.28,12.28h-57.32c-6.78,0-12.28-5.5-12.28-12.28v-24.12c0-6.77,5.5-12.28,12.28-12.28Z"/>
        <path class="cls-16" d="M86.53,135.45v21.21c0,6.78,5.5,12.28,12.28,12.28h57.31c2.31,0,4.46-.65,6.31-1.76v2.91c0,6.78-5.5,12.28-12.28,12.28h-57.31c-6.78,0-12.28-5.5-12.28-12.28v-24.12c0-4.47,2.4-8.37,5.97-10.52Z"/>
        <path class="cls-13" d="M150.81,137.34c-.54.88.53,2.53,2.39,3.68,1.86,1.15,3.82,1.36,4.36.48.54-.88-.53-2.53-2.39-3.68-1.87-1.15-3.82-1.36-4.36-.48Z"/>
        <rect class="cls-6" x="94.93" y="163.51" width="11.69" height="19.9"/>
        <rect class="cls-9" x="117.07" y="163.51" width="11.69" height="19.9"/>
        <rect class="cls-7" x="139.21" y="163.51" width="11.69" height="19.9"/>
        <rect class="cls-4" x="205.03" y="140.88" width="48.98" height="36.73"/>
        <polygon class="cls-16" points="206.39 164.55 206.39 140.88 205.03 140.88 205.03 177.61 254.01 177.61 254.01 164.55 206.39 164.55"/>
        <g>
          <rect class="cls-17" x="211.58" y="149.09" width="5.43" height="19.9"/>
          <rect class="cls-17" x="221.74" y="149.09" width="5.43" height="19.9"/>
          <rect class="cls-17" x="231.9" y="149.09" width="5.43" height="19.9"/>
          <rect class="cls-17" x="242.06" y="149.09" width="5.43" height="19.9"/>
        </g>
        <rect class="cls-11" x="207.48" y="143.32" width="43.81" height="2.45"/>
      </g>
    </g>
  </g>
</svg>