<?xml version="1.0" encoding="UTF-8"?>
<svg id="Ebene_2" xmlns="http://www.w3.org/2000/svg" xmlns:xlink="http://www.w3.org/1999/xlink" viewBox="0 0 268 268">
  <defs>
    <style>
      .cls-1 {
        fill: none;
      }

      .cls-1, .cls-2, .cls-3, .cls-4, .cls-5, .cls-6, .cls-7, .cls-8, .cls-9, .cls-10 {
        stroke: #15033a;
        stroke-miterlimit: 10;
        stroke-width: 2px;
      }

      .cls-11 {
        opacity: .5;
      }

      .cls-11, .cls-12, .cls-13 {
        fill: #fff;
      }

      .cls-12, .cls-14 {
        opacity: .3;
      }

      .cls-2 {
        fill: url(#linear-gradient-4);
      }

      .cls-3 {
        fill: url(#linear-gradient-3);
      }

      .cls-4 {
        fill: url(#linear-gradient-9);
      }

      .cls-5 {
        fill: url(#linear-gradient-2);
      }

      .cls-6 {
        fill: url(#linear-gradient-6);
      }

      .cls-7 {
        fill: url(#linear-gradient-8);
      }

      .cls-8 {
        fill: url(#linear-gradient-5);
      }

      .cls-9 {
        fill: url(#linear-gradient-7);
      }

      .cls-10 {
        fill: url(#linear-gradient);
      }

      .cls-15 {
        opacity: .4;
      }

      .cls-15, .cls-16, .cls-14, .cls-17 {
        fill: #15033a;
      }

      .cls-16 {
        opacity: .2;
      }
    </style>
    <linearGradient id="linear-gradient" x1="164.95" y1="145.05" x2="164.95" y2="195.65" gradientUnits="userSpaceOnUse">
      <stop offset="0" stop-color="#8a8484"/>
      <stop offset=".99" stop-color="#544a51"/>
    </linearGradient>
    <linearGradient id="linear-gradient-2" x1="81.67" y1="167.29" x2="56.35" y2="221.92" xlink:href="#linear-gradient"/>
    <linearGradient id="linear-gradient-3" x1="-5197.03" y1="142.39" x2="-5197.03" y2="162.75" gradientTransform="translate(-5006.18) rotate(-180) scale(1 -1)" gradientUnits="userSpaceOnUse">
      <stop offset="0" stop-color="#fbb040"/>
      <stop offset="1" stop-color="#45ef36"/>
    </linearGradient>
    <linearGradient id="linear-gradient-4" x1="127.17" y1="133.44" x2="127.17" y2="170.27" gradientUnits="userSpaceOnUse">
      <stop offset="0" stop-color="#13b040"/>
      <stop offset="1" stop-color="#334136"/>
    </linearGradient>
    <linearGradient id="linear-gradient-5" x1="-5123.68" y1="126.2" x2="-5123.68" y2="174.87" gradientTransform="translate(-5006.18) rotate(-180) scale(1 -1)" gradientUnits="userSpaceOnUse">
      <stop offset="0" stop-color="#9ee66a"/>
      <stop offset="1" stop-color="#334136"/>
    </linearGradient>
    <linearGradient id="linear-gradient-6" x1="96.78" y1="175.91" x2="96.78" y2="156.01" gradientTransform="matrix(1,0,0,1,0,0)" xlink:href="#linear-gradient-3"/>
    <linearGradient id="linear-gradient-7" x1="118.91" y1="175.91" x2="118.91" y2="156.01" gradientTransform="matrix(1,0,0,1,0,0)" xlink:href="#linear-gradient-3"/>
    <linearGradient id="linear-gradient-8" x1="141.05" y1="175.91" x2="141.05" y2="156.01" gradientTransform="matrix(1,0,0,1,0,0)" xlink:href="#linear-gradient-3"/>
    <linearGradient id="linear-gradient-9" x1="225.52" y1="133.38" x2="225.52" y2="170.11" xlink:href="#linear-gradient-4"/>
  </defs>
  <g id="Ebene_1-2" data-name="Ebene_1">
    <g>
      <circle class="cls-13" cx="134" cy="134" r="134"/>
      <path d="M123.57,54.61c.54,0,1.31.08,1.85,1.69.54,1.62,1.08,1.69,1.69,2.23l1.46,1.39s1.08.54,1.77.62,1.39,1,1.93,1.08c.23.08.62.08,1.08.08h1.31c.69.08,1.31.23,2.69.23h.77c1.92-.08,3.77-.62,4.85-.85,1.08-.23,1.23-.54,2.54-.92,1.31-.38,2.16-.92,3.16-1.08.69,0,1.39-.54,2.16-1.15,1.08-.92,2-1.85,2.62-1.85.77,0,.85,1.85.85,3.54,0,1.08.15,2,.15,2.46,0,.31,0,.46-.23.69-.54.46-.85.85-1.31,1.31-.85.85-1.08.69-1.54,1.39-.46.69-.38.85-1.08,1.08-.69.23-.92.69-1.54,1.08-.62.39-1.77,1.54-3.08,2.69s-1.31,1.31-1.85,1.85-1.85,1.62-2.39,1.92-1.46.08-1.54.85c-.08.54-.62.54-1.31,1.16-.69.62-1,.77-2,1.54-.38.31-.62.31-.85.62.08.31.31.31.62.31.23,0,.54-.15.85-.23,1-.15,2.39-.46,5.08-.46s5.47,1.46,6.08,2.46c.23.38.69,1.08.92,1.31.38.39,1.85,2.08,1.92,3.16.08,1.08.46,1.69.54,3,.08,1,.23,1.39.23,2.16,0,.23-.08.54-.08.85-.15,1.31.15,4-.77,5.7-.31.62-.54.85-.54,1.08,0,.31.31.31.31.85-1.23,3.93-2.08,4.08-3.08,5.62-1,1.54-1.39,1.62-2,2.31-.62.69-.62.85-1.23,1.62-.62.77-1.54.39-1.85,1.23-.31.85-1.54.92-2.16,1.31-.62.38-1.31.62-2.31,1.39-1,.77-3.77,1.77-8.93,2.08-.85.08-1.62.08-2.39.08-4.24,0-8.24-.85-10.93-4.16-1.08-1.31-2.23-2.77-2.23-4.77,0-1-.23-1.77-.23-2.54s.08-1.54.38-2.77c.31-1.23,1.23-4.47,3.46-4.47,1.77,0,2.54,1.39,2.54,2.31,0,.23,0,.46-.08.69-.38,1-1.08,1.46-2.23,1.62-.77.08-1,.23-1.16,1-.08.54-.23.62-.23,1,0,.15.15.54.15.85,0,.39-.31.85-.31,1.16,0,.08,0,.23.08.31.23.62.23.85.46,1.39s.92,1.69,1.46,2.46,1.46.85,1.69,1.31c.31.69.85.46,1.23.77.38.31,1.69.31,2.16.54.31.15,1.46.15,2.39.15h.85c.15,0,1.92.08,2.16.08,1.23,0,3-.54,4.24-1.08,1.46-.69,1.85-.77,2.69-1.46.85-.69,2.39-1.54,3-2.54.62-1,1.54-1.92,1.85-2.54.31-.62,1-1.15,1.77-2.46.77-1.31,1.15-2.46,1.46-3.7.31-1.23.46-1.77.92-2.93.46-1.15.46-1.54.46-2.16,0-1.08-.62-2.23-.62-3,0-.15.08-.23.08-.31.15-.54.39-1.08.39-1.46,0-.15,0-.31-.08-.38-.31-.39-.54-2.69-1.23-3.93-.46-.85-.69-1.46-1.54-1.85-.62-.31-1.62-.69-2.62-.69-.31,0-.54,0-.77.08-1,.31-2.69.31-3.62.92-.77.54-4.77,1.69-5.77,1.69-.31,0-.54,0-.77-.15-.92-.54-2.39-2.31-2.62-2.77-.15-.23-.46-.85-.46-1.31,0-.31.15-.54.77-.54,1.46,0,3.85-1.92,4.85-2.39s2.31-1.23,2.77-1.85c.46-.62.92-1.16,1.62-1.39.62-.23,1.31-1.15,1.77-1.46.46-.31,2.16-1.77,2.93-2.46.77-.69,2.46-2.69,3.39-3.31,1.08-.69,3.16-2.62,3.16-2.77,0-.08,0-.15-.15-.15-.69,0-1.31.31-1.92.46-.92.23-1.31.23-1.62.23s-.54,0-.92.23c-.85.46-1.31.62-1.62.69s-2.93.54-4,.62c-1.08.08-3,.46-4.16.46s-2.08-.31-2.85-.31-1.77,0-2.46-.15c-.54-.08-.77-.08-.92-.08-.23,0-.38-.08-1.08-.46-1.23-.77-.85-.23-2.16-1.16-.77-.54-1.08-2.31-1.08-3.54,0-.77.15-1.62.31-2.31.46-1.69,1-2.69,1.62-2.69Z"/>
      <g>
        <rect class="cls-10" x="152.71" y="145.05" width="24.48" height="50.59" rx="7.78" ry="7.78"/>
        <g>
          <path class="cls-17" d="M97.86,186.48c0,1.47-1.2,2.67-2.67,2.67h0c-1.47,0-2.67-1.2-2.67-2.67v-5.55c0-1.47,1.2-2.67,2.67-2.67h0c1.47,0,2.67,1.2,2.67,2.67v5.55Z"/>
          <rect class="cls-1" x="74.57" y="174.62" width="37.39" height="17.73" rx="7.78" ry="7.78"/>
          <path class="cls-5" d="M61.72,175s-17.35,19.35-22.19,34.43c0,0,9.1,12.8,42.68,6.26,0,0-3.98-28.74,6.83-36.99,0,0-9.1-9.96-27.31-3.7Z"/>
          <path class="cls-15" d="M52.33,200.32c2.95-9.2,10.56-19.98,16.04-27-2.07.32-4.28.86-6.66,1.68,0,0-17.35,19.35-22.19,34.43,0,0,9.1,12.8,42.68,6.26,0,0-.42-3.02-.61-7.37-22.66,1.27-29.26-7.99-29.26-7.99Z"/>
        </g>
        <polygon class="cls-17" points="204.49 137.72 249.1 137.72 249.1 126.5 213.83 126.5 204.49 137.72"/>
        <polygon class="cls-17" points="239.53 134.54 250.47 134.54 250.47 122.5 242.64 122.5 239.53 134.54"/>
        <rect class="cls-17" x="70.64" y="158.84" width="97.27" height="24.83" rx="7.78" ry="7.78"/>
        <g>
          <rect class="cls-3" x="167" y="142.39" width="47.68" height="20.36"/>
          <rect class="cls-14" x="167" y="154.72" width="47.68" height="8.03"/>
          <rect class="cls-12" x="169.57" y="144.52" width="42.69" height="3.21"/>
        </g>
        <rect class="cls-2" x="66.21" y="133.44" width="121.92" height="36.83" rx="7.78" ry="7.78"/>
        <path class="cls-16" d="M181.31,157.51h-106.36c-4.3,0-7.78-3.48-7.78-7.78v-12.18c-.59,1.1-.96,2.33-.96,3.66v21.27c0,4.3,3.48,7.78,7.78,7.78h106.36c4.3,0,7.78-3.48,7.78-7.78v-9.09c-1.31,2.44-3.86,4.12-6.83,4.12Z"/>
        <path class="cls-8" d="M88.84,126.2h57.32c6.78,0,12.28,5.5,12.28,12.28v24.12c0,6.77-5.5,12.28-12.28,12.28h-57.32c-6.78,0-12.28-5.5-12.28-12.28v-24.12c0-6.77,5.5-12.28,12.28-12.28Z"/>
        <path class="cls-16" d="M82.53,127.95v21.21c0,6.78,5.5,12.28,12.28,12.28h57.31c2.31,0,4.46-.65,6.31-1.76v2.91c0,6.78-5.5,12.28-12.28,12.28h-57.31c-6.78,0-12.28-5.5-12.28-12.28v-24.12c0-4.47,2.4-8.37,5.97-10.52Z"/>
        <path class="cls-13" d="M146.81,129.84c-.54.88.53,2.53,2.39,3.68,1.86,1.15,3.82,1.36,4.36.48.54-.88-.53-2.53-2.39-3.68-1.87-1.15-3.82-1.36-4.36-.48Z"/>
        <rect class="cls-6" x="90.93" y="156.01" width="11.69" height="19.9"/>
        <rect class="cls-9" x="113.07" y="156.01" width="11.69" height="19.9"/>
        <rect class="cls-7" x="135.21" y="156.01" width="11.69" height="19.9"/>
        <rect class="cls-4" x="201.03" y="133.38" width="48.98" height="36.73"/>
        <polygon class="cls-16" points="202.39 157.05 202.39 133.38 201.03 133.38 201.03 170.11 250.01 170.11 250.01 157.05 202.39 157.05"/>
        <g>
          <rect class="cls-17" x="207.58" y="141.59" width="5.43" height="19.9"/>
          <rect class="cls-17" x="217.74" y="141.59" width="5.43" height="19.9"/>
          <rect class="cls-17" x="227.9" y="141.59" width="5.43" height="19.9"/>
          <rect class="cls-17" x="238.06" y="141.59" width="5.43" height="19.9"/>
        </g>
        <rect class="cls-11" x="203.48" y="135.82" width="43.81" height="2.45"/>
      </g>
    </g>
  </g>
</svg>