<?xml version="1.0" encoding="UTF-8"?>
<svg id="Ebene_2" xmlns="http://www.w3.org/2000/svg" xmlns:xlink="http://www.w3.org/1999/xlink" version="1.1" viewBox="0 0 249.2 60.6">
  <!-- Generator: Adobe Illustrator 30.2.1, SVG Export Plug-In . SVG Version: 2.1.1 Build 1)  -->
  <defs>
    <style>
      .st0 {
        fill: url(#Unbenannter_Verlauf);
      }

      .st1 {
        fill: url(#Unbenannter_Verlauf_2);
      }

      .st2 {
        fill: url(#Unbenannter_Verlauf_4);
      }

      .st3 {
        fill: url(#Unbenannter_Verlauf_3);
      }

      .st4 {
        fill: url(#Unbenannter_Verlauf_8);
      }

      .st5 {
        fill: url(#Unbenannter_Verlauf_6);
      }

      .st6 {
        fill: url(#Unbenannter_Verlauf_7);
      }

      .st7 {
        fill: url(#Unbenannter_Verlauf_5);
      }

      .st8 {
        fill: url(#Unbenannter_Verlauf_9);
      }

      .st9 {
        opacity: .3;
      }

      .st9, .st10, .st11 {
        fill: #1d0435;
      }

      .st9, .st10, .st12, .st13, .st14 {
        isolation: isolate;
      }

      .st10, .st12 {
        opacity: .4;
      }

      .st15 {
        fill: #fff;
      }

      .st16 {
        fill: #ffccd9;
      }

      .st12 {
        fill: #8c000e;
      }

      .st17 {
        fill: url(#Unbenannter_Verlauf_14);
      }

      .st18 {
        fill: url(#Unbenannter_Verlauf_15);
      }

      .st19 {
        fill: url(#Unbenannter_Verlauf_12);
      }

      .st20 {
        fill: url(#Unbenannter_Verlauf_13);
      }

      .st21 {
        fill: url(#Unbenannter_Verlauf_18);
      }

      .st22 {
        fill: url(#Unbenannter_Verlauf_19);
      }

      .st23 {
        fill: url(#Unbenannter_Verlauf_16);
      }

      .st24 {
        fill: url(#Unbenannter_Verlauf_17);
      }

      .st25 {
        fill: url(#Unbenannter_Verlauf_10);
      }

      .st26 {
        fill: url(#Unbenannter_Verlauf_11);
      }

      .st13 {
        opacity: .2;
      }

      .st13, .st14 {
        fill: #ff557a;
      }

      .st14 {
        opacity: .5;
      }

      .st27 {
        fill: #e00026;
      }

      .st28 {
        fill: #ff5a72;
      }
    </style>
    <linearGradient id="Unbenannter_Verlauf" data-name="Unbenannter Verlauf" x1="124.6" y1="1.4" x2="124.6" y2="18.8" gradientTransform="translate(0 62) scale(1 -1)" gradientUnits="userSpaceOnUse">
      <stop offset="0" stop-color="#390800"/>
      <stop offset="1" stop-color="#9f5829"/>
    </linearGradient>
    <linearGradient id="Unbenannter_Verlauf_2" data-name="Unbenannter Verlauf 2" x1="46.4" y1="25.2" x2="49.8" y2="25.2" gradientTransform="translate(0 62) scale(1 -1)" gradientUnits="userSpaceOnUse">
      <stop offset="0" stop-color="#f1f2f2"/>
      <stop offset="1" stop-color="#939598"/>
    </linearGradient>
    <linearGradient id="Unbenannter_Verlauf_3" data-name="Unbenannter Verlauf 3" x1="47.4" y1="28.7" x2="55" y2="28.7" gradientTransform="translate(0 62) scale(1 -1)" gradientUnits="userSpaceOnUse">
      <stop offset="0" stop-color="#9de57c"/>
      <stop offset="1" stop-color="#0c7068"/>
    </linearGradient>
    <linearGradient id="Unbenannter_Verlauf_4" data-name="Unbenannter Verlauf 4" x1="30" y1="25.3" x2="33.3" y2="25.3" gradientTransform="translate(0 62) scale(1 -1)" gradientUnits="userSpaceOnUse">
      <stop offset="0" stop-color="#f1f2f2"/>
      <stop offset="1" stop-color="#939598"/>
    </linearGradient>
    <linearGradient id="Unbenannter_Verlauf_5" data-name="Unbenannter Verlauf 5" x1="31.2" y1="30.3" x2="40.3" y2="30.3" gradientTransform="translate(0 62) scale(1 -1)" gradientUnits="userSpaceOnUse">
      <stop offset="0" stop-color="#9de57c"/>
      <stop offset="1" stop-color="#0c7068"/>
    </linearGradient>
    <linearGradient id="Unbenannter_Verlauf_6" data-name="Unbenannter Verlauf 6" x1="24.5" y1="40.8" x2="32.2" y2="40.8" gradientTransform="translate(0 62) scale(1 -1)" gradientUnits="userSpaceOnUse">
      <stop offset="0" stop-color="#9de57c"/>
      <stop offset="1" stop-color="#0c7068"/>
    </linearGradient>
    <linearGradient id="Unbenannter_Verlauf_7" data-name="Unbenannter Verlauf 7" x1="53.7" y1="30.3" x2="59.5" y2="30.3" gradientTransform="translate(0 62) scale(1 -1)" gradientUnits="userSpaceOnUse">
      <stop offset="0" stop-color="#9de57c"/>
      <stop offset="1" stop-color="#0c7068"/>
    </linearGradient>
    <linearGradient id="Unbenannter_Verlauf_8" data-name="Unbenannter Verlauf 8" x1="28.4" y1="36.3" x2="58" y2="36.3" gradientTransform="translate(0 62) scale(1 -1)" gradientUnits="userSpaceOnUse">
      <stop offset="0" stop-color="#f7ee1e"/>
      <stop offset="1" stop-color="#be4c2d"/>
    </linearGradient>
    <linearGradient id="Unbenannter_Verlauf_9" data-name="Unbenannter Verlauf 9" x1="29" y1="40.6" x2="56.9" y2="40.6" gradientTransform="translate(0 62) scale(1 -1)" gradientUnits="userSpaceOnUse">
      <stop offset="0" stop-color="#f7481e"/>
      <stop offset="1" stop-color="#4f0d7a"/>
    </linearGradient>
    <linearGradient id="Unbenannter_Verlauf_10" data-name="Unbenannter Verlauf 10" x1="28.4" y1="36.9" x2="58" y2="36.9" gradientTransform="translate(0 62) scale(1 -1)" gradientUnits="userSpaceOnUse">
      <stop offset="0" stop-color="#f1f2f2"/>
      <stop offset="1" stop-color="#939598"/>
    </linearGradient>
    <linearGradient id="Unbenannter_Verlauf_11" data-name="Unbenannter Verlauf 11" x1="27.4" y1="30.3" x2="36.6" y2="30.3" gradientTransform="translate(0 62) scale(1 -1)" gradientUnits="userSpaceOnUse">
      <stop offset="0" stop-color="#9de57c"/>
      <stop offset="1" stop-color="#0c7068"/>
    </linearGradient>
    <linearGradient id="Unbenannter_Verlauf_12" data-name="Unbenannter Verlauf 12" x1="27.4" y1="25.3" x2="30.7" y2="25.3" gradientTransform="translate(0 62) scale(1 -1)" gradientUnits="userSpaceOnUse">
      <stop offset="0" stop-color="#f1f2f2"/>
      <stop offset="1" stop-color="#939598"/>
    </linearGradient>
    <linearGradient id="Unbenannter_Verlauf_13" data-name="Unbenannter Verlauf 13" x1="29.3" y1="25.3" x2="32.7" y2="25.3" gradientTransform="translate(0 62) scale(1 -1)" gradientUnits="userSpaceOnUse">
      <stop offset="0" stop-color="#f1f2f2"/>
      <stop offset="1" stop-color="#939598"/>
    </linearGradient>
    <linearGradient id="Unbenannter_Verlauf_14" data-name="Unbenannter Verlauf 14" x1="45.9" y1="28.7" x2="53.5" y2="28.7" gradientTransform="translate(0 62) scale(1 -1)" gradientUnits="userSpaceOnUse">
      <stop offset="0" stop-color="#9de57c"/>
      <stop offset="1" stop-color="#0c7068"/>
    </linearGradient>
    <linearGradient id="Unbenannter_Verlauf_15" data-name="Unbenannter Verlauf 15" x1="44.9" y1="25.2" x2="48.2" y2="25.2" gradientTransform="translate(0 62) scale(1 -1)" gradientUnits="userSpaceOnUse">
      <stop offset="0" stop-color="#f1f2f2"/>
      <stop offset="1" stop-color="#939598"/>
    </linearGradient>
    <linearGradient id="Unbenannter_Verlauf_16" data-name="Unbenannter Verlauf 16" x1="46.5" y1="25.1" x2="49.8" y2="25.1" gradientTransform="translate(0 62) scale(1 -1)" gradientUnits="userSpaceOnUse">
      <stop offset="0" stop-color="#f1f2f2"/>
      <stop offset="1" stop-color="#939598"/>
    </linearGradient>
    <linearGradient id="Unbenannter_Verlauf_17" data-name="Unbenannter Verlauf 17" x1="-1.2" y1="60.8" x2="26.7" y2="39.7" gradientTransform="translate(0 62) scale(1 -1)" gradientUnits="userSpaceOnUse">
      <stop offset="0" stop-color="#9de57c"/>
      <stop offset="1" stop-color="#0c7068"/>
    </linearGradient>
    <linearGradient id="Unbenannter_Verlauf_18" data-name="Unbenannter Verlauf 18" x1="4.8" y1="51" x2="17.7" y2="51" gradientTransform="translate(0 62) scale(1 -1)" gradientUnits="userSpaceOnUse">
      <stop offset="0" stop-color="#9de57c"/>
      <stop offset="1" stop-color="#0c7068"/>
    </linearGradient>
    <linearGradient id="Unbenannter_Verlauf_19" data-name="Unbenannter Verlauf 19" x1="8.9" y1="44.8" x2="19.5" y2="44.8" gradientTransform="translate(0 62) scale(1 -1)" gradientUnits="userSpaceOnUse">
      <stop offset="0" stop-color="#9de57c"/>
      <stop offset="1" stop-color="#0c7068"/>
    </linearGradient>
  </defs>
  <g id="Decor">
    <g>
      <g>
        <rect class="st0" y="43.2" width="249.2" height="17.4" rx="8.7" ry="8.7"/>
        <path class="st15" d="M9.3,44.9h230.7c3.9,0,7,3.1,7,7h0c0,3.9-3.2,7-7,7H9.3c-3.9,0-7-3.1-7-7h0c0-3.9,3.2-7,7-7Z"/>
        <g>
          <path class="st28" d="M243.1,53.6c-.4.8-1,1.7-1.7,2.3-.4.4-.8.7-1.4,1-.7.3-1.2.5-2.1.6-1.1.1-2.3-.3-3.3-.7-.9-.4-1.9-1-2.6-1.8-.6-.6-1-1.2-1.3-2,0-.2-.1-.4-.2-.6,0,.4.1.7.2,1.1,1.1,3.3,7,5.1,8.9,4.6,1.6-.4,4-3.9,4.2-7-.2.9-.5,1.8-.9,2.6h0Z"/>
          <g>
            <path class="st27" d="M243.8,49c1.1,3.3-2.1,8.6-4.1,9s-7.9-1.4-8.9-4.6,1.8-7,5.7-4.5c1-4.1,6.2-3.2,7.2,0h0Z"/>
            <path class="st13" d="M242.8,48.6c.8,2.5-3.1,4.7-4.6,5s-5.9.8-6.7-1.6,2.4-4.1,5.4-2.2c.8-3.1,5.1-3.6,5.9-1.1h0Z"/>
            <path class="st14" d="M242.4,48.8c.2,1.6-3.1,3.1-4.6,3.5s-5.1,1.1-5.9-.4c-1.2-2.3,2-4,5-2.1.8-3.1,5.1-3.6,5.5-1Z"/>
            <path class="st12" d="M242.5,47c0,0,.1.2.2.2.8,1.2.9,3,0,4.2-.5.7-.9,1.2-1.7,1.7-.5.3-1,.5-1.5.8-1.5.7-3.2.6-4.8.5-1.1-.1-2.1-.5-2.9-1.2-.5-.4-.9-1.1-1.1-1.7,0,0,0-.2,0-.2,0,.7,0,1.3.2,2,1.1,3.3,7,5.1,8.9,4.6s5.1-5.8,4.1-9c-.3-.8-.8-1.5-1.4-1.9h0Z"/>
            <ellipse class="st16" cx="233.9" cy="49.5" rx="1.3" ry=".8" transform="translate(-3.4 20.3) rotate(-4.9)"/>
          </g>
        </g>
      </g>
      <g>
        <g>
          <g>
            <path class="st1" d="M49.8,37.8c0-1.2-.7-2.1-1.7-2.1s-1.7.9-1.7,2.1h3.3Z"/>
            <path class="st11" d="M50.1,38.2h-4v-.4c0-.6.2-1.2.6-1.7.4-.5.9-.7,1.5-.7h0c1.1,0,2,1.1,2,2.4v.3h0ZM46.8,37.5h2.6c-.1-.8-.7-1.4-1.3-1.4s-.7.2-.9.5c-.2.2-.3.6-.4.9Z"/>
          </g>
          <g>
            <path class="st3" d="M49.7,29.4s-2.5,4.7-2.2,7.7c0,0,3.7,1.3,6.9.2,0,0-.1-6,.7-7.1,0,0-1.9-2.7-5.3-.8h0Z"/>
            <path class="st11" d="M51.5,38.1c-2.2,0-4-.6-4.2-.7h-.2c0,0,0-.3,0-.3-.2-3,2.2-7.7,2.3-7.9h0c0,0,0-.1,0-.1,3.7-2,5.7.9,5.8.9v.2c.1,0,0,.2,0,.2-.5.7-.7,4.6-.6,6.9v.2h-.2c-1,.4-2,.5-2.9.5h0ZM47.8,36.9c.8.2,3.7,1,6.2.2,0-1.2,0-5.5.6-6.8-.5-.5-2.1-2-4.7-.6-.3.6-2.3,4.6-2.2,7.2h0Z"/>
          </g>
          <path class="st9" d="M55,30.3s-.3-.5-1-.9c-.7,1.4-.6,7-.6,7-2.2.7-4.7.3-6,0,0,.3,0,.5,0,.8,0,0,3.7,1.3,6.9.2,0,0-.1-6,.7-7.1h0Z"/>
        </g>
        <g>
          <g>
            <path class="st2" d="M33.3,37.7c0-1.2-.7-2.1-1.7-2.1s-1.7.9-1.7,2.1h3.4Z"/>
            <path class="st11" d="M33.7,38h-4v-.4c0-.6.2-1.2.6-1.7.4-.5.9-.7,1.5-.7h0c1.1,0,2,1.1,2,2.4v.3h0ZM30.4,37.3h2.6c-.1-.8-.7-1.4-1.3-1.4h0c-.3,0-.7.2-.9.5-.2.2-.3.6-.4.9Z"/>
          </g>
          <g>
            <path class="st7" d="M37.4,25.6s-4.8,2.7-6.3,11.5c0,0,4.5,1.2,9,0,0,0-.6-7.5.1-8.3,0,0,.6-2.4-2.8-3.2h0Z"/>
            <path class="st11" d="M35.7,38c-2.6,0-4.5-.5-4.6-.5h-.3c0,0,0-.4,0-.4,1.4-8.9,6.2-11.7,6.4-11.8h.1c0,0,.1,0,.1,0,1.3.3,2.2.9,2.7,1.7.6.9.3,1.8.3,1.9h0c0,0,0,.1,0,.1-.4.5-.3,4.5,0,8v.3s-.2,0-.2,0c-1.6.5-3.2.6-4.6.6h0ZM31.5,36.9c1,.2,4.6.9,8.3,0-.2-2-.5-7.1.2-8.2,0-.3.2-2-2.5-2.7-.7.5-4.6,3.3-6,10.9Z"/>
          </g>
          <path class="st9" d="M38.3,25.9c1,1,.7,2.1.7,2.1-.7.8-.1,8.3-.1,8.3-2.9.8-5.9.6-7.6.3,0,.2,0,.4-.1.5,0,0,4.5,1.2,9,0,0,0-.6-7.5.1-8.3,0,0,.5-2-2-2.9h0Z"/>
        </g>
        <g>
          <path class="st5" d="M28.7,16.4c-.3.2,0,2.1,0,2.5.1,1.4.5,2.9,1.7,3.9,1,.8,2.1,1.3,1.7,2.8-.5.4-.9.7-1.6.6-.7,0-1.2-.3-1.8-.6-1.1-.5-1.8-1.7-2.6-2.6-.8-.9-1.4-2.1-1.6-3.3l4.2-3.2h0Z"/>
          <path class="st11" d="M30.8,26.4c0,0-.2,0-.3,0-.8,0-1.4-.4-1.9-.6-.9-.5-1.6-1.3-2.2-2.1-.2-.2-.3-.4-.5-.6-.8-.9-1.4-2.2-1.7-3.4v-.2s.1-.1.1-.1c0,0,4.2-3.2,4.2-3.2h0l.4.5h0c0,0-.1.5,0,2,0,.1,0,.2,0,.2.1,1.7.7,2.9,1.6,3.6.1.1.3.2.5.3.9.6,1.8,1.3,1.4,2.8h0c0,.1-.2.3-.2.3-.4.3-.8.6-1.4.6h0ZM24.9,19.8c.3,1,.8,2.1,1.5,2.9.2.2.3.4.5.6.6.7,1.2,1.5,2,1.9.7.3,1.1.5,1.7.5.5,0,.8-.1,1.2-.5h0c.2-1-.3-1.4-1.2-2-.1-.1-.3-.2-.5-.3-1.1-.8-1.7-2.2-1.9-4.1,0,0,0-.1,0-.2,0-.6-.1-1.1-.1-1.5-.6.4-1.5,1.2-3.3,2.6ZM28.9,16.6h0,0Z"/>
        </g>
        <g>
          <path class="st6" d="M56.6,29.7s2,1.9,2.8,4.1c0,0-3.7-2-5.8-2.2,0,0,.4-2.1,2.9-1.9Z"/>
          <path class="st11" d="M60.1,34.5l-.8-.4s-3.6-2-5.7-2.2h-.4s0-.4,0-.4c0,0,.5-2.4,3.3-2.1h.2c0,.2,2.1,2.1,2.9,4.3,0,0,.3.8.3.8ZM54.1,31.3c1.5.3,3.5,1.2,4.6,1.8-.8-1.5-2-2.7-2.3-3-1.5,0-2.1.8-2.4,1.3Z"/>
        </g>
        <g>
          <path class="st4" d="M56.9,27.1c-.1,0-.6.1-.7.2-.7.1-1.4.3-2.1.4-2.4.3-4.8.4-7.2.3-3.2-.2-6.3-.9-9.3-2-1.7-.7-3.3-1.5-4.8-2.5-.5-.3-1-.6-1.3-1.1-.2-.5-.1-1.2-.1-1.7,0-.7.1-1.6-.4-2.1-1-1.1-2.1.3-2.4,1.3-.9,2.7.9,5.2,2.7,7,1.7,1.7,3.6,3.2,5.7,4.4,5.3,3.1,11.5,3.7,17.1,1.1,1.1-.5,2.1-1,3.1-1.7,0,0,2-2.2-.3-3.3h0Z"/>
          <path class="st11" d="M46.7,34c-3.4,0-6.8-.9-9.9-2.8-2-1.2-3.9-2.6-5.7-4.4-2.6-2.5-3.5-5-2.8-7.3.2-.6.8-1.7,1.7-1.9.3,0,.8,0,1.3.5.5.6.5,1.5.5,2.2v.5c0,.5,0,.9.1,1.3.1.4.5.5.8.8.1,0,.2.1.3.2,1.3.9,2.9,1.8,4.7,2.5,2.8,1.1,5.9,1.8,9.2,2,2.3.1,4.7,0,7.1-.3.8-.1,1.4-.2,2.1-.4,0,0,0,0,.1,0,.4-.1.6-.2.8-.1h0c.7.3,1.1.8,1.3,1.4.2,1.2-.8,2.4-.9,2.4h0s0,0,0,0c-1,.7-2.1,1.2-3.1,1.7-2.4,1.1-4.9,1.6-7.5,1.6h0ZM30.2,18.2s0,0-.1,0c-.5.1-1,.8-1.1,1.4-.7,2.1.2,4.3,2.6,6.6,1.8,1.8,3.6,3.2,5.6,4.3,5.4,3.2,11.3,3.6,16.8,1.1,1-.4,2-1,3-1.6.2-.2.8-1,.7-1.8,0-.4-.3-.7-.8-.9,0,0-.3,0-.4.1,0,0-.2,0-.2,0-.7.1-1.3.3-2.1.4-2.4.3-4.8.4-7.2.3-3.4-.2-6.5-.9-9.4-2.1-1.9-.8-3.5-1.6-4.8-2.6,0,0-.2-.1-.3-.2-.4-.3-.9-.5-1.1-1.1-.2-.5-.2-1.1-.2-1.6v-.5c0-.6,0-1.3-.3-1.7-.2-.3-.4-.3-.5-.3h0Z"/>
        </g>
        <g>
          <g>
            <path class="st8" d="M29,22.2s10.5,15.4,27.3,6.9c0,0,3.2-8.9-5-16.5,0,0-18.1-7.5-22.4,9.6Z"/>
            <path class="st11" d="M46.3,32c-4.2,0-7.6-1.4-10.2-2.9-4.8-2.8-7.4-6.6-7.5-6.8h0c0-.1,0-.3,0-.3,1.2-4.8,3.6-8.2,7.2-10,6.8-3.4,15.3,0,15.7.1h0s0,0,0,0c4.3,4,5.5,8.4,5.7,11.3.2,3.2-.6,5.5-.6,5.6h0c0,.1-.1.2-.1.2-3.7,1.9-7.1,2.6-10.1,2.6h0ZM29.3,22.1c.5.7,3,4,7.2,6.4,6.1,3.6,12.7,3.7,19.5.3.3-1.1,2.4-9.1-4.9-16-.8-.3-8.8-3.3-15-.1-3.3,1.7-5.6,4.8-6.8,9.4h0Z"/>
          </g>
          <path class="st10" d="M56.1,26s.5-4-1.2-6.3c0,0-5.4-1.4-7.4,6.6,0,0,2.7,1.2,8.6-.3h0Z"/>
          <path class="st10" d="M46.3,26.2s1.5-5.9-3-8.2c0,0-5.5-1-8,5.1,0,0,4.5,3,11,3.1h0Z"/>
          <path class="st10" d="M32,17s1,2.7.5,4.1l2,1.5s2.8-4.7,2.6-8.1c0,0-2.1-1.7-5,2.5h0Z"/>
          <path class="st10" d="M38.6,12.4s-.6,3.1,1.2,4.2c0,0,4.1,1.3,6.3-1.3,0,0,0-4.8-7.5-2.9Z"/>
          <path class="st10" d="M47.1,12.9s-1,3.4,2,5.9c0,0,2.7.6,5.1-.3,0,0-1.1-5.4-7.2-5.7h0Z"/>
          <path class="st9" d="M56.3,29.1s1.1-3.1.3-7.3c-7.8,5.9-26.3-2.9-26.3-2.9h-.2c-.5.9-.9,2-1.2,3.3,0,0,10.5,15.5,27.4,6.9h0Z"/>
        </g>
        <g>
          <path class="st25" d="M56.9,27.1c-.1,0-.6.1-.7.2-.7.1-1.4.3-2.1.4-2.4.3-4.8.4-7.2.3-3.2-.2-6.3-.9-9.3-2-1.7-.7-3.3-1.5-4.8-2.5-.5-.3-1-.6-1.3-1.1-.2-.5-.1-1.2-.1-1.7,0-.7.1-1.6-.4-2.1-1-1.1-2.1.3-2.4,1.3-.9,2.7.9,5.2,2.7,7,3.7,3.7,10,5.2,15.1,5.8,1.2.1,2.5.2,3.8.2,2.2,0,5.3-.2,7-2,0,0,2-2.2-.3-3.3h0Z"/>
          <path class="st11" d="M49.4,32.8c-1.1,0-2.2,0-3-.2-3.9-.4-11-1.6-15.3-5.8-2.6-2.5-3.5-5-2.8-7.3.2-.6.8-1.7,1.7-1.9.3,0,.8,0,1.3.5.5.6.5,1.5.5,2.2v.5c0,.5,0,.9.1,1.3.1.4.5.5.8.8.1,0,.2.1.3.2,1.3.9,2.9,1.8,4.7,2.5,2.8,1.1,5.9,1.8,9.2,2,2.3.1,4.7,0,7.1-.3.8-.1,1.4-.2,2.1-.4,0,0,0,0,.1,0,.4-.1.6-.2.8-.1h0c.7.3,1.1.8,1.3,1.4.2,1.2-.8,2.4-.9,2.4-1.7,1.9-4.9,2-7.2,2.1-.3,0-.5,0-.8,0h0ZM30.2,18.2s0,0-.1,0c-.5.1-1,.8-1.1,1.4-.7,2.1.2,4.3,2.6,6.6,4.1,4.1,11.1,5.3,14.9,5.6,1.1,0,2.4.2,3.8.2,2.2-.1,5.2-.2,6.7-1.9,0,0,.9-1,.7-1.8,0-.4-.3-.7-.8-.9,0,0-.3,0-.4.1,0,0-.2,0-.2,0-.7.1-1.3.3-2.1.4-2.4.3-4.8.4-7.2.3-3.4-.2-6.5-.9-9.4-2.1-1.9-.8-3.5-1.6-4.8-2.6,0,0-.2-.1-.3-.2-.4-.3-.9-.5-1.1-1.1-.2-.5-.2-1.1-.2-1.6v-.5c0-.6,0-1.3-.3-1.7-.2-.3-.4-.3-.5-.3h0Z"/>
        </g>
        <path class="st9" d="M57.3,29c-1.6,1.8-4.8,1.9-7,2-1.2,0-2.5,0-3.8-.2-5.1-.5-11.3-2.1-15.1-5.8-1.5-1.5-2.9-3.4-2.9-5.6-.8,2.6.9,5.1,2.7,6.9,3.7,3.7,10,5.2,15.1,5.7,1.2.1,2.5.2,3.8.2,2.2,0,5.3-.2,7-2,0,0,1.1-1.2.8-2.2-.2.5-.6.9-.6.9Z"/>
        <g>
          <g>
            <path class="st26" d="M33.7,25.6s-4.9,2.7-6.3,11.5c0,0,4.5,1.2,9,0,0,0-.6-7.5.1-8.3,0,0,.6-2.4-2.8-3.2h0Z"/>
            <path class="st11" d="M32,38c-2.6,0-4.5-.5-4.6-.5h-.3c0,0,0-.4,0-.4,1.4-8.9,6.2-11.7,6.4-11.8h.1c0,0,.1,0,.1,0,1.3.3,2.2.9,2.7,1.7.6.9.3,1.8.3,1.9h0c0,0,0,.1,0,.1-.4.5-.3,4.5,0,8v.3s-.2,0-.2,0c-1.6.5-3.2.6-4.6.6h0ZM27.8,36.9c1,.2,4.6.9,8.3,0-.2-2-.5-7.1.2-8.2,0-.3.2-2-2.5-2.7-.7.5-4.6,3.3-6,10.9Z"/>
          </g>
          <path class="st9" d="M34.5,25.9c1,1,.7,2.1.7,2.1-.7.8-.1,8.3-.1,8.3-2.9.8-5.9.6-7.6.3,0,.2,0,.4-.1.5,0,0,4.5,1.2,9,0,0,0-.6-7.5.1-8.3,0,0,.5-2-2-2.9h0Z"/>
          <g>
            <path class="st19" d="M30.7,37.7c0-1.2-.7-2.1-1.7-2.1s-1.7.9-1.7,2.1h3.4Z"/>
            <path class="st11" d="M31,38h-4v-.4c0-.6.2-1.2.6-1.7.4-.5.9-.7,1.5-.7h0c1.1,0,2,1.1,2,2.4v.3h0ZM27.7,37.3h2.6c-.1-.8-.7-1.4-1.3-1.4s-.7.2-.9.5c-.2.2-.3.6-.4.9Z"/>
          </g>
          <g>
            <path class="st20" d="M32.7,37.7c0-1.2-.7-2.1-1.7-2.1s-1.7.9-1.7,2.1h3.4Z"/>
            <path class="st11" d="M33,38h-4v-.4c0-.6.2-1.2.6-1.7.4-.5.9-.7,1.5-.7,1.1,0,2,1.1,2,2.4v.3h0ZM29.7,37.3h2.6c-.1-.8-.7-1.4-1.3-1.4h0c-.3,0-.7.2-.9.5-.2.2-.3.6-.4.9Z"/>
          </g>
        </g>
        <g>
          <g>
            <path class="st17" d="M48.2,29.4s-2.5,4.7-2.2,7.7c0,0,3.7,1.3,6.9.2,0,0-.1-6,.7-7.1,0,0-1.9-2.7-5.3-.8h0Z"/>
            <path class="st11" d="M50,38.1c-2.2,0-4-.6-4.2-.7h-.2c0,0,0-.3,0-.3-.2-3,2.2-7.7,2.3-7.9h0c0,0,0-.1,0-.1,3.7-2,5.7.9,5.8.9v.2c.1,0,0,.2,0,.2-.5.7-.7,4.6-.6,6.9v.2h-.2c-1,.4-2,.5-2.9.5h0ZM46.2,36.9c.8.2,3.7,1,6.2.2,0-1.2,0-5.5.6-6.8-.5-.5-2.1-2-4.7-.6-.3.6-2.3,4.6-2.2,7.2h0Z"/>
          </g>
          <path class="st9" d="M53.5,30.3s-.3-.5-1-.9c-.7,1.4-.6,7-.6,7-2.2.7-4.7.3-6,0,0,.3,0,.5,0,.8,0,0,3.7,1.3,6.9.2,0,0-.1-6,.7-7.1h0Z"/>
          <g>
            <path class="st18" d="M48.2,37.8c0-1.2-.7-2.1-1.7-2.1s-1.7.9-1.7,2.1h3.3Z"/>
            <path class="st11" d="M48.5,38.2h-4v-.4c0-.6.2-1.2.6-1.7.4-.5.9-.7,1.5-.7,1.1,0,2,1.1,2,2.4v.3h0ZM45.2,37.5h2.6c-.1-.8-.7-1.4-1.3-1.4s-.7.2-.9.5c-.2.2-.3.6-.4.9Z"/>
          </g>
          <g>
            <path class="st23" d="M49.8,37.9c0-1.2-.7-2.1-1.7-2.1s-1.7.9-1.7,2.1h3.3Z"/>
            <path class="st11" d="M50.2,38.3h-4v-.4c0-1.3.9-2.4,2-2.4s2,1.1,2,2.4v.3h0ZM46.8,37.6h2.6c-.1-.8-.7-1.4-1.3-1.4h0c-.7,0-1.2.6-1.3,1.4Z"/>
          </g>
        </g>
        <g>
          <g>
            <path class="st24" d="M22.7,2.4S10.7-1.5,5.7,1.5c0,0-9.8,10.4-.8,22.6,0,0,5.3,4.6,15.7.6,0,0,11.4-5.6,10.5-15.5,0,0,.7-3.6-8.3-6.8h0Z"/>
            <path class="st11" d="M12.4,26.6c-5.1,0-7.6-2.2-7.8-2.3h0C-.2,17.8.3,11.9,1.6,8.1,2.9,3.9,5.3,1.4,5.4,1.2h0s0,0,0,0C7.7-.1,11.2-.3,16.1.5c3.6.6,6.6,1.6,6.6,1.6h0c8.7,3.1,8.6,6.6,8.6,7.1.3,4.1-1.4,8.2-5,11.7-2.7,2.6-5.5,4-5.6,4.1h0c-3.2,1.2-6,1.7-8.2,1.7h0ZM5.1,23.9c.4.3,5.6,4.2,15.3.5.4-.2,11.1-5.8,10.3-15.2h0c0-.1.4-3.5-8.1-6.5-.2,0-11.8-3.8-16.7-1-.3.3-2.5,2.8-3.7,6.6-1.7,5.3-.7,10.6,2.9,15.6h0Z"/>
          </g>
          <path class="st9" d="M31,9.1s.7-3.6-8.3-6.8c0,0-3.8-1.2-8-1.8,2,.5,3.3.9,3.3.9,9,3.2,8.3,6.8,8.3,6.8.8,9.9-10.5,15.5-10.5,15.5-3.4,1.3-6.2,1.7-8.5,1.6,2.5,1,6.9,1.7,13.2-.8,0,0,11.4-5.6,10.5-15.5h0Z"/>
          <g>
            <path class="st15" d="M5.4,13.1c0,3.9,3.2,7.1,7.1,7.1s7.1-3.2,7.1-7.1-3.2-7.1-7.1-7.1-7.1,3.2-7.1,7.1Z"/>
            <path class="st11" d="M12.5,20.5c-4.1,0-7.4-3.3-7.4-7.4s3.3-7.4,7.4-7.4,7.4,3.3,7.4,7.4-3.3,7.4-7.4,7.4ZM12.5,6.4c-3.7,0-6.7,3-6.7,6.7s3,6.7,6.7,6.7,6.7-3,6.7-6.7-3-6.7-6.7-6.7Z"/>
          </g>
          <path class="st9" d="M13,6.1c2.7,1,4.6,3.6,4.6,6.6s-3.2,7.1-7.1,7.1-.3,0-.5,0c.8.3,1.6.5,2.5.5,3.9,0,7.1-3.2,7.1-7.1s-2.9-6.8-6.6-7Z"/>
          <circle class="st11" cx="9.6" cy="13" r="1.4"/>
          <g>
            <path class="st21" d="M12.6,5.5c1.9,0,3.7.7,5,1.8-2.7.9-7.8,3.2-12.2,9.1-.4-.9-.6-2-.6-3.1,0-4.3,3.5-7.8,7.8-7.8h0Z"/>
            <path class="st11" d="M5.3,17l-.2-.5c-.4-1-.7-2.1-.7-3.2,0-4.5,3.7-8.1,8.1-8.1s3.8.7,5.2,1.9l.5.4-.6.2c-2.6.9-7.7,3.2-12.1,8.9,0,0-.3.5-.3.5ZM12.6,5.8c-4.1,0-7.5,3.4-7.5,7.5s.1,1.6.4,2.4c4.1-5.2,8.7-7.5,11.5-8.5-1.3-.9-2.8-1.4-4.4-1.4h0Z"/>
          </g>
          <path class="st11" d="M8.7,1.5c0,.3-.4.6-1,.8-.6.2-1.2,0-1.3-.2s.4-.6,1-.8c.6-.2,1.2,0,1.3.2Z"/>
          <path class="st11" d="M6.9,2.7c0,.2-.2.4-.7.5s-.8,0-.8-.1c0-.2.2-.4.7-.5s.8,0,.8.1Z"/>
          <path class="st11" d="M9.3,3.1c0,.2-.2.4-.7.5s-.8,0-.8-.1c0-.2.2-.4.7-.5s.8,0,.8.1Z"/>
          <path class="st15" d="M5.8,11.4s.4-4,5.4-5.3h1.1c0,.1-4.7,1.2-6.5,5.3h0Z"/>
          <g>
            <path class="st22" d="M12.5,20.1c3.5,0,6.4-2.5,7-5.9-2.6,2.2-8.2,4.1-10.6,4.9,1.1.6,2.3,1,3.6,1Z"/>
            <path class="st11" d="M12.5,20.5c-1.4,0-2.7-.4-3.8-1.1l-.6-.4.7-.2c2.3-.7,8-2.7,10.5-4.8l.7-.6v.9c-.7,3.6-3.8,6.2-7.4,6.2h0ZM9.7,19.2c.9.4,1.8.6,2.8.6,3,0,5.6-2,6.4-4.8-2.6,1.8-6.8,3.4-9.2,4.1Z"/>
          </g>
        </g>
      </g>
    </g>
  </g>
</svg>