<?xml version="1.0" encoding="UTF-8"?>
<svg id="Ebene_2" data-name="Ebene 2" xmlns="http://www.w3.org/2000/svg" xmlns:xlink="http://www.w3.org/1999/xlink" viewBox="0 0 249.25 60.49">
  <defs>
    <style>
      .cls-1, .cls-2, .cls-3 {
        fill: #1d0435;
      }

      .cls-1, .cls-4 {
        opacity: .4;
      }

      .cls-2 {
        opacity: .3;
      }

      .cls-5 {
        fill: url(#linear-gradient-8);
      }

      .cls-6 {
        fill: url(#linear-gradient-7);
      }

      .cls-7 {
        fill: url(#linear-gradient-5);
      }

      .cls-8 {
        fill: url(#linear-gradient-6);
      }

      .cls-9 {
        fill: url(#linear-gradient-9);
      }

      .cls-10 {
        fill: url(#linear-gradient-4);
      }

      .cls-11 {
        fill: url(#linear-gradient-3);
      }

      .cls-12 {
        fill: url(#linear-gradient-2);
      }

      .cls-13 {
        fill: url(#linear-gradient);
      }

      .cls-4 {
        fill: #8c000e;
      }

      .cls-14 {
        fill: #fff;
      }

      .cls-15 {
        fill: #ffccd9;
      }

      .cls-16 {
        opacity: .5;
      }

      .cls-16, .cls-17 {
        fill: #ff557a;
      }

      .cls-17 {
        opacity: .2;
      }

      .cls-18 {
        fill: url(#GradientFill_1);
      }

      .cls-19 {
        fill: url(#linear-gradient-10);
      }

      .cls-20 {
        fill: url(#linear-gradient-11);
      }

      .cls-21 {
        fill: url(#linear-gradient-12);
      }

      .cls-22 {
        fill: url(#linear-gradient-13);
      }

      .cls-23 {
        fill: url(#linear-gradient-14);
      }

      .cls-24 {
        fill: url(#linear-gradient-15);
      }

      .cls-25 {
        fill: url(#linear-gradient-16);
      }

      .cls-26 {
        fill: url(#linear-gradient-17);
      }

      .cls-27 {
        fill: url(#linear-gradient-18);
      }

      .cls-28 {
        fill: url(#Unbenannter_Verlauf_12);
      }

      .cls-29 {
        fill: #e00026;
      }

      .cls-30 {
        fill: #ff5a72;
      }
    </style>
    <linearGradient id="GradientFill_1" data-name="GradientFill 1" x1="124.63" y1="60.49" x2="124.63" y2="43.11" gradientUnits="userSpaceOnUse">
      <stop offset="0" stop-color="#390800"/>
      <stop offset="1" stop-color="#9f5829"/>
    </linearGradient>
    <linearGradient id="Unbenannter_Verlauf_12" data-name="Unbenannter Verlauf 12" x1="95.28" y1="58.05" x2="95.28" y2="45.54" gradientUnits="userSpaceOnUse">
      <stop offset="0" stop-color="#225d5b"/>
      <stop offset=".97" stop-color="#328e6c"/>
    </linearGradient>
    <linearGradient id="linear-gradient" x1="45.86" y1="36.8" x2="49.21" y2="36.8" gradientUnits="userSpaceOnUse">
      <stop offset="0" stop-color="#f1f2f2"/>
      <stop offset="1" stop-color="#939598"/>
    </linearGradient>
    <linearGradient id="linear-gradient-2" x1="46.89" y1="33.27" x2="54.49" y2="33.27" gradientUnits="userSpaceOnUse">
      <stop offset="0" stop-color="#9de57c"/>
      <stop offset="1" stop-color="#0c7068"/>
    </linearGradient>
    <linearGradient id="linear-gradient-3" x1="29.45" y1="36.65" x2="32.8" y2="36.65" xlink:href="#linear-gradient"/>
    <linearGradient id="linear-gradient-4" x1="30.63" y1="31.67" x2="39.79" y2="31.67" xlink:href="#linear-gradient-2"/>
    <linearGradient id="linear-gradient-5" x1="24" y1="21.23" x2="31.7" y2="21.23" xlink:href="#linear-gradient-2"/>
    <linearGradient id="linear-gradient-6" x1="53.16" y1="31.74" x2="58.93" y2="31.74" xlink:href="#linear-gradient-2"/>
    <linearGradient id="linear-gradient-7" x1="27.87" y1="25.73" x2="57.45" y2="25.73" gradientUnits="userSpaceOnUse">
      <stop offset="0" stop-color="#f7ee1e"/>
      <stop offset="1" stop-color="#be4c2d"/>
    </linearGradient>
    <linearGradient id="linear-gradient-8" x1="28.43" y1="21.36" x2="56.39" y2="21.36" gradientUnits="userSpaceOnUse">
      <stop offset="0" stop-color="#f7481e"/>
      <stop offset="1" stop-color="#4f0d7a"/>
    </linearGradient>
    <linearGradient id="linear-gradient-9" x1="27.87" y1="25.13" x2="57.45" y2="25.13" xlink:href="#linear-gradient"/>
    <linearGradient id="linear-gradient-10" x1="26.9" y1="31.67" x2="36.06" y2="31.67" xlink:href="#linear-gradient-2"/>
    <linearGradient id="linear-gradient-11" x1="26.82" y1="36.65" x2="30.17" y2="36.65" xlink:href="#linear-gradient"/>
    <linearGradient id="linear-gradient-12" x1="28.78" y1="36.65" x2="32.13" y2="36.65" xlink:href="#linear-gradient"/>
    <linearGradient id="linear-gradient-13" x1="45.35" x2="52.95" xlink:href="#linear-gradient-2"/>
    <linearGradient id="linear-gradient-14" x1="44.33" x2="47.68" xlink:href="#linear-gradient"/>
    <linearGradient id="linear-gradient-15" x1="45.93" y1="36.88" x2="49.28" y2="36.88" xlink:href="#linear-gradient"/>
    <linearGradient id="linear-gradient-16" x1="-1.74" y1="1.18" x2="26.15" y2="22.26" xlink:href="#linear-gradient-2"/>
    <linearGradient id="linear-gradient-17" x1="4.27" y1="10.95" x2="17.13" y2="10.95" xlink:href="#linear-gradient-2"/>
    <linearGradient id="linear-gradient-18" x1="8.31" y1="17.2" x2="18.92" y2="17.2" xlink:href="#linear-gradient-2"/>
  </defs>
  <g id="Decor">
    <g>
      <g>
        <rect class="cls-18" x="0" y="43.11" width="249.25" height="17.38" rx="8.69" ry="8.69"/>
        <rect class="cls-14" x="2.24" y="44.76" width="244.78" height="14.07" rx="7.04" ry="7.04"/>
        <g>
          <path class="cls-30" d="M243.12,53.49c-.43.82-.98,1.67-1.69,2.27-.43.36-.84.73-1.35.97-.73.35-1.25.54-2.07.63-1.12.13-2.28-.26-3.28-.7-.95-.42-1.94-1.03-2.64-1.81-.58-.64-.99-1.23-1.28-2.05-.07-.2-.12-.41-.16-.61.03.36.1.72.21,1.08,1.07,3.28,6.96,5.11,8.92,4.64,1.59-.38,3.97-3.94,4.24-7.02-.17.89-.49,1.78-.91,2.58Z"/>
          <g>
            <path class="cls-29" d="M243.84,48.89c1.07,3.28-2.09,8.58-4.05,9.04s-7.85-1.36-8.92-4.64,1.77-6.95,5.74-4.48c1.03-4.11,6.16-3.21,7.23.07Z"/>
            <path class="cls-17" d="M242.77,48.54c.81,2.49-3.1,4.68-4.58,5.03s-5.87.84-6.68-1.64,2.37-4.13,5.38-2.25c.78-3.11,5.07-3.62,5.88-1.14Z"/>
            <path class="cls-16" d="M242.39,48.71c.22,1.61-3.14,3.11-4.62,3.46s-5.12,1.1-5.88-.4c-1.19-2.33,1.99-3.97,5-2.09.78-3.11,5.15-3.56,5.5-.97Z"/>
            <path class="cls-4" d="M242.46,46.95c.06.08.12.16.17.25.77,1.24.89,2.98.03,4.22-.49.72-.95,1.21-1.67,1.71-.47.32-.98.55-1.5.78-1.49.66-3.22.63-4.81.47-1.06-.11-2.07-.49-2.89-1.18-.48-.4-.93-1.09-1.06-1.71-.02-.08-.03-.15-.05-.22-.09.65-.03,1.34.19,2.02,1.07,3.28,6.96,5.11,8.92,4.64s5.12-5.76,4.05-9.04c-.26-.8-.76-1.45-1.38-1.93Z"/>
            <ellipse class="cls-15" cx="233.9" cy="49.39" rx="1.29" ry=".82" transform="translate(-3.38 20.33) rotate(-4.94)"/>
          </g>
        </g>
      </g>
      <rect class="cls-28" x="3.36" y="45.54" width="183.84" height="12.51" rx="6.25" ry="6.25"/>
      <g>
        <g>
          <g>
            <path class="cls-13" d="M49.21,37.85c0-1.16-.74-2.1-1.67-2.1-.93,0-1.68.93-1.68,2.09h3.35Z"/>
            <path class="cls-3" d="M49.55,38.19l-4.03-.02v-.34c0-.64.21-1.24.57-1.69.38-.47.9-.74,1.45-.74h0c1.11,0,2.01,1.1,2,2.44v.34ZM46.23,37.5h2.62c-.12-.8-.66-1.41-1.31-1.41-.34,0-.67.17-.92.48-.21.25-.34.58-.39.93Z"/>
          </g>
          <g>
            <path class="cls-12" d="M49.16,29.43s-2.49,4.74-2.25,7.7c0,0,3.67,1.3,6.87.24,0,0-.12-6.04.71-7.1,0,0-1.89-2.72-5.33-.83Z"/>
            <path class="cls-3" d="M50.96,38.11c-2.22,0-4.05-.64-4.16-.68l-.2-.07-.02-.21c-.24-3.02,2.18-7.68,2.29-7.87l.05-.09.09-.05c3.65-2.01,5.74.9,5.76.93l.14.2-.15.19c-.55.71-.69,4.61-.64,6.89v.24s-.23.08-.23.08c-.97.32-1.98.44-2.92.44ZM47.22,36.88c.78.24,3.65,1,6.22.24-.01-1.18-.02-5.46.64-6.84-.45-.52-2.06-2.01-4.68-.62-.32.64-2.27,4.59-2.18,7.21Z"/>
          </g>
          <path class="cls-2" d="M54.49,30.26s-.34-.48-.98-.9c-.73,1.37-.62,6.96-.62,6.96-2.23.74-4.69.33-5.98.02-.02.27-.02.54,0,.79,0,0,3.67,1.3,6.87.24,0,0-.12-6.04.71-7.1Z"/>
        </g>
        <g>
          <g>
            <path class="cls-11" d="M32.8,37.7c0-1.16-.74-2.1-1.67-2.1-.93,0-1.68.93-1.68,2.09h3.35Z"/>
            <path class="cls-3" d="M33.14,38.04l-4.03-.02v-.34c0-.64.21-1.24.57-1.69.38-.47.9-.74,1.45-.74h0c1.11,0,2.01,1.1,2,2.44v.34ZM29.82,37.35h2.62c-.12-.8-.66-1.41-1.31-1.41h0c-.34,0-.67.17-.92.48-.21.25-.34.58-.39.93Z"/>
          </g>
          <g>
            <path class="cls-10" d="M36.91,25.63s-4.85,2.68-6.28,11.54c0,0,4.5,1.24,9-.06,0,0-.59-7.46.12-8.29,0,0,.59-2.37-2.84-3.2Z"/>
            <path class="cls-3" d="M35.16,38.04c-2.57,0-4.49-.52-4.61-.55l-.28-.08.05-.29c1.43-8.92,6.24-11.67,6.44-11.78l.11-.06.12.03c1.32.32,2.24.9,2.74,1.72.57.94.35,1.84.34,1.88l-.02.08-.05.06c-.38.45-.32,4.53-.04,8.05l.02.27-.26.07c-1.59.46-3.17.61-4.56.61ZM31.01,36.92c1.03.23,4.64.91,8.27-.06-.15-1.98-.47-7.12.16-8.17.05-.32.2-2.01-2.48-2.71-.7.45-4.64,3.31-5.95,10.94Z"/>
          </g>
          <path class="cls-2" d="M37.75,25.89c.95.97.67,2.09.67,2.09-.71.83-.12,8.29-.12,8.29-2.94.85-5.88.62-7.56.35-.03.18-.07.36-.1.55,0,0,4.5,1.24,9-.06,0,0-.59-7.46.12-8.29,0,0,.49-1.96-2.01-2.94Z"/>
        </g>
        <g>
          <path class="cls-7" d="M28.19,16.37c-.31.24-.06,2.12-.03,2.45.11,1.44.55,2.93,1.73,3.85,1.01.78,2.15,1.28,1.72,2.79-.51.37-.86.68-1.57.6-.68-.08-1.22-.28-1.82-.58-1.1-.55-1.84-1.69-2.61-2.6-.76-.89-1.36-2.11-1.61-3.26,0,0,4.2-3.25,4.2-3.25Z"/>
          <path class="cls-3" d="M30.26,26.42c-.08,0-.17,0-.26-.02-.79-.09-1.39-.35-1.93-.61-.93-.46-1.59-1.29-2.23-2.09-.16-.2-.32-.4-.49-.59-.79-.92-1.42-2.2-1.68-3.41l-.04-.2.16-.13s4.16-3.22,4.2-3.25c0,0,0,0,0,0l.42.51s.02-.02.02-.02c-.05.1-.12.48.04,1.98.01.1.02.18.02.22.13,1.68.67,2.9,1.61,3.62.15.12.3.22.45.33.85.61,1.81,1.31,1.39,2.81l-.03.11-.21.15c-.41.3-.8.59-1.43.59ZM24.37,19.76c.26,1.05.81,2.12,1.49,2.92.17.2.33.4.5.61.59.74,1.21,1.51,2.01,1.91.66.33,1.15.48,1.71.55.52.06.79-.13,1.22-.45l.02-.02c.22-.94-.28-1.35-1.16-1.99-.15-.11-.31-.22-.47-.34-1.09-.84-1.71-2.22-1.86-4.09,0-.04-.01-.11-.02-.21-.07-.63-.1-1.11-.1-1.48-.56.43-1.55,1.2-3.34,2.59ZM28.4,16.63h0s0,0,.01,0c0,0,0,0-.01,0Z"/>
        </g>
        <g>
          <path class="cls-8" d="M56.1,29.7s1.99,1.89,2.83,4.09c0,0-3.67-1.99-5.77-2.2,0,0,.42-2.1,2.94-1.89Z"/>
          <path class="cls-3" d="M59.56,34.5l-.78-.42s-3.64-1.96-5.65-2.16l-.36-.04.07-.36s.51-2.39,3.29-2.15h.12s.08.09.08.09c.08.08,2.06,1.97,2.91,4.21l.32.83ZM53.6,31.32c1.51.27,3.52,1.19,4.64,1.75-.78-1.49-1.96-2.72-2.28-3.05-1.52-.08-2.13.79-2.36,1.3Z"/>
        </g>
        <g>
          <path class="cls-6" d="M56.35,27.06c-.12-.06-.61.15-.74.17-.69.15-1.39.27-2.09.37-2.37.34-4.77.43-7.16.28-3.18-.2-6.35-.85-9.31-2.05-1.66-.67-3.32-1.51-4.78-2.55-.47-.34-1.03-.58-1.26-1.15-.22-.54-.15-1.18-.14-1.74.02-.7.11-1.59-.4-2.15-1.03-1.14-2.08.34-2.37,1.26-.86,2.69.85,5.19,2.68,6.99,1.7,1.68,3.58,3.18,5.65,4.39,5.3,3.1,11.45,3.67,17.11,1.15,1.06-.48,2.09-1.04,3.07-1.66,0,0,2.04-2.22-.27-3.32Z"/>
          <path class="cls-3" d="M46.19,33.95c-3.38,0-6.79-.93-9.92-2.76-1.97-1.16-3.9-2.65-5.71-4.44-2.58-2.55-3.51-5.02-2.77-7.34.18-.57.76-1.69,1.66-1.89.32-.07.8-.04,1.29.5.55.6.52,1.47.49,2.16,0,.08,0,.16,0,.23,0,.09,0,.19,0,.28-.02.46-.04.94.12,1.33.14.35.45.55.81.78.11.07.22.14.33.22,1.3.93,2.89,1.78,4.71,2.51,2.81,1.14,5.91,1.82,9.21,2.03,2.35.15,4.74.05,7.09-.28.75-.11,1.43-.23,2.07-.36.03,0,.08-.02.14-.04.38-.13.62-.2.81-.11h0c.72.34,1.14.82,1.26,1.43.23,1.19-.84,2.37-.89,2.42l-.03.03-.04.02c-1.03.66-2.08,1.22-3.12,1.69-2.4,1.07-4.94,1.6-7.49,1.6ZM29.69,18.17s-.08,0-.11.01c-.46.1-.96.82-1.15,1.43-.66,2.06.22,4.3,2.6,6.65,1.78,1.75,3.65,3.21,5.58,4.34,5.39,3.16,11.35,3.56,16.8,1.13.99-.44,2-.99,2.99-1.61.15-.17.84-1.04.69-1.8-.07-.37-.35-.68-.83-.92-.09.02-.28.08-.36.11-.09.03-.17.06-.21.06-.65.14-1.35.26-2.12.37-2.4.34-4.83.44-7.23.29-3.37-.21-6.54-.91-9.42-2.08-1.87-.76-3.5-1.63-4.85-2.59-.1-.07-.2-.14-.3-.2-.4-.26-.85-.55-1.07-1.09-.21-.52-.19-1.1-.17-1.61,0-.09,0-.18,0-.27,0-.08,0-.16,0-.24.02-.6.04-1.28-.32-1.68-.23-.26-.42-.3-.54-.3Z"/>
        </g>
        <g>
          <g>
            <path class="cls-5" d="M28.43,22.22s10.54,15.45,27.35,6.93c0,0,3.2-8.94-4.97-16.52,0,0-18.11-7.46-22.38,9.59Z"/>
            <path class="cls-3" d="M45.81,32.05c-4.18,0-7.64-1.36-10.19-2.87-4.75-2.8-7.37-6.6-7.48-6.76l-.09-.13.04-.15c1.2-4.82,3.62-8.17,7.18-9.97,6.81-3.44,15.32-.01,15.68.14l.06.02.05.04c4.3,3.99,5.45,8.37,5.66,11.33.22,3.22-.56,5.47-.6,5.56l-.05.13-.13.06c-3.7,1.88-7.1,2.59-10.13,2.59ZM28.81,22.15c.5.69,3.05,4,7.19,6.44,6.13,3.61,12.68,3.71,19.49.31.34-1.12,2.44-9.14-4.87-15.96-.76-.3-8.79-3.29-15.03-.13-3.33,1.68-5.6,4.83-6.77,9.35Z"/>
          </g>
          <path class="cls-1" d="M55.6,26.04s.48-4-1.19-6.29c0,0-5.38-1.38-7.43,6.57,0,0,2.72,1.24,8.62-.29Z"/>
          <path class="cls-1" d="M45.79,26.23s1.48-5.86-2.95-8.24c0,0-5.53-1-8,5.1,0,0,4.53,3.05,10.96,3.14Z"/>
          <path class="cls-1" d="M31.5,17.03s.95,2.67.52,4.05l1.95,1.48s2.81-4.72,2.57-8.05c0,0-2.14-1.67-5.05,2.52Z"/>
          <path class="cls-1" d="M38.02,12.36s-.57,3.05,1.19,4.24c0,0,4.14,1.29,6.34-1.29,0,0,.05-4.81-7.53-2.95Z"/>
          <path class="cls-1" d="M46.55,12.89s-1,3.38,2.05,5.95c0,0,2.67.57,5.14-.29,0,0-1.1-5.38-7.19-5.67Z"/>
          <path class="cls-2" d="M55.77,29.15s1.13-3.15.33-7.29c-7.84,5.88-26.33-2.94-26.33-2.94l-.19-.09c-.46,1.01-.85,2.13-1.17,3.4,0,0,10.54,15.45,27.35,6.93Z"/>
        </g>
        <g>
          <path class="cls-9" d="M56.35,27.06c-.12-.06-.61.15-.74.17-.69.15-1.39.27-2.09.37-2.37.34-4.77.43-7.16.28-3.18-.2-6.35-.85-9.31-2.05-1.66-.67-3.32-1.51-4.78-2.55-.47-.34-1.03-.58-1.26-1.15-.22-.54-.15-1.18-.14-1.74.02-.7.11-1.59-.4-2.15-1.03-1.14-2.08.34-2.37,1.26-.86,2.69.85,5.19,2.68,6.99,3.74,3.69,9.98,5.25,15.07,5.75,1.25.12,2.55.21,3.8.16,2.21-.1,5.33-.25,6.96-2.02,0,0,2.04-2.22-.27-3.32Z"/>
          <path class="cls-3" d="M48.87,32.76c-1.09,0-2.17-.09-3.04-.18-3.88-.38-11.02-1.65-15.27-5.84-2.58-2.55-3.51-5.02-2.77-7.34.18-.57.76-1.69,1.66-1.89.32-.07.8-.04,1.29.5.55.6.52,1.47.49,2.16,0,.08,0,.16,0,.23,0,.09,0,.19,0,.28-.02.46-.04.94.12,1.33.14.35.45.55.81.78.11.07.22.14.33.22,1.3.93,2.89,1.78,4.71,2.51,2.81,1.14,5.91,1.82,9.21,2.03,2.35.15,4.74.05,7.09-.28.75-.11,1.43-.23,2.07-.36.03,0,.08-.02.14-.04.38-.13.62-.2.81-.11h0c.72.34,1.14.82,1.26,1.43.23,1.19-.84,2.37-.89,2.42-1.73,1.88-4.89,2.03-7.19,2.13-.27.01-.54.02-.81.02ZM29.69,18.17s-.08,0-.11.01c-.46.1-.96.82-1.15,1.43-.66,2.06.22,4.3,2.6,6.65,4.1,4.05,11.07,5.28,14.87,5.65,1.06.1,2.44.22,3.75.16,2.19-.1,5.19-.24,6.72-1.91,0,0,.89-.98.72-1.83-.07-.37-.35-.68-.83-.92-.09.02-.28.08-.36.11-.09.03-.17.06-.21.06-.65.14-1.35.26-2.12.37-2.4.34-4.83.44-7.23.29-3.37-.21-6.54-.91-9.42-2.08-1.87-.76-3.5-1.63-4.85-2.59-.1-.07-.2-.14-.3-.2-.4-.26-.85-.55-1.07-1.09-.21-.52-.19-1.1-.17-1.61,0-.09,0-.18,0-.27,0-.08,0-.16,0-.24.02-.6.04-1.28-.32-1.68-.23-.26-.42-.3-.54-.3Z"/>
        </g>
        <path class="cls-2" d="M56.82,29.05c-1.63,1.77-4.75,1.92-6.96,2.02-1.25.06-2.55-.03-3.8-.16-5.09-.5-11.33-2.06-15.07-5.75-1.5-1.48-2.92-3.43-2.91-5.57-.79,2.65.9,5.11,2.71,6.9,3.74,3.69,9.98,5.25,15.07,5.75,1.25.12,2.55.21,3.8.16,2.21-.1,5.33-.25,6.96-2.02,0,0,1.06-1.16.78-2.21-.25.51-.58.88-.58.88Z"/>
        <g>
          <g>
            <path class="cls-19" d="M33.18,25.63s-4.85,2.68-6.28,11.54c0,0,4.5,1.24,9-.06,0,0-.59-7.46.12-8.29,0,0,.59-2.37-2.84-3.2Z"/>
            <path class="cls-3" d="M31.43,38.04c-2.57,0-4.49-.52-4.61-.55l-.28-.08.05-.29c1.43-8.92,6.24-11.67,6.44-11.78l.11-.06.12.03c1.32.32,2.24.9,2.74,1.72.57.94.35,1.84.34,1.88l-.02.08-.05.06c-.38.45-.32,4.53-.04,8.05l.02.27-.26.07c-1.59.46-3.17.61-4.56.61ZM27.28,36.92c1.03.23,4.64.91,8.27-.06-.15-1.98-.47-7.12.16-8.17.05-.32.2-2.01-2.48-2.71-.7.45-4.64,3.31-5.95,10.94Z"/>
          </g>
          <path class="cls-2" d="M34.01,25.89c.95.97.67,2.09.67,2.09-.71.83-.12,8.29-.12,8.29-2.94.85-5.88.62-7.56.35-.03.18-.07.36-.1.55,0,0,4.5,1.24,9-.06,0,0-.59-7.46.12-8.29,0,0,.49-1.96-2.01-2.94Z"/>
          <g>
            <path class="cls-20" d="M30.17,37.7c0-1.16-.74-2.1-1.67-2.1-.93,0-1.68.93-1.68,2.09h3.35Z"/>
            <path class="cls-3" d="M30.5,38.04l-4.03-.02v-.34c0-.64.21-1.24.57-1.69.38-.47.9-.74,1.45-.74h0c1.11,0,2.01,1.1,2,2.44v.34ZM27.18,37.35h2.62c-.12-.8-.66-1.41-1.31-1.41-.34,0-.67.17-.92.48-.21.25-.34.58-.39.93Z"/>
          </g>
          <g>
            <path class="cls-21" d="M32.13,37.7c0-1.16-.74-2.1-1.67-2.1-.93,0-1.68.93-1.68,2.09h3.35Z"/>
            <path class="cls-3" d="M32.47,38.04l-4.03-.02v-.34c0-.64.21-1.24.57-1.69.38-.48.9-.73,1.45-.74,1.11,0,2.01,1.1,2,2.44v.34ZM29.14,37.35h2.62c-.12-.8-.66-1.41-1.31-1.41h0c-.34,0-.67.17-.92.48-.21.25-.34.58-.39.93Z"/>
          </g>
        </g>
        <g>
          <g>
            <path class="cls-22" d="M47.62,29.43s-2.49,4.74-2.25,7.7c0,0,3.67,1.3,6.87.24,0,0-.12-6.04.71-7.1,0,0-1.89-2.72-5.33-.83Z"/>
            <path class="cls-3" d="M49.42,38.11c-2.22,0-4.05-.64-4.16-.68l-.2-.07-.02-.21c-.24-3.02,2.18-7.68,2.29-7.87l.05-.09.09-.05c3.65-2.01,5.74.9,5.76.93l.14.2-.15.19c-.55.71-.69,4.61-.64,6.89v.24s-.23.08-.23.08c-.97.32-1.98.44-2.92.44ZM45.69,36.88c.78.24,3.65,1,6.22.24-.01-1.18-.02-5.46.64-6.84-.45-.52-2.06-2.01-4.68-.62-.32.64-2.27,4.59-2.18,7.21Z"/>
          </g>
          <path class="cls-2" d="M52.95,30.26s-.34-.48-.98-.9c-.73,1.37-.62,6.96-.62,6.96-2.23.74-4.69.33-5.98.02-.02.27-.02.54,0,.79,0,0,3.67,1.3,6.87.24,0,0-.12-6.04.71-7.1Z"/>
          <g>
            <path class="cls-23" d="M47.68,37.85c0-1.16-.74-2.1-1.67-2.1-.93,0-1.68.93-1.68,2.09h3.35Z"/>
            <path class="cls-3" d="M48.02,38.19l-4.03-.02v-.34c0-.64.21-1.24.57-1.69.38-.48.9-.74,1.45-.74,1.11,0,2.01,1.1,2,2.44v.34ZM44.69,37.5h2.62c-.12-.8-.66-1.41-1.31-1.41-.34,0-.67.17-.92.48-.21.25-.34.58-.39.93Z"/>
          </g>
          <g>
            <path class="cls-24" d="M49.28,37.93c0-1.16-.74-2.1-1.67-2.1-.93,0-1.68.93-1.68,2.09h3.35Z"/>
            <path class="cls-3" d="M49.61,38.27l-4.03-.02v-.34c0-1.34.91-2.43,2.02-2.43,1.11,0,2.01,1.1,2,2.44v.34ZM46.29,37.58h2.62c-.12-.8-.66-1.41-1.31-1.41h0c-.65,0-1.19.61-1.31,1.41Z"/>
          </g>
        </g>
        <g>
          <g>
            <path class="cls-25" d="M22.14,2.38S10.2-1.54,5.11,1.47c0,0-9.76,10.35-.83,22.61,0,0,5.26,4.59,15.69.58,0,0,11.35-5.59,10.51-15.52,0,0,.67-3.59-8.34-6.76Z"/>
            <path class="cls-3" d="M11.86,26.65c-5.06,0-7.64-2.19-7.8-2.32l-.05-.05C-.68,17.83-.2,11.9,1.03,8.07,2.37,3.93,4.77,1.35,4.87,1.24l.03-.03.04-.02C7.13-.1,10.71-.34,15.59.47c3.6.6,6.62,1.59,6.65,1.6h0c8.71,3.07,8.62,6.6,8.57,7.08.34,4.15-1.41,8.2-5.05,11.71-2.74,2.64-5.54,4.04-5.65,4.1h-.03c-3.23,1.25-5.98,1.69-8.23,1.69ZM4.52,23.85c.41.33,5.59,4.24,15.31.51.43-.22,11.11-5.75,10.32-15.19v-.04s0-.04,0-.04c0-.03.43-3.38-8.13-6.39-.24-.08-11.81-3.8-16.71-.97-.28.31-2.47,2.81-3.67,6.57C-.06,13.64.91,18.87,4.52,23.85Z"/>
          </g>
          <path class="cls-2" d="M30.48,9.14s.67-3.59-8.34-6.76c0,0-3.8-1.25-8.02-1.8,1.98.47,3.34.92,3.34.92,9.01,3.17,8.34,6.76,8.34,6.76.83,9.93-10.51,15.52-10.51,15.52-3.39,1.3-6.24,1.7-8.54,1.63,2.51.95,6.92,1.66,13.22-.76,0,0,11.35-5.59,10.51-15.52Z"/>
          <g>
            <path class="cls-14" d="M4.9,13.09c0,3.9,3.16,7.06,7.06,7.06s7.06-3.16,7.06-7.06-3.16-7.06-7.06-7.06-7.06,3.16-7.06,7.06Z"/>
            <path class="cls-3" d="M11.95,20.49c-4.08,0-7.4-3.32-7.4-7.4s3.32-7.4,7.4-7.4,7.4,3.32,7.4,7.4-3.32,7.4-7.4,7.4ZM11.95,6.37c-3.71,0-6.72,3.01-6.72,6.72s3.01,6.72,6.72,6.72,6.72-3.01,6.72-6.72-3.01-6.72-6.72-6.72Z"/>
          </g>
          <path class="cls-2" d="M12.45,6.05c2.68,1,4.58,3.58,4.58,6.61,0,3.9-3.16,7.06-7.06,7.06-.17,0-.33,0-.49-.02.77.29,1.6.45,2.48.45,3.9,0,7.06-3.16,7.06-7.06s-2.9-6.79-6.57-7.04Z"/>
          <circle class="cls-3" cx="9.11" cy="13.01" r="1.42"/>
          <g>
            <path class="cls-26" d="M12.09,5.5c1.92,0,3.68.69,5.04,1.84-2.72.9-7.82,3.25-12.24,9.06-.4-.94-.63-1.98-.63-3.07,0-4.32,3.5-7.82,7.82-7.82Z"/>
            <path class="cls-3" d="M4.81,17.05l-.22-.52c-.43-1.01-.65-2.09-.65-3.2,0-4.5,3.66-8.15,8.15-8.15,1.92,0,3.78.68,5.25,1.92l.45.38-.56.18c-2.63.87-7.7,3.18-12.08,8.94l-.34.45ZM12.09,5.83c-4.13,0-7.5,3.36-7.5,7.5,0,.83.13,1.63.4,2.41,4.1-5.18,8.72-7.51,11.46-8.5-1.27-.91-2.79-1.4-4.36-1.4Z"/>
          </g>
          <path class="cls-3" d="M8.21,1.53c.07.29-.39.65-1.03.82-.64.17-1.23.07-1.3-.22s.39-.65,1.03-.82c.64-.17,1.23-.07,1.3.22Z"/>
          <path class="cls-3" d="M6.4,2.74c.05.18-.25.42-.66.53-.41.11-.79.05-.83-.14-.05-.18.25-.42.66-.53.41-.11.79-.05.83.14Z"/>
          <path class="cls-3" d="M8.75,3.12c.05.18-.25.42-.66.53-.41.11-.79.05-.83-.14-.05-.18.25-.42.66-.53.41-.11.79-.05.83.14Z"/>
          <path class="cls-14" d="M5.27,11.4s.38-3.96,5.41-5.3l1.12.11s-4.71,1.07-6.53,5.2Z"/>
          <g>
            <path class="cls-27" d="M11.95,20.15c3.5,0,6.41-2.55,6.96-5.9-2.58,2.17-8.18,4.12-10.6,4.89,1.06.64,2.31,1.01,3.64,1.01Z"/>
            <path class="cls-3" d="M11.95,20.48c-1.35,0-2.66-.37-3.81-1.06l-.62-.37.69-.22c2.31-.74,7.95-2.69,10.49-4.83l.68-.57-.14.88c-.59,3.58-3.66,6.18-7.29,6.18ZM9.15,19.21c.87.4,1.83.61,2.8.61,3.01,0,5.59-1.96,6.44-4.76-2.56,1.78-6.84,3.35-9.24,4.15Z"/>
          </g>
        </g>
      </g>
    </g>
  </g>
</svg>