<?xml version="1.0" encoding="UTF-8"?>
<svg id="Ebene_2" data-name="Ebene 2" xmlns="http://www.w3.org/2000/svg" xmlns:xlink="http://www.w3.org/1999/xlink" viewBox="0 0 249.25 57.07">
  <defs>
    <style>
      .cls-1 {
        fill: #4c0f55;
      }

      .cls-2 {
        fill: #731d40;
      }

      .cls-3 {
        fill: #6b9d67;
      }

      .cls-4 {
        fill: #9c284e;
      }

      .cls-5 {
        fill: #821f5d;
      }

      .cls-6 {
        fill: #fdfdfe;
      }

      .cls-7 {
        fill: #4d9b6d;
      }

      .cls-8 {
        fill: #6fc075;
      }

      .cls-9 {
        fill: #3d715e;
      }

      .cls-10 {
        fill: #cbccce;
      }

      .cls-11 {
        fill: #8f8f95;
      }

      .cls-12 {
        fill: #6dbb73;
      }

      .cls-13 {
        fill: #9d95a6;
      }

      .cls-14 {
        fill: #469e6f;
      }

      .cls-15 {
        fill: #56ab71;
      }

      .cls-16 {
        fill: #480e59;
      }

      .cls-17 {
        fill: #6e6679;
      }

      .cls-18 {
        fill: #4aa170;
      }

      .cls-19 {
        fill: #2c635c;
      }

      .cls-20 {
        fill: #2d1d44;
      }

      .cls-21 {
        fill: #70697b;
      }

      .cls-22 {
        fill: #5fb072;
      }

      .cls-23 {
        fill: #741a64;
      }

      .cls-24 {
        fill: #7dca77;
      }

      .cls-25 {
        fill: #5d173b;
      }

      .cls-26 {
        fill: #aea7b6;
      }

      .cls-27 {
        fill: #651847;
      }

      .cls-28 {
        fill: #8cce75;
      }

      .cls-29 {
        fill: #480e57;
      }

      .cls-30 {
        fill: #8a2533;
      }

      .cls-31 {
        fill: #1a5659;
      }

      .cls-32 {
        fill: #af2f44;
      }

      .cls-33 {
        fill: #72c175;
      }

      .cls-34 {
        fill: #4a0e57;
      }

      .cls-35 {
        fill: #345e57;
      }

      .cls-36 {
        fill: #e7e8e8;
      }

      .cls-37 {
        fill: #82cd78;
      }

      .cls-38 {
        fill: #5f1839;
      }

      .cls-39 {
        fill: #63146a;
      }

      .cls-40 {
        fill: #5a116f;
      }

      .cls-41 {
        fill: #6f9c66;
      }

      .cls-42 {
        fill: #61b071;
      }

      .cls-43 {
        fill: #a62c48;
      }

      .cls-44 {
        fill: #501242;
      }

      .cls-45 {
        fill: #8bd47a;
      }

      .cls-46 {
        fill: #460f47;
      }

      .cls-47 {
        fill: #67b472;
      }

      .cls-48 {
        fill: #6c1c33;
      }

      .cls-49 {
        fill: #b9b1c0;
      }

      .cls-50 {
        fill: #25103c;
      }

      .cls-51 {
        fill: #b6b7ba;
      }

      .cls-52 {
        fill: #25816a;
      }

      .cls-53 {
        fill: #540f70;
      }

      .cls-54 {
        fill: #a82d48;
      }

      .cls-55 {
        fill: #a12b40;
      }

      .cls-56 {
        fill: #ba8328;
      }

      .cls-57 {
        fill: #cac9ce;
      }

      .cls-58 {
        fill: #84205c;
      }

      .cls-59 {
        fill: #59ac72;
      }

      .cls-60 {
        fill: #200a39;
      }

      .cls-61 {
        fill: #611838;
      }

      .cls-62 {
        fill: #54a971;
      }

      .cls-63 {
        fill: #b5313f;
      }

      .cls-64 {
        fill: #d93e28;
      }

      .cls-65 {
        fill: #511152;
      }

      .cls-66 {
        fill: #220838;
      }

      .cls-67 {
        fill: #9c2b30;
      }

      .cls-68 {
        fill: #3a6e5d;
      }

      .cls-69 {
        fill: #681946;
      }

      .cls-70 {
        fill: #220b39;
      }

      .cls-71 {
        fill: #dbdbdd;
      }

      .cls-72 {
        fill: #a32d2d;
      }

      .cls-73 {
        fill: #a32a4b;
      }

      .cls-74 {
        fill: #439c6f;
      }

      .cls-75 {
        fill: #dcebdc;
      }

      .cls-76 {
        fill: #7cc977;
      }

      .cls-77 {
        fill: #872436;
      }

      .cls-78 {
        fill: #dbece0;
      }

      .cls-79 {
        fill: #d2e6d0;
      }

      .cls-80 {
        fill: #958c9f;
      }

      .cls-81 {
        fill: #410b5d;
      }

      .cls-82 {
        fill: #f2f9f3;
      }

      .cls-83 {
        fill: #b23042;
      }

      .cls-84 {
        fill: #200838;
      }

      .cls-85 {
        fill: #87215b;
      }

      .cls-86 {
        fill: #8f9095;
      }

      .cls-87 {
        fill: #61b373;
      }

      .cls-88 {
        fill: #3c966e;
      }

      .cls-89 {
        fill: #410b5b;
      }

      .cls-90 {
        fill: #8b2258;
      }

      .cls-91 {
        fill: #9891a1;
      }

      .cls-92 {
        fill: #491046;
      }

      .cls-93 {
        fill: #79c776;
      }

      .cls-94 {
        fill: #802139;
      }

      .cls-95 {
        fill: #6e1d32;
      }

      .cls-96 {
        fill: #37926d;
      }

      .cls-97 {
        fill: #b18828;
      }

      .cls-98 {
        fill: #7d213a;
      }

      .cls-99 {
        fill: #5fb273;
      }

      .cls-100 {
        fill: #d6d7d9;
      }

      .cls-101 {
        fill: #1f0937;
      }

      .cls-102 {
        fill: #489c6e;
      }

      .cls-103 {
        fill: #79be73;
      }

      .cls-104 {
        fill: #96969c;
      }

      .cls-105 {
        fill: #781c5e;
      }

      .cls-106 {
        fill: #dfe0e1;
      }

      .cls-107 {
        fill: #5a144d;
      }

      .cls-108 {
        fill: #419a6e;
      }

      .cls-109 {
        fill: #564468;
      }

      .cls-110 {
        fill: #a39eab;
      }

      .cls-111 {
        fill: #89243a;
      }

      .cls-112 {
        fill: #69a26a;
      }

      .cls-113 {
        fill: #51a671;
      }

      .cls-114 {
        fill: #50a671;
      }

      .cls-115 {
        fill: #356a5c;
      }

      .cls-116 {
        fill: #521341;
      }

      .cls-117 {
        fill: #d7d8da;
      }

      .cls-118 {
        fill: #9a2a32;
      }

      .cls-119 {
        fill: #5b163b;
      }

      .cls-120 {
        fill: #621564;
      }

      .cls-121 {
        fill: #5baf72;
      }

      .cls-122 {
        fill: #e0e0e3;
      }

      .cls-123 {
        fill: #721d40;
      }

      .cls-124 {
        fill: #3f996e;
      }

      .cls-125 {
        fill: #e3e2e5;
      }

      .cls-126 {
        fill: #691a45;
      }

      .cls-127 {
        fill: #386d5d;
      }

      .cls-128 {
        fill: #1d5759;
      }

      .cls-129 {
        fill: #4e1059;
      }

      .cls-130 {
        fill: #7cc273;
      }

      .cls-131 {
        fill: #b53140;
      }

      .cls-132 {
        fill: #6cbd74;
      }

      .cls-133 {
        fill: #2c605a;
      }

      .cls-134 {
        fill: #69ba74;
      }

      .cls-135 {
        fill: #55143e;
      }

      .cls-136 {
        fill: #bebcc3;
      }

      .cls-137 {
        fill: #460e58;
      }

      .cls-138 {
        fill: #56134f;
      }

      .cls-139 {
        fill: #c2c1c6;
      }

      .cls-140 {
        fill: #7d1d60;
      }

      .cls-141 {
        fill: #2a645c;
      }

      .cls-142 {
        fill: #2e8b6d;
      }

      .cls-143 {
        fill: #92254f;
      }

      .cls-144 {
        fill: #8b2443;
      }

      .cls-145 {
        fill: #59ad72;
      }

      .cls-146 {
        fill: #3e986e;
      }

      .cls-147 {
        fill: #62b573;
      }

      .cls-148 {
        fill: #c4c5c7;
      }

      .cls-149 {
        fill: #3a946e;
      }

      .cls-150 {
        fill: #69194d;
      }

      .cls-151 {
        fill: #bbbdbf;
      }

      .cls-152 {
        fill: #71b872;
      }

      .cls-153 {
        fill: #302043;
      }

      .cls-154 {
        fill: #aa2d44;
      }

      .cls-155 {
        fill: #8c000e;
        opacity: .4;
      }

      .cls-156 {
        fill: #4e1054;
      }

      .cls-157 {
        fill: #922736;
      }

      .cls-158 {
        fill: #c7c8ca;
      }

      .cls-159 {
        fill: #7ac776;
      }

      .cls-160 {
        fill: #c33639;
      }

      .cls-161 {
        fill: #9a9c9f;
      }

      .cls-162 {
        fill: #348e6d;
      }

      .cls-163 {
        fill: #2d1643;
      }

      .cls-164 {
        fill: #7f1e5c;
      }

      .cls-165 {
        fill: #255f5b;
      }

      .cls-166 {
        fill: #4e1053;
      }

      .cls-167 {
        fill: #aaaaaf;
      }

      .cls-168 {
        fill: #cc8727;
      }

      .cls-169 {
        fill: #c73736;
      }

      .cls-170 {
        fill: #338067;
      }

      .cls-171 {
        fill: #31675c;
      }

      .cls-172 {
        fill: #7c203b;
      }

      .cls-173 {
        fill: #7c2042;
      }

      .cls-174 {
        fill: #71c176;
      }

      .cls-175 {
        fill: #2b896c;
      }

      .cls-176 {
        fill: #3a715e;
      }

      .cls-177 {
        fill: #661850;
      }

      .cls-178 {
        fill: #541251;
      }

      .cls-179 {
        fill: #29635c;
      }

      .cls-180 {
        fill: #fff;
      }

      .cls-181 {
        fill: #d0cfd3;
      }

      .cls-182 {
        fill: #3f0c4b;
      }

      .cls-183 {
        fill: #85223d;
      }

      .cls-184 {
        fill: #4fa570;
      }

      .cls-185 {
        fill: #4ca270;
      }

      .cls-186 {
        fill: #c1c2c4;
      }

      .cls-187 {
        fill: #7dbb70;
      }

      .cls-188 {
        fill: #54765b;
      }

      .cls-189 {
        fill: #28866b;
      }

      .cls-190 {
        fill: #302047;
      }

      .cls-191 {
        fill: #ffccd9;
      }

      .cls-192 {
        fill: #d83e2c;
      }

      .cls-193 {
        fill: #aaa3b2;
      }

      .cls-194 {
        fill: #6c1a43;
      }

      .cls-195 {
        fill: #651a36;
      }

      .cls-196 {
        fill: #afacb5;
      }

      .cls-197 {
        fill: #6bbb74;
      }

      .cls-198 {
        fill: #6fbf75;
      }

      .cls-199 {
        fill: #350951;
      }

      .cls-200 {
        fill: #27615b;
      }

      .cls-201 {
        fill: #bebfc1;
      }

      .cls-202 {
        opacity: .5;
      }

      .cls-202, .cls-203 {
        fill: #ff557a;
      }

      .cls-203 {
        opacity: .2;
      }

      .cls-204 {
        fill: #1c575a;
      }

      .cls-205 {
        fill: #892259;
      }

      .cls-206 {
        fill: #430e49;
      }

      .cls-207 {
        fill: #711c48;
      }

      .cls-208 {
        fill: #432e57;
      }

      .cls-209 {
        fill: url(#GradientFill_1);
      }

      .cls-210 {
        fill: #531251;
      }

      .cls-211 {
        fill: #275d59;
      }

      .cls-212 {
        fill: #76aa6a;
      }

      .cls-213 {
        fill: #66184a;
      }

      .cls-214 {
        fill: #872434;
      }

      .cls-215 {
        fill: #541255;
      }

      .cls-216 {
        fill: #5daf72;
      }

      .cls-217 {
        fill: #57134f;
      }

      .cls-218 {
        fill: #60136e;
      }

      .cls-219 {
        fill: #6c1b43;
      }

      .cls-220 {
        fill: #84d078;
      }

      .cls-221 {
        fill: #225d5b;
      }

      .cls-222 {
        fill: #cd3934;
      }

      .cls-223 {
        fill: #72bf74;
      }

      .cls-224 {
        fill: #6a1768;
      }

      .cls-225 {
        fill: #58153d;
      }

      .cls-226 {
        fill: #291b42;
      }

      .cls-227 {
        fill: #380a4f;
      }

      .cls-228 {
        fill: #48a070;
      }

      .cls-229 {
        fill: #8d2631;
      }

      .cls-230 {
        fill: #1c5b5b;
      }

      .cls-231 {
        fill: #7a203b;
      }

      .cls-232 {
        fill: #53133f;
      }

      .cls-233 {
        fill: #76c476;
      }

      .cls-234 {
        fill: #942834;
      }

      .cls-235 {
        fill: #f8fcf7;
      }

      .cls-236 {
        fill: #8f2355;
      }

      .cls-237 {
        fill: #28153e;
      }

      .cls-238 {
        fill: #29615b;
      }

      .cls-239 {
        fill: #6cb772;
      }

      .cls-240 {
        fill: #fefefe;
      }

      .cls-241 {
        fill: #2d2540;
      }

      .cls-242 {
        fill: #501153;
      }

      .cls-243 {
        fill: #410d49;
      }

      .cls-244 {
        fill: #92264c;
      }

      .cls-245 {
        fill: #3a956e;
      }

      .cls-246 {
        fill: #5cae72;
      }

      .cls-247 {
        fill: #53a871;
      }

      .cls-248 {
        fill: #57ab71;
      }

      .cls-249 {
        fill: #999a9d;
      }

      .cls-250 {
        fill: #e5f6e1;
      }

      .cls-251 {
        fill: #908a9a;
      }

      .cls-252 {
        fill: #bd343c;
      }

      .cls-253 {
        fill: #3f976e;
      }

      .cls-254 {
        fill: #1e0636;
      }

      .cls-255 {
        fill: #210b38;
      }

      .cls-256 {
        fill: #601652;
      }

      .cls-257 {
        fill: #51a771;
      }

      .cls-258 {
        fill: #c28528;
      }

      .cls-259 {
        fill: #2c655c;
      }

      .cls-260 {
        fill: #200a38;
      }

      .cls-261 {
        fill: #3f0b5e;
      }

      .cls-262 {
        fill: #837c8e;
      }

      .cls-263 {
        fill: #6e1b44;
      }

      .cls-264 {
        fill: #b2b1b7;
      }

      .cls-265 {
        fill: #5db172;
      }

      .cls-266 {
        fill: #751e3e;
      }

      .cls-267 {
        fill: #2d655c;
      }

      .cls-268 {
        fill: #ba333e;
      }

      .cls-269 {
        fill: #3b0b4d;
      }

      .cls-270 {
        fill: #74bc72;
      }

      .cls-271 {
        fill: #791f3d;
      }

      .cls-272 {
        fill: url(#Unbenannter_Verlauf_12);
      }

      .cls-273 {
        fill: #7eca77;
      }

      .cls-274 {
        fill: #460d5a;
      }

      .cls-275 {
        fill: #30685c;
      }

      .cls-276 {
        fill: #7bc273;
      }

      .cls-277 {
        fill: #5b8e64;
      }

      .cls-278 {
        fill: #328e6c;
      }

      .cls-279 {
        fill: #430c5a;
      }

      .cls-280 {
        fill: #55aa71;
      }

      .cls-281 {
        fill: #c83835;
      }

      .cls-282 {
        fill: #91282f;
      }

      .cls-283 {
        fill: #35906d;
      }

      .cls-284 {
        fill: #992750;
      }

      .cls-285 {
        fill: #39936d;
      }

      .cls-286 {
        fill: #49a070;
      }

      .cls-287 {
        fill: #336a5c;
      }

      .cls-288 {
        fill: #64b573;
      }

      .cls-289 {
        fill: #671948;
      }

      .cls-290 {
        fill: #832337;
      }

      .cls-291 {
        fill: #469d6f;
      }

      .cls-292 {
        fill: #bd362b;
      }

      .cls-293 {
        fill: #5fb173;
      }

      .cls-294 {
        fill: #291d3d;
      }

      .cls-295 {
        fill: #6a1763;
      }

      .cls-296 {
        fill: #72c075;
      }

      .cls-297 {
        fill: #701c41;
      }

      .cls-298 {
        fill: #332447;
      }

      .cls-299 {
        fill: #65b773;
      }

      .cls-300 {
        fill: #681a35;
      }

      .cls-301 {
        fill: #b5b7b9;
      }

      .cls-302 {
        fill: #cecfd0;
      }

      .cls-303 {
        fill: #c79226;
      }

      .cls-304 {
        fill: #245f5b;
      }

      .cls-305 {
        fill: #b8b9bb;
      }

      .cls-306 {
        fill: #4fa470;
      }

      .cls-307 {
        fill: #952652;
      }

      .cls-308 {
        fill: #80213f;
      }

      .cls-309 {
        fill: #1e5a5a;
      }

      .cls-310 {
        fill: #3f8d69;
      }

      .cls-311 {
        fill: #711d41;
      }

      .cls-312 {
        fill: #dea924;
      }

      .cls-313 {
        fill: #210c38;
      }

      .cls-314 {
        fill: #4a7b5f;
      }

      .cls-315 {
        fill: #68b874;
      }

      .cls-316 {
        fill: #721a62;
      }

      .cls-317 {
        fill: #6a1a48;
      }

      .cls-318 {
        fill: #972933;
      }

      .cls-319 {
        fill: #40986e;
      }

      .cls-320 {
        fill: #205b5b;
      }

      .cls-321 {
        fill: #bdbdc1;
      }

      .cls-322 {
        fill: #e00026;
      }

      .cls-323 {
        fill: #781f3d;
      }

      .cls-324 {
        fill: #1e0535;
      }

      .cls-325 {
        fill: #9d9aa4;
      }

      .cls-326 {
        fill: #302b45;
      }

      .cls-327 {
        fill: #7fca76;
      }

      .cls-328 {
        fill: #daeadc;
      }

      .cls-329 {
        fill: #4ca370;
      }

      .cls-330 {
        fill: #185258;
      }

      .cls-331 {
        fill: #ff5a72;
      }

      .cls-332 {
        fill: #1c6660;
      }

      .cls-333 {
        fill: #38936e;
      }

      .cls-334 {
        fill: #5e154c;
      }

      .cls-335 {
        fill: #b9bbbd;
      }

      .cls-336 {
        fill: #58144e;
      }
    </style>
    <linearGradient id="GradientFill_1" data-name="GradientFill 1" x1="124.63" y1="57.07" x2="124.63" y2="39.69" gradientUnits="userSpaceOnUse">
      <stop offset="0" stop-color="#390800"/>
      <stop offset="1" stop-color="#9f5829"/>
    </linearGradient>
    <linearGradient id="Unbenannter_Verlauf_12" data-name="Unbenannter Verlauf 12" x1="68.15" y1="54.63" x2="68.15" y2="42.13" gradientUnits="userSpaceOnUse">
      <stop offset="0" stop-color="#225d5b"/>
      <stop offset=".97" stop-color="#328e6c"/>
    </linearGradient>
  </defs>
  <g id="Decor">
    <g>
      <g>
        <rect class="cls-209" x="0" y="39.69" width="249.25" height="17.38" rx="8.69" ry="8.69"/>
        <rect class="cls-180" x="2.24" y="41.34" width="244.78" height="14.07" rx="7.04" ry="7.04"/>
        <g>
          <path class="cls-331" d="M243.12,50.07c-.43.82-.98,1.67-1.69,2.27-.43.36-.84.73-1.35.97-.73.35-1.25.54-2.07.63-1.12.13-2.28-.26-3.28-.7-.95-.42-1.94-1.03-2.64-1.81-.58-.64-.99-1.23-1.28-2.05-.07-.2-.12-.41-.16-.61.03.36.1.72.21,1.08,1.07,3.28,6.96,5.11,8.92,4.64,1.59-.38,3.97-3.94,4.24-7.02-.17.89-.49,1.78-.91,2.58Z"/>
          <g>
            <path class="cls-322" d="M243.84,45.47c1.07,3.28-2.09,8.58-4.05,9.04s-7.85-1.36-8.92-4.64,1.77-6.95,5.74-4.48c1.03-4.11,6.16-3.21,7.23.07Z"/>
            <path class="cls-203" d="M242.77,45.12c.81,2.49-3.1,4.68-4.58,5.03s-5.87.84-6.68-1.64,2.37-4.13,5.38-2.25c.78-3.11,5.07-3.62,5.88-1.14Z"/>
            <path class="cls-202" d="M242.39,45.29c.22,1.61-3.14,3.11-4.62,3.46s-5.12,1.1-5.88-.4c-1.19-2.33,1.99-3.97,5-2.09.78-3.11,5.15-3.56,5.5-.97Z"/>
            <path class="cls-155" d="M242.46,43.54c.06.08.12.16.17.25.77,1.24.89,2.98.03,4.22-.49.72-.95,1.21-1.67,1.71-.47.32-.98.55-1.5.78-1.49.66-3.22.63-4.81.47-1.06-.11-2.07-.49-2.89-1.18-.48-.4-.93-1.09-1.06-1.71-.02-.08-.03-.15-.05-.22-.09.65-.03,1.34.19,2.02,1.07,3.28,6.96,5.11,8.92,4.64s5.12-5.76,4.05-9.04c-.26-.8-.76-1.45-1.38-1.93Z"/>
            <ellipse class="cls-191" cx="233.9" cy="45.97" rx="1.29" ry=".82" transform="translate(-3.09 20.32) rotate(-4.94)"/>
          </g>
        </g>
      </g>
      <g>
        <path class="cls-324" d="M47.91,13.93c2.64,2.87,3.47,7,3.16,10.94.23.42.99.73,1.01,1.28.05,1.06-.52,2.07-1.35,2.56-.2.37,0,.7.6,1,.62,1.07,1.44,1.46,1.42,2.38l-3.63-1.18-1-.16c-.13.06-.31,0-.39.14-.09.15-.11.32-.12.53l-.14,2.81c-.65.41-1.44.27-2.12.48-1.06.33-1.97.17-3.03.01-1.13-.16-2.45.17-3.49-.39-.7-1.03,2.05-2.88.8-3.12-1.97-.37-3.83-.84-5.61-1.71l.03,4.59c0,.48-.97.28-1.28.43-.69.06-1.36.18-2.01.36l-1.41-.13-6.13-.09c-.19-1.02.37-2.11,1.32-2.38.23-.27.37-.61.42-1-.13-.62.51-1.1.62-1.58.28-.33.41-.23.24.18.48.2.08,1.26-.24,1.61-.03.45.03.6.18.44-.06-.67.07-1,.4-.99.56-.48.5.4.21.77.13.07.13.13,0,.2-.26.46.22.64,1.45.55h.16c.53-.11,1.1-.07,1.63.03.57-.42,1.39.47.95,1.01.09.43.49.63,1.2.62l.71-.22c.29-.37.51-.48.67-.34-.19-1.84-.23-3.71-.11-5.6.43-1.24.34-2.37-.26-3.38-.27.23-.58.17-.92-.19-.44.18-.81.18-1.11-.02-.4-.08-.18-.48.14-.58.07-.23.1-.46.08-.69-.96.36-1.94-.82-2.53-1.54-.42.48-.94-.14-.63-.63-.09-.04-.16-.1-.19-.2-.12-.37-.31-3.25-.29-3.68,0-.11.32-.07.48.08.52-.12.54,0,.22.42l.35.78c-.18.86-.04,1.57.41,2.14.53.21.8.51.82.9.51-.13,1.11.18,1.17.73.43-.17.89-.14.84.44.47-.38.89,0,.93.56.39-.44,1.07-.04,1.23.45.42-.24.98-.17.97.42.54-.29,1.34-.11,1.6.54.25-.53.7-.34.81.2.08-.17.14-.15.18.03.38.05.71.12,1.01.2.38.02.71.09,1,.2.63.05,1.22.11,1.8.2.53.09,1.08.13,1.65.1.57-.4,1.61-.53,2.16.07.17-.52.45-.51.56.03.38-.14.8-.2,1.24-.17.06-.42.63-.41.77,0,.5-.22.97-.37,1.41-.45l.22.21c.14-.54.42-.56.79-.18.24-.15.32-.38.22-.7.19-1.35.18-2.72-.05-4.1-.29-.31-.7-1.1-.37-1.41-.23-.03-.4-.16-.53-.39-.3-1.17-.8-2.17-1.5-3-.39.19-.46.02-.06-.21-.39-.56-.6-1.09-.62-1.59.05-.47.34-.33.88.4Z"/>
        <path class="cls-260" d="M10.41.18c.59.07,1.19.13,1.8.2.94,0,1.86.23,2.79.38l4.64,1.19c1.68.64,3.33,1.2,4.91,2.3,1.3.91,2.92,1.81,3.31,3.54.62,2.81-.31,5.57-1.63,7.96.07.5.53.33.77,0,.06-.52.7-.81.93-1.18.39,0,.42.17.06.31.52-.07.52.1.05.33.25.28.03.86-.19,1.14.23.27.28.49-.04.76-.45-.27-.22,3.59,0,3.8-.48.73-1.16-.45-.43-.79-.08-.94-.14-1.89-.17-2.84-.36.12-.41-.02-.19-.35-.54-.3-.98.15-1.26.6.36.29.29.42-.19.38-.23.55-.29,1.1-.21,1.63.53,0,.51.2.01.37.35.99.85,1.91,1.53,2.71l-.1.29c.18.04.18.1.02.19l1.57,1.7c-.09.58-.4.63-.62.1-.41-.19-.66-.6-1.06-.96-3.32-.1-4.1-3-5.11-3.39l-.8.6c-1.74,1.41-3.81,2.24-6,2.61-1.28.11-2.54.3-3.79.55-.21-.01-.61-.08-.8,0-.5-.19-1.17-.31-2.01-.36-1-.05-1.73-.48-2.59-.84-.52-.6.11-.5.61-.2.04-.18.11-.18.2-.01.01-.18.07-.17.17,0,.35.05.56.16.63.33.48-.09.75,0,.8.28.12-.12.31-.14.4,0l1.4.2c.24-.25,1.6-.25,2.07-.19.05,0,.09.09.13.19.29-.06.63-.13,1-.2.11-.26.59-.4.6,0,.57-.25,1.12-.54,1.65-.89l.4.25c.38-.35.84-.76,1.32-.38.11-.32.42-.57.63-.23l1.36-1.05.43.09c.66-.49,1.25-1.05,1.79-1.68l.4.13c1.99-1.87,3.88-3.91,5.01-6.43l-.23-.39.79-1.36-.34-.38c.61-1.14.5-2.24.37-3.46-.49.06-.5-.04-.35-.47l-.18-.47c-.52.21-.64.09-.41-.42-.44.31-.58.13-.45-.39-.53.24-.75-.11-.57-.61-.38.39-.5.33-.43-.2-.43.18-.71.18-.6-.39-.4.3-.73.12-.62-.4-.41.43-.78.06-.74-.44-.41.39-.54.38-.45-.2-.43.37-.97.02-.96-.52-.29.25-.76.08-1.43-.5-.11.15-.25.25-.4.19-.98-.45-1.95-.82-2.99-1.14-.03.18-.09.17-.17,0-.42,0-.77-.09-1.04-.23l-.4.24c-.32-.2-.65-.4-.99-.62-.09.53-.27.5-.4-.02h-.15c-1.92-.56-3.93-.68-6.02-.38-.27.16-.61.29-1,.4-.04.51-.47.65-.8.2l-.14.4c-.14-.21-.36-.2-.65.01.07.09.12.18.14.27.03.13-1.24,2.15-1.7,1.9l-.61,1.05c.49.34.04.99-.43,1.13-.06.18-.13.17-.21,0-.2.36-.37.27-.37-.15.63-1.61,1.49-3.23,2.74-4.43.3-.38.71-.65,1.23-.83.19-.03.38-.17.58-.18.92-.26,1.86-.39,2.81-.38.42-.13.96.06,1.4,0Z"/>
        <path class="cls-66" d="M47.91,13.93c-.28-.09-.54-.57-.88-.4-.17.22-.4-.18-.5-.41-.24.36-.43.18-.56-.53-.45.21-.93-.02-1.45-.69-.27.53-.44.43-.56-.16-.42.44-1.13.21-1.21-.35-.34.57-.76.24-1.03-.24-.07.18-.14.17-.2-.02-.27.47-.83.34-.98-.16-.26.51-.44.49-.6-.06-1.54-.11-3.07-.1-4.61.04-.04.18-.21.22-.52.09l-.48.11-.12.4c-.15-.27-.31-.34-.48-.2l-1.2.37c-.06.11-.19.18-.4.2.21.17.06.25-.42.22l-.05.45c-.79.32-1.5.77-2.11,1.34-.21.24-.46.46-.76.65.17.06.16.13-.02.22-.16.47-.53.48-.8.08l-.06-.31c1.99-3.12,6.48-4.76,10.26-4.49,2.67.19,5.36.45,7.83,1.66.87.43,1.5,1.42,1.91,2.19Z"/>
        <path class="cls-255" d="M28.55,24.72c.39.3.64.37.97-.06-.18-.02-.16-.07.02-.13.06-.5.54-.88,1.04-.76.16-.19.22-.24.3.01-.13.16-.14.38-.14.58.22.53-.74,2.02-1.35,1.73l.02.37c-1.06,1.48-1.84,3.09-2.33,4.84l-.51.41c-.06.17-.12.17-.2,0,.05-.28.07-.62-.21-.77-.34-.15-.21-1.06.2-1.02-.23-.3-.14-.6.25-.61.06-.34-.15-.41-.41-.18.3.21.13.5-.22.38.21.39.15.51-.15.37-.04-.1-.13-.17-.24-.18-.12-1.38,2.8-4.43,2.19-4.79.14,0,.34,0,.38-.09-.56-.59-1.26-1.01-1.33-1.72.08-.05.16-.1.25-.11.12-.02,1.73,1.39,1.49,1.72Z"/>
        <path class="cls-70" d="M2.01,6.15c.61.34.32.97-.32,1.01.32.87.21,1.34-.32,1.39,0,.34-.12.54-.34.62.14.17.17.44,0,.6l-.2,1,.23.06c-.08,1-.15,1.98-.23,2.93.08.7.22,1.43.43,2.2.62-.07.74.28.23.63.56.04.67.36.23.72.58-.13.67.22.24.57.6.09.72.41.37.9.59.15.69.39.31.73.25.24.5.38.75.43l-.32.37c.4-.22.51-.12.42.35.51.19.63.42.36.67.22-.03.22.11.03.22.23.44.22.44-.26.35-1.83-2.18-3.04-5.07-3.19-7.94l-.2-1.2v-1.2l.78-3.81c-.03-.64.41-1.18.63-1.75.12.05.24.11.37.15Z"/>
        <path class="cls-60" d="M4.84,22.12c.49-.06.68.05.58.34.75-.26,1.02-.1.8.46-.2-.05-.62-.11-.61.2-.85-.36-1.39-.54-1.98-1.24.04-.15.13-.27.26-.35.54.09.86.28.96.58Z"/>
        <path class="cls-70" d="M19.63,1.95c-.31.11-4.6-.89-4.64-1.19,1.58.24,3.15.63,4.64,1.19Z"/>
        <path class="cls-60" d="M14.8,23.77c-1.24.21-2.5.64-3.79.55.36-.58,1.12-.34,1.79-.4.72-.07,1.37-.34,2-.15Z"/>
        <path class="cls-70" d="M9.01.18c-.89.28-1.87.32-2.81.38.07-.14,2.56-.9,2.81-.38Z"/>
        <path class="cls-60" d="M10.21,24.32c-.72.29-1.39-.33-2.01-.36.37.03,2.37-.34,2.01.36Z"/>
        <path class="cls-208" d="M32.77,34.52c-.55.25-1.4.42-2.01.36.48-.58,1.32-.35,2.01-.36Z"/>
        <path class="cls-109" d="M26.99,15.75c-.06.53-.46.34-1.1.48-.11-.24.24-.32.33-.49-.02.29.22.22.41.16.13-.04.25-.08.36-.16Z"/>
        <path class="cls-226" d="M50.73,28.71c-.03.43.4.65.6,1-.48-.04-.92-.44-1.05-.94.23-.11.35-.06.45-.06Z"/>
        <path class="cls-70" d="M12.2.38h-1.41c-.21,0-.4-.03-.39-.2-.13.02,2.13-.11,1.8.2Z"/>
        <path class="cls-70" d="M5.62.74c-.3.42-.83.53-1.23.83.04-.62.69-.75,1.23-.83Z"/>
        <path class="cls-60" d="M21.6,20.56c-.08.41-.56.4-.8.6.1-.32.42-.75.8-.6Z"/>
        <path class="cls-153" d="M24.54,32.29c.14-.33.12-.78.42-1,.1.45.04.87-.42,1Z"/>
        <path class="cls-190" d="M49.12,30.91c-.33-.03-.77.13-1-.16.41-.2.68.06,1,.16Z"/>
        <path class="cls-162" d="M32.77,24.56c.63.55.42,1.32.2,2.03l-.03,4.01-.39.89c.45,1.57,0,2.5-1.78,2.21-.16.05-.22-.03-.2-.21-.25-.41-.55-.75-.95-1.01-.43-.04-.84-.1-1.24-.18-.21-.38.05-.63.76-.77-.05-1.85.04-3.67.26-5.44.47-.5.8-1.26,1.35-1.73.26-.23.78-.35,1.06-.38.4-.04.68.47.97.58Z"/>
        <path class="cls-170" d="M46.92,27.13l.24.27c-.28,1.91-.46,3.83-.53,5.77-.22.5-.61.6-.88.11-.05.46-.71.49-1.01.21l-.83-1.01.38-.3.03-5-.4-.46c.95-.41,2.26-.41,3,.4Z"/>
        <path class="cls-37" d="M28.36,32.3c-.04.07-.17.12-.39.16-.05,0-.11-.02-.16-.01-.3-.04-.28-.07,0-.17-1.01.03-1.43-.16-1.24-.57.44-2.05,1.39-4.1,2.82-5.62.14-.02.26.06.29.15.06.17-.08.31-.08.5l-.08,5.29c-.46.07-.95-.05-1.16.28Z"/>
        <path class="cls-276" d="M43.92,26.74c.23,0,.45-.04.8.03l-.03,6.37c-.18-.42-.4-.54-.77-.65-1.35-.39-1.92.04-1.98-.34.04-.58.34-.63.56-.09.18-.38.25-.45.22-.22.11-1.04,0-2.01-.34-2.9-.01-.42.37-.7.51-1.09.23-.68.54-.89,1.04-1.11Z"/>
        <path class="cls-36" d="M27,16.94c.07.11.14.23.19.35.04.95.09,1.9.17,2.84.14.29-.07.74.43.79.22.12.39.52.63.63,1.05.54,1.11,2.73-.26,1.95-.37-.28-.65-.61-.85-.97-.15.12-.31.17-.42.06-.73-.74-1.2-1.7-1.54-2.67v-.37c-.1-.53-.03-1.08.19-1.63.07-.11.05-.3.19-.38.26-.46.75-.91,1.26-.6Z"/>
        <path class="cls-128" d="M31.76,34.1c-.17-.06-.17-.13,0-.2l.08-.24c1.06-.09.92-1.38.7-2.17-.02-1.62-.06-3.25.03-4.96.22-.69.28-1.35.2-1.97,1,.39,1.06,1.36.83,2.39-.51,2.24-.13,4.53-.17,6.78-.58.21-1.16.36-1.68.37Z"/>
        <path class="cls-211" d="M44.72,33.7c.53.02.87-.11,1.03-.41.17-.04.4-.01.54-.13.28-.24.17-5,.63-6.02.15.16.5.12.56.37s0,.43-.07.7c-.43,1.81-.43,3.59-.49,5.51-.5.2-2.28.84-2.19,0Z"/>
        <path class="cls-161" d="M49.91,25.96c.66.2.33,1.49-.18,1.78.34.51-.26.85-.62.37-.54.18-1.09.33-.83-.4-.03-.5-.52-.75-.77-1.16-.49-.28-.57-.44-.26-.49l1.66-.14c.2-.18.79-.14,1,.04Z"/>
        <path class="cls-106" d="M30.96,23.09c.4.16-.07.55-.38.67-.21.37-.6.7-1.04.76-.59.26-1.57-.39-1.37-1.03l.51-.02c.21-.69.09-1.38-.25-1.93.9.41,1.66,1.08,2.53,1.54Z"/>
        <path class="cls-10" d="M34.6,24.69c.1.07.27.09.35.19.52.1.93.29,1.22.55.69.16.38,1.88-.23,2.02-.49.53-1.94.11-1.61-.73.03-.6,0-1.2-.18-1.78-.21-.45.05-.43.45-.25Z"/>
        <path class="cls-251" d="M37.34,27.92c.04-.18.11-.18.22-.03,0-.57.47-.51.57.04.41.01.75.09,1.02.23.52-.02.98.05,1.38.2l.18.16c.5.02.57.39.2.69l-2.38-.28c-.85-.23-1.82-.13-2.6-.61-.06-.76.84-.62,1.41-.41Z"/>
        <path class="cls-72" d="M28.75,18.26c.37.05.39.2.01.29.24.51.51,1.04.81,1.58.32-.21.42-.1.24.24.78.42.56,1.53-.23.98-.53-.23-1.33-.58-1.53-1.24-.27-.88-.05-1.77-.04-2.57.32-.06.56.18.73.72Z"/>
        <path class="cls-40" d="M49.75,18.72c.04.74-.18.64-.45.01-.34.39-.49.26-.56-.24-.21.04-.3,0-.22-.21-.5-.02-.58-.42-.21-.74-.25-.1-.35-.4-.33-.88l-.23-.92c-.42.04-.44-.28-.04-.4.86-.34,1.87,2.77,2.03,3.38Z"/>
        <path class="cls-91" d="M35.94,27.45c.29-.57,1.68-.26,1.4.47-.52-.09-.98.14-1.41.41-.53-.11-1.19-.16-1.7-.54-.32-.24-.09-.86.1-1.07.28.6,1.07.47,1.61.73Z"/>
        <path class="cls-64" d="M28.34,15.56c.61.29,1.13,2.36.41,2.7-.39-.03-.59-.4-.73-.72-.06-.13-.19-.29-.22-.42-.06-.28-.47-.63-.32-.9l.54-1c.47-.35.69-.11.32.34Z"/>
        <path class="cls-51" d="M41.73,26.11c.16,0,.21.09.18.24.37.1.01,1.85-.09,1.99s-1.08.13-1.3.03c-.48.04-.95-.03-1.38-.2.58-.62.96-.65,1.15-.09.31-.52.48-1.13.53-1.83l.3-.14c.2,0,.41,0,.61,0Z"/>
        <path class="cls-21" d="M50.71,27.51c.2.24-.31.66-.59.83-.58.53-1.37.75-2.16.94-.13-.5-.07-.85.12-1.17.36.09.7.09,1.03,0,.21-.12.51-.1.62-.37.12-.44.23-.53.58-.19.16-.21.33-.33.4-.04Z"/>
        <path class="cls-220" d="M42.49,32.06c-.15,0-.41.05-.56.09-1.06.3.04-2.06.23-2.45.16-.35.36-.43.5-.1.17.42.14,2.09-.17,2.45Z"/>
        <path class="cls-201" d="M39.54,25.9c.2.09.28.18.23.28.16,0,.36.07.35.18-.08,1.03-.2,2.1-1.42,1.52l-.39-.26c.07-.65.08-1.29.03-1.9.38.11.81-.03,1.2.18Z"/>
        <path class="cls-249" d="M50.71,25.68c.99.59.36,1.4-.4,1.87-.18.1-.36.19-.58.19l.18-1.78c-.39.01-.39-.15,0-.26.28-.08.51-.05.8-.01Z"/>
        <path class="cls-256" d="M43.55,24.73c0-.57.45-.55.59,0,.02-.18.08-.17.18,0,1.19.25,1.4.5.63.76l-3.6.04c-.13,0-.23-.15-.21-.21.1-.15.31-.17.62-.06.05-.19.12-.2.21-.03l.3-.36c.3.11.59.05.87-.18.06-.17.2-.16.42.03Z"/>
        <path class="cls-7" d="M51.09,30.5c.09.25-.09.36-.56.32-.54-.25-.95-.35-1.42-.39l-.02-.75c.31-.19.65-.43.96-.29.51.23.79.71,1.03,1.1Z"/>
        <path class="cls-261" d="M49.94,24.93c-.24-.19-.29-.4-.06-.6l-.28-.36.15-1.58c-.16-.61-.11-1.1.13-1.45-.18-.07-.18-.14,0-.21,0-.29.08-.49.23-.6.48,1.44.48,3.02.22,4.6-.03.21-.32.14-.4.2Z"/>
        <path class="cls-118" d="M31.29,20.71c.26.16.46.48.27.79.63.27,1.02,1.25.04,1.02-.24-.17-.73-.04-.84-.44-.19-.43-.26-.9-.22-1.41-.52-.22-.33-.63.22-.55.7-.97,1.09-.23.53.59Z"/>
        <path class="cls-312" d="M37.74,29.66c.27,0,.53-.05.8.03l.6.22c.27.11.13.25-.42.42-1.17-.13-2.31-.49-3.39-.99.04-.18.11-.19.22-.03.67-.24,1.56.07,2.19.35Z"/>
        <path class="cls-76" d="M42.49,32.06c.06-.68.04-1.37-.04-2.13-.06-.19-.17-.27-.29-.22.1-.2.21-.54.21-.77.07.08.18.1.24.03.07-.08.09-.29.32-.25v3.34c-.17.09-.36,0-.44,0Z"/>
        <path class="cls-67" d="M30.54,20.67c.24.1.45.28.45.55,0,.29-.12.59-.23.86-.45-.14-.91-.33-1.17-.73.51-.04.27-.62.23-.98.22-.54.82-.27.72.3Z"/>
        <path class="cls-34" d="M47.66,15.12c-.08.1-.05.16.06.21l.04.4c.36.72.35,1.32-.01,1.79-.06.17-.13.17-.22,0-.16.14-.29.13-.38-.06-.66-.2-.6-2.59.19-2.51.21-.27.33-.17.33.17Z"/>
        <path class="cls-262" d="M41.89,28.59c-.12.19-.18.69-.41.78-1.06.03-2.03-.19-2.95-.44.65-.12,1.27.06,2.09.2.18,0,.08-.47.09-.61.59-.23.99-.21,1.19.06Z"/>
        <path class="cls-111" d="M33.31,22.31c.37-.39.89-.08,1.05.4.47-.34.71.09.79.57.71.35.34.96-.42.67-.29-.16-.77-.06-.97-.42l-.28-.41c-.55-.16-.73-.44-.52-.83.08-.37.21-.32.34.03Z"/>
        <path class="cls-301" d="M42.73,26.52c-.14.58-.35,1.34-.79,1.82-.02.08,0,.18-.05.25-.4-.04-.79-.07-1.19-.06-.08,0-.25-.04-.18-.16.36-.03.75-.05,1.2-.12.06-.7-.14-1.35.19-1.9.26-.22.98-.24.82.17Z"/>
        <path class="cls-129" d="M47.72,24.79c1.11-.52,1.48.46,0,.42l-.22.13c-.67.04-1.33.26-2,.17-.3-.22-.17-.47.41-.76.42-.83,1.3-.29,1.81.04Z"/>
        <path class="cls-335" d="M40.95,26.1h.17c-.14.62-.17,1.26-.23,1.95-.17.11-.47.03-.6.02-.62-.3-.4-1.73.26-1.88-.06-.23.2-.19.4-.09Z"/>
        <path class="cls-157" d="M32.97,22.29c.46.6.97.36.93.93,0,.1.02.26-.13.32-.47.04-.82-.31-1.23-.45-.49-.36-.49-.68.06-.97.28-.47.46-.37.38.17Z"/>
        <path class="cls-173" d="M37.7,23.84c.23-.36.59-.27,1.09.25.03-.18.08-.17.15.01.79.45-.01.84-.6.62-.23.14-.72.14-1.01,0-.06,0-.12-.04-.18-.03-.56-.23-.55-.57.01-.79-.04-.57.32-.59.53-.06Z"/>
        <path class="cls-41" d="M25.76,31.93c-.13.58-.04,1.25-.63,1.82-.18-.88.05-1.68.44-2.26.37-.39.35.03.18.44Z"/>
        <path class="cls-264" d="M28.15,34.14c-.25-.25-.11-.39.12-.6l-.11-.4c.4-.35.89-.27,1.26-.03.27.18.52.54.52.96-.66.14-1.22.11-1.79.07Z"/>
        <path class="cls-325" d="M41.95,34.07c-.08-.28.04-.31.34-.08.2-.21.48-.36.84-.46-.37.02-.57-.13-.61-.44.28-.34.74-.29,1.09.05.23.21.59.57.42,1.04-.56-.12-2.39.34-2.09-.1Z"/>
        <path class="cls-3" d="M26.36,29.92c-.15.28-.01.73-.2,1.02-.21.31-.14.73-.4.99.03-.13.02-.5-.18-.44-.09-.52.27-1.09.24-1.61.07-.1.11-.25.15-.37.38-.23.49,0,.39.41Z"/>
        <path class="cls-215" d="M45.13,24.74c0-.57.46-.55.6,0,.07-.17.13-.16.18.03.07.47.67-.1.87.49-.5,0-1.04-.18-1.28.27-.18-.02-.38-.03-.56-.03.03-.09.11-.2.09-.28-.06-.24-.58-.2-.71-.48.17-.55.54-.48.81,0Z"/>
        <path class="cls-183" d="M35.56,23.25c1.23.55,1.49.96.78,1.24-.57-.11-1.1-.27-1.6-.54.36,0,.44-.37.42-.67,0-.18.06-.18.18-.02.05-.18.12-.18.22,0Z"/>
        <path class="cls-100" d="M28.15,34.14c-.24-.02-.33.14-.58.15.14-.49.37-.8.59-1.14l.69.02c.16,0,.16.55.02.64-.24.15-.7.03-.72.34Z"/>
        <path class="cls-302" d="M41.95,34.07c-.28-.15.19-.66.17-.59.16.03.3-.11.4-.4l.68.02c.16,0,.46.36.29.6-.32.45-1.07.37-1.54.36Z"/>
        <path class="cls-234" d="M31.93,21.54c.49-.26.72.04.66.57,0,.32-.02.65-.06.97-.37-.12-.62-.34-.93-.56.39-.14.23-.79-.04-1.02.09-.53.26-.47.36.04Z"/>
        <path class="cls-274" d="M48.72,24.5c.06-.17.13-.17.2,0,.82-.19,1.01.32.22.61-.54.16-1.08.21-1.64.24,0-.42.52-.19.87-.33-.1-.45-.43-.17-.66-.22-.34-.08-.36-.18,0-.27.25-.64.58-.43,1-.02Z"/>
        <path class="cls-239" d="M49.12,30.43c-.43-.04-.72-.17-1.12-.33.32-.27.71-.38,1.1-.43.23-.05.36.05.42.34.04.21-.18.32-.4.42Z"/>
        <path class="cls-168" d="M39.54,29.91h.4l1,.2c.11.13.3.12.2.4-.8.03-1.6-.03-2.42-.18,0-.27.36-.2.42-.42.04-.18.24-.09.4,0Z"/>
        <path class="cls-237" d="M41.94,28.33c.15-.64.4-1.29.79-1.82.07-.19.27-.32.6-.4.21,0,.46-.11.64.15-2.02.42-.86,1.79-2.02,2.07Z"/>
        <path class="cls-117" d="M27.19,33.34c.04.24-.11.39-.22.56-.48.24-1.18.14-.79-.41.07-.18.23-.28.38-.38.3-.19.72-.15.64.23Z"/>
        <path class="cls-53" d="M49.75,18.72c.12.46.22.96.37,1.41.03.23-.04.46-.23.6l-.28-.02c-.09-.52-.19-1.04-.3-1.57-.52-.07-.5-.21-.02-.42.08.05.2.13.32.19.06.03.14-.16.13-.2Z"/>
        <path class="cls-81" d="M49.88,24.33c.07.09.16.18.18.3.02.11-.04.22-.12.3-.18.14-.58.11-.79.18.04-.1.1-.21.1-.33,0-.18-.18-.25-.33-.28-.16-.35-.02-.44.26-.16.13-.57.52-.56.7,0Z"/>
        <path class="cls-308" d="M35.91,23.28c.26-.35.53-.23.8.34.36-.45.62-.27.45.27-.02.26-.03.53-.01.79-.29,0-.54-.15-.81-.2,0-.21.12-.59-.16-.75s-.58-.2-.62-.49c.03-.36.14-.34.35.04Z"/>
        <path class="cls-86" d="M51.11,27.12c-.11.23-.24.36-.4.4-.12.04-.29-.02-.4.04.09-.37.53-.54.74-.91s-.22-.69-.34-.95c.39.05.53.2.62.54.12.41-.16.62-.23.89Z"/>
        <path class="cls-97" d="M35.95,29.07c-.06.12-.19.2-.4.24l-.22.03c-.35-.16-.9-.05-1.04-.62.69-.11,1.17.21,1.65.35Z"/>
        <path class="cls-104" d="M48.72,25.92h.2c-.41.37-.97.15-1.59.2l.19.43c-.26-.11-.56-.16-.81-.33.71-.43,1.36-.3,2.01-.3Z"/>
        <path class="cls-258" d="M41.14,30.51c-.18.49-2.29-.16-2.42-.18.81-.16,1.6.14,2.42.18Z"/>
        <path class="cls-303" d="M35.95,29.07c.59.18,1.43.02,1.8.59-.76-.02-1.44-.44-2.19-.35.09-.13.24-.21.4-.24Z"/>
        <path class="cls-213" d="M40.71,25.06c.29-.59,1.08-.5,1.04.2-.2.02-.41.07-.62.06-.63-.03-1.27.15-1.8-.2.06-.09.12-.08.2,0,.3-.54.83-.58,1.17-.06Z"/>
        <path class="cls-212" d="M40.5,32.53c-.21-.45-.12-.87.16-1.15.37.33.18.83-.16,1.15Z"/>
        <path class="cls-120" d="M47.04,13.53c.08.62,1.24,1.42.62,1.59-.13,0-.25-.06-.33-.17-.6.29-.66-.25-.43-.69-.52-.56-.64-.94-.36-1.14.13.13.31.38.5.41Z"/>
        <path class="cls-176" d="M45.75,33.29c.13.14.18.44-.09.55-.35.15-.69,0-.94-.14l.02-.2c.34-.04.67-.14,1.01-.21Z"/>
        <path class="cls-148" d="M36.55,25.32c.17.06.17.12,0,.2-.18.54-.3.46-.38-.09-.43-.15-.92-.19-1.22-.55.57.01,1.16.08,1.6.44Z"/>
        <path class="cls-167" d="M43.33,26.12c-.07.27-.34.38-.6.4-.13-.32-.55-.17-.82-.17-.07-.07-.13-.15-.18-.24h1.6Z"/>
        <path class="cls-17" d="M50.13,28.35l.59-.83c.11-.15.17-.36.4-.4-.14.55-.35,1.15-.99,1.23Z"/>
        <path class="cls-298" d="M27.81,32.28c.12.04.09.1,0,.17-.51.06-1.03.07-1.62.04-.1-.29,0-.49.17-.59.28.28.76.4,1.44.37Z"/>
        <path class="cls-187" d="M27.81,32.28c-.43,0-.89.13-1.39-.04-.11-.04-.05-.3-.05-.34,0-.06-.01-.14,0-.2h.2c-.04.73.89.17,1.24.57Z"/>
        <path class="cls-35" d="M30.76,33.7c.48-.03.82.03,1,.2v.2c-.34,0-.76.09-1.13-.08-.18-.08-.06-.45-.07-.54.07.07.14.14.2.21Z"/>
        <path class="cls-57" d="M41.33,33.3c-.21.19-.14.59-.32.8-.29.06-.52,0-.48-.2.1-.25.23-.51.4-.8.42-.25.68-.29.4.2Z"/>
        <path class="cls-106" d="M40.54,33.9c-.37-.05-.03-.33.04-.47.08-.18.23-.23.36-.32.05.32,0,.8-.4.8Z"/>
        <path class="cls-326" d="M28.36,32.3c.44-.03.87-.06,1.24.18-.54.03-1.09.05-1.63-.02-.02-.2.26-.15.39-.16Z"/>
        <path class="cls-104" d="M49.12,28.11c-.25.15-.5.22-.9.37-.1-.07-.12-.24-.14-.37.07-.13.04-.33.2-.4.01.16.03.34.17.37.25.07.46.03.66.02Z"/>
        <path class="cls-179" d="M50.53,30.82c.18-.12.4-.17.56-.32.12.19.48.11.39.49-.29-.1-.67-.03-.94-.16Z"/>
        <path class="cls-305" d="M40.95,26.1c-.13,0-.27.1-.4.09-.27.51-.54.51-.78-.02-.11,0-.19-.2-.23-.28.41.22,1.12-.26,1.41.2Z"/>
        <path class="cls-136" d="M26.97,33.9c-.16.25-.41.23-.84.2-.23-.01-.17-.3-.16-.49,0-.07.12-.07.21-.12-.05.18-.03.36.12.39.26.05.47.03.67.02Z"/>
        <path class="cls-181" d="M30.88,23.78h-.3s.38-.69.38-.69c.14.07.54-.03.39.32-.06.14-.35.22-.47.36Z"/>
        <path class="cls-71" d="M42.12,33.49c.04-.19.3-.27.4-.4-.04.22.18.74-.16.81-.28.06-.25-.31-.24-.41Z"/>
        <path class="cls-139" d="M34.6,24.69c-.18.01-.38.06-.45.25-.08-.26-.41-.35-.62-.55.49-.21.78.11,1.07.3Z"/>
        <path class="cls-11" d="M49.92,25.7v.26s-1-.04-1-.04h-.2c.25-.4.81-.12,1.2-.22Z"/>
        <path class="cls-110" d="M41.33,33.3c.03-.1-.03-.18-.1-.2-.1-.02-.19,0-.29,0,.22-.16.37-.48.82-.38-.16.23-.26.43-.42.57Z"/>
        <path class="cls-80" d="M24.35,33.86c-.33-.09-.43-.29-.37-.44.04-.1.23-.3.34-.29.11.26.07.49.03.73Z"/>
        <path class="cls-317" d="M39.54,25.12c-.07,0-.13,0-.2,0-.32-.03-.7.02-1-.2.49-.35,1.46-.8,1.2.2Z"/>
        <path class="cls-298" d="M27.38,33.33c-.16-.2-.34-.31-.61-.43.09-.21.29-.21.5-.21s.33.03.31.3c-.01.15,0,.28-.2.33Z"/>
        <path class="cls-196" d="M27.38,33.33c-.07.02-.11.11-.19,0-.15-.2-.4-.27-.64-.23.06-.04.18-.14.21-.21.14,0,.31-.04.47.03.15.06.16.26.14.4Z"/>
        <path class="cls-263" d="M38.34,24.72c.18.05.17.12,0,.2-.23-.18-.83.21-1.01-.2h1.01Z"/>
        <path class="cls-258" d="M40.94,30.11c-.33-.03-.81.14-1-.2.37,0,.74-.1,1,.2Z"/>
        <path class="cls-186" d="M37.34,25.52c.17.06.17.12,0,.2-.31.42-.72.32-.8-.2v-.2c.27-.17.59.23.8.2Z"/>
        <path class="cls-56" d="M39.54,29.91h-.4c-.22.02-.53.05-.6-.22.32.09.81-.15,1,.22Z"/>
        <path class="cls-321" d="M38.34,25.71c0,.57-.34.59-.58.07-.18.53-.32.49-.42-.07v-.2c.32-.05.68.1,1,.2Z"/>
        <path class="cls-204" d="M27.15,11.59c-1.97,3.13-4.51,6.81-7.25,9.36-.15.14-.33.26-.51.37-.44.54-1.13.82-1.79.96-.23-.07-.29-.16-.16-.32,3.3-3.93,6.47-7.98,9.46-12.14l.23-.69c-.38.02-.39-.29-.05-.94-.57-.1-.45-.46.09-.46.44,1.23.19,2.6-.03,3.85Z"/>
        <path class="cls-320" d="M27.14,9.14l-.76,1.49c-3.02,4.06-6.16,8.01-9.41,11.87-.27.42-.99.21-1.32.38-.08-.18-.17-.38-.11-.56.27-.84,3.23-3.77,4.04-4.37.59-1.11,1.51-2.13,2.42-3.01.9-2.1,2.39-4.14,3.89-5.89.32-.37.76-.62,1.19-.85.1.3-.02.64.05.94Z"/>
        <path class="cls-309" d="M17.6,22.28c-.17.04-.43.26-.63.23-.25-.32.27-.62.5-.9l4.49-5.67c.37-.47.72-.84,1.08-1.32l4.09-5.47c.16.67-.09,1.1-.52,1.66l-3.66,4.72-4.37,5.58c-.34.43-.9.64-.99,1.18Z"/>
        <path class="cls-31" d="M26.6,13.34c-1.13,2.52-3.02,4.56-5.01,6.43-.7.5-1.29,1.33-2.19,1.55,1.15-1.41,2.29-2.82,3.45-4.34l3.54-4.61c.25-.32.41-.69.76-.79-.11.65-.35,1.15-.55,1.75Z"/>
        <path class="cls-221" d="M27.18,7.74c.02.14-.14.33-.09.46-1.78,2.18-3.44,4.46-5.09,6.74-.18.22-.34.28-.46.18l-.19-.19,1.05-1.58c-.52-.32-.21-.81.36-.59l.96-2.25,2.92-3.7c.3.26.41.57.54.93Z"/>
        <path class="cls-221" d="M19.58,17.95l-2.02,2.52c-.66.83-1.39,1.54-1.91,2.41-.66.35-1.37.36-2.05.64-.54-.15.2-.67.59-.78.86-1.33,1.94-2.32,3.2-3.25-.43-.39.13-.99.6-.73.49-.54,1-.94,1.53-1.18.21-.1.23.03.05.37Z"/>
        <path class="cls-165" d="M26.64,6.81c.19.39.07.65-.26.96-.59.55-.93,1.31-1.48,1.91-.89.97-1.55,2-2.14,3.08l-.26-.08c.06-.54.29-1.12.69-1.74-.5-.28-.38-.51.17-.58.02-.3.1-.49.26-.6.44-1.1,1.36-2.56,2.26-3.35.07-.06.2-.06.35-.03.12.13.28.31.41.42Z"/>
        <path class="cls-327" d="M5.22,2.39c.13.33-.23.55-.54.53.13.02.19.15.13.27.11,0,.2.03.28.08.23.17-2.31,3.43-2.59,3.48-.48.08-.54-.2-.28-.6-.02-.42.34-.75.43-1.13l.61-1.05c.39-.81,1.1-1.4,1.56-2.18.37-.38.69-.23.95.43l-.55.17Z"/>
        <path class="cls-22" d="M24.79,20.91c.27.67.41,1.31.42,1.93l-.4-.15c-.48-.21-.93-.44-1.19-.94.02-.97.07-1.92.15-2.84.18-.28.36-.68.79-.68-.03,1.07.07,1.87.24,2.68Z"/>
        <path class="cls-87" d="M15.37,1.55c.34.08.35.15,0,.23.11.1.19.19.17.21-.2.33-1.78,2.55-1.97,2.68-.17.12-.3.18-.54.09-.16.23-1.12.15-1.04-.22v-.52c.75-.85,1.54-1.8,1.98-2.85.5.02.96.13,1.39.38Z"/>
        <path class="cls-299" d="M13.98,1.17l.47.39c-.94.98-1.46,2.19-2.45,2.97-.22.26-.72.19-1.01.02.28-1.29,1.44-2.76,2.58-3.4l.4.02Z"/>
        <path class="cls-304" d="M17.39,19.49c-.11.49-.6.56-.91.95l-2,2.57c-.21.27-.9.04-.88.51h-.6c-.3.14-.75.19-1,0-.17-.06-.17-.12,0-.2.05-.41.25-.39.39,0,.75-.62,1.47-1.29,2.15-1.99-.23-.33.66-1.21,1.06-.82.5-.45,1.02-.85,1.54-1.19l.24.17Z"/>
        <path class="cls-74" d="M10.17,18.74c.09.09.16.18.14.22-.25.51-2.55,3.53-2.94,3.79-.1.07-.2.11-.32.12-.02.24-.28.19-.46.04-.06,0-.12,0-.17,0l-.39-.43,3-3.63c-.23.3-.25-.04,0-.34.04-.6,1.16-.34,1.15.24Z"/>
        <path class="cls-134" d="M13.43,1.15s.1,0,.15,0c-.77,1.19-1.67,2.31-2.58,3.4-.22.16-.57.16-.77-.03-.07.09-.12.08-.18-.02l-.15-.24c.86-1,1.6-2.04,2.22-3.12l.44-.15c.26-.18.64-.07.87.14Z"/>
        <path class="cls-200" d="M26.23,6.38c-.83,1.13-1.6,2.41-2.61,3.38-.24-.11-.25-.46-.05-.61l.39-1.61c.28-.49,1.25-1.77,1.82-1.55.13.12.31.24.45.39Z"/>
        <path class="cls-146" d="M8.57,22.71c.16.08.1.15-.16.22-.2.4-.77.4-1.2.32-.2-.1-.6-.05-.63-.33.14.02.32-.08.46-.04,1.22-1.06,2.29-2.34,3.21-3.83l.31-.06c.15-.23.69-.21.88-.07s-2.42,3.68-2.88,3.81Z"/>
        <path class="cls-330" d="M21.58,19.77c1.85-2.27,3.51-3.83,5.01-6.43-.86,2.6-2.79,4.84-5.01,6.43Z"/>
        <path class="cls-291" d="M9.03,18.5c.08.13.2.23.29.4-.72.99-1.41,1.95-2.26,2.87-.34.37-.82.61-.64,1.14h-.2c-.19-.23-.51-.35-.8-.45.18-.38.48-.76.9-1.13.87-.93,1.58-1.94,2.11-3.03.22-.58.64-.43.6.2Z"/>
        <path class="cls-273" d="M1.68,7.15c.14-.33.32-.64.32-1.01.07.02.15-.01.21,0,.05.08.08.22.16.25.09.04.27,0,.36-.12l1.68-2.12c.25-.32.46-.59.39-.96.3-.17,1.04-.29,1.05.16,0,.3-3.54,4.62-3.84,4.67-.3-.04-.41-.33-.33-.87Z"/>
        <path class="cls-121" d="M16.41,1.78h.17c.35.02.36.12.02.23.07.09.13.19.15.29.04.18-1.96,3-2.13,3.06-.19.07-.81-.13-.82-.37-.07-.06-.14-.12-.18-.2-.09-.15,1.68-2.51,1.97-2.85l.38-.08c.03-.2.26-.15.44-.08Z"/>
        <path class="cls-141" d="M25.79,5.99c-1.06,1.36-1.59,1.37-2.21,3.17-.2-.47-.26-1.39.08-1.78.09-.64.82-1.59,1.29-2.03.04-.04.14,0,.26.04.29.14.37.42.57.61Z"/>
        <path class="cls-9" d="M19.98,2.73c.76.29,1.08.63.97,1.02.17.05.16.11,0,.19-.01.53-.19.51-.36.01l-.4.06c-.16-.25-.36-.49-.59-.7l-.5.11c-.02-.39-.32-.67-.9-.83-.06.17-.12.16-.17-.02-.35.39-.67.18-.79-.28-.41.23-.53.18-.63-.29l-.02-.23c1.18-.05,2.28.57,3.39.95Z"/>
        <path class="cls-267" d="M24.78,5.18l.12.25c-.61.58-1.02,1.23-1.24,1.94-.11.59-.09,1.19-.08,1.78,0,.2.02.41.05.61.01.23-.14.43-.26.6-.4.07-.41-.19-.05-.77-.5-.21-.5-.68,0-1.4-.71-.13-.18-1.03.08-1.45-.64-.9-.03-1.63.79-1.95.08.17.61.05.6.39Z"/>
        <path class="cls-241" d="M6.41,1.17c.26-.21.69-.34.8.02,1.32-.34.79,1.49-.2.95-.87.36-1.38.4-1.74-.51-.04-.09.17-.21.34-.25.25,0,.5-.29.8-.2Z"/>
        <path class="cls-193" d="M27.32,22.85c.3.08.59.3.85.64.44.35.81.83,1.37,1.03l-.02.13c-.25.42-.63.4-.97.06-.74-.36-1.1-1.13-1.74-1.61l-.02-.19c-.13-.61.27-.54.52-.06Z"/>
        <path class="cls-275" d="M24.18,4.79c-.52,1.66-.83,0-.79,1.95-.04.35-.11.36-.23.02-.24.16-.3.03-.18-.4-.45.02-.33-.48-.24-.83-.57-.48.18-1.39.82-1.14.23.12.5.15.62.4Z"/>
        <path class="cls-171" d="M10.59,23.29v.22c-.86-.12-1.72-.12-2.58.01-.29,0-.55-.15-.8-.28.37-.15.8-.27,1.2-.32.44-.12.91-.18,1.4-.2.24-.17.57-.24,1-.2.08-.08.15-.07.21.03.61.33.2.88-.43.73Z"/>
        <path class="cls-26" d="M27.32,22.53c.15.18.15.29,0,.32-.11-.11-.4.01-.52.06-.76-.83-1.39-1.86-1.43-2.99.69.86,1.05,1.96,1.96,2.61Z"/>
        <path class="cls-12" d="M23.34,21.33c-.26-.12-.4-.36-.55-.6-.27-.38-.28-.67-.05-.85.16-.32.46-.61.79-.74.2.56.21,1.38.15,2.01-.03.34-.07.44-.34.19Z"/>
        <path class="cls-70" d="M13.43,1.15c-.3.04-.59-.05-.87-.14-.3.38-.72.43-.8-.07-.6.02-1.18-.04-1.76-.16.1.39-.17.39-.8,0-.35.17-1.02.16-1.4,0-.1.19-.26.15-.4,0-.02-.15.18-.21.39-.21l4,.02c.08,0,2.16.22,1.62.56Z"/>
        <path class="cls-127" d="M22.37,3.75c.41.21-.16.76-.43.97-.05.18-.12.18-.21.02-.19.05-.37-.07-.54-.37-.52.21-.63-.04-.24-.43-.03-.05,0-.13,0-.19-.1-.46,0-.55.47-.52.32.11.71.31.96.52Z"/>
        <path class="cls-287" d="M23.56,4.39c-.27.39-.76.65-.82,1.14-.07.18-.19.12-.37-.16-.21.06-.27-.21-.19-.41-.24-.31.3-1.13.64-1.02.26,0,.54.34.74.44Z"/>
        <path class="cls-310" d="M24.8,22.69c.33.52-.09-2.14-.02-1.78.36.71.66,1.47,1.24,2.21-.61.26-.87-.28-1.22-.43Z"/>
        <path class="cls-133" d="M10.59,23.29c.37-.26,1.23-.5,1.42.03v.2c.17.06.17.12,0,.2h-2.19l-1.4-.2h-.4c-.23-.39,2.28-.1,2.58-.23Z"/>
        <path class="cls-259" d="M25.21,5.38l-1.55,1.99c-.39-1.15.74-1.26,1.13-2.19l.43.2Z"/>
        <path class="cls-130" d="M5.62,1.37c0,.23-.04.46.03.78.51.06.94.01,1.37-.02.32.22.23.35-.14.26-.1.29-.6.5-.89.37-.36-.05-.62-.18-.77-.38.05-.14.3-.37.19-.52-.14-.2-.44-.05-.59-.08.21-.36.35-.41.8-.42Z"/>
        <path class="cls-47" d="M23.61,21.75c-.06-.13-.24-.27-.27-.42.1.03.18-.05.24-.21.02-.72,0-1.35-.05-1.98.06-.06.18-.16.23-.24-.02.08.14,3.32-.15,2.84Z"/>
        <path class="cls-68" d="M21.41,3.23c0,.27-.22.45-.47.52-.29-.38-.59-.73-.97-1.02l1.43.5Z"/>
        <path class="cls-122" d="M27.37,20.13c-.43-.88-.12-1.89-.17-2.84.4.89.07,1.9.17,2.84Z"/>
        <path class="cls-292" d="M28.78,14.8c.77.15.13,1.36-.44.76,0-.17-.17-.31-.32-.34l-.05-.33c.26-.05.53-.07.8-.08Z"/>
        <path class="cls-188" d="M7.41.78c.13.01.27,0,.4,0,.17.06.17.12,0,.2.11.33-.09.4-.6.22-.23-.03-.57.05-.8-.02.11-.44.61-.43,1-.4Z"/>
        <path class="cls-115" d="M22.82,3.95c-.21.36-.65.57-.64,1.02-.06.17-.12.17-.2,0-.16-.06-.17-.15-.04-.25.07-.36.44-.58.43-.97.1.07.33.2.45.2Z"/>
        <path class="cls-122" d="M27,16.94c-.53-.13-.83.36-1.26.6.02-.29.2-.57.43-.7.28-.16.66-.19.83.1Z"/>
        <path class="cls-125" d="M25.35,19.55c-.38-.49-.11-1.15.21-1.63.09.56-.22,1.07-.21,1.63Z"/>
        <path class="cls-60" d="M9.81,23.72c-.46,0-1.08.17-1.4-.2.46,0,1.08-.21,1.4.2Z"/>
        <path class="cls-70" d="M2.65,5.02c.1-.42.09-.91.61-1.05-.1.4-.27.8-.61,1.05Z"/>
        <path class="cls-163" d="M24.98,17.29c0-.39.33-.78.8-.74-.2.3-.35.54-.8.74Z"/>
        <path class="cls-145" d="M16.41,1.78c-.11.19-.27.15-.44.08-.37.36-.56.33-.6-.09v-.23c.29.17.89-.22,1.04.23Z"/>
        <path class="cls-152" d="M22.74,19.88l.05.85c-.11-.18-.36-.29-.41-.54s.2-.27.36-.32Z"/>
        <path class="cls-60" d="M13,23.52c-.19.33-.67.2-1,.2v-.2h1Z"/>
        <path class="cls-236" d="M41.53,11.13l.18.41c-.06,2.74-.16,5.45-.28,8.12l-.3.08c-.65-.08-1.34-1.1-.79-1.6l-.25-.33.24-2.88c.1-.32.2-.65.31-.97l-.29-1.4c-.38.05-.39-.11-.01-.23-.3-.35-.3-1.22.21-1.36.34.02.68,0,.98.16Z"/>
        <path class="cls-160" d="M33.53,17.9c.38.21.22.57-.22.44-.25.48-.5.68-.75.61-.35-.34-.35-.88-.01-1.62v-1s-.28-.05-.28-.05c.11-.97.2-1.93.28-2.9-.36-.14-.36-.23,0-.25.15-.61.11-.88-.14-.8l-.25-.4c.12-.03.23-.26.4-.2l1.2-.31c.07.06.12.15.16.25.13.3.02,5.73-.14,5.99-.06.1-.15.18-.25.25Z"/>
        <path class="cls-90" d="M41.37,21.71c-.62-.21-.73-1.59-.23-1.97.37-1.12.08-2.35.2-3.6.16-1.72.26-3.36.19-5,.05.03.15.02.2.02.73.2.74.71.21,1.18-.18.98-.16,1.97.05,2.99l-.08,6.44c-.23.08-.41.07-.54-.06Z"/>
        <path class="cls-252" d="M33.75,11.35c.41-.21.99-.01.55.29-.1,1.05-.08,2.08.06,3.11.25.67.4,2.28-.21,2.76.37.09.32.24-.07.26-.11.38-.32.46-.56.13-.19-2.43.45-4.18.15-6.4-.5.23-.8.34-1.13.22.31-.3.78-.33,1.2-.37Z"/>
        <path class="cls-282" d="M28.75,18.26c.05-.93-.36-1.78-.41-2.7.35-.06.42-.45.44-.76,0-.07.02-.15.02-.22.16-.3.49-.51.77-.25.15.04.39.11.4.23.05.56.02,3.68-.19,3.92-.11.13-.88-.07-1.02-.23Z"/>
        <path class="cls-222" d="M32.34,13.13c-.13.53-.34.58-.56.05-.48.6-.82.66-1,.19-.21.6-.78,1.32-1.21.57-.09-.64,1.74-1.65,2.16-1.79.9-.35,1.29.53.6.99Z"/>
        <path class="cls-143" d="M39.95,10.91c.17.05.41.04.6.06,0,.46.15,1.01-.21,1.36-.49.35-1.07-.03-1.17-.58-.25.3-.38.19-.22-.18-.26-.25-.07-.43.58-.54.1-.11.25-.15.44-.12Z"/>
        <path class="cls-205" d="M42.76,11.38c.66.22.72.79-.02.77-.49.74-.59,1.68-.31,2.83l-.3.36c.29,2.05.28,4.36.2,6.45,0,.05-.09.09-.2.13-.02.24-.4.12-.6,0,.04.39-.12.4-.25.01-.38-.11-.33-.26.08-.24.06,0,.35-.02.35-.19l.05-5.56c0-.53.2-.9.04-1.47-.41-1.44.41-2.83-.08-3.33.36-.03.69.15,1.03.24Z"/>
        <path class="cls-63" d="M34.35,11.15c.35-.14.93-.24.8.2-.51.78-.6,1.8-.28,3.06l-.28.34c-.07.17-.14.17-.21,0-.56-.92.23-3.82-.61-3.4.16-.16.38-.2.6-.2Z"/>
        <path class="cls-316" d="M45.98,12.58c.44.6.41.85-.07.76-.19.54-.63.38-.61-.19-.31.43-.45.31-.32-.2-.16-.07-.16-.16-.02-.25-.53-.17-.68-.43-.44-.81.53.14,1.05.3,1.45.69Z"/>
        <path class="cls-164" d="M43.97,11.74c.72.4.51.96-.24.59-.35.51-.61.5-.79-.01-.26.33-.39.22-.2-.17.12-.24.21-.54.02-.77.42.1.83.16,1.21.35Z"/>
        <path class="cls-244" d="M39.95,10.91c-.14.05-.29.09-.44.12-.46.26-1.05.24-1.78-.07-.19.17-.76.15-1,0-.26.18-.86.14-1.2,0-.04.18-.1.17-.2,0,.05-.39,4.04-.21,4.61-.04Z"/>
        <path class="cls-169" d="M32.16,11.92c.31.02.75-.07.79.31s.07.89-.39.9c-.06.09-.14.09-.22,0-.03-.24.05-.53-.06-.8-.07-.17-.37-.15-.55-.18.14-.05.27-.18.42-.22Z"/>
        <path class="cls-295" d="M46.54,13.12c-.07.47.73.72.36,1.14-.02.18-.08.2-.2.05-.43.13-.51.05-.36-.37-.4.19-.52.04-.42-.37-.37.06-.39-.09-.02-.22.19-.22.11-.5.07-.76l.56.53Z"/>
        <path class="cls-105" d="M44.53,11.9c.2.24.37.5.44.81-.55.46-.9.42-1.06-.12-.05.17-.11.17-.19,0-.34-.11-.34-.18.01-.25.16,0,.34-.08.33-.25,0-.13-.06-.24-.1-.35.15.08.39.12.56.16Z"/>
        <path class="cls-192" d="M29.57,13.93c.39.11.39.29,0,.41-.22.17-.49.27-.77.25.02-.19.06-.41.19-.53.16-.16.39-.14.58-.12Z"/>
        <path class="cls-55" d="M35.35,10.95c.07,0,.13,0,.2,0l.2.2c.17.06.17.12,0,.2-.18.12-.57.3-.6,0-.13-.3-.53-.19-.8-.2.26-.27.65-.22,1-.2Z"/>
        <path class="cls-112" d="M26.61,29.31c-.21.04-.36.01-.41-.18.11-.19.12-.78.61-.61.4.14-.15.58-.19.79Z"/>
        <path class="cls-103" d="M26.61,29.31c-.04.21-.15.42-.25.61-.16-.1-.28-.25-.39-.41.05-.13.15-.26.22-.38.04-.01.24-.1.33-.09.08,0,.04.23.08.28Z"/>
        <path class="cls-277" d="M27.37,27.76c.01.16.02.3-.1.35-.11.05-.24,0-.3-.1s-.03-.25.2-.34c-.01-.16-.02-.3.11-.35.12-.05.24,0,.3.1s.03.25-.2.34Z"/>
        <path class="cls-13" d="M29.52,24.66c-.03.27-.16.46-.45.49s-.37-.3-.52-.43c.32.14.66.11.97-.06Z"/>
        <path class="cls-314" d="M28.2,26.48c-.38.08-.27-.34-.04-.46.13-.07.23-.44.48-.14-.22.17-.22.56-.44.6Z"/>
        <path class="cls-24" d="M6.88,2.4c.52-.02.53.1.02.36.28.33.05.5-.3.23l-.02.54c-1.5,2-3.06,3.96-4.68,5.86l-.48-.05c-.31-.21-.18-.5-.05-.8.13-.44.13-.95.32-1.39.14.13.06.34.25.64.21-.5.67-.7,1.01-1.13l2.58-3.3c-.14-.33-.52-.17-.71-.18-.23.04-.17-.13-.13-.27.34-.27.94-.38,1.31-.15.2-.3.54-.46.89-.37Z"/>
        <path class="cls-134" d="M3.67,13.35c.08.34.12.7-.07,1,.14.2.01.47-.1.68-.27.49-1.67,2.51-2,1.55-.04-.2-.1-.47-.23-.63-.16-.27-.16-.47,0-.61.62-.88,1.3-1.78,2.05-2.68l.3.1c.51.08.54.42.06.6Z"/>
        <path class="cls-185" d="M4.84,22.12c-.36-.12-.63-.4-.96-.58l-.03-.22c-.24-.52.63-.65.32.06l.42-.02c.96-.97,1.91-2.06,2.63-3.22.09-.14.22-.14.38-.04.44-.03.81.19.71.68s-2.7,3.52-3.29,3.43c-.07,0-.13-.05-.19-.1Z"/>
        <path class="cls-257" d="M4.17,21.37c-.02-.06-.16-.1-.25-.23-.03-.04-.14.1-.07.17-.18-.19-.29-.43-.36-.67,1.06-.9,2-1.94,2.82-3.11l.27.03c.15-.32.71.4.7.56-.01.22-2.55,3.27-2.86,3.38-.06.02-.15-.04-.25-.12Z"/>
        <path class="cls-62" d="M6.58,17.55c-.23.51-2.61,3.37-2.73,3.3l-.36-.22c-.14-.08-.42-.14-.42-.35l.02-.33c1.14-.65,2.09-1.6,2.87-2.85l.33-.05c.11-.15.18-.12.21.07.14.14.26.29.08.43Z"/>
        <path class="cls-121" d="M5.42,16.05l.13.49c-.14.63-1.78,2.48-2.28,3.02-.03.03-.14,0-.26-.05-.05.19-.18.18-.37-.02-.12-.23-.18-.5-.31-.73.02-.39.17-.4.29-.03.71-.38,1.83-1.92,2.4-3.02-.38.2-.51.08-.4-.37-.29-.23-.31-.47.03-.61.5-.21,1.25.97.77,1.32Z"/>
        <path class="cls-15" d="M6.29,17.05c-.7,1.36-1.94,2.41-3.22,3.24,0-.33-.28-.53-.43-.8.12,0,.25,0,.37.02l.39-.1,2.31-3.03c.29-.45.9.39.58.67Z"/>
        <path class="cls-293" d="M5.02,15.71c-.55,1.08-1.42,2.29-2.4,3.02l-.29.03c-.17-.28-.25-.6-.37-.9l1.92-2.33.29.03c.09-.14.24-.21.45-.22.27-.03.31.21.4.37Z"/>
        <path class="cls-147" d="M4.17,15.56c-.37.47-1.64,2.84-2.21,2.3l-.24-.57c.6-.9,1.29-1.69,2.09-2.35.2-.2.46.41.36.62Z"/>
        <path class="cls-288" d="M3.81,14.94c0,.36-.23.59-.52.87-.82.8-.59,1.34-1.57,1.48-.1-.24-.17-.47-.23-.72.21.03.48-.06.65-.29l1.45-1.94c.06-.17.14-.17.22,0,.19.1.24.52,0,.6Z"/>
        <path class="cls-286" d="M8.43,18.3c.04.1.41.37.29.54-.59.82-2.58,3.65-3.3,3.62-.22-.08-.47-.11-.58-.34.27-.02.53-.17.74-.44l2.56-3.26c-.14-.13-.36-.19-.54-.32-.4.19-.55.04-.38-.37.37-.55,1.42-.07,1.21.57Z"/>
        <path class="cls-19" d="M31.76,33.9c-.34-.02-.75.08-1-.2.55-.1,1.09-.28,1.72-.46.13-.62.07-1.19.06-1.74.4.57.32,1.48-.02,2.15-.16.31-.55.27-.77.25Z"/>
        <path class="cls-106" d="M28.17,23.5c-.26-.2-.64-.3-.85-.64-.03-.11-.03-.22,0-.32.34.24.67.6.85.97Z"/>
        <path class="cls-158" d="M36.55,25.52c.29,0,.55.06.8.2.1.06.3.06.42.07.47.38.27,1.78-.21,2.11-.07,0-.15.04-.22.03-.33-.43-.94-.25-1.4-.47.03-.68.28-1.33.23-2.02.12.04.26.09.38.09Z"/>
        <path class="cls-186" d="M38.34,25.71c.12.15.29.21.6.3-.24.63-.21,1.24-.24,1.86-.13.2-.36.16-.58.06l-.57-.04c-.1-.71.04-1.41.21-2.11.19.02.39-.06.58-.07Z"/>
        <path class="cls-151" d="M40.55,26.19c-.16.62-.28,1.24-.26,1.88-.27-.03-.79.03-1.15.09-.31-.12-.77.11-1.02-.23.19,0,.39-.07.58-.06.24.01.48.08.8-.05l.26-1.65c.26-.02.52-.01.78.02Z"/>
        <path class="cls-229" d="M29.76,18.93c-.25.29-.36.18-.24-.18-.32.33-.63.27-.75-.2.02-.09-.02-.2-.01-.29l.77.07.04-3.99c0-.13.02-.28,0-.41.49.06.76-.48,1.21-.57.1.1.19.21.25.33.11.23-.1,4.86-.19,5.1l-1.07.14Z"/>
        <path class="cls-48" d="M29.76,18.93c.86-.35,1.32-.27,1.37.23.51.18.38.5-.37.97l-.22.55-.72-.3c-.1-.04-.15-.19-.24-.24-.41-.43-.96-1.53-.06-1.38.06.08.17.11.24.18Z"/>
        <path class="cls-95" d="M29.52,18.75c-.4.37-.05.92.06,1.38-.58-.35-.99-.89-.81-1.58.27-.02.58-.04.75.2Z"/>
        <path class="cls-29" d="M48.51,18.28c.09.05.17.13.22.21.14.36,0,.42-.24.1-.03.19-.16.35-.4.48.04.81,0,1.61-.11,2.39l-.26.22c.09.57-.3.69-.62.22-.06.42-.24.44-.4.05-.06-.12-.09-.25-.09-.38,0-.36.14-2.61.26-2.75.06-.06.16-.08.28-.09-.32-.04-.28-.12.01-.25.07-.49.32-.53.57-.12-.07-.58.58-.62.77-.09Z"/>
        <path class="cls-279" d="M49.3,18.73c-.03.13.06.29.02.42.12.34.37,1.62.18,1.8-.08.08-.19.12-.31.16.38.07.34.22-.06.23-.06.54-.32.61-.64.17l-.13.02c-.34-.49-.35-2.03-.24-2.67l.39-.27.24-.1c.21.03.39.12.56.24Z"/>
        <path class="cls-16" d="M48.31,17.54c.03.57-.46.52-.56-.01-.03-.6-.03-1.2.01-1.79.44.44.68,1.2.55,1.8Z"/>
        <path class="cls-218" d="M48.31,17.54c.11.2.26.48.21.74l-.77.09c-.43-.07-.5-.3-.22-.62-.17-.06-.17-.13,0-.21h.22s.56,0,.56,0Z"/>
        <path class="cls-150" d="M42.12,22.19l.26.18c-.01.64-.07,1.3-.16,1.99.46.27.26.74-.26.87-.07,0-.14.02-.21.03-.27-.19-.7-.2-1.04-.2-.57-.1-.55-.53,0-.69.34-.12.53-.33.59-.65-.58-.3-.54-1.45,0-1.78.08.02.17-.01.25-.01.24.06.43.14.58.27Z"/>
        <path class="cls-206" d="M44.77,22.1c.24-.51.4-.5.55.05.07-.1.14-.09.2.02-.1.78-.14,1.6-.11,2.45l-.28.11c-.27,0-.54.04-.81,0-.06-.01-.12,0-.18,0-.56-.31-.61-2.53.17-2.56-.04-.56.24-.57.46-.06Z"/>
        <path class="cls-46" d="M44.13,22.12c.09-.16.14-.14.17.04-.28.83-.03,1.71-.17,2.56h-.59c-1.16-.19-.59-1.85-.19-2.54-.05-.58.6-.61.77-.06Z"/>
        <path class="cls-177" d="M42.92,22.19l.22.18c-.07.57-.21,1.13-.42,1.67.27.17.4.39.41.66-.02.11.08.44-.09.54-.35.21-.75.02-1.07,0,.24-.98.14-2.03.15-3.04.14-.22.69-.23.8,0Z"/>
        <path class="cls-92" d="M43.36,22.18c.09.63.06,1.28-.18,1.96.06.28.22.44.37.59-.13,0-.3.02-.42-.03-.25-.1-.54-.18-.85-.37.06-.82.5-1.43.64-2.14.05-.17.12-.17.21,0,.08-.17.15-.17.23,0Z"/>
        <path class="cls-199" d="M49.89,20.94c.45,1.04.25,2.3,0,3.39h-.7c-.31-.34-.4-.84-.25-1.49-.16-.63-.09-1.13.19-1.5l.06-.23c.17-.55.31-.64.7-.17Z"/>
        <path class="cls-89" d="M49.89,20.73c.02.06-.03.15,0,.21-.23.07-.46.14-.7.17.18-.64-.1-1.33.12-1.97.49.34.43,1.04.57,1.58Z"/>
        <path class="cls-300" d="M32.75,19.73c.17.06.17.13,0,.21-.04.31-.16.43-.43.38.06.6-.07,1-.39,1.22l-.36-.04c-.28-.24-.43-.45-.27-.79.08-.51.28-.82.62-.94.3-.32.67-.52.84-.05Z"/>
        <path class="cls-318" d="M31.93,19.54c.39-.01.38.14-.01.24-.02.38-.26.77-.62.94.05-.3-.13-.67-.02-1-.17.27-.26.43-.51.41.13-.32.46-.59.37-.97-.08-.21,0-.29.21-.25.41.03.59.22.59.63Z"/>
        <path class="cls-1" d="M46.9,14.26c.09.26.25.48.43.69-.38.76-.11,1.67-.19,2.51-.23.27-.97.33-1.02-.16-.08-.86-.1-2.56.58-3l.2-.05Z"/>
        <path class="cls-156" d="M46.7,14.31c-.32,1-.4,2.08-.38,3.2.35.07.58-.02.82-.04.13,0,.26.06.38.06v.21c0,.45-.34.45-1,0,0,.57-.46.55-.6,0-.11-.02-.19-.03-.2-.06-.06-.98-.09-3,.35-3.84,0-.02.13.03.27.09.16.08.29.21.36.37Z"/>
        <path class="cls-195" d="M32.75,19.94c.53-.36.91-.49,1.23.16.18.04.17.12.01.21-.06.2-.18.39-.35.57.04.63-.07,1.11-.34,1.43l-.34-.03c-.08-.1-.27-.11-.38-.17-.25-.15-.5-.32-.66-.57-.01-.42-.15-.9.06-1.4.12-.29.56-.22.77-.21Z"/>
        <path class="cls-61" d="M34,20.31c.2-.51.35-.5.54,0,.35-.37.48-.34.64.15.06-.18.12-.16.18.03.39,0,.38.15-.02.24-.14.33-.33.46-.58.37.02.71-.12,1.24-.41,1.6-.39.02-.74-.17-1.05-.4-.19-.59-.16-1.29.07-1.94.11-.13.48-.06.62-.06Z"/>
        <path class="cls-38" d="M35.35,20.73c.4-.36.59-.36.6,0,.35.07.36.14.01.25-.03.18-.09.17-.17,0-.45.44-.54,1.13-.27,2.07l-.18.2c-.06,0-.12.02-.18.02-.28-.17-.61-.29-.79-.57-.03-.59-.24-1.29.09-1.87.17-.22.68-.07.9-.1Z"/>
        <path class="cls-182" d="M46.34,21.94c.05-.53.23-.5.36.01.13,0,.28,0,.4-.05l.4.17c-.09.87-.02,1.68.21,2.44v.27c-.59-.12-1.2,0-1.81-.04-.06,0-.12-.03-.18-.03-.47-.18-.4-1.77-.27-2.31.03-.13.09-.22.22-.27-.14-.59.38-.74.66-.2Z"/>
        <path class="cls-225" d="M37.61,21.29c.15-.55.39-.51.53.03.17.06.17.13,0,.21l-.18.95c.18.79.09,1.24-.27,1.37-.17-.06-.37.08-.53.06s-.29-.26-.45-.27c-.69-.02-.61-2.01-.44-2.21.31-.37.88-.32,1.35-.13Z"/>
        <path class="cls-232" d="M38.93,21.76c.1-.15.17-.14.21.04l.4.28c-.16.81-.03,1.41.4,1.8.35-.17.45-.05.19.25-.03.11-.16.12-.4.03-.13.5-.73.5-.8-.05-.05-.01-.1,0-.15-.01-1.18-.16-1.22-2.97.14-2.33Z"/>
        <path class="cls-135" d="M38.14,21.53c.2-.13.59-.13.81-.03.39,0,.38.17-.02.26-.15-.02-.35-.04-.46.03-.22.12-.44,1.81.32,2.31-.37-.04-.74-.12-1.09-.25.12-.67-.38-2.47.45-2.31Z"/>
        <path class="cls-207" d="M39.74,24.16c.4,0,.73.07.97.22v.69c-.39,0-.78.11-1.17.06-.24-.39-.8-.17-1.2-.2v-.2c.34,0,.63-.26.59-.62.24.06.58-.07.8.05Z"/>
        <path class="cls-243" d="M45.73,24.73h-.6c.12-.72-.32-2.34.39-2.56-.01-.17.04-.18.16-.03l.05,2.59Z"/>
        <path class="cls-25" d="M35.79,20.98c.37.19.47.62.31,1.29.13.46.07.8-.19,1.02-.09-.05-.25-.02-.35-.04-.07-.01-.15,0-.22,0-.24-.19-.32-2.14-.08-2.26.17-.08.38-.02.53-.01Z"/>
        <path class="cls-269" d="M48.35,21.53s.09,0,.13-.02l.34.27c-.05.92-.09,1.82-.11,2.71-.33,0-.66.08-1,.02-.16-.03-.35.06-.6-.04v-2.57s.61-.22.61-.22c.03-.57.32-.64.62-.15Z"/>
        <path class="cls-227" d="M49.13,21.34c.29.95.26,2.03.06,3-.09,0-.17.16-.26.16h-.2c-.58-.07-.38-2.64-.23-2.98.2-.09.42-.15.64-.17Z"/>
        <path class="cls-119" d="M36.71,20.99l.3-.02c.13-.53.55-.38.59.13.43-.06.45.1,0,.19-.3-.02-.59.01-.97.11-.02.8-.21,1.56.07,2.23-.3-.02-.56-.17-.8-.34-.34-.71-.16-1.54-.12-2.3.06,0,.12,0,.17,0,.11-.17.78-.33.75,0Z"/>
        <path class="cls-320" d="M19.58,17.95l-.05-.37c-.06-.09-.11-.16-.09-.19.5-.72,1.23-1.69,1.82-2.33.03-.04.14,0,.28.06l.46-.18c-.75,1.04-1.62,2.01-2.42,3.01Z"/>
        <path class="cls-189" d="M22.76,12.75c-.17.14-.27.41-.36.59-1.23,2.05-2.7,3.86-4.41,5.42-.1.29-.54.42-.6.73l-1.78,1.02v-.56s7.1-9.04,7.1-9.04l.49.03-.43,1.81Z"/>
        <path class="cls-52" d="M21.54,15.12l-2.01,2.46c-.38.47-1.01.9-1.53,1.18.21-.52.75-.8,1.13-1.28,1.13-1.42,2.06-2.92,3.28-4.15l-.86,1.77Z"/>
        <path class="cls-175" d="M23.36,10.36c-.05.14-.14.43-.17.58l-1.95,2.48c-1.12,1.42-2.24,2.79-3.37,4.21-.79,1-1.4,2.06-2.27,2.89l-1.06.82c-.47.66-.85.8-1.16.43l-.13-.27c3.19-3.79,6.31-7.71,9.36-11.75l.7-.15.05.77Z"/>
        <path class="cls-294" d="M5.22,2.39c.2-.03.42-.04.68,0,.15.02.13.23.09.38-.39.25-.87.31-1.31.15.07-.27.24-.49.54-.53Z"/>
        <path class="cls-145" d="M17.24,2.3v.64c-.34.61-1.4,2.03-1.88,2.58-.14.16-.37.2-.58.24l-.34.13c-1.29-.46-2.61-.82-3.99-.85l-.25-.26c-.18-.06-.17-.14.02-.24.26.03.51.03.77.03.34,0,.67.01,1.01-.02.23.4.72.09,1.04.22.39-.42.63-.31.77.23.2,0,.5.32.75-.08.65-1.02,1.56-1.86,2.05-2.91.25-.04.49.07.63.29Z"/>
        <path class="cls-265" d="M15.97,1.87l-2.16,3.13c-.3,0-.51-.12-.77-.23l2.33-2.98c.19.04.41.01.6.09Z"/>
        <path class="cls-238" d="M13.34,21.96c.55.37-.44,1.21-.94,1.37-.12-.02-.27-.01-.39,0-.49.03-1.04.37-1.42-.03.23-.18.39-.44.43-.73.5-.43.89-.57,1.18-.39.51-.51.89-.58,1.14-.21Z"/>
        <path class="cls-200" d="M14.55,21.34c-.61.96-1.05,2.14-2.15,1.99l.94-1.37c-.15-.09-.13-.15.05-.19.41-.09.86-.2,1.16-.43Z"/>
        <path class="cls-101" d="M14.78,5.75c.48-.34.73-.11.62.43.46-.34.64-.13.6.37.17-.07.21-.02.15.16-.16.44-.13.77.09,1.01.38-.29.42-.1.2.33.2.21.38.24.53.11l-.16.43c.56-.12.7.51.4.92.38-.15.43.02.07.24.4.02.44.2.09.39.32.8.43,1.67.33,2.61.25.32.14.79-.31,1.42l.12.48-1.62,2.37c-.37.66-.8.89-1.3.69-.04.33-.46.78-.79.61-.35.32-.68.38-1.01.17-.05.39-.3.49-.59.21-.07.17-.14.17-.21,0l-.59.38c-.24-.2-.58-.32-1-.35-.06.19-.13.18-.22,0l-1.15-.24c-.17-.13-.39-.18-.6-.2-.36-.28-.78-.44-1.21-.57-.22.02-.47-.2-.39-.42-.3-.3-.21-.48.21-.41l.25-.36c2.52-.48,4.95-1.36,7.27-2.64l.47.21.44-.65c2.37-.78.48-5.33-1.25-5.7-.36.72-2.01,1.56-2.78,1.23-.47.18-.62.1-.44-.23.06-.83,1.49-1.73,2.18-1.34.84-.47,1.2-.73.41-1.46-.07.14-.17.32-.29.31-.34-.02-1.73-.37-2.18-.48-.21-.5-.85-.35-1.32-.21-.02.22-.15.35-.4.4-.25.2-.54.37-.6,0l-1.41.61c.15.4-.06.51-.38.22-.16.3-.37.5-.58.2-.54.19-.59-.02-.17-.39-.17-.09-.17-.17.01-.24.23-.39.45-.52.67-.42.19-.14,1.72-1.2,1.83-1.14.09.04.16.11.23.19.33-.17.73-.25,1.2-.23,1.58-.04,3.16.25,4.58.98Z"/>
        <path class="cls-319" d="M10.57,18.97c-.61,1.19-1.6,2.14-2.41,3.29-.3.43-.62.75-1.12.6l3.13-4.13c.06.01.15.01.22,0,.16-.1.22-.02.18.23Z"/>
        <path class="cls-197" d="M12.56,1.01c-.02.31-.21.58-.43.87l-2.08,2.64c0,.41-.67.43-1,.22l-.03-.38c.77-.98,1.54-1.96,2.3-2.95l-.14-.35c-.5.45-1.37.57-1.16-.28.86,0,1.73-.05,2.56.23Z"/>
        <path class="cls-87" d="M10.23,4.53c-.02.08-.03.16-.02.24-.29.38-.84.07-1.2.23-.38-.06-.35-.21.04-.27.35.07.71,0,1-.22.08-.05.13-.08.18.02Z"/>
        <path class="cls-88" d="M11.98,18.72c.08.08.14.15.12.2-.13.37-2.05,3-2.41,3.41-.14.16-.29.27-.49.35-.01.22-.46.18-.62.04.45-1,1.93-2.43,2.6-3.72-.28-.13-.44,0-.6-.02-.13-.01-.27-.06-.18-.23.52-.09,1.06-.04,1.59-.03Z"/>
        <path class="cls-96" d="M9.81,22.73c-.42.34-.89.14-1.4.2l.16-.22.62-.04c.26-.26.47-.33.64-.2.38.02.37.18-.03.25Z"/>
        <path class="cls-74" d="M20.95,3.94l.24.43c.15.06.15.12,0,.21.04.04.07.09.06.12-.08.42-3.26,4.4-3.76,4.85-.09.08-.18.07-.28-.02-.26-.25-.28-.61-.4-.92.24-.29.52-.61.86-.95l2.6-3.66.32-.04h.36Z"/>
        <path class="cls-280" d="M18.03,2.57c.14.06.14.13,0,.2l-2.43,3.21c.27.28.16.38-.2.2-.25-.08-.4-.32-.62-.43.65-1.25,1.62-2.31,2.45-3.45.29-.02.57.09.79.28Z"/>
        <path class="cls-329" d="M19.6,3.3c.15.12.13.21-.05.27.17.04.16.11,0,.2-.33.53-2.96,4.03-3.22,4.03-.42,0-.34-.95.05-1.07l.05-.41c.82-1.05,1.61-2.13,2.39-3.2.02-.03-.16.56-.13-.14-.42.51-.84.16-.5-.38.58-.03.97.39,1.4.71Z"/>
        <path class="cls-14" d="M20.59,3.95c-.58,1.18-1.63,2.05-2.34,3.25-.37.62-.8,1.18-1.44,1.4-.13-.17-.31-.32-.38-.55.02-.18.09-.19.19-.04,1.04-1.07,1.99-2.25,2.84-3.56.28-.33.31-.62.09-.89,0-.09.04-.18.05-.27.3.23.86.18.99.64Z"/>
        <path class="cls-257" d="M18.7,2.97c.08.08.13.14.12.16-.54.93-1.85,2.62-2.58,3.44-.03.04-.13.02-.24-.02-.27.03-.39-.31-.6-.37l.2-.2,2.43-3.21v-.2c.07,0,.12.02.18.02.09.19.3.32.5.38Z"/>
        <path class="cls-142" d="M23.32,9.59c-1.11,1.1-1.96,2.42-2.97,3.72l-4.45,5.74c-.56.73-1.25,1.26-1.72,2.07-.18.31-.65.37-.79.65-.03.05-.01.14-.05.19-.37.08-.79.07-1.14.21l-.15-.24c3.5-4.61,7.12-9.18,10.86-13.7l.4-.03c.04.47-.02.93,0,1.4Z"/>
        <path class="cls-278" d="M23.31,8.19c-1.22,1.2-2.17,2.61-3.26,4.03l-4.96,6.42-2.9,3.53c-.38.16-.76.32-1.18.39-.07.01-.14-.04-.21-.03,1.13-1.34,2.25-2.75,3.37-4.23.47-.29.61-.48.41-.57,1.37-.83,1.8-2.4,2.8-3.54.14-.55.36-.91.67-1.1,1.69-2.1,3.39-4.21,5.11-6.32l.23-.02c0,.48-.12.98-.08,1.45Z"/>
        <path class="cls-93" d="M7.81.98c.35-.17,1.02-.16,1.4,0,1.81-.3-.16,1.81-.99,2.06-.13-.49-.76-.42-1.18-.31.03.19-.02.19-.14.03l-.02-.36c0-.09.13-.16.14-.26.19-.14.52-.25.6-.58.08-.3-.26-.33-.41-.36.17-.15.36-.22.6-.22Z"/>
        <path class="cls-283" d="M23.16,6.76c-.92,1.72-2.18,3.31-3.52,4.84l-2.26,2.59c.2-1.35.28-2.69-.02-4.03.41-.41.59-.23.28.26.46.06.52.3.16.74.35-.02.35.26.02.83.38.2.71.03.98-.49l-.05-.28c1.34-1.56,2.66-3.17,3.94-4.81l.3-.03c.08.12.14.26.18.4Z"/>
        <path class="cls-333" d="M22.74,5.54c.09.27.18.55.24.83-.14.45-.54.73-.86,1.14l-2.51,3.27c-.25.33-.51.56-.82.71-.41.67-.67.83-.8.48-.05-.6.27-1.15.97-1.65l1.32-1.82c1.01-.96,1.71-1.99,2.08-3.11.13.02.26.08.37.16Z"/>
        <path class="cls-283" d="M14.59,17.72c.35-.06.55.15.14.29l-3.18,4.05c-.19.24-.63.22-.75.47-.19.35-.78.03-1,.2.03-.07-.01-.18.03-.25.22-.24.33-.24.35-.01,1.11-1.12,2.12-2.34,3.02-3.67-.07-.32.29-.4.59-.46.28-.37.39-.37.79-.61Z"/>
        <path class="cls-296" d="M10.01.78c.26.33.77.22,1.16.28.07.07.13.15.15.24.1.31-3.47,4.61-4.37,4.65-.22.1-.37.43-.67.42-.27-.06-.44-.18-.3-.41l1.35-1.9-.35-.41c-.42.46-.69.25-.36-.27l.03-.2c.61-.08.74-.23.39-.44.28-.44.96.03,1.34-.12l1.38-1.48c-.26-.12-.4-.16-.56-.16-.17-.06-.17-.12,0-.2h.8Z"/>
        <rect class="cls-270" x="7.81" y=".78" width="1.4" height=".2"/>
        <path class="cls-88" d="M21.98,4.97c.22.16.36.6.32.86-.05.37-2.83,3.88-3.33,4.49-.27.32-.84,1.01-1.16.84-.06-.25-.17-.48-.16-.74l.1-.42c1.45-1.69,2.78-3.44,3.98-5.26l.21-.02c.03.08,0,.18.04.25Z"/>
        <path class="cls-124" d="M21.73,4.73c.22.7-2.14,3.16-3.01,4.54-.31.48-.54,1.01-1.07,1.14,0-.11-.18-.24-.28-.26-.03-.13-.05-.26-.09-.39,1.31-1.48,2.57-3.04,3.79-4.69l.12-.5v-.21c.21.07.44.15.54.37Z"/>
        <path class="cls-149" d="M22.37,5.38c.03.17.28.51.13.7l-3.26,4.18c-.46.59-1.09,1.03-1.25,1.71-.02.17-.07.17-.17.01-.02-.27.05-.56-.02-.83l1.02-.95c.58-.87,1.08-1.8,1.85-2.53.68-.65,1.77-1.79,1.3-2.7h.2c.01.14.17.29.19.41Z"/>
        <path class="cls-27" d="M39.89,17.9c.36-.44.55-.31.45.24.09.59.66,1.04.79,1.6.15.63.15,1.33.23,1.97,0,.08-.09.16-.08.24-.18.51-1.26.54-1.33-.05-.16.54-.62.34-.81-.1-.05.03-.15-.04-.21-.04l.02-.26c.1-.3.27-.54.28-.24l.04-3.31c.2-.33.29-.36.61-.05Z"/>
        <path class="cls-69" d="M40.34,12.33c-.01.07.04.17.01.23.18.68.44,1.82-.02,2.37.27.5.06.58-.38.23-.58.36-.97.36-1.19,0v-3.13s.4-.28.4-.28c.45.04.79.36,1.17.58Z"/>
        <path class="cls-307" d="M40.35,18.13l-.45-.24c-.52.06-.68-.1-.56-.62-.17-.05-.16-.1.02-.15.06-.72.11-1.25.16-1.6-.08-.17.06-.3.45-.37.12-.07.29-.11.38-.23.11.06.48.11.4.39-.43,1.58.04,2.3-.39,2.82Z"/>
        <path class="cls-289" d="M40.33,14.93c-.2-.73-.33-1.66.02-2.37.49.38.83,1.18.62,1.84-.09.29-.51.35-.64.52Z"/>
        <path class="cls-214" d="M32.34,13.13c.07,0,.15.01.22,0v.25c0,.84-.21,2.35-.4,3.47.1.32.03.68-.22,1.09.43.4-.02,1-.55.78-.18.08-.47.1-.49-.02-.11-.67-.02-4.71.23-5.16.09-.17.44-.33.65-.37l.56-.05Z"/>
        <path class="cls-281" d="M32.56,18.95c.26.55-.1.7-.63.59-.35,0-.61-.28-.59-.63-.16-.08-.13-.15.05-.19l.55-.78.39-1.06c-.27-.23-.18-.71.22-.56.44.75.25,1.79.02,2.62Z"/>
        <path class="cls-77" d="M32.55,13.38c.81-.04-.06,2.52-.01,2.95-.04.17-.27.33-.22.56-.07.17-.12.15-.17-.03-.4.41,0-4.52.4-3.47Z"/>
        <path class="cls-94" d="M34.09,17.77c.11.06.2.12.21.18.02.25.04,1.94-.03,2.01s-.17.11-.28.13c-.42.03-.82-.14-1.23-.16v-.21c.03-.5.08-1.09.56-1.38l.22-.44c.18-.05.37-.1.56-.13Z"/>
        <path class="cls-290" d="M33.31,18.34c-.35.71.2,1.45-.56,1.38-.28,0-.56.01-.84.05v-.24c.28-.14.47-.36.65-.59.2-.26.38-.63.75-.61Z"/>
        <path class="cls-268" d="M34.73,14.94c.62.49.74,1.74.2,2.21-.11.32-.54.74-.77.36,0-.93-.14-1.88.21-2.76.07.02.15-.02.21,0,.3-.27.4-.15.15.18Z"/>
        <path class="cls-98" d="M35.36,17.1c.28.3.19.43-.19.28-.34.82-.46,1.76-.36,2.8l-.27.13c-.17.01-.39-.01-.54,0,0-.07-.02-.14-.01-.21.07-.77-.08-1.56.1-2.32.02-.08.07-.17.07-.26.29-.05.54-.18.77-.36.04-.53.22-.54.43-.05Z"/>
        <path class="cls-30" d="M31.77,13.18c-.51-.47-.86,5.71-.38,5.55-.03.04-.02.14-.05.19-.08.07-.15.16-.21.25-.46-.05-.9-.23-1.37-.23.15-.2.39-.23.79-.29-.11-1.81.12-3.53.23-5.27l1-.19Z"/>
        <path class="cls-219" d="M38.74,11.55c.07-.18.14-.17.2.02.08.04.14.13.22.18v3.59c.28-.18.53-.22.79-.18-.15.09-.27.33-.45.37.02.5-.24.5-.77.02-.08.18-.61.15-.75-.04l-.3-.34c-.02-.46.08-3.49.22-3.6.17-.13.63-.14.83-.02Z"/>
        <path class="cls-73" d="M39.52,11.03c0,.12.03.25-.02.38-.07.18-.71-.13-.56.17-.05-.02-.15-.03-.2-.02-.21,0-.28-.07-.19-.2-.3-.05-.56-.11-.8-.19-.17-.06-.17-.12,0-.2.59,0,1.19-.03,1.78.07Z"/>
        <path class="cls-334" d="M42.75,12.15c.02.08.13.15.2.17l.28.15c-.16,1.3-.19,2.6-.1,3.9l-.17.17c-.24.46-.32.22-.42-.2-.21-.22-.34-.55-.4-1-.18-.98-.37-2.03-.06-3.05.11-.17.56-.11.68-.14Z"/>
        <path class="cls-172" d="M35.15,11.35h.6c.03-.18.15-.13.25.04.17.04.17.1,0,.17-.24.19-.39.4-.44.62.06.99.01,1.94-.14,2.84l-.3.12c-.11.12-.24.05-.38-.2-.03-.07-.08-.15-.15-.18-.18-.57-.5-3.04,0-3.26.14-.06.36-.15.56-.15Z"/>
        <path class="cls-138" d="M44.97,12.71c.02.08.04.17.02.25-.31,1.54-.55,3.16-.23,4.71.07.53-.1.52-.38.07-.24.51-.5.37-.45-.18-.28-.04-.42-.22-.2-.43-.28-1.22-.21-3.07-.06-4.36,0-.07.11-.14.24-.19.35.01.71.08,1.06.12Z"/>
        <path class="cls-210" d="M44.98,12.96l.32.2.27.28c-.4,1.33-.4,2.73-.31,4.1l-.16.17c-.12.37-.28.35-.34-.04-1.01.21-.02-4.83-.2-4.59.08-.1.27-.14.43-.13Z"/>
        <path class="cls-65" d="M45.91,13.35c-.01.07.05.16.02.22l.17.24c-.38,1.19-.5,2.44-.37,3.76l-.2.17h-.21c-.09.17-.16.16-.22-.02-.42-.02-.06-4.55.21-4.55l.61.19Z"/>
        <path class="cls-107" d="M43.73,12.33v.25s-.22,4.02-.22,4.02l.21.54.2.43c-.05.53-.23.51-.39,0-.27.13-.46-.15-.59-.85-.17-.03-.17-.09,0-.18-.57-1.48.19-1.85,0-4.22.26.05.53.02.79.01Z"/>
        <path class="cls-32" d="M36.75,10.95c.17.06.17.12,0,.2-.14.23-.77.18-1,0-.07-.06-.14-.13-.2-.2h1.2Z"/>
        <path class="cls-54" d="M37.74,10.95v.2c-.17.21-.79.2-1,0v-.2h1Z"/>
        <path class="cls-242" d="M46.34,13.94c-.61.37-.37,3.11-.42,3.81.01.28-.21.16-.39,0,.04-1.41-.16-2.87.4-4.17.2.04.35.18.42.37Z"/>
        <path class="cls-336" d="M43.72,12.58h.19c.24,1.98-.34,2.64-.18,4.56-.21-.07-.42-.27-.4-.59.08-1.3-.24-4.49.39-3.97Z"/>
        <path class="cls-144" d="M36.75,11.15h1c.29,0,.62-.07.8.19-.5.56-.9.58-1.18.07-.12.55-.36.5-.61,0-.28.53-.51.53-.77-.01l-.25-.04v-.2h1Z"/>
        <path class="cls-93" d="M6.61,3.37c.03.18.19.29.36.27,0,.18-.02.36-.06.53s-.08.33-.17.45c-1.33,1.89-3.34,4.64-4.97,6.31l-.49-.04c-.04-.45-.08-.89-.06-1.34.09-.04.16-.12.19-.21l2.1-2.46c1.11-1.3,1.83-2.9,3.08-3.89.38.1.38.26,0,.38Z"/>
        <path class="cls-254" d="M6.61,3.37c-.02-.12,0-.25,0-.38l.3-.23s.12,0,.14-.03c.32.13.72-.12,1.14.21-.48.64-1.07.31-1.56.43Z"/>
        <path class="cls-313" d="M6.44,7c.29.17.11.42-.19.38-.21.52-.48.86-.83,1.03.34.36-.2,1.06-.58,1.32-.42,1.09-.56,2.23-.47,3.43.29.12.59.27.89.45.29-.08.4,0,.33.23.16.57.42,1.11.78,1.62l-.14.46c.18.36.45.63.77.87.17-.06.18-.01.04.13-.1.12-.16.26-.21.41-.14.21-.31.05-.33-.19-.06-.04-.15-.03-.21-.07-.07-.31-.31-.54-.58-.67-.16.3-.26.19-.29-.33,0-.03-.44-1.24-.61-1.01-.07.1-.17.19-.19.3-.41.18-.67-.21-.8-1.2-.09-.2-.14-.47-.15-.8.03-.2-.06-.4-.06-.6-.37.02-.37-.32.02-1.02-.36-.22-.29-.68.21-1.38l-.25-.1c.2-.57.49-1.12.87-1.67-.3-.48-.17-.67.39-.56l.62-.84c-.35-.47.4-.96.81-.56.02.14.08.28.17.39Z"/>
        <path class="cls-132" d="M3.61,12.75c-.39.2-2.15,3.27-2.35,2.58-.08-.33-.29-.64-.23-.99.78-.78,1.5-1.64,2.16-2.6.13-.11.28-.1.44-.02l-.02,1.02Z"/>
        <path class="cls-293" d="M3.82,14.15v.2h-.22c0-.33.03-.67.07-1,.18.23.17.52.15.8Z"/>
        <path class="cls-306" d="M6.83,17.31c.15.12.27.27.39.42s.23.26.38.37c-.44.53-2.78,3.9-3.24,3.63-.1-.06-.15-.23-.19-.35.85-.56,1.59-1.89,2.49-2.78.22-.21.42-.39.32-.71-.05-.14-.22-.25-.39-.32s-.12-.29-.08-.43c.1.07.24.11.33.19Z"/>
        <path class="cls-59" d="M5.71,16.38c.38.46-2.36,3.59-2.49,3.5-.1-.07-.15-.23-.21-.37l1.87-2.3c.3-.37.61-.68.55-1.16.03.1.22.25.29.33Z"/>
        <path class="cls-216" d="M2.62,18.73c.78-.92,1.55-1.86,2.18-2.97l.21-.05c.17.3.05.51-.2.82l-1.71,2.09c-.09.11-.23.23-.35.23-.05,0-.09-.06-.13-.12Z"/>
        <path class="cls-216" d="M4.62,15.34c-.02.09.04.29-.09.33-.11.04-.25-.08-.36-.11l-.36-.62v-.6c.01-.07,0-.13,0-.2.47.3.14,1.27.8,1.2Z"/>
        <path class="cls-233" d="M6.29,6.36c0,.08-.02.16-.01.24l-.81.56-.62.84c-.11.19-.24.39-.39.56-.2.6-2.55,3.9-2.88,3.99-.17.04-.33.04-.49-.04,0-.56-.28-1.2.2-1.62l2.57-3.11c1.12-1.36,2.1-2.78,3.12-4.14l1.25-.19c-.54.93-1.97,2.4-1.95,2.91Z"/>
        <path class="cls-33" d="M3.84,10.34c-.01.59-2.16,3.62-2.45,3.63-.1,0-.19-.02-.29-.06,0-.06-.02-.13-.03-.18-.1-.4.02-.81.02-1.21l3.37-3.95-.62,1.77Z"/>
        <path class="cls-198" d="M3.63,11.72l-2.31,3.02c-.15-.19-.19-.33-.29-.4l.07-.44,2.74-3.57c-.15.43-.2.93-.21,1.38Z"/>
        <path class="cls-166" d="M46.95,18.47c.07-.4.11-.4.22.01.08.09,0,.17-.01.25,0,.21-.14.38-.41.5.03.87-.02,1.73-.14,2.58l-.27.13c-.23,0-.45.13-.66.2-.05.02-.11.02-.16.03-.07,0-.14-.02-.2-.02-.1-.06-.19-.12-.19-.18-.01-.22.16-2.38.24-2.5.08-.12.19-.22.31-.3-.38-.07-.35-.23.05-.23.39-.65.79-.8,1.22-.46Z"/>
        <path class="cls-137" d="M48.5,18.59c-.07.98.17,2-.15,2.94l-.62.15c-.01-.99-.1-2.06.03-3.08.26-.12.57-.04.74-.02Z"/>
        <path class="cls-1" d="M47.16,18.73c-.13,1.35.22,2.93-.45,3.22h-.36s-.01-2.44-.01-2.44c0-.28.04-.55.22-.68.16-.12.4-.1.6-.11Z"/>
        <path class="cls-39" d="M47.52,17.74c.18.15.23.39.22.62-.19.06-.38.11-.57.12-.08-.1-.12-.07-.22-.01-.43-.15-.57-.4-.43-.73h1Z"/>
        <path class="cls-44" d="M41.29,21.94c.07.59,0,1.19,0,1.78.05.59-.74.64-1.16.4-.06-.09-.12-.17-.19-.25-.52-.5-.52-1.49,0-1.98.44.03.89-.05,1.33.05Z"/>
        <path class="cls-5" d="M43.54,17.57l.31.49c0,1.16-.15,2.23-.46,3.23.46.3.3.85-.26.89-.07,0-.14.02-.21,0-.27-.04-.54,0-.8,0-.22.01-.49-.05-.58-.27h.6c.04-.41.25-.39.4,0,.05-.39.12-.47.2-.23v-4.84s.22-.13.22-.13c.3.15.39.59.59.85Z"/>
        <path class="cls-213" d="M40.71,24.37c-.35.03-.67-.05-.97-.22l.4-.03c.43-.04.97.07,1.16-.4,0,.14.11.34.03.48-.12.2-.42.15-.61.17Z"/>
        <path class="cls-65" d="M45.68,19.16c-.39.89.16,2.37-.36,2.99-.18,0-.37-.07-.55-.05-.37-.48-.34-1.87.13-2.36-.29-.64.26-1.06.79-.58Z"/>
        <path class="cls-178" d="M44.77,22.1l-.46.06c-.06,0-.12-.05-.17-.04-.78-.17-.32-1.05-.04-1.55-.43-.42-.16-.85.43-.63.1-.42.23-.49.37-.19-.01.79.26,1.64-.13,2.36Z"/>
        <path class="cls-217" d="M44.13,22.12l-.77.06c-.08,0-.15,0-.23,0,.11-.26.07-.66.26-.89.07-.75.3-.99.71-.73l.04,1.55Z"/>
        <path class="cls-224" d="M45.92,17.75h.6c.24.22.7.37.43.72-.38.22-.78.41-1.22.46-.2-.38-.34-.78-.42-1.19h.21s.39,0,.39,0Z"/>
        <path class="cls-266" d="M36.57,16.98c.11.08.21.17.27.28.16.31.04,3.44-.13,3.54s-.65.12-.76-.07c-.16-.02-.44-.03-.6,0l.02-.24c.02-1.15.12-2.3.28-3.43.4-.22.71-.25.92-.08Z"/>
        <path class="cls-271" d="M36.52,16.68c.17-.09.36-.14.42.06.24.46,0,.72-.38.24-.18.03-.64,0-.71.26-.37,1.36.28,3.5-.49,3.25-.06,0-.12-.03-.18-.03-.1-.01-.19-.04-.27-.09-.13-.09-.22-2.77.25-2.99.08-.08.15-.18.19-.28-.14-.12-.11-.18.07-.2.22-.5.36-.57.76-.17.13-.28.24-.3.33-.05Z"/>
        <path class="cls-231" d="M35.18,20.46c-.22.01-.46,0-.64-.15v-2.19c-.02-.47.27-.69.63-.74v3.08Z"/>
        <path class="cls-123" d="M36.71,20.99h-.75s-.01-.26-.01-.26c.15.02.56.06.58-.18.09-1.26.05-2.42.04-3.57.13-.02.36-.06.38-.24.05-.17.12-.17.2,0,.15.02.36.05.4.18.06.19-.05,3.93-.21,4.05l-.62.02Z"/>
        <path class="cls-194" d="M38.74,16.95c.43-.36.63-.47.61.18l-.02.15c0,1.41-.08,2.78-.24,4.12-.4.1-.71.07-.95-.09l-.53-.03c.11-.07.15-.14,0-.19-.12-.07-.21-.14-.22-.21-.02-.52-.03-3.75.08-3.91.09-.14,1.11-.23,1.27-.03Z"/>
        <path class="cls-126" d="M39.33,17.28c.25.14.46.35.56.62-.2-.08-.31.2-.32.44l-.05,3.01c0,.23-.46.17-.57.15-.26.08-.54.09-.81.03v-.21c.23.01.47.04.8-.03v-3.56c0-.29.19-.45.39-.45Z"/>
        <path class="cls-116" d="M39.96,21.89c.06.66.06,1.32,0,1.98-.17.02-.55.1-.76-.03-.13-.7-.02-1.4-.05-2.05.29-.17.56.08.81.1Z"/>
        <path class="cls-311" d="M38.74,16.73c.17.06.17.14,0,.22-.25.02-.91-.11-.95.15-.2,1.42.18,2.76-.19,4-.3-.02-.6-.11-.89-.11.1,0,.44-.02.44-.25v-4c.48-.06.96-.16,1.44-.28l.15.27Z"/>
        <path class="cls-6" d="M14.22,7.75c1.03.09,1.43,1.86,1.56,2.8.17,1.15.2,2.81-.76,3.56-1.23.67-6.71,3.21-7.98,2.79l-.04-.13c-.33-.21-.61-.51-.77-.87-.44-.51-1.2-1.44-.64-2.07,0-.67.93-1.36,1.52-1.73.96.93,2.38.89,1.98-.69-.77-.73-.04-1.35.73-1.47.16-.49,1.04-1.07,1.63-.97.93-.41,1.81-.94,2.78-1.23Z"/>
        <path class="cls-49" d="M15.02,14.11c.74-2.16.58-4.52-.8-6.36.23-.07.41-.28.65-.21,1.14.35,2.64,3.95,1.93,5.39-.38.58-1.24.87-1.78,1.17Z"/>
        <path class="cls-253" d="M13.6,5.94c.9.52.76,1.01-.41,1.46-.73.46-1.58.75-2.18,1.34.03.4-.28.43-.39.04-.24-.26-.2-.41,0-.62.1-.95.03-1.82-.21-2.6.02.32-.53.29-.6,0,.25-.58,3.09.07,3.79.38Z"/>
        <path class="cls-102" d="M15.39,15.94c-.6.99-1.7,1.5-2.77,1.83.01-.61.08-1.21.22-1.8.86-.27,1.68-.92,2.58-1.21.89-.33.34.72-.02,1.18Z"/>
        <path class="cls-198" d="M9.05,4.73l-.04.27-2.05.95c-.21.04-.13-.14,0-.23.78-.23,1.18-.78,1.64-1.38l2.57-3.29c.25.04.52-.1.72.05-.83,1.38-1.88,2.46-2.84,3.62Z"/>
        <path class="cls-108" d="M17.28,9.76c-.02-.07-.02-.2-.07-.24.65-.35.98-1.06,1.45-1.68l2.53-3.27c.2.09.24.39.06.62l-3.28,4.15c-.2.25-.43.42-.69.42Z"/>
        <path class="cls-96" d="M13.8,18.34l-2.32,3.06c-.36.48-.73,1.05-1.29,1.07-.05-.07-.08-.14-.06-.17.33-.48,2.46-3.52,2.65-3.65,0,0-.01.17-.01.16l.03-.3c.28-.25.66-.24,1.01-.17Z"/>
        <path class="cls-245" d="M9.83,22.47c-.18.15-.41.18-.64.2l2.78-3.96h.21c.18-.12.41-.12.47.09.06.22-2.43,3.34-2.83,3.67Z"/>
        <path class="cls-285" d="M12.78,18.51c.07.01.19.02.29.15l-2.88,3.81h-.35c.59-1,3.17-3.92,2.36-3.74.15-.16.38-.21.59-.21Z"/>
        <path class="cls-184" d="M16.38,6.72c-.09.17-.17.17-.24-.01-.06-.03-.1-.12-.15-.16l2.7-3.58c.09.03.42.05.34.17-.86,1.3-1.8,2.45-2.66,3.58Z"/>
        <path class="cls-113" d="M12.62,17.77c-.82.25-1.79.62-2.61.22.13-.59.43-.61.78-.11.09-.52.25-.5.62-.14.01-.55.23-.53.38,0,.07-.4.25-.42.39-.03.19-.44.21-.93.05-1.48l.18-.12.43-.13c.38.51.26,1.36-.22,1.8Z"/>
        <path class="cls-18" d="M16.62,8.01l-.19.04c-.06-.23-.58-.28-.61-.62-.02-.24.21-.48.33-.72.07.03.16,0,.24.01-.03.21-.29.57-.07.93l3.24-3.89c.13.05.23.1.22.11-.19.7-2.33,3.36-2.92,4.1-.04.04-.12.05-.23.04Z"/>
        <path class="cls-332" d="M13.19,7.4c.21-.19.53-.33.6-.6.08-.32-.03-.62-.19-.86.39.17.82.33,1.26.76-.46.47-1.21.41-1.67.71Z"/>
        <path class="cls-230" d="M15.39,15.94c.05-.39.4-.9.02-1.18.34-.17.57-.65,1.12-.67-.21.68-.53,1.43-1.14,1.85Z"/>
        <path class="cls-50" d="M11.01,8.75c.12.12.28.19.44.23-.56.24-.97.91-1.63.97-.37.12-.44-.06-.18-.36-.29-.25-.21-.38.16-.24-.01-.6.26-.81.82-.55l.39-.04Z"/>
        <path class="cls-159" d="M9.59,17.14c1.24-.28,1.22.67,0,.79-.33-.08-.71-.09-.98-.46.27-.3.68-.2.97-.33Z"/>
        <path class="cls-315" d="M11.17,16.57h.18c.38.26.36.85.05,1.16-.2.09-.4.14-.62.14-.32,0-.43-.18-.3-.53l-.29-.42c.25-.28.66-.24.98-.35Z"/>
        <path class="cls-8" d="M10.19,16.92c.18,0,.5-.06.57.14.11.27.03.57.02.82-.26,0-.52.09-.78.11-.13,0-.28-.03-.4-.06.03-.24.46-.23.53-.39.15-.4-.34-.38-.54-.4.17-.08.4-.22.6-.21Z"/>
        <path class="cls-246" d="M12,16.18c.46.12.36,1.13.17,1.53-.13-.01-.26.02-.39.03l-.18-.11c.08-.41,0-.76-.25-1.05h-.18c.27-.1.48-.44.83-.41Z"/>
        <path class="cls-82" d="M8.4,6.58c.04.59-.67,1.44-1.16.78-.42.35-.47.26-.28-.24-.23-.04-.2-.15.07-.33.12-.06.25-.2.38-.22.25-.19.54-.39.81-.22.29-.14.38-.03.19.22Z"/>
        <path class="cls-78" d="M9.81,5.56h.6c1.03.41-.32,1.36-.6.4-.06.53-.25.51-.4,0,.04-.11-.02-.3.12-.37.09-.04.19-.03.28-.03Z"/>
        <path class="cls-75" d="M6.96,7.13c-.02.35-.39.81-.74.63-.19,0-.18-.13.03-.39.11-.07.11-.28.19-.38.21-.02.4-.11.58-.2l-.07.33Z"/>
        <path class="cls-240" d="M9.41,5.96c.4.54-.34,1.14-.79.61-.07.18-.14.18-.21,0-.13.05-.16-.13-.19-.22,0-.18.2-.31.6-.4h.6Z"/>
        <path class="cls-328" d="M8.81,5.96c-.13.23-.39.28-.6.4-.26.14-.52.2-.81.22.22-.53.89-.61,1.41-.61Z"/>
        <path class="cls-248" d="M12.4,16.1v1.42c0,.17-.13.19-.23.18.02-.52.15-1.09-.17-1.53.1.01.3-.05.4-.07Z"/>
        <path class="cls-247" d="M15.59,5.98c-.21-.05,2.32-3.43,2.43-3.21-.67,1.14-1.51,2.25-2.43,3.21Z"/>
        <path class="cls-228" d="M16.62,8.01c.15-.66,3.08-3.79,2.93-4.24-.02-.06,0-.14,0-.2.16.01.32.06.47.23.18.2-3.12,4.57-3.2,4.48-.06-.07-.12-.16-.19-.27Z"/>
        <path class="cls-333" d="M17.82,11.98c.06,0,.12-.02.17-.01.37.08.52-.34.8-.48-.18.56-.63.94-.93,1.48-.08-.43-.03-.7-.05-.99Z"/>
        <path class="cls-284" d="M39.51,15.53c.08.04.28.05.3.15-.06-.31.1,1.74-.46,1.45-.19-.04-.42-.2-.61-.18v-.22c.08-.37.11-.63-.01-.99-.17-.07-.17-.13,0-.2.25.01.52.04.77-.02Z"/>
        <path class="cls-160" d="M31.94,17.94l.22-1.09.17.03c.1.43-.16.73-.39,1.06Z"/>
        <path class="cls-85" d="M42.53,16.34l.21.29-.02,5.16-.19.13c-.13-.01-.27,0-.4,0v-6.58c.24.24.4.65.4,1Z"/>
        <path class="cls-131" d="M35.11,15.14c.48-.14.53-.09.43.39.38-.05.39.1.01.23.67.1.46,1.02-.12,1.13l-.07.2-.43.05c-.06-.75.13-1.53-.2-2.21.13.05.26.12.38.2Z"/>
        <path class="cls-297" d="M38.55,11.35c.05.08.15.12.19.2-.14.03-.33.03-.45.09-.35.19.09,3.09-.3,3.86-.27.27-.77.14-1.12-.04.15-1.28.23-2.55.23-3.83l.26-.22c.39-.04.78-.09,1.18-.07Z"/>
        <path class="cls-2" d="M37.37,11.42c.01,1.28.05,2.57-.28,3.98.19.26.69.1.9.11l.75.04v.2s-.16.4-.16.4c-.18-.23-.53-.36-1.06-.39-.13.57-.66.09-.94-.25-.13-.08-.27-.18-.28-.32-.03-.51.02-3.5.19-3.66.07-.07.17-.1.28-.12.2,0,.41.03.61,0Z"/>
        <path class="cls-58" d="M42.95,16.54c.02.05,0,.13,0,.18l-.02,5.02c0,.24-.29.2-.4.19v-5.59l.42.2Z"/>
        <path class="cls-266" d="M36.76,11.41c-.13,1.26.17,3.05-.18,4.1.08.29-.3.24-.42,0-.39,0-.55-.1-.62-.49-.08-.42-.02-3.13.18-3.36.05-.06.16-.09.27-.1v-.17c.25.04.52.02.77.01Z"/>
        <path class="cls-323" d="M35.99,11.57c0,.3-.28,4.19.17,3.95-.12.22-.46.2-.62.02-.2-.05-.34-.21-.43-.39.41-1.48-.62-4.02.88-3.58Z"/>
        <path class="cls-140" d="M43.93,17.56l.45.18c.94.07.69,1.68.14,2.19-.24.12-.26.46-.43.63-.23.24-.5.47-.71.73-.1-1.22-.13-2.54.15-3.72h.39Z"/>
        <path class="cls-23" d="M44.75,17.67l.34.04.22.03c.16.15.46.2.57.39.16.26-.02.57-.15.79-.04.06-.02.16-.05.23-.33.08-.62.27-.79.58l-.37.19c.01-.73.19-1.52-.14-2.19l.38-.07Z"/>
        <path class="cls-45" d="M6.39,12.14c.25.48-.72,1.4-1.13,1.46-.1.14-.25.14-.32.22-.15.18-.48.2-.5.02l-.07-.69c-.19-1.36.05-2.5.71-3.4.03-.39.33-.98.75-.96.04-.41.4-1.02.8-.83l.4.5c.2,1.41-.01,2.64-.63,3.69Z"/>
        <path class="cls-84" d="M9.81,9.95c-.15.34-.52.44-.78.82.72.56.75,1.51.13,2.06s-1.53.44-2.06-.43c-.43.55-1.07.93-1.52,1.44-.08.1-.17.08-.25.02s-.1-.16-.08-.25c.32-.46.67-1.12,1.13-1.46.31-1,.78-1.45,1.42-1.37.43-.52.89-.97,1.38-1.36l.44.17c.08.11.14.23.18.36Z"/>
        <path class="cls-250" d="M5.82,8.56v.23c-.09.47-.5.63-.74.96-.1.14-.17.14-.24-.03.24-.38.26-.94.58-1.32.35-.39.41-.37.4.16Z"/>
        <path class="cls-28" d="M5.08,9.74c-.73.99-.64,2.22-.71,3.4-.12-1.15-.14-2.46.47-3.43l.24.03Z"/>
        <path class="cls-79" d="M6.21,7.76c.09.19-.04.46-.4.8-.14-.04-.27-.09-.4-.16.28-.33.44-.78.83-1.03l-.03.39Z"/>
        <path class="cls-20" d="M7,16.77c-.46,0-.77-.42-.77-.87.3.25.64.48.77.87Z"/>
        <path class="cls-223" d="M4.84,8.01c-.05-.44.3-.62.62-.84-.03.38-.34.62-.62.84Z"/>
        <path class="cls-4" d="M38.73,15.74c.31-.02.44.2.43.5,0,.25-.1.51-.42.49-.53-.03-1.07.07-1.6,0-.07,0-.13,0-.2,0l-.42-.06c-.25-.5.37-.73.6-.21.07-.54.5-.44.65,0,.21-.16.21-.31,0-.48-.31.45-.62.18-.26-.24h1.21Z"/>
        <path class="cls-83" d="M36.38,15.85c.54.22.48.52-.18.89-.24.11-.49.2-.76.17.14-.36.14-.75.12-1.13.23-.19.7-.21.82.08Z"/>
        <path class="cls-154" d="M37.12,16.47c-.19,0-.52.01-.6.21-.1-.01-.24.01-.33.05.12-.28.17-.58.18-.89.5-.33,1.52.27.74.62Z"/>
        <path class="cls-114" d="M10.61,8.79c-.28.18-.51.42-.82.55-.14.13-.41.22-.47.1-.26-.49-.13-3.2.48-3.48.24,0,.45.04.81-.03-.07-.17-.19-.24-.21-.37.16,0,.61-.08.61.14v2.45c0,.29-.3.47-.4.63Z"/>
        <path class="cls-42" d="M11.78,17.74c-.11.02-.27-.05-.38,0,0-.39,0-.77-.05-1.16.11-.02.23-.07.44-.02.06.45,0,.81,0,1.18Z"/>
        <path class="cls-99" d="M9.81,5.96l-.19,2.61c-.02.3-.1.7.18.77l-.16.24c-.54.44-1.32.72-1.82,1.19-.08-.35,0-.77.24-1.26l-.03-2.23c.18-.27.37-.5.59-.7.31-.15.67-.28.79-.61h.4Z"/>
        <path class="cls-174" d="M7.82,10.78c-.48.45-.87.96-1.42,1.37.3-1.38.22-2.78.23-4.18-.12-.29.32-.76.61-.6.44-.17.88-.39,1.16-.78.06-.02.15.03.21,0-.66,1.57.49,3.18-.8,4.2Z"/>
        <path class="cls-235" d="M7.24,7.36c-.28.11-.41.42-.61.6-.24.21-.71.46-.8.83v-.23c-.03-.31.21-.55.39-.8.3-.14.49-.42.74-.63l.28.24Z"/>
        <path class="cls-43" d="M36.16,15.51h.42c.3.1.61.24.94.24-.07.12.16.23.26.24.53.03.5.34,0,.48h-.65c.04-.23,0-.47-.23-.54-.18-.05-.35-.06-.52-.09-.27-.05-.55-.09-.82-.08v-.23c.2,0,.4-.02.61-.02Z"/>
        <path class="cls-73" d="M37.77,16.47v-.48c.2.02.66-.17.75.12.1.32-.12.43-.29.42s-.31-.06-.46-.06Z"/>
      </g>
      <rect class="cls-272" x="3.36" y="42.13" width="129.58" height="12.51" rx="5" ry="5"/>
    </g>
  </g>
</svg>