<?xml version="1.0" encoding="UTF-8"?>
<svg id="Ebene_2" data-name="Ebene 2" xmlns="http://www.w3.org/2000/svg" viewBox="0 0 281.08 210.44">
  <defs>
    <style>
      .cls-1 {
        fill: #f0ac00;
      }

      .cls-2 {
        fill: #6c4322;
      }

      .cls-3 {
        fill: #43240d;
      }

      .cls-4 {
        opacity: .46;
      }

      .cls-4, .cls-5 {
        fill: #fefefe;
      }

      .cls-5 {
        opacity: .4;
      }

      .cls-6 {
        fill: #fecd00;
      }

      .cls-7 {
        fill: #a3692a;
      }

      .cls-8 {
        fill: #fff;
      }

      .cls-9 {
        fill: #c78b00;
      }

      .cls-10 {
        fill: #ba6300;
      }

      .cls-11 {
        fill: #fee166;
      }

      .cls-12 {
        fill: #e8a55d;
      }
    </style>
  </defs>
  <g id="_Сhest" data-name="Сhest">
    <g id="Closed">
      <path class="cls-6" d="M277.41,183.04H4.37c-1.28,1.07-1.78,2.28-1.77,3.8.04,5.46,0,10.92.02,16.38,0,2.16.72,3.95,2.65,5h271c1.95-1.29,2.68-3.02,2.68-5.08,0-5.37-.03-10.51.01-15.88.01-1.61-.2-3.16-1.56-4.22Z"/>
      <path class="cls-2" d="M244.26,180.69c.03-10.57.64-20.99.32-31.48h-76.65c-8.09,6.32-15.85,12.39-23.24,18.16-2.04.58-3.16-.21-4.31-1.11-7.28-5.69-14.59-11.35-21.84-16.99H35.35v31.42h208.9Z"/>
      <path class="cls-2" d="M116.62,119.6H36.08c-.66,3.85-.83,25.02-.26,27.28,5.93.46,79.72.24,81.42-.18-.15-2.13-.4-4.22-.42-6.31-.06-6.25-.01-12.5-.03-18.75,0-.67-.11-1.34-.17-2.04Z"/>
      <path class="cls-2" d="M244.78,119.67h-75.08c-.08.81-.18,1.5-.2,2.18-.11,6.6-.19,13.2-.32,19.81-.03,1.72-.18,3.44-.28,5.25h75.42c.7-3.05.31-6.12.4-9.15.09-2.99.07-5.99.06-8.98,0-3.04.15-6.08-.01-9.1Z"/>
      <path class="cls-3" d="M227.41,101.4c0-1.8.01-3.45,0-5.11-.02-1.72-.05-3.44-.08-5.12-5.4-.51-171.56-.3-173.45.19,0,3.31,0,6.63,0,10.04h173.54Z"/>
      <path class="cls-9" d="M36.8,101.47c4.99-4.25,9.95-8.46,14.76-12.55h178.18c4.94,4.19,9.89,8.41,14.77,12.55h23.61c-7.13-6.1-13.93-11.92-20.87-17.86H34.03c-6.88,5.87-13.75,11.72-20.95,17.87h23.72Z"/>
      <path class="cls-6" d="M3.09,117.25c5.33.45,111.61.26,113.71-.22,0-2.16,0-4.35,0-6.54-.01-2.25-.04-4.49-.07-6.75H8.78c-5.8,4.36-7.03,5.69-5.69,13.52Z"/>
      <path class="cls-6" d="M278.39,110.59c-.08-.75-.41-1.6-.9-2.16-2.24-2.55-4.34-4.88-8.42-4.86-32.39.16-64.78.09-97.16.09h-2.13v13.6h108.39c.61-2.3.45-4.49.22-6.66Z"/>
      <path class="cls-6" d="M270.94,119.7c-4.11-.43-21.75-.28-23.83.26-.16,20.21-.32,40.48-.48,60.79h23.9c.6-5.89.93-58.68.41-61.05ZM259.72,173.62c-3.82-.04-6.96-3.06-6.89-6.82.08-4.19,3.51-7.05,7.09-6.95,3.73.11,6.77,3.14,6.81,7,.04,3.71-3.31,6.81-7.01,6.78ZM259.87,141.91c-3.93.04-7.19-3.09-7.04-6.94.17-4.3,3.64-6.86,6.94-6.84,3.68.02,6.99,3.24,6.99,6.85,0,3.67-3.21,6.89-6.89,6.93Z"/>
      <path class="cls-6" d="M9.84,180.67h22.83c.65-6.96.92-58.83.31-61.07H9.67c-.45,5.12-.27,59.16.17,61.07ZM21.79,128.14c3.62-.1,7.01,2.78,7.09,6.95.07,3.76-3.07,6.79-6.89,6.82-3.71.03-7.04-3.06-7-6.77.04-3.91,3.12-6.9,6.8-7ZM21.86,159.85c3.75-.05,7,3.02,7.02,7.02.02,3.77-3.14,6.75-6.96,6.75-3.71,0-7.04-3.14-6.93-6.84.11-4.13,3.39-6.88,6.87-6.93Z"/>
      <path class="cls-3" d="M229.77,91.89c0,3.51-.1,6.5.08,9.55h11.13c-3.8-3.24-7.3-6.22-11.21-9.55Z"/>
      <path class="cls-3" d="M40.35,101.44h11c0-2.89,0-5.51-.01-8.12,0-.23-.15-.45-.34-.97-3.53,3.01-6.93,5.92-10.65,9.1Z"/>
      <polygon class="cls-7" points="246.08 154.09 244.73 149.09 34.95 149.02 34.95 154.09 246.08 154.09"/>
      <polygon class="cls-3" points="245.32 181.09 245.13 172.09 33.87 172.09 34.63 181.09 245.32 181.09"/>
      <polygon class="cls-9" points="280.47 111.09 273.27 103.09 7.35 103.09 1.95 111.09 280.47 111.09"/>
      <path class="cls-11" d="M8.64,180.67l5.15,2.38-.24-65.22c-1.78.03-3.56.09-5.34.23l.43,62.61Z"/>
      <path class="cls-11" d="M272.1,117.52c-1.78.03-3.56.09-5.34.23l.43,62.61,5.15,2.38-.24-65.22Z"/>
      <path class="cls-4" d="M33.89,130.96l.73-3.72-7.39-7.87c-1.51-.06-3.02-.11-4.54-.14l11.19,11.73Z"/>
      <path class="cls-4" d="M8.39,119.11l-.35,6.64,26.6,27.07v-13.17l-18.47-20.8c-1.24-.11-2.48-.24-3.72-.36-1.34.22-2.68.45-4.05.64Z"/>
      <path class="cls-4" d="M246.27,149.64v5.24l25.76,23.67c-.16-1.71-.26-3.42-.29-5.13l-25.48-23.78Z"/>
      <path class="cls-4" d="M255.96,182.83c4.1-.22,8.2-.47,12.3-.67l-21.99-23.63v1.88c0,.21-.04.4-.09.58l.47,12.63,9.08,9.24c.08-.01.15-.03.23-.03Z"/>
      <path class="cls-9" d="M6.76,210.38s250.82-1.71,261.55-.49c14.03,1.59,11.18-10.8,11.18-10.8H2.71c-2.28,9,4.05,11.29,4.05,11.29Z"/>
      <polygon class="cls-3" points="245.13 122.09 244.85 118.09 33.95 118.09 33.95 122.09 245.13 122.09"/>
      <path class="cls-10" d="M264.88,134.9c.03-2.96-2.2-5.31-5.06-5.32-2.72,0-4.98,2.25-5.06,5.05-.09,2.94,2.11,5.38,4.92,5.47,2.83.09,5.17-2.25,5.19-5.19Z"/>
      <path class="cls-10" d="M264.88,166.52c-.01-2.84-2.14-5.11-4.89-5.22-2.81-.11-5.18,2.23-5.23,5.14-.04,2.93,2.22,5.35,5.02,5.37,2.82.02,5.11-2.35,5.09-5.3Z"/>
      <path class="cls-10" d="M16.83,134.8c-.02,2.95,2.26,5.32,5.09,5.3,2.8-.02,5.07-2.44,5.03-5.36-.04-2.81-2.24-5.09-4.96-5.15-2.85-.06-5.15,2.26-5.16,5.21Z"/>
      <path class="cls-10" d="M16.83,166.25c-.13,2.97,1.98,5.4,4.82,5.56,2.77.15,5.22-2.2,5.3-5.09.08-2.93-2.14-5.35-4.96-5.41-2.74-.05-5.03,2.14-5.16,4.95Z"/>
      <path class="cls-6" d="M118.9,118.37c0,7.22-.03,14.44.03,21.66.04,4.4,1.27,8.09,5.2,10.87,5.81,4.12,11.3,8.7,16.93,13.07.68.53,1.4,1.02,2.02,1.48.31-.1.51-.11.64-.21,6.75-5.23,13.51-10.45,20.21-15.75.79-.62,1.52-1.57,1.81-2.51.59-1.91,1.2-3.91,1.21-5.88.11-11.88.06-23.77.05-35.66,0-.58-.14-1.16-.21-1.67h-47.88c0,.98,0,1.84,0,2.7,0,3.96-.02,7.93-.02,11.89ZM132.47,142.57c1.63-3.88,3.25-7.76,4.86-11.65.23-.56.43-1.14.68-1.81-.53-.99-1.15-1.95-1.58-2.99-1.33-3.26-1.67-6.51.81-9.41,1.47-1.72,3.32-2.83,5.74-2.68,1.05.07,2.1.01,2.71.01,3.53,1.48,5.27,3.89,5.9,7.09.65,3.31-1.58,5.56-3.18,7.78,1.93,5.24,3.78,10.23,5.59,15.24.09.25-.2.64-.3.91-2.16.52-18.69.6-21.12.12-.82-.98-.46-1.78-.11-2.61Z"/>
      <path class="cls-9" d="M166.48,144.45l-23.43,16.86-23.78-17.81c-5.73,2.57,23.82,22.97,23.82,22.97,32.21-19.53,23.39-22.01,23.39-22.01Z"/>
      <path class="cls-5" d="M163.52,151.92l-41.76-31.97-2.81-.5c-.05,3.65-.79,7.13-1.35,10.67l35.35,27.54,1.95-.04c2.69-1.74,6.16-3.43,8.63-5.71Z"/>
      <path class="cls-5" d="M165.45,149.65c.96-1.54,1.35-3.35,1.54-5.22l-48.62-35.8c.24,2.18.41,4.37.5,6.56l46.54,34.5s.02-.03.04-.05Z"/>
      <path class="cls-3" d="M34.95,161.29v8.75s59.21-2.03,59.97-2.03-34.05-3.06-34.05-3.06l55.73-3.65H34.95Z"/>
      <path class="cls-3" d="M145.35,164.9c-1.26,1.11-3.12,1.3-4.66.48-.25-.13-.47-.3-.68-.48-5.76,0-9.57.02-9.37.05,35.46,5.55,59.28,0,59.28,0,0,0-27-.05-44.56-.05Z"/>
      <path class="cls-3" d="M201.56,161.3l43.57,1.9-.28-7.35c-.19,0-43.29,5.45-43.29,5.45Z"/>
      <path class="cls-3" d="M211.44,167.42l-79.36-2.25c21.82,6.51,81.55,2.65,79.36,2.25Z"/>
      <polygon class="cls-3" points="117.46 135.09 117.35 128.17 65.84 132.06 109.89 133.33 102.52 135.09 117.46 135.09"/>
      <polygon class="cls-3" points="73.39 138.09 34.11 138.09 33.87 141.62 73.39 138.09"/>
      <polygon class="cls-3" points="167.62 138.09 169.19 141.37 204.86 138.09 167.62 138.09"/>
      <polygon class="cls-3" points="198.52 126.98 244.79 130.27 245.13 122.42 198.52 126.98"/>
      <path class="cls-3" d="M204.86,140.09s19.51,6,36.48,0h-36.48Z"/>
      <ellipse class="cls-12" cx="232.35" cy="153.77" rx="4.93" ry="2.09"/>
      <path class="cls-12" d="M221.83,151.65c0-.93-1.87-1.68-4.18-1.68s-4.18.75-4.18,1.68,1.87,1.68,4.18,1.68,4.18-.75,4.18-1.68Z"/>
      <polygon class="cls-2" points="227.95 93.09 227.95 88.98 51.71 88.69 53.63 93.09 227.95 93.09"/>
      <polygon class="cls-6" points="16.83 101.47 37.67 83.6 31.68 82.47 11.58 101.4 16.83 101.47"/>
      <polygon class="cls-6" points="246.33 82.47 241.08 82.54 261.18 101.47 271.46 101.35 246.33 82.47"/>
      <polygon class="cls-11" points="167.95 103.09 117.46 103.09 118.98 108.09 167.95 108.09 167.95 103.09"/>
      <path class="cls-11" d="M1.95,189.55l.54,1.38s.1-5.2,6.58-4.9c2.14.1,4.28.23,6.42.23l258.14.13s4.69-.63,5.32,4.54c0,0,4.05-9.36-6.61-8.47H6.51s-7.09-.76-4.56,7.09Z"/>
      <ellipse class="cls-8" cx="40.62" cy="185" rx="6.93" ry="2.12"/>
      <path class="cls-8" d="M53.37,186.94c0,.74,2.5,1.34,5.57,1.34s5.57-.6,5.57-1.34-2.5-1.34-5.57-1.34-5.57.6-5.57,1.34Z"/>
      <path class="cls-8" d="M242.04,188.8c0-1.17-2.14-2.12-4.77-2.12s-4.77.95-4.77,2.12,2.14,2.12,4.77,2.12,4.77-.95,4.77-2.12Z"/>
      <path d="M132.47,142.57c-.35.83-.71,1.63.11,2.61,2.43.49,18.96.4,21.12-.12.1-.27.39-.66.3-.91-1.81-5.01-3.66-10-5.59-15.24,1.6-2.21,3.83-4.47,3.18-7.78-.47-2.42-1.58-4.39-3.62-5.85-1.16-.82-2.56-1.21-3.98-1.22-.33,0-.67-.01-1-.03-2.42-.16-4.27.96-5.74,2.68-2.48,2.9-2.15,6.15-.81,9.41.43,1.04,1.05,2,1.58,2.99-.25.67-.45,1.25-.68,1.81-1.61,3.89-3.23,7.77-4.86,11.65Z"/>
      <path d="M266.76,134.98c0-3.61-3.31-6.83-6.99-6.85-3.3-.02-6.77,2.54-6.94,6.84-.15,3.85,3.11,6.97,7.04,6.94,3.68-.03,6.89-3.26,6.89-6.93ZM254.76,134.63c.08-2.8,2.35-5.05,5.06-5.05,2.85,0,5.08,2.36,5.06,5.32-.03,2.94-2.37,5.28-5.19,5.19-2.81-.09-5.01-2.53-4.92-5.47Z"/>
      <path d="M266.73,166.85c-.04-3.86-3.08-6.89-6.81-7-3.58-.1-7.01,2.76-7.09,6.95-.07,3.76,3.07,6.79,6.89,6.82,3.7.03,7.04-3.07,7.01-6.78ZM254.76,166.44c.04-2.91,2.42-5.25,5.23-5.14,2.75.11,4.88,2.38,4.89,5.22.01,2.95-2.27,5.32-5.09,5.3-2.8-.02-5.06-2.44-5.02-5.37Z"/>
      <path d="M14.99,135.13c-.04,3.71,3.29,6.8,7,6.77,3.82-.03,6.96-3.06,6.89-6.82-.08-4.16-3.47-7.04-7.09-6.95-3.68.1-6.76,3.09-6.8,7ZM26.95,134.73c.04,2.92-2.24,5.34-5.03,5.36-2.83.02-5.11-2.35-5.09-5.3.02-2.95,2.31-5.27,5.16-5.21,2.72.05,4.92,2.34,4.96,5.15Z"/>
      <path d="M14.99,166.78c-.1,3.7,3.22,6.84,6.93,6.84,3.83,0,6.98-2.98,6.96-6.75-.02-4-3.27-7.07-7.02-7.02-3.48.05-6.76,2.8-6.87,6.93ZM26.95,166.71c-.08,2.89-2.53,5.24-5.3,5.09-2.84-.15-4.96-2.59-4.82-5.56.13-2.81,2.41-5,5.16-4.95,2.82.05,5.04,2.48,4.96,5.41Z"/>
      <path d="M276.28,208.23h.09c.08.72.12,1.46.14,2.19,2.84-.24,4.11-1.62,4.52-4.76.08-.61.04-1.23.04-1.85,0-4.05.01-8.1,0-12.16,0-1.76-.01-3.52-.15-5.28-.21-2.69-.95-5.03-3.87-5.61.04.76.09,1.51.11,2.27h.04c1.36,1.06,1.8,2.38,1.78,3.99-.05,5.37-.02,10.74-.02,16.12,0,2.06-.74,3.79-2.68,5.08Z"/>
      <path d="M273.48,126.94c.02-2.43.3-4.86.45-7.2,2.31-.75,4.78.66,6.65-1.04.28-8.94,1.62-10.49-6.99-17-.73-.12-1.5-.24-2.13-.34-7.82-6.69-15.52-13.27-23.2-19.83H32.66c-1.18,1.12-2.1,2.07-3.09,2.92-5.69,4.87-11.39,9.72-17.09,14.57-1.59,1.36-3.02,2.99-5.33,3.17-.31.02-.6.34-.88.55-4.05,2.91-6.69,6.55-5.74,12.06.1.58.08,1.16.04,1.75-.11,1.43.35,2.37,2.01,3.06h4.69v61.25c-.75,0-1.35.03-1.95,0-2.31-.13-4.18,1.62-4.32,3.74-.06.87-.28,1.74-.3,2.62-.08,5.72-.19,11.44-.17,17.17.02,4.69,1.53,6.09,6.23,6.09,87.21,0,174.41,0,261.62,0,1.45,0,6.69,0,8.14-.02-.03-.75.03-1.46-.06-2.19H5.28c-2.3-1.25-2.87-3.55-2.58-6.26.49-4.61.72-9.27.02-13.85-.33-2.15.04-3.73,1.66-5.07h272.82c-.02-.87.04-1.39-.15-2.27,0-.01-3.88,0-3.88-.02-.05-.8-.06-1.85-.05-2.55.11-17.09.22-34.18.37-51.26ZM34.03,83.6h213.2c6.94,5.94,13.74,11.76,20.87,17.86h-23.61c-4.87-4.14-9.83-8.35-14.77-12.55H51.56c-4.81,4.09-9.76,8.31-14.76,12.55H13.08c7.21-6.15,14.07-12,20.95-17.87ZM240.98,101.45h-11.13c-.19-3.06-.08-6.05-.08-9.55,3.91,3.34,7.41,6.32,11.21,9.55ZM118.92,103.79h47.88c.07.52.21,1.1.21,1.67.01,11.89.06,23.77-.05,35.66-.02,1.97-.62,3.97-1.21,5.88-.29.94-1.02,1.89-1.81,2.51-6.7,5.29-13.46,10.51-20.21,15.75-.13.1-.32.11-.64.21-.63-.45-1.34-.95-2.02-1.48-5.63-4.38-11.12-8.96-16.93-13.07-3.93-2.78-5.16-6.47-5.2-10.87-.06-7.22-.03-14.44-.03-21.66,0-3.96.01-7.93.02-11.89,0-.86,0-1.72,0-2.7ZM53.87,101.4v-10.04c1.89-.5,168.05-.71,173.45-.19.03,1.68.07,3.4.08,5.12.01,1.66,0,3.31,0,5.11H53.87ZM116.82,140.39c.02,2.09.27,4.18.42,6.31-1.7.42-75.5.63-81.42.18-.56-2.26-.39-23.42.26-27.28h80.54c.06.7.17,1.37.17,2.04.01,6.25-.03,12.5.03,18.75ZM51.35,101.44h-11c3.72-3.18,7.13-6.08,10.65-9.1.19.52.34.75.34.97.02,2.62.01,5.24.01,8.12ZM3.09,117.25c-1.34-7.83-.11-9.16,5.69-13.52h107.95c.02,2.26.05,4.5.07,6.75.01,2.19,0,4.38,0,6.54-2.1.48-108.38.67-113.71.22ZM32.67,180.67H9.84c-.44-1.91-.62-55.95-.17-61.07h23.31c.61,2.24.34,54.12-.31,61.07ZM244.26,180.69H35.35v-31.42h83.18c7.26,5.64,14.56,11.29,21.84,16.99,1.15.9,2.27,1.69,4.31,1.11,7.39-5.77,15.15-11.84,23.24-18.16h76.65c.33,10.49-.29,20.91-.32,31.48ZM244.73,137.75c-.09,3.03.3,6.11-.4,9.15h-75.42c.1-1.82.24-3.53.28-5.25.12-6.6.21-13.2.32-19.81.01-.68.12-1.37.2-2.18h75.08c.16,3.02,0,6.07.01,9.1,0,2.99.03,5.99-.06,8.98ZM270.52,180.76h-23.9c.16-20.31.32-40.58.48-60.79,2.08-.54,19.72-.69,23.83-.26.52,2.38.18,55.17-.41,61.05ZM169.77,117.26v-13.6h2.13c32.39,0,64.78.07,97.16-.09,4.08-.02,6.18,2.31,8.42,4.86.49.56.82,1.41.9,2.16.23,2.17.39,4.36-.22,6.66h-108.39Z"/>
      <path class="cls-1" d="M16.07,166.06c0,2.27,1.75,4.08,3.93,4.06,2.15-.02,3.9-1.89,3.86-4.14-.04-2.16-1.74-3.91-3.83-3.94-2.2-.03-3.95,1.75-3.96,4.02Z"/>
      <path class="cls-1" d="M16.07,133.81c0,2.27,1.75,4.08,3.93,4.06,2.15-.02,3.9-1.89,3.86-4.14-.04-2.16-1.74-3.91-3.83-3.94-2.2-.03-3.95,1.75-3.96,4.02Z"/>
      <path class="cls-1" d="M265.52,133.93c.04-2.24-1.71-4.11-3.86-4.14-2.18-.02-3.94,1.79-3.93,4.06,0,2.27,1.76,4.05,3.96,4.02,2.09-.03,3.8-1.79,3.83-3.94Z"/>
      <path class="cls-1" d="M265.52,166.17c.04-2.24-1.71-4.11-3.86-4.14-2.18-.02-3.94,1.79-3.93,4.06,0,2.27,1.76,4.05,3.96,4.02,2.09-.03,3.8-1.79,3.83-3.94Z"/>
      <path class="cls-2" d="M36.18,53.82h208.89c.08-.46.18-.8.18-1.14.06-8.98.11-17.97.16-26.95,0-1.24-.24-2.43-1.08-3.36-6.88-.48-205.31-.25-207.39.24-.89,3.14-1.41,24.12-.75,31.21Z"/>
      <path class="cls-2" d="M110.49,83.22c.22-4.48.38-8.96.68-13.43.19-2.88.32-5.83,2.88-8.43,1.1-.14,2.55-.48,4.01-.48,17.09-.04,34.17-.02,51.26-.02h1.75c2.53.95,3.69,2.61,4.12,4.83.17.86.37,1.72.41,2.58.24,5,.43,10,.65,15.18h68.68v-27.23H36.04c-.15,9.13-.29,18.14-.44,27.12,3.67.47,73.05.34,74.89-.1Z"/>
      <path class="cls-7" d="M45.76,9.61c-.82.2-1.81.44-2.33,1.02-2.41,2.7-4.06,5.86-5.51,9.4h205.43c-.64-2.37-1.94-4.25-3.02-6.24-1.63-2.99-3.98-4.28-7.51-4.28-61.65.07-123.31.05-184.96.05-.7,0-1.44-.12-2.11.04Z"/>
      <path class="cls-6" d="M271.49,62.68c.11-12.94.25-25.88.28-38.81,0-1.64-.27-3.38-.86-4.89-2.39-6.15-6.24-11.19-11.96-14.65-2.37-1.43-4.89-2.21-7.74-2.19-10.03.06-20.06-.07-30.1-.05-4.26.01-7.67,1.98-11.11,5.37,1.47,0,2.31,0,3.14,0,6.95,0,13.91.03,20.86.02,2.97,0,5.26,1.14,6.76,3.77.87,1.53,1.93,2.96,2.68,4.54,1.17,2.44,2.84,4.68,3.26,7.44.33,2.17.73,4.36.73,6.54-.03,14.79-.16,29.57-.26,44.36-.02,3.06,0,6.12,0,9.31h24.15c0-1.15,0-2.11,0-3.06.05-5.9.12-11.79.17-17.69ZM245.67,10.35c-1.03-3.52,1.08-6.39,4.76-6.48,3.67-.09,8.02,3.02,9.11,6.51,1.15,3.71-1.14,6.78-5.02,6.72-3.91-.06-7.75-2.99-8.85-6.75ZM259.33,76.89c-3.82-.02-6.97-3.04-6.92-6.8.06-4.09,3.38-7.05,7.07-6.97,3.6.08,6.76,2.96,6.83,6.97.07,3.7-3.28,6.82-6.98,6.8ZM259.49,44.64c-3.94.06-7.2-3.03-7.08-6.89.13-4.17,3.47-6.89,6.9-6.87,3.69-.03,7,3.18,7.03,6.81.03,3.66-3.17,6.91-6.85,6.96Z"/>
      <path class="cls-6" d="M29.01,2.15c-1.2,0-2.46.32-3.59.74-4.33,1.64-7.7,4.57-10.49,8.18-2.17,2.8-4.05,5.81-4.62,9.37-.39,2.42-.53,4.91-.56,7.37-.22,17.88-.4,35.75-.57,53.63,0,.67.11,1.34.17,1.98h23.98c.04-.75.09-1.35.09-1.95.15-13.21.3-26.42.45-39.63.04-3.79-.01-7.58.14-11.36.1-2.45.19-4.97.82-7.32,1.37-5.05,3.94-9.57,7.16-13.68,1.06-1.36,2.6-2.04,4.41-2.02,3.08.03,6.17,0,9.25,0,5.02,0,10.03,0,15.05,0-2.66-3.28-5.87-5.25-9.98-5.27-10.57-.05-21.14-.07-31.7-.03ZM21.55,30.87c3.38,0,6.75,2.63,6.91,6.87.14,3.85-3.13,6.95-7.07,6.9-3.69-.05-6.88-3.28-6.85-6.95.03-3.63,3.32-6.82,7.02-6.81ZM21.38,76.88c-3.69-.05-6.88-3.29-6.84-6.96.03-3.63,3.33-6.82,7.02-6.81,3.39,0,6.75,2.65,6.9,6.88.13,3.85-3.14,6.94-7.08,6.89ZM35.15,10.49c-1.17,3.76-5.05,6.62-8.95,6.61-3.84-.01-6.06-3.18-4.81-6.87,1.15-3.41,5.35-6.39,8.95-6.35,3.83.04,5.95,2.97,4.81,6.62Z"/>
      <path class="cls-6" d="M4.84,96.53c1.52,1.33,3.06,2.63,4.5,3.87,10.16.49,98.91.26,101.2-.26v-14.31c-7.6-.48-105.79-.26-108.19.29-.04,1.49-.07,3.05-.13,4.62-.08,2.37.87,4.27,2.62,5.81Z"/>
      <path class="cls-6" d="M277.99,92.32c.19-2.07.04-4.18.04-6.49-.89-.07-1.32-.14-1.76-.14-33.03,0-66.06,0-99.09.01-.17,0-.35.05-.52.09-.08.02-.14.09-.2.15-.06.06-.12.13-.1.11v14.34h94.47c1.67-1.39,3.16-2.62,4.65-3.86,1.33-1.11,2.35-2.5,2.51-4.21Z"/>
      <polygon class="cls-2" points="244.93 20.09 242.09 15.09 38.43 15.09 36.15 20.09 244.93 20.09"/>
      <polygon class="cls-7" points="246.08 27.09 245.41 21.86 35.88 21.95 36.15 27.09 246.08 27.09"/>
      <polygon class="cls-3" points="119.49 42.83 35.89 42.27 35.89 46.4 119.49 42.83"/>
      <polygon class="cls-7" points="246.08 61.09 247.3 55.09 34.95 55.09 34.95 61.09 246.08 61.09"/>
      <polygon class="cls-3" points="245.95 54.09 245.95 46.09 138.74 46.09 186.87 51.26 171.17 54.09 245.95 54.09"/>
      <path class="cls-3" d="M102.05,32.32c56.27,6.67,106.35,0,106.35,0,0,0-106.58-.03-106.35,0Z"/>
      <polygon class="cls-3" points="246.08 84.09 245.89 75.09 34.63 75.09 35.39 84.09 246.08 84.09"/>
      <polygon class="cls-3" points="111.48 66.59 56.37 69.82 111.02 72.19 111.48 66.59"/>
      <polygon class="cls-3" points="206.38 67.09 245.13 67.09 245.41 63.27 206.38 67.09"/>
      <path class="cls-3" d="M46.79,65.09s-10.83-3.58-11.83-4.6v4.6h11.83Z"/>
      <polygon class="cls-3" points="89.85 20.09 37.91 17.31 36.15 20.09 89.85 20.09"/>
      <polygon class="cls-3" points="186.55 20.03 244.93 20.59 244.12 17.1 186.55 20.03"/>
      <polygon class="cls-9" points="270.78 101.49 277.81 95.09 3.47 95.09 8.98 102.01 270.78 101.49"/>
      <path class="cls-6" d="M172.87,64.72c-.93-1.95-2.4-1.76-3.82-1.76-17.25,0-34.5,0-51.75,0h-2.03c-1.87,1.06-1.98,2.55-1.98,4.08,0,5.46,0,10.91,0,16.37,0,5.54,0,11.08,0,16.92h59.58v-35.62Z"/>
      <path class="cls-9" d="M42,9.48l30.63-1.06c-3.8-6.84-11.92-6.25-11.92-6.25-12.42-1.18-18.71,7.31-18.71,7.31Z"/>
      <path class="cls-9" d="M236.77,8.43c.38-1.91-6.05-5.46-11.92-6.25-.97-.13-5.22-.63-10.21,1.3-4.46,1.73-7.23,4.52-8.51,6,23.54-1.88,30.28.71,30.63-1.06Z"/>
      <rect class="cls-9" x="110.95" y="93.09" width="64" height="9"/>
      <path class="cls-11" d="M174.46,75.21s5.57-18.56-13.68-12.68l-45.5.31s-4.88-2.41-1.98,20.64c0,0-1.66-15.39,8.47-15.39h44.33s7.98-.3,6.77,15.14l1.58-8.03Z"/>
      <path class="cls-11" d="M8.03,26.66v57.76l5.32-1.52V21.35S21.29-.96,35.39,1.26c-4.79-1.31-9.93-.36-13.91,2.61-5.63,4.2-12.56,11.57-13.45,22.79Z"/>
      <path class="cls-11" d="M272.49,84.42V26.66c-.89-11.22-7.82-18.59-13.45-22.79-3.98-2.97-9.12-3.91-13.91-2.61,14.1-2.23,22.04,20.08,22.04,20.08v61.56l5.32,1.52Z"/>
      <polygon class="cls-5" points="124.05 62.96 115.44 61.43 111.48 66.59 155.23 100.67 172.87 100.33 124.05 62.96"/>
      <polygon class="cls-5" points="134.81 61.43 130.63 62.96 174.95 97.72 174.95 92.78 134.81 61.43"/>
      <polygon class="cls-4" points="33.89 39 34.63 35.28 12.34 11.56 11.34 15.36 33.89 39"/>
      <polygon class="cls-4" points="247.08 42.39 245.89 46.76 272.39 73.96 273.25 69.68 247.08 42.39"/>
      <polygon class="cls-4" points="34.95 60.86 34.95 47.69 9 18.65 8.27 33.8 34.95 60.86"/>
      <path class="cls-4" d="M273.25,82.65l-25.79-29.04-.81,15.14,14.9,15.16c3.9,0,7.8-.04,11.7-.12v-1.14Z"/>
      <path class="cls-8" d="M126.33,66.95c0-.85-1.81-1.53-4.05-1.53s-4.05.69-4.05,1.53,1.81,1.53,4.05,1.53,4.05-.69,4.05-1.53Z"/>
      <path class="cls-8" d="M130.63,70.2c0-.82-.96-1.48-2.15-1.48s-2.15.66-2.15,1.48.96,1.48,2.15,1.48,2.15-.66,2.15-1.48Z"/>
      <ellipse class="cls-12" cx="56.16" cy="25.52" rx="5.32" ry="1.9"/>
      <path class="cls-12" d="M79.47,12.54c0-1.23-2.61-2.23-5.83-2.23s-5.83,1-5.83,2.23,2.61,2.23,5.83,2.23,5.83-1,5.83-2.23Z"/>
      <path class="cls-12" d="M87.06,13.95c0-.78-1.36-1.41-3.04-1.41s-3.04.63-3.04,1.41,1.36,1.41,3.04,1.41,3.04-.63,3.04-1.41Z"/>
      <path d="M266.31,70.09c-.08-4.02-3.23-6.89-6.83-6.97-3.69-.08-7.01,2.88-7.07,6.97-.05,3.76,3.1,6.77,6.92,6.8,3.7.02,7.05-3.1,6.98-6.8ZM254.34,69.78c0-2.83,2.15-5.12,4.89-5.22,2.84-.1,5.19,2.2,5.23,5.14.05,2.96-2.18,5.34-5.02,5.37-2.8.03-5.11-2.36-5.11-5.29Z"/>
      <path d="M266.34,37.68c-.03-3.62-3.34-6.83-7.03-6.81-3.43-.01-6.77,2.7-6.9,6.87-.12,3.86,3.14,6.95,7.08,6.89,3.68-.05,6.88-3.3,6.85-6.96ZM254.34,37.38c.08-2.8,2.33-5.06,5.04-5.06,2.85,0,5.1,2.33,5.08,5.3-.02,2.94-2.35,5.28-5.17,5.21-2.81-.07-5.03-2.51-4.95-5.44Z"/>
      <path d="M254.52,17.1c3.88.06,6.17-3.01,5.02-6.72-1.08-3.49-5.43-6.6-9.11-6.51-3.68.09-5.79,2.96-4.76,6.48,1.1,3.76,4.94,6.69,8.85,6.75ZM251.14,5.31c3.11,0,6.38,2.86,6.8,5.93.31,2.25-1.31,4.04-3.72,4.12-3.07.09-6.46-2.79-6.86-5.83-.33-2.55,1.16-4.22,3.77-4.21Z"/>
      <path d="M14.54,37.69c-.03,3.67,3.16,6.9,6.85,6.95,3.94.05,7.21-3.04,7.07-6.9-.15-4.24-3.53-6.87-6.91-6.87-3.69,0-6.99,3.18-7.02,6.81ZM26.54,37.49c.03,2.92-2.26,5.33-5.06,5.34-2.83,0-5.09-2.37-5.07-5.32.03-2.95,2.33-5.25,5.19-5.18,2.72.07,4.91,2.35,4.94,5.16Z"/>
      <path d="M14.54,69.92c-.03,3.66,3.16,6.91,6.84,6.96,3.94.06,7.21-3.04,7.08-6.89-.15-4.23-3.51-6.87-6.9-6.88-3.69,0-6.99,3.17-7.02,6.81ZM26.54,69.7c.05,2.92-2.22,5.35-5.02,5.38-2.83.03-5.12-2.33-5.11-5.28,0-2.95,2.29-5.27,5.15-5.22,2.72.04,4.94,2.32,4.98,5.13Z"/>
      <path d="M21.39,10.23c-1.25,3.69.97,6.86,4.81,6.87,3.9.01,7.77-2.85,8.95-6.61,1.14-3.65-.99-6.57-4.81-6.62-3.6-.04-7.8,2.94-8.95,6.35ZM33.33,10.34c-.76,2.63-3.77,4.97-6.47,5.02-2.87.05-4.56-2.16-3.7-4.92.89-2.88,2.97-4.54,5.83-5.08,3.21-.6,5.25,1.83,4.34,4.98Z"/>
      <path d="M273.76,67.11c.12-13.83.22-27.66.27-41.49,0-1.65-.05-3.4-.57-4.94-2.48-7.49-6.78-13.68-13.59-17.9C256.74.83,253.31-.03,249.58,0c-8.81.08-17.62.02-26.43.04-1.4,0-2.83.06-4.2.31-4.62.84-8.31,3.24-11.1,7.02H73.56c-.41-.5-.77-1.01-1.2-1.45C68.82,2.22,64.63-.03,59.34,0c-9.34.06-18.67.04-28.01,0-3.26-.01-6.29.76-9.09,2.36-6.46,3.69-10.84,9.21-13.4,16.1-.84,2.26-1.25,4.8-1.28,7.22-.26,18.58-.39,37.17-.56,55.75,0,.67-.13,1.34-.21,2.14H1.09c-.33.9-.82,1.73-.93,2.62-.18,1.48-.12,2.99-.16,4.48-.07,2.91.99,5.34,3.12,7.28,1.69,1.54,3.45,3,5.29,4.6h263.76c.85-.81,1.64-1.78,2.64-2.45,4.57-3.13,6.25-7.43,5.46-12.82-.05-.35-.05-.7-.05-1.06,0-1.14-.37-2.06-1.8-2.84h-4.93c0-1.27-.02-2.31,0-3.36.08-4.31.22-8.63.26-12.94ZM221.11,2.08c10.03-.02,20.06.11,30.1.05,2.85-.02,5.38.76,7.74,2.19,5.71,3.46,9.57,8.5,11.96,14.65.59,1.52.87,3.26.86,4.89-.04,12.94-.17,25.88-.28,38.81-.05,5.9-.11,11.79-.17,17.69,0,.96,0,1.91,0,3.06h-24.15c0-3.2-.02-6.25,0-9.31.09-14.79.23-29.57.26-44.36,0-2.18-.4-4.37-.73-6.54-.42-2.75-2.09-5-3.26-7.44-.76-1.58-1.82-3.01-2.68-4.54-1.5-2.64-3.79-3.78-6.76-3.77-6.95,0-13.91-.01-20.86-.02-.84,0-1.67,0-3.14,0,3.44-3.39,6.85-5.36,11.11-5.37ZM245.41,25.73c-.04,8.98-.1,17.97-.16,26.95,0,.34-.1.67-.18,1.14H36.18c-.66-7.09-.14-28.06.75-31.21,2.08-.49,200.52-.73,207.39-.24.85.93,1.09,2.11,1.08,3.36ZM232.83,9.51c3.52,0,5.88,1.29,7.51,4.28,1.08,1.99,2.38,3.86,3.02,6.24H37.92c1.44-3.54,3.09-6.7,5.51-9.4.52-.58,1.51-.82,2.33-1.02.66-.16,1.4-.04,2.11-.04,61.65,0,123.31.02,184.96-.05ZM9.75,27.81c.03-2.46.17-4.94.56-7.37.57-3.56,2.45-6.57,4.62-9.37,2.79-3.61,6.16-6.54,10.49-8.18,1.13-.43,2.39-.74,3.59-.74,10.57-.04,21.14-.02,31.7.03,4.11.02,7.32,2,9.98,5.27-5.02,0-10.03,0-15.05,0-3.08,0-6.17.03-9.25,0-1.8-.01-3.35.67-4.41,2.02-3.22,4.11-5.79,8.63-7.16,13.68-.63,2.34-.72,4.87-.82,7.32-.15,3.78-.1,7.57-.14,11.36-.15,13.21-.29,26.42-.45,39.63,0,.6-.06,1.2-.09,1.95H9.35c-.06-.63-.18-1.3-.17-1.98.18-17.88.35-35.75.57-53.63ZM110.53,100.13c-2.29.52-91.04.75-101.2.26-1.44-1.24-2.98-2.54-4.5-3.87-1.75-1.53-2.7-3.44-2.62-5.81.05-1.56.09-3.13.13-4.62,2.4-.55,100.6-.77,108.19-.29v14.31ZM172.87,100.33h-59.58c0-5.84,0-11.38,0-16.92,0-5.46,0-10.91,0-16.37,0-1.53.11-3.02,1.98-4.08h2.03c17.25,0,34.5,0,51.75,0,1.42,0,2.89-.19,3.82,1.76v35.62ZM175.6,68.26c-.04-.87-.24-1.73-.41-2.58-.44-2.22-1.6-3.88-4.12-4.83h-1.75c-17.09,0-34.17-.01-51.26.02-1.46,0-2.91.34-4.01.48-2.56,2.61-2.69,5.56-2.88,8.43-.3,4.47-.46,8.95-.68,13.43-1.84.44-71.22.58-74.89.1.15-8.98.29-17.99.44-27.12h208.89v27.23h-68.68c-.22-5.18-.41-10.18-.65-15.18ZM276.27,85.69c.43,0,.87.06,1.76.14,0,2.31.14,4.42-.04,6.49-.15,1.71-1.18,3.1-2.51,4.21-1.48,1.24-2.97,2.47-4.65,3.86h-94.47v-14.34s.04-.05.1-.11c.06-.06.13-.13.2-.15.17-.05.34-.09.52-.09,33.03,0,66.06-.01,99.09-.01Z"/>
      <path class="cls-10" d="M264.46,69.71c-.05-2.94-2.39-5.24-5.23-5.14-2.74.1-4.88,2.39-4.89,5.22,0,2.92,2.3,5.31,5.11,5.29,2.84-.03,5.07-2.41,5.02-5.37Z"/>
      <path class="cls-10" d="M264.46,37.62c.02-2.96-2.23-5.3-5.08-5.3-2.72,0-4.97,2.27-5.04,5.06-.08,2.93,2.14,5.37,4.95,5.44,2.83.07,5.16-2.27,5.17-5.21Z"/>
      <path class="cls-10" d="M254.23,15.36c2.4-.07,4.02-1.87,3.72-4.12-.42-3.07-3.7-5.92-6.8-5.93-2.62,0-4.11,1.66-3.77,4.21.4,3.04,3.79,5.93,6.86,5.83Z"/>
      <path class="cls-10" d="M16.41,37.51c-.03,2.95,2.23,5.32,5.07,5.32,2.8,0,5.09-2.42,5.06-5.34-.03-2.81-2.22-5.1-4.94-5.16-2.86-.07-5.16,2.23-5.19,5.18Z"/>
      <path class="cls-10" d="M16.41,69.79c0,2.95,2.28,5.31,5.11,5.28,2.8-.03,5.07-2.46,5.02-5.38-.05-2.8-2.26-5.08-4.98-5.13-2.86-.04-5.14,2.27-5.15,5.22Z"/>
      <path class="cls-10" d="M28.99,5.36c-2.86.54-4.94,2.2-5.83,5.08-.85,2.76.83,4.97,3.7,4.92,2.7-.05,5.71-2.39,6.47-5.02.91-3.15-1.13-5.58-4.34-4.98Z"/>
      <path class="cls-1" d="M15.98,68.59c0,2.27,1.75,4.08,3.93,4.06,2.15-.02,3.9-1.89,3.86-4.14-.04-2.16-1.74-3.91-3.83-3.94-2.2-.03-3.95,1.75-3.96,4.02Z"/>
      <path class="cls-1" d="M15.98,36.34c0,2.27,1.75,4.08,3.93,4.06,2.15-.02,3.9-1.89,3.86-4.14-.04-2.16-1.74-3.91-3.83-3.94-2.2-.03-3.95,1.75-3.96,4.02Z"/>
      <path class="cls-1" d="M265.36,68.83c0-2.27-1.76-4.05-3.96-4.02-2.09.03-3.8,1.79-3.83,3.94-.04,2.24,1.71,4.11,3.86,4.14,2.18.02,3.94-1.79,3.93-4.06Z"/>
      <path class="cls-1" d="M265.36,36.59c0-2.27-1.76-4.05-3.96-4.02-2.09.03-3.8,1.79-3.83,3.94-.04,2.24,1.71,4.11,3.86,4.14,2.18.02,3.94-1.79,3.93-4.06Z"/>
      <path class="cls-1" d="M25.09,6.37c-1.71,1.39-2.27,3.46-1.27,4.68,1,1.22,3.16,1.07,4.83-.34,1.65-1.39,2.16-3.5,1.14-4.68-.98-1.13-3.08-.98-4.7.34Z"/>
      <path class="cls-1" d="M256.63,11.29c1-1.22.44-3.29-1.27-4.68-1.62-1.32-3.72-1.47-4.7-.34-1.02,1.18-.51,3.29,1.14,4.68,1.67,1.4,3.83,1.55,4.83.34Z"/>
    </g>
  </g>
</svg>