<?xml version="1.0" encoding="UTF-8"?>
<svg id="Ebene_2" data-name="Ebene 2" xmlns="http://www.w3.org/2000/svg" xmlns:xlink="http://www.w3.org/1999/xlink" viewBox="0 0 280.61 253.18">
  <defs>
    <style>
      .cls-1 {
        fill: #f0ac00;
      }

      .cls-2 {
        fill: #6c4322;
      }

      .cls-3 {
        fill: #43240d;
      }

      .cls-4 {
        opacity: .27;
      }

      .cls-4, .cls-5, .cls-6, .cls-7, .cls-8, .cls-9, .cls-10, .cls-11, .cls-12, .cls-13, .cls-14 {
        fill: #fff;
      }

      .cls-5 {
        opacity: .16;
      }

      .cls-6 {
        opacity: .23;
      }

      .cls-7 {
        opacity: .18;
      }

      .cls-8 {
        opacity: .33;
      }

      .cls-9 {
        opacity: .28;
      }

      .cls-10 {
        opacity: .36;
      }

      .cls-11 {
        opacity: .52;
      }

      .cls-12 {
        opacity: .6;
      }

      .cls-13 {
        opacity: .78;
      }

      .cls-15 {
        opacity: .46;
      }

      .cls-15, .cls-16 {
        fill: #fefefe;
      }

      .cls-16 {
        opacity: .4;
      }

      .cls-17 {
        fill: #fecd00;
      }

      .cls-18 {
        fill: #a3692a;
      }

      .cls-19 {
        opacity: .67;
      }

      .cls-20 {
        fill: #c78b00;
      }

      .cls-21 {
        fill: none;
        stroke: #000;
        stroke-miterlimit: 10;
        stroke-width: 2px;
      }

      .cls-22 {
        fill: url(#_Безымянный_градиент_168-2);
      }

      .cls-22, .cls-23, .cls-24, .cls-25 {
        opacity: .61;
      }

      .cls-26 {
        fill: url(#_Безымянный_градиент_499-2);
      }

      .cls-26, .cls-27, .cls-28, .cls-29, .cls-30, .cls-31, .cls-32 {
        opacity: .37;
      }

      .cls-33 {
        fill: #ba6300;
      }

      .cls-34 {
        fill: #fee166;
      }

      .cls-35 {
        fill: url(#_Безымянный_градиент_24);
      }

      .cls-36 {
        fill: url(#_Безымянный_градиент_519);
        opacity: .38;
      }

      .cls-27 {
        fill: url(#_Безымянный_градиент_551);
      }

      .cls-28 {
        fill: url(#_Безымянный_градиент_557);
      }

      .cls-29 {
        fill: url(#_Безымянный_градиент_594);
      }

      .cls-30 {
        fill: url(#_Безымянный_градиент_582);
      }

      .cls-31 {
        fill: url(#_Безымянный_градиент_604);
      }

      .cls-32 {
        fill: url(#_Безымянный_градиент_499);
      }

      .cls-23 {
        fill: url(#_Безымянный_градиент_168);
      }

      .cls-24 {
        fill: url(#_Безымянный_градиент_175);
      }

      .cls-25 {
        fill: url(#_Безымянный_градиент_130);
      }

      .cls-37 {
        fill: url(#_Безымянный_градиент_497);
        opacity: .35;
      }

      .cls-38 {
        fill: #e8a55d;
      }
    </style>
    <radialGradient id="_Безымянный_градиент_24" data-name="Безымянный градиент 24" cx="140.14" cy="82.49" fx="140.14" fy="82.49" r="76.68" gradientUnits="userSpaceOnUse">
      <stop offset="0" stop-color="#261507"/>
      <stop offset="1" stop-color="#43240d"/>
    </radialGradient>
    <linearGradient id="_Безымянный_градиент_557" data-name="Безымянный градиент 557" x1="118.6" y1="110.79" x2="169.59" y2="110.79" gradientUnits="userSpaceOnUse">
      <stop offset="0" stop-color="#998ee2"/>
      <stop offset=".33" stop-color="#7e9fdf"/>
      <stop offset="1" stop-color="#3fcadb"/>
    </linearGradient>
    <radialGradient id="_Безымянный_градиент_130" data-name="Безымянный градиент 130" cx="152.62" cy="95.17" fx="116.61" fy="95.17" r="36.12" gradientUnits="userSpaceOnUse">
      <stop offset="0" stop-color="#bde3e2"/>
      <stop offset="1" stop-color="#35d7db"/>
    </radialGradient>
    <linearGradient id="_Безымянный_градиент_582" data-name="Безымянный градиент 582" x1="147.05" y1="99.21" x2="123.69" y2="133.44" gradientUnits="userSpaceOnUse">
      <stop offset="0" stop-color="#8bffff"/>
      <stop offset=".22" stop-color="#86fbfa"/>
      <stop offset=".45" stop-color="#7af1ed"/>
      <stop offset=".69" stop-color="#65e1d8"/>
      <stop offset=".93" stop-color="#48cbba"/>
      <stop offset="1" stop-color="#3fc4b1"/>
    </linearGradient>
    <linearGradient id="_Безымянный_градиент_551" data-name="Безымянный градиент 551" x1="103.38" y1="99.72" x2="157.97" y2="99.72" gradientUnits="userSpaceOnUse">
      <stop offset="0" stop-color="#96fffe"/>
      <stop offset=".34" stop-color="#8fffe3"/>
      <stop offset="1" stop-color="#81ffa8"/>
    </linearGradient>
    <radialGradient id="_Безымянный_градиент_519" data-name="Безымянный градиент 519" cx="218.17" cy="105.86" fx="210.32" fy="105.86" r="18.92" gradientUnits="userSpaceOnUse">
      <stop offset="0" stop-color="#5effff"/>
      <stop offset=".22" stop-color="#5fe4fe"/>
      <stop offset=".67" stop-color="#64a1fe"/>
      <stop offset="1" stop-color="#686efe"/>
    </radialGradient>
    <radialGradient id="_Безымянный_градиент_175" data-name="Безымянный градиент 175" cx="217.02" cy="104.88" fx="207.98" fy="111.95" r="21.8" gradientUnits="userSpaceOnUse">
      <stop offset="0" stop-color="#8ce3e2"/>
      <stop offset=".34" stop-color="#71cbdf"/>
      <stop offset="1" stop-color="#3595db"/>
    </radialGradient>
    <linearGradient id="_Безымянный_градиент_497" data-name="Безымянный градиент 497" x1="183.28" y1="125.12" x2="224.91" y2="125.12" gradientUnits="userSpaceOnUse">
      <stop offset="0" stop-color="#8ccfe2"/>
      <stop offset=".29" stop-color="#75b4e0"/>
      <stop offset=".92" stop-color="#3d71db"/>
      <stop offset="1" stop-color="#3568db"/>
    </linearGradient>
    <linearGradient id="_Безымянный_градиент_499" data-name="Безымянный градиент 499" x1="187.89" y1="127.54" x2="224.94" y2="127.54" gradientUnits="userSpaceOnUse">
      <stop offset="0" stop-color="#99b3e2"/>
      <stop offset=".33" stop-color="#7e9ddf"/>
      <stop offset="1" stop-color="#3f68db"/>
    </linearGradient>
    <radialGradient id="_Безымянный_градиент_168" data-name="Безымянный градиент 168" cx="53.52" cy="142.07" fx="53.52" fy="142.07" r="29.61" gradientUnits="userSpaceOnUse">
      <stop offset="0" stop-color="#e2e3e2"/>
      <stop offset="1" stop-color="#545ddb"/>
    </radialGradient>
    <radialGradient id="_Безымянный_градиент_168-2" data-name="Безымянный градиент 168" cx="57.1" cy="114.44" fx="80.54" fy="114.44" r="24.02" xlink:href="#_Безымянный_градиент_168"/>
    <linearGradient id="_Безымянный_градиент_604" data-name="Безымянный градиент 604" x1="44.46" y1="118.62" x2="82.44" y2="118.62" gradientUnits="userSpaceOnUse">
      <stop offset="0" stop-color="#e5786d"/>
      <stop offset=".17" stop-color="#ca757c"/>
      <stop offset=".53" stop-color="#8670a3"/>
      <stop offset="1" stop-color="#2868db"/>
    </linearGradient>
    <linearGradient id="_Безымянный_градиент_594" data-name="Безымянный градиент 594" x1="44.4" y1="105.47" x2="91.04" y2="105.47" gradientUnits="userSpaceOnUse">
      <stop offset="0" stop-color="#e5ea6d"/>
      <stop offset=".24" stop-color="#e1cf83"/>
      <stop offset=".74" stop-color="#d78cbc"/>
      <stop offset="1" stop-color="#d268db"/>
    </linearGradient>
    <linearGradient id="_Безымянный_градиент_499-2" data-name="Безымянный градиент 499" x1="45.03" y1="133.06" x2="92.39" y2="133.06" xlink:href="#_Безымянный_градиент_499"/>
  </defs>
  <g id="_Сhest" data-name="Сhest">
    <g id="Open_" data-name="Open
">
      <path class="cls-17" d="M273.93,225.75H4.16c-1.28,1.07-1.78,2.28-1.77,3.8.04,5.46,0,10.92.02,16.38,0,2.16.72,3.95,2.65,5h268.06c1.95-1.29,2.59-3.02,2.58-5.08,0-5.37-.03-10.74.02-16.12.01-1.61-.43-2.93-1.78-3.99Z"/>
      <path class="cls-2" d="M244.35,191.92h-76.65c-8.09,6.32-15.85,12.39-23.24,18.16-2.04.58-3.16-.21-4.31-1.11-7.28-5.69-14.59-11.35-21.84-16.99H35.13v31.42h208.9c.03-10.57.64-20.99.32-31.48Z"/>
      <path class="cls-2" d="M116.41,162.31H35.86c-.66,3.85-.83,25.02-.26,27.28,5.93.46,79.72.24,81.42-.18-.15-2.13-.4-4.22-.42-6.31-.06-6.25-.01-12.5-.03-18.75,0-.67-.11-1.34-.17-2.04Z"/>
      <path class="cls-2" d="M244.56,162.38h-75.08c-.08.81-.18,1.5-.2,2.18-.11,6.6-.19,13.2-.32,19.81-.03,1.72-.18,3.44-.28,5.25h75.42c.7-3.05.31-6.12.4-9.15.09-2.99.07-5.99.06-8.98,0-3.04.15-6.08-.01-9.1Z"/>
      <path class="cls-3" d="M227.19,139c-.02-1.72-.06-3.44-.08-5.12-5.4-.51-171.56-.3-173.45.19,0,3.31,0,6.63,0,10.04h173.54c0-1.8.01-3.45,0-5.11Z"/>
      <path class="cls-20" d="M229.52,131.62c4.94,4.19,9.89,8.41,14.77,12.55h23.61c-7.13-6.1-13.93-11.92-20.87-17.86H33.82c-6.88,5.87-13.75,11.72-20.95,17.87h23.72c4.99-4.25,9.95-8.46,14.76-12.55h178.18Z"/>
      <path class="cls-17" d="M116.59,159.73c0-2.16,0-4.35,0-6.54-.01-2.25-.04-4.49-.07-6.75H8.57c-5.8,4.36-7.03,5.69-5.69,13.52,5.33.45,111.61.26,113.71-.22Z"/>
      <path class="cls-17" d="M278.17,153.3c-.08-.75-.41-1.6-.9-2.16-2.24-2.55-4.34-4.88-8.42-4.86-32.39.16-64.78.09-97.16.09h-2.13v13.6h108.39c.61-2.3.45-4.49.22-6.66Z"/>
      <path class="cls-17" d="M270.72,162.41c-4.11-.43-21.75-.28-23.83.26-.16,20.21-.32,40.48-.48,60.79h23.9c.6-5.89.93-58.68.41-61.05ZM259.51,216.33c-3.82-.04-6.96-3.06-6.89-6.82.08-4.19,3.51-7.05,7.09-6.95,3.73.11,6.77,3.14,6.81,7,.04,3.71-3.31,6.81-7.01,6.78ZM259.65,184.62c-3.93.04-7.19-3.09-7.04-6.94.17-4.3,3.64-6.86,6.94-6.84,3.68.02,6.99,3.24,6.99,6.85,0,3.67-3.21,6.89-6.89,6.93Z"/>
      <path class="cls-17" d="M32.77,162.3H9.45c-.45,5.12-.27,59.16.17,61.07h22.83c.65-6.96.92-58.83.31-61.07ZM21.57,170.85c3.62-.1,7.01,2.78,7.09,6.95.07,3.76-3.07,6.79-6.89,6.82-3.71.03-7.04-3.06-7-6.77.04-3.91,3.12-6.9,6.8-7ZM21.7,216.33c-3.71,0-7.04-3.14-6.93-6.84.11-4.13,3.39-6.88,6.87-6.93,3.75-.05,7,3.02,7.02,7.02.02,3.77-3.14,6.75-6.96,6.75Z"/>
      <path class="cls-3" d="M229.56,134.6c0,3.51-.1,6.5.08,9.55h11.13c-3.8-3.24-7.3-6.22-11.21-9.55Z"/>
      <path class="cls-3" d="M51.12,136.03c0-.23-.15-.45-.34-.97-3.53,3.01-6.93,5.92-10.65,9.1h11c0-2.89,0-5.51-.01-8.12Z"/>
      <polygon class="cls-18" points="34.64 191.73 34.64 197.24 245.87 197.24 244.47 192.02 34.64 191.73"/>
      <polygon class="cls-3" points="244.92 215.24 33.65 215.24 34.41 224.24 245.11 223.24 244.92 215.24"/>
      <polygon class="cls-20" points="7.13 146.24 1.73 153.24 280.25 153.24 273.05 146.24 7.13 146.24"/>
      <path class="cls-34" d="M13.33,160.53c-1.78.03-3.56.09-5.34.23l.43,62.61,5.15,2.38-.24-65.22Z"/>
      <path class="cls-34" d="M271.88,160.23c-1.78.03-3.56.09-5.34.23l.43,62.61,5.15,2.38-.24-65.22Z"/>
      <path class="cls-15" d="M27.02,162.08c-1.51-.06-3.02-.11-4.54-.14l11.19,11.73.73-3.72-7.39-7.87Z"/>
      <path class="cls-15" d="M15.94,161.55c-1.24-.11-2.48-.24-3.72-.36-1.34.22-2.68.45-4.05.64l-.35,6.64,26.6,27.07v-13.17l-18.47-20.8Z"/>
      <path class="cls-15" d="M246.06,192.35v5.24l25.76,23.67c-.16-1.71-.26-3.42-.29-5.13l-25.48-23.78Z"/>
      <path class="cls-15" d="M255.75,225.54c4.1-.22,8.2-.47,12.3-.67l-21.99-23.63v1.88c0,.21-.04.4-.09.58l.47,12.63,9.08,9.24c.08-.01.15-.03.23-.03Z"/>
      <path class="cls-20" d="M268.16,252.33c10.58,2.21,9.44-10.09,9.44-10.09H2.49c-2.28,8,4.05,10.18,4.05,10.18,0,0,251.04-2.3,261.62-.09Z"/>
      <polygon class="cls-3" points="33.64 160.24 33.64 165.24 244.92 165.24 244.63 160.24 33.64 160.24"/>
      <path class="cls-33" d="M264.66,177.61c.03-2.96-2.2-5.31-5.06-5.32-2.72,0-4.98,2.25-5.06,5.05-.09,2.94,2.11,5.38,4.92,5.47,2.83.09,5.17-2.25,5.19-5.2Z"/>
      <path class="cls-33" d="M264.66,209.23c-.01-2.84-2.14-5.11-4.89-5.22-2.81-.11-5.18,2.23-5.23,5.14-.04,2.93,2.22,5.35,5.02,5.37,2.82.02,5.11-2.35,5.09-5.3Z"/>
      <path class="cls-33" d="M26.74,177.44c-.04-2.81-2.24-5.09-4.96-5.15-2.85-.06-5.15,2.26-5.16,5.21-.02,2.95,2.26,5.32,5.09,5.3,2.8-.02,5.07-2.44,5.03-5.36Z"/>
      <path class="cls-33" d="M26.74,209.42c.08-2.93-2.14-5.35-4.96-5.41-2.74-.05-5.03,2.14-5.16,4.95-.13,2.97,1.98,5.4,4.82,5.56,2.77.15,5.22-2.2,5.3-5.09Z"/>
      <path class="cls-17" d="M118.68,161.08c0,7.22-.03,14.44.03,21.66.04,4.4,1.27,8.09,5.2,10.87,5.81,4.12,11.3,8.7,16.93,13.07.68.53,1.4,1.02,2.02,1.48.31-.1.51-.11.64-.21,6.75-5.23,13.51-10.45,20.21-15.75.79-.62,1.52-1.57,1.81-2.51.59-1.91,1.2-3.91,1.21-5.88.11-11.88.06-23.77.05-35.66,0-.58-.14-1.16-.21-1.67h-47.88c0,.98,0,1.84,0,2.7,0,3.96-.02,7.93-.02,11.89ZM132.25,185.28c1.63-3.88,3.25-7.76,4.86-11.65.23-.56.43-1.14.68-1.81-.53-.99-1.15-1.95-1.58-2.99-1.33-3.26-1.67-6.51.81-9.41,1.47-1.72,3.32-2.83,5.74-2.68,1.05.07,2.1.01,2.71.01,3.53,1.48,5.27,3.89,5.9,7.09.65,3.31-1.58,5.56-3.18,7.78,1.93,5.24,3.78,10.23,5.59,15.24.09.25-.2.64-.3.91-2.16.52-18.69.6-21.12.12-.82-.98-.46-1.78-.11-2.61Z"/>
      <path class="cls-20" d="M166.26,187.16l-23.43,16.86-23.78-17.81c-5.73,2.57,23.82,22.97,23.82,22.97,32.21-19.53,23.39-22.01,23.39-22.01Z"/>
      <path class="cls-16" d="M163.31,194.63l-41.76-31.97-2.81-.5c-.05,3.65-.79,7.13-1.35,10.67l35.35,27.54,1.95-.04c2.69-1.74,6.16-3.43,8.63-5.71Z"/>
      <path class="cls-16" d="M165.23,192.36c.96-1.54,1.35-3.35,1.54-5.22l-48.62-35.8c.24,2.18.41,4.37.5,6.56l46.54,34.5s.02-.03.04-.05Z"/>
      <path class="cls-3" d="M33.64,204v8.75s60.87-2.03,61.63-2.03-34.39-3.06-34.39-3.06l55.96-3.65H33.64Z"/>
      <path class="cls-3" d="M145.35,207.61c-.14.12-.28.24-.44.34-.91.59-2.06.64-3.08.4-.5-.11-.99-.39-1.43-.74-6.1,0-10.18.02-9.98.05,35.46,5.55,59.28,0,59.28,0,0,0-26.78-.05-44.34-.05Z"/>
      <path class="cls-3" d="M201.35,204.01l43.57,1.9-.28-7.35c-.19,0-43.29,5.45-43.29,5.45Z"/>
      <path class="cls-3" d="M211.23,210.13l-79.36-2.25c21.82,6.51,81.55,2.65,79.36,2.25Z"/>
      <polygon class="cls-3" points="117.25 178.24 117.13 171.1 65.62 174.88 109.67 176.32 102.3 178.24 117.25 178.24"/>
      <polygon class="cls-3" points="33.65 184.77 73.17 181.24 33.89 181.24 33.65 184.77"/>
      <polygon class="cls-3" points="167.4 181.24 168.97 184.52 204.64 181.24 167.4 181.24"/>
      <polygon class="cls-3" points="198.31 169.69 244.58 172.98 244.92 165.13 198.31 169.69"/>
      <path class="cls-3" d="M204.64,182.24s19.51,6,36.48,0h-36.48Z"/>
      <ellipse class="cls-38" cx="232.13" cy="196.47" rx="4.93" ry="2.09"/>
      <ellipse class="cls-38" cx="217.43" cy="194.36" rx="4.18" ry="1.68"/>
      <polygon class="cls-2" points="227.64 131.69 51.44 131.62 53.41 136.24 227.64 136.24 227.64 131.69"/>
      <polygon class="cls-17" points="31.46 125.18 11.36 144.11 16.61 144.18 37.45 126.31 31.46 125.18"/>
      <polygon class="cls-17" points="246.11 125.18 240.86 125.25 260.96 144.18 271.24 144.06 246.11 125.18"/>
      <polygon class="cls-34" points="167.64 145.24 117.25 145.24 118.77 150.24 167.64 150.24 167.64 145.24"/>
      <path class="cls-34" d="M8.85,228.74c2.14.1,4.28.23,6.42.23h255.48s4.94-1.41,4.94,4.67c0,0,5.13-8.47-3.58-8.47H6.29s-7.09-.76-4.56,7.09l.54,1.38s.1-5.2,6.58-4.9Z"/>
      <path class="cls-14" d="M47.33,227.71c0-1.17-3.1-2.12-6.93-2.12s-6.93.95-6.93,2.12,3.1,2.12,6.93,2.12,6.93-.95,6.93-2.12Z"/>
      <ellipse class="cls-14" cx="58.73" cy="229.65" rx="5.57" ry="1.34"/>
      <ellipse class="cls-14" cx="237.05" cy="231.51" rx="4.77" ry="2.12"/>
      <path d="M132.25,185.28c-.35.83-.71,1.63.11,2.61,2.43.49,18.96.4,21.12-.12.1-.27.39-.66.3-.91-1.81-5.01-3.66-10-5.59-15.24,1.6-2.21,3.83-4.47,3.18-7.78-.47-2.42-1.58-4.39-3.62-5.85-1.16-.82-2.56-1.21-3.98-1.22-.33,0-.67-.01-1-.03-2.42-.16-4.27.96-5.74,2.68-2.48,2.9-2.15,6.15-.81,9.41.43,1.04,1.05,2,1.58,2.99-.25.67-.45,1.25-.68,1.81-1.61,3.89-3.23,7.77-4.86,11.65Z"/>
      <path d="M266.54,177.69c0-3.61-3.31-6.83-6.99-6.85-3.3-.02-6.77,2.54-6.94,6.84-.15,3.85,3.11,6.97,7.04,6.94,3.68-.03,6.89-3.26,6.89-6.93ZM254.55,177.34c.08-2.8,2.35-5.05,5.06-5.05,2.85,0,5.08,2.36,5.06,5.32-.03,2.94-2.37,5.28-5.19,5.2-2.81-.09-5.01-2.53-4.92-5.47Z"/>
      <path d="M266.51,209.56c-.04-3.86-3.08-6.89-6.81-7-3.58-.1-7.01,2.76-7.09,6.95-.07,3.76,3.07,6.79,6.89,6.82,3.7.03,7.04-3.07,7.01-6.78ZM254.55,209.15c.04-2.91,2.42-5.25,5.23-5.14,2.75.11,4.88,2.38,4.89,5.22.01,2.95-2.27,5.32-5.09,5.3-2.8-.02-5.06-2.44-5.02-5.37Z"/>
      <path d="M28.66,177.8c-.08-4.16-3.47-7.04-7.09-6.95-3.68.1-6.76,3.09-6.8,7-.04,3.71,3.29,6.8,7,6.77,3.82-.03,6.96-3.06,6.89-6.82ZM16.61,177.51c.02-2.95,2.31-5.27,5.16-5.21,2.72.05,4.92,2.34,4.96,5.15.04,2.92-2.24,5.34-5.03,5.36-2.83.02-5.11-2.35-5.09-5.3Z"/>
      <path d="M28.66,209.58c-.02-4-3.27-7.07-7.02-7.02-3.48.05-6.76,2.8-6.87,6.93-.1,3.7,3.22,6.84,6.93,6.84,3.83,0,6.98-2.98,6.96-6.75ZM16.62,208.96c.13-2.81,2.41-5,5.16-4.95,2.82.05,5.04,2.48,4.96,5.41-.08,2.89-2.53,5.24-5.3,5.09-2.84-.15-4.96-2.59-4.82-5.56Z"/>
      <path d="M273.71,162.45c2.31-.75,4.78.66,6.65-1.04.28-8.94,1.62-10.49-6.99-17-.73-.12-1.5-.24-2.13-.34-7.82-6.69-15.52-13.27-23.2-19.83H32.44c-1.18,1.12-2.1,2.07-3.09,2.92-5.69,4.87-11.39,9.72-17.09,14.57-1.59,1.36-3.02,2.99-5.33,3.17-.31.02-.6.34-.88.55-3.87,2.78-6.45,6.23-5.85,11.34.11.96.11,1.93.13,2.9.02,1.19.54,2.01,2.02,2.62h4.69v61.25c-.75,0-1.35.03-1.95,0-2.31-.13-4.18,1.62-4.32,3.74-.06.88-.28,1.74-.3,2.62-.08,5.72-.19,11.44-.17,17.17.02,4.69,1.53,6.09,6.23,6.09,87.21,0,174.41,0,261.62,0,1.41,0,2.82.04,4.23.03,3.46-.03,4.94-1.35,5.39-4.81.08-.61.04-1.23.04-1.85,0-4.05.01-8.1,0-12.16,0-1.76-.01-3.52-.15-5.28-.23-2.91-1.06-5.41-4.63-5.72-.05-.9-.14-1.68-.14-2.46.11-17.09.22-34.18.37-51.26.02-2.43.3-4.86.45-7.2ZM33.82,126.31h213.2c6.94,5.94,13.74,11.76,20.87,17.86h-23.61c-4.87-4.14-9.83-8.35-14.77-12.55H51.34c-4.81,4.09-9.76,8.31-14.76,12.55H12.87c7.21-6.15,14.07-12,20.95-17.87ZM240.77,144.16h-11.13c-.19-3.06-.08-6.05-.08-9.55,3.91,3.34,7.41,6.32,11.21,9.55ZM244.51,180.46c-.09,3.03.3,6.11-.4,9.15h-75.42c.1-1.82.24-3.53.28-5.25.12-6.6.21-13.2.32-19.81.01-.68.12-1.37.2-2.18h75.08c.16,3.02,0,6.07.01,9.1,0,2.99.03,5.99-.06,8.98ZM116.61,183.1c.02,2.09.27,4.18.42,6.31-1.7.42-75.5.63-81.42.18-.56-2.26-.39-23.42.26-27.28h80.54c.06.7.17,1.37.17,2.04.01,6.25-.03,12.5.03,18.75ZM118.31,191.98c7.26,5.64,14.56,11.29,21.84,16.99,1.15.9,2.27,1.69,4.31,1.11,7.39-5.77,15.15-11.84,23.24-18.16h76.65c.33,10.49-.29,20.91-.32,31.48H35.13v-31.42h83.18ZM118.7,146.5h47.88c.07.52.21,1.09.21,1.67.01,11.89.06,23.77-.05,35.66-.02,1.97-.62,3.97-1.21,5.88-.29.94-1.02,1.89-1.81,2.51-6.7,5.29-13.46,10.51-20.21,15.75-.13.1-.32.11-.64.21-.63-.45-1.34-.95-2.02-1.48-5.63-4.38-11.12-8.96-16.93-13.07-3.93-2.78-5.16-6.47-5.2-10.87-.06-7.22-.03-14.44-.03-21.66,0-3.96.01-7.93.02-11.89,0-.86,0-1.72,0-2.7ZM53.65,144.11v-10.04c1.89-.5,168.05-.71,173.45-.19.03,1.68.07,3.4.08,5.12.01,1.66,0,3.31,0,5.11H53.65ZM51.14,144.15h-11c3.72-3.18,7.13-6.08,10.65-9.1.19.52.34.75.34.97.02,2.62.01,5.24.01,8.12ZM2.88,159.96c-1.34-7.83-.11-9.16,5.69-13.52h107.95c.02,2.26.05,4.51.07,6.75.01,2.19,0,4.38,0,6.54-2.1.48-108.38.67-113.71.22ZM32.46,223.37H9.62c-.44-1.91-.62-55.95-.17-61.07h23.31c.61,2.24.34,54.11-.31,61.07ZM273.93,225.75c1.36,1.06,1.8,2.38,1.78,3.99-.05,5.37-.02,10.74-.02,16.12,0,2.06-.64,3.79-2.58,5.08H5.06c-1.93-1.05-2.64-2.84-2.65-5-.01-5.46.02-10.92-.02-16.38-.01-1.52.49-2.74,1.77-3.8h269.78ZM246.41,223.47c.16-20.31.32-40.58.48-60.79,2.08-.54,19.72-.69,23.83-.26.52,2.38.18,55.17-.41,61.05h-23.9ZM169.55,159.97v-13.6h2.13c32.39,0,64.78.07,97.16-.09,4.08-.02,6.18,2.31,8.42,4.86.49.56.82,1.41.9,2.16.23,2.17.39,4.36-.22,6.66h-108.39Z"/>
      <path class="cls-1" d="M23.64,208.69c-.04-2.16-1.74-3.91-3.83-3.94-2.2-.03-3.95,1.75-3.96,4.02,0,2.27,1.75,4.08,3.93,4.06,2.15-.02,3.9-1.89,3.86-4.14Z"/>
      <path class="cls-1" d="M23.64,176.45c-.04-2.16-1.74-3.91-3.83-3.94-2.2-.03-3.95,1.75-3.96,4.02,0,2.27,1.75,4.08,3.93,4.06,2.15-.02,3.9-1.89,3.86-4.14Z"/>
      <path class="cls-1" d="M265.3,176.64c.04-2.24-1.71-4.11-3.86-4.14-2.18-.02-3.94,1.79-3.93,4.06,0,2.27,1.76,4.05,3.96,4.02,2.09-.03,3.8-1.79,3.83-3.94Z"/>
      <path class="cls-1" d="M265.3,208.88c.04-2.24-1.71-4.11-3.86-4.14-2.18-.02-3.94,1.79-3.93,4.06,0,2.27,1.76,4.05,3.96,4.02,2.09-.03,3.8-1.79,3.83-3.94Z"/>
      <path class="cls-35" d="M244.04,51.44H36.24c6.83,20.82,13.59,41.44,20.37,62.11h167.06c6.79-20.71,13.55-41.31,20.36-62.11Z"/>
      <path class="cls-17" d="M110.45,49.73v-14.7H2.35c-.06,1.66-.1,3.14-.17,4.61-.12,2.56.84,4.63,2.78,6.27.67.57,1.25,1.26,1.98,1.74,1.71,1.14,2.57,2.76,3.2,4.68,7.53,23.07,15.11,46.13,22.68,69.19.24.73.55,1.43.8,2.06,5.66.45,210.38.22,213.26-.25,1.24-3.76,2.5-7.6,3.76-11.43,6.55-19.97,13.1-39.93,19.62-59.91.63-1.92,1.65-3.47,3.26-4.66.78-.58,1.63-1.12,2.22-1.86.81-1.01,1.71-2.11,2.04-3.31.63-2.29.46-4.67.05-6.96-3.32-.49-99.64-.36-101.52.12v14.42h59.78c2.55,0,5.11-.05,7.66.02,2.4.07,4.83-.29,7.35.26-7.24,22.05-14.41,43.9-21.57,65.71H50.81c-.26-.73-.5-1.39-.72-2.05-1.43-4.34-2.85-8.69-4.28-13.03-5.1-15.54-10.2-31.08-15.28-46.63-.42-1.3-1.06-2.59-.7-4.28h80.62Z"/>
      <path class="cls-18" d="M232.79,9.51c-61.65.07-123.31.05-184.96.05-.7,0-1.44-.12-2.11.04-.82.2-1.81.45-2.33,1.03-2.41,2.7-4.06,5.86-5.5,9.39h205.43c-.65-2.37-1.94-4.26-3.02-6.24-1.63-2.99-3.99-4.28-7.51-4.27Z"/>
      <path class="cls-2" d="M244.5,22.39c-6.16-.47-205.54-.25-207.7.23-.94,3.29-.71,6.66-.63,10.05h74.12c.33-2.1.64-4.06.9-5.69,1.46-1.42,2.88-1.59,4.43-1.58,12.6.03,25.19.02,37.79.02,5.9,0,11.8.01,17.71,0,1.63,0,3.14.25,4.51,1.56.23,1.85.46,3.82.7,5.73h69.02c-.2-3.49.74-6.91-.84-10.31Z"/>
      <path class="cls-17" d="M113.41,35.35v14.24h59.47v-14.47c-5.79-.53-57.6-.3-59.47.23Z"/>
      <path class="cls-17" d="M234.07,7.47c2.87,0,5.13,1.11,6.56,3.64,1.56,2.75,3.02,5.55,4.61,8.28,1.04,1.79,1.52,3.71,1.69,5.75.21,2.51.5,5.02.76,7.56h23.49c.19-.33.44-.56.44-.79-.02-3.6.58-7.35-.25-10.76-2.04-8.38-7.2-14.56-15.17-18.12-1.39-.62-3.06-.82-4.6-.84-10.21-.11-20.41-.11-30.62-.15-3.81-.01-8.41,2.31-10.47,5.4.97,0,1.84,0,2.71,0,6.95,0,13.91.02,20.86.02ZM250.72,3.87c3.5.06,7.57,3,8.72,6.31,1.32,3.79-1.01,7-5.01,6.92-3.7-.08-7.42-2.79-8.65-6.3-1.35-3.86.88-6.99,4.94-6.93Z"/>
      <path class="cls-17" d="M33.96,30.02c.24-2.27.24-4.61.81-6.8,1.17-4.55,3.57-8.56,6.17-12.45,1.55-2.31,3.58-3.4,6.43-3.36,7.13.11,14.27.04,21.41.03.65,0,1.31-.07,2.42-.14-3.16-3.12-6.36-5.1-10.47-5.12-10.57-.06-21.14-.07-31.71-.02-1.28,0-2.65.32-3.83.84-7.6,3.4-12.58,9.17-14.82,17.17-.58,2.08-.51,4.36-.62,6.56-.09,1.98-.02,3.98-.02,5.95h24.05c.07-1.1.1-1.88.18-2.66ZM26.19,17.1c-3.75,0-5.96-2.97-4.93-6.6,1.05-3.68,5.72-6.92,9.55-6.61,3.39.27,5.32,3.03,4.41,6.34-1.06,3.85-5.04,6.88-9.02,6.88Z"/>
      <path class="cls-20" d="M171.05,27.54c-19.08.03-38.16.07-57.24.11-.07,0-.15.07-.21.13-.06.06-.11.13-.11.13v4.79h59.31v-5.06c-.72-.04-1.23-.1-1.74-.1Z"/>
      <path class="cls-20" d="M242.68,68.5c1.75-5.35,3.5-10.69,5.24-16.04.09-.29.07-.62.11-1.02h-1.65c-6.77,20.63-13.53,41.24-20.35,62.03.69.09,1.17.15,1.73.22.38-1.03.73-1.91,1.03-2.82,4.63-14.12,9.26-28.24,13.89-42.36Z"/>
      <path class="cls-20" d="M33.85,51.31c-.71.07-1.12.11-1.82.18,6.84,20.85,13.62,41.52,20.41,62.21.7-.07,1.11-.11,1.83-.18-6.85-20.87-13.63-41.53-20.41-62.22Z"/>
      <path class="cls-20" d="M61.25,1.57c-12.42-1.18-18.71,7.31-18.71,7.31l30.63-1.06c-3.8-6.84-11.92-6.25-11.92-6.25Z"/>
      <path class="cls-20" d="M239.05,9.14c.38-1.91-7.78-6.78-13.65-7.57-.97-.13-5.22-.63-10.21,1.3-4.46,1.73-7.23,4.52-8.51,6,23.54-1.88,32.01,2.03,32.37.27Z"/>
      <path class="cls-34" d="M35.58.91c-4.79-1.31-9.93-.36-13.91,2.61-5.63,4.2-12.56,11.57-13.45,22.79v7.24c1.76.39,3.54.71,5.32.97v-13.53S21.48-1.32,35.58.91Z"/>
      <path class="cls-15" d="M46.14,5.34l-4.33-4.6c-1.36.09-2.71.19-4.07.31l6.3,6.6c.36-1.07,1.13-1.86,2.1-2.3Z"/>
      <path class="cls-15" d="M40.18,12.38c.09-.36.26-.63.47-.84L31.86,1.64c-3.97.58-7.33,2.27-10.98,3.59l15.49,15.76c.07-.43.15-.85.26-1.27.7-2.69,2.86-4.67,3.55-7.35Z"/>
      <path class="cls-15" d="M240.56,1.25c-2.87-.1-5.75-.3-8.64-.38l38.33,33.29,2.43-4.05L240.56,1.25Z"/>
      <path class="cls-15" d="M246.58,31.24l3.18,2.57c5.92.13,11.86.65,17.79.76l-26.93-24.12-.09,1.34c2.37,5.91,5.68,11.11,6.54,17.57.09.67-.14,1.14-.52,1.43.01.15.02.3.02.46Z"/>
      <path class="cls-15" d="M164.11,50.41l.26-1.29-15.43-16.43c-1.34.23-2.68.4-4.03.52l16.35,17.14c.78.02,1.56.06,2.35.09.17,0,.34-.02.51-.02Z"/>
      <path class="cls-15" d="M156.76,50.26v-.9l-14.21-16c-2.21.1-4.44.07-6.65-.05-1.82.12-3.65.2-5.48.21-.05,0-.1-.01-.15-.01l-.1,1.95,14,14.25c1.75.13,3.5.32,5.24.53,2.45,0,4.91,0,7.36.02Z"/>
      <polygon class="cls-2" points="38.21 15.24 35.93 20.24 244.71 20.24 241.88 15.24 38.21 15.24"/>
      <polygon class="cls-18" points="245.2 22.01 35.67 22.1 35.93 27.24 245.87 27.24 245.2 22.01"/>
      <polygon class="cls-3" points="35.93 20.24 89.63 20.24 36.69 17.46 35.93 20.24"/>
      <polygon class="cls-3" points="186.33 20.18 244.71 20.74 243.9 17.25 186.33 20.18"/>
      <ellipse class="cls-38" cx="55.94" cy="25.68" rx="5.32" ry="1.9"/>
      <path class="cls-38" d="M79.25,12.7c0-1.23-2.61-2.23-5.83-2.23s-5.83,1-5.83,2.23,2.61,2.23,5.83,2.23,5.83-1,5.83-2.23Z"/>
      <ellipse class="cls-38" cx="83.81" cy="14.1" rx="3.04" ry="1.41"/>
      <path class="cls-33" d="M254.2,15.35c2.4-.07,4.02-1.87,3.71-4.12-.42-3.07-3.7-5.92-6.8-5.93-2.62,0-4.11,1.66-3.77,4.21.4,3.04,3.79,5.93,6.86,5.83Z"/>
      <path class="cls-33" d="M33.32,10.26c.86-3.16-1.22-5.54-4.44-4.89-2.85.57-4.91,2.26-5.78,5.14-.79,2.64.8,4.78,3.55,4.84,2.76.06,5.92-2.36,6.67-5.1Z"/>
      <polygon class="cls-20" points="35.93 120.24 33.65 124.24 247.64 124.24 247.64 120.24 35.93 120.24"/>
      <polygon class="cls-34" points="110.27 32.69 1 32.87 2.49 38.24 110.41 38.24 110.27 32.69"/>
      <polygon class="cls-34" points="279.11 32.7 174.75 32.69 176.52 38.24 278.35 38.24 279.11 32.7"/>
      <polygon class="cls-34" points="14.4 51.44 7.56 49.58 33.62 123.59 36.24 120.29 14.4 51.44"/>
      <path class="cls-34" d="M272.68,33.55v-7.24c-.89-11.22-7.82-18.59-13.45-22.79-3.98-2.97-9.12-3.91-13.91-2.61,14.1-2.23,22.04,20.08,22.04,20.08v13.53c1.78-.26,3.56-.57,5.32-.97Z"/>
      <polygon class="cls-34" points="266.5 51.44 244.66 120.29 247.29 123.59 273.34 49.58 266.5 51.44"/>
      <polygon class="cls-34" points="172.87 35.13 112.18 34.54 113.45 38.24 172.72 38.24 172.87 35.13"/>
      <polygon class="cls-15" points="130.64 27.58 130.64 33.66 142.91 33.36 142.76 27.42 130.64 27.58"/>
      <polygon class="cls-15" points="144.64 27.42 144.64 33.24 149.64 33.24 149.64 27.58 144.64 27.42"/>
      <path d="M35.21,10.22c.91-3.3-1.01-6.07-4.41-6.34-3.83-.3-8.5,2.93-9.55,6.61-1.03,3.63,1.19,6.6,4.93,6.6,3.99,0,7.96-3.03,9.02-6.88ZM23.1,10.51c.86-2.89,2.93-4.57,5.78-5.14,3.22-.65,5.3,1.73,4.44,4.89-.75,2.74-3.91,5.16-6.67,5.1-2.74-.06-4.34-2.2-3.55-4.84Z"/>
      <path d="M254.43,17.09c4,.09,6.33-3.13,5.01-6.92-1.15-3.31-5.22-6.26-8.72-6.31-4.06-.07-6.29,3.06-4.94,6.93,1.23,3.51,4.95,6.22,8.65,6.3ZM251.11,5.31c3.11,0,6.38,2.86,6.8,5.93.31,2.25-1.31,4.04-3.71,4.12-3.07.09-6.46-2.79-6.86-5.83-.33-2.55,1.16-4.22,3.77-4.21Z"/>
      <path d="M1,32.85c-.32.94-.79,1.8-.87,2.69-.16,1.75-.14,3.52-.11,5.28.03,2.11.84,3.95,2.24,5.51.76.85,1.54,1.73,2.48,2.36,1.94,1.31,2.91,3.15,3.61,5.31,7.42,22.74,14.88,45.46,22.35,68.18.4,1.23.96,2.41,1.43,3.57.78.05,1.3.11,1.82.11,7.4,0,14.8,0,22.2,0,58.22,0,116.44,0,174.66,0,4.93,0,9.86.02,14.79-.02.92,0,1.85-.23,2.78-.35.47-1.29.9-2.34,1.26-3.42,7.19-21.88,14.41-43.76,21.54-65.66,1.11-3.4,2.21-6.65,5.46-8.67.72-.45,1.27-1.22,1.81-1.91,1.06-1.34,1.76-2.87,1.8-4.59.05-2.02.06-4.05-.1-6.07-.06-.79-.62-1.54-1.02-2.49h-5.08c0-2.38.09-4.49-.03-6.59-.11-2.01-.04-4.14-.71-5.98-2.75-7.57-7.18-13.89-14.41-17.88-2.58-1.43-5.35-2.22-8.33-2.22-9.51,0-19.02-.04-28.54.02-5.4.04-9.89,2.18-13.39,6.33-.28.33-.57.66-.85.99H73.51c-.42-.51-.77-1.02-1.2-1.46C68.76,2.2,64.58-.04,59.29,0c-9.34.06-18.67,0-28.01.03-1.22,0-2.47.1-3.67.33-4.58.89-8.3,3.35-11.47,6.64-5.58,5.79-9.11,12.47-8.65,20.8.09,1.56.01,3.13.01,5.04H1ZM220.97,2.05c10.21.04,20.41.04,30.62.15,1.54.02,3.21.22,4.6.84,7.98,3.55,13.13,9.74,15.17,18.12.83,3.41.23,7.16.25,10.76,0,.23-.24.45-.44.79h-23.49c-.26-2.54-.54-5.05-.76-7.56-.17-2.04-.65-3.95-1.69-5.75-1.59-2.73-3.05-5.54-4.61-8.28-1.44-2.53-3.69-3.64-6.56-3.64-6.95,0-13.91-.01-20.86-.02-.87,0-1.74,0-2.71,0,2.06-3.09,6.66-5.41,10.47-5.4ZM245.33,32.7h-69.02c-.23-1.91-.47-3.88-.7-5.73-1.37-1.31-2.88-1.56-4.51-1.56-5.9.02-11.8,0-17.71,0-12.6,0-25.19.01-37.79-.02-1.55,0-2.97.16-4.43,1.58-.26,1.63-.57,3.59-.9,5.69H36.16c-.08-3.39-.3-6.77.63-10.05,2.17-.48,201.55-.7,207.7-.23,1.57,3.4.63,6.81.84,10.31ZM223.67,113.55H56.61c-6.78-20.67-13.54-41.29-20.37-62.11h207.79c-6.82,20.8-13.57,41.4-20.36,62.11ZM246.38,51.43h1.65c-.04.4-.01.73-.11,1.02-1.74,5.35-3.49,10.7-5.24,16.04-4.63,14.12-9.25,28.24-13.89,42.36-.3.91-.65,1.8-1.03,2.82-.56-.07-1.04-.13-1.73-.22,6.82-20.79,13.58-41.4,20.35-62.03ZM54.26,113.53c-.72.07-1.13.11-1.83.18-6.79-20.69-13.57-41.36-20.41-62.21.7-.07,1.11-.11,1.82-.18,6.79,20.68,13.57,41.35,20.41,62.22ZM172.87,35.12v14.47h-59.47v-14.24c1.86-.53,53.68-.76,59.47-.23ZM113.49,32.7v-4.79s.04-.07.11-.13c.06-.05.14-.13.21-.13,19.08-.04,38.16-.08,57.24-.11.51,0,1.03.05,1.74.1v5.06h-59.31ZM232.79,9.51c3.52,0,5.88,1.28,7.51,4.27,1.08,1.99,2.38,3.87,3.02,6.24H37.89c1.43-3.53,3.09-6.69,5.5-9.39.52-.58,1.51-.82,2.33-1.03.66-.17,1.4-.04,2.11-.04,61.65,0,123.31.02,184.96-.05ZM9.75,26.72c.1-2.2.04-4.48.62-6.56,2.23-8,7.21-13.77,14.82-17.17,1.17-.52,2.54-.84,3.83-.84,10.57-.05,21.14-.04,31.71.02,4.11.02,7.31,2.01,10.47,5.12-1.11.07-1.77.14-2.42.14-7.14,0-14.27.08-21.41-.03-2.85-.04-4.88,1.04-6.43,3.36-2.6,3.89-5,7.9-6.17,12.45-.56,2.19-.57,4.53-.81,6.8-.08.77-.11,1.56-.18,2.66H9.73c0-1.97-.07-3.96.02-5.95ZM110.45,35.03v14.7H29.83c-.36,1.69.28,2.98.7,4.28,5.08,15.55,10.18,31.09,15.28,46.63,1.42,4.34,2.85,8.69,4.28,13.03.22.66.46,1.32.72,2.05h178.69c7.16-21.81,14.33-43.66,21.57-65.71-2.52-.55-4.95-.2-7.35-.26-2.55-.07-5.11-.02-7.66-.02h-59.78v-14.42c1.89-.47,98.21-.6,101.52-.12.41,2.29.58,4.67-.05,6.96-.33,1.2-1.23,2.3-2.04,3.31-.59.74-1.44,1.28-2.22,1.86-1.61,1.19-2.64,2.75-3.26,4.66-6.52,19.98-13.07,39.94-19.62,59.91-1.26,3.84-2.52,7.67-3.76,11.43-2.87.47-207.6.7-213.26.25-.25-.63-.56-1.34-.8-2.06-7.57-23.06-15.15-46.11-22.68-69.19-.62-1.91-1.49-3.53-3.2-4.68-.72-.48-1.31-1.18-1.98-1.74-1.94-1.65-2.9-3.71-2.78-6.27.07-1.47.11-2.95.17-4.61h108.11Z"/>
      <path class="cls-1" d="M29.18,10.7c1.65-1.39,2.16-3.5,1.14-4.68-.98-1.13-3.08-.98-4.7.34-1.71,1.39-2.27,3.46-1.27,4.68,1,1.22,3.16,1.07,4.83-.34Z"/>
      <path class="cls-1" d="M257.16,11.28c1-1.22.44-3.29-1.27-4.68-1.62-1.32-3.72-1.47-4.7-.34-1.02,1.18-.51,3.29,1.14,4.68,1.67,1.4,3.83,1.55,4.83.34Z"/>
    </g>
  </g>
  <g id="Bubble_1">
    <g>
      <path class="cls-21" d="M168.63,118.73c.98-3.17,1.51-6.54,1.52-10.03-.03-18.41-14.96-33.33-33.38-33.33s-33.38,14.95-33.38,33.38,14.95,33.38,33.38,33.38c14.96,0,27.62-9.84,31.87-23.41Z"/>
      <path class="cls-28" d="M136.53,118.39c-32.33,7.74-11.07,21.78-11.07,21.78,0,0,16.17,6.8,33.92-6.88,17.76-13.68,6.96-40.02,6.96-40.02,0,0-8.25-12.89-13.09-13.55,0,0,15.61,30.92-16.72,38.66Z"/>
      <path class="cls-25" d="M168.63,118.73c.98-3.17,1.51-6.54,1.52-10.03-.03-18.41-14.96-33.33-33.38-33.33-8.74,0-16.7,3.36-22.65,8.86-6.6,6.1-10.74,14.83-10.74,24.53,0,18.44,14.95,33.38,33.38,33.38,14.96,0,27.62-9.84,31.87-23.41Z"/>
      <ellipse class="cls-30" cx="131.99" cy="121.28" rx="20.25" ry="17.76"/>
      <path class="cls-27" d="M138.02,88.64c36.67-1.83,11.54-10.72,11.54-10.72,0,0-21.32-8.53-36.96,7.8,0,0-16.19,13.44-5.67,38.03,0,0-5.58-33.27,31.09-35.11Z"/>
      <path class="cls-8" d="M105.95,121.28s4.13,8.75,8.06,11.9c0,0,60.6-16.49,50.56-42.9,0,0-6.88-9.21-11.31-10.55,0,0,24.46,43.15-47.3,41.55Z"/>
      <path class="cls-6" d="M151.83,132.98c3.14-2.28,5.59-5.42,6.84-9.1,2.26-6.66-1.21-9.53-4.72-10.26-3.17-.66-7.75.26-10.53,1.93-9.95,5.97-37.48,5.73-37.48,5.73,7.52,16.95,20.95,19.38,20.95,19.38,12.06,0,20.38-4.38,24.93-7.68Z"/>
      <ellipse class="cls-4" cx="120.03" cy="92.14" rx="9.72" ry="8.98"/>
      <g class="cls-19">
        <ellipse class="cls-13" cx="117.79" cy="90.27" rx="4.41" ry="4.55"/>
        <path class="cls-13" d="M153.98,90.92c0-1.26-.99-2.27-2.21-2.27s-2.21,1.02-2.21,2.27.99,2.28,2.21,2.28,2.21-1.02,2.21-2.28Z"/>
        <ellipse class="cls-13" cx="122.06" cy="133.94" rx="3.4" ry="3.26"/>
        <ellipse class="cls-13" cx="153.42" cy="99.9" rx="1.38" ry="1.44"/>
        <ellipse class="cls-13" cx="157.59" cy="94.6" rx="3.72" ry="3.86"/>
        <path class="cls-13" d="M117.01,94.66c0-1.59-1.34-2.88-3-2.88s-3,1.29-3,2.88,1.34,2.88,3,2.88,3-1.29,3-2.88Z"/>
        <ellipse class="cls-13" cx="149.99" cy="133.96" rx="1.5" ry="1.44"/>
        <ellipse class="cls-13" cx="152.5" cy="130.61" rx=".75" ry=".72"/>
      </g>
    </g>
  </g>
  <g id="Bubble_2">
    <g>
      <path class="cls-21" d="M223.99,124.52c.64-2.07.99-4.27.99-6.55-.02-12.02-9.77-21.77-21.8-21.77s-21.8,9.76-21.8,21.8,9.76,21.8,21.8,21.8c9.77,0,18.04-6.43,20.81-15.29Z"/>
      <path class="cls-36" d="M224.22,122.91c.56-1.8.86-3.71.86-5.69-.02-10.44-8.48-18.89-18.92-18.89s-18.92,8.47-18.92,18.92,8.47,18.92,18.92,18.92c8.48,0,15.66-5.58,18.06-13.27Z"/>
      <path class="cls-24" d="M223.99,124.52c.64-2.07.99-4.27.99-6.55-.02-12.02-9.77-21.77-21.8-21.77s-21.8,9.76-21.8,21.8,9.76,21.8,21.8,21.8c9.77,0,18.04-6.43,20.81-15.29Z"/>
      <ellipse class="cls-12" cx="193.28" cy="106.43" rx="6.78" ry="6.2"/>
      <ellipse class="cls-7" cx="197.8" cy="106.86" rx="9.71" ry="9.05"/>
      <ellipse class="cls-13" cx="187.89" cy="111.91" rx="3.12" ry="2.86"/>
      <path class="cls-37" d="M217.3,134.6c11.92-10.76,6.26-24.34,6.26-24.34-8.69,27.52-40.28,16.66-40.28,16.66,3,6.21,8.54,9.7,8.54,9.7,0,0,13.55,8.74,25.48-2.02Z"/>
      <path class="cls-32" d="M224.8,115.2c-10.47,27.04-36.91,18.34-36.91,18.34,13.5,12.18,26.65,3.08,26.65,3.08,12.43-7.77,10.27-21.42,10.27-21.42Z"/>
      <path class="cls-5" d="M185.45,130.49c7.42,10,17.73,9.32,17.73,9.32,0,0,6,1.24,14.12-5.2,3.45-2.74,3.18-5.63,1.72-8.04-2.26-3.75-6.74-5.55-11.03-4.68l-9.62,1.94s-18.21,4.23-15.09-14.96c0,0-5.25,11.65,2.17,21.64Z"/>
      <path class="cls-11" d="M205.93,138.7c3.02-.36,5.29-2.06,5.08-3.8s-2.82-2.85-5.84-2.49-5.29,2.06-5.08,3.8,2.82,2.85,5.84,2.49Z"/>
      <path class="cls-11" d="M196.05,136.69c1.12-.13,1.94-1.03,1.82-2-.12-.97-1.12-1.65-2.24-1.52-1.12.13-1.94,1.03-1.82,2,.12.97,1.12,1.65,2.24,1.52Z"/>
      <path class="cls-5" d="M208.94,126.98c11.1-4.4,14.62-16.71,14.62-16.71-2.75-8.05-10.66-11.77-10.66-11.77,4.55,10.55-1.94,22.47-5.02,27.21-.47.72.27,1.59,1.06,1.28Z"/>
    </g>
  </g>
  <g id="Bubble_3">
    <g>
      <path class="cls-21" d="M93.94,125.14c.74-2.41,1.15-4.97,1.15-7.62-.02-13.99-11.37-25.32-25.36-25.32s-25.36,11.35-25.36,25.36,11.35,25.36,25.36,25.36c11.37,0,20.98-7.48,24.21-17.78Z"/>
      <ellipse class="cls-13" cx="55.66" cy="128.42" rx="3.63" ry="3.32"/>
      <path class="cls-13" d="M64.33,128c0-.92-.81-1.66-1.82-1.66s-1.82.74-1.82,1.66.81,1.66,1.82,1.66,1.82-.74,1.82-1.66Z"/>
      <path class="cls-23" d="M93.94,125.14c.74-2.41,1.15-4.97,1.15-7.62-.02-13.99-11.37-25.32-25.36-25.32s-25.36,11.35-25.36,25.36,11.35,25.36,25.36,25.36c11.37,0,20.98-7.48,24.21-17.78Z"/>
      <path class="cls-22" d="M86.69,124.43c.63-2.19.98-4.52.98-6.94-.02-12.73-9.68-23.04-21.6-23.04s-21.6,10.33-21.6,23.08,9.67,23.08,21.6,23.08c9.68,0,17.88-6.81,20.62-16.18Z"/>
      <ellipse class="cls-10" cx="76.13" cy="133.81" rx="5.69" ry="4.84"/>
      <path class="cls-10" d="M74.88,131.55c0-1.42-1.38-2.57-3.08-2.57s-3.08,1.15-3.08,2.57,1.38,2.57,3.08,2.57,3.08-1.15,3.08-2.57Z"/>
      <path class="cls-31" d="M58.63,94.83s-17.5,7.52-13.61,28.25c0,0,7.67,28.34,37.42,16.39,0,0-45.52-28.74-23.81-44.65Z"/>
      <path class="cls-29" d="M71.37,111.94c7.95,3.91,12.88,3.47,15.92,1.62,4.28-2.6,4.98-8.54,1.67-12.3-4.26-4.84-12.9-11.51-26.43-8.01,0,0-18.13,4.76-18.13,25.43,0,0,7.88-16.13,26.97-6.74Z"/>
      <path class="cls-26" d="M92.39,128.97s-34.7,11.54-47.36-5.89c0,0,3.13,17.17,21.27,19.61,0,0,15.54,3.84,26.09-13.72Z"/>
      <path class="cls-9" d="M92.39,128.97c-1.47-39.5-36.04-32.95-36.04-32.95-2.28,1.2-5.93,5.18-5.93,5.18,36.82-6.97,41.97,27.77,41.97,27.77Z"/>
      <ellipse class="cls-10" cx="54.19" cy="110.7" rx="5.52" ry="4.75"/>
      <ellipse class="cls-10" cx="55.48" cy="110.06" rx="2.48" ry="2.35"/>
    </g>
  </g>
</svg>