<?xml version="1.0" encoding="UTF-8"?>
<svg id="Ebene_2" xmlns="http://www.w3.org/2000/svg" xmlns:xlink="http://www.w3.org/1999/xlink" viewBox="0 0 198.33 216.12">
  <defs>
    <style>
      .cls-1 {
        fill: none;
      }

      .cls-2 {
        fill: url(#linear-gradient-13);
      }

      .cls-2, .cls-3, .cls-4, .cls-5, .cls-6, .cls-7, .cls-8, .cls-9, .cls-10, .cls-11, .cls-12, .cls-13, .cls-14, .cls-15, .cls-16, .cls-17, .cls-18, .cls-19, .cls-20, .cls-21, .cls-22, .cls-23 {
        stroke-width: 2px;
      }

      .cls-2, .cls-3, .cls-4, .cls-5, .cls-6, .cls-7, .cls-8, .cls-9, .cls-11, .cls-12, .cls-13, .cls-14, .cls-15, .cls-16, .cls-17, .cls-18, .cls-19, .cls-20, .cls-21, .cls-22, .cls-23 {
        stroke: #15033a;
      }

      .cls-2, .cls-3, .cls-4, .cls-5, .cls-10, .cls-20, .cls-21, .cls-22, .cls-23 {
        stroke-linecap: round;
        stroke-linejoin: round;
      }

      .cls-3 {
        fill: url(#linear-gradient-10);
      }

      .cls-4 {
        fill: url(#linear-gradient-18);
      }

      .cls-5 {
        fill: url(#linear-gradient-16);
      }

      .cls-24 {
        opacity: .5;
      }

      .cls-24, .cls-25, .cls-26 {
        fill: #fff;
      }

      .cls-25, .cls-27 {
        opacity: .3;
      }

      .cls-6 {
        fill: url(#linear-gradient-4);
      }

      .cls-6, .cls-7, .cls-8, .cls-9, .cls-11, .cls-12, .cls-13, .cls-14, .cls-15, .cls-16, .cls-17, .cls-18, .cls-19 {
        stroke-miterlimit: 10;
      }

      .cls-7 {
        fill: url(#linear-gradient-3);
      }

      .cls-8 {
        fill: url(#linear-gradient-2);
      }

      .cls-9 {
        fill: url(#linear-gradient-5);
      }

      .cls-28 {
        fill: #2a688a;
      }

      .cls-10 {
        fill: url(#linear-gradient);
        stroke: #0e0e3f;
      }

      .cls-11 {
        fill: url(#linear-gradient-20);
      }

      .cls-12 {
        fill: url(#linear-gradient-22);
      }

      .cls-13 {
        fill: url(#linear-gradient-19);
      }

      .cls-14 {
        fill: url(#linear-gradient-14);
      }

      .cls-15 {
        fill: url(#linear-gradient-15);
      }

      .cls-16 {
        fill: url(#linear-gradient-21);
      }

      .cls-17 {
        fill: url(#linear-gradient-17);
      }

      .cls-18 {
        fill: url(#linear-gradient-12);
      }

      .cls-19 {
        fill: url(#linear-gradient-11);
      }

      .cls-20 {
        fill: url(#linear-gradient-9);
      }

      .cls-21 {
        fill: url(#linear-gradient-6);
      }

      .cls-22 {
        fill: url(#linear-gradient-8);
      }

      .cls-23 {
        fill: url(#linear-gradient-7);
      }

      .cls-29 {
        opacity: .2;
      }

      .cls-29, .cls-27, .cls-30 {
        fill: #15033a;
      }
    </style>
    <linearGradient id="linear-gradient" x1="1623.87" y1="198.98" x2="1639.45" y2="198.98" gradientTransform="translate(1714.34) rotate(-180) scale(1 -1)" gradientUnits="userSpaceOnUse">
      <stop offset="0" stop-color="#2b437a"/>
      <stop offset="1" stop-color="#0f0d26"/>
    </linearGradient>
    <linearGradient id="linear-gradient-2" x1="1052.08" y1="152.7" x2="1068.41" y2="152.7" gradientTransform="translate(1127.06 -46.69) rotate(174.53) scale(1 -1)" gradientUnits="userSpaceOnUse">
      <stop offset="0" stop-color="#ee2a7b"/>
      <stop offset=".99" stop-color="#262262"/>
    </linearGradient>
    <linearGradient id="linear-gradient-3" x1="1159.76" y1="210.48" x2="1187.74" y2="210.48" gradientTransform="translate(1266.81) rotate(-180) scale(1 -1)" gradientUnits="userSpaceOnUse">
      <stop offset="0" stop-color="#fbb040"/>
      <stop offset="1" stop-color="#ef4136"/>
    </linearGradient>
    <linearGradient id="linear-gradient-4" x1="980.86" y1="197.33" x2="997.19" y2="197.33" gradientTransform="translate(878.19 -388.74) rotate(155.36) scale(1 -1)" xlink:href="#linear-gradient-2"/>
    <linearGradient id="linear-gradient-5" x1="1084.61" y1="248.12" x2="1112.59" y2="248.12" gradientTransform="translate(1025.52 -390.53) rotate(160.83) scale(1 -1)" xlink:href="#linear-gradient-3"/>
    <linearGradient id="linear-gradient-6" x1="47.06" y1="177.59" x2="47.7" y2="195" gradientUnits="userSpaceOnUse">
      <stop offset="0" stop-color="#277592"/>
      <stop offset="1" stop-color="#262262"/>
    </linearGradient>
    <linearGradient id="linear-gradient-7" x1="71.2" y1="129.36" x2="78.62" y2="211.73" xlink:href="#linear-gradient-6"/>
    <linearGradient id="linear-gradient-8" x1="82.32" y1="136.64" x2="88.87" y2="209.29" gradientUnits="userSpaceOnUse">
      <stop offset="0" stop-color="#fff"/>
      <stop offset="1" stop-color="#d3e6ed"/>
    </linearGradient>
    <linearGradient id="linear-gradient-9" x1="66.27" y1="-1.86" x2="72.05" y2="156.15" xlink:href="#linear-gradient-6"/>
    <linearGradient id="linear-gradient-10" x1="85.53" y1="3.21" x2="89.94" y2="123.81" xlink:href="#linear-gradient-8"/>
    <linearGradient id="linear-gradient-11" x1="118.65" y1="112.94" x2="117.17" y2="129.15" gradientUnits="userSpaceOnUse">
      <stop offset="0" stop-color="#fb6840"/>
      <stop offset="1" stop-color="#a82d26"/>
    </linearGradient>
    <linearGradient id="linear-gradient-12" x1="122.28" y1="95.52" x2="119.55" y2="125.61" gradientTransform="matrix(1,0,0,1,0,0)" xlink:href="#linear-gradient-3"/>
    <linearGradient id="linear-gradient-13" x1="45.17" y1="152.88" x2="71.44" y2="152.88" xlink:href="#linear-gradient-6"/>
    <linearGradient id="linear-gradient-14" x1="74.63" y1="126.75" x2="74.63" y2="141.31" gradientTransform="translate(227.1) rotate(-180) scale(1 -1)" gradientUnits="userSpaceOnUse">
      <stop offset="0" stop-color="#fbb040"/>
      <stop offset="1" stop-color="#45ef36"/>
    </linearGradient>
    <linearGradient id="linear-gradient-15" x1="106.94" y1="120.35" x2="106.94" y2="146.69" gradientUnits="userSpaceOnUse">
      <stop offset="0" stop-color="#13b040"/>
      <stop offset="1" stop-color="#334136"/>
    </linearGradient>
    <linearGradient id="linear-gradient-16" x1="125.75" y1="168.68" x2="198.98" y2="169.78" gradientTransform="translate(227.1) rotate(-180) scale(1 -1)" xlink:href="#linear-gradient-8"/>
    <linearGradient id="linear-gradient-17" x1="127.08" y1="115.17" x2="127.08" y2="149.98" gradientTransform="translate(227.1) rotate(-180) scale(1 -1)" gradientUnits="userSpaceOnUse">
      <stop offset="0" stop-color="#9ee66a"/>
      <stop offset="1" stop-color="#334136"/>
    </linearGradient>
    <linearGradient id="linear-gradient-18" x1="135.67" y1="147.5" x2="135.67" y2="165.18" xlink:href="#linear-gradient-8"/>
    <linearGradient id="linear-gradient-19" x1="85.2" y1="150.72" x2="85.2" y2="136.49" gradientTransform="matrix(1,0,0,1,0,0)" xlink:href="#linear-gradient-14"/>
    <linearGradient id="linear-gradient-20" x1="101.03" y1="150.72" x2="101.03" y2="136.49" gradientTransform="matrix(1,0,0,1,0,0)" xlink:href="#linear-gradient-14"/>
    <linearGradient id="linear-gradient-21" x1="116.86" y1="150.72" x2="116.86" y2="136.49" gradientTransform="matrix(1,0,0,1,0,0)" xlink:href="#linear-gradient-14"/>
    <linearGradient id="linear-gradient-22" x1="177.26" y1="120.31" x2="177.26" y2="146.57" xlink:href="#linear-gradient-15"/>
  </defs>
  <g id="Layer_1">
    <g>
      <g>
        <g>
          <g>
            <polygon class="cls-10" points="81.57 187.48 90.47 209.74 86.02 210.48 74.89 187.48 81.57 187.48"/>
            <g>
              <path class="cls-8" d="M78.03,207.28c.23,2.35,2.31,4.07,4.65,3.84l7.74-1.01c2.35-.23,4.06-2.31,3.84-4.65h0c-.23-2.35-2.31-4.07-4.65-3.84l-7.74,1.01c-2.35.23-4.06,2.31-3.84,4.65h0Z"/>
              <g>
                <path class="cls-7" d="M107.06,215.12c0-5.12-6.26-9.27-13.99-9.27s-13.99,4.15-13.99,9.27h27.98Z"/>
                <path class="cls-29" d="M87.13,206.73c3.22,4.98,13.91,5.98,19.5,6.15.27.72.43,1.47.43,2.24h-27.98c0-3.71,3.3-6.91,8.05-8.39Z"/>
              </g>
            </g>
          </g>
          <g>
            <path class="cls-6" d="M54.03,206.45c.98,2.14,3.52,3.08,5.66,2.1l6.98-3.49c2.14-.98,3.08-3.51,2.1-5.66h0c-.98-2.14-3.52-3.08-5.66-2.1l-6.98,3.49c-2.14.98-3.08,3.51-2.1,5.66h0Z"/>
            <g>
              <path class="cls-9" d="M84.02,204.32c-1.68-4.84-8.96-6.7-16.26-4.17s-11.85,8.52-10.17,13.35l26.43-9.19Z"/>
              <path class="cls-29" d="M62.45,202.94c4.68,3.65,15.1,1.08,20.43-.59.49.59.89,1.24,1.14,1.97l-26.43,9.19c-1.22-3.51.85-7.61,4.85-10.57Z"/>
            </g>
          </g>
          <g>
            <path class="cls-21" d="M46.63,182.42l-20.1,11.4s17.07,6.68,42.29,1.48l-22.19-12.88Z"/>
            <g>
              <path class="cls-23" d="M78.67,134.68c15.8.59,26.56,12.01,29.18,28,1.65,10.1,4.13,26.22-6.66,31.21-6.84,3.17-17.74,5.27-25.12,4.86h-1.25c-7.38.41-18.27-1.69-25.12-4.86-10.79-4.99-8.31-21.12-6.66-31.21,2.62-15.99,13.38-27.41,29.18-28h6.44Z"/>
              <path class="cls-22" d="M107.85,162.67c-1.55-9.46-5.95-17.32-12.55-22.28h-1.63c-15.8.59-26.56,12.01-29.18,28-1.56,9.53-3.85,24.43,4.97,30.27,1.91.14,3.72.18,5.37.09h1.25c7.38.41,18.27-1.69,25.12-4.86,10.79-4.99,8.31-21.12,6.66-31.21Z"/>
              <path class="cls-29" d="M94.64,139.51c6.59,5.56-2.73,9.74-7.35,10.7-8.63,1.79-17.82-1.02-25.27-5.38-2.82-1.65-7.98-4.64-2.53-7.1,5.78-2.6,12.32-2.91,18.55-2.44,5.33.4,12.31.6,16.6,4.22Z"/>
            </g>
            <g>
              <path class="cls-20" d="M66.9,140.75c10.3,1.1,20.75.57,30.18-1.22,7.29-1.38,16.77-4.02,22.86-8.45,9.21-6.72,11.39-16.75,11.81-27.42.09-2.21,1.23-5,1.6-7.23,1.06-6.37,2.29-12.74,2.86-19.18,1.35-15.24-1.23-35.36-9.22-48.66-11.72-19.47-38.46-23.27-59.03-23.17-12.11.06-24.38,1.53-35.43,6.79-10.33,4.92-20.23,13.13-25.47,23.39C-2.94,55.21.34,84.37,10.35,103.25c2.92,5.51,6.51,10.94,10.52,15.73,11.11,13.25,28.37,19.89,46.03,21.77Z"/>
              <path class="cls-28" d="M124.23,31.49s8.74-.87,11.08-9.33h-9.04s5.54-8.45,1.75-16.03c0,0-5.25,6.41-12.53,7l-.29-7.29s-7.29,5.54-15.74,6.12l24.77,19.53Z"/>
              <path class="cls-29" d="M131.33,53.73c-3.15,10.7-8.37,20.7-17.58,27.42-12.99,9.47-32.01,10-47.48,10-13.49,0-27.8-1.18-39.89-7.69-12.42-6.69-20.05-19.06-23.86-32.35,1.2,4.19-1.02,8.9-1.23,13.06-.58,11.75,2.68,23.22,7.39,33.87,4.26,9.66,9.16,19.96,17.48,26.79,17.68,14.51,41.48,16.55,63.42,14.3,7.67-.79,15.26-.46,22.7-2.79,17.01-5.31,16.82-21.33,19.74-35.65,3.68-18.09,5.82-36.69,1.16-54.87-.97,4.9-1.83,7.87-1.84,7.9Z"/>
              <path class="cls-3" d="M128.55,36.86c-3-2.38-6.87-2.58-9.51,1.52-2.46,3.82-5.15,9.41-9.94,10.64-5.36,1.38-10.47-2.76-14.94-5.1-9.09-4.77-19.52-7.77-29.62-4.36-5.29,1.79-10.2,4.82-14.27,8.62-9.78,9.1-12.88,23.91-9.11,36.55,3.12,10.44,12.22,18.36,13.18,29.54.46,5.31-1.88,10.69-.55,15.95,3.13,12.34,18.15,11.05,27.94,10.54,12.7-.67,27.57-1.93,38.19-9.68,9.21-6.72,11.39-16.75,11.81-27.42.75-10.55,4.23-20.77,4.48-31.59.23-10.06.15-22.3-4.61-31.42-.79-1.52-1.86-2.83-3.07-3.79Z"/>
              <g>
                <path class="cls-19" d="M109.85,122.74s0,2.13,5.47,5.17c0,0,10.94-6.99,10.94-11.86,0,0-10.03-1.52-16.42,6.69Z"/>
                <path class="cls-18" d="M115.62,99.64s16.72-2.13,17.94,18.85c0,0-13.07.3-23.71,4.26,0,0-8.51-13.07,5.78-23.1Z"/>
                <path class="cls-29" d="M133.2,115.13c-21.93,2.5-24.47-4.29-23.89-8.84-4.74,8.35.53,16.45.53,16.45,10.64-3.95,23.71-4.26,23.71-4.26-.07-1.2-.2-2.31-.36-3.36Z"/>
                <path class="cls-24" d="M116.72,101.47s8.46-1.19,13.34,8.22c0,0-6.31-4.76-17.15-4.41,0,0,1.31-2.38,3.81-3.81Z"/>
              </g>
              <path class="cls-26" d="M94.45,12.37c-.18,1.19-2.5,1.82-5.17,1.41-2.67-.41-4.69-1.71-4.51-2.9.18-1.19,2.5-1.82,5.18-1.41,2.67.41,4.69,1.71,4.51,2.9Z"/>
              <path class="cls-30" d="M128.01,74.75c-.97,0-1.88.59-2.62,1.58.41.5.66,1.17.66,1.91,0,1.55-1.09,2.8-2.43,2.81-.12.79-.19,1.62-.19,2.48,0,4.85,2.05,8.78,4.58,8.78s4.58-3.93,4.58-8.78-2.05-8.78-4.58-8.78Z"/>
              <path class="cls-30" d="M124.23,32.6c-.57,0-1.05-.43-1.11-1-.06-.61.38-1.16,1-1.22.32-.03,7.05-.82,9.63-7.11h-7.48c-.41,0-.78-.22-.98-.58-.19-.36-.18-.8.05-1.14.05-.07,4.42-6.9,2.31-13.4-2.04,2.01-6.45,5.63-12.07,6.08-.3.03-.6-.08-.83-.28-.23-.2-.36-.49-.37-.79l-.21-5.28c-2.71,1.71-8.31,4.75-14.63,5.18-.61.04-1.15-.42-1.19-1.03-.04-.61.42-1.14,1.03-1.19,8.01-.55,15.07-5.84,15.14-5.9.33-.25.77-.3,1.15-.12.37.18.62.55.64.96l.24,6.08c6.14-1.07,10.56-6.39,10.61-6.44.24-.29.61-.45.98-.4.37.04.7.27.87.61,3.01,6.03.64,12.42-.85,15.42h7.14c.35,0,.68.16.89.44.21.28.28.64.19.97-2.51,9.08-11.94,10.13-12.04,10.14-.04,0-.08,0-.11,0Z"/>
            </g>
            <path class="cls-30" d="M93.09,77.63c-1.5,0-2.88.8-4,2.14.92.75,1.55,2.1,1.55,3.66,0,2.36-1.42,4.28-3.17,4.28-.4,0-.78-.11-1.13-.29-.03.45-.06.9-.06,1.36,0,6.15,3.05,11.14,6.81,11.14s6.81-4.99,6.81-11.14-3.05-11.14-6.81-11.14Z"/>
          </g>
        </g>
        <rect class="cls-1" x="1" width="197.33" height="215.12"/>
      </g>
      <g>
        <polygon class="cls-30" points="162.23 123.41 194.13 123.41 194.13 115.39 168.91 115.39 162.23 123.41"/>
        <polygon class="cls-30" points="187.28 121.14 195.11 121.14 195.11 112.53 189.51 112.53 187.28 121.14"/>
        <path class="cls-2" d="M52.92,145.91c3.66-3.34,8.03-5.91,11.77-6.98,4.32-1.24,7.44,2.47,6.61,6.89-.57,3.03-3.34,5.23-4.72,7.85-3.14,5.97-5.22,13.78-13.51,13.4-4.41-.2-8.12-2.99-7.9-7.62.23-4.79,3.51-9.68,7.74-13.54Z"/>
        <rect class="cls-30" x="66.52" y="141.85" width="69.56" height="17.75" rx="5.56" ry="5.56"/>
        <g>
          <rect class="cls-14" x="135.42" y="126.75" width="34.1" height="14.56"/>
          <rect class="cls-27" x="135.42" y="135.57" width="34.1" height="5.74"/>
          <rect class="cls-25" x="137.26" y="128.28" width="30.53" height="2.29"/>
        </g>
        <rect class="cls-15" x="63.35" y="120.35" width="87.18" height="26.34" rx="5.56" ry="5.56"/>
        <path class="cls-29" d="M145.65,137.57h-76.05c-3.07,0-5.56-2.49-5.56-5.56v-8.71c-.42.78-.68,1.67-.68,2.62v15.21c0,3.07,2.49,5.56,5.56,5.56h76.05c3.07,0,5.56-2.49,5.56-5.56v-6.5c-.94,1.74-2.76,2.94-4.88,2.94Z"/>
        <path class="cls-5" d="M99.59,156.36c-6.32-1.23-13.62-.54-20.04-.79-7.2-.28-14.44-.62-21.64-.13-4.77.33-13.06.3-15.13,5.78-2.18,5.8,4.1,12.27,8.54,14.96,4.3,2.6,8.91,4.78,13.79,6.03,12.68,3.23,23.79-2,30.57-13.04,0,0,23.93-8.9,3.9-12.8Z"/>
        <path class="cls-29" d="M43.58,168.57c-.12-.4-.21-.81-.26-1.24,1.71,2.05,5.14,3.31,7.52,4.36,2.82,1.25,5.73,2.3,8.66,3.25,4.69,1.52,9.47,2.78,14.29,3.84.11.02,2.06.38,2.06.43v-1.49c6.96-.6,12.93-12.43,12.93-12.43,8.21-.35,15.29-3.03,18.81-4.61.15,4-11.88,8.48-11.88,8.48-6.33,10.31-16.62,15.89-28.7,13.47-4.74-.95-9.25-2.85-13.47-5.18-3.58-1.98-8.65-4.63-9.95-8.88Z"/>
        <path class="cls-17" d="M79.53,115.17h40.99c4.85,0,8.78,3.93,8.78,8.78v17.25c0,4.84-3.93,8.78-8.78,8.78h-40.99c-4.84,0-8.78-3.93-8.78-8.78v-17.25c0-4.84,3.93-8.78,8.78-8.78Z"/>
        <path class="cls-29" d="M75.02,116.43v15.17c0,4.85,3.93,8.78,8.78,8.78h40.98c1.65,0,3.19-.47,4.51-1.26v2.08c0,4.85-3.93,8.78-8.78,8.78h-40.98c-4.85,0-8.78-3.93-8.78-8.78v-17.25c0-3.2,1.72-5.99,4.27-7.52Z"/>
        <path class="cls-26" d="M120.98,117.78c-.39.63.38,1.81,1.71,2.63,1.33.82,2.73.97,3.12.34.39-.63-.38-1.81-1.71-2.63-1.33-.82-2.73-.97-3.12-.34Z"/>
        <path class="cls-4" d="M132.65,165.18s-12.83-.61-12.53-8.25c0,0,17.11-15.89,30.25-6.42,0,0,6.72,9.78-17.72,14.67Z"/>
        <path class="cls-29" d="M135.95,160.47s-10.61-.51-12.3-6.34c-2.19,1.57-3.52,2.8-3.52,2.8-.31,7.64,12.53,8.25,12.53,8.25,13.98-2.8,17.76-7.19,18.44-10.44-2.68,2.09-7.3,4.16-15.15,5.73Z"/>
        <rect class="cls-13" x="81.02" y="136.49" width="8.36" height="14.23"/>
        <rect class="cls-11" x="96.85" y="136.49" width="8.36" height="14.23"/>
        <rect class="cls-16" x="112.68" y="136.49" width="8.36" height="14.23"/>
        <rect class="cls-12" x="159.75" y="120.31" width="35.02" height="26.27"/>
        <polygon class="cls-29" points="160.73 137.23 160.73 120.31 159.75 120.31 159.75 146.57 194.78 146.57 194.78 137.23 160.73 137.23"/>
        <g>
          <rect class="cls-30" x="164.44" y="126.18" width="3.88" height="14.23"/>
          <rect class="cls-30" x="171.7" y="126.18" width="3.88" height="14.23"/>
          <rect class="cls-30" x="178.97" y="126.18" width="3.88" height="14.23"/>
          <rect class="cls-30" x="186.23" y="126.18" width="3.88" height="14.23"/>
        </g>
        <rect class="cls-24" x="161.5" y="122.06" width="31.33" height="1.75"/>
      </g>
    </g>
  </g>
</svg>