<?xml version="1.0" encoding="UTF-8"?>
<svg xmlns="http://www.w3.org/2000/svg" xmlns:xlink="http://www.w3.org/1999/xlink" viewBox="0 0 250.21 29.59">
  <defs>
    <style>
      .cls-1 {
        fill: url(#linear-gradient-8);
      }

      .cls-2 {
        fill: url(#linear-gradient-7);
      }

      .cls-3 {
        fill: url(#linear-gradient-5);
      }

      .cls-4 {
        fill: url(#linear-gradient-6);
      }

      .cls-5 {
        fill: url(#linear-gradient-9);
      }

      .cls-6 {
        fill: url(#linear-gradient-4);
      }

      .cls-7 {
        fill: url(#linear-gradient-3);
      }

      .cls-8 {
        fill: url(#linear-gradient-2);
      }

      .cls-9 {
        fill: url(#linear-gradient);
      }

      .cls-10 {
        isolation: isolate;
      }

      .cls-11 {
        fill: #c0fffa;
      }

      .cls-12 {
        fill: #fff;
      }

      .cls-13 {
        fill: #1a1a1a;
        mix-blend-mode: multiply;
        opacity: .3;
      }

      .cls-14 {
        fill: url(#GradientFill_1);
      }

      .cls-15, .cls-16, .cls-17 {
        opacity: .2;
      }

      .cls-15, .cls-17 {
        mix-blend-mode: overlay;
      }

      .cls-16 {
        fill: #15685c;
        mix-blend-mode: darken;
      }

      .cls-18 {
        fill: url(#Unbenannter_Verlauf_89);
      }

      .cls-17 {
        fill: #b6fbff;
      }
    </style>
    <linearGradient id="GradientFill_1" data-name="GradientFill 1" x1="133.58" y1="23.48" x2="133.58" y2="6.11" gradientUnits="userSpaceOnUse">
      <stop offset="0" stop-color="#390800"/>
      <stop offset="1" stop-color="#9f5829"/>
    </linearGradient>
    <linearGradient id="Unbenannter_Verlauf_89" data-name="Unbenannter Verlauf 89" x1="82.66" y1="21.05" x2="82.66" y2="8.54" gradientUnits="userSpaceOnUse">
      <stop offset="0" stop-color="#1977c0"/>
      <stop offset="1" stop-color="#7dcee7"/>
    </linearGradient>
    <linearGradient id="linear-gradient" x1="-.32" y1="11.38" x2="4.26" y2="18.14" gradientUnits="userSpaceOnUse">
      <stop offset="0" stop-color="#17caac"/>
      <stop offset="1" stop-color="#0fa798"/>
    </linearGradient>
    <linearGradient id="linear-gradient-2" x1="3.84" y1="3.62" x2="7.43" y2="9.55" gradientUnits="userSpaceOnUse">
      <stop offset="0" stop-color="#abfde7"/>
      <stop offset="1" stop-color="#0cada2"/>
    </linearGradient>
    <linearGradient id="linear-gradient-3" x1="9.66" y1="-1.31" x2="17.12" y2="3.51" xlink:href="#linear-gradient-2"/>
    <linearGradient id="linear-gradient-4" x1="19.39" y1="2.53" x2="25.11" y2="8.09" xlink:href="#linear-gradient"/>
    <linearGradient id="linear-gradient-5" x1="3.02" y1="20.17" x2="9.72" y2="26.4" gradientUnits="userSpaceOnUse">
      <stop offset="0" stop-color="#0fa798"/>
      <stop offset="1" stop-color="#138386"/>
    </linearGradient>
    <linearGradient id="linear-gradient-6" x1="19.52" y1="22.42" x2="24.46" y2="23.83" xlink:href="#linear-gradient-5"/>
    <linearGradient id="linear-gradient-7" x1="24.46" y1="11.43" x2="29.31" y2="16.99" xlink:href="#linear-gradient"/>
    <linearGradient id="linear-gradient-8" x1="10.62" y1="24.46" x2="20.49" y2="30.28" xlink:href="#linear-gradient-5"/>
    <linearGradient id="linear-gradient-9" x1="7.2" y1="7.2" x2="19.31" y2="19.31" gradientUnits="userSpaceOnUse">
      <stop offset="0" stop-color="#1ea584"/>
      <stop offset="1" stop-color="#016271"/>
    </linearGradient>
  </defs>
  <g class="cls-10">
    <g id="Ebene_2" data-name="Ebene 2">
      <g id="Decor">
        <g>
          <g>
            <rect class="cls-14" x="16.96" y="6.11" width="233.24" height="17.38" rx="8.69" ry="8.69"/>
            <rect class="cls-12" x="19.06" y="7.76" width="229.05" height="14.07" rx="7.04" ry="7.04"/>
            <rect class="cls-18" x="20.11" y="8.54" width="125.11" height="12.51" rx="6.25" ry="6.25"/>
          </g>
          <g>
            <polygon class="cls-13" points="19.84 1.53 8.23 1.53 8.22 1.53 .03 9.71 0 9.75 0 21.37 .02 21.4 8.22 29.59 8.24 29.59 19.84 29.59 19.87 29.57 28.06 21.37 28.06 21.32 28.06 9.76 28.06 9.75 19.85 1.53 19.84 1.53"/>
            <polygon class="cls-9" points="4.11 18.14 4.11 9.94 4.1 9.93 3.78 9.79 .85 8.54 .24 8.28 .03 8.19 0 8.22 0 19.84 .02 19.87 .12 19.83 .84 19.52 .98 19.47 1.77 19.13 2.67 18.76 2.97 18.63 4.05 18.18 4.07 18.17 4.11 18.15 4.12 18.15 4.12 18.14 4.11 18.14"/>
            <polygon class="cls-8" points="8.57 .82 8.26 .06 8.23 0 8.22 0 .03 8.19 .24 8.28 .85 8.54 3.78 9.79 4.1 9.93 4.11 9.94 4.11 9.92 4.63 9.41 8.15 5.88 8.81 5.22 9.92 4.12 9.7 3.59 8.57 .82"/>
            <polygon class="cls-7" points="8.23 0 8.26 .06 8.57 .82 9.7 3.59 9.92 4.12 9.92 4.11 18.14 4.11 18.16 4.13 18.17 4.11 19.16 1.68 19.51 .83 19.54 .77 19.85 0 19.84 0 8.23 0"/>
            <polygon class="cls-6" points="19.54 .77 19.51 .83 19.16 1.68 18.17 4.11 18.16 4.13 21.15 7.13 21.16 7.14 21.17 7.14 23.92 9.9 23.98 9.87 23.98 9.87 24.53 9.65 27.24 8.56 28.06 8.23 28.06 8.22 19.85 0 19.54 .77"/>
            <polygon class="cls-3" points=".02 19.87 8.22 28.06 8.24 28.06 9.92 23.94 4.12 18.15 .02 19.87"/>
            <polygon class="cls-4" points="18.17 23.92 19.87 28.04 28.06 19.84 28.06 19.79 23.93 18.16 18.17 23.92"/>
            <polygon class="cls-2" points="24.53 9.65 23.98 9.87 23.98 9.87 23.92 9.9 23.95 9.92 23.95 18.14 23.93 18.16 23.95 18.16 24.07 18.21 27.23 19.47 27.24 19.47 28.06 19.79 28.06 8.23 27.24 8.56 24.53 9.65"/>
            <polygon class="cls-1" points="18.14 23.95 9.92 23.95 9.92 23.94 8.24 28.06 19.84 28.06 19.87 28.04 18.17 23.92 18.14 23.95"/>
            <polygon class="cls-16" points="8.56 .82 .82 8.56 .82 19.5 8.56 27.24 19.5 27.24 27.24 19.5 27.24 8.56 19.5 .82 8.56 .82"/>
            <polygon class="cls-5" points="18.14 4.11 9.92 4.11 9.92 4.12 4.63 9.41 4.11 9.92 4.11 18.14 4.12 18.15 5.45 19.48 6.89 20.91 8.73 22.76 9.8 23.83 9.92 23.94 9.92 23.95 18.14 23.95 18.17 23.92 21.25 20.84 23.95 18.14 23.95 9.92 18.16 4.13 18.14 4.11"/>
            <path class="cls-11" d="M8.49,5.61c-.41.28-.75.69-1.11,1.04-.4.39-.81.78-1.21,1.17-.72.69-1.5,1.37-2.1,2.17,0,0,0,0,0,.01,0,0,0,0,0,0,0,.01,0,.02,0,.04-.04.46,0,.95,0,1.42,0,.48,0,.96,0,1.44,0,.96-.05,1.93,0,2.89,0,.03.05.03.05,0,.06-.96,0-1.93,0-2.89,0-.46-.01-.92,0-1.39,0-.48.05-.98,0-1.45,0,0,0,0,0,0,.7-.76,1.41-1.5,2.15-2.21.39-.37.78-.75,1.17-1.13.36-.34.78-.67,1.08-1.07.02-.03-.02-.06-.05-.05Z"/>
            <path class="cls-11" d="M9.77,4.2c-.18.14-.34.32-.5.48-.16.16-.34.32-.47.51-.02.03.02.05.04.03.18-.14.33-.32.48-.49.16-.16.34-.31.48-.49.02-.03,0-.08-.04-.05Z"/>
            <path class="cls-11" d="M8.32.06s-.07-.02-.06.02c.19.64.42,1.26.66,1.88.23.58.44,1.2.79,1.72,0,0,.02,0,.02,0-.17-.62-.48-1.2-.72-1.8-.24-.6-.46-1.21-.69-1.81Z"/>
            <path class="cls-11" d="M1.98,8.98c-.56-.24-1.13-.53-1.71-.71-.03-.01-.05.04-.02.06.57.31,1.2.53,1.79.79.57.24,1.13.49,1.71.71.03.01.05-.04.02-.05-.59-.28-1.19-.53-1.79-.79Z"/>
            <path class="cls-11" d="M4.08,16.29c-.06.58-.08,1.24,0,1.82,0,.04.06.04.07,0,.07-.58.05-1.24,0-1.82,0-.03-.05-.03-.05,0Z"/>
            <path class="cls-11" d="M17.13,23.92c-1.19-.04-2.4,0-3.59,0-.58,0-1.16,0-1.74,0-.61,0-1.25-.05-1.85.03,0,0,0,0,0,0-.02,0-.03,0-.04.02-.19.28-.29.62-.38.94,0,.03.03.04.04.01.06-.18.15-.35.22-.52.06-.14.13-.26.19-.4.6.08,1.23.02,1.83.02.58,0,1.16,0,1.74,0,1.2,0,2.4.04,3.59,0,.06,0,.06-.09,0-.1Z"/>
            <path class="cls-11" d="M18.01,23.96c-.05-.03-.11-.03-.17-.03-.07,0-.14,0-.2,0-.08,0-.08.12,0,.12.07,0,.14,0,.2,0,.06,0,.11,0,.17-.03.02-.01.02-.05,0-.06Z"/>
            <path class="cls-11" d="M23.94,16.85c0-.37,0-.73,0-1.1,0-.75.03-1.51-.04-2.26,0-.02-.03-.02-.03,0-.07.75-.04,1.51-.04,2.26,0,.37,0,.73,0,1.1,0,.33-.04.7.03,1.02,0,.04,0,.08,0,.12,0,.04,0,.09,0,.13-.14.08-.25.26-.36.38-.14.14-.28.28-.42.41-.03.03.01.06.04.04.16-.13.32-.27.46-.41.1-.1.24-.2.31-.33,0,0,.02,0,.03,0,.04-.06.02-.14.02-.21,0-.08,0-.16-.01-.24,0,0,0,0,0,0,.04-.29,0-.6,0-.89Z"/>
            <path class="cls-11" d="M23.91,10.16c-.06.44-.02.91-.01,1.36,0,.45,0,.91.03,1.36,0,.02.03.02.03,0,.03-.45.03-.91.03-1.36,0-.45.04-.92-.01-1.36,0-.04-.06-.04-.07,0Z"/>
            <path class="cls-11" d="M13.96,4.08c-.68-.06-1.37-.02-2.05-.02-.32,0-.65,0-.97,0-.31,0-.68-.06-.97.05-.01,0-.01.02,0,.02.27.1.63.05.92.05.34,0,.68,0,1.03,0,.68,0,1.38.04,2.05-.02.04,0,.04-.06,0-.07Z"/>
            <path class="cls-11" d="M14.17,4.13s0,0,0,0,0,0,0,0Z"/>
            <path class="cls-11" d="M17.57,4.08c-.48-.08-1.01-.03-1.5-.03-.27,0-.53,0-.8,0-.23,0-.47-.03-.69.04-.02,0-.02.04,0,.05.22.06.46.04.69.04.27,0,.53,0,.8,0,.49,0,1.02.06,1.5-.03.03,0,.03-.06,0-.07Z"/>
            <path class="cls-11" d="M19.54,5.46c-.47-.47-.92-.96-1.41-1.4.02,0,.03,0,.04-.03.23-.58.47-1.16.72-1.74.22-.51.48-1.02.66-1.55.01-.03-.04-.05-.05-.02-.3.49-.52,1.05-.74,1.58-.24.57-.46,1.14-.66,1.72,0,0,0,0,0,.01,0,0,0,0,0,0-.03-.02-.06.01-.04.04.46.53.98,1.01,1.47,1.51.43.44.86.9,1.35,1.28.04.03.09-.04.06-.07-.46-.44-.93-.87-1.38-1.32Z"/>
            <path class="cls-11" d="M21.17,7.11s-.03.01-.01.03c.69.52,1.14,1.29,1.81,1.82.04.03.1-.02.06-.06-.57-.62-1.15-1.31-1.85-1.79Z"/>
            <path class="cls-11" d="M27.08,8.49c-.56.18-1.1.44-1.64.67-.48.2-1.02.37-1.44.7-.03.02,0,.07.03.05.99-.54,2.08-.84,3.09-1.34.04-.02.01-.09-.03-.07Z"/>
            <path class="cls-11" d="M27.2,19.42c-.54-.25-1.1-.48-1.65-.71-.5-.21-1.06-.48-1.61-.51-.01,0-.02.02,0,.02.53.23,1.09.38,1.62.61.53.23,1.06.48,1.6.69.06.02.11-.08.05-.11Z"/>
            <path class="cls-11" d="M22.8,19.22c-.74.7-1.45,1.43-2.17,2.14-.7.69-1.44,1.36-2.1,2.09-.02.02,0,.05.03.03.77-.57,1.43-1.32,2.12-2,.74-.73,1.49-1.44,2.21-2.19.05-.05-.03-.13-.08-.08Z"/>
            <path class="cls-11" d="M18.22,23.84s-.07-.02-.06.02c.15.54.33,1.06.55,1.58.19.47.38,1.01.66,1.43.02.03.07.01.06-.03-.16-.51-.44-.99-.64-1.49-.2-.5-.39-1.01-.57-1.52Z"/>
            <path class="cls-11" d="M19.5,27.09s-.06,0-.05.02c.04.12.07.24.11.36.03.1.05.2.12.28.02.02.05,0,.05-.02,0-.11-.06-.22-.1-.33-.04-.11-.09-.21-.13-.32Z"/>
            <path class="cls-11" d="M9.29,25.45c-.45.73-.64,1.59-.99,2.36-.01.02.02.04.04.02.43-.75.59-1.6,1.01-2.35.02-.04-.04-.07-.06-.03Z"/>
            <path class="cls-11" d="M4.92,18.98c-.26-.27-.51-.62-.82-.84-.02-.01-.04.01-.03.03.17.33.51.62.78.88.31.3.64.56.96.84.01,0,.03,0,.02-.02-.32-.28-.61-.59-.91-.89Z"/>
            <path class="cls-11" d="M6.34,20.34s-.04,0-.03.03c1.05,1.2,2.15,2.38,3.38,3.4.03.02.07-.01.04-.04-1.15-1.11-2.31-2.2-3.39-3.38Z"/>
            <path class="cls-11" d="M2.64,18.75c-.42.04-.84.24-1.22.41-.24.11-.47.24-.72.34-.2.08-.39.19-.58.31-.02.01,0,.06.02.04.41-.16.78-.37,1.18-.54.44-.19.9-.31,1.34-.5.03-.01.02-.07-.02-.06Z"/>
            <path class="cls-11" d="M4.02,18.17c-.19.04-.37.14-.55.21-.17.07-.34.13-.49.22-.02.01,0,.04.02.04.19-.05.38-.13.57-.2.16-.06.34-.11.48-.2.03-.02.01-.07-.03-.06Z"/>
            <g class="cls-15">
              <path class="cls-12" d="M18.14,4.11h-3.55c-3.31,1.94-6.63,3.86-9.96,5.3l-.51.51v1.41c4.71-1.79,9.39-4.64,14.09-7.16l-.04-.04-.02-.02Z"/>
              <path class="cls-12" d="M4.11,12.91v.59c3.75-1.29,7.29-3.22,10.79-5.06,1.65-.87,3.31-1.75,4.99-2.58l-.34-.34c-5.14,2.52-10.28,5.6-15.43,7.39Z"/>
              <path class="cls-12" d="M14.9,11.59c-3.49,1.7-7.04,3.48-10.79,4.57v.34c3.75-1.06,7.29-2.82,10.79-4.5,2.51-1.21,5.05-2.45,7.68-3.45l-.33-.33c-2.51.99-4.94,2.2-7.35,3.37Z"/>
              <path class="cls-12" d="M9.8,23.83l.11.11h0s.8,0,.8,0c1.4-.39,2.79-.84,4.17-1.27,2.09-.66,4.21-1.34,6.35-1.84l.6-.6c-2.36.52-4.67,1.29-6.95,2.02-1.68.54-3.38,1.1-5.1,1.56Z"/>
              <path class="cls-12" d="M4.11,18.1v.04h.01s1.33,1.34,1.33,1.34c3.25-.84,6.37-2.21,9.44-3.51,2.95-1.25,5.95-2.55,9.05-3.4v-2.35c-3.11.96-6.1,2.36-9.05,3.69-3.49,1.58-7.05,3.25-10.79,4.18Z"/>
              <path class="cls-12" d="M6.89,20.91l1.85,1.85c2.09-.57,4.14-1.29,6.16-2,2.96-1.03,5.96-2.1,9.05-2.66v-3.09c-3.1.73-6.1,1.93-9.05,3.09-2.62,1.03-5.28,2.09-8.01,2.82Z"/>
            </g>
            <path class="cls-17" d="M8.22,0L0,8.22v2.59c.27.27.54.53.82.78.99.89,2.07,1.68,3.22,2.36.02.01.05.03.07.04,0,0,.01,0,.02.01.83.49,1.71.91,2.61,1.27.16.06.31.12.47.18.81.3,1.65.55,2.51.74,1.15.26,2.34.41,3.56.46.24,0,.49.01.74.01,3.57,0,6.92-.95,9.81-2.6.03-.02.07-.04.1-.06,0,0,0,0,.01,0,1.18-.69,2.28-1.49,3.29-2.4.28-.25.55-.51.82-.78v-2.59L19.84,0h-11.62Z"/>
            <path class="cls-17" d="M14.03,22.89c-5.8.03-9.76-5-10-4.7-.27.33,3.87,6.85,10,6.82,6.08-.04,10.12-6.49,9.86-6.82-.25-.3-4.11,4.67-9.86,4.7Z"/>
          </g>
        </g>
      </g>
    </g>
  </g>
</svg>