<?xml version="1.0" encoding="UTF-8"?>
<svg id="Ebene_2" xmlns="http://www.w3.org/2000/svg" xmlns:xlink="http://www.w3.org/1999/xlink" viewBox="0 0 459.65 648.05">
  <defs>
    <style>
      .cls-1 {
        fill: url(#Unbenannter_Verlauf_27-2);
      }

      .cls-1, .cls-2, .cls-3, .cls-4, .cls-5, .cls-6, .cls-7 {
        stroke: #15033a;
        stroke-miterlimit: 10;
      }

      .cls-1, .cls-6, .cls-7 {
        stroke-width: 6px;
      }

      .cls-2 {
        fill: url(#Unbenannter_Verlauf_31-2);
      }

      .cls-2, .cls-3, .cls-4, .cls-5 {
        stroke-width: 4px;
      }

      .cls-3 {
        fill: url(#Unbenannter_Verlauf_31-3);
      }

      .cls-4 {
        fill: url(#Unbenannter_Verlauf_31-4);
      }

      .cls-8 {
        fill: #fff;
      }

      .cls-5 {
        fill: url(#Unbenannter_Verlauf_31);
      }

      .cls-6, .cls-9 {
        fill: url(#Unbenannter_Verlauf_27);
      }

      .cls-7 {
        fill: none;
      }

      .cls-10 {
        fill: #15033a;
      }

      .cls-11 {
        clip-path: url(#clippath);
      }
    </style>
    <linearGradient id="Unbenannter_Verlauf_27" data-name="Unbenannter Verlauf 27" x1="135.25" y1="250.37" x2="456.65" y2="250.37" gradientUnits="userSpaceOnUse">
      <stop offset="0" stop-color="#a6e6ff"/>
      <stop offset="1" stop-color="#f7931e"/>
    </linearGradient>
    <clipPath id="clippath">
      <path class="cls-6" d="M144.66,494.6c-7.4-5.86-8.4-19.81-9.2-30.93-.11-1.49-.31-4.78-.16-10.44.45-17.13,3.43-30.54,4.33-34.43,39.74-171.39,63.11-218.9,63.11-218.91C254.49,94.67,371.95-17.77,422.16,6.29c47.06,22.55,48.73,171.57-12.26,269.55-52.35,84.11-141.68,115.85-184.7,177.4-1.53,2.19-18.17,26.12-48,38.61-8.19,3.43-23.74,9.72-32.54,2.76Z"/>
    </clipPath>
    <linearGradient id="Unbenannter_Verlauf_27-2" data-name="Unbenannter Verlauf 27" x1="243.11" y1="90.97" x2="584.06" y2="90.97" xlink:href="#Unbenannter_Verlauf_27"/>
    <linearGradient id="Unbenannter_Verlauf_31" data-name="Unbenannter Verlauf 31" x1="89.48" y1="567.65" x2="182.44" y2="567.65" gradientUnits="userSpaceOnUse">
      <stop offset="0" stop-color="#15033a"/>
      <stop offset="1" stop-color="#276c8d"/>
    </linearGradient>
    <linearGradient id="Unbenannter_Verlauf_31-2" data-name="Unbenannter Verlauf 31" x1="2" y1="516.28" x2="148.3" y2="516.28" xlink:href="#Unbenannter_Verlauf_31"/>
    <linearGradient id="Unbenannter_Verlauf_31-3" data-name="Unbenannter Verlauf 31" x1="124.65" y1="322.58" x2="183.56" y2="322.58" xlink:href="#Unbenannter_Verlauf_31"/>
    <linearGradient id="Unbenannter_Verlauf_31-4" data-name="Unbenannter Verlauf 31" x1="270.02" y1="313.95" x2="435.99" y2="313.95" xlink:href="#Unbenannter_Verlauf_31"/>
  </defs>
  <g id="Ebene_1-2" data-name="Ebene_1">
    <g>
      <path class="cls-9" d="M144.66,494.6c-7.4-5.86-8.4-19.81-9.2-30.93-.11-1.49-.31-4.78-.16-10.44.45-17.13,3.43-30.54,4.33-34.43,39.74-171.39,63.11-218.9,63.11-218.91C254.49,94.67,371.95-17.77,422.16,6.29c47.06,22.55,48.73,171.57-12.26,269.55-52.35,84.11-141.68,115.85-184.7,177.4-1.53,2.19-18.17,26.12-48,38.61-8.19,3.43-23.74,9.72-32.54,2.76Z"/>
      <g class="cls-11">
        <path class="cls-1" d="M246.49,61.95c-15.58,62.09,25.18,127.05,73,153,110.66,60.04,275.54-79.93,264-124-7.89-30.12-99.4-20.12-120-76-7.99-21.67.56-37.34-13-51-21.96-22.12-70.17-6.97-86-2-25.91,8.14-100.86,31.7-118,100Z"/>
      </g>
      <path class="cls-7" d="M144.66,494.6c-7.4-5.86-8.4-19.81-9.2-30.93-.11-1.49-.31-4.78-.16-10.44.45-17.13,3.43-30.54,4.33-34.43,39.74-171.39,63.11-218.9,63.11-218.91C254.49,94.67,371.95-17.77,422.16,6.29c47.06,22.55,48.73,171.57-12.26,269.55-52.35,84.11-141.68,115.85-184.7,177.4-1.53,2.19-18.17,26.12-48,38.61-8.19,3.43-23.74,9.72-32.54,2.76Z"/>
    </g>
    <path class="cls-5" d="M169.77,490.5c22.28,10.04,8.7,78.55,7.3,85.57-7.3,36.84-24.7,69.57-33.39,67.83-5.94-1.19-4.63-17.82-12.52-19.83-10.21-2.59-19.61,23.46-28.17,21.91-11.64-2.1-22.94-55.32-1.04-100.18,15.8-32.36,50.26-63.22,67.83-55.31Z"/>
    <path class="cls-2" d="M144.96,465.41c-15.11-19.21-78.33,10.46-84.81,13.5-34,15.95-61.58,40.72-57.8,48.73,2.58,5.48,18.42.21,22.26,7.38,4.97,9.29-18.05,24.68-14.49,32.62,4.84,10.79,59.21,8.95,97.48-23.09,27.61-23.12,49.27-64,37.36-79.14Z"/>
    <path class="cls-3" d="M180.33,266.44c-7.44-4.25-28.04,14.33-39.65,33.39-19.93,32.72-19.06,76.21-9.39,79.31,10.35,3.32,31.7-39.39,33.39-42.78,13.01-26.04,24.75-64.72,15.65-69.92Z"/>
    <path class="cls-4" d="M434.95,223.66c3.3,1.38-1.92,14.29-6.26,46.96-6.64,49.94-1.05,69.54-15.65,80.35-8.99,6.66-13.92,1.31-29.22,10.44-15.83,9.45-14.4,17.48-27.13,24-14.23,7.29-21.3-.05-43.83,3.13-26.44,3.74-41.66,17.37-42.78,15.65-1.93-2.95,51.14-30.09,96-80.35,45.4-50.86,62.34-102.9,68.87-100.18Z"/>
    <g>
      <path class="cls-10" d="M388.24,62.5c-4.74,0-9.1,1.59-12.66,4.25,2.92,1.49,4.89,4.17,4.89,7.27,0,4.7-4.49,8.5-10.03,8.5-1.27,0-2.46-.22-3.58-.58-.11.89-.18,1.79-.18,2.71,0,12.23,9.65,22.14,21.55,22.14s21.55-9.92,21.55-22.14-9.65-22.14-21.55-22.14Z"/>
      <circle class="cls-8" cx="373.49" cy="74.95" r="8"/>
    </g>
  </g>
</svg>