<?xml version="1.0" encoding="UTF-8"?>
<svg id="Layer_1" data-name="Layer 1" xmlns="http://www.w3.org/2000/svg" xmlns:xlink="http://www.w3.org/1999/xlink" viewBox="0 0 198.33 215.12">
  <defs>
    <style>
      .cls-1 {
        fill: url(#linear-gradient-3);
        stroke: #0e0e3f;
      }

      .cls-1, .cls-2, .cls-3, .cls-4, .cls-5, .cls-6, .cls-7, .cls-8, .cls-9, .cls-10, .cls-11, .cls-12 {
        stroke-width: 2px;
      }

      .cls-1, .cls-2, .cls-8, .cls-9, .cls-10, .cls-11 {
        stroke-linecap: round;
        stroke-linejoin: round;
      }

      .cls-2 {
        fill: url(#linear-gradient-10);
      }

      .cls-2, .cls-3, .cls-4, .cls-5, .cls-6, .cls-7, .cls-8, .cls-9, .cls-10, .cls-11, .cls-12 {
        stroke: #15033a;
      }

      .cls-13 {
        opacity: .5;
      }

      .cls-13, .cls-14 {
        fill: #fff;
      }

      .cls-3 {
        fill: url(#linear-gradient-4);
      }

      .cls-3, .cls-4, .cls-5, .cls-6, .cls-7, .cls-12 {
        stroke-miterlimit: 10;
      }

      .cls-4 {
        fill: url(#linear-gradient-2);
      }

      .cls-5 {
        fill: url(#linear-gradient-5);
      }

      .cls-15 {
        fill: #2a688a;
      }

      .cls-6 {
        fill: url(#linear-gradient-12);
      }

      .cls-7 {
        fill: url(#linear-gradient-11);
      }

      .cls-8 {
        fill: url(#linear-gradient-9);
      }

      .cls-9 {
        fill: url(#linear-gradient-6);
      }

      .cls-10 {
        fill: url(#linear-gradient-8);
      }

      .cls-11 {
        fill: url(#linear-gradient-7);
      }

      .cls-12 {
        fill: url(#linear-gradient);
      }

      .cls-16 {
        opacity: .2;
      }

      .cls-16, .cls-17 {
        fill: #15033a;
      }
    </style>
    <linearGradient id="linear-gradient" x1="504.3" y1="-35.05" x2="520.63" y2="-35.05" gradientTransform="translate(663.98 180.05) rotate(173.95) scale(1 -1)" gradientUnits="userSpaceOnUse">
      <stop offset="0" stop-color="#ee2a7b"/>
      <stop offset=".99" stop-color="#262262"/>
    </linearGradient>
    <linearGradient id="linear-gradient-2" x1="662.11" y1="-2.04" x2="690.09" y2="-2.04" gradientTransform="translate(833.7 198.4) rotate(179.41) scale(1 -1)" gradientUnits="userSpaceOnUse">
      <stop offset="0" stop-color="#fbb040"/>
      <stop offset="1" stop-color="#ef4136"/>
    </linearGradient>
    <linearGradient id="linear-gradient-3" x1="1605.45" y1="-81.32" x2="1621.04" y2="-81.32" gradientTransform="translate(1410.26 1169.77) rotate(-145.43) scale(1 -1)" gradientUnits="userSpaceOnUse">
      <stop offset="0" stop-color="#2b437a"/>
      <stop offset="1" stop-color="#0f0d26"/>
    </linearGradient>
    <linearGradient id="linear-gradient-4" x1="456.23" y1="180.42" x2="472.56" y2="180.42" gradientTransform="translate(569.84 -20.09) rotate(174.53) scale(1 -1)" xlink:href="#linear-gradient"/>
    <linearGradient id="linear-gradient-5" x1="593.73" y1="207.89" x2="621.71" y2="207.89" gradientTransform="translate(739.37) rotate(-180) scale(1 -1)" xlink:href="#linear-gradient-2"/>
    <linearGradient id="linear-gradient-6" x1="108.85" y1="174.87" x2="109.48" y2="192.29" gradientUnits="userSpaceOnUse">
      <stop offset="0" stop-color="#277592"/>
      <stop offset="1" stop-color="#262262"/>
    </linearGradient>
    <linearGradient id="linear-gradient-7" x1="132.99" y1="126.65" x2="140.41" y2="209.01" xlink:href="#linear-gradient-6"/>
    <linearGradient id="linear-gradient-8" x1="144.11" y1="133.92" x2="150.65" y2="206.58" gradientUnits="userSpaceOnUse">
      <stop offset="0" stop-color="#fff"/>
      <stop offset="1" stop-color="#d3e6ed"/>
    </linearGradient>
    <linearGradient id="linear-gradient-9" x1="128.06" y1="-4.58" x2="133.84" y2="153.43" xlink:href="#linear-gradient-6"/>
    <linearGradient id="linear-gradient-10" x1="147.31" y1=".49" x2="151.73" y2="121.1" xlink:href="#linear-gradient-8"/>
    <linearGradient id="linear-gradient-11" x1="180.44" y1="112.44" x2="178.96" y2="128.66" gradientUnits="userSpaceOnUse">
      <stop offset="0" stop-color="#fb6840"/>
      <stop offset="1" stop-color="#a82d26"/>
    </linearGradient>
    <linearGradient id="linear-gradient-12" x1="184.07" y1="95.02" x2="181.34" y2="125.12" gradientUnits="userSpaceOnUse">
      <stop offset="0" stop-color="#fbb040"/>
      <stop offset="1" stop-color="#ef4136"/>
    </linearGradient>
  </defs>
  <g>
    <path class="cls-12" d="M142.54,200.24c.25,2.34,2.35,4.04,4.69,3.79l7.73-1.09c2.34-.25,4.04-2.35,3.79-4.69h0c-.25-2.35-2.35-4.04-4.69-3.79l-7.73,1.09c-2.34.25-4.04,2.35-3.79,4.69h0Z"/>
    <g>
      <path class="cls-4" d="M171.65,207.78c-.05-5.12-6.36-9.21-14.08-9.13-7.73.08-13.95,4.29-13.89,9.42l27.98-.29Z"/>
      <path class="cls-16" d="M151.64,199.6c3.27,4.95,13.97,5.84,19.56,5.95.28.71.44,1.46.45,2.23l-27.98.29c-.04-3.71,3.23-6.94,7.97-8.47Z"/>
    </g>
  </g>
  <g>
    <polygon class="cls-1" points="133.66 177.27 128.36 200.65 124.27 198.74 128.16 173.48 133.66 177.27"/>
    <g>
      <path class="cls-3" d="M116.61,204.69c.23,2.35,2.31,4.06,4.65,3.84l7.74-1.01c2.35-.22,4.07-2.31,3.84-4.65h0c-.23-2.35-2.31-4.07-4.65-3.84l-7.74,1.01c-2.35.23-4.07,2.31-3.84,4.65h0Z"/>
      <g>
        <path class="cls-5" d="M145.64,212.53c0-5.12-6.26-9.27-13.99-9.27s-13.99,4.15-13.99,9.27h27.98Z"/>
        <path class="cls-16" d="M125.72,204.14c3.22,4.98,13.91,5.98,19.5,6.15.27.72.43,1.47.43,2.24h-27.98c0-3.71,3.3-6.91,8.05-8.39Z"/>
      </g>
    </g>
  </g>
  <g>
    <g>
      <path class="cls-9" d="M108.42,179.7l-20.1,11.4s17.07,6.68,42.29,1.48l-22.19-12.88Z"/>
      <g>
        <path class="cls-11" d="M140.46,131.96c15.8.59,26.56,12.01,29.18,28,1.65,10.1,4.13,26.22-6.66,31.21-6.84,3.17-17.74,5.27-25.12,4.86h-1.25c-7.38.41-18.27-1.69-25.12-4.86-10.79-4.99-8.31-21.12-6.66-31.21,2.62-15.99,13.38-27.41,29.18-28h6.44Z"/>
        <path class="cls-10" d="M169.64,159.96c-1.55-9.46-5.95-17.32-12.55-22.28h-1.63c-15.8.59-26.56,12.01-29.18,28-1.56,9.53-3.85,24.43,4.97,30.27,1.91.14,3.72.18,5.37.09h1.25c7.38.41,18.27-1.69,25.12-4.86,10.79-4.99,8.31-21.12,6.66-31.21Z"/>
        <path class="cls-16" d="M156.43,136.79c6.59,5.56-2.73,9.74-7.35,10.7-8.63,1.79-17.82-1.02-25.27-5.38-2.82-1.65-7.98-4.64-2.53-7.1,5.78-2.6,12.32-2.91,18.55-2.44,5.33.4,12.31.6,16.6,4.22Z"/>
      </g>
      <g>
        <path class="cls-8" d="M128.68,138.03c10.3,1.1,20.75.57,30.18-1.22,7.29-1.38,16.77-4.02,22.86-8.45,9.21-6.72,11.39-16.75,11.81-27.42.09-2.21,1.23-5,1.6-7.23,1.06-6.37,2.29-12.74,2.86-19.18,1.35-15.24-1.23-35.36-9.22-48.66-11.72-19.47-38.46-23.27-59.03-23.17-12.11.06-24.38,1.53-35.43,6.79-10.33,4.92-20.23,13.13-25.47,23.39-9.99,19.59-6.7,48.75,3.3,67.64,2.92,5.51,6.51,10.94,10.52,15.73,11.11,13.25,28.37,19.89,46.03,21.77Z"/>
        <path class="cls-15" d="M186.02,28.77s8.74-.87,11.08-9.33h-9.04s5.54-8.45,1.75-16.03c0,0-5.25,6.41-12.53,7l-.29-7.29s-7.29,5.54-15.74,6.12l24.77,19.53Z"/>
        <path class="cls-16" d="M193.11,51.01c-3.15,10.7-8.37,20.7-17.58,27.42-12.99,9.47-32.01,10-47.48,10-13.49,0-27.8-1.18-39.89-7.69-12.42-6.69-20.05-19.06-23.86-32.35,1.2,4.19-1.02,8.9-1.23,13.06-.58,11.75,2.68,23.22,7.39,33.87,4.26,9.66,9.16,19.96,17.48,26.79,17.68,14.51,41.48,16.55,63.42,14.3,7.67-.79,15.26-.46,22.7-2.79,17.01-5.31,16.82-21.33,19.74-35.65,3.68-18.09,5.82-36.69,1.16-54.87-.97,4.9-1.83,7.87-1.84,7.9Z"/>
        <path class="cls-2" d="M190.33,34.14c-3-2.38-6.87-2.58-9.51,1.52-2.46,3.82-5.15,9.41-9.94,10.64-5.36,1.38-10.47-2.76-14.94-5.1-9.09-4.77-19.52-7.77-29.62-4.36-5.29,1.79-10.2,4.82-14.27,8.62-9.78,9.1-12.88,23.91-9.11,36.55,3.12,10.44,12.22,18.36,13.18,29.54.46,5.31-1.88,10.69-.55,15.95,3.13,12.34,18.15,11.05,27.94,10.54,12.7-.67,27.57-1.93,38.19-9.68,9.21-6.72,11.39-16.75,11.81-27.42.75-10.55,4.23-20.77,4.48-31.59.23-10.06.15-22.3-4.61-31.42-.79-1.52-1.86-2.83-3.07-3.79Z"/>
        <g>
          <path class="cls-7" d="M171.63,122.25s0,2.13,5.47,5.17c0,0,10.94-6.99,10.94-11.86,0,0-10.03-1.52-16.42,6.69Z"/>
          <path class="cls-6" d="M177.41,99.14s16.72-2.13,17.94,18.85c0,0-13.07.3-23.71,4.26,0,0-8.51-13.07,5.78-23.1Z"/>
          <path class="cls-16" d="M194.99,114.63c-21.93,2.5-24.47-4.29-23.89-8.84-4.74,8.35.53,16.45.53,16.45,10.64-3.95,23.71-4.26,23.71-4.26-.07-1.2-.2-2.31-.36-3.36Z"/>
          <path class="cls-13" d="M178.51,100.98s8.46-1.19,13.34,8.22c0,0-6.31-4.76-17.15-4.41,0,0,1.31-2.38,3.81-3.81Z"/>
        </g>
        <path class="cls-14" d="M156.24,9.66c-.18,1.19-2.5,1.82-5.17,1.41-2.67-.41-4.69-1.71-4.51-2.9.18-1.19,2.5-1.82,5.18-1.41,2.67.41,4.69,1.71,4.51,2.9Z"/>
        <path class="cls-17" d="M186.02,29.89c-.57,0-1.05-.43-1.11-1-.06-.61.38-1.16,1-1.22.32-.03,7.05-.82,9.63-7.11h-7.48c-.41,0-.78-.22-.98-.58-.19-.36-.18-.8.05-1.14.05-.07,4.42-6.9,2.31-13.4-2.04,2.01-6.45,5.63-12.07,6.08-.3.03-.6-.08-.83-.28-.23-.2-.36-.49-.37-.79l-.21-5.28c-2.71,1.71-8.31,4.75-14.63,5.18-.61.04-1.15-.42-1.19-1.03-.04-.61.42-1.14,1.03-1.19,8.01-.55,15.07-5.84,15.14-5.9.33-.25.77-.3,1.15-.12.37.18.62.55.64.96l.24,6.08c6.14-1.07,10.56-6.39,10.61-6.44.24-.29.61-.45.98-.4.37.04.7.27.87.61,3.01,6.03.64,12.42-.85,15.42h7.14c.35,0,.68.16.89.44.21.28.28.64.19.97-2.51,9.08-11.94,10.13-12.04,10.14-.04,0-.08,0-.11,0Z"/>
      </g>
    </g>
    <path class="cls-17" d="M145.27,98.57c1.05,3.92,3.45,6.67,6.23,6.67,3.27,0,6-3.77,6.66-8.8-4.71,3.72-9.68,3.17-12.89,2.13Z"/>
    <path class="cls-17" d="M182.51,93.39c.8,2.53,2.25,4.23,3.91,4.23,2.24,0,4.1-3.08,4.5-7.15-2.86,2.27-5.81,2.96-8.41,2.92Z"/>
  </g>
</svg>