<?xml version="1.0" encoding="UTF-8"?>
<svg id="Layer_1" data-name="Layer 1" xmlns="http://www.w3.org/2000/svg" xmlns:xlink="http://www.w3.org/1999/xlink" viewBox="0 0 198.33 215.12">
  <defs>
    <style>
      .cls-1 {
        fill: url(#linear-gradient-10);
      }

      .cls-1, .cls-2, .cls-3, .cls-4, .cls-5, .cls-6, .cls-7, .cls-8, .cls-9, .cls-10, .cls-11, .cls-12 {
        stroke-width: 2px;
      }

      .cls-1, .cls-2, .cls-3, .cls-4, .cls-5, .cls-7, .cls-8, .cls-9, .cls-10, .cls-11, .cls-12 {
        stroke: #15033a;
      }

      .cls-1, .cls-6, .cls-9, .cls-10, .cls-11, .cls-12 {
        stroke-linecap: round;
        stroke-linejoin: round;
      }

      .cls-13 {
        opacity: .5;
      }

      .cls-13, .cls-14 {
        fill: #fff;
      }

      .cls-2 {
        fill: url(#linear-gradient-4);
      }

      .cls-2, .cls-3, .cls-4, .cls-5, .cls-7, .cls-8 {
        stroke-miterlimit: 10;
      }

      .cls-3 {
        fill: url(#linear-gradient-3);
      }

      .cls-4 {
        fill: url(#linear-gradient-2);
      }

      .cls-5 {
        fill: url(#linear-gradient-5);
      }

      .cls-15 {
        fill: #2a688a;
      }

      .cls-6 {
        fill: url(#linear-gradient);
        stroke: #0e0e3f;
      }

      .cls-7 {
        fill: url(#linear-gradient-12);
      }

      .cls-8 {
        fill: url(#linear-gradient-11);
      }

      .cls-9 {
        fill: url(#linear-gradient-9);
      }

      .cls-10 {
        fill: url(#linear-gradient-6);
      }

      .cls-11 {
        fill: url(#linear-gradient-8);
      }

      .cls-12 {
        fill: url(#linear-gradient-7);
      }

      .cls-16 {
        opacity: .2;
      }

      .cls-16, .cls-17 {
        fill: #15033a;
      }
    </style>
    <linearGradient id="linear-gradient" x1="1907.96" y1="196.33" x2="1923.54" y2="196.33" gradientTransform="translate(2060.21) rotate(-180) scale(1 -1)" gradientUnits="userSpaceOnUse">
      <stop offset="0" stop-color="#2b437a"/>
      <stop offset="1" stop-color="#0f0d26"/>
    </linearGradient>
    <linearGradient id="linear-gradient-2" x1="1304.44" y1="140.96" x2="1320.77" y2="140.96" gradientTransform="translate(1441.2 -61.71) rotate(174.53) scale(1 -1)" gradientUnits="userSpaceOnUse">
      <stop offset="0" stop-color="#ee2a7b"/>
      <stop offset=".99" stop-color="#262262"/>
    </linearGradient>
    <linearGradient id="linear-gradient-3" x1="1443.84" y1="207.83" x2="1471.82" y2="207.83" gradientTransform="translate(1612.69) rotate(-180) scale(1 -1)" gradientUnits="userSpaceOnUse">
      <stop offset="0" stop-color="#fbb040"/>
      <stop offset="1" stop-color="#ef4136"/>
    </linearGradient>
    <linearGradient id="linear-gradient-4" x1="1118.29" y1="178.17" x2="1134.62" y2="178.17" gradientTransform="translate(1072.89 -431.28) rotate(155.36) scale(1 -1)" xlink:href="#linear-gradient-2"/>
    <linearGradient id="linear-gradient-5" x1="1254.98" y1="227.13" x2="1282.96" y2="227.13" gradientTransform="translate(1255.13 -429.3) rotate(160.83) scale(1 -1)" xlink:href="#linear-gradient-3"/>
    <linearGradient id="linear-gradient-6" x1="108.85" y1="174.93" x2="109.48" y2="192.35" gradientUnits="userSpaceOnUse">
      <stop offset="0" stop-color="#277592"/>
      <stop offset="1" stop-color="#262262"/>
    </linearGradient>
    <linearGradient id="linear-gradient-7" x1="132.99" y1="126.71" x2="140.41" y2="209.07" xlink:href="#linear-gradient-6"/>
    <linearGradient id="linear-gradient-8" x1="144.11" y1="133.99" x2="150.65" y2="206.64" gradientUnits="userSpaceOnUse">
      <stop offset="0" stop-color="#fff"/>
      <stop offset="1" stop-color="#d3e6ed"/>
    </linearGradient>
    <linearGradient id="linear-gradient-9" x1="128.06" y1="-4.52" x2="133.84" y2="153.49" xlink:href="#linear-gradient-6"/>
    <linearGradient id="linear-gradient-10" x1="147.31" y1=".56" x2="151.73" y2="121.16" xlink:href="#linear-gradient-8"/>
    <linearGradient id="linear-gradient-11" x1="180.44" y1="110.28" x2="178.96" y2="126.49" gradientUnits="userSpaceOnUse">
      <stop offset="0" stop-color="#fb6840"/>
      <stop offset="1" stop-color="#a82d26"/>
    </linearGradient>
    <linearGradient id="linear-gradient-12" x1="184.07" y1="92.86" x2="181.34" y2="122.95" gradientTransform="matrix(1,0,0,1,0,0)" xlink:href="#linear-gradient-3"/>
  </defs>
  <g>
    <polygon class="cls-6" points="143.35 184.83 152.26 207.09 147.8 207.83 136.67 184.83 143.35 184.83"/>
    <g>
      <path class="cls-4" d="M139.82,204.62c.23,2.35,2.31,4.07,4.65,3.84l7.74-1.01c2.35-.23,4.06-2.31,3.84-4.65h0c-.23-2.35-2.31-4.07-4.65-3.84l-7.74,1.01c-2.35.23-4.06,2.31-3.84,4.65h0Z"/>
      <g>
        <path class="cls-3" d="M168.84,212.46c0-5.12-6.26-9.27-13.99-9.27s-13.99,4.15-13.99,9.27h27.98Z"/>
        <path class="cls-16" d="M148.92,204.08c3.22,4.98,13.91,5.98,19.5,6.15.27.72.43,1.47.43,2.24h-27.98c0-3.71,3.3-6.91,8.05-8.39Z"/>
      </g>
    </g>
  </g>
  <g>
    <path class="cls-2" d="M115.82,203.79c.98,2.14,3.52,3.08,5.66,2.1l6.98-3.49c2.14-.98,3.08-3.51,2.1-5.66h0c-.98-2.14-3.52-3.08-5.66-2.1l-6.98,3.49c-2.14.98-3.08,3.51-2.1,5.66h0Z"/>
    <g>
      <path class="cls-5" d="M145.81,201.66c-1.68-4.84-8.96-6.7-16.26-4.17-7.3,2.54-11.85,8.52-10.17,13.35l26.43-9.19Z"/>
      <path class="cls-16" d="M124.24,200.28c4.68,3.65,15.1,1.08,20.43-.59.49.59.89,1.24,1.14,1.97l-26.43,9.19c-1.22-3.51.85-7.61,4.85-10.57Z"/>
    </g>
  </g>
  <g>
    <path class="cls-10" d="M108.42,179.76l-20.1,11.4s17.07,6.68,42.29,1.48l-22.19-12.88Z"/>
    <g>
      <path class="cls-12" d="M140.46,132.02c15.8.59,26.56,12.01,29.18,28,1.65,10.1,4.13,26.22-6.66,31.21-6.84,3.17-17.74,5.27-25.12,4.86h-1.25c-7.38.41-18.27-1.69-25.12-4.86-10.79-4.99-8.31-21.12-6.66-31.21,2.62-15.99,13.38-27.41,29.18-28h6.44Z"/>
      <path class="cls-11" d="M169.64,160.02c-1.55-9.46-5.95-17.32-12.55-22.28h-1.63c-15.8.59-26.56,12.01-29.18,28-1.56,9.53-3.85,24.43,4.97,30.27,1.91.14,3.72.18,5.37.09h1.25c7.38.41,18.27-1.69,25.12-4.86,10.79-4.99,8.31-21.12,6.66-31.21Z"/>
      <path class="cls-16" d="M156.43,136.86c6.59,5.56-2.73,9.74-7.35,10.7-8.63,1.79-17.82-1.02-25.27-5.38-2.82-1.65-7.98-4.64-2.53-7.1,5.78-2.6,12.32-2.91,18.55-2.44,5.33.4,12.31.6,16.6,4.22Z"/>
    </g>
    <g>
      <path class="cls-9" d="M128.68,138.09c10.3,1.1,20.75.57,30.18-1.22,7.29-1.38,16.77-4.02,22.86-8.45,9.21-6.72,11.39-16.75,11.81-27.42.09-2.21,1.23-5,1.6-7.23,1.06-6.37,2.29-12.74,2.86-19.18,1.35-15.24-1.23-35.36-9.22-48.66-11.72-19.47-38.46-23.27-59.03-23.17-12.11.06-24.38,1.53-35.43,6.79-10.33,4.92-20.23,13.13-25.47,23.39-9.99,19.59-6.7,48.75,3.3,67.64,2.92,5.51,6.51,10.94,10.52,15.73,11.11,13.25,28.37,19.89,46.03,21.77Z"/>
      <path class="cls-15" d="M186.02,28.83s8.74-.87,11.08-9.33h-9.04s5.54-8.45,1.75-16.03c0,0-5.25,6.41-12.53,7l-.29-7.29s-7.29,5.54-15.74,6.12l24.77,19.53Z"/>
      <path class="cls-16" d="M193.11,51.07c-3.15,10.7-8.37,20.7-17.58,27.42-12.99,9.47-32.01,10-47.48,10-13.49,0-27.8-1.18-39.89-7.69-12.42-6.69-20.05-19.06-23.86-32.35,1.2,4.19-1.02,8.9-1.23,13.06-.58,11.75,2.68,23.22,7.39,33.87,4.26,9.66,9.16,19.96,17.48,26.79,17.68,14.51,41.48,16.55,63.42,14.3,7.67-.79,15.26-.46,22.7-2.79,17.01-5.31,16.82-21.33,19.74-35.65,3.68-18.09,5.82-36.69,1.16-54.87-.97,4.9-1.83,7.87-1.84,7.9Z"/>
      <path class="cls-1" d="M190.33,34.2c-3-2.38-6.87-2.58-9.51,1.52-2.46,3.82-5.15,9.41-9.94,10.64-5.36,1.38-10.47-2.76-14.94-5.1-9.09-4.77-19.52-7.77-29.62-4.36-5.29,1.79-10.2,4.82-14.27,8.62-9.78,9.1-12.88,23.91-9.11,36.55,3.12,10.44,12.22,18.36,13.18,29.54.46,5.31-1.88,10.69-.55,15.95,3.13,12.34,18.15,11.05,27.94,10.54,12.7-.67,27.57-1.93,38.19-9.68,9.21-6.72,11.39-16.75,11.81-27.42.75-10.55,4.23-20.77,4.48-31.59.23-10.06.15-22.3-4.61-31.42-.79-1.52-1.86-2.83-3.07-3.79Z"/>
      <g>
        <path class="cls-8" d="M171.63,120.08s0,2.13,5.47,5.17c0,0,10.94-6.99,10.94-11.86,0,0-10.03-1.52-16.42,6.69Z"/>
        <path class="cls-7" d="M177.41,96.98s16.72-2.13,17.94,18.85c0,0-13.07.3-23.71,4.26,0,0-8.51-13.07,5.78-23.1Z"/>
        <path class="cls-16" d="M194.99,112.47c-21.93,2.5-24.47-4.29-23.89-8.84-4.74,8.35.53,16.45.53,16.45,10.64-3.95,23.71-4.26,23.71-4.26-.07-1.2-.2-2.31-.36-3.36Z"/>
        <path class="cls-13" d="M178.51,98.81s8.46-1.19,13.34,8.22c0,0-6.31-4.76-17.15-4.41,0,0,1.31-2.38,3.81-3.81Z"/>
      </g>
      <path class="cls-14" d="M156.24,9.72c-.18,1.19-2.5,1.82-5.17,1.41-2.67-.41-4.69-1.71-4.51-2.9.18-1.19,2.5-1.82,5.18-1.41,2.67.41,4.69,1.71,4.51,2.9Z"/>
      <path class="cls-17" d="M189.79,72.09c-.97,0-1.88.59-2.62,1.58.41.5.66,1.17.66,1.91,0,1.55-1.09,2.8-2.43,2.81-.12.79-.19,1.62-.19,2.48,0,4.85,2.05,8.78,4.58,8.78s4.58-3.93,4.58-8.78-2.05-8.78-4.58-8.78Z"/>
      <path class="cls-17" d="M186.02,29.95c-.57,0-1.05-.43-1.11-1-.06-.61.38-1.16,1-1.22.32-.03,7.05-.82,9.63-7.11h-7.48c-.41,0-.78-.22-.98-.58-.19-.36-.18-.8.05-1.14.05-.07,4.42-6.9,2.31-13.4-2.04,2.01-6.45,5.63-12.07,6.08-.3.03-.6-.08-.83-.28-.23-.2-.36-.49-.37-.79l-.21-5.28c-2.71,1.71-8.31,4.75-14.63,5.18-.61.04-1.15-.42-1.19-1.03-.04-.61.42-1.14,1.03-1.19,8.01-.55,15.07-5.84,15.14-5.9.33-.25.77-.3,1.15-.12.37.18.62.55.64.96l.24,6.08c6.14-1.07,10.56-6.39,10.61-6.44.24-.29.61-.45.98-.4.37.04.7.27.87.61,3.01,6.03.64,12.42-.85,15.42h7.14c.35,0,.68.16.89.44.21.28.28.64.19.97-2.51,9.08-11.94,10.13-12.04,10.14-.04,0-.08,0-.11,0Z"/>
    </g>
    <path class="cls-17" d="M154.88,74.98c-1.5,0-2.88.8-4,2.14.92.75,1.55,2.1,1.55,3.66,0,2.36-1.42,4.28-3.17,4.28-.4,0-.78-.11-1.13-.29-.03.45-.06.9-.06,1.36,0,6.15,3.05,11.14,6.81,11.14s6.81-4.99,6.81-11.14-3.05-11.14-6.81-11.14Z"/>
  </g>
</svg>