<?xml version="1.0" encoding="UTF-8"?>
<svg id="Ebene_2" xmlns="http://www.w3.org/2000/svg" xmlns:xlink="http://www.w3.org/1999/xlink" viewBox="0 0 198.33 215.12">
  <defs>
    <style>
      .cls-1 {
        fill: none;
      }

      .cls-2 {
        fill: url(#linear-gradient-3);
        stroke: #0e0e3f;
      }

      .cls-2, .cls-3, .cls-4, .cls-5, .cls-6, .cls-7, .cls-8, .cls-9, .cls-10, .cls-11, .cls-12, .cls-13 {
        stroke-width: 2px;
      }

      .cls-2, .cls-3, .cls-9, .cls-10, .cls-11, .cls-12 {
        stroke-linecap: round;
        stroke-linejoin: round;
      }

      .cls-3 {
        fill: url(#linear-gradient-10);
      }

      .cls-3, .cls-4, .cls-5, .cls-6, .cls-7, .cls-8, .cls-9, .cls-10, .cls-11, .cls-12, .cls-13 {
        stroke: #15033a;
      }

      .cls-14 {
        opacity: .5;
      }

      .cls-14, .cls-15 {
        fill: #fff;
      }

      .cls-4 {
        fill: url(#linear-gradient-4);
      }

      .cls-4, .cls-5, .cls-6, .cls-7, .cls-8, .cls-13 {
        stroke-miterlimit: 10;
      }

      .cls-5 {
        fill: url(#linear-gradient-2);
      }

      .cls-6 {
        fill: url(#linear-gradient-5);
      }

      .cls-16 {
        fill: #2a688a;
      }

      .cls-7 {
        fill: url(#linear-gradient-12);
      }

      .cls-8 {
        fill: url(#linear-gradient-11);
      }

      .cls-9 {
        fill: url(#linear-gradient-9);
      }

      .cls-10 {
        fill: url(#linear-gradient-6);
      }

      .cls-11 {
        fill: url(#linear-gradient-8);
      }

      .cls-12 {
        fill: url(#linear-gradient-7);
      }

      .cls-13 {
        fill: url(#linear-gradient);
      }

      .cls-17 {
        opacity: .2;
      }

      .cls-17, .cls-18 {
        fill: #15033a;
      }
    </style>
    <linearGradient id="linear-gradient" x1="-1231.13" y1="432.68" x2="-1214.8" y2="432.68" gradientTransform="translate(-1202.33 243.13) rotate(158.52) scale(1 -1)" gradientUnits="userSpaceOnUse">
      <stop offset="0" stop-color="#ee2a7b"/>
      <stop offset=".99" stop-color="#262262"/>
    </linearGradient>
    <linearGradient id="linear-gradient-2" x1="-1093.26" y1="372.64" x2="-1065.28" y2="372.64" gradientTransform="translate(-1038.21 139.5) rotate(163.99) scale(1 -1)" gradientUnits="userSpaceOnUse">
      <stop offset="0" stop-color="#fbb040"/>
      <stop offset="1" stop-color="#ef4136"/>
    </linearGradient>
    <linearGradient id="linear-gradient-3" x1="374.89" y1="-442.89" x2="390.48" y2="-442.89" gradientTransform="translate(125.09 769.82) rotate(-145.43) scale(1 -1)" gradientUnits="userSpaceOnUse">
      <stop offset="0" stop-color="#2b437a"/>
      <stop offset="1" stop-color="#0f0d26"/>
    </linearGradient>
    <linearGradient id="linear-gradient-4" x1="-1036.12" y1="249.12" x2="-1019.78" y2="249.12" gradientTransform="translate(-989.08 54.35) rotate(174.53) scale(1 -1)" xlink:href="#linear-gradient"/>
    <linearGradient id="linear-gradient-5" x1="-881.64" y1="208.5" x2="-853.66" y2="208.5" gradientTransform="translate(-802.74) rotate(-180) scale(1 -1)" xlink:href="#linear-gradient-2"/>
    <linearGradient id="linear-gradient-6" x1="47.06" y1="174.84" x2="47.7" y2="192.26" gradientUnits="userSpaceOnUse">
      <stop offset="0" stop-color="#277592"/>
      <stop offset="1" stop-color="#262262"/>
    </linearGradient>
    <linearGradient id="linear-gradient-7" x1="71.2" y1="126.62" x2="78.62" y2="208.98" xlink:href="#linear-gradient-6"/>
    <linearGradient id="linear-gradient-8" x1="82.32" y1="133.9" x2="88.87" y2="206.55" gradientUnits="userSpaceOnUse">
      <stop offset="0" stop-color="#fff"/>
      <stop offset="1" stop-color="#d3e6ed"/>
    </linearGradient>
    <linearGradient id="linear-gradient-9" x1="66.27" y1="-4.6" x2="72.05" y2="153.41" xlink:href="#linear-gradient-6"/>
    <linearGradient id="linear-gradient-10" x1="85.53" y1=".47" x2="89.94" y2="121.07" xlink:href="#linear-gradient-8"/>
    <linearGradient id="linear-gradient-11" x1="118.65" y1="110.19" x2="117.17" y2="126.4" gradientUnits="userSpaceOnUse">
      <stop offset="0" stop-color="#fb6840"/>
      <stop offset="1" stop-color="#a82d26"/>
    </linearGradient>
    <linearGradient id="linear-gradient-12" x1="122.28" y1="92.77" x2="119.55" y2="122.87" gradientTransform="matrix(1,0,0,1,0,0)" xlink:href="#linear-gradient-2"/>
  </defs>
  <g id="Layer_1">
    <g>
      <g>
        <g>
          <path class="cls-13" d="M86.64,201.12c.86,2.19,3.34,3.27,5.53,2.41l7.16-3.1c2.19-.86,3.27-3.34,2.41-5.53h0c-.86-2.19-3.34-3.27-5.53-2.41l-7.16,3.1c-2.19.86-3.27,3.34-2.41,5.53h0Z"/>
          <g>
            <path class="cls-5" d="M116.71,200.65c-1.41-4.92-8.58-7.19-16-5.06-7.43,2.13-12.3,7.85-10.89,12.77l26.89-7.72Z"/>
            <path class="cls-17" d="M95.24,198.08c4.47,3.9,15.02,1.91,20.44.53.46.61.82,1.29,1.03,2.03l-26.89,7.72c-1.02-3.57,1.27-7.55,5.43-10.28Z"/>
          </g>
        </g>
        <g>
          <polygon class="cls-2" points="66.92 177.88 61.62 201.26 57.53 199.35 61.42 174.09 66.92 177.88"/>
          <g>
            <path class="cls-4" d="M49.87,205.3c.23,2.35,2.31,4.06,4.65,3.84l7.74-1.01c2.35-.22,4.07-2.31,3.84-4.65h0c-.23-2.35-2.31-4.07-4.65-3.84l-7.74,1.01c-2.35.23-4.07,2.31-3.84,4.65h0Z"/>
            <g>
              <path class="cls-6" d="M78.9,213.14c0-5.12-6.26-9.27-13.99-9.27s-13.99,4.15-13.99,9.27h27.98Z"/>
              <path class="cls-17" d="M58.97,204.75c3.22,4.98,13.91,5.98,19.5,6.15.27.72.43,1.47.43,2.24h-27.98c0-3.71,3.3-6.91,8.05-8.39Z"/>
            </g>
          </g>
        </g>
        <g>
          <path class="cls-10" d="M46.63,179.68l-20.1,11.4s17.07,6.68,42.29,1.48l-22.19-12.88Z"/>
          <g>
            <path class="cls-12" d="M78.67,131.93c15.8.59,26.56,12.01,29.18,28,1.65,10.1,4.13,26.22-6.66,31.21-6.84,3.17-17.74,5.27-25.12,4.86h-1.25c-7.38.41-18.27-1.69-25.12-4.86-10.79-4.99-8.31-21.12-6.66-31.21,2.62-15.99,13.38-27.41,29.18-28h6.44Z"/>
            <path class="cls-11" d="M107.85,159.93c-1.55-9.46-5.95-17.32-12.55-22.28h-1.63c-15.8.59-26.56,12.01-29.18,28-1.56,9.53-3.85,24.43,4.97,30.27,1.91.14,3.72.18,5.37.09h1.25c7.38.41,18.27-1.69,25.12-4.86,10.79-4.99,8.31-21.12,6.66-31.21Z"/>
            <path class="cls-17" d="M94.64,136.77c6.59,5.56-2.73,9.74-7.35,10.7-8.63,1.79-17.82-1.02-25.27-5.38-2.82-1.65-7.98-4.64-2.53-7.1,5.78-2.6,12.32-2.91,18.55-2.44,5.33.4,12.31.6,16.6,4.22Z"/>
          </g>
          <g>
            <path class="cls-9" d="M66.9,138.01c10.3,1.1,20.75.57,30.18-1.22,7.29-1.38,16.77-4.02,22.86-8.45,9.21-6.72,11.39-16.75,11.81-27.42.09-2.21,1.23-5,1.6-7.23,1.06-6.37,2.29-12.74,2.86-19.18,1.35-15.24-1.23-35.36-9.22-48.66C115.26,6.38,88.52,2.58,67.95,2.68c-12.11.06-24.38,1.53-35.43,6.79-10.33,4.92-20.23,13.13-25.47,23.39C-2.94,52.46.34,81.62,10.35,100.51c2.92,5.51,6.51,10.94,10.52,15.73,11.11,13.25,28.37,19.89,46.03,21.77Z"/>
            <path class="cls-16" d="M124.23,28.75s8.74-.87,11.08-9.33h-9.04s5.54-8.45,1.75-16.03c0,0-5.25,6.41-12.53,7l-.29-7.29s-7.29,5.54-15.74,6.12l24.77,19.53Z"/>
            <path class="cls-17" d="M131.33,50.98c-3.15,10.7-8.37,20.7-17.58,27.42-12.99,9.47-32.01,10-47.48,10-13.49,0-27.8-1.18-39.89-7.69-12.42-6.69-20.05-19.06-23.86-32.35,1.2,4.19-1.02,8.9-1.23,13.06-.58,11.75,2.68,23.22,7.39,33.87,4.26,9.66,9.16,19.96,17.48,26.79,17.68,14.51,41.48,16.55,63.42,14.3,7.67-.79,15.26-.46,22.7-2.79,17.01-5.31,16.82-21.33,19.74-35.65,3.68-18.09,5.82-36.69,1.16-54.87-.97,4.9-1.83,7.87-1.84,7.9Z"/>
            <path class="cls-3" d="M128.55,34.12c-3-2.38-6.87-2.58-9.51,1.52-2.46,3.82-5.15,9.41-9.94,10.64-5.36,1.38-10.47-2.76-14.94-5.1-9.09-4.77-19.52-7.77-29.62-4.36-5.29,1.79-10.2,4.82-14.27,8.62-9.78,9.1-12.88,23.91-9.11,36.55,3.12,10.44,12.22,18.36,13.18,29.54.46,5.31-1.88,10.69-.55,15.95,3.13,12.34,18.15,11.05,27.94,10.54,12.7-.67,27.57-1.93,38.19-9.68,9.21-6.72,11.39-16.75,11.81-27.42.75-10.55,4.23-20.77,4.48-31.59.23-10.06.15-22.3-4.61-31.42-.79-1.52-1.86-2.83-3.07-3.79Z"/>
            <g>
              <path class="cls-8" d="M109.85,120s0,2.13,5.47,5.17c0,0,10.94-6.99,10.94-11.86,0,0-10.03-1.52-16.42,6.69Z"/>
              <path class="cls-7" d="M115.62,96.89s16.72-2.13,17.94,18.85c0,0-13.07.3-23.71,4.26,0,0-8.51-13.07,5.78-23.1Z"/>
              <path class="cls-17" d="M133.2,112.38c-21.93,2.5-24.47-4.29-23.89-8.84-4.74,8.35.53,16.45.53,16.45,10.64-3.95,23.71-4.26,23.71-4.26-.07-1.2-.2-2.31-.36-3.36Z"/>
              <path class="cls-14" d="M116.72,98.72s8.46-1.19,13.34,8.22c0,0-6.31-4.76-17.15-4.41,0,0,1.31-2.38,3.81-3.81Z"/>
            </g>
            <path class="cls-15" d="M94.45,9.63c-.18,1.19-2.5,1.82-5.17,1.41-2.67-.41-4.69-1.71-4.51-2.9.18-1.19,2.5-1.82,5.18-1.41,2.67.41,4.69,1.71,4.51,2.9Z"/>
            <path class="cls-18" d="M128.01,72c-.97,0-1.88.59-2.62,1.58.41.5.66,1.17.66,1.91,0,1.55-1.09,2.8-2.43,2.81-.12.79-.19,1.62-.19,2.48,0,4.85,2.05,8.78,4.58,8.78s4.58-3.93,4.58-8.78-2.05-8.78-4.58-8.78Z"/>
            <path class="cls-18" d="M124.23,29.86c-.57,0-1.05-.43-1.11-1-.06-.61.38-1.16,1-1.22.32-.03,7.05-.82,9.63-7.11h-7.48c-.41,0-.78-.22-.98-.58-.19-.36-.18-.8.05-1.14.05-.07,4.42-6.9,2.31-13.4-2.04,2.01-6.45,5.63-12.07,6.08-.3.03-.6-.08-.83-.28-.23-.2-.36-.49-.37-.79l-.21-5.28c-2.71,1.71-8.31,4.75-14.63,5.18-.61.04-1.15-.42-1.19-1.03-.04-.61.42-1.14,1.03-1.19,8.01-.55,15.07-5.84,15.14-5.9.33-.25.77-.3,1.15-.12.37.18.62.55.64.96l.24,6.08c6.14-1.07,10.56-6.39,10.61-6.44.24-.29.61-.45.98-.4.37.04.7.27.87.61,3.01,6.03.64,12.42-.85,15.42h7.14c.35,0,.68.16.89.44.21.28.28.64.19.97-2.51,9.08-11.94,10.13-12.04,10.14-.04,0-.08,0-.11,0Z"/>
          </g>
          <path class="cls-18" d="M93.09,74.89c-1.5,0-2.88.8-4,2.14.92.75,1.55,2.1,1.55,3.66,0,2.36-1.42,4.28-3.17,4.28-.4,0-.78-.11-1.13-.29-.03.45-.06.9-.06,1.36,0,6.15,3.05,11.14,6.81,11.14s6.81-4.99,6.81-11.14-3.05-11.14-6.81-11.14Z"/>
        </g>
      </g>
      <rect class="cls-1" x="1" width="197.33" height="215.12"/>
    </g>
  </g>
</svg>