<?xml version="1.0" encoding="UTF-8"?>
<svg id="Ebene_2" xmlns="http://www.w3.org/2000/svg" xmlns:xlink="http://www.w3.org/1999/xlink" viewBox="0 0 269.37 268">
  <defs>
    <style>
      .cls-1 {
        fill: none;
      }

      .cls-2 {
        fill: url(#Unbenannter_Verlauf_2);
      }

      .cls-3 {
        fill: url(#Unbenannter_Verlauf_6);
      }

      .cls-4 {
        fill: #fff;
      }

      .cls-5 {
        fill: #f2f2f2;
      }

      .cls-6 {
        fill: url(#Unbenannter_Verlauf_2-2);
      }

      .cls-7 {
        fill: url(#Unbenannter_Verlauf_6-3);
      }

      .cls-8 {
        fill: url(#Unbenannter_Verlauf_6-2);
      }

      .cls-9 {
        fill: url(#Unbenannter_Verlauf_6-4);
      }

      .cls-10 {
        clip-path: url(#clippath);
      }
    </style>
    <linearGradient id="Unbenannter_Verlauf_2" data-name="Unbenannter Verlauf 2" x1="-600.21" y1="2919.64" x2="-494.37" y2="2919.64" gradientTransform="translate(-2045.67 2162.13) rotate(58.59) scale(1 -1)" gradientUnits="userSpaceOnUse">
      <stop offset="0" stop-color="#277592"/>
      <stop offset="1" stop-color="#262262"/>
    </linearGradient>
    <clipPath id="clippath">
      <path class="cls-1" d="M66.44,172.99c.38-3.09,4.13-5.76,7.11-7.89.4-.29,1.29-.91,2.91-1.84,4.89-2.81,9.17-4.28,10.42-4.69,54.99-18.24,72.35-19.83,72.36-19.83,38.45-3.51,90.21,10.21,92.07,28.45,1.74,17.1-39.86,43.14-77.86,42.81-32.62-.28-56.87-19.94-81.55-21.47-.88-.05-10.46-.62-19.09-6.87-2.37-1.71-6.81-5-6.36-8.67h0Z"/>
    </clipPath>
    <linearGradient id="Unbenannter_Verlauf_2-2" data-name="Unbenannter Verlauf 2" x1="-564.69" y1="2972.13" x2="-452.41" y2="2972.13" xlink:href="#Unbenannter_Verlauf_2"/>
    <linearGradient id="Unbenannter_Verlauf_6" data-name="Unbenannter Verlauf 6" x1="-615.28" y1="2815.16" x2="-584.67" y2="2815.16" gradientTransform="translate(-2045.67 2162.13) rotate(58.59) scale(1 -1)" gradientUnits="userSpaceOnUse">
      <stop offset="0" stop-color="#15033a"/>
      <stop offset="1" stop-color="#276c8d"/>
    </linearGradient>
    <linearGradient id="Unbenannter_Verlauf_6-2" data-name="Unbenannter Verlauf 6" x1="-644.09" y1="2832.07" x2="-595.91" y2="2832.07" xlink:href="#Unbenannter_Verlauf_6"/>
    <linearGradient id="Unbenannter_Verlauf_6-3" data-name="Unbenannter Verlauf 6" x1="-603.7" y1="2895.86" x2="-584.3" y2="2895.86" xlink:href="#Unbenannter_Verlauf_6"/>
    <linearGradient id="Unbenannter_Verlauf_6-4" data-name="Unbenannter Verlauf 6" x1="-555.82" y1="2898.7" x2="-501.17" y2="2898.7" xlink:href="#Unbenannter_Verlauf_6"/>
  </defs>
  <g id="Ebene_1-2" data-name="Ebene_1">
    <g>
      <circle class="cls-4" cx="134" cy="134" r="134"/>
      <g>
        <g id="Ebene_1-2">
          <g>
            <path class="cls-2" d="M66.44,172.99c.38-3.09,4.13-5.76,7.11-7.89.4-.29,1.29-.91,2.91-1.84,4.89-2.81,9.17-4.28,10.42-4.69,54.99-18.24,72.35-19.83,72.36-19.83,38.45-3.51,90.21,10.21,92.07,28.45,1.74,17.1-39.86,43.14-77.86,42.81-32.62-.28-56.87-19.94-81.55-21.47-.88-.05-10.46-.62-19.09-6.87-2.37-1.71-6.81-5-6.36-8.67h0Z"/>
            <g class="cls-10">
              <g>
                <path class="cls-6" d="M205.52,127.37c-20.12,6.28-31.39,28.88-30.48,46.77,2.11,41.41,69.75,63.73,80.15,52.92,7.11-7.39-11.4-31.39.77-46.77,4.72-5.96,10.59-6.25,12.1-12.41,2.45-9.97-10.08-20.92-14.2-24.51-6.73-5.89-26.22-22.91-48.35-16.01h0Z"/>
                <path class="cls-4" d="M205.81,128.32c-9.04,2.82-17.06,9.42-22.57,18.6-5.04,8.37-7.66,18.28-7.21,27.18.57,11.07,5.87,21.46,15.77,30.88,8.15,7.76,19.22,14.49,31.16,18.95,14.44,5.4,27.69,6.43,31.52,2.45,2.66-2.76,1.07-8.75-.77-15.68-2.58-9.72-5.79-21.83,1.48-31.02,2.08-2.63,4.37-4.2,6.39-5.59,2.65-1.82,4.74-3.25,5.53-6.44,2.3-9.38-9.88-20.03-13.88-23.53-3.44-3-9.82-8.59-18.19-12.66-10.19-4.96-20.02-6.02-29.23-3.15h0ZM180.53,194.3c-3.92-6.42-6.13-13.21-6.48-20.11-.47-9.29,2.26-19.6,7.49-28.3,5.77-9.59,14.18-16.5,23.68-19.46h0c22.67-7.07,42.71,10.45,49.3,16.2,4.23,3.7,17.1,14.95,14.5,25.49-.96,3.92-3.57,5.71-6.33,7.6-2,1.37-4.06,2.78-5.96,5.18-6.66,8.41-3.72,19.5-1.12,29.28,1.99,7.51,3.72,14,.29,17.56-4.49,4.66-18.01,3.87-33.64-1.97-12.19-4.56-23.49-11.44-31.83-19.37-4.02-3.82-7.33-7.88-9.91-12.1Z"/>
              </g>
            </g>
            <path class="cls-5" d="M67.41,173.18c-.32,3.15,4.08,6.33,5.96,7.69,7.96,5.76,16.86,6.57,18.56,6.68,11.19.69,22.23,5.03,33.91,9.63,14.62,5.75,29.73,11.69,47.6,11.84,27.97.24,57.81-14.02,70.5-27.94,4.58-5.02,6.78-9.79,6.37-13.78-.8-7.92-12.62-15.97-31.6-21.53-18.65-5.47-40.85-7.72-59.39-6.03h0c-.73.07-18.45,1.97-72.14,19.78-3.39,1.13-7.03,2.76-10.24,4.61-1.12.65-2.07,1.25-2.82,1.78-2.85,2.03-6.38,4.56-6.71,7.21,0,.02,0,.04,0,.06ZM66.49,176.97c-.76-1.25-1.21-2.62-1.03-4.09,0-.03,0-.05.01-.08.48-3.48,4.37-6.26,7.51-8.5.81-.58,1.81-1.21,2.99-1.89,3.32-1.91,7.08-3.6,10.6-4.77,53.89-17.88,71.83-19.8,72.57-19.87,0,0,0,0,.01,0,18.77-1.71,41.25.57,60.13,6.1,20.08,5.89,32.11,14.35,33.01,23.23.46,4.57-1.91,9.87-6.88,15.31-6.69,7.34-17.74,14.57-30.32,19.84-9.72,4.07-24.83,8.89-41.66,8.75-18.23-.16-33.52-6.17-48.31-11.98-11.53-4.53-22.43-8.82-33.3-9.49-1.81-.11-11.2-.97-19.61-7.05-1.56-1.13-4.25-3.07-5.73-5.5Z"/>
          </g>
          <g>
            <path class="cls-3" d="M71.9,179.35c1,7.98-20.58,15.92-22.8,16.74-11.61,4.27-23.79,5-24.79,2.25-.68-1.87,4.21-4.36,3.43-6.92-1.02-3.31-9.96-1.49-10.99-4.16-1.41-3.63,11.61-15.94,27.98-17.48,11.81-1.11,26.39,3.28,27.19,9.57h0Z"/>
            <path class="cls-4" d="M70.35,177.92c-1.19-1.95-4.11-3.82-8.22-5.2-5.25-1.76-11.73-2.49-17.32-1.96-7.93.75-21.53,6.02-26.44,13.97-.7,1.14-.83,1.87-.71,2.18.27.7,2.58.97,4.27,1.16,2.82.32,6.01.69,6.74,3.06.58,1.9-.9,3.56-2.09,4.9-.51.58-1.47,1.65-1.35,1.97,0,.02.08.18.5.38,2.99,1.38,13.18.4,23.02-3.22,2.09-.77,7.49-2.85,12.47-5.61,6.7-3.73,10.05-7.21,9.69-10.07l-.02-.17c-.08-.46-.27-.93-.55-1.39ZM16.02,188.01c-.07-.12-.14-.25-.19-.39-.4-1.03-.1-2.35.87-3.93,3.25-5.25,14.37-13.62,27.93-14.89,12.06-1.14,27.36,3.26,28.26,10.43l.18,1.42-.19-.05c-.44,3.38-4.03,6.97-10.69,10.67-5.1,2.84-10.61,4.96-12.74,5.74-9.63,3.54-20.64,4.96-24.53,3.16-.79-.36-1.3-.87-1.53-1.49-.52-1.43.62-2.72,1.73-3.97.91-1.02,1.93-2.17,1.67-3-.35-1.13-2.97-1.43-5.08-1.68-2.46-.28-4.8-.55-5.7-2.02Z"/>
          </g>
          <g>
            <path class="cls-8" d="M74.7,168.07c2.81-7.54-16.38-20.22-18.35-21.52-10.32-6.82-22.01-10.32-23.61-7.88-1.1,1.67,3.1,5.21,1.75,7.52-1.76,2.99-10.03-.84-11.65,1.53-2.2,3.21,7.64,18.18,23.22,23.44,11.24,3.79,26.44,2.87,28.65-3.08h0Z"/>
            <path class="cls-4" d="M72.61,162.47c-2.94-4.82-10.1-10.67-16.8-15.09-8.75-5.79-18.45-9.08-21.67-8.42-.46.09-.57.23-.58.25-.19.28.5,1.55.87,2.23.85,1.58,1.91,3.54.91,5.25-1.26,2.14-4.45,1.76-7.27,1.43-1.69-.2-4-.47-4.43.15-.19.27-.23,1.01.19,2.28,1.9,5.69,10.79,15.7,22.53,19.66,11.22,3.79,25.56,2.48,27.41-2.49h0c.54-1.46.05-3.27-1.16-5.26ZM23.75,154.88c-.83-1.35-1.43-2.61-1.79-3.7-.59-1.76-.57-3.12.05-4.02,1.1-1.61,3.62-1.31,6.29-1,2.11.25,4.73.56,5.33-.47.44-.75-.29-2.11-.94-3.31-.79-1.47-1.62-2.99-.78-4.26.36-.55.98-.92,1.83-1.1,4.2-.86,14.59,3.04,23.16,8.7,2.37,1.57,6.96,4.75,11.09,8.52,6.4,5.83,8.97,10.6,7.64,14.17-1.18,3.17-5.36,5.25-11.78,5.83-5.78.53-12.55-.28-18.12-2.16-10.51-3.55-18.36-11.29-21.98-17.21Z"/>
          </g>
          <g>
            <path class="cls-7" d="M136.69,143.87c-.08-2.82-8.84-5.42-16.19-5.41-12.62.01-24.69,7.72-23.9,10.97.84,3.48,16.51,2.15,17.75,2.04,9.55-.81,22.44-4.15,22.34-7.6h0Z"/>
            <path class="cls-4" d="M135.57,143.5c-1.03-1.69-7.88-4.07-15.07-4.06-6.57,0-18.24,3.22-22.34,8.43-.52.67-.65,1.13-.61,1.32.01.06.44,1.45,7.79,1.61,3.87.08,7.81-.22,8.92-.32,11.91-1.01,21.49-4.71,21.43-6.59h0c0-.13-.05-.26-.13-.4ZM95.92,150.33c-.13-.21-.22-.43-.28-.67-.22-.9.11-1.91.97-3.01,1.62-2.06,5.05-4.33,9.16-6.07,3.36-1.42,8.64-3.11,14.73-3.11,3.65,0,7.81.63,11.12,1.69,2.73.88,5.99,2.4,6.05,4.68h0c.14,4.95-15.9,7.99-23.24,8.61-1.14.1-5.17.41-9.13.33-5.47-.12-8.43-.88-9.39-2.45Z"/>
          </g>
          <g>
            <path class="cls-9" d="M192.41,208.09c.18,1.16-4.35,1.91-14.27,6.3-15.18,6.7-19.73,11.64-25.27,9.39-3.41-1.38-2.76-3.69-7.95-6.42-5.37-2.83-7.38-1.05-11.4-3.51-4.49-2.75-3.64-6-8.4-11.78-5.59-6.79-12.03-8.73-11.74-9.34.5-1.05,17.23,9.21,39.06,13.19,22.09,4.03,39.62-.14,39.97,2.17h0Z"/>
            <path class="cls-4" d="M190.57,208.37c-1.38-.09-3.8.01-6.17.12-7.07.31-18.9.83-32.14-1.59-12.71-2.32-23.63-6.72-30.76-9.85,1.43,1.18,2.93,2.63,4.39,4.39,2.16,2.62,3.22,4.78,4.07,6.51,1.09,2.21,1.8,3.66,4.08,5.06,1.78,1.09,3.13,1.26,4.68,1.46,1.76.23,3.75.48,6.66,2.01,2.93,1.55,4.14,3,5.11,4.16.8.96,1.38,1.66,2.75,2.21,3.29,1.33,6.35-.27,12.45-3.48,3.12-1.64,7-3.67,12.05-5.9,4.3-1.9,7.55-3.11,9.93-3.99,1.1-.41,2.17-.81,2.91-1.13ZM112.5,193.3c-.18-.29-.2-.61-.01-1,.5-1.06,1.81-.55,2.68-.21.88.34,2.11.9,3.67,1.6,6.65,2.99,19.02,8.56,33.78,11.25,13.03,2.38,24.27,1.89,31.7,1.56,6.4-.28,8.79-.38,9.07,1.42h0c.22,1.46-1.21,1.99-5.03,3.41-2.35.87-5.57,2.07-9.82,3.94-4.99,2.2-8.84,4.22-11.93,5.84-6.43,3.37-9.98,5.23-14.11,3.56-1.83-.74-2.65-1.73-3.53-2.78-.9-1.09-1.93-2.32-4.51-3.68-2.59-1.36-4.32-1.59-5.99-1.8-1.71-.22-3.32-.43-5.46-1.74-2.77-1.69-3.72-3.63-4.82-5.87-.85-1.72-1.81-3.68-3.82-6.13-3.71-4.51-7.78-6.79-9.97-8.02-.89-.5-1.6-.9-1.89-1.37Z"/>
          </g>
          <g>
            <path d="M229.69,167.31c-.81-1.33-2.01-2.28-3.37-2.83.08,1.08-.33,2.09-1.2,2.62-1.32.81-3.16.2-4.11-1.36-.22-.36-.36-.73-.45-1.11-.27.12-.53.26-.79.41-3.44,2.1-4.57,6.51-2.52,9.86s6.49,4.35,9.92,2.26,4.57-6.51,2.52-9.86h0Z"/>
            <path d="M217.2,174.93c-2.05-3.36-.91-7.81,2.54-9.91.24-.15.5-.28.8-.42l.05-.02v.05c.11.4.26.76.46,1.09.94,1.54,2.76,2.14,4.05,1.35.83-.5,1.27-1.47,1.18-2.58v-.07s.06.02.06.02c1.43.57,2.6,1.56,3.39,2.85l.05.09h0c1.98,3.35.83,7.74-2.59,9.82s-7.93,1.09-9.98-2.27Z"/>
          </g>
        </g>
        <circle class="cls-4" cx="223.2" cy="166.5" r="3.5"/>
      </g>
      <path d="M148.05,59.54c-.23,0-.38-.15-.54-.39-.23-.31-.46-.62-.85-.77-.31-.15-.54-.15-1-.15-.54,0-1.16,0-2.16.08-1.85.08-2.46.85-2.93,1.15-.92.62-1.54,2.16-2,2.93-.46.85-.62,1.23-.85,2.08,0,.15-.08.31-.08.46,0,.54.23.92.23,1.39,0,.15,0,.31-.08.39-.08.31-.15.54-.15.85,0,.39.08.85.38,1.39.23.46.38,1.54.38,2.31,0,.69.92,1.54,1.16,2.39.15.62,1,1.85,1,2.23.23.31.46.54.85.54.15,0,.46,0,.69-.15.85-.46,1.16-.54,1.92-1.15.69-.54,1.62-1.31,1.85-1.69.31-.46,1.08-.92,1.54-1.62s.77-.85,1.46-2.08c.77-1.16,1.23-2.77,1.31-3.77.08-1.08.23-1.46.54-2.54.08-.38.15-.62.15-.85,0-.46,0-.77-.08-1.46-.15-1-.31-2.69-.31-2.69,0,0-.54-1.54-.92-2.31-.31-.54-.62-1.08-.62-1.46,0-.15.31-.31.62-.31.85,0,2.62,1.39,2.77,1.69.15.31,1.08.85,1.39,1.54.23.39,1.46,2.69,2.16,3.39.38.92.69,1.77.69,2.85,0,1.46-.23,3.54-1.08,4.85-.46.62-.69,1.69-1.62,3-.92,1.23-1.08,1.15-2.08,2.23-.92,1-1,1.23-2.16,1.62-1.08.46-1.23,1.16-1.77,1.54s-1.54.92-2.23,1.46c-.69.62-.92,1-2,1.31-.85.23-1.08.54-1.08.85,0,.08.08.23.08.39.15.62,1.77,4.08,1.85,4.77.08.77,1.46,2.23,1.54,2.85.08.69.38,2,.62,2.69.23.69.77,3,.77,5.85,0,.39-.08.77-.08,1.23-.46,5-1.54,6.01-2.31,7.55-.85,1.46-1.54,2-2.46,3.23-1,1.31-1.46,1.77-2.23,2.16s-1.46.54-2.23.92c-.77.38-1.39,1.15-5.16,2.16-1.15.31-2.46.31-3.46.31-.77,0-1.46-.08-1.85-.08-.85-.08-4.62-.46-5.93-1.39-.62-.46-2-1.23-2.69-1.77-1-.85-2.08-2.77-2.62-4.23-.15-.31-.15-.77-.15-1.31s0-1.08-.08-1.69c-.15-.85-.46-1.39-.46-2.77,0-.54.08-1.23.15-2.08.38-3.08.85-4.85,2-6.7,1.08-1.85,1.46-2.31,3-4,1.54-1.77,1.85-1.31,2.7-1.92.77-.62,1.08-1.15,1.31-1.39.23-.23.77-.54,1.23-1.15.46-.62,1.62-.92,3.54-2,1.92-1,4-1.85,4.77-2,.39-.08.54-.31.54-.69,0-.31-.15-.77-.23-1.08-.23-.77-1.31-1.85-1.85-2.85-.62-.92-.62-2.08-1.23-3.54-.62-1.39-.62-3.39-1-4.23-.08-.15-.08-.38-.08-.62,0-1,.39-2.46.54-3.46.15-1.31.62-1.92,1.08-2.31.46-.38.38-.77,1.92-2.46,1.46-1.62,4-2.62,7.24-3.08.77-.08,1.39-.15,1.93-.15,1.92,0,2.77.54,3.23.69.69.23,1.85.62,2.39,1.39.23.23.31.54.31.77,0,.38-.23.69-.54.85-.15.08-.54.08-.62.08ZM135.89,82.87c-.31,0-.62.23-1.08.23s-1.23.69-2.31.92c-1.08.31-1.77,1.31-2.93,1.69-1.23.38-1.31.85-2.08,1.54-.77.62-2,2-2.46,2.16-.46.23-.77.31-1.16,1-.38.69-.62,1.62-1.08,2.31s-.69,1-1.31,2.16c-.54,1.08-.31,1.92-.62,2.85-.31.85-.69,3.54-.69,4.31,0,.85.15,2.08.31,2.7.23,1.08,1.15,1.62,1.15,2.77,0,.69.08,1.08.62,1.92.62,1.08,1.62,1.77,2.46,2s1.23.54,2.7.54c3.46,0,5.16-.31,6.54-1.54.69-.62,1.39-.23,1.77-.54.38-.31,1-1.69,1.62-1.93.62-.23.38-.92,1.31-2.16.77-1.23,1.08-2.23,1.46-4,.31-1.31.54-2.69.54-4.47-.08-3.23-.38-5.7-1.31-7.93-.31-.69-.31-1.77-.92-2.31-.69-.54-.85-1.39-1.08-2.16-.15-.77-.31-1.23-.77-1.69-.23-.23-.46-.39-.69-.39Z"/>
    </g>
  </g>
</svg>