<?xml version="1.0" encoding="UTF-8"?>
<svg id="Ebene_2" data-name="Ebene 2" xmlns="http://www.w3.org/2000/svg" viewBox="0 0 66.33 66.33">
  <defs>
    <style>
      .cls-1 {
        fill: #fff;
        stroke: #fff;
        stroke-miterlimit: 10;
        stroke-width: 3px;
      }
    </style>
  </defs>
  <g id="Ebene_1-2" data-name="Ebene 1">
    <path class="cls-1" d="M22.18,45.49v13.85c-.59,1.19-1.81,1.86-3.01.97-.19-.14-.7-.71-.7-.91v-11.38l-.19-.19H6.91c-.08,0-.68-.46-.78-.58-1.01-1.16-.37-2.74,1.04-3.13l13.85.11c.62.23.87.7,1.17,1.24Z"/>
    <path class="cls-1" d="M7.05,22.26c-1.23-.63-1.85-1.98-.85-3.13.1-.12.71-.58.78-.58h11.38l.19-.19V6.98c0-.08.46-.68.58-.78,1.15-1,2.5-.38,3.13.85v13.85c-.32.68-.68,1.05-1.36,1.36H7.05Z"/>
    <path class="cls-1" d="M45.42,22.26c-.69-.4-1.24-.81-1.36-1.67V7.36c.23-1.58,2.24-2.15,3.28-.94.08.1.43.63.43.68v11.44h11.44c.14,0,.81.45.93.59,1.02,1.19.34,2.62-.99,3.12h-13.73Z"/>
    <path class="cls-1" d="M47.8,59.2c-.32,1.78-3.33,1.93-3.68-.15l-.03-13.33c.14-.88.79-1.52,1.67-1.67l13.33.03c1.42.34,2.09,1.92,1.08,3.09-.12.14-.79.59-.93.59h-11.44v11.44Z"/>
    <path class="cls-1" d="M54.85,13.69c-1.79.33-2.88-1.45-1.94-2.93L61.68,1.97c1.83-1.46,4.11.75,2.71,2.59-2.91,2.53-5.58,6.16-8.52,8.55-.31.25-.61.51-1.02.59Z"/>
    <path class="cls-1" d="M63.29,64.8c-.72.11-1.1-.1-1.64-.53-2.39-2.9-6.31-5.62-8.53-8.54-1.54-2.02.73-4.17,2.65-2.65,2.41,2.92,6.36,5.66,8.6,8.6.92,1.2.41,2.89-1.08,3.12Z"/>
    <path class="cls-1" d="M12.27,13.69c-.59.1-1.09,0-1.58-.34L1.97,4.63C.5,2.78,2.77.49,4.63,1.97l8.72,8.72c.79,1.07.3,2.78-1.08,3Z"/>
    <path class="cls-1" d="M3.91,64.76c-1.93.44-3.18-1.66-1.89-3.12l8.66-8.65c1.98-1.14,3.89,1.02,2.47,2.84-2.87,2.5-5.46,5.95-8.35,8.35-.22.19-.62.53-.89.59Z"/>
  </g>
</svg>