<?xml version="1.0" encoding="UTF-8"?>
<svg id="Ebene_2" xmlns="http://www.w3.org/2000/svg" viewBox="0 0 2366.75 1923.91">
  <defs>
    <style>
      .cls-1 {
        fill: #fff;
      }
    </style>
  </defs>
  <g id="Ebene_1-2" data-name="Ebene_1">
    <g>
      <path class="cls-1" d="M1183.87,2.18c172.48,0,345.19-5.67,517.38,1.27,289.06,11.65,544.55,231.06,601.95,515.17,17.5,86.61,19.74,176.66,24.65,265.38,13.93,251.54,24.97,503.24,38.41,754.81,9.93,185.88-137.68,361.21-323.1,381.37-196.94,21.42-348.17-71.95-417.54-257.64-38.68-103.55-77.86-206.93-116.05-310.66-5.55-15.07-12.63-20.45-29.29-20.39-198.17.69-396.34.68-594.51.01-16.5-.06-23.81,4.99-29.4,20.2-40.09,109.01-80.52,217.9-121.91,326.43-57.01,149.5-188.81,242.39-346.77,245.69-159,3.32-295.59-81.72-357.2-222.76-24.52-56.13-33.19-114.69-29.81-176.03,9.67-175.44,17.47-350.98,26.67-526.45,7.35-140.18,10.94-280.77,24.56-420.36C76.79,323.54,275.63,95.67,524.58,26.45,588.44,8.7,653.24.12,719.33.11c154.85-.03,309.69-.01,464.54-.01,0,.69,0,1.39,0,2.08ZM1184.64,147.87v-.2c-93.88,0-187.76-.51-281.63.15-83.39.59-167.14-2.02-250.09,4.64-223.22,17.92-419.85,202.49-451.44,424.33-11.38,79.95-12.44,161.44-16.7,242.31-12.66,240.38-24.85,480.79-36.33,721.23-1.09,22.88,1.29,46.77,6.91,68.97,23.47,92.81,106.15,160.76,198.77,165.67,115.72,6.13,202.12-45.37,240.53-145.62,42.98-112.2,84.45-224.98,126.55-337.52,27.44-73.34,77.47-108.37,155.56-108.4,203.8-.07,407.6-.07,611.41,0,79.59.02,128.79,34.59,156.96,109.76,41.61,111.02,83.77,221.83,124.82,333.05,58.8,159.3,240.63,182.17,344.75,114.6,82.67-53.65,108.19-132.66,102.64-228.45-14.34-247.51-24.73-495.25-38.41-742.81-4.24-76.69-5.31-155.12-22.83-229.21-54.64-231.04-257.41-389.35-494.86-392.13-158.85-1.86-317.73-.35-476.6-.35Z"/>
      <path class="cls-1" d="M591.02,590.47c-8.23.52-12.97,1.07-17.71,1.08-43.3.1-86.62-.88-129.88.43-43.28,1.31-75.13,35.04-74.03,75.74,1.07,39.99,33.18,71,75.26,72,23.24.55,46.5.14,69.75.15,25.27.01,50.53,0,76.64,0,0,51.24-.57,98.54.17,145.82.67,43.52,32.69,75.71,73.78,75.82,41.13.11,73.35-31.84,74.27-75.34.86-40.88.22-81.79.23-122.69,0-7.55,0-15.11,0-23.78,52.99,0,101.87.81,150.71-.27,35.16-.78,63.83-27.3,70.03-61.72,5.83-32.35-12.92-67.46-44.89-79.41-13.1-4.9-28.1-6.16-42.29-6.41-43.8-.78-87.61-.29-133.58-.29,0-47.72.13-92.44-.03-137.17-.18-50.53-31.26-85.34-75.23-84.61-43.24.71-73.01,34.84-73.17,84.23-.15,44.76-.03,89.51-.03,136.42ZM1514.89,739.69c13.59,0,27.22.59,40.78-.11,38.26-1.97,68.49-31.65,70.52-68.6,2.1-38.42-22.22-72.54-60.57-76.8-33.07-3.68-67.22-3.62-100.28.13-37.71,4.28-63.6,40.76-60.37,77.29,3.29,37.14,33.63,66.22,71.55,68.03,12.77.61,25.58.1,38.38.06ZM1774.72,483.2s.06,0,.09,0c0-13.6.63-27.23-.12-40.78-2.21-40.38-33.45-71.46-72.3-72.59-38.42-1.11-72.58,29.1-75.3,69.22-1.88,27.86-1.92,56.06-.01,83.92,2.76,40.37,35.91,69.17,75.55,68.36,38.45-.79,69.02-30.1,71.95-69.75.94-12.73.15-25.58.15-38.38ZM1774.77,852.17c0-13.6.71-27.24-.13-40.79-2.5-40.31-34.3-71.05-73.19-71.46-38.89-.4-72.01,29.68-74.47,69.98-1.65,27.1-1.62,54.45-.03,81.55,2.37,40.44,35.02,70.28,74.2,70.06,39.15-.22,70.82-30.52,73.47-70.95.83-12.74.13-25.59.15-38.39ZM1883.95,739.63c14.39,0,28.83.76,43.17-.15,36.7-2.33,66.23-31.58,69.24-67.7,3.01-36.16-21.19-72.32-57.78-76.77-34.54-4.2-70.36-4.29-104.91-.24-37.71,4.43-61.89,40.74-58.46,78.42,3.27,35.86,33.27,64.41,70.37,66.38,12.76.68,25.58.11,38.38.05Z"/>
      <path class="cls-1" d="M591.02,590.47c0-46.9-.12-91.66.03-136.42.17-49.39,29.93-83.52,73.17-84.23,43.97-.72,75.05,34.08,75.23,84.61.16,44.73.03,89.45.03,137.17,45.96,0,89.78-.5,133.58.29,14.19.25,29.19,1.52,42.29,6.41,31.97,11.95,50.72,47.05,44.89,79.41-6.2,34.42-34.87,60.94-70.03,61.72-48.84,1.08-97.72.27-150.71.27,0,8.68,0,16.23,0,23.78-.02,40.9.63,81.81-.23,122.69-.92,43.5-33.14,75.46-74.27,75.34-41.09-.11-73.1-32.3-73.78-75.82-.73-47.28-.17-94.58-.17-145.82-26.11,0-51.37,0-76.64,0-23.25,0-46.51.4-69.75-.15-42.08-1-74.19-32-75.26-72-1.09-40.71,30.76-74.44,74.03-75.74,43.26-1.31,86.58-.32,129.88-.43,4.74-.01,9.48-.56,17.71-1.08Z"/>
      <path class="cls-1" d="M1514.89,739.71c-12.79.02-25.61.53-38.38-.08-37.92-1.81-68.26-30.89-71.55-68.03-3.23-36.53,22.66-73.01,60.37-77.29,33.06-3.75,67.21-3.81,100.28-.13,38.34,4.27,62.67,38.38,60.57,76.8-2.02,36.94-32.26,66.62-70.52,68.6-13.56.7-27.18.11-40.78.13Z"/>
      <path class="cls-1" d="M1774.72,483.2c0,12.8.79,25.65-.15,38.38-2.93,39.66-33.5,68.96-71.95,69.75-39.64.81-72.79-27.99-75.55-68.36-1.91-27.86-1.87-56.06.01-83.92,2.71-40.13,36.87-70.34,75.3-69.22,38.85,1.12,70.09,32.21,72.3,72.59.74,13.56.12,27.19.12,40.78-.03,0-.06,0-.09,0Z"/>
      <path class="cls-1" d="M1774.76,852.17c-.01,12.8.69,25.64-.14,38.39-2.64,40.44-34.31,70.74-73.47,70.95-39.18.22-71.83-29.62-74.2-70.06-1.59-27.1-1.62-54.46.03-81.55,2.46-40.29,35.57-70.38,74.47-69.98,38.89.4,70.69,31.14,73.19,71.46.84,13.55.13,27.19.12,40.79Z"/>
      <path class="cls-1" d="M1883.95,739.66c-12.79.03-25.62.6-38.38-.08-37.09-1.97-67.1-30.53-70.37-66.38-3.44-37.68,20.75-74,58.46-78.42,34.56-4.06,70.37-3.97,104.91.24,36.58,4.45,60.79,40.61,57.78,76.77-3.01,36.11-32.53,65.37-69.24,67.7-14.33.91-28.78.15-43.17.18Z"/>
    </g>
  </g>
</svg>