<?xml version="1.0" encoding="UTF-8"?>
<svg id="Ebene_2" data-name="Ebene 2" xmlns="http://www.w3.org/2000/svg" viewBox="0 0 418.55 296.69">
  <defs>
    <style>
      .cls-1 {
        fill: none;
        stroke: #fff;
        stroke-miterlimit: 10;
        stroke-width: 9px;
      }

      .cls-2 {
        fill: #fff;
      }
    </style>
  </defs>
  <g id="Ebene_1-2" data-name="Ebene 1">
    <path class="cls-2" d="M298.08,112.32c15.24,6.18,31.66,14.74,45.73,24.47,4.51,3.12,8.83,7.32,13.27,10.23.86.56,2.35,1.84,3.34,1.54l47.08-55.96c3.72-3.87,9.66-2.63,10.63,2.86.87,4.92.11,9.2.09,13.86-.18,54.18.16,108.37.06,162.56-2.71,8.16-7.52,5.47-12.29.72-14.68-14.58-27.77-34.1-41.99-49.51-.79-.86-3.65-3.96-4.49-3.98-1.14-.03-16.21,11.04-18.81,12.7-33.25,21.3-72.3,34.26-111.46,39.29,1.24,1.77-.44,1.39-.49,1.8-1.95,14.58-15.9,24.85-30.75,23.69-16.78-1.31-36.82-23.93-51.1-32.9-4.36-2.73-9.32-3.57-14-5.5-30.57-12.61-62.4-38.52-79.56-66.94-3.77-6.25-4.32-8.03-.85-14.66,14.27-27.34,49.51-55.74,77.42-68.08,5.5-2.43,12.2-3.9,17.22-7.25,12.25-8.17,23.6-18.38,35.96-26.57,9.48-6.28,18.43-9.55,29.65-4.83,10.34,4.35,15.77,14.33,17.49,25.01,12.87,1.82,25.66,3.93,38.22,7.28,10.13,2.7,19.94,6.24,29.63,10.17ZM335.09,179c4.29-6.43,10.2-11.93,15.15-18.15.65-.81,2.7-2.94,2.29-3.73-.5-.97-6.29-5.45-7.61-6.42-50.69-37.24-119.56-54.87-181.57-41.24-4.97,1.09-14.44,3.13-18.75,5.25-.43.21-.86.29-.6.91.43,1.03,4.36,3.43,5.52,4.49,24.09,21.91,34.62,53.08,25.49,85.01-5.33,18.64-16.94,33.41-31.75,45.5,70.38,25.01,150.54,3.37,208.77-39.99v-1.5c-4.17-5.01-8.36-10-12.51-15.01-3.04-3.67-9.83-8.56-6-13.99.46-.66,1.4-.83,1.59-1.11ZM407.25,257.11V110.61l-62.01,73.24,62.01,73.26ZM130.62,120.2c-1.64.25-10.16,5.14-12.2,6.33-17.3,10.09-34.87,25.62-46.87,41.63-1.71,2.29-9.36,13.22-9.33,15.22.02,1.21,5.92,9.73,7.12,11.41,12.51,17.37,32.94,35.6,51.9,45.6,1.62.85,9,4.72,10.18,4.63,1.42-.11,9.03-6.5,10.57-7.9,33.12-30.15,34.15-78.23.53-108.5-2.05-1.84-7.92-6.82-10.09-7.92-.66-.33-.97-.61-1.8-.49Z"/>
    <path class="cls-2" d="M111.12,173.71c9.92-1.94,12.85,14.75,2.32,15.86s-11.52-14.07-2.32-15.86Z"/>
    <g>
      <path class="cls-1" d="M4.34,164.08c5.47-20.16,19.5-60.31,56.29-94.57,33.91-31.58,72.93-44.92,105.1-50.17"/>
      <polygon class="cls-2" points="152.36 41.8 229.5 17.75 150.66 0 152.36 41.8"/>
    </g>
  </g>
</svg>