<?xml version="1.0" encoding="UTF-8"?>
<svg id="Ebene_2" data-name="Ebene 2" xmlns="http://www.w3.org/2000/svg" viewBox="0 0 157.52 147.91">
  <defs>
    <style>
      .cls-1 {
        fill: #fff;
      }
    </style>
  </defs>
  <g id="Ebene_1-2" data-name="Ebene 1">
    <g>
      <path class="cls-1" d="M56.85,4.73c2.51-.57,5.74-.2,7.66,1.63l81.75,81.75c3.31,4.33,2.72,7.45-.51,11.52-11.2,14.11-29.17,26.95-40.99,41.01-3.39,3.28-8.23,3.32-11.77.25L11.98,59.88c-2.96-3.34-3.09-7.37-.48-11.01,14.34-12.52,27.29-29.73,41.74-41.76.9-.75,2.52-2.14,3.62-2.38ZM68.25,17.63L23.03,63.3l66.71,66.81,45.21-45.67L68.25,17.63Z"/>
      <path class="cls-1" d="M16,94.12l-6,1.51c6.04,20.9,22.66,38.03,42.88,45.87,1.84.71,8.27,2.23,9.14,2.88s-.07,2.72-.49,3.54c-25.72-5.94-46.87-25.53-55-50.58l-6.51,1.29c.66-6.19,2.67-12.1,4.5-18,.92-.69,3.21,3.72,3.79,4.46,2.06,2.62,5.64,5.5,7.21,7.79.29.42.7.49.49,1.25Z"/>
      <path class="cls-1" d="M157.49,49.12c.33,1.31-3.49,19.18-4.99,18-2.23-4.96-6.36-9.19-10-13.25l5.49-1.75c.88-.89-5.35-13.49-6.42-15.33-9.62-16.51-27.4-29.57-46.09-33.67l.53-2.97c1.02-.99,11.83,3.24,13.65,4.04,19.74,8.64,35.02,25.83,41.8,46.23l6.02-1.29Z"/>
    </g>
  </g>
</svg>