<?xml version="1.0" encoding="UTF-8"?>
<svg id="Ebene_2" data-name="Ebene 2" xmlns="http://www.w3.org/2000/svg" xmlns:xlink="http://www.w3.org/1999/xlink" viewBox="0 0 1200 650">
  <defs>
    <style>
      .cls-1 {
        fill: url(#linear-gradient);
      }

      .cls-2 {
        fill: url(#linear-gradient-8);
      }

      .cls-2, .cls-3, .cls-4, .cls-5, .cls-6, .cls-7, .cls-8, .cls-9 {
        stroke: #fff;
        stroke-miterlimit: 10;
        stroke-width: 5px;
      }

      .cls-3 {
        fill: url(#linear-gradient-5);
      }

      .cls-4 {
        fill: url(#linear-gradient-7);
      }

      .cls-5 {
        fill: url(#linear-gradient-4);
      }

      .cls-6 {
        fill: url(#linear-gradient-3);
      }

      .cls-7 {
        fill: url(#linear-gradient-9);
      }

      .cls-8 {
        fill: url(#linear-gradient-2);
      }

      .cls-9 {
        fill: url(#linear-gradient-6);
      }
    </style>
    <linearGradient id="linear-gradient" x1="0" y1="325" x2="1200" y2="325" gradientUnits="userSpaceOnUse">
      <stop offset=".5" stop-color="#c8e9f8"/>
      <stop offset="1" stop-color="#76c4e8"/>
    </linearGradient>
    <linearGradient id="linear-gradient-2" x1="124" y1="325.93" x2="228.15" y2="325.93" gradientUnits="userSpaceOnUse">
      <stop offset="0" stop-color="#fbb040"/>
      <stop offset="1" stop-color="#ef4136"/>
    </linearGradient>
    <linearGradient id="linear-gradient-3" x1="239.85" y1="325.47" x2="336.29" y2="325.47" xlink:href="#linear-gradient-2"/>
    <linearGradient id="linear-gradient-4" x1="348.91" y1="325.24" x2="503.83" y2="325.24" xlink:href="#linear-gradient-2"/>
    <linearGradient id="linear-gradient-5" x1="517.96" y1="326.27" x2="597.78" y2="326.27" xlink:href="#linear-gradient-2"/>
    <linearGradient id="linear-gradient-6" x1="656.4" y1="325.58" x2="762.15" y2="325.58" xlink:href="#linear-gradient-2"/>
    <linearGradient id="linear-gradient-7" x1="766.84" y1="324.77" x2="879.82" y2="324.77" xlink:href="#linear-gradient-2"/>
    <linearGradient id="linear-gradient-8" x1="888.8" y1="326.27" x2="968.62" y2="326.27" xlink:href="#linear-gradient-2"/>
    <linearGradient id="linear-gradient-9" x1="976.69" y1="325.58" x2="1076" y2="325.58" xlink:href="#linear-gradient-2"/>
  </defs>
  <g id="Ebene_1-2" data-name="Ebene 1">
    <rect class="cls-1" x="0" width="1200" height="650"/>
    <g>
      <path class="cls-8" d="M168.02,362.32c2.07,5.76,6.45,8.29,10.6,8.29,12.21,0,14.05-21.19,14.05-29.48,0-1.15-.92-2.07-2.07-2.07-.23,0-.46.23-.69.23-1.38.23-4.61.46-5.53.69-.69.23-1.61.23-2.53.23-2.3,0-4.61-.69-5.53-3.92-1.38-4.61-2.76-14.05-2.3-20.73.46-4.15,3.46-6.22,7.37-6.68,6.45-.46,20.5-1.84,30.17-1.84,3.92,0,13.13,0,14.05,5.07,8.52,48.37-3.69,93.98-47.68,93.98-22.8,0-39.62-13.36-47.22-34.55-8.98-25.57-8.98-64.03.23-93.52,5.99-19.35,22.34-31.33,42.15-32.25,23.26,0,41.23,7.6,47.45,31.56.46,1.38.69,4.15-1.61,5.53-8.75,4.38-16.35,6.68-26.49,6.91-2.07,0-3.22-.46-4.61-1.84-1.15-1.61-1.61-3.46-2.53-4.84-2.07-2.76-4.61-4.38-7.14-4.38-3.92,0-7.83,3.22-10.14,9.67-6.45,17.51-6.45,56.43,0,73.94Z"/>
      <path class="cls-6" d="M249.56,406.09c-3.22,0-7.14-.23-7.6-4.38-.92-37.78-4.84-76.01,1.15-113.33,3.69-23.73,20.27-43.53,45.38-43.53,20.04,0,39.16,13.36,43.3,33.63,7.14,38.01,3.92,79.93,2.76,118.63-.46,7.6-9.67,8.98-15.66,8.98-4.38,0-8.75-.69-13.13-1.38-1.84-.46-3.69-2.07-4.15-3.92-1.15-5.3-.69-16.58-.69-22.11,0-2.07-.69-2.76-2.53-2.76-5.53.23-10.83.46-16.12.46-2.99.23-3.69.46-3.46,3.46.23,4.84.46,10.6.46,15.89-.23,2.53-1.84,5.76-4.15,6.22-8.29,2.07-17.05,4.15-25.57,4.15ZM277.2,341.13c0,4.15.69,5.07,4.84,5.07,4.84,0,9.67-.23,14.51-.23,4.38,0,4.84-1.15,4.61-4.38-.69-17.74,0-35.7-3.22-53.21-.69-4.15-4.61-8.52-8.98-8.52-5.3.46-11.06,4.15-11.75,13.36-1.15,19.81-.23,32.02,0,47.91Z"/>
      <path class="cls-5" d="M389.15,395.03c.69,3.69-.23,5.99-4.38,6.68-8.52,1.38-17.05,2.53-25.8,3.22-2.99,0-5.53-1.15-6.22-4.61-5.53-28.79-4.84-93.52.46-115.4,5.53-24.19,23.26-40.54,42.61-40.54,9.91,0,20.5,4.38,29.71,14.51,8.98-9.9,18.89-14.28,28.33-14.28,20.04,0,38.47,18.2,44.92,40.31,7.14,25.11,6.22,87.53.23,113.56-1.38,5.76-2.99,7.6-9.44,7.6-8.52,0-16.81-.46-24.88-3.46-4.61-1.61-3.22-6.45-2.53-9.44,3.46-17.51,3.22-73.71,1.61-91.22-.23-3.92-2.3-16.35-7.37-16.35-2.3,0-4.84,2.53-7.6,7.14-8.52,14.97-6.45,71.41-5.99,95.36,0,6.45-3.92,7.14-10.6,7.14h-5.99c-7.6-.23-16.59-.23-17.28-6.22-2.76-19.81-2.07-67.26-3.69-85-.46-4.15-4.38-18.89-10.13-18.89-2.07,0-3.69,1.61-4.84,4.84-4.84,12.67-4.61,85.92-1.15,105.04Z"/>
      <path class="cls-3" d="M559.14,246.46c8.98,0,18.43.46,27.87,1.38,3.69.46,6.91,4.61,7.6,8.29,1.61,8.75,1.84,17.05-.69,25.57-.69,2.76-5.3,3.92-8.06,4.38-2.99.46-6.22.46-9.21.46h-2.53c-3.92,0-7.83,0-11.75.69-1.84.23-3.92,1.84-4.15,3.69-1.15,6.68-1.38,11.29-.46,17.97.23,1.61,1.84,3.22,3.45,3.46,2.76.46,5.76.46,8.52.46h2.3c3.69,0,7.37,0,10.83.69,2.53.46,5.07,2.76,5.76,5.3,1.61,7.83,2.07,13.59.92,21.65-.46,2.3-2.99,4.38-5.3,4.84-7.37,1.38-15.43.92-22.8,1.84-1.61.23-3.46,1.84-3.69,3.69-.69,6.45-.69,10.83.46,17.28.23,1.38,1.61,2.99,2.99,2.99h2.3c7.6,0,15.2-.69,22.8-.69h4.15c2.53.23,5.3,2.3,5.99,4.61,1.61,6.45,1.84,14.97.23,21.42-.69,2.99-2.99,6.68-6.22,7.14-13.13,1.61-26.26,2.53-39.39,2.53-7.6,0-14.97-.23-22.57-.92-3.22,0-6.91-3.22-7.14-6.22-2.99-46.99-4.61-94.21-2.3-140.97.23-4.84,2.53-8.52,7.14-9.21,9.44-1.38,20.73-2.3,32.94-2.3Z"/>
      <path class="cls-9" d="M748.47,389.5c-7.83,10.37-22.11,16.58-37.09,16.58-17.28,0-35.47-8.52-44.92-29.02-17.51-38.01-17.28-132.45,42.61-131.99,24.19.23,36.16,11.29,43.77,28.56,11.52,26.72,14.74,91.22-4.38,115.86ZM720.83,292.07c-2.99-7.83-6.68-10.83-10.13-10.83-7.14,0-14.05,11.29-14.97,21.65-1.61,19.35-3.22,39.62,3.46,58.28,2.3,5.99,7.37,8.52,12.44,8.52,3.92,0,7.6-1.61,9.44-4.38,8.75-13.13,5.07-58.51-.23-73.25Z"/>
      <path class="cls-4" d="M787.86,244.15c1.84,0,3.92.23,5.99.69,2.99.46,5.76,3.22,6.45,5.76,6.45,23.73,15.2,64.5,20.04,88.45.23,1.61.92,2.53,1.84,2.53s1.84-1.15,2.3-3.22c5.3-24.19,12.44-64.27,20.5-87.76,1.15-3.46,5.07-7.37,8.98-7.14,7.14.92,11.98,2.3,18.89,4.15,4.61,1.15,7.37,4.84,6.91,7.83-10.6,49.75-23.73,93.29-39.62,141.66-2.76,8.52-16.81,8.98-24.19,8.98-7.83,0-16.81,0-18.89-9.44-11.75-48.6-22.34-92.37-30.17-141.89-.46-2.53,2.07-5.3,4.61-6.45,5.76-2.3,10.6-4.15,16.35-4.15Z"/>
      <path class="cls-2" d="M929.98,246.46c8.98,0,18.43.46,27.87,1.38,3.69.46,6.91,4.61,7.6,8.29,1.61,8.75,1.84,17.05-.69,25.57-.69,2.76-5.3,3.92-8.06,4.38-2.99.46-6.22.46-9.21.46h-2.53c-3.92,0-7.83,0-11.75.69-1.84.23-3.92,1.84-4.15,3.69-1.15,6.68-1.38,11.29-.46,17.97.23,1.61,1.84,3.22,3.45,3.46,2.76.46,5.76.46,8.52.46h2.3c3.69,0,7.37,0,10.83.69,2.53.46,5.07,2.76,5.76,5.3,1.61,7.83,2.07,13.59.92,21.65-.46,2.3-2.99,4.38-5.3,4.84-7.37,1.38-15.43.92-22.8,1.84-1.61.23-3.46,1.84-3.69,3.69-.69,6.45-.69,10.83.46,17.28.23,1.38,1.61,2.99,2.99,2.99h2.3c7.6,0,15.2-.69,22.8-.69h4.15c2.53.23,5.3,2.3,5.99,4.61,1.61,6.45,1.84,14.97.23,21.42-.69,2.99-2.99,6.68-6.22,7.14-13.13,1.61-26.26,2.53-39.39,2.53-7.6,0-14.97-.23-22.57-.92-3.22,0-6.91-3.22-7.14-6.22-2.99-46.99-4.61-94.21-2.3-140.97.23-4.84,2.53-8.52,7.14-9.21,9.44-1.38,20.73-2.3,32.94-2.3Z"/>
      <path class="cls-7" d="M1067.26,400.56c-4.84,1.84-11.52,3.92-17.05,3.92-1.38,0-2.76-.23-3.92-.46-6.68-1.15-5.07-1.38-8.29-8.06-3.69-7.37-10.37-31.1-23.73-36.39.23,13.13.69,24.19,1.15,37.32,0,3.22-1.84,8.29-4.84,8.75-5.76.69-10.6.92-14.97.92-4.15,0-8.06-.23-12.44-.46-3.22-.23-5.3-3.69-5.53-6.91-.23-14.97-.69-30.17-.92-46.07-.23-34.55.46-69.33,2.07-103.42.23-2.53,3.92-4.38,6.68-4.38,8.06,0,17.05-.69,26.03-.69,13.82,0,27.87,1.38,39.85,8.52,17.97,10.83,17.97,28.56,17.28,45.15-.69,17.05-10.6,36.62-25.34,42.38,18.43,8.52,27.41,32.25,32.48,50.91,1.15,4.38-2.3,6.45-8.52,8.98ZM1034.09,292.3c-.92-9.9-3.22-16.12-19.58-16.35-1.38,0-2.53.92-2.53,2.76,0,9.9-.23,22.34-.46,32.25,0,2.53,1.15,3.22,2.53,3.22,5.3-.46,11.06-2.53,15.2-6.22,3.92-2.99,5.07-10.14,4.84-15.66Z"/>
    </g>
  </g>
</svg>