<?xml version="1.0" encoding="UTF-8"?>
<svg id="Ebene_2" data-name="Ebene 2" xmlns="http://www.w3.org/2000/svg" xmlns:xlink="http://www.w3.org/1999/xlink" viewBox="0 0 1200 650">
  <defs>
    <style>
      .cls-1 {
        fill: url(#Unbenannter_Verlauf_47);
      }

      .cls-1, .cls-2, .cls-3, .cls-4, .cls-5, .cls-6, .cls-7 {
        stroke: #fff;
        stroke-miterlimit: 10;
        stroke-width: 11px;
      }

      .cls-8 {
        fill: url(#linear-gradient);
      }

      .cls-2 {
        fill: url(#Unbenannter_Verlauf_47-6);
      }

      .cls-3 {
        fill: url(#Unbenannter_Verlauf_47-5);
      }

      .cls-4 {
        fill: url(#Unbenannter_Verlauf_47-3);
      }

      .cls-5 {
        fill: url(#Unbenannter_Verlauf_47-4);
      }

      .cls-6 {
        fill: url(#Unbenannter_Verlauf_47-2);
      }

      .cls-7 {
        fill: url(#Unbenannter_Verlauf_47-7);
      }
    </style>
    <linearGradient id="linear-gradient" x1="0" y1="325" x2="1200" y2="325" gradientUnits="userSpaceOnUse">
      <stop offset=".5" stop-color="#c8e9f8"/>
      <stop offset="1" stop-color="#76c4e8"/>
    </linearGradient>
    <linearGradient id="Unbenannter_Verlauf_47" data-name="Unbenannter Verlauf 47" x1="1114.35" y1="379.02" x2="258.43" y2="330.74" gradientUnits="userSpaceOnUse">
      <stop offset=".36" stop-color="#64ee85"/>
      <stop offset="1" stop-color="#276388"/>
    </linearGradient>
    <linearGradient id="Unbenannter_Verlauf_47-2" data-name="Unbenannter Verlauf 47" x1="1114.66" y1="373.6" x2="258.74" y2="325.32" xlink:href="#Unbenannter_Verlauf_47"/>
    <linearGradient id="Unbenannter_Verlauf_47-3" data-name="Unbenannter Verlauf 47" x1="1115.04" y1="366.9" x2="259.11" y2="318.62" xlink:href="#Unbenannter_Verlauf_47"/>
    <linearGradient id="Unbenannter_Verlauf_47-4" data-name="Unbenannter Verlauf 47" x1="1115.69" y1="355.25" x2="259.77" y2="306.97" xlink:href="#Unbenannter_Verlauf_47"/>
    <linearGradient id="Unbenannter_Verlauf_47-5" data-name="Unbenannter Verlauf 47" x1="1115.92" y1="351.19" x2="260" y2="302.91" xlink:href="#Unbenannter_Verlauf_47"/>
    <linearGradient id="Unbenannter_Verlauf_47-6" data-name="Unbenannter Verlauf 47" x1="1116.28" y1="344.94" x2="260.35" y2="296.66" xlink:href="#Unbenannter_Verlauf_47"/>
    <linearGradient id="Unbenannter_Verlauf_47-7" data-name="Unbenannter Verlauf 47" x1="1116.55" y1="340.14" x2="260.62" y2="291.85" xlink:href="#Unbenannter_Verlauf_47"/>
  </defs>
  <g id="Ebene_1-2" data-name="Ebene 1">
    <rect class="cls-8" x="0" width="1200" height="650"/>
    <g>
      <path class="cls-1" d="M208.34,267.24c-.46-3.47,0-6.71,3.01-8.79,6.94-4.4,15.5-7.17,23.83-7.17,5.09,0,9.26.46,9.72,6.71,1.16,10.41,7.4,58.54,20.59,58.54,12.03,0,20.36-48.36,21.06-58.77.23-3.47,4.17-6.94,7.64-6.94,12.03.46,17.35,1.62,25.45,5.32,4.4,1.85,3.01,6.48,2.55,9.95-6.71,45.35-16.89,74.51-35.63,83.99-3.47,1.62-1.16,47.9-1.39,55.77-.23,3.01-2.31,6.48-5.55,6.71-4.4.23-8.33.46-12.5.46-4.4,0-9.26-.23-15.04-.93-3.24-.46-4.86-5.55-4.86-8.79,0,0,2.78-50.21.23-51.6-22.91-11.34-34.01-53.68-39.1-84.46Z"/>
      <path class="cls-6" d="M418.21,396.36c-7.87,10.41-22.21,16.66-37.25,16.66-17.35,0-35.63-8.56-45.12-29.16-17.59-38.18-17.35-133.05,42.81-132.59,24.3.23,36.33,11.34,43.96,28.69,11.57,26.84,14.81,91.63-4.4,116.39ZM390.44,298.48c-3.01-7.87-6.71-10.88-10.18-10.88-7.17,0-14.11,11.34-15.04,21.75-1.62,19.44-3.24,39.8,3.47,58.54,2.31,6.02,7.4,8.56,12.5,8.56,3.93,0,7.64-1.62,9.49-4.4,8.79-13.19,5.09-58.77-.23-73.58Z"/>
      <path class="cls-4" d="M449.21,371.6c-6.94-24.53-6.02-85.61-.23-111.53,1.39-6.02,3.24-7.4,10.41-7.4,7.87.23,14.58.46,23.14,3.47,4.63,1.62,3.24,6.25,2.55,9.26-3.24,17.35-3.01,72.42-1.62,89.55.93,10.64,7.87,21.98,15.04,21.98,3.7,0,7.4-3.01,10.18-10.88,4.63-12.73,4.4-84.46,1.16-102.97-.69-3.7.23-6.02,4.17-6.71,8.56-1.39,16.89-2.54,25.45-3.01,3.24,0,5.32.93,6.02,4.4,5.55,28,4.86,91.63-.23,113.15-6.25,25.92-19.67,42.11-48.36,42.11-26.38.23-40.96-17.82-47.67-41.42Z"/>
      <path class="cls-5" d="M725.72,261.69c-.69-3.7.46-6.02,4.63-6.71,8.56-1.39,17.12-2.78,25.92-3.24,3.24,0,5.55,1.16,6.25,4.63,5.55,28.69,4.86,93.71-.46,115.93-5.78,24.3-23.6,40.72-42.81,40.72-9.95,0-20.59-4.4-29.85-14.58-9.02,9.95-18.97,14.35-28.69,14.35-19.9,0-38.64-18.28-44.89-40.72-7.17-24.99-6.25-87.7-.46-114.08,1.39-6.02,3.47-7.64,10.88-7.64,8.1.23,14.81.46,23.6,3.7,4.63,1.62,3.24,6.25,2.78,9.26-3.47,17.82-3.24,74.04-1.62,91.86.23,3.01.69,6.02,1.62,8.56,1.62,5.32,3.7,7.87,5.78,7.87,2.31,0,4.86-2.78,7.64-7.4,8.56-14.81,6.25-71.5,6.02-95.56,0-6.25,3.7-7.4,9.95-7.4,1.85,0,4.16.23,6.48.23,7.87.23,16.89.23,17.59,6.25,2.78,19.9,2.08,67.57,3.7,85.38.46,4.63,3.93,18.74,10.18,18.74,1.85,0,3.7-1.62,4.86-4.63,4.63-12.96,4.4-86.54.93-105.51Z"/>
      <path class="cls-3" d="M781.49,260.76c.23-3.24,2.31-6.48,5.32-6.71,4.4-.23,8.33-.46,12.49-.46,4.4,0,9.26.23,15.04.93,3.24.23,5.09,5.55,4.86,8.56-1.62,47.67-1.62,94.41,0,140.22.23,3.24-1.62,8.33-4.86,8.79-5.78.69-10.64.93-15.04.93-4.16,0-8.1-.23-12.49-.46-3.01-.23-5.32-3.7-5.32-6.71-.93-43.04-2.78-88.16,0-145.08Z"/>
      <path class="cls-2" d="M859.69,412.09c-4.4.23-7.87.46-11.11.46-3.93,0-7.87-.23-13.65-.93-3.24-.46-4.86-5.55-4.86-8.79,1.62-45.81,1.62-92.56,0-140.22,0-3.01,1.62-8.33,4.86-8.56,5.78-.69,9.26-.93,12.26-.93s5.78.23,10.18.46c11.11.93,21.75,44.43,23.14,51.14s12.73,51.83,19.44,51.83c1.16,0,1.62-2.78,1.85-6.94.23-4.63.23-9.26,0-14.12-.23-9.26,0-19.9.23-30.31.23-17.59.93-34.01,1.39-43.96.23-3.24,2.31-6.25,5.55-6.94,8.33-1.39,12.96-1.85,23.6-2.55,4.86,0,7.17,3.47,7.17,8.1-1.62,47.67-3.24,88.62-1.39,134.44.23,6.94-1.39,10.64-5.32,14.35-3.47,3.24-9.02,4.4-14.81,4.4-4.17,0-8.33-.46-12.26-1.16-14.81-2.31-29.16-29.85-35.87-43.73-.46-.93-.93-1.16-1.39-1.16s-1.16.69-1.16,2.31c-.46,13.65-2.08,18.74-2.31,36.1,0,3.01-2.31,6.48-5.55,6.71Z"/>
      <path class="cls-7" d="M972.61,372.52c12.73,0,19.21,7.4,19.21,19.9s-9.49,20.13-21.98,20.13-16.43-9.49-16.43-20.13,5.55-19.44,19.21-19.9ZM960.58,351.93c.23,3.24,2.08,6.48,5.09,6.71.93,0,2.55.23,4.4.23,3.24,0,7.4-.23,10.18-.69,2.78-.23,4.4-5.55,4.4-8.56,1.85-35.87,4.16-40.96,5.78-88.62,0-3.24-1.62-8.33-4.63-8.79s-5.55-.46-8.1-.46c-6.02,0-10.88.93-17.35,1.39-3.24.23-5.32,3.7-5.32,6.94-.69,36.79,2.78,57.15,5.55,91.86Z"/>
    </g>
  </g>
</svg>