<?xml version="1.0" encoding="UTF-8"?>
<svg id="Ebene_2" data-name="Ebene 2" xmlns="http://www.w3.org/2000/svg" xmlns:xlink="http://www.w3.org/1999/xlink" viewBox="0 0 1210.05 650.09">
  <defs>
    <style>
      .cls-1 {
        fill: url(#linear-gradient-3);
      }

      .cls-2 {
        fill: url(#linear-gradient-2);
      }

      .cls-3 {
        fill: #ff833e;
      }

      .cls-4 {
        fill: url(#linear-gradient);
      }

      .cls-5 {
        fill: #64ad85;
      }

      .cls-6 {
        fill: #74cfbb;
      }
    </style>
    <linearGradient id="linear-gradient" x1="605.03" y1="648.85" x2="605.03" y2="0" gradientUnits="userSpaceOnUse">
      <stop offset=".5" stop-color="#c8e9f8"/>
      <stop offset="1" stop-color="#76c4e8"/>
    </linearGradient>
    <linearGradient id="linear-gradient-2" x1="987.37" y1="203.1" x2="987.37" y2="143.94" gradientUnits="userSpaceOnUse">
      <stop offset="0" stop-color="#fff" stop-opacity=".75"/>
      <stop offset="1" stop-color="#fff" stop-opacity=".25"/>
    </linearGradient>
    <linearGradient id="linear-gradient-3" x1="278.01" y1="141.1" x2="278.01" y2="44.24" xlink:href="#linear-gradient-2"/>
  </defs>
  <g id="Ebene_1-2" data-name="Ebene 1">
    <g>
      <g>
        <rect class="cls-4" width="1210.05" height="648.85"/>
        <path class="cls-6" d="M1210.05,524.16v125.93H0v-125.93c15.38-23.6,30.36-47.57,47.2-70.14,6.43-8.63,13.14-17.04,20.24-25.17,16.59-18.95,35.89-35.31,53.5-53.27,9.52-9.71,13.95-14.55,27.76-15.05,18.71-.69,44.1,14.51,60.81,22.97,23.63,11.95,38.46,26.96,55.8,46.05.52.58,1.06,1.16,1.59,1.73,47.81,51.74,121.93,91.57,191.09,61.08,30.43-13.41,57.7-18.38,90.97-11.73,28.68,5.74,51.92,24.91,82.16,18.94,29.51-5.83,47.12-31.69,64.68-57.33,10.54-15.4,21.06-30.72,34.14-41.56,25.75-21.37,65.59-55.07,101.7-54.88,22.53.11,41.26,23.1,54.75,37.59,12.43,13.35,24.29,27.22,36.56,40.69,8.26,9.07,16.71,17.96,25.65,26.41,12.81,12.09,27.02,23.68,42.5,32.94,14.48,8.67,27.01,11.21,46.61,18.33,11.91,4.32,30.18,19.66,57.45,31.03,2.31.96,4.68,1.89,7.12,2.79,16.16,5.94,35.23,10.23,57.67,10.23s34.66-3.47,50.1-21.63Z"/>
        <path class="cls-2" d="M1164.03,203.1h-353.32c.4,0,.8,0,1.19,0,2.2-10.6,14.18-16.55,21.99-9.05,4.68-25.27,25.79-47.99,51.42-49.98,25.63-1.99,51.68,21.12,48.81,46.67,10.21-12.51,31.88-12.97,42.62-.91,10.17-14.34,24.52-26.95,41.88-29.67,17.37-2.72,37.36,7.56,40.75,24.81,5.1-9.9,16.9-15.87,27.9-14.1,11,1.77,20.34,11.14,22.07,22.14-4.15-1.99-.7-9.21,3.91-9.15s8.05,4.06,10.86,7.71c13.61-3.1,28.49,3.54,39.92,11.54Z"/>
        <path class="cls-1" d="M493.72,141.1H62.3c1.37,0,2.74,0,4.1,0,5.42-21.68,32.58-35.67,47.07-18.66,7.56-25.64,19.61-52.89,43.85-64.15,17.24-8.01,38.78-5.8,54.03,5.55,15.25,11.34,23.56,31.34,20.85,50.15,8.21-18.54,39.39-19.64,48.88-1.72,4.28-11.36,24.48-10.08,27.3,1.73,10.82-34.52,41.74-61.92,77.32-68.49,10.32-1.9,21.4-2.08,30.83,2.52,9.76,4.76,16.53,14,21.93,23.43,8.93,15.59,15.22,32.69,18.54,50.35,13.44-1.4,28.88,8.3,36.73,19.3Z"/>
        <path class="cls-5" d="M934.86,565.76c-.57-5.87,1.89-11.95,6.37-15.78,1.83-1.56,4.13-2.8,6.53-2.63,3.43.25,6.11,3.37,6.97,6.7s.31,6.85-.24,10.24c2.59-1.41,5.49-2.74,8.38-2.16s5.29,4.02,3.77,6.54c2.19-2.31,6.95.28,6.18,3.38,1.69-3.54,6.8-2.82,10.68-2.24,3.73.55,7.65.46,11.05,2.09,3.4,1.62,6.01,5.83,4.26,9.17-10.45.2-20.9.78-31.31,1.74-16.25,1.5-32.73,3.92-48.78.95-2.31-.43-4.9-1.19-5.92-3.31-1.28-2.66.65-5.69,2.57-7.93,1.09-1.29,2.31-2.61,3.94-3.06s3.73.42,3.95,2.09c.29-3.13,1.35-6.46,3.98-8.18,2.63-1.72,7.01-.7,7.63,2.38Z"/>
        <path class="cls-5" d="M1210.05,603.12v46.97H0v-46.97c8.03-1.27,16.07-2.55,24.11-3.81,7.44-1.17,14.87-2.33,22.32-3.48,3.26-.5,6.52-1,9.77-1.5,3.01-.47,6.02-.93,9.03-1.38,5.66-.86,11.33-1.71,16.99-2.57,7.15-1.07,14.31-2.12,21.47-3.16,1.25-.18,2.5-.37,3.74-.54,6.07-.88,12.14-1.74,18.21-2.59,5.82-.81,11.65-1.61,17.47-2.39.81-.11,1.61-.22,2.41-.33.04,0,.09-.01.13-.02,11.33-1.52,22.65-2.99,33.98-4.38,4.66-.58,9.33-1.14,14-1.7.11-.01.23-.03.35-.04,7.17-.85,14.34-1.67,21.52-2.46,14.24-1.56,28.48-3,42.74-4.29,10.39-.95,20.79-1.8,31.19-2.58,26.51-1.98,53.07-3.39,79.64-4.08,2.62-.08,5.24-.13,7.87-.19.84-.02,1.69-.04,2.53-.05.65-.01,1.29-.03,1.93-.03,11.13-.21,22.27-.28,33.41-.21,10.06.06,20.12.23,30.18.5,11.07.29,22.14.69,33.21,1.18.93.04,1.85.08,2.78.12,25.18,1.13,50.34,2.65,75.5,4.22,15.15.94,30.3,1.9,45.45,2.78,1.88.11,3.78.23,5.66.33,8.96.52,17.93,1,26.89,1.46,28.69,1.48,57.38,2.69,86.08,3.62h0c4.71.16,9.42.3,14.13.44.94.03,1.87.06,2.81.09,16.25.47,32.49.86,48.75,1.15,4.85.09,9.7.17,14.55.24,11.17.18,22.34.3,33.52.39,14.92.12,29.84.16,44.77.13,7.81-.01,15.6-.04,23.41-.1h0c3.31-.02,6.62-.05,9.93-.08h0c.4,0,.81,0,1.22-.01,1.66-.01,3.31-.03,4.96-.05,2.96-.03,5.91-.06,8.86-.09,7.29-.09,14.56-.18,21.83-.27.04,0,.08,0,.13,0,9.89-.13,19.76-.26,29.62-.37,6.66-.08,13.31-.14,19.96-.2,2.89-.02,5.77-.04,8.65-.06.78,0,1.55,0,2.33-.01,13.4-.07,26.78-.06,40.15.06,6.43.07,27.52,4.44,47.07,8.78,1.48.33,2.96.66,4.41.99,6.44,1.44,12.57,2.84,17.78,4.04,1.93.44,4,.91,6.2,1.39,5.58,1.23,11.96,2.56,18.79,3.86,10.88,2.07,22.88,4.07,34.61,5.45,4.68.55,9.31,1,13.8,1.31,6.06.43,11.89.61,17.24.47Z"/>
      </g>
      <g>
        <path class="cls-3" d="M265.2,249c1.58,0,3.36.2,5.14.59,2.57.4,4.94,2.77,5.54,4.94,5.54,20.37,13.05,55.38,17.21,75.94.2,1.38.79,2.18,1.58,2.18s1.58-.99,1.98-2.77c4.55-20.77,10.68-55.18,17.6-75.35.99-2.97,4.35-6.33,7.71-6.13,6.13.79,10.28,1.98,16.22,3.56,3.96.99,6.33,4.15,5.93,6.72-9.1,42.72-20.37,80.1-34.02,121.63-2.37,7.32-14.44,7.71-20.77,7.71-6.72,0-14.44,0-16.22-8.11-10.09-41.73-19.18-79.31-25.91-121.83-.4-2.18,1.78-4.55,3.96-5.54,4.94-1.98,9.1-3.56,14.04-3.56Z"/>
        <path class="cls-3" d="M387.22,250.98c7.71,0,15.82.4,23.93,1.19,3.16.4,5.93,3.96,6.53,7.12,1.38,7.52,1.58,14.64-.59,21.95-.59,2.37-4.55,3.36-6.92,3.76-2.57.4-5.34.4-7.91.4h-2.18c-3.36,0-6.72,0-10.09.59-1.58.2-3.36,1.58-3.56,3.16-.99,5.74-1.19,9.69-.4,15.43.2,1.38,1.58,2.77,2.97,2.97,2.37.4,4.94.4,7.32.4h1.98c3.16,0,6.33,0,9.29.59,2.18.4,4.35,2.37,4.94,4.55,1.38,6.72,1.78,11.67.79,18.59-.4,1.98-2.57,3.76-4.55,4.15-6.33,1.19-13.25.79-19.58,1.58-1.38.2-2.97,1.58-3.16,3.16-.59,5.54-.59,9.3.4,14.83.2,1.19,1.38,2.57,2.57,2.57h1.98c6.53,0,13.05-.59,19.58-.59h3.56c2.18.2,4.55,1.98,5.14,3.96,1.38,5.54,1.58,12.85.2,18.39-.59,2.57-2.57,5.74-5.34,6.13-11.27,1.38-22.55,2.18-33.82,2.18-6.53,0-12.85-.2-19.38-.79-2.77,0-5.93-2.77-6.13-5.34-2.57-40.34-3.96-80.89-1.98-121.03.2-4.15,2.18-7.32,6.13-7.91,8.11-1.19,17.8-1.98,28.28-1.98Z"/>
        <path class="cls-3" d="M505.08,383.29c-4.15,1.58-9.89,3.36-14.63,3.36-1.19,0-2.37-.2-3.36-.4-5.74-.99-4.35-1.19-7.12-6.92-3.16-6.33-8.9-26.7-20.37-31.25.2,11.27.59,20.77.99,32.04,0,2.77-1.58,7.12-4.15,7.52-4.94.59-9.1.79-12.85.79-3.56,0-6.92-.2-10.68-.4-2.77-.2-4.55-3.16-4.75-5.93-.2-12.85-.59-25.91-.79-39.55-.2-29.67.4-59.53,1.78-88.8.2-2.18,3.36-3.76,5.74-3.76,6.92,0,14.64-.59,22.35-.59,11.87,0,23.93,1.19,34.21,7.32,15.43,9.3,15.43,24.52,14.83,38.76-.59,14.63-9.1,31.45-21.75,36.39,15.82,7.32,23.53,27.69,27.89,43.71.99,3.76-1.98,5.54-7.32,7.71ZM476.6,290.34c-.79-8.5-2.77-13.84-16.81-14.04-1.19,0-2.18.79-2.18,2.37,0,8.5-.2,19.18-.4,27.69,0,2.18.99,2.77,2.18,2.77,4.55-.4,9.49-2.18,13.05-5.34,3.36-2.57,4.35-8.7,4.15-13.45Z"/>
        <path class="cls-3" d="M519.72,257.7c0-2.77,1.98-5.54,4.55-5.74,3.76-.2,7.12-.4,10.68-.4,3.76,0,7.91.2,12.85.79,2.77.2,4.15,4.75,4.15,7.32-1.19,32.43-1.38,64.08-.79,95.52,4.55.2,5.74.4,6.92.4,2.18,0,4.15-.4,23.73-1.19,2.77,0,7.12,1.58,7.52,4.15,1.19,9.49.99,15.43.4,23.53-.2,2.77-3.16,4.55-5.74,4.75-22.55.4-18.99,1.19-23.93,1.19-2.18,0-6.13-.2-14.83-.59-3.76.4-6.92.59-10.09.59-3.56,0-6.92-.2-10.88-.59-2.57-.2-4.55-3.16-4.55-5.74-.79-36.79-2.37-75.35,0-124Z"/>
        <path class="cls-3" d="M671.01,373.79c-6.72,8.9-18.99,14.24-31.84,14.24-14.83,0-30.46-7.32-38.56-24.92-15.03-32.63-14.83-113.72,36.59-113.32,20.77.2,31.05,9.69,37.58,24.52,9.89,22.94,12.66,78.32-3.76,99.48ZM647.28,290.14c-2.57-6.72-5.74-9.3-8.7-9.3-6.13,0-12.06,9.69-12.85,18.59-1.38,16.61-2.77,34.02,2.97,50.04,1.98,5.14,6.33,7.32,10.68,7.32,3.36,0,6.53-1.38,8.11-3.76,7.52-11.27,4.35-50.23-.2-62.89Z"/>
        <path class="cls-3" d="M768.9,383.29c-4.15,1.58-9.89,3.36-14.63,3.36-1.19,0-2.37-.2-3.36-.4-5.74-.99-4.35-1.19-7.12-6.92-3.16-6.33-8.9-26.7-20.37-31.25.2,11.27.59,20.77.99,32.04,0,2.77-1.58,7.12-4.15,7.52-4.94.59-9.1.79-12.85.79-3.56,0-6.92-.2-10.68-.4-2.77-.2-4.55-3.16-4.75-5.93-.2-12.85-.59-25.91-.79-39.55-.2-29.67.4-59.53,1.78-88.8.2-2.18,3.36-3.76,5.74-3.76,6.92,0,14.63-.59,22.35-.59,11.87,0,23.93,1.19,34.21,7.32,15.43,9.3,15.43,24.52,14.83,38.76-.59,14.63-9.1,31.45-21.75,36.39,15.82,7.32,23.53,27.69,27.89,43.71.99,3.76-1.98,5.54-7.32,7.71ZM740.42,290.34c-.79-8.5-2.77-13.84-16.81-14.04-1.19,0-2.18.79-2.18,2.37,0,8.5-.2,19.18-.4,27.69,0,2.18.99,2.77,2.18,2.77,4.55-.4,9.49-2.18,13.05-5.34,3.36-2.57,4.35-8.7,4.15-13.45Z"/>
        <path class="cls-3" d="M817.74,250.98c7.71,0,15.82.4,23.93,1.19,3.16.4,5.93,3.96,6.53,7.12,1.38,7.52,1.58,14.64-.59,21.95-.59,2.37-4.55,3.36-6.92,3.76-2.57.4-5.34.4-7.91.4h-2.18c-3.36,0-6.72,0-10.09.59-1.58.2-3.36,1.58-3.56,3.16-.99,5.74-1.19,9.69-.4,15.43.2,1.38,1.58,2.77,2.97,2.97,2.37.4,4.94.4,7.32.4h1.98c3.16,0,6.33,0,9.3.59,2.18.4,4.35,2.37,4.94,4.55,1.38,6.72,1.78,11.67.79,18.59-.4,1.98-2.57,3.76-4.55,4.15-6.33,1.19-13.25.79-19.58,1.58-1.38.2-2.97,1.58-3.16,3.16-.59,5.54-.59,9.3.4,14.83.2,1.19,1.38,2.57,2.57,2.57h1.98c6.53,0,13.05-.59,19.58-.59h3.56c2.18.2,4.55,1.98,5.14,3.96,1.38,5.54,1.58,12.85.2,18.39-.59,2.57-2.57,5.74-5.34,6.13-11.27,1.38-22.55,2.18-33.82,2.18-6.53,0-12.86-.2-19.38-.79-2.77,0-5.93-2.77-6.13-5.34-2.57-40.34-3.96-80.89-1.98-121.03.2-4.15,2.18-7.32,6.13-7.91,8.11-1.19,17.8-1.98,28.28-1.98Z"/>
        <path class="cls-3" d="M885.38,387.24c-3.76.2-6.72.4-9.49.4-3.36,0-6.72-.2-11.67-.79-2.77-.4-4.15-4.75-4.15-7.52,1.38-39.16,1.38-79.11,0-119.85,0-2.57,1.38-7.12,4.15-7.32,4.94-.59,7.91-.79,10.48-.79s4.94.2,8.7.4c9.49.79,18.59,37.97,19.78,43.71s10.88,44.3,16.61,44.3c.99,0,1.38-2.37,1.58-5.93.2-3.96.2-7.91,0-12.06-.2-7.91,0-17.01.2-25.91.2-15.03.79-29.07,1.19-37.58.2-2.77,1.98-5.34,4.75-5.93,7.12-1.19,11.07-1.58,20.17-2.18,4.15,0,6.13,2.97,6.13,6.92-1.38,40.74-2.77,75.75-1.19,114.9.2,5.93-1.19,9.1-4.55,12.26-2.97,2.77-7.71,3.76-12.66,3.76-3.56,0-7.12-.4-10.48-.99-12.66-1.98-24.92-25.51-30.65-37.38-.4-.79-.79-.99-1.19-.99s-.99.59-.99,1.98c-.4,11.67-1.78,16.02-1.98,30.85,0,2.57-1.98,5.54-4.75,5.74Z"/>
      </g>
    </g>
  </g>
</svg>