<?xml version="1.0" encoding="UTF-8"?>
<svg id="Ebene_2" xmlns="http://www.w3.org/2000/svg" viewBox="0 0 386.64 182.46">
  <defs>
    <style>
      .cls-1 {
        fill: #fff;
      }

      .cls-2 {
        fill: #033754;
      }
    </style>
  </defs>
  <g id="Ebene_1-2" data-name="Ebene_1">
    <g>
      <path class="cls-2" d="M386.64,102.17c-.04,49.85-47.73,80.29-80.29,80.29s-59.85-18.89-72.68-46.16c-10.36-.3-20.97-.46-31.82-.48-12.09-.02-23.88.15-35.36.48-12.83,27.27-40.54,46.16-72.68,46.16S13.56,152.02,13.52,102.17c-.03-41.04,32.25-76.51,74.39-80.29,34.77-1.83,71.22-2.9,109.22-2.95,40.15-.06,78.57,1.03,115.13,2.95,42.14,3.79,74.42,39.25,74.39,80.29ZM127.26,87.41h-10.23c-4.67,0-8.46-3.79-8.46-8.46v-10.23c0-4.67-3.79-8.46-8.46-8.46h-12.6c-4.67,0-8.46,3.79-8.46,8.46v10.23c0,4.67-3.79,8.46-8.46,8.46h-10.23c-4.67,0-8.46,3.79-8.46,8.46v12.6c0,4.67,3.79,8.46,8.46,8.46h10.23c4.67,0,8.46,3.79,8.46,8.46v10.23c0,4.67,3.79,8.46,8.46,8.46h12.6c4.67,0,8.46-3.79,8.46-8.46v-10.23c0-4.67,3.79-8.46,8.46-8.46h10.23c4.67,0,8.46-3.79,8.46-8.46v-12.6c0-4.67-3.79-8.46-8.46-8.46ZM306.35,88c7.83,0,14.17-6.34,14.17-14.17s-6.34-14.17-14.17-14.17-14.17,6.34-14.17,14.17,6.34,14.17,14.17,14.17ZM306.35,116.34c-7.83,0-14.17,6.34-14.17,14.17s6.34,14.17,14.17,14.17,14.17-6.34,14.17-14.17-6.34-14.17-14.17-14.17ZM334.69,88c-7.83,0-14.17,6.34-14.17,14.17s6.34,14.17,14.17,14.17,14.17-6.34,14.17-14.17-6.34-14.17-14.17-14.17ZM278.01,88c-7.83,0-14.17,6.34-14.17,14.17s6.34,14.17,14.17,14.17,14.17-6.34,14.17-14.17-6.34-14.17-14.17-14.17Z"/>
      <path class="cls-1" d="M373.13,83.25c-.04,49.85-47.73,80.29-80.29,80.29s-59.85-18.89-72.68-46.16c-10.36-.3-20.97-.46-31.82-.48-12.09-.02-23.88.15-35.36.48-12.83,27.27-40.54,46.16-72.68,46.16S.04,133.1,0,83.25C-.03,42.2,32.25,6.74,74.39,2.95,109.16,1.12,145.61.05,183.61,0c40.15-.06,78.57,1.03,115.13,2.95,42.14,3.79,74.42,39.25,74.39,80.29ZM113.75,68.49h-10.23c-4.67,0-8.46-3.79-8.46-8.46v-10.23c0-4.67-3.79-8.46-8.46-8.46h-12.6c-4.67,0-8.46,3.79-8.46,8.46v10.23c0,4.67-3.79,8.46-8.46,8.46h-10.23c-4.67,0-8.46,3.79-8.46,8.46v12.6c0,4.67,3.79,8.46,8.46,8.46h10.23c4.67,0,8.46,3.79,8.46,8.46v10.23c0,4.67,3.79,8.46,8.46,8.46h12.6c4.67,0,8.46-3.79,8.46-8.46v-10.23c0-4.67,3.79-8.46,8.46-8.46h10.23c4.67,0,8.46-3.79,8.46-8.46v-12.6c0-4.67-3.79-8.46-8.46-8.46ZM292.83,69.08c7.83,0,14.17-6.34,14.17-14.17s-6.34-14.17-14.17-14.17-14.17,6.34-14.17,14.17,6.34,14.17,14.17,14.17ZM292.83,97.42c-7.83,0-14.17,6.34-14.17,14.17s6.34,14.17,14.17,14.17,14.17-6.34,14.17-14.17-6.34-14.17-14.17-14.17ZM321.17,69.08c-7.83,0-14.17,6.34-14.17,14.17s6.34,14.17,14.17,14.17,14.17-6.34,14.17-14.17-6.34-14.17-14.17-14.17ZM264.5,69.08c-7.83,0-14.17,6.34-14.17,14.17s6.34,14.17,14.17,14.17,14.17-6.34,14.17-14.17-6.34-14.17-14.17-14.17Z"/>
    </g>
  </g>
</svg>