<?xml version="1.0" encoding="UTF-8"?>
<svg id="Ebene_2" xmlns="http://www.w3.org/2000/svg" xmlns:xlink="http://www.w3.org/1999/xlink" viewBox="0 0 578.46 581.16">
  <defs>
    <style>
      .cls-1 {
        fill: url(#linear-gradient);
      }

      .cls-2 {
        fill: #0095ad;
      }

      .cls-3 {
        fill: #fff;
      }

      .cls-4 {
        fill: #033754;
      }

      .cls-5 {
        fill: #003956;
      }

      .cls-6 {
        opacity: .3;
      }

      .cls-7 {
        fill: #78c62c;
      }
    </style>
    <linearGradient id="linear-gradient" x1="65.59" y1="65.59" x2="493.94" y2="493.94" gradientUnits="userSpaceOnUse">
      <stop offset=".5" stop-color="#c8e9f8"/>
      <stop offset="1" stop-color="#76c4e8"/>
    </linearGradient>
  </defs>
  <g id="Ebene_1-2" data-name="Ebene_1">
    <g>
      <g>
        <rect class="cls-6" x="18.92" y="21.62" width="559.54" height="559.54" rx="70" ry="70"/>
        <rect class="cls-4" width="559.54" height="559.54" rx="70" ry="70"/>
        <rect class="cls-1" x="48.66" y="48.66" width="462.22" height="462.22" rx="57.83" ry="57.83"/>
        <g>
          <path class="cls-2" d="M109.47,149.69c-5.64,0-5.65,8.76,0,8.76s5.65-8.76,0-8.76Z"/>
          <path class="cls-2" d="M129.3,106.45c-6.79,0-6.81,10.56,0,10.56s6.81-10.56,0-10.56Z"/>
          <path class="cls-2" d="M146.42,120.06c-4.35,0-4.36,6.76,0,6.76s4.36-6.76,0-6.76Z"/>
          <path class="cls-2" d="M147.32,94.35c-2.65,0-2.65,4.12,0,4.12s2.65-4.12,0-4.12Z"/>
          <path class="cls-2" d="M166.24,73.79c-3.6,0-3.61,5.6,0,5.6s3.61-5.6,0-5.6Z"/>
          <path class="cls-2" d="M187.86,98.12c-4.76,0-4.76,7.39,0,7.39s4.76-7.39,0-7.39Z"/>
          <path class="cls-2" d="M209.49,73.73c-2.51,0-2.52,3.91,0,3.91s2.52-3.91,0-3.91Z"/>
          <g>
            <path class="cls-2" d="M239.06,89.44c-.46-.24-.28-.13,0,0h0Z"/>
            <path class="cls-2" d="M244.46,91.83c-.44-.93-1.11-1.37-2.08-1.64-.49-.13-.98-.21-1.48-.2h-.03c-.39-.12-.78-.21-1.18-.28-.03-.02-.1-.04-.24-.1-.11-.04-.26-.11-.4-.18.09.05.2.1.35.18-3.21-1.69-7.3-.24-8.3,3.38-.39,1.41-.17,3.09.57,4.35,1.08,1.84,2.84,2.6,4.88,2.8,2.84.27,6.22-1.15,7.31-3.84.89-1.35,1.38-2.82.59-4.49Z"/>
          </g>
          <path class="cls-2" d="M277.06,70.93c-6.11,0-6.12,9.5,0,9.5s6.12-9.5,0-9.5Z"/>
          <path class="cls-2" d="M301.39,92.71c-2.45,0-2.45,3.8,0,3.8s2.45-3.8,0-3.8Z"/>
          <path class="cls-2" d="M327.52,76.54c-1.22,0-1.22,1.9,0,1.9s1.23-1.9,0-1.9Z"/>
          <path class="cls-2" d="M368.97,85.61c-3.46,0-3.47,5.39,0,5.39s3.47-5.39,0-5.39Z"/>
          <path class="cls-2" d="M377.08,107.07c-1.36,0-1.36,2.11,0,2.11s1.36-2.11,0-2.11Z"/>
          <path class="cls-2" d="M409.51,73.48c-5.16,0-5.17,8.02,0,8.02s5.17-8.02,0-8.02Z"/>
          <path class="cls-2" d="M427.54,99.29c-4.42,0-4.42,6.86,0,6.86s4.42-6.86,0-6.86Z"/>
          <path class="cls-2" d="M87.85,189.28c-5.71,0-5.72,8.87,0,8.87s5.72-8.87,0-8.87Z"/>
          <path class="cls-2" d="M77.94,169.93c-2.79,0-2.79,4.33,0,4.33s2.79-4.33,0-4.33Z"/>
          <path class="cls-2" d="M82.44,207.72c-1.7,0-1.7,2.64,0,2.64s1.7-2.64,0-2.64Z"/>
          <path class="cls-2" d="M67.13,242.23c-4.82,0-4.83,7.5,0,7.5s4.83-7.5,0-7.5Z"/>
          <path class="cls-2" d="M80.64,262.91c-6.05,0-6.06,9.4,0,9.4s6.06-9.4,0-9.4Z"/>
          <path class="cls-2" d="M66.23,309.81c-5.98,0-5.99,9.29,0,9.29s5.99-9.29,0-9.29Z"/>
          <path class="cls-2" d="M81.54,326.66c-5.16,0-5.17,8.02,0,8.02s5.17-8.02,0-8.02Z"/>
          <path class="cls-2" d="M64.42,381.47c-5.37,0-5.38,8.34,0,8.34s5.38-8.34,0-8.34Z"/>
          <path class="cls-2" d="M84.25,399.12c-5.84,0-5.85,9.08,0,9.08s5.85-9.08,0-9.08Z"/>
          <path class="cls-2" d="M108.57,362.5c-6.59,0-6.6,10.24,0,10.24s6.6-10.24,0-10.24Z"/>
          <path class="cls-2" d="M112.18,197.76c-5.23,0-5.24,8.13,0,8.13s5.24-8.13,0-8.13Z"/>
          <path class="cls-2" d="M106.15,123.67c-3.37-1.27-6.72,2.09-5.45,5.45,1.14,3.04,4.89,4.48,7.41,1.96,2.52-2.52,1.08-6.27-1.96-7.41Z"/>
          <path class="cls-2" d="M136.91,151.85c-.37-.75-.76-1.5-1.15-2.24-2.11-3.93-8.02-3.24-9.67.65-.76,1.81-.5,3.84.7,5.39,1.43,1.85,3.49,2.31,5.71,1.95.75-.12,1.49-.26,2.23-.4,2.45-.49,3.14-3.39,2.17-5.34Z"/>
          <path class="cls-2" d="M373.47,132.15c-5.03,0-5.04,7.81,0,7.81s5.04-7.81,0-7.81Z"/>
          <path class="cls-2" d="M339.24,113.28c-6.11,0-6.12,9.5,0,9.5s6.12-9.5,0-9.5Z"/>
        </g>
        <path class="cls-7" d="M359.96,473.8c-.17,0-.17.27,0,.27s.17-.27,0-.27Z"/>
        <g>
          <g>
            <path class="cls-5" d="M346.29,489.13s.01,0,.01,0c.01,0,.03-.01.04-.02-.02.01-.03.01-.05.03Z"/>
            <path class="cls-5" d="M346.35,489.1c.77-.37.49-.24,0,0h0Z"/>
            <path class="cls-5" d="M353.03,492.95s0-.01-.02-.02c-.01-.06-.02-.11-.04-.17,0,.06,0,.08.01.13-.02-.02-.03-.04-.04-.06-.02-.19-.05-.36-.08-.63,0-.02-.02-.04-.03-.06-.02-.39-.04-.72-.04-.75-.22-1.32-1.56-2.46-2.79-2.79-1.35-.36-2.46-.07-3.7.51-.36.18-.81.42-1.01.58-.62.48-1.01.87-1.45,1.6-1.34,2.23-1.14,4.74.06,6.98,1.31,2.43,4.88,3.4,7.22,1.89,2.17-1.4,3.68-4.87,1.9-7.22Z"/>
          </g>
          <path class="cls-5" d="M383,480.38c-.25-.48-.54-.86-.96-1.22-2.74-2.35-6.31,1.22-3.96,3.96.35.41.73.7,1.22.96,2.43,1.26,4.96-1.27,3.7-3.7Z"/>
          <path class="cls-5" d="M414.31,468.87c-5.37,0-5.38,8.34,0,8.34s5.38-8.34,0-8.34Z"/>
          <path class="cls-5" d="M440.44,410.98c-3.33,0-3.33,5.17,0,5.17s3.33-5.17,0-5.17Z"/>
          <path class="cls-5" d="M461.16,433.19c-4.89,0-4.9,7.6,0,7.6s4.9-7.6,0-7.6Z"/>
          <path class="cls-5" d="M497.2,410.19c-4.35,0-4.36,6.76,0,6.76s4.36-6.76,0-6.76Z"/>
          <path class="cls-5" d="M468,349.71c-1.77-1.04-3.62.04-4.34,1.77-.14.33-.38.62-.66.89-.65.29-1.25.7-1.86,1.1-1.49.99-.82,3.04.87,3.21,2.49.25,4.74-.71,6.59-2.32,1.46-1.27.96-3.73-.6-4.64Z"/>
          <path class="cls-5" d="M490.89,324.5c-7.95,0-7.96,12.35,0,12.35s7.96-12.35,0-12.35Z"/>
          <path class="cls-5" d="M484.59,278.86c-6.39,0-6.4,9.93,0,9.93s6.4-9.93,0-9.93Z"/>
          <path class="cls-5" d="M508.01,241.06c-2.85,0-2.86,4.43,0,4.43s2.86-4.43,0-4.43Z"/>
          <path class="cls-5" d="M317,462.67c-6.39,0-6.4,9.93,0,9.93s6.4-9.93,0-9.93Z"/>
          <path class="cls-5" d="M284.92,478.38c-1.53,1.22-1.01,3.56.81,4.16.78.26,1.56.51,2.33.77.24.08.45-.13.47-.36.07-.9.14-1.8.2-2.7.15-1.96-2.4-3-3.82-1.86Z"/>
          <path class="cls-5" d="M222.39,484.13c-6.59,0-6.6,10.24,0,10.24s6.6-10.24,0-10.24Z"/>
          <path class="cls-5" d="M183.64,475.33c-5.16,0-5.17,8.02,0,8.02s5.17-8.02,0-8.02Z"/>
          <path class="cls-5" d="M159.63,481.34c.08-1.35-.58-2.69-2.2-3.09-1.79-.44-3.57.39-4.27,2.12-.79,1.97.34,4.24,2.4,4.78,1.92.49,4.26-.98,4.11-3.13-.02-.23-.03-.45-.05-.68Z"/>
          <path class="cls-5" d="M451.25,455.35c-4.21,0-4.22,6.55,0,6.55s4.22-6.55,0-6.55Z"/>
          <path class="cls-5" d="M418.81,457.1c-4.28,0-4.29,6.65,0,6.65s4.29-6.65,0-6.65Z"/>
          <path class="cls-5" d="M435.93,471.95c-7.2,0-7.21,11.19,0,11.19s7.21-11.19,0-11.19Z"/>
        </g>
      </g>
      <g>
        <path class="cls-4" d="M478.5,301.52c-.04,49.85-47.73,80.29-80.29,80.29s-59.85-18.89-72.68-46.16c-10.36-.3-20.97-.46-31.82-.48-12.09-.02-23.88.15-35.36.48-12.83,27.27-40.54,46.16-72.68,46.16s-80.25-30.44-80.29-80.29c-.03-41.04,32.25-76.51,74.39-80.29,34.77-1.83,71.22-2.9,109.22-2.95,40.15-.06,78.57,1.03,115.13,2.95,42.14,3.79,74.42,39.25,74.39,80.29ZM219.12,286.76h-10.23c-4.67,0-8.46-3.79-8.46-8.46v-10.23c0-4.67-3.79-8.46-8.46-8.46h-12.6c-4.67,0-8.46,3.79-8.46,8.46v10.23c0,4.67-3.79,8.46-8.46,8.46h-10.23c-4.67,0-8.46,3.79-8.46,8.46v12.6c0,4.67,3.79,8.46,8.46,8.46h10.23c4.67,0,8.46,3.79,8.46,8.46v10.23c0,4.67,3.79,8.46,8.46,8.46h12.6c4.67,0,8.46-3.79,8.46-8.46v-10.23c0-4.67,3.79-8.46,8.46-8.46h10.23c4.67,0,8.46-3.79,8.46-8.46v-12.6c0-4.67-3.79-8.46-8.46-8.46ZM398.2,287.35c7.83,0,14.17-6.34,14.17-14.17s-6.34-14.17-14.17-14.17-14.17,6.34-14.17,14.17,6.34,14.17,14.17,14.17ZM398.2,315.69c-7.83,0-14.17,6.34-14.17,14.17s6.34,14.17,14.17,14.17,14.17-6.34,14.17-14.17-6.34-14.17-14.17-14.17ZM426.54,287.35c-7.83,0-14.17,6.34-14.17,14.17s6.34,14.17,14.17,14.17,14.17-6.34,14.17-14.17-6.34-14.17-14.17-14.17ZM369.86,287.35c-7.83,0-14.17,6.34-14.17,14.17s6.34,14.17,14.17,14.17,14.17-6.34,14.17-14.17-6.34-14.17-14.17-14.17Z"/>
        <path class="cls-3" d="M464.98,282.6c-.04,49.85-47.73,80.29-80.29,80.29s-59.85-18.89-72.68-46.16c-10.36-.3-20.97-.46-31.82-.48-12.09-.02-23.88.15-35.36.48-12.83,27.27-40.54,46.16-72.68,46.16s-80.25-30.44-80.29-80.29c-.03-41.04,32.25-76.51,74.39-80.29,34.77-1.83,71.22-2.9,109.22-2.95,40.15-.06,78.57,1.03,115.13,2.95,42.14,3.79,74.42,39.25,74.39,80.29ZM205.6,267.84h-10.23c-4.67,0-8.46-3.79-8.46-8.46v-10.23c0-4.67-3.79-8.46-8.46-8.46h-12.6c-4.67,0-8.46,3.79-8.46,8.46v10.23c0,4.67-3.79,8.46-8.46,8.46h-10.23c-4.67,0-8.46,3.79-8.46,8.46v12.6c0,4.67,3.79,8.46,8.46,8.46h10.23c4.67,0,8.46,3.79,8.46,8.46v10.23c0,4.67,3.79,8.46,8.46,8.46h12.6c4.67,0,8.46-3.79,8.46-8.46v-10.23c0-4.67,3.79-8.46,8.46-8.46h10.23c4.67,0,8.46-3.79,8.46-8.46v-12.6c0-4.67-3.79-8.46-8.46-8.46ZM384.69,268.43c7.83,0,14.17-6.34,14.17-14.17s-6.34-14.17-14.17-14.17-14.17,6.34-14.17,14.17,6.34,14.17,14.17,14.17ZM384.69,296.77c-7.83,0-14.17,6.34-14.17,14.17s6.34,14.17,14.17,14.17,14.17-6.34,14.17-14.17-6.34-14.17-14.17-14.17ZM413.03,268.43c-7.83,0-14.17,6.34-14.17,14.17s6.34,14.17,14.17,14.17,14.17-6.34,14.17-14.17-6.34-14.17-14.17-14.17ZM356.35,268.43c-7.83,0-14.17,6.34-14.17,14.17s6.34,14.17,14.17,14.17,14.17-6.34,14.17-14.17-6.34-14.17-14.17-14.17Z"/>
      </g>
    </g>
  </g>
</svg>