<?xml version="1.0" encoding="UTF-8"?>
<svg id="Ebene_2" data-name="Ebene 2" xmlns="http://www.w3.org/2000/svg" viewBox="0 0 49.91 47.92">
  <defs>
    <style>
      .cls-1 {
        fill: #fff;
        stroke: #fff;
        stroke-linecap: round;
        stroke-linejoin: round;
        stroke-width: 2px;
      }
    </style>
  </defs>
  <g id="Ebene_1-2" data-name="Ebene 1">
    <path class="cls-1" d="M48.36,16.98c-.38-.74-1.06-1.12-1.73-1.55-2.02-1.28-4.25-2.4-6.32-3.64V3.05c-.12-.81-.67-1.56-1.46-1.83-.91-.31-4.08-.3-4.94.12-.46.22-1.19,1.11-1.19,1.62v4.35l-6.24-3.63c-1.07-.44-2.12-.41-3.18.06-6.5,4.11-13.62,7.59-20.08,11.73-.94.6-1.63,1.08-2.01,2.2-1.09,3.19,2.28,6.03,5.22,4.42v20.73l.11.82c.4,1.52,1.47,2.69,2.99,3.09,10.21.29,20.49.21,30.7.04,1.25-.12,3.16-1.96,3.16-3.2v-21.48c2.35,1.22,4.94-.09,5.52-2.62v-1.12l-.55-1.37ZM39.69,45.49H10.21c-1.24-.11-2.27-1.14-2.38-2.39l.05-21.85,16.96-9.9c.13-.03.25-.02.37.06l16.85,9.9.02,21.88c-.18,1.21-1.15,2.19-2.39,2.3Z"/>
    <path class="cls-1" d="M25.6,36.55c-.95.28-1.49-.06-2.35-.45-3.36-1.54-7.57-5.35-6.79-9.44.31-1.62,1.53-3.12,3.23-3.32,1.4-.17,2.97.32,3.96,1.32.39.39.76,1.4,1.27,1.43.56.03.97-1.06,1.39-1.47,1.96-1.92,5.39-1.82,6.71.78,2.29,4.55-3.41,9.95-7.42,11.15Z"/>
  </g>
</svg>