<?xml version="1.0" encoding="UTF-8"?>
<svg id="Ebene_2" data-name="Ebene 2" xmlns="http://www.w3.org/2000/svg" viewBox="0 0 803.82 803.82">
  <defs>
    <style>
      .cls-1 {
        fill: #fff;
      }
    </style>
  </defs>
  <g id="Objects">
    <g>
      <path class="cls-1" d="M401.91,52.23c47.23,0,93.02,9.24,136.1,27.46,41.63,17.61,79.04,42.83,111.17,74.96,32.13,32.13,57.35,69.53,74.96,111.17,18.22,43.08,27.46,88.87,27.46,136.1,0,63.53-17.19,125.71-49.72,179.83l-11.71,19.48,6.27,21.84,29.56,102.94-102.94-29.56-21.84-6.27-19.48,11.71c-54.12,32.52-116.3,49.72-179.83,49.72-47.23,0-93.02-9.24-136.1-27.46-41.63-17.61-79.04-42.83-111.17-74.96-32.13-32.13-57.35-69.53-74.96-111.17-18.22-43.08-27.46-88.87-27.46-136.1s9.24-93.02,27.46-136.1c17.61-41.63,42.83-79.04,74.96-111.17,32.13-32.13,69.53-57.35,111.17-74.96,43.08-18.22,88.87-27.46,136.1-27.46M401.91,0C179.94,0,0,179.94,0,401.91s179.94,401.91,401.91,401.91c75.6,0,146.33-20.88,206.73-57.18l145.51,41.78c2.63.76,5.24,1.11,7.77,1.11,17.61,0,31.74-17.09,26.49-35.38l-41.78-145.51c36.3-60.4,57.18-131.13,57.18-206.73C803.82,179.94,623.88,0,401.91,0h0Z"/>
      <circle class="cls-1" cx="401.91" cy="253.65" r="55.88"/>
      <path class="cls-1" d="M448.97,567.82v-203.79c0-5.47-4.44-9.91-9.91-9.91h-95.38c-5.47,0-9.91,4.44-9.91,9.91v18.41c0,5.47,4.44,9.91,9.91,9.91h11.19v175.47h-11.19c-5.47,0-9.91,4.44-9.91,9.91v18.41c0,5.47,4.44,9.91,9.91,9.91h116.48c5.47,0,9.91-4.44,9.91-9.91v-18.41c0-5.47-4.44-9.91-9.91-9.91h-11.19Z"/>
    </g>
  </g>
</svg>