<?xml version="1.0" encoding="UTF-8"?>
<svg id="Ebene_2" data-name="Ebene 2" xmlns="http://www.w3.org/2000/svg" viewBox="0 0 46.96 50.98">
  <defs>
    <style>
      .cls-1 {
        fill: #fff;
        fill-rule: evenodd;
      }
    </style>
  </defs>
  <g id="_17" data-name="17">
    <path class="cls-1" d="M45.15,27.29h-4.01c-1.01,0-2.01.8-2.01,1.83-.8,8.01-7.42,14.03-15.46,14.03-8.83,0-15.84-7.01-15.84-15.66s7.02-15.44,15.65-15.63v2.59c0,.99.8,1.41,1.81.99l13.24-6.6c1.01-.61,1.01-1.41,0-2.02L25.28.19c-.19-.19-.4-.19-.61-.19-.8,0-1.2.38-1.2,1.38v2.43C10.42,4,0,14.44,0,27.48s10.42,23.51,23.66,23.51c12.45,0,22.48-9.64,23.29-21.87,0-1.03-.82-1.83-1.81-1.83h0Z"/>
  </g>
</svg>