<?xml version="1.0" encoding="UTF-8"?>
<svg id="Ebene_2" data-name="Ebene 2" xmlns="http://www.w3.org/2000/svg" viewBox="0 0 91.84 77.56">
  <defs>
    <style>
      .cls-1 {
        fill: #fff;
      }
    </style>
  </defs>
  <g id="Layer_1" data-name="Layer 1">
    <g>
      <g>
        <polygon class="cls-1" points="0 38.78 .81 39.38 1.63 39.99 2.44 40.6 3.25 41.2 4.07 41.81 4.88 42.41 5.69 43.02 6.51 43.63 7.32 44.23 8.13 44.84 8.95 45.44 9.76 46.05 10.57 46.65 11.39 47.26 12.2 47.87 13.01 48.47 13.83 49.08 14.64 49.68 15.45 50.29 16.27 50.9 17.08 51.5 17.89 52.11 18.71 52.71 19.52 53.32 20.33 53.93 21.15 54.53 21.96 55.14 22.77 55.74 23.59 56.35 24.4 56.96 25.21 57.56 26.03 58.17 26.84 58.77 27.65 59.38 28.47 59.98 29.28 60.59 30.09 61.2 30.91 61.8 31.72 62.41 32.53 63.01 33.34 63.62 34.16 64.23 34.97 64.83 35.78 65.44 36.6 66.04 37.41 66.65 38.22 67.26 39.04 67.86 39.85 68.47 40.66 69.07 41.48 69.68 42.29 70.29 43.1 70.89 43.92 71.5 44.73 72.1 45.54 72.71 46.36 73.31 47.17 73.92 47.98 74.53 48.8 75.13 49.61 75.74 50.42 76.34 51.24 76.95 52.05 77.56 52.05 76.34 52.05 75.13 52.05 73.92 52.05 72.71 52.05 71.5 52.05 70.29 52.05 69.07 52.05 67.86 52.05 66.65 52.05 65.44 52.05 64.23 52.05 63.01 52.05 61.8 52.05 60.59 52.05 59.38 52.05 58.17 52.05 56.96 52.05 55.74 52.05 54.53 52.05 53.32 52.05 52.11 52.05 50.9 52.05 49.68 52.05 48.47 52.05 47.26 52.05 46.05 52.05 44.84 52.05 43.63 52.05 42.41 52.05 41.2 52.05 39.99 52.05 38.78 52.05 37.57 52.05 36.35 52.05 35.14 52.05 33.93 52.05 32.72 52.05 31.51 52.05 30.3 52.05 29.08 52.05 27.87 52.05 26.66 52.05 25.45 52.05 24.24 52.05 23.02 52.05 21.81 52.05 20.6 52.05 19.39 52.05 18.18 52.05 16.97 52.05 15.75 52.05 14.54 52.05 13.33 52.05 12.12 52.05 10.91 52.05 9.69 52.05 8.48 52.05 7.27 52.05 6.06 52.05 4.85 52.05 3.64 52.05 2.42 52.05 1.21 52.05 0 51.24 .61 50.42 1.21 49.61 1.82 48.8 2.42 47.98 3.03 47.17 3.64 46.36 4.24 45.54 4.85 44.73 5.45 43.92 6.06 43.1 6.66 42.29 7.27 41.48 7.88 40.66 8.48 39.85 9.09 39.04 9.69 38.22 10.3 37.41 10.91 36.6 11.51 35.78 12.12 34.97 12.72 34.16 13.33 33.34 13.94 32.53 14.54 31.72 15.15 30.91 15.75 30.09 16.36 29.28 16.97 28.47 17.57 27.65 18.18 26.84 18.78 26.03 19.39 25.21 19.99 24.4 20.6 23.59 21.21 22.77 21.81 21.96 22.42 21.15 23.02 20.33 23.63 19.52 24.24 18.71 24.84 17.89 25.45 17.08 26.05 16.27 26.66 15.45 27.27 14.64 27.87 13.83 28.48 13.01 29.08 12.2 29.69 11.39 30.3 10.57 30.9 9.76 31.51 8.95 32.11 8.13 32.72 7.32 33.32 6.51 33.93 5.69 34.54 4.88 35.14 4.07 35.75 3.25 36.35 2.44 36.96 1.63 37.57 .81 38.17 0 38.78"/>
        <polygon class="cls-1" points="22.8 55.57 22.44 55.57 22.09 55.57 21.73 55.57 21.38 55.57 21.02 55.57 20.66 55.57 20.31 55.57 19.95 55.57 19.59 55.57 19.24 55.57 18.88 55.57 18.53 55.57 18.17 55.57 17.81 55.57 17.46 55.57 17.1 55.57 16.74 55.57 16.39 55.57 16.03 55.57 15.68 55.57 15.32 55.57 14.96 55.57 14.61 55.57 14.25 55.57 13.89 55.57 13.54 55.57 13.18 55.57 12.83 55.57 12.47 55.57 12.11 55.57 11.76 55.57 11.4 55.57 11.04 55.57 10.69 55.57 10.33 55.57 9.98 55.57 9.62 55.57 9.26 55.57 8.91 55.57 8.55 55.57 8.19 55.57 7.84 55.57 7.48 55.57 7.13 55.57 6.77 55.57 6.41 55.57 6.06 55.57 5.7 55.57 5.34 55.57 4.99 55.57 4.63 55.57 4.28 55.57 3.92 55.57 3.56 55.57 3.21 55.57 2.85 55.57 2.49 55.57 2.14 55.57 1.78 55.57 1.43 55.57 1.07 55.57 .71 55.57 .36 55.57 0 55.57 0 55.05 0 54.52 0 54 0 53.47 0 52.95 0 52.42 0 51.9 0 51.37 0 50.85 0 50.32 0 49.8 0 49.27 0 48.75 0 48.22 0 47.7 0 47.17 0 46.65 0 46.13 0 45.6 0 45.08 0 44.55 0 44.03 0 43.5 0 42.98 0 42.45 0 41.93 0 41.4 0 40.88 0 40.35 0 39.83 0 39.3 0 38.78 0 38.25 0 37.73 0 37.2 0 36.68 0 36.15 0 35.63 0 35.1 0 34.58 0 34.06 0 33.53 0 33.01 0 32.48 0 31.96 0 31.43 0 30.91 0 30.38 0 29.86 0 29.33 0 28.81 0 28.28 0 27.76 0 27.23 0 26.71 0 26.18 0 25.66 0 25.13 0 24.61 0 24.08 0 23.56 0 23.03 0 22.51 0 21.98 .36 21.98 .71 21.98 1.07 21.98 1.43 21.98 1.78 21.98 2.14 21.98 2.49 21.98 2.85 21.98 3.21 21.98 3.56 21.98 3.92 21.98 4.28 21.98 4.63 21.98 4.99 21.98 5.34 21.98 5.7 21.98 6.06 21.98 6.41 21.98 6.77 21.98 7.13 21.98 7.48 21.98 7.84 21.98 8.19 21.98 8.55 21.98 8.91 21.98 9.26 21.98 9.62 21.98 9.98 21.98 10.33 21.98 10.69 21.98 11.04 21.98 11.4 21.98 11.76 21.98 12.11 21.98 12.47 21.98 12.83 21.98 13.18 21.98 13.54 21.98 13.89 21.98 14.25 21.98 14.61 21.98 14.96 21.98 15.32 21.98 15.68 21.98 16.03 21.98 16.39 21.98 16.74 21.98 17.1 21.98 17.46 21.98 17.81 21.98 18.17 21.98 18.53 21.98 18.88 21.98 19.24 21.98 19.59 21.98 19.95 21.98 20.31 21.98 20.66 21.98 21.02 21.98 21.38 21.98 21.73 21.98 22.09 21.98 22.44 21.98 22.8 21.98 22.8 22.51 22.8 23.03 22.8 23.56 22.8 24.08 22.8 24.61 22.8 25.13 22.8 25.66 22.8 26.18 22.8 26.71 22.8 27.23 22.8 27.76 22.8 28.28 22.8 28.81 22.8 29.33 22.8 29.86 22.8 30.38 22.8 30.91 22.8 31.43 22.8 31.96 22.8 32.48 22.8 33.01 22.8 33.53 22.8 34.06 22.8 34.58 22.8 35.1 22.8 35.63 22.8 36.15 22.8 36.68 22.8 37.2 22.8 37.73 22.8 38.25 22.8 38.78 22.8 39.3 22.8 39.83 22.8 40.35 22.8 40.88 22.8 41.4 22.8 41.93 22.8 42.45 22.8 42.98 22.8 43.5 22.8 44.03 22.8 44.55 22.8 45.08 22.8 45.6 22.8 46.13 22.8 46.65 22.8 47.17 22.8 47.7 22.8 48.22 22.8 48.75 22.8 49.27 22.8 49.8 22.8 50.32 22.8 50.85 22.8 51.37 22.8 51.9 22.8 52.42 22.8 52.95 22.8 53.47 22.8 54 22.8 54.52 22.8 55.05 22.8 55.57"/>
      </g>
      <polygon class="cls-1" points="68.25 53.47 68.16 53.38 68.06 53.29 67.97 53.2 67.88 53.11 67.79 53.02 67.7 52.93 67.61 52.84 67.52 52.75 67.43 52.66 67.34 52.56 67.25 52.47 67.16 52.38 67.07 52.29 66.98 52.2 66.89 52.11 66.8 52.02 66.71 51.93 66.62 51.84 66.53 51.75 66.44 51.66 66.35 51.57 66.25 51.48 66.16 51.39 66.07 51.3 65.98 51.21 65.89 51.12 65.8 51.03 65.71 50.94 65.62 50.85 65.53 50.75 65.44 50.66 65.35 50.57 65.26 50.48 65.17 50.39 65.08 50.3 64.99 50.21 64.9 50.12 64.81 50.03 64.72 49.94 64.63 49.85 64.54 49.76 64.44 49.67 64.35 49.58 64.26 49.49 64.17 49.4 64.08 49.31 63.99 49.22 63.9 49.13 63.81 49.04 63.72 48.94 63.63 48.85 63.54 48.76 63.45 48.67 63.36 48.58 63.27 48.49 63.18 48.4 63.09 48.31 63 48.22 62.91 48.13 62.82 48.04 62.73 47.95 62.63 47.86 62.54 47.77 62.45 47.68 62.82 47.31 63.19 46.94 63.56 46.57 63.93 46.2 64.3 45.83 64.67 45.47 65.03 45.1 65.4 44.73 65.77 44.36 66.14 43.99 66.51 43.62 66.88 43.25 67.25 42.89 67.61 42.52 67.98 42.15 68.35 41.78 68.72 41.41 69.09 41.04 69.46 40.67 69.83 40.31 70.19 39.94 70.56 39.57 70.93 39.2 71.3 38.83 71.67 38.46 72.04 38.09 72.41 37.73 72.77 37.36 73.14 36.99 73.51 36.62 73.88 36.25 74.25 35.88 74.62 35.51 74.99 35.14 75.36 34.78 75.72 34.41 76.09 34.04 76.46 33.67 76.83 33.3 77.2 32.93 77.57 32.56 77.94 32.2 78.3 31.83 78.67 31.46 79.04 31.09 79.41 30.72 79.78 30.35 80.15 29.98 80.52 29.62 80.88 29.25 81.25 28.88 81.62 28.51 81.99 28.14 82.36 27.77 82.73 27.4 83.1 27.04 83.46 26.67 83.83 26.3 84.2 25.93 84.57 25.56 84.94 25.19 85.31 24.82 85.68 24.45 86.05 24.09 86.14 24.18 86.23 24.27 86.32 24.36 86.41 24.45 86.5 24.54 86.59 24.63 86.68 24.72 86.77 24.81 86.86 24.9 86.95 24.99 87.04 25.08 87.13 25.17 87.22 25.26 87.31 25.35 87.4 25.44 87.49 25.53 87.58 25.62 87.67 25.72 87.76 25.81 87.86 25.9 87.95 25.99 88.04 26.08 88.13 26.17 88.22 26.26 88.31 26.35 88.4 26.44 88.49 26.53 88.58 26.62 88.67 26.71 88.76 26.8 88.85 26.89 88.94 26.98 89.03 27.07 89.12 27.16 89.21 27.25 89.3 27.34 89.39 27.43 89.48 27.53 89.57 27.62 89.67 27.71 89.76 27.8 89.85 27.89 89.94 27.98 90.03 28.07 90.12 28.16 90.21 28.25 90.3 28.34 90.39 28.43 90.48 28.52 90.57 28.61 90.66 28.7 90.75 28.79 90.84 28.88 90.93 28.97 91.02 29.06 91.11 29.15 91.2 29.24 91.29 29.34 91.38 29.43 91.48 29.52 91.57 29.61 91.66 29.7 91.75 29.79 91.84 29.88 91.47 30.25 91.1 30.62 90.73 30.98 90.36 31.35 89.99 31.72 89.63 32.09 89.26 32.46 88.89 32.83 88.52 33.2 88.15 33.56 87.78 33.93 87.41 34.3 87.05 34.67 86.68 35.04 86.31 35.41 85.94 35.78 85.57 36.14 85.2 36.51 84.83 36.88 84.46 37.25 84.1 37.62 83.73 37.99 83.36 38.36 82.99 38.73 82.62 39.09 82.25 39.46 81.88 39.83 81.52 40.2 81.15 40.57 80.78 40.94 80.41 41.31 80.04 41.67 79.67 42.04 79.3 42.41 78.94 42.78 78.57 43.15 78.2 43.52 77.83 43.89 77.46 44.25 77.09 44.62 76.72 44.99 76.36 45.36 75.99 45.73 75.62 46.1 75.25 46.47 74.88 46.83 74.51 47.2 74.14 47.57 73.78 47.94 73.41 48.31 73.04 48.68 72.67 49.05 72.3 49.42 71.93 49.78 71.56 50.15 71.19 50.52 70.83 50.89 70.46 51.26 70.09 51.63 69.72 52 69.35 52.36 68.98 52.73 68.61 53.1 68.25 53.47"/>
      <polygon class="cls-1" points="86.05 53.47 85.68 53.1 85.31 52.73 84.94 52.36 84.57 52 84.2 51.63 83.83 51.26 83.46 50.89 83.1 50.52 82.73 50.15 82.36 49.78 81.99 49.42 81.62 49.05 81.25 48.68 80.88 48.31 80.52 47.94 80.15 47.57 79.78 47.2 79.41 46.83 79.04 46.47 78.67 46.1 78.3 45.73 77.94 45.36 77.57 44.99 77.2 44.62 76.83 44.25 76.46 43.89 76.09 43.52 75.72 43.15 75.36 42.78 74.99 42.41 74.62 42.04 74.25 41.67 73.88 41.31 73.51 40.94 73.14 40.57 72.77 40.2 72.41 39.83 72.04 39.46 71.67 39.09 71.3 38.73 70.93 38.36 70.56 37.99 70.19 37.62 69.83 37.25 69.46 36.88 69.09 36.51 68.72 36.14 68.35 35.78 67.98 35.41 67.61 35.04 67.25 34.67 66.88 34.3 66.51 33.93 66.14 33.56 65.77 33.2 65.4 32.83 65.03 32.46 64.67 32.09 64.3 31.72 63.93 31.35 63.56 30.98 63.19 30.62 62.82 30.25 62.45 29.88 62.54 29.79 62.63 29.7 62.73 29.61 62.82 29.52 62.91 29.43 63 29.34 63.09 29.24 63.18 29.15 63.27 29.06 63.36 28.97 63.45 28.88 63.54 28.79 63.63 28.7 63.72 28.61 63.81 28.52 63.9 28.43 63.99 28.34 64.08 28.25 64.17 28.16 64.26 28.07 64.35 27.98 64.44 27.89 64.54 27.8 64.63 27.71 64.72 27.62 64.81 27.53 64.9 27.43 64.99 27.34 65.08 27.25 65.17 27.16 65.26 27.07 65.35 26.98 65.44 26.89 65.53 26.8 65.62 26.71 65.71 26.62 65.8 26.53 65.89 26.44 65.98 26.35 66.07 26.26 66.16 26.17 66.25 26.08 66.35 25.99 66.44 25.9 66.53 25.81 66.62 25.72 66.71 25.62 66.8 25.53 66.89 25.44 66.98 25.35 67.07 25.26 67.16 25.17 67.25 25.08 67.34 24.99 67.43 24.9 67.52 24.81 67.61 24.72 67.7 24.63 67.79 24.54 67.88 24.45 67.97 24.36 68.06 24.27 68.16 24.18 68.25 24.09 68.61 24.45 68.98 24.82 69.35 25.19 69.72 25.56 70.09 25.93 70.46 26.3 70.83 26.67 71.19 27.04 71.56 27.4 71.93 27.77 72.3 28.14 72.67 28.51 73.04 28.88 73.41 29.25 73.78 29.62 74.14 29.98 74.51 30.35 74.88 30.72 75.25 31.09 75.62 31.46 75.99 31.83 76.36 32.2 76.72 32.56 77.09 32.93 77.46 33.3 77.83 33.67 78.2 34.04 78.57 34.41 78.94 34.78 79.3 35.14 79.67 35.51 80.04 35.88 80.41 36.25 80.78 36.62 81.15 36.99 81.52 37.36 81.88 37.73 82.25 38.09 82.62 38.46 82.99 38.83 83.36 39.2 83.73 39.57 84.1 39.94 84.46 40.31 84.83 40.67 85.2 41.04 85.57 41.41 85.94 41.78 86.31 42.15 86.68 42.52 87.05 42.89 87.41 43.25 87.78 43.62 88.15 43.99 88.52 44.36 88.89 44.73 89.26 45.1 89.63 45.47 89.99 45.83 90.36 46.2 90.73 46.57 91.1 46.94 91.47 47.31 91.84 47.68 91.75 47.77 91.66 47.86 91.57 47.95 91.48 48.04 91.38 48.13 91.29 48.22 91.2 48.31 91.11 48.4 91.02 48.49 90.93 48.58 90.84 48.67 90.75 48.76 90.66 48.85 90.57 48.94 90.48 49.04 90.39 49.13 90.3 49.22 90.21 49.31 90.12 49.4 90.03 49.49 89.94 49.58 89.85 49.67 89.76 49.76 89.67 49.85 89.57 49.94 89.48 50.03 89.39 50.12 89.3 50.21 89.21 50.3 89.12 50.39 89.03 50.48 88.94 50.57 88.85 50.66 88.76 50.75 88.67 50.85 88.58 50.94 88.49 51.03 88.4 51.12 88.31 51.21 88.22 51.3 88.13 51.39 88.04 51.48 87.95 51.57 87.86 51.66 87.76 51.75 87.67 51.84 87.58 51.93 87.49 52.02 87.4 52.11 87.31 52.2 87.22 52.29 87.13 52.38 87.04 52.47 86.95 52.56 86.86 52.66 86.77 52.75 86.68 52.84 86.59 52.93 86.5 53.02 86.41 53.11 86.32 53.2 86.23 53.29 86.14 53.38 86.05 53.47"/>
    </g>
  </g>
</svg>