<?xml version="1.0" encoding="UTF-8"?>
<svg id="Ebene_2" data-name="Ebene 2" xmlns="http://www.w3.org/2000/svg" viewBox="0 0 97.41 77.56">
  <defs>
    <style>
      .cls-1 {
        fill: #fff;
      }
    </style>
  </defs>
  <g id="Layer_1" data-name="Layer 1">
    <g>
      <g>
        <polygon class="cls-1" points="0 38.78 .81 39.38 1.63 39.99 2.44 40.6 3.25 41.2 4.07 41.81 4.88 42.41 5.69 43.02 6.51 43.63 7.32 44.23 8.13 44.84 8.95 45.44 9.76 46.05 10.57 46.65 11.39 47.26 12.2 47.87 13.01 48.47 13.83 49.08 14.64 49.68 15.45 50.29 16.27 50.9 17.08 51.5 17.89 52.11 18.71 52.71 19.52 53.32 20.33 53.93 21.15 54.53 21.96 55.14 22.77 55.74 23.59 56.35 24.4 56.96 25.21 57.56 26.03 58.17 26.84 58.77 27.65 59.38 28.47 59.98 29.28 60.59 30.09 61.2 30.9 61.8 31.72 62.41 32.53 63.01 33.34 63.62 34.16 64.23 34.97 64.83 35.78 65.44 36.6 66.04 37.41 66.65 38.22 67.26 39.04 67.86 39.85 68.47 40.66 69.07 41.48 69.68 42.29 70.29 43.1 70.89 43.92 71.5 44.73 72.1 45.54 72.71 46.36 73.31 47.17 73.92 47.98 74.53 48.8 75.13 49.61 75.74 50.42 76.34 51.24 76.95 52.05 77.56 52.05 76.34 52.05 75.13 52.05 73.92 52.05 72.71 52.05 71.5 52.05 70.29 52.05 69.07 52.05 67.86 52.05 66.65 52.05 65.44 52.05 64.23 52.05 63.01 52.05 61.8 52.05 60.59 52.05 59.38 52.05 58.17 52.05 56.96 52.05 55.74 52.05 54.53 52.05 53.32 52.05 52.11 52.05 50.9 52.05 49.68 52.05 48.47 52.05 47.26 52.05 46.05 52.05 44.84 52.05 43.63 52.05 42.41 52.05 41.2 52.05 39.99 52.05 38.78 52.05 37.57 52.05 36.35 52.05 35.14 52.05 33.93 52.05 32.72 52.05 31.51 52.05 30.3 52.05 29.08 52.05 27.87 52.05 26.66 52.05 25.45 52.05 24.24 52.05 23.02 52.05 21.81 52.05 20.6 52.05 19.39 52.05 18.18 52.05 16.97 52.05 15.75 52.05 14.54 52.05 13.33 52.05 12.12 52.05 10.91 52.05 9.69 52.05 8.48 52.05 7.27 52.05 6.06 52.05 4.85 52.05 3.64 52.05 2.42 52.05 1.21 52.05 0 51.24 .61 50.42 1.21 49.61 1.82 48.8 2.42 47.98 3.03 47.17 3.64 46.36 4.24 45.54 4.85 44.73 5.45 43.92 6.06 43.1 6.66 42.29 7.27 41.48 7.88 40.66 8.48 39.85 9.09 39.04 9.69 38.22 10.3 37.41 10.91 36.6 11.51 35.78 12.12 34.97 12.72 34.16 13.33 33.34 13.94 32.53 14.54 31.72 15.15 30.9 15.75 30.09 16.36 29.28 16.97 28.47 17.57 27.65 18.18 26.84 18.78 26.03 19.39 25.21 19.99 24.4 20.6 23.59 21.21 22.77 21.81 21.96 22.42 21.15 23.02 20.33 23.63 19.52 24.24 18.71 24.84 17.89 25.45 17.08 26.05 16.27 26.66 15.45 27.27 14.64 27.87 13.83 28.48 13.01 29.08 12.2 29.69 11.39 30.3 10.57 30.9 9.76 31.51 8.95 32.11 8.13 32.72 7.32 33.32 6.51 33.93 5.69 34.54 4.88 35.14 4.07 35.75 3.25 36.35 2.44 36.96 1.63 37.57 .81 38.17 0 38.78"/>
        <polygon class="cls-1" points="22.8 55.57 22.44 55.57 22.09 55.57 21.73 55.57 21.38 55.57 21.02 55.57 20.66 55.57 20.31 55.57 19.95 55.57 19.59 55.57 19.24 55.57 18.88 55.57 18.53 55.57 18.17 55.57 17.81 55.57 17.46 55.57 17.1 55.57 16.74 55.57 16.39 55.57 16.03 55.57 15.68 55.57 15.32 55.57 14.96 55.57 14.61 55.57 14.25 55.57 13.89 55.57 13.54 55.57 13.18 55.57 12.83 55.57 12.47 55.57 12.11 55.57 11.76 55.57 11.4 55.57 11.04 55.57 10.69 55.57 10.33 55.57 9.98 55.57 9.62 55.57 9.26 55.57 8.91 55.57 8.55 55.57 8.19 55.57 7.84 55.57 7.48 55.57 7.13 55.57 6.77 55.57 6.41 55.57 6.06 55.57 5.7 55.57 5.34 55.57 4.99 55.57 4.63 55.57 4.28 55.57 3.92 55.57 3.56 55.57 3.21 55.57 2.85 55.57 2.49 55.57 2.14 55.57 1.78 55.57 1.43 55.57 1.07 55.57 .71 55.57 .36 55.57 0 55.57 0 55.05 0 54.52 0 54 0 53.47 0 52.95 0 52.42 0 51.9 0 51.37 0 50.85 0 50.32 0 49.8 0 49.27 0 48.75 0 48.22 0 47.7 0 47.17 0 46.65 0 46.13 0 45.6 0 45.08 0 44.55 0 44.03 0 43.5 0 42.98 0 42.45 0 41.93 0 41.4 0 40.88 0 40.35 0 39.83 0 39.3 0 38.78 0 38.25 0 37.73 0 37.2 0 36.68 0 36.15 0 35.63 0 35.1 0 34.58 0 34.06 0 33.53 0 33.01 0 32.48 0 31.96 0 31.43 0 30.91 0 30.38 0 29.86 0 29.33 0 28.81 0 28.28 0 27.76 0 27.23 0 26.71 0 26.18 0 25.66 0 25.13 0 24.61 0 24.08 0 23.56 0 23.03 0 22.51 0 21.98 .36 21.98 .71 21.98 1.07 21.98 1.43 21.98 1.78 21.98 2.14 21.98 2.49 21.98 2.85 21.98 3.21 21.98 3.56 21.98 3.92 21.98 4.28 21.98 4.63 21.98 4.99 21.98 5.34 21.98 5.7 21.98 6.06 21.98 6.41 21.98 6.77 21.98 7.13 21.98 7.48 21.98 7.84 21.98 8.19 21.98 8.55 21.98 8.91 21.98 9.26 21.98 9.62 21.98 9.98 21.98 10.33 21.98 10.69 21.98 11.04 21.98 11.4 21.98 11.76 21.98 12.11 21.98 12.47 21.98 12.83 21.98 13.18 21.98 13.54 21.98 13.89 21.98 14.25 21.98 14.61 21.98 14.96 21.98 15.32 21.98 15.68 21.98 16.03 21.98 16.39 21.98 16.74 21.98 17.1 21.98 17.46 21.98 17.81 21.98 18.17 21.98 18.53 21.98 18.88 21.98 19.24 21.98 19.59 21.98 19.95 21.98 20.31 21.98 20.66 21.98 21.02 21.98 21.38 21.98 21.73 21.98 22.09 21.98 22.44 21.98 22.8 21.98 22.8 22.51 22.8 23.03 22.8 23.56 22.8 24.08 22.8 24.61 22.8 25.13 22.8 25.66 22.8 26.18 22.8 26.71 22.8 27.23 22.8 27.76 22.8 28.28 22.8 28.81 22.8 29.33 22.8 29.86 22.8 30.38 22.8 30.91 22.8 31.43 22.8 31.96 22.8 32.48 22.8 33.01 22.8 33.53 22.8 34.06 22.8 34.58 22.8 35.1 22.8 35.63 22.8 36.15 22.8 36.68 22.8 37.2 22.8 37.73 22.8 38.25 22.8 38.78 22.8 39.3 22.8 39.83 22.8 40.35 22.8 40.88 22.8 41.4 22.8 41.93 22.8 42.45 22.8 42.98 22.8 43.5 22.8 44.03 22.8 44.55 22.8 45.08 22.8 45.6 22.8 46.13 22.8 46.65 22.8 47.17 22.8 47.7 22.8 48.22 22.8 48.75 22.8 49.27 22.8 49.8 22.8 50.32 22.8 50.85 22.8 51.37 22.8 51.9 22.8 52.42 22.8 52.95 22.8 53.47 22.8 54 22.8 54.52 22.8 55.05 22.8 55.57"/>
      </g>
      <path class="cls-1" d="M72.26,75.25s-.04,0-.05,0c-.02,0-.04,0-.05,0-.02,0-.04,0-.05,0-.02,0-.04,0-.05,0s-.04,0-.05,0c-.02,0-.04,0-.05,0-.02,0-.04,0-.05,0-.02,0-.03,0-.05,0-.02,0-.03,0-.05,0-.02,0-.03,0-.05,0s-.03,0-.05,0c-.02,0-.03,0-.05-.01-.02,0-.03,0-.05-.01-.02,0-.03,0-.05-.01-.02,0-.03,0-.05-.01-.02,0-.03,0-.05-.01-.02,0-.03-.01-.05-.02-.02,0-.03-.01-.05-.02s-.03-.01-.05-.02-.03-.01-.05-.02-.03-.01-.05-.02c-.02,0-.03-.01-.05-.02-.02,0-.03-.01-.05-.02-.02,0-.03-.01-.05-.02-.02,0-.03-.01-.05-.02-.02,0-.03-.02-.05-.02-.02,0-.03-.02-.05-.02-.02,0-.03-.02-.05-.03-.02,0-.03-.02-.05-.03-.02,0-.03-.02-.05-.03-.01,0-.03-.02-.04-.03-.01,0-.03-.02-.04-.03-.01,0-.03-.02-.04-.03-.01,0-.03-.02-.04-.03s-.03-.02-.04-.03c-.01-.01-.03-.02-.04-.03-.01-.01-.03-.02-.04-.03-.01-.01-.03-.02-.04-.03-.01-.01-.03-.02-.04-.03-.01-.01-.03-.02-.04-.03-.01-.01-.03-.02-.04-.04-.01-.01-.03-.02-.04-.04-.01-.01-.03-.02-.04-.04s-.03-.03-.04-.04c-.01-.01-.02-.03-.04-.04-.01-.01-.02-.03-.04-.04-.01-.01-.02-.03-.04-.04s-.02-.03-.04-.04c-.01-.01-.02-.03-.03-.04-.01-.01-.02-.03-.03-.04s-.02-.03-.03-.04c-.01-.01-.02-.03-.03-.04-.01-.01-.02-.03-.03-.04-.01-.01-.02-.03-.03-.05-.01-.02-.02-.03-.03-.05s-.02-.03-.03-.05c0-.02-.02-.03-.03-.05,0-.02-.02-.03-.03-.05,0-.02-.02-.03-.03-.05s-.02-.03-.03-.05-.02-.03-.03-.05c0-.02-.02-.03-.02-.05,0-.02-.02-.03-.02-.05,0-.02-.02-.03-.02-.05,0-.02-.02-.05-.03-.07,0-.02-.02-.05-.03-.07,0-.02-.02-.05-.02-.07,0-.02-.02-.05-.02-.07,0-.02-.01-.05-.02-.07,0-.02-.01-.05-.02-.07,0-.02-.01-.05-.02-.07,0-.02-.01-.05-.02-.07s0-.05-.01-.07c0-.02,0-.05-.01-.07,0-.02,0-.05,0-.07,0-.02,0-.05,0-.07,0-.02,0-.05,0-.07,0-.02,0-.05,0-.07,0-.02,0-.05,0-.07s0-.05,0-.07,0-.05,0-.07c0-.02,0-.05,0-.07,0-.02,0-.05,0-.07,0-.02,0-.05,0-.07,0-.02,0-.05,0-.07,0-.02,0-.05,0-.07,0-.02,0-.05.01-.07,0-.02,0-.05.01-.07,0-.02,0-.05.01-.07,0-.02.01-.05.02-.07,0-.02.01-.05.02-.07,0-.02.01-.05.02-.07,0-.02.01-.04.02-.07,0-.02.01-.04.02-.07,0-.02.02-.04.02-.07,0-.02.02-.04.03-.07,0-.02.02-.04.03-.06,0-.02.02-.04.03-.06,0-.02.02-.04.03-.06s.02-.04.03-.06c.01-.02.02-.04.03-.06.01-.02.02-.04.03-.06.01-.02.02-.04.04-.06.01-.02.02-.04.04-.06.01-.02.03-.04.04-.06.01-.02.03-.04.04-.06.01-.02.03-.04.04-.06.01-.02.03-.04.04-.06.01-.02.03-.04.04-.05.02-.02.03-.04.05-.05.02-.02.03-.04.05-.05.02-.02.03-.03.05-.05.02-.02.03-.03.05-.05.02-.02.03-.03.05-.05.02-.02.03-.03.05-.05.02-.02.04-.03.05-.05.02-.02.04-.03.06-.05.02-.02.04-.03.06-.04.02-.01.04-.03.06-.04s.04-.03.06-.04c.02-.01.04-.03.06-.04.02-.01.04-.03.06-.04.02-.01.04-.03.06-.04.02-.01.04-.02.06-.04.02-.01.04-.02.07-.03.02-.01.04-.02.07-.03.02-.01.05-.02.07-.03.02-.01.05-.02.07-.03.19-.08.39-.17.58-.25.19-.09.38-.17.57-.26.19-.09.38-.18.57-.27.19-.09.37-.19.56-.28.19-.1.37-.19.55-.29.18-.1.36-.2.55-.3.18-.1.36-.2.54-.31.18-.1.36-.21.53-.32.18-.11.35-.22.52-.33.17-.11.35-.22.52-.34.17-.11.34-.23.51-.34.17-.12.34-.23.5-.35.17-.12.33-.24.5-.36.16-.12.33-.25.49-.37s.32-.25.48-.38c.16-.13.32-.26.47-.39.16-.13.31-.26.46-.39.15-.13.31-.27.46-.4.15-.14.3-.27.45-.41s.3-.28.44-.42c.15-.14.29-.28.43-.43.14-.14.28-.29.42-.43.14-.15.28-.29.42-.44.14-.15.27-.3.41-.45.13-.15.27-.3.4-.45.13-.15.26-.31.39-.46.13-.15.26-.31.38-.47.13-.16.25-.32.37-.47.12-.16.24-.32.36-.48.12-.16.24-.32.36-.49.12-.16.23-.33.35-.49s.23-.33.34-.5c.11-.17.22-.34.33-.51.11-.17.21-.34.32-.51.11-.17.21-.34.31-.52.1-.17.2-.35.3-.52.1-.18.2-.35.29-.53.1-.18.19-.36.28-.53.09-.18.18-.36.27-.54.09-.18.18-.36.26-.55.09-.18.17-.37.25-.55.08-.18.16-.37.24-.56s.16-.37.23-.56c.08-.19.15-.38.22-.56.07-.19.14-.38.21-.57.07-.19.14-.38.2-.57.07-.19.13-.38.19-.58.06-.19.12-.39.18-.58.06-.19.12-.39.17-.59.06-.2.11-.39.16-.59.05-.2.1-.4.15-.59.05-.2.1-.4.14-.6.04-.2.09-.4.13-.6s.08-.4.12-.6.07-.4.11-.61.07-.41.1-.61c.03-.2.06-.41.09-.61.03-.21.05-.41.07-.62.02-.21.04-.41.06-.62.02-.21.04-.41.05-.62.02-.21.03-.42.04-.62.01-.21.02-.42.03-.63,0-.21.01-.42.02-.63,0-.21,0-.42,0-.63s0-.42,0-.63c0-.21,0-.42-.02-.63s-.02-.42-.03-.63c-.01-.21-.03-.42-.04-.62-.02-.21-.03-.42-.05-.62s-.04-.41-.06-.62c-.02-.21-.05-.41-.07-.62-.03-.21-.06-.41-.09-.61-.03-.2-.06-.41-.1-.61s-.07-.41-.11-.61-.08-.4-.12-.6-.08-.4-.13-.6c-.04-.2-.09-.4-.14-.6-.05-.2-.1-.4-.15-.59-.05-.2-.11-.39-.16-.59-.06-.2-.11-.39-.17-.59-.06-.19-.12-.39-.18-.58s-.13-.39-.19-.58c-.07-.19-.13-.38-.2-.57-.07-.19-.14-.38-.21-.57-.07-.19-.15-.38-.22-.56-.08-.19-.15-.37-.23-.56-.08-.19-.16-.37-.24-.56-.08-.18-.17-.37-.25-.55-.09-.18-.17-.36-.26-.55-.09-.18-.18-.36-.27-.54-.09-.18-.19-.36-.28-.53-.1-.18-.19-.35-.29-.53-.1-.18-.2-.35-.3-.52-.1-.17-.21-.35-.31-.52-.11-.17-.21-.34-.32-.51-.11-.17-.22-.34-.33-.51-.11-.17-.22-.33-.34-.5s-.23-.33-.35-.49c-.12-.16-.24-.33-.36-.49-.12-.16-.24-.32-.36-.48-.12-.16-.25-.32-.37-.47-.13-.16-.25-.31-.38-.47-.13-.15-.26-.31-.39-.46-.13-.15-.26-.3-.4-.45-.13-.15-.27-.3-.41-.45-.14-.15-.28-.29-.42-.44s-.28-.29-.42-.43c-.14-.14-.29-.29-.43-.43-.15-.14-.29-.28-.44-.42-.15-.14-.3-.27-.45-.41-.15-.14-.3-.27-.46-.4-.15-.13-.31-.26-.46-.39-.16-.13-.31-.26-.47-.39-.16-.13-.32-.25-.48-.38-.16-.12-.32-.25-.49-.37-.16-.12-.33-.24-.5-.36-.17-.12-.33-.24-.5-.35-.17-.12-.34-.23-.51-.34-.17-.11-.34-.23-.52-.34-.17-.11-.35-.22-.52-.33-.18-.11-.35-.21-.53-.32-.18-.1-.36-.21-.54-.31-.18-.1-.36-.2-.55-.3-.18-.1-.37-.19-.55-.29-.19-.1-.37-.19-.56-.28-.19-.09-.38-.18-.57-.27-.19-.09-.38-.18-.57-.26-.19-.09-.38-.17-.58-.25-.02,0-.05-.02-.07-.03-.02-.01-.05-.02-.07-.03-.02-.01-.04-.02-.07-.03-.02-.01-.04-.02-.07-.03-.02-.01-.04-.02-.06-.04-.02-.01-.04-.02-.06-.04-.02-.01-.04-.03-.06-.04-.02-.01-.04-.03-.06-.04-.02-.01-.04-.03-.06-.04-.02-.01-.04-.03-.06-.04s-.04-.03-.06-.04c-.02-.01-.04-.03-.06-.05-.02-.02-.04-.03-.05-.05-.02-.02-.04-.03-.05-.05-.02-.02-.03-.03-.05-.05-.02-.02-.03-.03-.05-.05-.02-.02-.03-.03-.05-.05-.02-.02-.03-.03-.05-.05-.02-.02-.03-.04-.05-.05-.02-.02-.03-.04-.04-.05-.01-.02-.03-.04-.04-.06-.01-.02-.03-.04-.04-.06-.01-.02-.03-.04-.04-.06-.01-.02-.03-.04-.04-.06-.01-.02-.03-.04-.04-.06-.01-.02-.02-.04-.04-.06-.01-.02-.02-.04-.03-.06-.01-.02-.02-.04-.03-.06-.01-.02-.02-.04-.03-.06s-.02-.04-.03-.06c0-.02-.02-.04-.03-.06,0-.02-.02-.04-.03-.06,0-.02-.02-.04-.03-.07,0-.02-.02-.04-.02-.07,0-.02-.02-.04-.02-.07,0-.02-.01-.04-.02-.07,0-.02-.01-.04-.02-.07,0-.02-.01-.05-.02-.07,0-.02-.01-.05-.02-.07,0-.02,0-.05-.01-.07,0-.02,0-.05-.01-.07,0-.02,0-.05-.01-.07,0-.02,0-.05,0-.07,0-.02,0-.05,0-.07,0-.02,0-.05,0-.07,0-.02,0-.05,0-.07,0-.02,0-.05,0-.07,0-.02,0-.05,0-.07s0-.05,0-.07,0-.05,0-.07,0-.05,0-.07c0-.02,0-.05,0-.07,0-.02,0-.05,0-.07,0-.02,0-.05,0-.07,0-.02,0-.05.01-.07,0-.02,0-.05.01-.07s0-.05.02-.07c0-.02.01-.05.02-.07,0-.02.01-.05.02-.07,0-.02.01-.05.02-.07,0-.02.01-.05.02-.07,0-.02.02-.05.02-.07,0-.02.02-.05.03-.07,0-.02.02-.05.03-.07,0-.02.02-.05.03-.07s.02-.05.03-.07c.01-.02.02-.04.03-.07.01-.02.02-.04.03-.07.01-.02.02-.04.04-.06.01-.02.02-.04.04-.06.01-.02.03-.04.04-.06.01-.02.03-.04.04-.06.01-.02.03-.04.04-.06.01-.02.03-.04.04-.06.01-.02.03-.04.04-.06.01-.02.03-.04.05-.06s.03-.04.05-.05c.02-.02.03-.04.05-.05.02-.02.03-.03.05-.05.02-.02.03-.03.05-.05.02-.02.03-.03.05-.05.02-.02.03-.03.05-.05.02-.02.04-.03.05-.05.02-.02.04-.03.05-.04.02-.01.04-.03.06-.04.02-.01.04-.03.06-.04.02-.01.04-.03.06-.04.02-.01.04-.03.06-.04.02-.01.04-.03.06-.04.02-.01.04-.02.06-.04.02-.01.04-.02.06-.03.02-.01.04-.02.06-.03.02-.01.04-.02.06-.03.02-.01.04-.02.06-.03s.04-.02.06-.03c.02,0,.04-.02.06-.03.02,0,.04-.02.07-.03.02,0,.04-.02.07-.02.02,0,.04-.02.07-.02.02,0,.04-.01.07-.02.02,0,.04-.01.07-.02.02,0,.05-.01.07-.02.02,0,.05-.01.07-.02.02,0,.05,0,.07-.01.02,0,.05,0,.07-.01.02,0,.05,0,.07-.01.02,0,.05,0,.07,0,.02,0,.05,0,.07,0s.05,0,.07,0c.02,0,.05,0,.07,0,.02,0,.05,0,.07,0,.02,0,.05,0,.07,0s.05,0,.07,0c.02,0,.05,0,.07,0,.02,0,.05,0,.07,0,.02,0,.05,0,.07,0,.02,0,.05,0,.07,0,.02,0,.05,0,.07,0,.02,0,.05,0,.07.01.02,0,.05,0,.07.01.02,0,.05,0,.07.02.02,0,.05.01.07.02s.05.01.07.02c.02,0,.05.01.07.02.02,0,.05.01.07.02.02,0,.05.02.07.02.02,0,.05.02.07.03.02,0,.05.02.07.03.23.1.45.19.68.29s.45.2.67.31c.22.1.44.21.66.32s.44.22.66.33c.22.11.43.23.65.34s.43.23.64.35c.21.12.42.24.63.36s.42.25.62.37c.21.13.41.25.62.38s.41.26.61.39c.2.13.4.27.6.4.2.14.39.27.59.41.2.14.39.28.58.42.19.14.38.29.57.43.19.15.38.29.56.44.19.15.37.3.55.45.18.15.37.31.55.46.18.16.36.31.54.47.18.16.35.32.53.48.17.16.35.33.52.49s.34.33.51.5c.17.17.33.34.5.51.16.17.33.34.49.52.16.17.32.35.48.53.16.18.31.35.47.53.15.18.31.36.46.54s.3.37.45.55c.15.18.29.37.44.56.14.19.29.38.43.57.14.19.28.38.42.57.14.19.27.39.41.58.13.19.27.39.4.59.13.2.26.4.39.6.13.2.25.4.38.6.12.2.25.4.36.61.12.2.24.41.35.62s.23.41.34.62c.11.21.22.42.33.63.11.21.22.42.32.63.1.21.21.43.31.64.1.21.2.43.3.65.1.22.19.43.29.65.09.22.18.44.27.66.09.22.18.44.26.66.09.22.17.44.25.67.08.22.16.45.24.67.08.23.15.45.23.68.07.23.15.45.21.68.07.23.14.46.2.69.07.23.13.46.19.69.06.23.12.46.18.7.06.23.11.47.16.7.05.23.1.47.15.71.05.24.1.47.14.71.04.24.09.48.13.71.04.24.08.48.11.72.04.24.07.48.1.72.03.24.06.48.09.72s.05.48.07.73c.02.24.04.49.06.73.02.24.03.49.05.73s.03.49.03.74c0,.25.02.49.02.74s0,.49,0,.74,0,.49,0,.74c0,.25-.01.49-.02.74,0,.25-.02.49-.03.74-.01.25-.03.49-.05.73-.02.24-.04.49-.06.73-.02.24-.05.49-.07.73s-.06.48-.09.72-.06.48-.1.72c-.04.24-.07.48-.11.72-.04.24-.08.48-.13.71-.04.24-.09.47-.14.71-.05.24-.1.47-.15.71-.05.23-.11.47-.16.7s-.12.47-.18.7c-.06.23-.12.46-.19.69-.07.23-.13.46-.2.69s-.14.46-.21.68-.15.45-.23.68c-.08.23-.16.45-.24.67-.08.22-.17.45-.25.67-.09.22-.17.44-.26.66-.09.22-.18.44-.27.66-.09.22-.19.44-.29.65-.1.22-.2.43-.3.65-.1.21-.2.43-.31.64-.1.21-.21.42-.32.63-.11.21-.22.42-.33.63-.11.21-.23.42-.34.62-.12.21-.23.41-.35.62-.12.2-.24.41-.36.61-.12.2-.25.4-.38.6-.13.2-.26.4-.39.59-.13.2-.26.39-.4.59-.13.19-.27.39-.41.58-.14.19-.28.38-.42.57-.14.19-.28.38-.43.57s-.29.37-.44.56-.3.37-.45.55c-.15.18-.3.36-.46.54-.15.18-.31.36-.47.53-.16.18-.32.35-.48.53-.16.17-.32.35-.49.52-.16.17-.33.34-.5.51-.17.17-.34.33-.51.5s-.34.33-.52.49c-.17.16-.35.32-.53.48s-.36.32-.54.47c-.18.16-.36.31-.55.46-.18.15-.37.3-.55.45-.19.15-.37.3-.56.44s-.38.29-.57.43c-.19.14-.39.29-.58.43-.2.14-.39.28-.59.41-.2.14-.4.27-.6.4-.2.13-.4.26-.61.39s-.41.26-.62.38c-.21.13-.41.25-.62.37-.21.12-.42.24-.63.36s-.43.24-.64.35-.43.23-.65.34-.44.22-.66.33c-.22.11-.44.21-.66.32s-.45.21-.67.31c-.23.1-.45.2-.68.29,0,0-.01,0-.02,0h-.02s-.01.01-.02.01c0,0-.01,0-.02,0,0,0-.01,0-.02,0,0,0-.01,0-.02,0,0,0-.01,0-.02,0,0,0-.01,0-.02,0,0,0-.01,0-.02,0,0,0-.01,0-.02,0,0,0-.01,0-.02,0s-.01,0-.02,0c0,0-.01,0-.02,0,0,0-.01,0-.02,0,0,0-.01,0-.02,0,0,0-.01,0-.02,0s-.01,0-.02,0c0,0-.01,0-.02,0,0,0-.01,0-.02,0,0,0-.01,0-.02,0,0,0-.01,0-.02,0,0,0-.01,0-.02,0,0,0-.01,0-.02,0,0,0-.01,0-.02,0,0,0-.01,0-.02,0,0,0-.01,0-.02,0,0,0-.01,0-.02,0,0,0-.01,0-.02,0,0,0-.01,0-.02,0,0,0-.01,0-.02,0,0,0-.01,0-.02,0,0,0-.01,0-.02,0,0,0-.01,0-.02,0,0,0-.01,0-.02,0,0,0-.01,0-.02,0,0,0-.01,0-.02,0,0,0-.01,0-.02,0s-.01,0-.02,0c0,0-.01,0-.02,0,0,0-.01,0-.02,0,0,0-.01,0-.02,0,0,0-.01,0-.02,0,0,0-.01,0-.02,0,0,0-.01,0-.02,0,0,0-.01,0-.02,0,0,0-.01,0-.02,0,0,0-.01,0-.02,0,0,0-.01,0-.02,0,0,0-.01,0-.02,0,0,0-.01,0-.02,0s-.01,0-.02,0c0,0-.01,0-.02,0,0,0-.01,0-.02,0,0,0-.01,0-.02,0,0,0-.01,0-.02,0,0,0-.01,0-.02,0,0,0-.01,0-.02,0,0,0-.01,0-.02,0,0,0-.01,0-.02,0,0,0-.01,0-.02,0,0,0-.01,0-.02,0,0,0-.01,0-.02,0,0,0-.01,0-.02,0h-.02Z"/>
      <path class="cls-1" d="M67.13,63.13s-.04,0-.05,0c-.02,0-.04,0-.05,0-.02,0-.04,0-.05,0-.02,0-.04,0-.05,0s-.04,0-.05,0c-.02,0-.04,0-.05,0-.02,0-.04,0-.05,0-.02,0-.03,0-.05,0-.02,0-.03,0-.05,0-.02,0-.03,0-.05,0-.02,0-.03,0-.05-.01-.02,0-.03,0-.05-.01-.02,0-.03,0-.05-.01s-.03,0-.05-.01c-.02,0-.03,0-.05-.01-.02,0-.03,0-.05-.01-.02,0-.03-.01-.05-.02-.02,0-.03-.01-.05-.02-.02,0-.03-.01-.05-.02-.02,0-.03-.01-.05-.02s-.03-.01-.05-.02c-.02,0-.03-.01-.05-.02-.02,0-.03-.01-.05-.02-.02,0-.03-.01-.05-.02-.02,0-.03-.01-.05-.02-.02,0-.03-.02-.05-.02-.02,0-.03-.02-.05-.02-.02,0-.03-.02-.05-.02s-.03-.02-.05-.03c-.02,0-.03-.02-.05-.03-.02,0-.03-.02-.04-.03s-.03-.02-.04-.03c-.01,0-.03-.02-.04-.03-.01,0-.03-.02-.04-.03-.01-.01-.03-.02-.04-.03-.01-.01-.03-.02-.04-.03-.01-.01-.03-.02-.04-.03-.01-.01-.03-.02-.04-.03s-.03-.02-.04-.03c-.01-.01-.03-.02-.04-.03-.01-.01-.03-.02-.04-.04s-.03-.02-.04-.04c-.01-.01-.03-.02-.04-.04-.01-.01-.03-.03-.04-.04-.01-.01-.02-.03-.04-.04s-.02-.03-.04-.04c-.01-.01-.02-.03-.04-.04-.01-.01-.02-.03-.04-.04s-.02-.03-.03-.04c-.01-.01-.02-.03-.03-.04-.01-.01-.02-.03-.03-.04-.01-.01-.02-.03-.03-.04-.01-.01-.02-.03-.03-.04-.01-.01-.02-.03-.03-.05-.01-.02-.02-.03-.03-.05,0-.02-.02-.03-.03-.05,0-.02-.02-.03-.03-.05,0-.02-.02-.03-.03-.05,0-.02-.02-.03-.03-.05,0-.02-.02-.03-.03-.05,0-.02-.02-.03-.03-.05,0-.02-.02-.03-.02-.05,0-.02-.02-.03-.02-.05,0-.02-.02-.03-.02-.05,0-.02-.02-.05-.03-.07,0-.02-.02-.05-.03-.07,0-.02-.02-.05-.02-.07,0-.02-.02-.05-.02-.07,0-.02-.01-.05-.02-.07,0-.02-.01-.05-.02-.07,0-.02-.01-.05-.02-.07,0-.02-.01-.05-.02-.07s0-.05-.01-.07c0-.02,0-.05-.01-.07,0-.02,0-.05,0-.07,0-.02,0-.05,0-.07,0-.02,0-.05,0-.07,0-.02,0-.05,0-.07,0-.02,0-.05,0-.07s0-.05,0-.07,0-.05,0-.07c0-.02,0-.05,0-.07,0-.02,0-.05,0-.07,0-.02,0-.05,0-.07,0-.02,0-.05,0-.07,0-.02,0-.05,0-.07s0-.05.01-.07c0-.02,0-.05.01-.07,0-.02,0-.05.01-.07,0-.02.01-.05.02-.07,0-.02.01-.05.02-.07,0-.02.01-.05.02-.07,0-.02.01-.04.02-.07,0-.02.01-.04.02-.07,0-.02.02-.04.02-.07,0-.02.02-.04.03-.07,0-.02.02-.04.03-.06,0-.02.02-.04.03-.06,0-.02.02-.04.03-.06.01-.02.02-.04.03-.06.01-.02.02-.04.03-.06.01-.02.02-.04.03-.06.01-.02.02-.04.04-.06.01-.02.02-.04.04-.06.01-.02.03-.04.04-.06.01-.02.03-.04.04-.06.01-.02.03-.04.04-.06.01-.02.03-.04.04-.06.01-.02.03-.04.04-.05.02-.02.03-.04.05-.05.02-.02.03-.04.05-.05s.03-.03.05-.05c.02-.02.03-.03.05-.05.02-.02.03-.03.05-.05.02-.02.04-.03.05-.05.02-.02.04-.03.05-.05s.04-.03.06-.05c.02-.01.04-.03.06-.04.02-.01.04-.03.06-.04.02-.01.04-.03.06-.04.02-.01.04-.03.06-.04.02-.01.04-.03.06-.04.02-.01.04-.03.06-.04.02-.01.04-.02.06-.04.02-.01.04-.02.07-.03.02-.01.04-.02.07-.03.02-.01.05-.02.07-.03.02-.01.05-.02.07-.03.12-.05.23-.1.35-.15.12-.05.23-.1.35-.16.12-.05.23-.11.34-.16.11-.06.23-.11.34-.17.11-.06.22-.12.34-.18.11-.06.22-.12.33-.18.11-.06.22-.12.33-.19.11-.06.22-.13.32-.19.11-.07.21-.13.32-.2.11-.07.21-.13.31-.2s.21-.14.31-.21c.1-.07.2-.14.31-.21.1-.07.2-.15.3-.22s.2-.15.3-.22c.1-.08.2-.15.29-.23.1-.08.19-.16.29-.23s.19-.16.28-.24c.09-.08.19-.16.28-.24.09-.08.18-.17.27-.25.09-.08.18-.17.27-.25.09-.09.18-.17.26-.26.09-.09.17-.17.26-.26.09-.09.17-.18.25-.27.08-.09.17-.18.25-.27.08-.09.16-.18.24-.28.08-.09.16-.19.24-.28.08-.09.16-.19.23-.28.08-.1.15-.19.23-.29.07-.1.15-.19.22-.29.07-.1.14-.2.22-.3.07-.1.14-.2.21-.3.07-.1.14-.2.21-.3.07-.1.13-.2.2-.31.07-.1.13-.21.19-.31.06-.1.13-.21.19-.31.06-.11.12-.21.18-.32.06-.11.12-.21.18-.32.06-.11.12-.22.17-.32.06-.11.11-.22.17-.33.05-.11.11-.22.16-.33.05-.11.1-.22.15-.33.05-.11.1-.22.15-.34.05-.11.1-.23.14-.34.05-.11.09-.23.14-.34.04-.11.09-.23.13-.35.04-.12.08-.23.12-.35.04-.12.08-.23.12-.35.04-.12.07-.24.11-.35.04-.12.07-.24.1-.36s.07-.24.1-.36c.03-.12.06-.24.09-.36.03-.12.06-.24.09-.36s.05-.24.08-.36c.03-.12.05-.24.07-.37s.04-.25.07-.37c.02-.12.04-.25.06-.37s.04-.25.05-.37c.02-.12.03-.25.05-.37s.03-.25.04-.38c.01-.13.02-.25.03-.38,0-.13.02-.25.02-.38,0-.13.01-.25.02-.38,0-.13,0-.25.01-.38,0-.13,0-.26,0-.38s0-.26,0-.38,0-.25-.01-.38c0-.13-.01-.25-.02-.38,0-.13-.02-.25-.02-.38,0-.13-.02-.25-.03-.38-.01-.13-.02-.25-.04-.38-.01-.12-.03-.25-.05-.37-.02-.12-.03-.25-.05-.37s-.04-.25-.06-.37c-.02-.12-.04-.25-.07-.37-.02-.12-.05-.24-.07-.37-.03-.12-.05-.24-.08-.36-.03-.12-.06-.24-.09-.36-.03-.12-.06-.24-.09-.36-.03-.12-.06-.24-.1-.36-.03-.12-.07-.24-.1-.36s-.07-.24-.11-.35c-.04-.12-.08-.23-.12-.35s-.08-.23-.12-.35c-.04-.12-.09-.23-.13-.35s-.09-.23-.14-.34-.09-.23-.14-.34c-.05-.11-.1-.23-.15-.34-.05-.11-.1-.22-.15-.33-.05-.11-.11-.22-.16-.33-.05-.11-.11-.22-.17-.33-.06-.11-.11-.22-.17-.32-.06-.11-.12-.21-.18-.32-.06-.11-.12-.21-.18-.32-.06-.11-.12-.21-.19-.31-.06-.1-.13-.21-.19-.31-.07-.1-.13-.21-.2-.31-.07-.1-.14-.2-.21-.3-.07-.1-.14-.2-.21-.3-.07-.1-.14-.2-.22-.3-.07-.1-.15-.2-.22-.29-.07-.1-.15-.19-.23-.29s-.15-.19-.23-.28c-.08-.09-.16-.19-.24-.28-.08-.09-.16-.18-.24-.28-.08-.09-.16-.18-.25-.27s-.17-.18-.25-.27c-.09-.09-.17-.18-.26-.26-.09-.09-.17-.17-.26-.26-.09-.09-.18-.17-.27-.25-.09-.08-.18-.17-.27-.25-.09-.08-.18-.16-.28-.24-.09-.08-.19-.16-.28-.24-.09-.08-.19-.16-.29-.23-.1-.08-.19-.15-.29-.23-.1-.08-.2-.15-.3-.22s-.2-.15-.3-.22c-.1-.07-.2-.14-.31-.21-.1-.07-.21-.14-.31-.21-.1-.07-.21-.14-.31-.2-.11-.07-.21-.13-.32-.2-.11-.07-.21-.13-.32-.19-.11-.06-.22-.13-.33-.19-.11-.06-.22-.12-.33-.18-.11-.06-.22-.12-.34-.18-.11-.06-.23-.11-.34-.17-.11-.06-.23-.11-.34-.16-.12-.05-.23-.11-.35-.16-.12-.05-.23-.1-.35-.15-.02,0-.05-.02-.07-.03-.02-.01-.05-.02-.07-.03-.02-.01-.04-.02-.07-.03-.02-.01-.04-.02-.07-.03-.02-.01-.04-.02-.06-.04-.02-.01-.04-.02-.06-.04-.02-.01-.04-.03-.06-.04-.02-.01-.04-.03-.06-.04-.02-.01-.04-.03-.06-.04-.02-.01-.04-.03-.06-.04-.02-.01-.04-.03-.06-.04-.02-.01-.04-.03-.06-.05-.02-.02-.04-.03-.05-.05s-.04-.03-.05-.05c-.02-.02-.03-.03-.05-.05-.02-.02-.03-.03-.05-.05-.02-.02-.03-.03-.05-.05s-.03-.03-.05-.05c-.02-.02-.03-.04-.05-.05-.02-.02-.03-.04-.04-.05-.01-.02-.03-.04-.04-.06-.01-.02-.03-.04-.04-.06-.01-.02-.03-.04-.04-.06-.01-.02-.03-.04-.04-.06-.01-.02-.03-.04-.04-.06-.01-.02-.02-.04-.04-.06-.01-.02-.02-.04-.03-.06-.01-.02-.02-.04-.03-.06-.01-.02-.02-.04-.03-.06-.01-.02-.02-.04-.03-.06,0-.02-.02-.04-.03-.06,0-.02-.02-.04-.03-.06s-.02-.04-.03-.07c0-.02-.02-.04-.02-.07,0-.02-.02-.04-.02-.07,0-.02-.01-.04-.02-.07,0-.02-.01-.04-.02-.07,0-.02-.01-.05-.02-.07,0-.02-.01-.05-.02-.07,0-.02,0-.05-.01-.07,0-.02,0-.05-.01-.07,0-.02,0-.05-.01-.07,0-.02,0-.05,0-.07,0-.02,0-.05,0-.07s0-.05,0-.07c0-.02,0-.05,0-.07,0-.02,0-.05,0-.07,0-.02,0-.05,0-.07s0-.05,0-.07,0-.05,0-.07,0-.05,0-.07c0-.02,0-.05,0-.07s0-.05,0-.07c0-.02,0-.05,0-.07,0-.02,0-.05.01-.07,0-.02,0-.05.01-.07s0-.05.02-.07c0-.02.01-.05.02-.07,0-.02.01-.05.02-.07,0-.02.01-.05.02-.07,0-.02.01-.05.02-.07,0-.02.02-.05.02-.07,0-.02.02-.05.03-.07,0-.02.02-.05.03-.07,0-.02.02-.05.03-.07.01-.02.02-.05.03-.07.01-.02.02-.04.03-.07.01-.02.02-.04.03-.07.01-.02.02-.04.04-.06.01-.02.02-.04.04-.06.01-.02.03-.04.04-.06.01-.02.03-.04.04-.06.01-.02.03-.04.04-.06s.03-.04.04-.06c.01-.02.03-.04.04-.06.01-.02.03-.04.05-.06.02-.02.03-.04.05-.05.02-.02.03-.04.05-.05.02-.02.03-.03.05-.05.02-.02.03-.03.05-.05.02-.02.03-.03.05-.05s.03-.03.05-.05c.02-.02.04-.03.05-.05.02-.02.04-.03.05-.04.02-.01.04-.03.06-.04.02-.01.04-.03.06-.04s.04-.03.06-.04c.02-.01.04-.03.06-.04.02-.01.04-.03.06-.04.02-.01.04-.02.06-.04.02-.01.04-.02.06-.03.02-.01.04-.02.06-.03.02-.01.04-.02.06-.03.02-.01.04-.02.06-.03.02,0,.04-.02.06-.03.02,0,.04-.02.06-.03.02,0,.04-.02.07-.03.02,0,.04-.02.07-.02s.04-.02.07-.02c.02,0,.04-.01.07-.02.02,0,.04-.01.07-.02s.05-.01.07-.02c.02,0,.05-.01.07-.02.02,0,.05,0,.07-.01s.05,0,.07-.01.05,0,.07-.01c.02,0,.05,0,.07,0,.02,0,.05,0,.07,0,.02,0,.05,0,.07,0,.02,0,.05,0,.07,0,.02,0,.05,0,.07,0s.05,0,.07,0,.05,0,.07,0c.02,0,.05,0,.07,0,.02,0,.05,0,.07,0,.02,0,.05,0,.07,0,.02,0,.05,0,.07,0,.02,0,.05,0,.07,0,.02,0,.05,0,.07.01.02,0,.05,0,.07.01s.05,0,.07.02c.02,0,.05.01.07.02.02,0,.05.01.07.02.02,0,.05.01.07.02.02,0,.05.01.07.02.02,0,.05.02.07.02.02,0,.05.02.07.03.02,0,.05.02.07.03.15.06.3.13.45.2.15.07.3.13.45.2.15.07.3.14.44.21.15.07.29.14.44.22.14.07.29.15.43.23.14.08.29.15.43.23.14.08.28.16.42.24.14.08.28.16.42.25.14.08.27.17.41.26.14.09.27.17.4.26.13.09.27.18.4.27.13.09.26.18.39.28s.26.19.39.28c.13.1.26.19.38.29.13.1.25.2.38.3.12.1.25.2.37.3.12.1.24.2.36.31.12.1.24.21.36.31.12.11.23.21.35.32.12.11.23.22.34.33.11.11.23.22.34.33.11.11.22.22.33.34.11.11.22.23.33.34.11.12.21.23.32.35.11.12.21.24.31.36.1.12.2.24.31.36.1.12.2.24.3.37s.2.25.29.37c.1.12.19.25.29.38.09.13.19.25.28.38.09.13.18.26.27.39.09.13.18.26.26.39.09.13.17.26.26.4.08.13.17.27.25.4.08.13.16.27.24.4.08.14.16.27.24.41.08.14.15.28.23.41.07.14.15.28.22.42.07.14.14.28.21.42.07.14.14.28.21.43.07.14.13.29.2.43.06.14.13.29.19.43.06.15.12.29.18.44.06.15.12.29.17.44.06.15.11.3.17.44.05.15.11.3.16.45s.1.3.15.45c.05.15.1.3.14.45.05.15.09.3.13.46s.09.31.13.46c.04.15.08.31.12.46s.07.31.11.47.07.31.1.47.06.31.09.47c.03.16.06.32.08.47.03.16.05.32.08.48s.05.32.07.48c.02.16.04.32.06.48.02.16.03.32.05.48.01.16.03.32.04.49.01.16.02.33.03.49,0,.16.02.33.02.49,0,.16.01.33.01.49,0,.16,0,.33,0,.49s0,.33,0,.49c0,.16,0,.33-.01.49,0,.16-.01.33-.02.49,0,.16-.02.33-.03.49-.01.16-.03.32-.04.49-.02.16-.03.32-.05.48-.02.16-.04.32-.06.48s-.04.32-.07.48c-.02.16-.05.32-.08.48-.03.16-.05.32-.08.47-.03.16-.06.32-.09.47s-.07.31-.1.47c-.04.16-.07.31-.11.47-.04.16-.08.31-.12.46-.04.15-.08.31-.13.46s-.09.31-.13.46c-.05.15-.09.3-.14.45-.05.15-.1.3-.15.45s-.1.3-.16.45c-.05.15-.11.3-.17.44-.06.15-.12.29-.17.44-.06.15-.12.29-.18.44-.06.15-.13.29-.19.43-.06.14-.13.29-.2.43-.07.14-.14.28-.21.43s-.14.28-.21.42c-.07.14-.15.28-.22.42-.07.14-.15.28-.23.41-.08.14-.16.27-.24.41-.08.14-.16.27-.24.41-.08.13-.17.27-.25.4-.08.13-.17.26-.26.4-.09.13-.17.26-.26.39-.09.13-.18.26-.27.39-.09.13-.18.26-.28.38-.09.13-.19.25-.29.38-.1.12-.19.25-.29.37s-.2.24-.3.37c-.1.12-.2.24-.31.36-.1.12-.21.24-.31.36-.11.12-.21.23-.32.35-.11.12-.22.23-.33.34-.11.11-.22.23-.33.34s-.22.22-.34.33c-.11.11-.23.22-.34.33s-.23.21-.35.32c-.12.11-.24.21-.36.31-.12.1-.24.21-.36.31-.12.1-.25.2-.37.3s-.25.2-.38.3c-.13.1-.25.19-.38.29-.13.1-.26.19-.39.28s-.26.19-.39.28c-.13.09-.26.18-.4.27-.13.09-.27.18-.4.26-.14.09-.27.17-.41.26-.14.08-.28.17-.42.25-.14.08-.28.16-.42.24-.14.08-.28.16-.43.23-.14.08-.29.15-.43.23-.14.07-.29.15-.44.22-.15.07-.29.14-.44.21-.15.07-.3.14-.45.2-.15.07-.3.13-.45.2,0,0-.01,0-.02,0,0,0-.01,0-.02,0,0,0-.01,0-.02,0,0,0-.01,0-.02,0s-.01,0-.02,0c0,0-.01,0-.02,0,0,0-.01,0-.02,0,0,0-.01,0-.02,0,0,0-.01,0-.02,0,0,0-.01,0-.02,0,0,0-.01,0-.02,0s-.01,0-.02,0-.01,0-.02,0h-.02s-.01,0-.02.01c0,0-.01,0-.02,0,0,0-.01,0-.02,0s-.01,0-.02,0h-.02s-.01,0-.02.01c0,0-.01,0-.02,0,0,0-.01,0-.02,0,0,0-.01,0-.02,0,0,0-.01,0-.02,0,0,0-.01,0-.02,0,0,0-.01,0-.02,0,0,0-.01,0-.02,0,0,0-.01,0-.02,0,0,0-.01,0-.02,0,0,0-.01,0-.02,0,0,0-.01,0-.02,0,0,0-.01,0-.02,0,0,0-.01,0-.02,0,0,0-.01,0-.02,0h-.02s-.01,0-.02,0c0,0-.01,0-.02,0s-.01,0-.02,0c0,0-.01,0-.02,0,0,0-.01,0-.02,0s-.01,0-.02,0c0,0-.01,0-.02,0h-.02s-.01,0-.02,0c0,0-.01,0-.02,0h-.02s-.01,0-.02,0-.01,0-.02,0c0,0-.01,0-.02,0,0,0-.01,0-.02,0,0,0-.01,0-.02,0,0,0-.01,0-.02,0,0,0-.01,0-.02,0,0,0-.01,0-.02,0,0,0-.01,0-.02,0,0,0-.01,0-.02,0,0,0-.01,0-.02,0,0,0-.01,0-.02,0,0,0-.01,0-.02,0,0,0-.01,0-.02,0,0,0-.01,0-.02,0s-.01,0-.02,0c0,0-.01,0-.02,0h-.02Z"/>
      <path class="cls-1" d="M62.1,51.23s-.04,0-.05,0c-.02,0-.04,0-.05,0-.02,0-.04,0-.05,0s-.04,0-.05,0c-.02,0-.04,0-.05,0-.02,0-.04,0-.05,0-.02,0-.04,0-.05,0-.02,0-.03,0-.05,0-.02,0-.03,0-.05,0-.02,0-.03,0-.05,0-.02,0-.03,0-.05,0-.02,0-.03,0-.05-.01-.02,0-.03,0-.05-.01-.02,0-.03,0-.05-.01-.02,0-.03,0-.05-.01s-.03,0-.05-.01-.03-.01-.05-.02c-.02,0-.03-.01-.05-.02-.02,0-.03-.01-.05-.02s-.03-.01-.05-.02-.03-.01-.05-.02c-.02,0-.03-.01-.05-.02s-.03-.01-.05-.02c-.02,0-.03-.01-.05-.02-.02,0-.03-.01-.05-.02-.02,0-.03-.02-.05-.02-.02,0-.03-.02-.05-.02s-.03-.02-.05-.03c-.02,0-.03-.02-.05-.03s-.03-.02-.05-.03c-.02,0-.03-.02-.04-.03-.01,0-.03-.02-.04-.03-.01,0-.03-.02-.04-.03-.01,0-.03-.02-.04-.03-.01-.01-.03-.02-.04-.03-.01-.01-.03-.02-.04-.03-.01-.01-.03-.02-.04-.03-.01-.01-.03-.02-.04-.03-.01-.01-.03-.02-.04-.03-.01-.01-.03-.02-.04-.03-.01-.01-.03-.02-.04-.04-.01-.01-.03-.02-.04-.04-.01-.01-.03-.02-.04-.04s-.03-.03-.04-.04c-.01-.01-.02-.03-.04-.04-.01-.01-.02-.03-.04-.04-.01-.01-.02-.03-.04-.04-.01-.01-.02-.03-.04-.04-.01-.01-.02-.03-.03-.04-.01-.01-.02-.03-.03-.04-.01-.01-.02-.03-.03-.04-.01-.01-.02-.03-.03-.04-.01-.01-.02-.03-.03-.04-.01-.01-.02-.03-.03-.05-.01-.02-.02-.03-.03-.05,0-.02-.02-.03-.03-.05,0-.02-.02-.03-.03-.05,0-.02-.02-.03-.03-.05,0-.02-.02-.03-.03-.05,0-.02-.02-.03-.03-.05,0-.02-.02-.03-.03-.05,0-.02-.02-.03-.02-.05,0-.02-.02-.03-.02-.05,0-.02-.02-.03-.02-.05,0-.02-.02-.05-.03-.07s-.02-.05-.03-.07c0-.02-.02-.05-.02-.07,0-.02-.02-.05-.02-.07,0-.02-.01-.05-.02-.07,0-.02-.01-.05-.02-.07,0-.02-.01-.05-.02-.07s-.01-.05-.02-.07c0-.02,0-.05-.01-.07,0-.02,0-.05-.01-.07,0-.02,0-.05,0-.07,0-.02,0-.05,0-.07,0-.02,0-.05,0-.07,0-.02,0-.05,0-.07,0-.02,0-.05,0-.07s0-.05,0-.07,0-.05,0-.07c0-.02,0-.05,0-.07,0-.02,0-.05,0-.07s0-.05,0-.07c0-.02,0-.05,0-.07,0-.02,0-.05,0-.07,0-.02,0-.05.01-.07,0-.02,0-.05.01-.07,0-.02,0-.05.01-.07,0-.02.01-.05.02-.07,0-.02.01-.05.02-.07,0-.02.01-.05.02-.07,0-.02.01-.04.02-.07,0-.02.01-.04.02-.07,0-.02.02-.04.02-.07,0-.02.02-.04.03-.07,0-.02.02-.04.03-.06,0-.02.02-.04.03-.06,0-.02.02-.04.03-.06.01-.02.02-.04.03-.06.01-.02.02-.04.03-.06.01-.02.02-.04.03-.06.01-.02.02-.04.04-.06.01-.02.02-.04.04-.06.01-.02.03-.04.04-.06.01-.02.03-.04.04-.06.01-.02.03-.04.04-.06.01-.02.03-.04.04-.06s.03-.04.04-.05c.02-.02.03-.04.05-.05.02-.02.03-.04.05-.05.02-.02.03-.03.05-.05.02-.02.03-.03.05-.05.02-.02.03-.03.05-.05.02-.02.04-.03.05-.05.02-.02.04-.03.05-.05.02-.02.04-.03.06-.05.02-.02.04-.03.06-.04.02-.01.04-.03.06-.04.02-.01.04-.03.06-.04.02-.01.04-.03.06-.04.02-.01.04-.03.06-.04.02-.01.04-.03.06-.04.02-.01.04-.02.06-.04.02-.01.04-.02.07-.03.02-.01.04-.02.07-.03.02-.01.05-.02.07-.03.02-.01.05-.02.07-.03.04-.02.09-.04.13-.06.04-.02.08-.04.13-.06.04-.02.08-.04.13-.06.04-.02.08-.04.12-.06.04-.02.08-.04.12-.06.04-.02.08-.04.12-.07.04-.02.08-.05.12-.07.04-.02.08-.05.12-.07.04-.02.08-.05.12-.07.04-.02.08-.05.11-.07.04-.03.08-.05.11-.08.04-.03.07-.05.11-.08s.07-.05.11-.08c.04-.03.07-.05.11-.08.04-.03.07-.06.11-.08.04-.03.07-.06.1-.09.03-.03.07-.06.1-.09.03-.03.07-.06.1-.09s.07-.06.1-.09c.03-.03.07-.06.1-.09.03-.03.06-.06.1-.09s.06-.06.09-.1c.03-.03.06-.06.09-.1s.06-.07.09-.1c.03-.03.06-.07.09-.1.03-.03.06-.07.09-.1.03-.03.06-.07.08-.1.03-.03.06-.07.08-.11.03-.04.05-.07.08-.11.03-.04.05-.07.08-.11.03-.04.05-.07.08-.11.03-.04.05-.07.07-.11.02-.04.05-.07.07-.11.02-.04.05-.08.07-.11.02-.04.05-.08.07-.11.02-.04.04-.08.07-.12s.04-.08.06-.12c.02-.04.04-.08.06-.12s.04-.08.06-.12c.02-.04.04-.08.06-.12.02-.04.04-.08.06-.12.02-.04.04-.08.05-.12.02-.04.03-.08.05-.12.02-.04.03-.08.05-.13.02-.04.03-.08.05-.13.02-.04.03-.08.04-.13.01-.04.03-.09.04-.13.01-.04.03-.09.04-.13s.03-.09.04-.13c.01-.04.02-.09.04-.13.01-.04.02-.09.03-.13.01-.04.02-.09.03-.13.01-.04.02-.09.03-.13s.02-.09.03-.13c0-.04.02-.09.02-.13,0-.04.01-.09.02-.14,0-.05.01-.09.02-.14,0-.05.01-.09.02-.14,0-.05,0-.09.01-.14,0-.05,0-.09.01-.14,0-.05,0-.09,0-.14,0-.05,0-.09,0-.14s0-.09,0-.14c0-.05,0-.09,0-.14s0-.09,0-.14c0-.05,0-.09,0-.14,0-.05,0-.09,0-.14,0-.05,0-.09,0-.14,0-.05,0-.09-.01-.14,0-.05,0-.09-.01-.14,0-.05-.01-.09-.02-.14,0-.05-.01-.09-.02-.14,0-.05-.01-.09-.02-.14,0-.04-.02-.09-.02-.13,0-.04-.02-.09-.03-.13,0-.04-.02-.09-.03-.13s-.02-.09-.03-.13c-.01-.04-.02-.09-.03-.13-.01-.04-.02-.09-.04-.13-.01-.04-.03-.09-.04-.13-.01-.04-.03-.09-.04-.13-.01-.04-.03-.09-.04-.13-.01-.04-.03-.08-.04-.13-.02-.04-.03-.08-.05-.13-.02-.04-.03-.08-.05-.13-.02-.04-.03-.08-.05-.12-.02-.04-.04-.08-.05-.12-.02-.04-.04-.08-.06-.12-.02-.04-.04-.08-.06-.12s-.04-.08-.06-.12c-.02-.04-.04-.08-.06-.12-.02-.04-.04-.08-.06-.12-.02-.04-.04-.08-.07-.12s-.05-.08-.07-.11c-.02-.04-.05-.08-.07-.11-.02-.04-.05-.07-.07-.11-.02-.04-.05-.07-.07-.11-.03-.04-.05-.07-.08-.11-.03-.04-.05-.07-.08-.11-.03-.04-.05-.07-.08-.11-.03-.04-.05-.07-.08-.11-.03-.03-.06-.07-.08-.1-.03-.03-.06-.07-.09-.1-.03-.03-.06-.07-.09-.1-.03-.03-.06-.07-.09-.1s-.06-.07-.09-.1c-.03-.03-.06-.06-.09-.1-.03-.03-.06-.06-.1-.09-.03-.03-.06-.06-.1-.09-.03-.03-.07-.06-.1-.09s-.07-.06-.1-.09c-.03-.03-.07-.06-.1-.09-.03-.03-.07-.06-.1-.09-.04-.03-.07-.06-.11-.08-.04-.03-.07-.05-.11-.08-.04-.03-.07-.05-.11-.08s-.07-.05-.11-.08c-.04-.03-.07-.05-.11-.08-.04-.03-.08-.05-.11-.07-.04-.02-.08-.05-.12-.07s-.08-.05-.12-.07c-.04-.02-.08-.05-.12-.07-.04-.02-.08-.04-.12-.07-.04-.02-.08-.04-.12-.06-.04-.02-.08-.04-.12-.06-.04-.02-.08-.04-.13-.06-.04-.02-.08-.04-.13-.06-.04-.02-.09-.04-.13-.06-.02,0-.05-.02-.07-.03-.02-.01-.05-.02-.07-.03-.02-.01-.04-.02-.07-.03-.02-.01-.04-.02-.07-.03-.02-.01-.04-.02-.06-.04-.02-.01-.04-.02-.06-.04-.02-.01-.04-.03-.06-.04-.02-.01-.04-.03-.06-.04-.02-.01-.04-.03-.06-.04-.02-.01-.04-.03-.06-.04-.02-.01-.04-.03-.06-.04-.02-.01-.04-.03-.06-.05-.02-.02-.04-.03-.05-.05-.02-.02-.04-.03-.05-.05-.02-.02-.03-.03-.05-.05-.02-.02-.03-.03-.05-.05-.02-.02-.03-.03-.05-.05-.02-.02-.03-.03-.05-.05-.02-.02-.03-.04-.05-.05-.02-.02-.03-.04-.04-.05-.01-.02-.03-.04-.04-.06-.01-.02-.03-.04-.04-.06-.01-.02-.03-.04-.04-.06-.01-.02-.03-.04-.04-.06-.01-.02-.03-.04-.04-.06-.01-.02-.02-.04-.04-.06-.01-.02-.02-.04-.03-.06-.01-.02-.02-.04-.03-.06-.01-.02-.02-.04-.03-.06-.01-.02-.02-.04-.03-.06,0-.02-.02-.04-.03-.06s-.02-.04-.03-.06c0-.02-.02-.04-.03-.07,0-.02-.02-.04-.02-.07,0-.02-.02-.04-.02-.07,0-.02-.01-.04-.02-.07,0-.02-.01-.04-.02-.07,0-.02-.01-.05-.02-.07,0-.02-.01-.05-.02-.07,0-.02,0-.05-.01-.07,0-.02,0-.05-.01-.07,0-.02,0-.05-.01-.07,0-.02,0-.05,0-.07,0-.02,0-.05,0-.07,0-.02,0-.05,0-.07s0-.05,0-.07c0-.02,0-.05,0-.07,0-.02,0-.05,0-.07s0-.05,0-.07c0-.02,0-.05,0-.07,0-.02,0-.05,0-.07,0-.02,0-.05,0-.07,0-.02,0-.05,0-.07,0-.02,0-.05,0-.07,0-.02,0-.05.01-.07,0-.02,0-.05.01-.07,0-.02,0-.05.02-.07s.01-.05.02-.07c0-.02.01-.05.02-.07,0-.02.01-.05.02-.07,0-.02.01-.05.02-.07s.02-.05.02-.07c0-.02.02-.05.03-.07,0-.02.02-.05.03-.07,0-.02.02-.05.03-.07.01-.02.02-.05.03-.07.01-.02.02-.04.03-.07.01-.02.02-.04.03-.07.01-.02.02-.04.04-.06.01-.02.02-.04.04-.06.01-.02.03-.04.04-.06s.03-.04.04-.06c.01-.02.03-.04.04-.06.01-.02.03-.04.04-.06.01-.02.03-.04.04-.06.01-.02.03-.04.05-.06.02-.02.03-.04.05-.05.02-.02.03-.04.05-.05.02-.02.03-.03.05-.05.02-.02.03-.03.05-.05.02-.02.03-.03.05-.05.02-.02.03-.03.05-.05.02-.02.04-.03.05-.05s.04-.03.05-.04c.02-.01.04-.03.06-.04.02-.01.04-.03.06-.04.02-.01.04-.03.06-.04.02-.01.04-.03.06-.04.02-.01.04-.03.06-.04.02-.01.04-.02.06-.04.02-.01.04-.02.06-.03.02-.01.04-.02.06-.03.02-.01.04-.02.06-.03.02-.01.04-.02.06-.03.02,0,.04-.02.06-.03.02,0,.04-.02.06-.03s.04-.02.07-.03c.02,0,.04-.02.07-.02.02,0,.04-.02.07-.02.02,0,.04-.01.07-.02s.04-.01.07-.02c.02,0,.05-.01.07-.02.02,0,.05-.01.07-.02.02,0,.05,0,.07-.01.02,0,.05,0,.07-.01.02,0,.05,0,.07-.01.02,0,.05,0,.07,0,.02,0,.05,0,.07,0,.02,0,.05,0,.07,0,.02,0,.05,0,.07,0,.02,0,.05,0,.07,0,.02,0,.05,0,.07,0,.02,0,.05,0,.07,0s.05,0,.07,0c.02,0,.05,0,.07,0,.02,0,.05,0,.07,0,.02,0,.05,0,.07,0,.02,0,.05,0,.07,0,.02,0,.05,0,.07.01s.05,0,.07.01c.02,0,.05,0,.07.02.02,0,.05.01.07.02.02,0,.05.01.07.02.02,0,.05.01.07.02.02,0,.05.01.07.02s.05.02.07.02.05.02.07.03c.02,0,.05.02.07.03.08.03.15.07.23.1.08.03.15.07.23.1.08.03.15.07.22.11.07.04.15.07.22.11.07.04.15.08.22.11.07.04.14.08.22.12.07.04.14.08.21.12.07.04.14.08.21.13.07.04.14.09.21.13.07.04.14.09.21.13.07.04.14.09.2.14.07.05.13.09.2.14.07.05.13.09.2.14.06.05.13.1.19.15.06.05.13.1.19.15.06.05.13.1.19.15.06.05.12.1.18.16.06.05.12.11.18.16.06.05.12.11.18.16.06.05.12.11.17.17.06.06.11.11.17.17s.11.11.17.17c.06.06.11.12.16.17.05.06.11.12.16.18s.11.12.16.18.1.12.15.18c.05.06.1.12.15.19.05.06.1.13.15.19.05.06.1.13.14.19.05.06.09.13.14.19.05.06.09.13.14.2.05.07.09.13.13.2.04.07.09.13.13.2.04.07.09.13.13.2.04.07.08.14.12.21.04.07.08.14.12.21.04.07.08.14.12.21.04.07.08.14.11.21.04.07.07.14.11.21.04.07.07.14.1.22.03.07.07.14.1.22s.06.15.1.22c.03.07.06.15.09.22.03.07.06.15.09.22.03.07.06.15.08.23.03.08.05.15.08.23.03.08.05.15.08.23.02.08.05.15.07.23.02.08.05.15.07.23.02.08.04.16.06.23.02.08.04.16.06.24.02.08.04.16.06.24.02.08.03.16.05.24.02.08.03.16.05.24.02.08.03.16.04.24.01.08.03.16.04.24s.02.16.03.24c.01.08.02.16.03.24,0,.08.02.16.03.25,0,.08.01.16.02.25s.01.16.02.25c0,.08,0,.17.01.25,0,.08,0,.17,0,.25,0,.08,0,.17,0,.25s0,.17,0,.25c0,.08,0,.17,0,.25,0,.08,0,.17-.01.25,0,.08,0,.17-.02.25s-.01.16-.02.25c0,.08-.02.16-.03.25,0,.08-.02.16-.03.24-.01.08-.02.16-.03.24s-.02.16-.04.24c-.01.08-.03.16-.04.24-.01.08-.03.16-.05.24-.02.08-.03.16-.05.24-.02.08-.04.16-.06.24-.02.08-.04.16-.06.24-.02.08-.04.16-.06.23-.02.08-.04.16-.07.23-.02.08-.05.15-.07.23-.02.08-.05.15-.08.23-.03.08-.05.15-.08.23-.03.08-.06.15-.08.23-.03.07-.06.15-.09.22-.03.07-.06.15-.09.22-.03.07-.06.15-.1.22-.03.07-.07.15-.1.22-.03.07-.07.14-.1.22-.04.07-.07.14-.11.21-.04.07-.07.14-.11.21-.04.07-.08.14-.12.21-.04.07-.08.14-.12.21-.04.07-.08.14-.12.21-.04.07-.08.14-.13.2-.04.07-.09.13-.13.2-.04.07-.09.13-.13.2-.05.07-.09.13-.14.2-.05.06-.09.13-.14.19-.05.06-.1.13-.14.19-.05.06-.1.13-.15.19-.05.06-.1.12-.15.19s-.1.12-.15.18c-.05.06-.1.12-.16.18-.05.06-.11.12-.16.18-.05.06-.11.12-.16.17-.06.06-.11.11-.17.17s-.11.11-.17.17c-.06.06-.12.11-.17.17-.06.05-.12.11-.18.16-.06.05-.12.11-.18.16-.06.05-.12.1-.18.16-.06.05-.12.1-.19.15-.06.05-.13.1-.19.15-.06.05-.13.1-.19.15-.06.05-.13.1-.2.14-.07.05-.13.09-.2.14-.07.05-.13.09-.2.14-.07.04-.14.09-.21.13-.07.04-.14.09-.21.13-.07.04-.14.08-.21.13-.07.04-.14.08-.21.12-.07.04-.14.08-.22.12-.07.04-.15.08-.22.11-.07.04-.15.07-.22.11-.07.04-.15.07-.22.11s-.15.07-.23.1c-.08.03-.15.07-.23.1,0,0-.01,0-.02,0h-.02s-.01.01-.02.01c0,0-.01,0-.02,0,0,0-.01,0-.02,0,0,0-.01,0-.02,0,0,0-.01,0-.02,0,0,0-.01,0-.02,0,0,0-.01,0-.02,0,0,0-.01,0-.02,0,0,0-.01,0-.02,0,0,0-.01,0-.02,0s-.01,0-.02,0c0,0-.01,0-.02,0,0,0-.01,0-.02,0,0,0-.01,0-.02,0,0,0-.01,0-.02,0s-.01,0-.02,0h-.02s-.01,0-.02.01c0,0-.01,0-.02,0s-.01,0-.02,0c0,0-.01,0-.02,0,0,0-.01,0-.02,0,0,0-.01,0-.02,0,0,0-.01,0-.02,0,0,0-.01,0-.02,0,0,0-.01,0-.02,0,0,0-.01,0-.02,0,0,0-.01,0-.02,0,0,0-.01,0-.02,0,0,0-.01,0-.02,0,0,0-.01,0-.02,0,0,0-.01,0-.02,0,0,0-.01,0-.02,0,0,0-.01,0-.02,0,0,0-.01,0-.02,0,0,0-.01,0-.02,0,0,0-.01,0-.02,0,0,0-.01,0-.02,0,0,0-.01,0-.02,0,0,0-.01,0-.02,0,0,0-.01,0-.02,0,0,0-.01,0-.02,0,0,0-.01,0-.02,0,0,0-.01,0-.02,0,0,0-.01,0-.02,0,0,0-.01,0-.02,0,0,0-.01,0-.02,0,0,0-.01,0-.02,0,0,0-.01,0-.02,0,0,0-.01,0-.02,0,0,0-.01,0-.02,0,0,0-.01,0-.02,0,0,0-.01,0-.02,0,0,0-.01,0-.02,0,0,0-.01,0-.02,0,0,0-.01,0-.02,0,0,0-.01,0-.02,0,0,0-.01,0-.02,0,0,0-.01,0-.02,0,0,0-.01,0-.02,0,0,0-.01,0-.02,0h-.02Z"/>
    </g>
  </g>
</svg>