<?xml version="1.0" encoding="UTF-8"?>
<svg id="Ebene_2" data-name="Ebene 2" xmlns="http://www.w3.org/2000/svg" xmlns:xlink="http://www.w3.org/1999/xlink" viewBox="0 0 635.48 325">
  <defs>
    <style>
      .cls-1 {
        fill: url(#linear-gradient-3);
      }

      .cls-2 {
        fill: url(#linear-gradient-2);
      }

      .cls-3 {
        fill: url(#linear-gradient);
      }

      .cls-4 {
        fill: #b8b8b8;
      }

      .cls-5 {
        opacity: .4;
      }

      .cls-6 {
        fill: #e1e1e1;
      }

      .cls-7 {
        fill: #a9a9a9;
      }
    </style>
    <linearGradient id="linear-gradient" x1="907.44" y1="-211.4" x2="907.44" y2="-427.12" gradientTransform="translate(-716.12 660.95) rotate(-10)" gradientUnits="userSpaceOnUse">
      <stop offset="0" stop-color="#b4b4b4"/>
      <stop offset="1" stop-color="#cdcdcd"/>
    </linearGradient>
    <linearGradient id="linear-gradient-2" x1="-175.23" y1="1047.57" x2="-175.23" y2="831.85" gradientTransform="translate(849.13 -706.04) rotate(10)" xlink:href="#linear-gradient"/>
    <linearGradient id="linear-gradient-3" x1="317.74" y1="287.61" x2="317.74" y2="9.42" gradientTransform="matrix(1,0,0,1,0,0)" xlink:href="#linear-gradient"/>
  </defs>
  <g id="dec">
    <g>
      <g>
        <g>
          <path class="cls-5" d="M234.25,177.56c11.82-16.43-.33-39.27-20.56-38.66l-40.92,1.24c-8.03.24-15.67-3.48-20.42-9.96l-24.22-33.01c-11.97-16.31-37.45-11.82-43.12,7.6l-11.47,39.3c-2.25,7.71-8.15,13.83-15.78,16.34l-38.87,12.83c-19.22,6.34-22.82,31.97-6.09,43.36l33.83,23.05c6.64,4.52,10.63,12.03,10.67,20.06l.19,40.94c.09,20.24,23.35,31.58,39.35,19.19l32.38-25.05c6.35-4.92,14.72-6.39,22.38-3.95l38.99,12.47c19.27,6.16,37.25-12.45,30.42-31.5l-13.82-38.53c-2.71-7.56-1.53-15.98,3.16-22.5l23.91-33.23Z"/>
          <path class="cls-5" d="M232.94,170.13c11.82-16.43-.33-39.27-20.56-38.66l-40.92,1.24c-8.03.24-15.67-3.48-20.42-9.96l-24.22-33.01c-11.97-16.31-37.45-11.82-43.12,7.6l-11.47,39.3c-2.25,7.71-8.15,13.83-15.78,16.34l-38.87,12.83c-19.22,6.34-22.82,31.97-6.09,43.36l33.83,23.05c6.64,4.52,10.63,12.03,10.67,20.06l.19,40.94c.09,20.24,23.35,31.58,39.35,19.19l32.38-25.05c6.35-4.92,14.72-6.39,22.38-3.95l38.99,12.47c19.27,6.16,37.25-12.45,30.42-31.5l-13.82-38.53c-2.71-7.56-1.53-15.98,3.16-22.5l23.91-33.23Z"/>
          <g>
            <path class="cls-7" d="M126.01,85.15l24.22,33.01c4.75,6.48,12.39,10.2,20.42,9.96l40.92-1.24c20.23-.61,32.37,22.23,20.56,38.66l-23.91,33.23c-4.69,6.52-5.88,14.94-3.16,22.5l13.82,38.53c6.83,19.05-11.14,37.66-30.42,31.5l-38.99-12.47c-7.65-2.45-16.02-.97-22.38,3.95l-32.38,25.05c-16,12.38-39.26,1.04-39.35-19.19l-.19-40.94c-.04-8.04-4.03-15.54-10.67-20.06l-33.83-23.05c-16.72-11.39-13.12-37.02,6.09-43.36l38.87-12.83c7.63-2.52,13.53-8.63,15.78-16.34l11.47-39.3c5.67-19.42,31.15-23.92,43.12-7.6Z"/>
            <path class="cls-6" d="M228.76,146.77c-2.12-7.6-9.07-13.71-18.21-13.44l-46.46,1.4c-6.03.18-11.75-2.61-15.32-7.46l-27.5-37.48c-8.98-12.24-28.09-8.87-32.34,5.7l-13.02,44.63c-1.7,5.78-6.12,10.36-11.85,12.25l-44.14,14.57c-8.68,2.87-13.12,10.99-12.52,18.85-2.5-8.84,1.86-19.14,11.88-22.46l44.14-14.57c5.73-1.89,10.15-6.47,11.85-12.25l13.02-44.63c4.25-14.57,23.36-17.94,32.34-5.7l27.5,37.48c3.57,4.85,9.29,7.65,15.32,7.46l46.46-1.4c10.56-.31,18.17,7.88,18.85,17.04Z"/>
            <path class="cls-3" d="M121.3,89.94l27.5,37.47c3.57,4.86,9.29,7.65,15.32,7.47l46.46-1.41c15.17-.46,24.28,16.68,15.42,29l-27.14,37.73c-3.52,4.89-4.41,11.2-2.37,16.88l15.69,43.75c5.12,14.29-8.36,28.24-22.81,23.62l-44.27-14.16c-5.74-1.84-12.02-.73-16.78,2.96l-36.76,28.44c-12,9.29-29.44.78-29.52-14.4l-.22-46.48c-.03-6.03-3.02-11.65-8-15.05l-38.41-26.17c-12.54-8.55-9.84-27.76,4.57-32.52l44.14-14.57c5.72-1.89,10.15-6.47,11.84-12.26l13.02-44.62c4.25-14.57,23.36-17.94,32.34-5.7Z"/>
          </g>
          <path class="cls-4" d="M71.85,293.96s-.04-.07-.06-.09c-.05-.05-.1-.11-.15-.16-.78-.82-1.81-.84-2.73-.22-.65.44-.83,1.19-.9,1.91-.2,1.89,1.97,3.14,3.53,2.13,1.29-.84,1.31-2.59.31-3.57Z"/>
          <path class="cls-4" d="M77.03,285.28c-.58-.69-1.54-.94-2.39-.67-.76.24-1.32.85-1.49,1.63-.19.82.11,1.89.88,2.34.34.2.68.39,1.01.59.73.43,1.59.2,1.93-.6.15-.35.3-.7.45-1.05.3-.71.1-1.66-.39-2.23Z"/>
          <path class="cls-4" d="M81.91,298.58c-.05-.13-.11-.26-.15-.39,0-.03-.03-.16-.04-.19-.06-.27-.09-.55-.11-.83-.07-1.22-1.62-1.82-2.61-1.35-1,.47-1.49,2.02-.62,2.86.64.62,1.29,1.09,2.1,1.46.96.44,1.79-.71,1.43-1.56Z"/>
          <path class="cls-7" d="M75.54,297.03c-.34-.11-.72-.11-1.06.01-.35.04-.69.14-.96.31-.8.52-1.14,1.48-.85,2.38.25.79.95,1.38,1.79,1.46.87.08,1.92-.48,2.17-1.36.13-.45.24-.87.16-1.34-.12-.66-.6-1.25-1.24-1.46Z"/>
          <path class="cls-7" d="M80.01,284.1c-.21.04-.15.36.06.32s.15-.36-.06-.32Z"/>
          <path class="cls-7" d="M84.63,292.01c-.2-.1-.4-.2-.6-.29-.77-.37-1.26.92-.47,1.26.2.09.41.17.61.26.79.34,1.2-.87.45-1.23Z"/>
          <path class="cls-7" d="M85.61,297.18c-.73.13-1.25.86-1.12,1.59s.86,1.25,1.59,1.12,1.25-.86,1.12-1.59-.86-1.25-1.59-1.12Z"/>
          <path class="cls-7" d="M89.15,294.56c-2.48.44-1.8,4.29.68,3.85,2.48-.44,1.8-4.29-.68-3.85Z"/>
          <path class="cls-7" d="M91.85,280.49c-2.11.37-1.54,3.66.58,3.28s1.54-3.66-.58-3.28Z"/>
          <path class="cls-7" d="M98.25,286.1c-1.63.29-1.19,2.82.45,2.53,1.63-.29,1.19-2.82-.45-2.53Z"/>
          <path class="cls-7" d="M106.32,277.1c-2.57.45-1.87,4.45.7,4,2.57-.45,1.87-4.45-.7-4Z"/>
          <path class="cls-7" d="M67.08,285.56c-1.81.32-1.32,3.14.5,2.82,1.81-.32,1.32-3.14-.5-2.82Z"/>
          <path class="cls-7" d="M67.59,278.57c-.05-.16-.27-.31-.44-.31-.35,0-.71.07-1.09.12-1.27.17-1.69,2.02-.6,2.71,1.08.69,2.57-.17,2.34-1.49-.06-.35-.11-.69-.21-1.03Z"/>
          <path class="cls-7" d="M73.74,272.6c-2.13.38-1.55,3.69.59,3.32s1.55-3.69-.59-3.32Z"/>
          <path class="cls-7" d="M82.06,283.71c-.93.16-1.68,1.14-1.47,2.1.21.96,1.1,1.65,2.1,1.47.93-.16,1.68-1.14,1.47-2.1-.21-.96-1.1-1.65-2.1-1.47Z"/>
          <path class="cls-7" d="M115.61,275.84c-.21-.46-.63-.83-1.15-.86-.11,0-.2,0-.29.02-.72-.02-1.26.42-1.73.94-.53.59-.42,1.63-.03,2.24.42.64,1.24,1.07,2.02.9.69-.15,1.29-.61,1.54-1.28.27-.74.07-1.39-.36-1.94Z"/>
          <path class="cls-7" d="M121.14,267.68c-2.25.4-1.64,3.89.62,3.5,2.25-.4,1.64-3.89-.62-3.5Z"/>
          <path class="cls-7" d="M124.7,270.54c-1.12.2-.82,1.95.31,1.75s.82-1.95-.31-1.75Z"/>
          <path class="cls-7" d="M146.45,258.46s-.08-.07-.12-.1c.22-.84-.36-1.92-1.48-1.72-1.7.3-1.24,2.94.47,2.64.25-.04.44-.14.6-.27.04.02.07.04.11.06.35.15.68-.33.42-.6Z"/>
          <path class="cls-7" d="M147.46,266.11c-1.06.19-.77,1.83.29,1.64,1.06-.19.77-1.83-.29-1.64Z"/>
          <path class="cls-7" d="M156.12,267.16c-.48.09-.35.83.13.75s.35-.83-.13-.75Z"/>
          <path class="cls-7" d="M124.94,253.2c-2.73.48-1.99,4.73.75,4.25,2.73-.48,1.99-4.73-.75-4.25Z"/>
          <path class="cls-7" d="M130.91,245.7c-1.38.24-1,2.38.38,2.14s1-2.38-.38-2.14Z"/>
          <path class="cls-7" d="M139.77,259.88c-1.12.2-.82,1.95.31,1.75,1.12-.2.82-1.95-.31-1.75Z"/>
          <path class="cls-7" d="M136.65,263.53c-2.25.4-1.64,3.89.62,3.5s1.64-3.89-.62-3.5Z"/>
          <path class="cls-7" d="M174.18,270.64c-.04-.1-.07-.2-.11-.3-.01-.04-.02-.07-.03-.08,0,.01,0,.02,0-.03-.05-.2-.11-.41-.16-.61-.18-.7-.58-1.28-1.28-1.54-.67-.25-1.45-.11-2,.35-1.11.95-.85,2.95.6,3.42.48.15.95.31,1.41.5.46.19,1.03.02,1.35-.34.36-.4.39-.88.21-1.37Z"/>
          <path class="cls-7" d="M177.66,267.82c-2.27.4-1.65,3.93.62,3.53s1.65-3.93-.62-3.53Z"/>
          <path class="cls-7" d="M169.95,258.79c-2.59.46-1.89,4.49.71,4.03,2.59-.46,1.89-4.49-.71-4.03Z"/>
          <path class="cls-7" d="M161.68,269.31c-2.16.38-1.57,3.73.59,3.35,2.16-.38,1.57-3.73-.59-3.35Z"/>
          <path class="cls-7" d="M187.92,275.23c-1.93.34-1.4,3.34.53,3,1.93-.34,1.4-3.34-.53-3Z"/>
          <path class="cls-7" d="M193.12,275.35c-1.52.27-1.1,2.62.42,2.35,1.52-.27,1.1-2.62-.42-2.35Z"/>
          <path class="cls-7" d="M198.55,267.45c-2.25.4-1.64,3.89.62,3.5,2.25-.4,1.64-3.89-.62-3.5Z"/>
          <path class="cls-7" d="M201.1,272.58c-2.04.36-1.49,3.54.56,3.18s1.49-3.54-.56-3.18Z"/>
          <path class="cls-7" d="M198.39,281.21c-.09.02-.07.16.03.14s.07-.16-.03-.14Z"/>
          <path class="cls-7" d="M208.08,269.42c-2.39.42-1.74,4.13.65,3.71,2.39-.42,1.74-4.13-.65-3.71Z"/>
          <path class="cls-7" d="M201.32,263.12c-1.74.31-1.27,3.02.48,2.71s1.27-3.02-.48-2.71Z"/>
          <path class="cls-7" d="M197.26,257.45c-2.96.52-2.15,5.13.81,4.6s2.15-5.13-.81-4.6Z"/>
          <path class="cls-7" d="M203.04,252.83c-.99.17-.72,1.71.27,1.53.99-.17.72-1.71-.27-1.53Z"/>
          <path class="cls-7" d="M202.83,250.31c-1.24.22-.9,2.15.34,1.93s.9-2.15-.34-1.93Z"/>
          <path class="cls-7" d="M193.48,236.03c-2.32.41-1.69,4.01.64,3.6,2.32-.41,1.69-4.01-.64-3.6Z"/>
          <path class="cls-7" d="M184.13,239.06c-2.36.42-1.72,4.09.65,3.67s1.72-4.09-.65-3.67Z"/>
          <path class="cls-7" d="M191.67,231.1c-1.81.32-1.32,3.14.5,2.82s1.32-3.14-.5-2.82Z"/>
          <path class="cls-7" d="M192.45,220.83c-1.54.27-1.12,2.66.42,2.39,1.54-.27,1.12-2.66-.42-2.39Z"/>
          <path class="cls-7" d="M197.28,241.53c-1.16.2-2.09,1.42-1.82,2.6.27,1.19,1.36,2.04,2.6,1.82,1.16-.2,2.09-1.42,1.82-2.6-.27-1.19-1.36-2.04-2.6-1.82Z"/>
          <path class="cls-7" d="M185.19,207.71c-3.05.54-2.22,5.28.84,4.75,3.05-.54,2.22-5.28-.84-4.75Z"/>
          <path class="cls-7" d="M185.91,201.12c-1.72.3-1.25,2.98.47,2.68s1.25-2.98-.47-2.68Z"/>
          <path class="cls-7" d="M190.98,201.81c-2.39.42-1.74,4.13.65,3.71,2.39-.42,1.74-4.13-.65-3.71Z"/>
          <path class="cls-7" d="M198.71,186.88c-2.57.45-1.87,4.45.7,4,2.57-.45,1.87-4.45-.7-4Z"/>
          <path class="cls-7" d="M208.3,177.22c-2.23.39-1.62,3.85.61,3.46s1.62-3.85-.61-3.46Z"/>
          <path class="cls-7" d="M209.52,172.13c-1.56.28-1.14,2.7.43,2.43,1.56-.28,1.14-2.7-.43-2.43Z"/>
          <path class="cls-7" d="M215.97,168.63c-1.86.33-1.35,3.22.51,2.89s1.35-3.22-.51-2.89Z"/>
          <path class="cls-7" d="M219.67,156.22c-2.43.43-1.77,4.21.67,3.78,2.43-.43,1.77-4.21-.67-3.78Z"/>
          <path class="cls-7" d="M201.22,174.45c-1.95.34-1.42,3.38.53,3.03,1.95-.34,1.42-3.38-.53-3.03Z"/>
          <path class="cls-7" d="M193.48,190.63c-1.97.35-1.44,3.42.54,3.07,1.97-.35,1.44-3.42-.54-3.07Z"/>
          <path class="cls-7" d="M65.48,244.26c-.3.47-.33.96-.12,1.47.4.92,1.95.5,1.79-.47.58-.95-1.02-2.04-1.68-1.01Z"/>
          <path class="cls-7" d="M66.19,255.16c-.73.13-1.25.86-1.12,1.59s.86,1.25,1.59,1.12,1.25-.86,1.12-1.59-.86-1.25-1.59-1.12Z"/>
          <path class="cls-7" d="M52.95,214.81c-1.26.22-.92,2.19.35,1.96,1.26-.22.92-2.19-.35-1.96Z"/>
          <path class="cls-7" d="M41.89,211.26s-.04-.03-.07-.05c-.34-.25-.86-.16-1.1.19-.02.02-.03.05-.05.07-.42.62.11,1.49.86,1.36s.95-1.13.35-1.57Z"/>
          <path class="cls-7" d="M38.15,204.27c-1.52.27-1.1,2.62.42,2.35s1.1-2.62-.42-2.35Z"/>
          <path class="cls-7" d="M25.71,193.84c-1.1.19-.8,1.91.3,1.71,1.1-.19.8-1.91-.3-1.71Z"/>
          <path class="cls-7" d="M23.95,197.26c-.45-.17-1.06.07-1.21.56-.06.2-.1.37-.1.57,0,.83,1.08,1.4,1.62.6.11-.17.19-.32.25-.52.15-.49-.06-1.03-.56-1.21Z"/>
          <path class="cls-7" d="M30.25,203.53c-.06.01-.04.1.02.09s.04-.1-.02-.09Z"/>
          <path class="cls-7" d="M17.87,192.07s-.08,0-.12.01c-1.54.19-1.09,2.72.42,2.37.04,0,.08-.02.11-.03,1.5-.35,1.12-2.54-.42-2.35Z"/>
          <path class="cls-7" d="M95.61,228l-.09-.07c-.53-.42-1.47-.26-1.82.32l-.06.09c-.3.49-.34,1.08-.02,1.57.29.45.88.75,1.42.63,1.22-.27,1.54-1.78.56-2.55Z"/>
          <path class="cls-7" d="M86.2,241.77c-1.72.3-1.25,2.98.47,2.68s1.25-2.98-.47-2.68Z"/>
          <path class="cls-7" d="M137.29,224.42c-1.26.22-.92,2.19.35,1.96,1.26-.22.92-2.19-.35-1.96Z"/>
          <path class="cls-7" d="M158.2,225.55c-1.12.2-.82,1.95.31,1.75s.82-1.95-.31-1.75Z"/>
          <path class="cls-7" d="M119.03,183.61c-.87.15-.64,1.51.24,1.36s.64-1.51-.24-1.36Z"/>
          <path class="cls-7" d="M141.07,162.59s-.07.03-.1.05c-.86.38-.62,1.76.32,1.82.04,0,.07,0,.11,0,.64.04,1.18-.51,1.07-1.15s-.81-.98-1.4-.72Z"/>
          <path class="cls-7" d="M150.98,193.92c-1.06.19-.77,1.83.29,1.64,1.06-.19.77-1.83-.29-1.64Z"/>
          <path class="cls-7" d="M147.29,239.75c-1.04.18-1.87,1.27-1.63,2.33.24,1.06,1.22,1.83,2.33,1.63,1.04-.18,1.87-1.27,1.63-2.33-.24-1.06-1.22-1.83-2.33-1.63Z"/>
          <path class="cls-7" d="M96.08,255.47s-.05.01-.07.02c-.96,0-1.8.72-1.75,1.78.02.55.27,1.04.72,1.36.55.38,1.14.36,1.74.15.78-.27,1.35-1.23,1.15-2.04-.22-.87-.91-1.34-1.79-1.26Z"/>
          <path class="cls-7" d="M181.66,170.34c-1.7.3-1.24,2.94.47,2.64,1.7-.3,1.24-2.94-.47-2.64Z"/>
          <path class="cls-7" d="M70.98,175.51c-1.97.35-1.44,3.42.54,3.07s1.44-3.42-.54-3.07Z"/>
        </g>
        <g>
          <path class="cls-5" d="M622.69,216.61c16.72-11.39,13.12-37.02-6.09-43.36l-38.87-12.83c-7.63-2.52-13.53-8.63-15.78-16.34l-11.47-39.3c-5.67-19.42-31.15-23.92-43.12-7.6l-24.22,33.01c-4.75,6.48-12.39,10.2-20.42,9.96l-40.92-1.24c-20.23-.61-32.37,22.23-20.56,38.66l23.91,33.23c4.69,6.52,5.88,14.94,3.16,22.5l-13.82,38.53c-6.83,19.05,11.14,37.66,30.42,31.5l38.99-12.47c7.65-2.45,16.02-.97,22.38,3.95l32.38,25.05c16,12.38,39.26,1.04,39.35-19.19l.19-40.94c.04-8.04,4.03-15.54,10.67-20.06l33.83-23.05Z"/>
          <path class="cls-5" d="M623.99,209.18c16.72-11.39,13.12-37.02-6.09-43.36l-38.87-12.83c-7.63-2.52-13.53-8.63-15.78-16.34l-11.47-39.3c-5.67-19.42-31.15-23.92-43.12-7.6l-24.22,33.01c-4.75,6.48-12.39,10.2-20.42,9.96l-40.92-1.24c-20.23-.61-32.37,22.23-20.56,38.66l23.91,33.23c4.69,6.52,5.88,14.94,3.16,22.5l-13.82,38.53c-6.83,19.05,11.14,37.66,30.42,31.5l38.99-12.47c7.65-2.45,16.02-.97,22.38,3.95l32.38,25.05c16,12.38,39.26,1.04,39.35-19.19l.19-40.94c.04-8.04,4.03-15.54,10.67-20.06l33.83-23.05Z"/>
          <g>
            <path class="cls-7" d="M552.59,92.75l11.47,39.3c2.25,7.71,8.15,13.83,15.78,16.34l38.87,12.83c19.22,6.34,22.82,31.97,6.09,43.36l-33.83,23.05c-6.64,4.52-10.63,12.03-10.67,20.06l-.19,40.94c-.09,20.23-23.35,31.58-39.35,19.19l-32.38-25.05c-6.35-4.92-14.72-6.39-22.38-3.95l-38.99,12.47c-19.27,6.16-37.25-12.45-30.42-31.5l13.82-38.53c2.71-7.56,1.53-15.98-3.16-22.5l-23.91-33.23c-11.82-16.43.33-39.27,20.56-38.66l40.92,1.24c8.03.24,15.67-3.48,20.42-9.96l24.22-33.01c11.97-16.31,37.45-11.82,43.12,7.6Z"/>
            <path class="cls-6" d="M628.06,185.8c.61-7.86-3.84-15.98-12.52-18.85l-44.14-14.57c-5.73-1.89-10.15-6.47-11.85-12.25l-13.02-44.63c-4.25-14.57-23.36-17.94-32.34-5.7l-27.5,37.48c-3.57,4.85-9.29,7.65-15.32,7.46l-46.46-1.4c-9.14-.27-16.09,5.84-18.21,13.44.67-9.17,8.29-17.35,18.85-17.04l46.46,1.4c6.03.18,11.75-2.61,15.32-7.46l27.5-37.48c8.98-12.24,28.09-8.87,32.34,5.7l13.02,44.63c1.7,5.78,6.12,10.36,11.85,12.25l44.14,14.57c10.03,3.32,14.38,13.62,11.88,22.46Z"/>
            <path class="cls-2" d="M546.52,95.64l13.02,44.62c1.69,5.79,6.11,10.37,11.84,12.26l44.14,14.57c14.41,4.76,17.11,23.97,4.57,32.52l-38.41,26.17c-4.98,3.39-7.97,9.02-8,15.05l-.22,46.48c-.07,15.18-17.51,23.68-29.52,14.4l-36.76-28.44c-4.77-3.69-11.04-4.79-16.78-2.96l-44.27,14.16c-14.46,4.62-27.94-9.34-22.81-23.62l15.69-43.75c2.03-5.67,1.15-11.98-2.37-16.88l-27.14-37.73c-8.86-12.32.25-29.45,15.42-29l46.46,1.4c6.02.18,11.75-2.61,15.32-7.47l27.5-37.47c8.98-12.24,28.09-8.87,32.34,5.7Z"/>
          </g>
          <path class="cls-4" d="M430.27,270.45s-.01-.07-.03-.11c-.02-.07-.05-.13-.08-.2-.46-1.04-1.42-1.41-2.49-1.14-.76.19-1.18.84-1.5,1.48-.84,1.7.78,3.62,2.59,3.21,1.5-.34,2.12-1.99,1.51-3.25Z"/>
          <path class="cls-4" d="M438.11,264.06c-.31-.85-1.13-1.41-2.02-1.44-.8-.03-1.53.34-1.96,1.02-.45.7-.54,1.81.03,2.5.25.3.5.6.75.9.54.65,1.43.73,2.02.09.26-.28.52-.55.78-.83.53-.56.66-1.52.39-2.23Z"/>
          <path class="cls-4" d="M438.14,278.22c0-.14-.01-.28,0-.42,0-.03.02-.16.03-.2.04-.28.1-.55.18-.82.35-1.18-.9-2.26-1.99-2.16-1.1.1-2.09,1.39-1.56,2.48.39.8.84,1.46,1.47,2.09.76.74,1.93-.05,1.88-.98Z"/>
          <path class="cls-7" d="M432.69,274.59c-.28-.22-.64-.35-1-.35-.34-.08-.69-.11-1.01-.03-.93.21-1.58,1-1.62,1.95-.03.82.42,1.62,1.18,1.98.79.38,1.97.21,2.5-.54.27-.38.53-.73.61-1.21.12-.66-.13-1.38-.67-1.8Z"/>
          <path class="cls-7" d="M441.31,263.97c-.21-.04-.26.28-.06.32s.26-.28.06-.32Z"/>
          <path class="cls-7" d="M442.95,272.98c-.16-.16-.31-.32-.47-.48-.59-.61-1.5.43-.87,1.02.16.15.32.3.49.46.62.58,1.42-.4.85-1Z"/>
          <path class="cls-7" d="M442.1,278.18c-.73-.13-1.47.38-1.59,1.12-.13.74.38,1.47,1.12,1.59.73.13,1.47-.38,1.59-1.12s-.38-1.47-1.12-1.59Z"/>
          <path class="cls-7" d="M446.32,276.92c-2.48-.44-3.16,3.42-.68,3.85,2.48.44,3.16-3.42.68-3.85Z"/>
          <path class="cls-7" d="M453.67,264.62c-2.11-.37-2.69,2.91-.58,3.28,2.11.37,2.69-2.91.58-3.28Z"/>
          <path class="cls-7" d="M457.77,272.09c-1.63-.29-2.08,2.25-.45,2.53s2.08-2.25.45-2.53Z"/>
          <path class="cls-7" d="M468.43,266.39c-2.57-.45-3.28,3.54-.7,4,2.57.45,3.28-3.54.7-4Z"/>
          <path class="cls-7" d="M428.66,260.92c-1.81-.32-2.31,2.5-.5,2.82,1.81.32,2.31-2.5.5-2.82Z"/>
          <path class="cls-7" d="M431.53,254.53c0-.17-.15-.38-.31-.44-.33-.13-.69-.18-1.06-.26-1.26-.27-2.28,1.32-1.49,2.34.78,1.02,2.47.72,2.71-.6.06-.35.14-.69.15-1.04Z"/>
          <path class="cls-7" d="M439.35,251.02c-2.13-.38-2.72,2.94-.59,3.32s2.72-2.94.59-3.32Z"/>
          <path class="cls-7" d="M443.37,264.31c-.93-.16-1.97.5-2.1,1.47-.13.97.47,1.92,1.47,2.1.93.16,1.97-.5,2.1-1.47.13-.97-.47-1.92-1.47-2.1Z"/>
          <path class="cls-7" d="M477.59,268.38c-.04-.51-.31-.99-.79-1.21-.1-.04-.19-.06-.28-.08-.67-.27-1.33-.04-1.94.29-.7.37-.95,1.38-.79,2.09.17.75.8,1.43,1.59,1.54.7.09,1.42-.13,1.88-.68.51-.6.54-1.29.33-1.95Z"/>
          <path class="cls-7" d="M485.57,262.6c-2.25-.4-2.87,3.1-.62,3.5s2.87-3.1.62-3.5Z"/>
          <path class="cls-7" d="M487.95,266.51c-1.12-.2-1.43,1.55-.31,1.75s1.43-1.55.31-1.75Z"/>
          <path class="cls-7" d="M512.51,262.61s-.05-.09-.07-.14c.49-.72.32-1.93-.8-2.13-1.7-.3-2.17,2.34-.47,2.64.25.04.47.02.66-.05.03.03.05.06.08.09.28.26.75-.07.6-.42Z"/>
          <path class="cls-7" d="M510.85,270.14c-1.06-.19-1.35,1.45-.29,1.64s1.35-1.45.29-1.64Z"/>
          <path class="cls-7" d="M518.63,274.09c-.48-.09-.62.66-.13.75s.62-.66.13-.75Z"/>
          <path class="cls-7" d="M494.1,250.3c-2.73-.48-3.49,3.76-.75,4.25,2.73.48,3.49-3.76.75-4.25Z"/>
          <path class="cls-7" d="M502.28,245.3c-1.38-.24-1.76,1.9-.38,2.14,1.38.24,1.76-1.9.38-2.14Z"/>
          <path class="cls-7" d="M505.75,261.65c-1.12-.2-1.43,1.55-.31,1.75,1.12.2,1.43-1.55.31-1.75Z"/>
          <path class="cls-7" d="M501.57,264.01c-2.25-.4-2.87,3.1-.62,3.5s2.87-3.1.62-3.5Z"/>
          <path class="cls-7" d="M534.41,283.53c0-.11,0-.21,0-.32,0-.04,0-.07,0-.09,0,.01,0,.02,0-.03.02-.21.04-.42.06-.63.07-.72-.1-1.4-.68-1.88-.55-.47-1.32-.6-2-.35-1.37.51-1.81,2.48-.6,3.42.4.31.79.61,1.16.95.37.33.96.37,1.38.15.47-.26.66-.69.67-1.22Z"/>
          <path class="cls-7" d="M538.65,282.07c-2.27-.4-2.9,3.13-.62,3.53,2.27.4,2.9-3.13.62-3.53Z"/>
          <path class="cls-7" d="M534.48,270.95c-2.59-.46-3.31,3.57-.71,4.03s3.31-3.57.71-4.03Z"/>
          <path class="cls-7" d="M523.12,278.01c-2.16-.38-2.75,2.97-.59,3.35s2.75-2.97.59-3.35Z"/>
          <path class="cls-7" d="M545.74,292.54c-1.93-.34-2.46,2.66-.53,3s2.46-2.66.53-3Z"/>
          <path class="cls-7" d="M550.59,294.43c-1.52-.27-1.93,2.09-.42,2.35,1.52.27,1.93-2.09.42-2.35Z"/>
          <path class="cls-7" d="M558.4,288.87c-2.25-.4-2.87,3.1-.62,3.5,2.25.4,2.87-3.1.62-3.5Z"/>
          <path class="cls-7" d="M559.04,294.56c-2.04-.36-2.61,2.81-.56,3.18s2.61-2.81.56-3.18Z"/>
          <path class="cls-7" d="M553.54,301.74c-.09-.02-.12.13-.03.14s.12-.13.03-.14Z"/>
          <path class="cls-7" d="M566.68,293.98c-2.39-.42-3.05,3.29-.65,3.71,2.39.42,3.05-3.29.65-3.71Z"/>
          <path class="cls-7" d="M562.48,285.75c-1.74-.31-2.23,2.4-.48,2.71s2.23-2.4.48-2.71Z"/>
          <path class="cls-7" d="M560.6,279.03c-2.96-.52-3.78,4.08-.81,4.6,2.96.52,3.78-4.08.81-4.6Z"/>
          <path class="cls-7" d="M567.61,276.67c-.99-.17-1.26,1.36-.27,1.53s1.26-1.36.27-1.53Z"/>
          <path class="cls-7" d="M568.28,274.23c-1.24-.22-1.58,1.71-.34,1.93,1.24.22,1.58-1.71.34-1.93Z"/>
          <path class="cls-7" d="M564.38,257.61c-2.32-.41-2.96,3.19-.64,3.6,2.32.41,2.96-3.19.64-3.6Z"/>
          <path class="cls-7" d="M554.56,257.25c-2.36-.42-3.02,3.26-.65,3.67,2.36.42,3.02-3.26.65-3.67Z"/>
          <path class="cls-7" d="M564.37,252.36c-1.81-.32-2.31,2.5-.5,2.82,1.81.32,2.31-2.5.5-2.82Z"/>
          <path class="cls-7" d="M568.61,242.97c-1.54-.27-1.96,2.12-.42,2.39,1.54.27,1.96-2.12.42-2.39Z"/>
          <path class="cls-7" d="M566.07,264.08c-1.16-.2-2.44.62-2.6,1.82-.16,1.21.58,2.38,1.82,2.6,1.16.2,2.44-.62,2.6-1.82.16-1.21-.58-2.38-1.82-2.6Z"/>
          <path class="cls-7" d="M566.28,228.16c-3.05-.54-3.89,4.21-.84,4.75s3.89-4.21.84-4.75Z"/>
          <path class="cls-7" d="M569.21,222.21c-1.72-.3-2.2,2.37-.47,2.68s2.2-2.37.47-2.68Z"/>
          <path class="cls-7" d="M573.73,224.6c-2.39-.42-3.05,3.29-.65,3.71,2.39.42,3.05-3.29.65-3.71Z"/>
          <path class="cls-7" d="M586.1,213.21c-2.57-.45-3.28,3.54-.7,4,2.57.45,3.28-3.54.7-4Z"/>
          <path class="cls-7" d="M598.42,207.42c-2.23-.39-2.84,3.07-.61,3.46s2.84-3.07.61-3.46Z"/>
          <path class="cls-7" d="M601.31,203.05c-1.56-.28-1.99,2.15-.43,2.43,1.56.28,1.99-2.15.43-2.43Z"/>
          <path class="cls-7" d="M608.57,201.97c-1.86-.33-2.37,2.56-.51,2.89,1.86.33,2.37-2.56.51-2.89Z"/>
          <path class="cls-7" d="M616.29,191.57c-2.43-.43-3.1,3.35-.67,3.78,2.43.43,3.1-3.35.67-3.78Z"/>
          <path class="cls-7" d="M592.72,202.4c-1.95-.34-2.49,2.69-.53,3.03,1.95.34,2.49-2.69.53-3.03Z"/>
          <path class="cls-7" d="M579.91,214.95c-1.97-.35-2.52,2.72-.54,3.07,1.97.35,2.52-2.72.54-3.07Z"/>
          <path class="cls-7" d="M441.28,221.56c-.44.34-.64.79-.61,1.34.06,1,1.67,1.13,1.84.18.87-.69-.27-2.27-1.23-1.52Z"/>
          <path class="cls-7" d="M438.23,232.06c-.73-.13-1.47.38-1.59,1.12-.13.74.38,1.47,1.12,1.59s1.47-.38,1.59-1.12c.13-.73-.38-1.47-1.12-1.59Z"/>
          <path class="cls-7" d="M439.59,189.6c-1.26-.22-1.61,1.74-.35,1.96s1.61-1.74.35-1.96Z"/>
          <path class="cls-7" d="M430.4,182.48s-.03-.04-.05-.07c-.24-.35-.76-.44-1.1-.19-.02.02-.04.03-.07.05-.61.44-.4,1.44.35,1.57s1.28-.73.86-1.36Z"/>
          <path class="cls-7" d="M429.28,174.63c-1.52-.27-1.93,2.09-.42,2.35,1.52.27,1.93-2.09.42-2.35Z"/>
          <path class="cls-7" d="M421.16,160.58c-1.1-.19-1.41,1.52-.3,1.71,1.1.19,1.41-1.52.3-1.71Z"/>
          <path class="cls-7" d="M418.34,163.19c-.37-.31-1.02-.3-1.33.11-.12.16-.22.31-.29.5-.28.78.54,1.68,1.32,1.11.16-.12.29-.24.41-.4.3-.41.3-.98-.11-1.33Z"/>
          <path class="cls-7" d="M422.11,171.24c-.06-.01-.07.08-.02.09s.07-.08.02-.09Z"/>
          <path class="cls-7" d="M414.4,156.24s-.08-.02-.11-.03c-1.51-.35-1.96,2.18-.42,2.37.04,0,.08,0,.12.01,1.53.18,1.92-2.01.42-2.35Z"/>
          <path class="cls-7" d="M475.16,216.59l-.06-.09c-.36-.58-1.29-.74-1.82-.32l-.09.07c-.45.36-.69.9-.56,1.47.12.52.56,1.01,1.12,1.08,1.24.16,2.06-1.14,1.4-2.2Z"/>
          <path class="cls-7" d="M461.6,226.31c-1.72-.3-2.2,2.37-.47,2.68s2.2-2.37.47-2.68Z"/>
          <path class="cls-7" d="M515.55,227.48c-1.26-.22-1.61,1.74-.35,1.96s1.61-1.74.35-1.96Z"/>
          <path class="cls-7" d="M534.81,235.7c-1.12-.2-1.43,1.55-.31,1.75s1.43-1.55.31-1.75Z"/>
          <path class="cls-7" d="M512.34,182.89c-.87-.15-1.12,1.2-.24,1.36.87.15,1.12-1.2.24-1.36Z"/>
          <path class="cls-7" d="M540.25,170.67s-.07,0-.11,0c-.94.06-1.18,1.44-.32,1.82.03.02.07.03.1.05.59.26,1.28-.08,1.4-.72s-.43-1.2-1.07-1.15Z"/>
          <path class="cls-7" d="M538.84,203.5c-1.06-.19-1.35,1.45-.29,1.64,1.06.19,1.35-1.45.29-1.64Z"/>
          <path class="cls-7" d="M519.7,245.31c-1.04-.18-2.19.55-2.33,1.63-.14,1.08.52,2.13,1.63,2.33,1.04.18,2.19-.55,2.33-1.63.14-1.08-.52-2.13-1.63-2.33Z"/>
          <path class="cls-7" d="M466.21,242.57s-.05,0-.07,0c-.9-.33-1.93.07-2.25,1.07-.17.52-.1,1.07.22,1.52.38.55.95.73,1.59.73.83.01,1.69-.69,1.78-1.52.09-.89-.4-1.56-1.26-1.79Z"/>
          <path class="cls-7" d="M575.74,191.84c-1.7-.3-2.17,2.34-.47,2.64,1.7.3,2.17-2.34.47-2.64Z"/>
          <path class="cls-7" d="M469.97,158.84c-1.97-.35-2.52,2.72-.54,3.07,1.97.35,2.52-2.72.54-3.07Z"/>
        </g>
      </g>
      <g>
        <path class="cls-5" d="M462.73,159.15c18.69-18.21,8.37-49.95-17.45-53.7l-52.24-7.59c-10.25-1.49-19.12-7.93-23.71-17.22l-23.36-47.34c-11.55-23.4-44.92-23.4-56.46,0l-23.36,47.34c-4.59,9.29-13.45,15.73-23.71,17.22l-52.24,7.59c-25.82,3.75-36.13,35.49-17.45,53.7l37.8,36.85c7.42,7.23,10.81,17.65,9.05,27.87l-8.92,52.03c-4.41,25.72,22.58,45.33,45.68,33.19l46.73-24.57c9.17-4.82,20.13-4.82,29.3,0l46.73,24.57c23.1,12.14,50.09-7.47,45.68-33.19l-8.92-52.03c-1.75-10.21,1.63-20.63,9.05-27.87l37.8-36.85Z"/>
        <path class="cls-5" d="M462.73,149.43c18.69-18.21,8.37-49.95-17.45-53.7l-52.24-7.59c-10.25-1.49-19.12-7.93-23.71-17.22l-23.36-47.34c-11.55-23.4-44.92-23.4-56.46,0l-23.36,47.34c-4.59,9.29-13.45,15.73-23.71,17.22l-52.24,7.59c-25.82,3.75-36.13,35.49-17.45,53.7l37.8,36.85c7.42,7.23,10.81,17.65,9.05,27.87l-8.92,52.03c-4.41,25.72,22.58,45.33,45.68,33.19l46.73-24.57c9.17-4.82,20.13-4.82,29.3,0l46.73,24.57c23.1,12.14,50.09-7.47,45.68-33.19l-8.92-52.03c-1.75-10.21,1.63-20.63,9.05-27.87l37.8-36.85Z"/>
        <g>
          <path class="cls-7" d="M345.97,17.55l23.36,47.34c4.59,9.29,13.45,15.73,23.71,17.22l52.24,7.59c25.82,3.75,36.13,35.49,17.45,53.7l-37.8,36.85c-7.42,7.23-10.81,17.65-9.05,27.87l8.92,52.03c4.41,25.72-22.58,45.33-45.68,33.19l-46.73-24.57c-9.17-4.82-20.13-4.82-29.3,0l-46.73,24.57c-23.1,12.14-50.09-7.47-45.68-33.19l8.92-52.03c1.75-10.21-1.63-20.63-9.05-27.87l-37.8-36.85c-18.69-18.21-8.37-49.95,17.45-53.7l52.24-7.59c10.25-1.49,19.12-7.93,23.71-17.22l23.36-47.34c11.55-23.4,44.92-23.4,56.47,0Z"/>
          <path class="cls-6" d="M462.66,118.82c-.99-10.12-8.45-19.44-20.12-21.14l-59.32-8.63c-7.7-1.12-14.34-5.95-17.79-12.91l-26.53-53.76c-8.66-17.55-33.69-17.55-42.35,0l-26.53,53.76c-3.45,6.96-10.09,11.79-17.79,12.91l-59.32,8.63c-11.66,1.7-19.13,11.02-20.12,21.14-1.2-11.79,6.64-23.9,20.12-25.86l59.32-8.63c7.7-1.12,14.34-5.95,17.79-12.91l26.53-53.76c8.66-17.55,33.69-17.55,42.35,0l26.53,53.76c3.45,6.96,10.09,11.79,17.79,12.91l59.32,8.63c13.48,1.97,21.31,14.07,20.12,25.86Z"/>
          <path class="cls-1" d="M338.91,22.58l26.53,53.75c3.44,6.97,10.09,11.8,17.78,12.92l59.32,8.62c19.37,2.81,27.1,26.62,13.09,40.28l-42.92,41.84c-5.57,5.42-8.1,13.24-6.79,20.9l10.13,59.08c3.31,19.29-16.94,34-34.26,24.89l-53.05-27.89c-6.88-3.62-15.1-3.62-21.98,0l-53.05,27.89c-17.32,9.11-37.57-5.6-34.26-24.89l10.13-59.08c1.31-7.66-1.23-15.48-6.79-20.9l-42.92-41.84c-14.01-13.66-6.28-37.46,13.09-40.28l59.32-8.62c7.69-1.12,14.34-5.95,17.78-12.92l26.53-53.75c8.66-17.55,33.69-17.55,42.35,0Z"/>
        </g>
        <path class="cls-4" d="M230.43,270.61s-.03-.09-.06-.13c-.05-.08-.1-.16-.15-.23-.81-1.21-2.11-1.47-3.42-.9-.92.41-1.32,1.33-1.57,2.22-.68,2.35,1.81,4.43,4,3.5,1.83-.77,2.24-3,1.19-4.46Z"/>
        <path class="cls-4" d="M238.95,260.75c-.59-1.01-1.75-1.54-2.89-1.38-1.02.14-1.86.78-2.26,1.73-.42.99-.28,2.42.6,3.16.38.33.77.65,1.15.98.83.71,1.98.61,2.59-.33.27-.41.54-.82.8-1.23.54-.84.49-2.08,0-2.92Z"/>
        <path class="cls-4" d="M242.17,278.73c-.04-.17-.08-.35-.1-.53,0-.04,0-.2-.01-.25-.01-.36,0-.72.05-1.08.18-1.57-1.65-2.67-3.02-2.3-1.38.38-2.34,2.23-1.42,3.5.67.93,1.39,1.67,2.34,2.32,1.12.77,2.43-.5,2.17-1.67Z"/>
        <path class="cls-7" d="M234.42,275.33c-.4-.22-.89-.3-1.35-.22-.45-.03-.9.02-1.29.18-1.13.48-1.78,1.62-1.62,2.84.14,1.06.89,1.96,1.94,2.25,1.09.3,2.55-.18,3.06-1.25.26-.54.51-1.05.51-1.67,0-.87-.48-1.72-1.25-2.13Z"/>
        <path class="cls-7" d="M242.99,259.92c-.27,0-.27.42,0,.42s.27-.42,0-.42Z"/>
        <path class="cls-7" d="M247.09,270.99c-.23-.17-.47-.34-.7-.51-.89-.65-1.81.88-.87,1.49.24.16.48.31.72.47.92.6,1.72-.83.85-1.46Z"/>
        <path class="cls-7" d="M247.18,277.78c-.96,0-1.78.82-1.78,1.78s.81,1.78,1.78,1.78,1.78-.82,1.78-1.78-.81-1.78-1.78-1.78Z"/>
        <path class="cls-7" d="M252.26,275.24c-3.25,0-3.25,5.05,0,5.05s3.25-5.05,0-5.05Z"/>
        <path class="cls-7" d="M258.84,257.98c-2.77,0-2.77,4.3,0,4.3s2.77-4.3,0-4.3Z"/>
        <path class="cls-7" d="M265.71,266.54c-2.13,0-2.14,3.32,0,3.32s2.14-3.32,0-3.32Z"/>
        <path class="cls-7" d="M277.97,256.91c-3.37,0-3.37,5.23,0,5.23s3.37-5.23,0-5.23Z"/>
        <path class="cls-7" d="M226.25,258.88c-2.37,0-2.38,3.69,0,3.69s2.38-3.69,0-3.69Z"/>
        <path class="cls-7" d="M228.46,250.11c-.03-.22-.28-.45-.49-.49-.45-.09-.92-.08-1.41-.1-1.66-.07-2.6,2.19-1.37,3.31,1.22,1.12,3.3.36,3.31-1.37,0-.45.02-.91-.04-1.35Z"/>
        <path class="cls-7" d="M237.61,243.9c-2.8,0-2.8,4.34,0,4.34s2.8-4.34,0-4.34Z"/>
        <path class="cls-7" d="M245.68,259.88c-1.22,0-2.39,1.07-2.34,2.34.06,1.27,1.03,2.34,2.34,2.34,1.22,0,2.39-1.07,2.34-2.34-.06-1.27-1.03-2.34-2.34-2.34Z"/>
        <path class="cls-7" d="M290.06,257.39c-.16-.63-.61-1.19-1.27-1.35-.13-.03-.25-.03-.37-.04-.91-.19-1.69.25-2.4.8-.81.63-.9,1.97-.54,2.83.38.91,1.34,1.64,2.37,1.59.9-.04,1.77-.49,2.24-1.28.51-.87.4-1.75-.02-2.55Z"/>
        <path class="cls-7" d="M298.9,248.27c-2.95,0-2.95,4.58,0,4.58s2.95-4.58,0-4.58Z"/>
        <path class="cls-7" d="M302.79,252.7c-1.47,0-1.48,2.29,0,2.29s1.48-2.29,0-2.29Z"/>
        <path class="cls-7" d="M333.11,242.24c-.04-.06-.09-.1-.12-.16.47-1.02-.03-2.52-1.49-2.52-2.22,0-2.23,3.46,0,3.46.32,0,.6-.08.83-.21.04.03.08.07.12.1.41.26.93-.26.67-.67Z"/>
        <path class="cls-7" d="M332.69,252.17c-1.38,0-1.39,2.15,0,2.15s1.39-2.15,0-2.15Z"/>
        <path class="cls-7" d="M343.45,255.45c-.63,0-.63.98,0,.98s.63-.98,0-.98Z"/>
        <path class="cls-7" d="M306.98,230.74c-3.58,0-3.58,5.56,0,5.56s3.58-5.56,0-5.56Z"/>
        <path class="cls-7" d="M316.24,222.55c-1.8,0-1.81,2.8,0,2.8s1.81-2.8,0-2.8Z"/>
        <path class="cls-7" d="M324.32,242.54c-1.47,0-1.48,2.29,0,2.29s1.48-2.29,0-2.29Z"/>
        <path class="cls-7" d="M319.53,246.47c-2.95,0-2.95,4.58,0,4.58s2.95-4.58,0-4.58Z"/>
        <path class="cls-7" d="M365.61,263.9c-.02-.14-.05-.27-.07-.41,0-.06-.01-.09-.02-.11,0,.02,0,.03,0-.04-.02-.27-.04-.54-.07-.81-.08-.93-.45-1.75-1.28-2.24-.8-.47-1.82-.47-2.62,0-1.63.95-1.74,3.56,0,4.48.57.3,1.13.6,1.68.95.54.34,1.31.26,1.79-.13.54-.43.69-1.03.58-1.69Z"/>
        <path class="cls-7" d="M370.66,261.1c-2.98,0-2.98,4.63,0,4.63s2.98-4.63,0-4.63Z"/>
        <path class="cls-7" d="M362.89,247.92c-3.4,0-3.4,5.28,0,5.28s3.4-5.28,0-5.28Z"/>
        <path class="cls-7" d="M350.03,259.42c-2.83,0-2.83,4.39,0,4.39s2.83-4.39,0-4.39Z"/>
        <path class="cls-7" d="M382.02,272.81c-2.53,0-2.53,3.92,0,3.92s2.53-3.92,0-3.92Z"/>
        <path class="cls-7" d="M388.6,274.13c-1.98,0-1.99,3.08,0,3.08s1.99-3.08,0-3.08Z"/>
        <path class="cls-7" d="M397.27,265.31c-2.95,0-2.95,4.58,0,4.58s2.95-4.58,0-4.58Z"/>
        <path class="cls-7" d="M399.36,272.4c-2.68,0-2.68,4.16,0,4.16s2.68-4.16,0-4.16Z"/>
        <path class="cls-7" d="M393.98,282.76c-.12,0-.12.19,0,.19s.12-.19,0-.19Z"/>
        <path class="cls-7" d="M408.93,269.95c-3.13,0-3.13,4.86,0,4.86s3.13-4.86,0-4.86Z"/>
        <path class="cls-7" d="M401.76,260.44c-2.28,0-2.29,3.55,0,3.55s2.29-3.55,0-3.55Z"/>
        <path class="cls-7" d="M397.87,252.33c-3.88,0-3.88,6.03,0,6.03s3.88-6.03,0-6.03Z"/>
        <path class="cls-7" d="M406.24,247.76c-1.29,0-1.29,2.01,0,2.01s1.29-2.01,0-2.01Z"/>
        <path class="cls-7" d="M406.54,244.51c-1.62,0-1.63,2.52,0,2.52s1.63-2.52,0-2.52Z"/>
        <path class="cls-7" d="M397.87,224.28c-3.04,0-3.04,4.72,0,4.72s3.04-4.72,0-4.72Z"/>
        <path class="cls-7" d="M385.31,226.03c-3.1,0-3.1,4.81,0,4.81s3.1-4.81,0-4.81Z"/>
        <path class="cls-7" d="M396.67,217.62c-2.37,0-2.38,3.69,0,3.69s2.38-3.69,0-3.69Z"/>
        <path class="cls-7" d="M399.96,204.74c-2.01,0-2.02,3.13,0,3.13s2.02-3.13,0-3.13Z"/>
        <path class="cls-7" d="M401.46,232.11c-1.52,0-2.97,1.33-2.9,2.9.07,1.57,1.27,2.9,2.9,2.9,1.52,0,2.97-1.33,2.9-2.9-.07-1.57-1.27-2.9-2.9-2.9Z"/>
        <path class="cls-7" d="M393.68,186.46c-4,0-4,6.21,0,6.21s4-6.21,0-6.21Z"/>
        <path class="cls-7" d="M396.08,178.24c-2.25,0-2.26,3.5,0,3.5s2.26-3.5,0-3.5Z"/>
        <path class="cls-7" d="M402.35,180.26c-3.13,0-3.13,4.86,0,4.86s3.13-4.86,0-4.86Z"/>
        <path class="cls-7" d="M415.51,163.03c-3.37,0-3.37,5.23,0,5.23s3.37-5.23,0-5.23Z"/>
        <path class="cls-7" d="M429.86,152.91c-2.92,0-2.92,4.53,0,4.53s2.92-4.53,0-4.53Z"/>
        <path class="cls-7" d="M432.55,146.71c-2.04,0-2.05,3.18,0,3.18s2.05-3.18,0-3.18Z"/>
        <path class="cls-7" d="M441.52,143.72c-2.43,0-2.44,3.78,0,3.78s2.44-3.78,0-3.78Z"/>
        <path class="cls-7" d="M449,128.78c-3.19,0-3.19,4.95,0,4.95s3.19-4.95,0-4.95Z"/>
        <path class="cls-7" d="M421.49,147.81c-2.56,0-2.56,3.97,0,3.97s2.56-3.97,0-3.97Z"/>
        <path class="cls-7" d="M408.04,166.62c-2.59,0-2.59,4.02,0,4.02s2.59-4.02,0-4.02Z"/>
        <path class="cls-7" d="M233.46,206.06c-.48.53-.64,1.15-.48,1.84.3,1.26,2.37,1.07,2.38-.19.95-1.08-.84-2.82-1.91-1.65Z"/>
        <path class="cls-7" d="M231.93,220.07c-.96,0-1.78.82-1.78,1.78s.81,1.78,1.78,1.78,1.78-.82,1.78-1.78-.81-1.78-1.78-1.78Z"/>
        <path class="cls-7" d="M224.15,165.85c-1.65,0-1.66,2.57,0,2.57s1.66-2.57,0-2.57Z"/>
        <path class="cls-7" d="M210.89,158.87s-.05-.05-.07-.08c-.38-.39-1.06-.39-1.44,0-.02.03-.05.05-.07.08-.67.7-.19,1.91.79,1.91s1.46-1.22.79-1.91Z"/>
        <path class="cls-7" d="M207.71,149.15c-1.98,0-1.99,3.08,0,3.08s1.99-3.08,0-3.08Z"/>
        <path class="cls-7" d="M194.25,133.13c-1.44,0-1.45,2.24,0,2.24s1.45-2.24,0-2.24Z"/>
        <path class="cls-7" d="M191.25,137.07c-.54-.32-1.37-.15-1.66.44-.12.24-.21.44-.26.71-.18,1.06,1.06,2.01,1.92,1.12.18-.19.32-.36.44-.6.29-.59.16-1.32-.44-1.66Z"/>
        <path class="cls-7" d="M197.84,146.45c-.08,0-.08.12,0,.12s.08-.12,0-.12Z"/>
        <path class="cls-7" d="M184.69,129.12s-.1,0-.15,0c-1.99-.11-2,3.21,0,3.1.05,0,.1,0,.15,0,1.98-.11,1.99-2.98,0-3.08Z"/>
        <path class="cls-7" d="M275.37,192.16l-.09-.11c-.58-.65-1.81-.65-2.39,0l-.09.11c-.5.56-.67,1.29-.38,1.99.27.64.94,1.15,1.66,1.12,1.61-.07,2.36-1.91,1.29-3.11Z"/>
        <path class="cls-7" d="M260.33,207.54c-2.25,0-2.26,3.5,0,3.5s2.26-3.5,0-3.5Z"/>
        <path class="cls-7" d="M329.1,196.95c-1.65,0-1.66,2.57,0,2.57s1.66-2.57,0-2.57Z"/>
        <path class="cls-7" d="M355.41,203.07c-1.47,0-1.48,2.29,0,2.29s1.48-2.29,0-2.29Z"/>
        <path class="cls-7" d="M315.05,141.03c-1.15,0-1.15,1.78,0,1.78s1.15-1.78,0-1.78Z"/>
        <path class="cls-7" d="M347.75,119.27s-.09.02-.14.03c-1.18.29-1.18,2.1,0,2.39.05.01.09.02.14.03.8.2,1.61-.39,1.61-1.23s-.81-1.42-1.61-1.23Z"/>
        <path class="cls-7" d="M353.32,161.28c-1.38,0-1.39,2.15,0,2.15s1.39-2.15,0-2.15Z"/>
        <path class="cls-7" d="M338.37,218.66c-1.36,0-2.66,1.19-2.59,2.59.06,1.41,1.14,2.59,2.59,2.59,1.36,0,2.66-1.19,2.59-2.59-.06-1.41-1.14-2.59-2.59-2.59Z"/>
        <path class="cls-7" d="M269.82,227.16s-.06,0-.09,0c-1.22-.21-2.44.52-2.62,1.86-.09.7.11,1.38.62,1.88.61.61,1.37.71,2.18.58,1.06-.17,1.99-1.25,1.92-2.33-.08-1.15-.85-1.9-2-2Z"/>
        <path class="cls-7" d="M397.57,138.2c-2.22,0-2.23,3.46,0,3.46s2.23-3.46,0-3.46Z"/>
        <path class="cls-7" d="M255.85,119.98c-2.59,0-2.59,4.02,0,4.02s2.59-4.02,0-4.02Z"/>
      </g>
    </g>
  </g>
</svg>