<?xml version="1.0" encoding="UTF-8"?>
<svg id="Ebene_2" data-name="Ebene 2" xmlns="http://www.w3.org/2000/svg" xmlns:xlink="http://www.w3.org/1999/xlink" viewBox="0 0 267.36 136.73">
  <defs>
    <style>
      .cls-1 {
        fill: url(#linear-gradient-3);
      }

      .cls-2 {
        fill: url(#linear-gradient-2);
      }

      .cls-3 {
        fill: url(#linear-gradient);
      }

      .cls-4 {
        fill: #ff9d00;
      }

      .cls-5 {
        fill: #ffb600;
      }

      .cls-6 {
        fill: #b8b8b8;
      }

      .cls-7 {
        opacity: .4;
      }

      .cls-8 {
        fill: #e1e1e1;
      }

      .cls-9 {
        fill: #a9a9a9;
      }

      .cls-10 {
        fill: #ffe773;
      }
    </style>
    <linearGradient id="linear-gradient" x1="1568.89" y1="-705.48" x2="1568.89" y2="-796.24" gradientTransform="translate(-1363.3 1091.39) rotate(-10)" gradientUnits="userSpaceOnUse">
      <stop offset="0" stop-color="#b4b4b4"/>
      <stop offset="1" stop-color="#cdcdcd"/>
    </linearGradient>
    <linearGradient id="linear-gradient-2" x1="-1134.28" y1="1359.37" x2="-1134.28" y2="1268.61" gradientTransform="translate(1561.21 -1017.56) rotate(10)" xlink:href="#linear-gradient"/>
    <linearGradient id="linear-gradient-3" x1="133.68" y1="121" x2="133.68" y2="3.96" gradientUnits="userSpaceOnUse">
      <stop offset="0" stop-color="#ffb000"/>
      <stop offset="1" stop-color="#ffda00"/>
    </linearGradient>
  </defs>
  <g id="Ebene_1-2" data-name="Ebene 1">
    <g>
      <g>
        <g>
          <path class="cls-7" d="M98.55,74.7c4.97-6.91-.14-16.52-8.65-16.26l-17.22.52c-3.38.1-6.59-1.46-8.59-4.19l-10.19-13.89c-5.04-6.86-15.76-4.97-18.14,3.2l-4.82,16.53c-.95,3.25-3.43,5.82-6.64,6.88l-16.35,5.4c-8.08,2.67-9.6,13.45-2.56,18.24l14.23,9.7c2.79,1.9,4.47,5.06,4.49,8.44l.08,17.22c.04,8.51,9.82,13.29,16.56,8.08l13.62-10.54c2.67-2.07,6.19-2.69,9.41-1.66l16.4,5.25c8.11,2.59,15.67-5.24,12.8-13.25l-5.81-16.21c-1.14-3.18-.64-6.72,1.33-9.47l10.06-13.98Z"/>
          <path class="cls-7" d="M98,71.58c4.97-6.91-.14-16.52-8.65-16.26l-17.22.52c-3.38.1-6.59-1.46-8.59-4.19l-10.19-13.89c-5.04-6.86-15.76-4.97-18.14,3.2l-4.82,16.53c-.95,3.25-3.43,5.82-6.64,6.88l-16.35,5.4c-8.08,2.67-9.6,13.45-2.56,18.24l14.23,9.7c2.79,1.9,4.47,5.06,4.49,8.44l.08,17.22c.04,8.51,9.82,13.29,16.56,8.08l13.62-10.54c2.67-2.07,6.19-2.69,9.41-1.66l16.4,5.25c8.11,2.59,15.67-5.24,12.8-13.25l-5.81-16.21c-1.14-3.18-.64-6.72,1.33-9.47l10.06-13.98Z"/>
          <g>
            <path class="cls-9" d="M53.02,35.82l10.19,13.89c2,2.73,5.21,4.29,8.59,4.19l17.22-.52c8.51-.26,13.62,9.35,8.65,16.27l-10.06,13.98c-1.97,2.74-2.47,6.28-1.33,9.47l5.81,16.21c2.87,8.01-4.69,15.84-12.8,13.25l-16.4-5.25c-3.22-1.03-6.74-.41-9.41,1.66l-13.62,10.54c-6.73,5.21-16.52.44-16.56-8.08l-.08-17.22c-.02-3.38-1.69-6.54-4.49-8.44l-14.23-9.7c-7.04-4.79-5.52-15.57,2.56-18.24l16.35-5.4c3.21-1.06,5.69-3.63,6.64-6.88l4.82-16.53c2.38-8.17,13.11-10.06,18.14-3.2Z"/>
            <path class="cls-8" d="M96.24,61.75c-.89-3.2-3.82-5.77-7.66-5.65l-19.55.59c-2.54.08-4.94-1.1-6.45-3.14l-11.57-15.77c-3.78-5.15-11.82-3.73-13.6,2.4l-5.48,18.77c-.71,2.43-2.57,4.36-4.98,5.15l-18.57,6.13c-3.65,1.21-5.52,4.62-5.27,7.93-1.05-3.72.78-8.05,5-9.45l18.57-6.13c2.41-.8,4.27-2.72,4.98-5.15l5.48-18.77c1.79-6.13,9.83-7.55,13.6-2.4l11.57,15.77c1.5,2.04,3.91,3.22,6.45,3.14l19.55-.59c4.44-.13,7.65,3.31,7.93,7.17Z"/>
            <path class="cls-3" d="M51.03,37.84l11.57,15.77c1.5,2.04,3.91,3.22,6.44,3.14l19.55-.59c6.38-.19,10.21,7.02,6.49,12.2l-11.42,15.87c-1.48,2.06-1.85,4.71-1,7.1l6.6,18.41c2.16,6.01-3.52,11.88-9.6,9.94l-18.63-5.96c-2.41-.77-5.06-.31-7.06,1.24l-15.47,11.97c-5.05,3.91-12.39.33-12.42-6.06l-.09-19.55c-.01-2.54-1.27-4.9-3.37-6.33l-16.16-11.01c-5.28-3.6-4.14-11.68,1.92-13.68l18.57-6.13c2.41-.79,4.27-2.72,4.98-5.16l5.48-18.77c1.79-6.13,9.83-7.55,13.61-2.4Z"/>
          </g>
          <path class="cls-6" d="M30.23,123.67s-.02-.03-.03-.04c-.02-.02-.04-.04-.06-.07-.33-.34-.76-.35-1.15-.09-.27.18-.35.5-.38.8-.09.79.83,1.32,1.48.9.54-.35.55-1.09.13-1.5Z"/>
          <path class="cls-6" d="M32.41,120.02c-.25-.29-.65-.39-1.01-.28-.32.1-.55.36-.63.68-.08.34.05.79.37.98.14.08.28.17.43.25.31.18.67.08.81-.25.06-.15.13-.29.19-.44.13-.3.04-.7-.17-.94Z"/>
          <path class="cls-6" d="M34.46,125.62c-.02-.05-.05-.11-.06-.16,0-.01-.01-.07-.02-.08-.03-.12-.04-.23-.05-.35-.03-.52-.68-.77-1.1-.57-.42.2-.63.85-.26,1.21.27.26.54.46.88.61.41.18.75-.3.6-.66Z"/>
          <path class="cls-9" d="M31.78,124.96c-.14-.05-.3-.05-.45,0-.15.02-.29.06-.4.13-.34.22-.48.62-.36,1,.11.33.4.58.75.61.37.03.81-.2.91-.57.05-.19.1-.37.07-.57-.05-.28-.25-.52-.52-.61Z"/>
          <path class="cls-9" d="M33.66,119.53c-.09.02-.06.15.02.14s.06-.15-.02-.14Z"/>
          <path class="cls-9" d="M35.6,122.85c-.08-.04-.17-.08-.25-.12-.32-.16-.53.39-.2.53.09.04.17.07.26.11.33.14.5-.36.19-.52Z"/>
          <circle class="cls-9" cx="36.12" cy="125.6" r=".58"/>
          <path class="cls-9" d="M37.51,123.93c-1.04.18-.76,1.81.29,1.62s.76-1.81-.29-1.62Z"/>
          <path class="cls-9" d="M38.64,118.01c-.89.16-.65,1.54.24,1.38s.65-1.54-.24-1.38Z"/>
          <path class="cls-9" d="M41.34,120.37c-.69.12-.5,1.19.19,1.07s.5-1.19-.19-1.07Z"/>
          <path class="cls-9" d="M44.73,116.58c-1.08.19-.79,1.87.3,1.68s.79-1.87-.3-1.68Z"/>
          <path class="cls-9" d="M28.22,120.14c-.76.13-.56,1.32.21,1.19.76-.13.56-1.32-.21-1.19Z"/>
          <path class="cls-9" d="M28.44,117.2c-.02-.07-.11-.13-.18-.13-.15,0-.3.03-.46.05-.54.07-.71.85-.25,1.14.46.29,1.08-.07.99-.63-.02-.15-.04-.29-.09-.43Z"/>
          <path class="cls-9" d="M31.02,114.69c-.9.16-.65,1.55.25,1.4s.65-1.55-.25-1.4Z"/>
          <path class="cls-9" d="M34.52,119.36c-.39.07-.71.48-.62.88.09.4.46.69.88.62.39-.07.71-.48.62-.88-.09-.4-.46-.69-.88-.62Z"/>
          <path class="cls-9" d="M48.64,116.05c-.09-.19-.26-.35-.49-.36-.05,0-.08,0-.12,0-.3,0-.53.18-.73.39-.22.25-.18.68-.01.94.17.27.52.45.85.38.29-.06.54-.26.65-.54.11-.31.03-.59-.15-.82Z"/>
          <path class="cls-9" d="M50.96,112.62c-.95.17-.69,1.64.26,1.47.95-.17.69-1.64-.26-1.47Z"/>
          <path class="cls-9" d="M52.46,113.82c-.47.08-.34.82.13.74s.34-.82-.13-.74Z"/>
          <path class="cls-9" d="M61.61,108.74s-.03-.03-.05-.04c.09-.36-.15-.81-.62-.72-.71.13-.52,1.24.2,1.11.1-.02.19-.06.25-.11.02,0,.03.02.04.02.15.06.29-.14.18-.25Z"/>
          <path class="cls-9" d="M62.04,111.96c-.44.08-.32.77.12.69s.32-.77-.12-.69Z"/>
          <path class="cls-9" d="M65.68,112.4c-.2.04-.15.35.06.32s.15-.35-.06-.32Z"/>
          <path class="cls-9" d="M52.56,106.53c-1.15.2-.84,1.99.31,1.79s.84-1.99-.31-1.79Z"/>
          <path class="cls-9" d="M55.08,103.37c-.58.1-.42,1,.16.9s.42-1-.16-.9Z"/>
          <path class="cls-9" d="M58.8,109.33c-.47.08-.34.82.13.74s.34-.82-.13-.74Z"/>
          <path class="cls-9" d="M57.49,110.87c-.95.17-.69,1.64.26,1.47s.69-1.64-.26-1.47Z"/>
          <path class="cls-9" d="M73.28,113.86s-.03-.08-.04-.13c0-.02,0-.03-.01-.04,0,0,0,0,0-.01-.02-.09-.04-.17-.07-.26-.08-.3-.24-.54-.54-.65-.28-.11-.61-.05-.84.15-.47.4-.36,1.24.25,1.44.2.06.4.13.59.21.19.08.43,0,.57-.14.15-.17.16-.37.09-.58Z"/>
          <path class="cls-9" d="M74.75,112.67c-.96.17-.7,1.65.26,1.49s.7-1.65-.26-1.49Z"/>
          <path class="cls-9" d="M71.5,108.88c-1.09.19-.79,1.89.3,1.7s.79-1.89-.3-1.7Z"/>
          <path class="cls-9" d="M68.02,113.3c-.91.16-.66,1.57.25,1.41s.66-1.57-.25-1.41Z"/>
          <path class="cls-9" d="M79.06,115.79c-.81.14-.59,1.4.22,1.26s.59-1.4-.22-1.26Z"/>
          <path class="cls-9" d="M81.25,115.84c-.64.11-.46,1.1.17.99s.46-1.1-.17-.99Z"/>
          <path class="cls-9" d="M83.53,112.52c-.95.17-.69,1.64.26,1.47s.69-1.64-.26-1.47Z"/>
          <path class="cls-9" d="M84.61,114.68c-.86.15-.63,1.49.24,1.34s.63-1.49-.24-1.34Z"/>
          <path class="cls-9" d="M83.47,118.31s-.03.07.01.06.03-.07-.01-.06Z"/>
          <path class="cls-9" d="M87.54,113.35c-1,.18-.73,1.74.28,1.56s.73-1.74-.28-1.56Z"/>
          <path class="cls-9" d="M84.7,110.7c-.73.13-.53,1.27.2,1.14s.53-1.27-.2-1.14Z"/>
          <path class="cls-9" d="M82.99,108.31c-1.25.22-.91,2.16.34,1.94s.91-2.16-.34-1.94Z"/>
          <path class="cls-9" d="M85.42,106.37c-.42.07-.3.72.11.65s.3-.72-.11-.65Z"/>
          <path class="cls-9" d="M85.33,105.31c-.52.09-.38.9.14.81s.38-.9-.14-.81Z"/>
          <path class="cls-9" d="M81.4,99.3c-.98.17-.71,1.69.27,1.52s.71-1.69-.27-1.52Z"/>
          <path class="cls-9" d="M77.47,100.57c-.99.18-.72,1.72.27,1.55s.72-1.72-.27-1.55Z"/>
          <path class="cls-9" d="M80.64,97.23c-.76.13-.56,1.32.21,1.19s.56-1.32-.21-1.19Z"/>
          <path class="cls-9" d="M80.97,92.91c-.65.11-.47,1.12.18,1.01s.47-1.12-.18-1.01Z"/>
          <path class="cls-9" d="M83,101.62c-.49.09-.88.6-.77,1.09.11.5.57.86,1.09.77.49-.09.88-.6.77-1.09-.11-.5-.57-.86-1.09-.77Z"/>
          <path class="cls-9" d="M77.91,87.39c-1.28.23-.93,2.22.35,2s.93-2.22-.35-2Z"/>
          <path class="cls-9" d="M78.22,84.61c-.72.13-.53,1.25.2,1.13s.53-1.25-.2-1.13Z"/>
          <path class="cls-9" d="M80.35,84.9c-1,.18-.73,1.74.28,1.56s.73-1.74-.28-1.56Z"/>
          <path class="cls-9" d="M83.6,78.62c-1.08.19-.79,1.87.3,1.68s.79-1.87-.3-1.68Z"/>
          <path class="cls-9" d="M87.64,74.56c-.94.17-.68,1.62.26,1.46s.68-1.62-.26-1.46Z"/>
          <path class="cls-9" d="M88.15,72.42c-.66.12-.48,1.14.18,1.02s.48-1.14-.18-1.02Z"/>
          <path class="cls-9" d="M90.86,70.95c-.78.14-.57,1.35.21,1.22s.57-1.35-.21-1.22Z"/>
          <path class="cls-9" d="M92.42,65.72c-1.02.18-.74,1.77.28,1.59,1.02-.18.74-1.77-.28-1.59Z"/>
          <path class="cls-9" d="M84.66,73.4c-.82.14-.6,1.42.22,1.28s.6-1.42-.22-1.28Z"/>
          <path class="cls-9" d="M81.4,80.2c-.83.15-.6,1.44.23,1.29s.6-1.44-.23-1.29Z"/>
          <path class="cls-9" d="M27.55,102.76c-.13.2-.14.4-.05.62.17.39.82.21.75-.2.24-.4-.43-.86-.71-.42Z"/>
          <circle class="cls-9" cx="27.95" cy="107.92" r=".58"/>
          <path class="cls-9" d="M22.28,90.37c-.53.09-.39.92.15.83s.39-.92-.15-.83Z"/>
          <path class="cls-9" d="M17.62,88.88s-.02-.01-.03-.02c-.14-.1-.36-.07-.46.08,0,0-.01.02-.02.03-.18.26.05.63.36.57s.4-.47.15-.66Z"/>
          <path class="cls-9" d="M16.05,85.94c-.64.11-.46,1.1.17.99s.46-1.1-.17-.99Z"/>
          <path class="cls-9" d="M10.82,81.55c-.46.08-.34.8.13.72s.34-.8-.13-.72Z"/>
          <path class="cls-9" d="M10.08,82.99c-.19-.07-.45.03-.51.23-.02.08-.04.15-.04.24,0,.35.45.59.68.25.05-.07.08-.14.11-.22.06-.2-.02-.43-.23-.51Z"/>
          <path class="cls-9" d="M12.73,85.63s-.02.04,0,.04.02-.04,0-.04Z"/>
          <path class="cls-9" d="M7.52,80.81s-.03,0-.05,0c-.65.08-.46,1.14.18,1,.02,0,.03,0,.05-.01.63-.15.47-1.07-.17-.99Z"/>
          <path class="cls-9" d="M40.23,95.92l-.04-.03c-.22-.18-.62-.11-.77.14l-.02.04c-.13.21-.14.45,0,.66.12.19.37.32.6.27.51-.11.65-.75.24-1.07Z"/>
          <path class="cls-9" d="M36.26,101.72c-.72.13-.53,1.25.2,1.13s.53-1.25-.2-1.13Z"/>
          <path class="cls-9" d="M57.76,94.42c-.53.09-.39.92.15.83s.39-.92-.15-.83Z"/>
          <path class="cls-9" d="M66.56,94.89c-.47.08-.34.82.13.74s.34-.82-.13-.74Z"/>
          <path class="cls-9" d="M50.08,77.25c-.37.06-.27.64.1.57s.27-.64-.1-.57Z"/>
          <path class="cls-9" d="M59.35,68.4s-.03.01-.04.02c-.36.16-.26.74.14.77.02,0,.03,0,.05,0,.27.02.5-.22.45-.49s-.34-.41-.59-.3Z"/>
          <path class="cls-9" d="M63.52,81.59c-.44.08-.32.77.12.69s.32-.77-.12-.69Z"/>
          <path class="cls-9" d="M61.97,100.87c-.44.08-.79.53-.69.98.1.45.51.77.98.69.44-.08.79-.53.69-.98-.1-.45-.51-.77-.98-.69Z"/>
          <path class="cls-9" d="M40.42,107.48s-.02,0-.03,0c-.4,0-.76.3-.74.75,0,.23.11.44.3.57.23.16.48.15.73.06.33-.11.57-.52.48-.86-.09-.36-.38-.56-.75-.53Z"/>
          <path class="cls-9" d="M76.43,71.66c-.71.13-.52,1.24.2,1.11s.52-1.24-.2-1.11Z"/>
          <path class="cls-9" d="M29.86,73.84c-.83.15-.6,1.44.23,1.29s.6-1.44-.23-1.29Z"/>
        </g>
        <g>
          <path class="cls-7" d="M261.97,91.13c7.04-4.79,5.52-15.57-2.56-18.24l-16.35-5.4c-3.21-1.06-5.69-3.63-6.64-6.88l-4.82-16.53c-2.38-8.17-13.11-10.06-18.14-3.2l-10.19,13.89c-2,2.73-5.21,4.29-8.59,4.19l-17.22-.52c-8.51-.26-13.62,9.35-8.65,16.26l10.06,13.98c1.97,2.74,2.47,6.28,1.33,9.47l-5.81,16.21c-2.87,8.01,4.69,15.84,12.8,13.25l16.4-5.25c3.22-1.03,6.74-.41,9.41,1.66l13.62,10.54c6.73,5.21,16.52.44,16.56-8.08l.08-17.22c.02-3.38,1.69-6.54,4.49-8.44l14.23-9.7Z"/>
          <path class="cls-7" d="M262.53,88.01c7.04-4.79,5.52-15.57-2.56-18.24l-16.35-5.4c-3.21-1.06-5.69-3.63-6.64-6.88l-4.82-16.53c-2.38-8.17-13.11-10.06-18.14-3.2l-10.19,13.89c-2,2.73-5.21,4.29-8.59,4.19l-17.22-.52c-8.51-.26-13.62,9.35-8.65,16.26l10.06,13.98c1.97,2.74,2.47,6.28,1.33,9.47l-5.81,16.21c-2.87,8.01,4.69,15.84,12.8,13.25l16.4-5.25c3.22-1.03,6.74-.41,9.41,1.66l13.62,10.54c6.73,5.21,16.52.44,16.56-8.08l.08-17.22c.02-3.38,1.69-6.54,4.49-8.44l14.23-9.7Z"/>
          <g>
            <path class="cls-9" d="M232.48,39.02l4.82,16.53c.95,3.25,3.43,5.82,6.64,6.88l16.35,5.4c8.08,2.67,9.6,13.45,2.56,18.24l-14.23,9.7c-2.79,1.9-4.47,5.06-4.49,8.44l-.08,17.22c-.04,8.51-9.82,13.29-16.56,8.08l-13.62-10.54c-2.67-2.07-6.19-2.69-9.41-1.66l-16.4,5.25c-8.11,2.59-15.67-5.24-12.8-13.25l5.81-16.21c1.14-3.18.64-6.72-1.33-9.47l-10.06-13.98c-4.97-6.91.14-16.52,8.65-16.27l17.22.52c3.38.1,6.59-1.46,8.59-4.19l10.19-13.89c5.04-6.86,15.76-4.97,18.14,3.2Z"/>
            <path class="cls-8" d="M264.24,78.17c.25-3.31-1.61-6.73-5.27-7.93l-18.57-6.13c-2.41-.8-4.27-2.72-4.98-5.15l-5.48-18.77c-1.79-6.13-9.83-7.55-13.6-2.4l-11.57,15.77c-1.5,2.04-3.91,3.22-6.45,3.14l-19.55-.59c-3.84-.11-6.77,2.46-7.66,5.65.28-3.86,3.49-7.3,7.93-7.17l19.55.59c2.54.08,4.94-1.1,6.45-3.14l11.57-15.77c3.78-5.15,11.82-3.73,13.6,2.4l5.48,18.77c.71,2.43,2.57,4.36,4.98,5.15l18.57,6.13c4.22,1.4,6.05,5.73,5,9.45Z"/>
            <path class="cls-2" d="M229.93,40.24l5.48,18.77c.71,2.43,2.57,4.36,4.98,5.16l18.57,6.13c6.06,2,7.2,10.09,1.92,13.68l-16.16,11.01c-2.1,1.43-3.35,3.79-3.37,6.33l-.09,19.55c-.03,6.38-7.37,9.96-12.42,6.06l-15.47-11.97c-2.01-1.55-4.65-2.02-7.06-1.24l-18.63,5.96c-6.08,1.94-11.75-3.93-9.6-9.94l6.6-18.41c.86-2.39.48-5.04-1-7.1l-11.42-15.87c-3.73-5.18.1-12.39,6.49-12.2l19.55.59c2.53.08,4.94-1.1,6.44-3.14l11.57-15.77c3.78-5.15,11.82-3.73,13.61,2.4Z"/>
          </g>
          <path class="cls-6" d="M181.02,113.78s0-.03-.01-.05c-.01-.03-.02-.06-.03-.08-.19-.44-.6-.59-1.05-.48-.32.08-.5.35-.63.62-.35.72.33,1.52,1.09,1.35.63-.14.89-.84.64-1.37Z"/>
          <path class="cls-6" d="M184.32,111.1c-.13-.36-.47-.59-.85-.61-.34-.01-.64.14-.82.43-.19.3-.23.76.01,1.05.11.13.21.25.32.38.23.27.6.31.85.04.11-.12.22-.23.33-.35.22-.24.28-.64.17-.94Z"/>
          <path class="cls-6" d="M184.33,117.05c0-.06,0-.12,0-.18,0-.01,0-.07.01-.08.02-.12.04-.23.08-.34.15-.49-.38-.95-.84-.91-.46.04-.88.59-.66,1.04.16.34.35.62.62.88.32.31.81-.02.79-.41Z"/>
          <path class="cls-9" d="M182.04,115.52c-.12-.09-.27-.15-.42-.15-.14-.03-.29-.04-.43-.01-.39.09-.66.42-.68.82-.01.35.18.68.5.83.33.16.83.09,1.05-.23.11-.16.22-.31.26-.51.05-.28-.06-.58-.28-.76Z"/>
          <path class="cls-9" d="M185.67,111.06c-.09-.02-.11.12-.02.14s.11-.12.02-.14Z"/>
          <path class="cls-9" d="M186.35,114.85c-.07-.07-.13-.14-.2-.2-.25-.26-.63.18-.36.43.07.06.14.13.2.19.26.25.6-.17.36-.42Z"/>
          <circle class="cls-9" cx="185.9" cy="117.61" r=".58"/>
          <path class="cls-9" d="M187.78,116.51c-1.04-.18-1.33,1.44-.29,1.62s1.33-1.44.29-1.62Z"/>
          <path class="cls-9" d="M190.87,111.33c-.89-.16-1.13,1.22-.24,1.38s1.13-1.22.24-1.38Z"/>
          <path class="cls-9" d="M192.59,114.47c-.69-.12-.87.94-.19,1.07s.87-.94.19-1.07Z"/>
          <path class="cls-9" d="M197.08,112.07c-1.08-.19-1.38,1.49-.3,1.68s1.38-1.49.3-1.68Z"/>
          <path class="cls-9" d="M180.34,109.77c-.76-.13-.97,1.05-.21,1.19.76.13.97-1.05.21-1.19Z"/>
          <path class="cls-9" d="M181.55,107.08c0-.07-.06-.16-.13-.18-.14-.05-.29-.08-.45-.11-.53-.11-.96.56-.63.99.33.43,1.04.3,1.14-.25.03-.15.06-.29.06-.44Z"/>
          <path class="cls-9" d="M184.84,105.61c-.9-.16-1.15,1.24-.25,1.4s1.15-1.24.25-1.4Z"/>
          <path class="cls-9" d="M186.53,111.2c-.39-.07-.83.21-.88.62-.05.41.2.81.62.88.39.07.83-.21.88-.62.05-.41-.2-.81-.62-.88Z"/>
          <path class="cls-9" d="M200.93,112.91c-.02-.21-.13-.42-.33-.51-.04-.02-.08-.02-.12-.03-.28-.11-.56-.02-.82.12-.3.16-.4.58-.33.88.07.31.34.6.67.65.29.04.6-.06.79-.29.21-.25.23-.54.14-.82Z"/>
          <path class="cls-9" d="M204.29,110.48c-.95-.17-1.21,1.3-.26,1.47s1.21-1.3.26-1.47Z"/>
          <path class="cls-9" d="M205.29,112.13c-.47-.08-.6.65-.13.74s.6-.65.13-.74Z"/>
          <path class="cls-9" d="M215.62,110.48s-.02-.04-.03-.06c.21-.3.13-.81-.34-.89-.71-.13-.91.98-.2,1.11.1.02.2,0,.28-.02.01.01.02.03.03.04.12.11.32-.03.25-.18Z"/>
          <path class="cls-9" d="M214.92,113.65c-.44-.08-.57.61-.12.69s.57-.61.12-.69Z"/>
          <path class="cls-9" d="M218.2,115.31c-.2-.04-.26.28-.06.32s.26-.28.06-.32Z"/>
          <path class="cls-9" d="M207.88,105.31c-1.15-.2-1.47,1.58-.31,1.79,1.15.2,1.47-1.58.31-1.79Z"/>
          <path class="cls-9" d="M211.32,103.2c-.58-.1-.74.8-.16.9s.74-.8.16-.9Z"/>
          <path class="cls-9" d="M212.78,110.08c-.47-.08-.6.65-.13.74s.6-.65.13-.74Z"/>
          <path class="cls-9" d="M211.02,111.07c-.95-.17-1.21,1.3-.26,1.47s1.21-1.3.26-1.47Z"/>
          <path class="cls-9" d="M224.83,119.28s0-.09,0-.13c0-.02,0-.03,0-.04,0,0,0,0,0-.01,0-.09.02-.18.02-.26.03-.3-.04-.59-.29-.79-.23-.2-.56-.25-.84-.15-.58.21-.76,1.04-.25,1.44.17.13.33.26.49.4.15.14.4.16.58.06.2-.11.28-.29.28-.51Z"/>
          <path class="cls-9" d="M226.62,118.67c-.96-.17-1.22,1.32-.26,1.49s1.22-1.32.26-1.49Z"/>
          <path class="cls-9" d="M224.87,113.99c-1.09-.19-1.39,1.5-.3,1.7s1.39-1.5.3-1.7Z"/>
          <path class="cls-9" d="M220.08,116.96c-.91-.16-1.16,1.25-.25,1.41s1.16-1.25.25-1.41Z"/>
          <path class="cls-9" d="M229.6,123.08c-.81-.14-1.03,1.12-.22,1.26s1.03-1.12.22-1.26Z"/>
          <path class="cls-9" d="M231.64,123.87c-.64-.11-.81.88-.17.99s.81-.88.17-.99Z"/>
          <path class="cls-9" d="M234.93,121.53c-.95-.17-1.21,1.3-.26,1.47s1.21-1.3.26-1.47Z"/>
          <path class="cls-9" d="M235.2,123.93c-.86-.15-1.1,1.18-.24,1.34s1.1-1.18.24-1.34Z"/>
          <path class="cls-9" d="M232.88,126.95s-.05.05-.01.06.05-.05.01-.06Z"/>
          <path class="cls-9" d="M238.41,123.68c-1-.18-1.28,1.38-.28,1.56s1.28-1.38.28-1.56Z"/>
          <path class="cls-9" d="M236.65,120.22c-.73-.13-.94,1.01-.2,1.14s.94-1.01.2-1.14Z"/>
          <path class="cls-9" d="M235.86,117.39c-1.25-.22-1.59,1.72-.34,1.94s1.59-1.72.34-1.94Z"/>
          <path class="cls-9" d="M238.8,116.4c-.42-.07-.53.57-.11.65s.53-.57.11-.65Z"/>
          <path class="cls-9" d="M239.08,115.37c-.52-.09-.67.72-.14.81s.67-.72.14-.81Z"/>
          <path class="cls-9" d="M237.44,108.38c-.98-.17-1.24,1.34-.27,1.52s1.24-1.34.27-1.52Z"/>
          <path class="cls-9" d="M233.31,108.23c-.99-.18-1.27,1.37-.27,1.55s1.27-1.37.27-1.55Z"/>
          <path class="cls-9" d="M237.44,106.17c-.76-.13-.97,1.05-.21,1.19s.97-1.05.21-1.19Z"/>
          <path class="cls-9" d="M239.22,102.22c-.65-.11-.83.89-.18,1.01s.83-.89.18-1.01Z"/>
          <path class="cls-9" d="M238.15,111.1c-.49-.09-1.03.26-1.09.77-.07.51.24,1,.77,1.09.49.09,1.03-.26,1.09-.77.07-.51-.24-1-.77-1.09Z"/>
          <path class="cls-9" d="M238.24,95.99c-1.28-.23-1.64,1.77-.35,2s1.64-1.77.35-2Z"/>
          <path class="cls-9" d="M239.48,93.49c-.72-.13-.92,1-.2,1.13s.92-1,.2-1.13Z"/>
          <path class="cls-9" d="M241.38,94.49c-1-.18-1.28,1.38-.28,1.56s1.28-1.38.28-1.56Z"/>
          <path class="cls-9" d="M246.58,89.7c-1.08-.19-1.38,1.49-.3,1.68,1.08.19,1.38-1.49.3-1.68Z"/>
          <path class="cls-9" d="M251.77,87.26c-.94-.17-1.2,1.29-.26,1.46s1.2-1.29.26-1.46Z"/>
          <path class="cls-9" d="M252.98,85.43c-.66-.12-.84.9-.18,1.02s.84-.9.18-1.02Z"/>
          <path class="cls-9" d="M256.03,84.97c-.78-.14-1,1.08-.21,1.22s1-1.08.21-1.22Z"/>
          <path class="cls-9" d="M259.28,80.6c-1.02-.18-1.31,1.41-.28,1.59s1.31-1.41.28-1.59Z"/>
          <path class="cls-9" d="M249.37,85.15c-.82-.14-1.05,1.13-.22,1.28s1.05-1.13.22-1.28Z"/>
          <path class="cls-9" d="M243.98,90.43c-.83-.15-1.06,1.14-.23,1.29s1.06-1.14.23-1.29Z"/>
          <path class="cls-9" d="M185.66,93.21c-.19.14-.27.33-.26.57.02.42.7.48.78.07.37-.29-.11-.95-.52-.64Z"/>
          <circle class="cls-9" cx="184.27" cy="98.2" r=".58"/>
          <path class="cls-9" d="M184.94,79.77c-.53-.09-.68.73-.15.83s.68-.73.15-.83Z"/>
          <path class="cls-9" d="M181.08,76.77s-.01-.02-.02-.03c-.1-.15-.32-.19-.46-.08,0,0-.02.01-.03.02-.26.19-.17.6.15.66s.54-.31.36-.57Z"/>
          <path class="cls-9" d="M180.61,73.47c-.64-.11-.81.88-.17.99s.81-.88.17-.99Z"/>
          <path class="cls-9" d="M177.19,67.56c-.46-.08-.59.64-.13.72s.59-.64.13-.72Z"/>
          <path class="cls-9" d="M176,68.66c-.16-.13-.43-.13-.56.05-.05.07-.09.13-.12.21-.12.33.23.71.55.47.07-.05.12-.1.17-.17.13-.17.12-.41-.05-.56Z"/>
          <path class="cls-9" d="M177.59,72.04s-.03.03,0,.04.03-.03,0-.04Z"/>
          <path class="cls-9" d="M174.34,65.73s-.03,0-.05-.01c-.63-.15-.82.92-.18,1,.02,0,.03,0,.05,0,.64.08.81-.84.17-.99Z"/>
          <path class="cls-9" d="M199.91,91.12l-.02-.04c-.15-.24-.54-.31-.77-.14l-.04.03c-.19.15-.29.38-.23.62.05.22.24.42.47.45.52.07.87-.48.59-.93Z"/>
          <path class="cls-9" d="M194.2,95.21c-.72-.13-.92,1-.2,1.13s.92-1,.2-1.13Z"/>
          <path class="cls-9" d="M216.9,95.7c-.53-.09-.68.73-.15.83s.68-.73.15-.83Z"/>
          <path class="cls-9" d="M225.01,99.16c-.47-.08-.6.65-.13.74s.6-.65.13-.74Z"/>
          <path class="cls-9" d="M215.55,76.94c-.37-.06-.47.51-.1.57s.47-.51.1-.57Z"/>
          <path class="cls-9" d="M227.29,71.8s-.03,0-.05,0c-.4.03-.5.61-.14.77.01,0,.03.01.04.02.25.11.54-.03.59-.3s-.18-.5-.45-.49Z"/>
          <path class="cls-9" d="M226.7,85.62c-.44-.08-.57.61-.12.69s.57-.61.12-.69Z"/>
          <path class="cls-9" d="M218.65,103.21c-.44-.08-.92.23-.98.69-.06.45.22.9.69.98.44.08.92-.23.98-.69.06-.45-.22-.9-.69-.98Z"/>
          <path class="cls-9" d="M196.14,102.05s-.02,0-.03,0c-.38-.14-.81.03-.95.45-.07.22-.04.45.09.64.16.23.4.31.67.31.35,0,.71-.29.75-.64.04-.37-.17-.66-.53-.75Z"/>
          <path class="cls-9" d="M242.23,80.71c-.71-.13-.91.98-.2,1.11s.91-.98.2-1.11Z"/>
          <path class="cls-9" d="M197.72,66.83c-.83-.15-1.06,1.14-.23,1.29s1.06-1.14.23-1.29Z"/>
        </g>
      </g>
      <g>
        <path class="cls-7" d="M194.68,66.96c7.86-7.66,3.52-21.01-7.34-22.59l-21.98-3.19c-4.31-.63-8.04-3.34-9.97-7.25l-9.83-19.92c-4.86-9.84-18.9-9.84-23.76,0l-9.83,19.92c-1.93,3.91-5.66,6.62-9.97,7.25l-21.98,3.19c-10.86,1.58-15.2,14.93-7.34,22.59l15.9,15.5c3.12,3.04,4.55,7.43,3.81,11.72l-3.75,21.89c-1.86,10.82,9.5,19.07,19.22,13.96l19.66-10.34c3.86-2.03,8.47-2.03,12.33,0l19.66,10.34c9.72,5.11,21.07-3.14,19.22-13.96l-3.75-21.89c-.74-4.3.69-8.68,3.81-11.72l15.9-15.5Z"/>
        <path class="cls-7" d="M194.68,62.87c7.86-7.66,3.52-21.01-7.34-22.59l-21.98-3.19c-4.31-.63-8.04-3.34-9.97-7.25l-9.83-19.92C140.7.07,126.66.07,121.8,9.92l-9.83,19.92c-1.93,3.91-5.66,6.62-9.97,7.25l-21.98,3.19c-10.86,1.58-15.2,14.93-7.34,22.59l15.9,15.5c3.12,3.04,4.55,7.43,3.81,11.72l-3.75,21.89c-1.86,10.82,9.5,19.07,19.22,13.96l19.66-10.34c3.86-2.03,8.47-2.03,12.33,0l19.66,10.34c9.72,5.11,21.07-3.14,19.22-13.96l-3.75-21.89c-.74-4.3.69-8.68,3.81-11.72l15.9-15.5Z"/>
        <g>
          <path class="cls-4" d="M145.56,7.38l9.83,19.92c1.93,3.91,5.66,6.62,9.97,7.25l21.98,3.19c10.86,1.58,15.2,14.93,7.34,22.59l-15.9,15.5c-3.12,3.04-4.55,7.43-3.81,11.72l3.75,21.89c1.86,10.82-9.5,19.07-19.22,13.96l-19.66-10.34c-3.86-2.03-8.47-2.03-12.33,0l-19.66,10.34c-9.72,5.11-21.07-3.14-19.22-13.96l3.75-21.89c.74-4.3-.69-8.68-3.81-11.72l-15.9-15.5c-7.86-7.66-3.52-21.01,7.34-22.59l21.98-3.19c4.31-.63,8.04-3.34,9.97-7.25l9.83-19.92c4.86-9.84,18.9-9.84,23.76,0Z"/>
          <path class="cls-10" d="M194.65,49.99c-.42-4.26-3.56-8.18-8.46-8.89l-24.95-3.63c-3.24-.47-6.03-2.5-7.48-5.43l-11.16-22.62c-3.64-7.38-14.17-7.38-17.82,0l-11.16,22.62c-1.45,2.93-4.25,4.96-7.48,5.43l-24.95,3.63c-4.91.72-8.05,4.64-8.46,8.89-.5-4.96,2.79-10.05,8.46-10.88l24.95-3.63c3.24-.47,6.03-2.5,7.48-5.43l11.16-22.62c3.64-7.38,14.17-7.38,17.82,0l11.16,22.62c1.45,2.93,4.25,4.96,7.48,5.43l24.95,3.63c5.67.83,8.97,5.92,8.46,10.88Z"/>
          <path class="cls-1" d="M142.59,9.5l11.16,22.61c1.45,2.93,4.24,4.96,7.48,5.43l24.96,3.63c8.15,1.18,11.4,11.2,5.51,16.94l-18.06,17.6c-2.34,2.28-3.41,5.57-2.86,8.79l4.26,24.85c1.39,8.12-7.13,14.3-14.41,10.47l-22.32-11.73c-2.89-1.52-6.35-1.52-9.25,0l-22.32,11.73c-7.29,3.83-15.81-2.36-14.41-10.47l4.26-24.85c.55-3.22-.52-6.51-2.86-8.79l-18.06-17.6c-5.9-5.75-2.64-15.76,5.51-16.94l24.96-3.63c3.24-.47,6.03-2.5,7.48-5.43l11.16-22.61c3.64-7.38,14.17-7.38,17.82,0Z"/>
        </g>
        <path class="cls-5" d="M96.94,113.85s-.01-.04-.02-.06c-.02-.03-.04-.07-.06-.1-.34-.51-.89-.62-1.44-.38-.39.17-.55.56-.66.93-.29.99.76,1.86,1.68,1.47.77-.33.94-1.26.5-1.88Z"/>
        <path class="cls-5" d="M100.53,109.7c-.25-.42-.74-.65-1.21-.58-.43.06-.78.33-.95.73-.18.42-.12,1.02.25,1.33.16.14.32.27.49.41.35.3.83.26,1.09-.14.11-.17.23-.35.34-.52.23-.35.21-.88,0-1.23Z"/>
        <path class="cls-5" d="M101.88,117.26c-.02-.07-.03-.15-.04-.22,0-.02,0-.09,0-.11,0-.15,0-.3.02-.45.08-.66-.7-1.12-1.27-.97-.58.16-.99.94-.6,1.47.28.39.58.7.98.98.47.32,1.02-.21.91-.7Z"/>
        <path class="cls-4" d="M98.63,115.84c-.17-.09-.38-.13-.57-.09-.19-.01-.38,0-.54.08-.48.2-.75.68-.68,1.19.06.44.38.83.82.95.46.13,1.07-.07,1.29-.52.11-.23.21-.44.21-.7,0-.36-.2-.72-.53-.9Z"/>
        <path class="cls-4" d="M102.23,109.35c-.11,0-.11.18,0,.18s.11-.18,0-.18Z"/>
        <path class="cls-4" d="M103.95,114.01c-.1-.07-.2-.14-.29-.21-.38-.27-.76.37-.37.63.1.07.2.13.3.2.39.25.72-.35.36-.61Z"/>
        <path class="cls-4" d="M103.99,116.87c-.4,0-.75.34-.75.75s.34.75.75.75.75-.34.75-.75-.34-.75-.75-.75Z"/>
        <path class="cls-4" d="M106.13,115.8c-1.37,0-1.37,2.12,0,2.12s1.37-2.12,0-2.12Z"/>
        <path class="cls-4" d="M108.9,108.53c-1.16,0-1.17,1.81,0,1.81s1.17-1.81,0-1.81Z"/>
        <path class="cls-4" d="M111.79,112.14c-.9,0-.9,1.4,0,1.4s.9-1.4,0-1.4Z"/>
        <path class="cls-4" d="M116.95,108.09c-1.42,0-1.42,2.2,0,2.2s1.42-2.2,0-2.2Z"/>
        <path class="cls-4" d="M95.19,108.91c-1,0-1,1.55,0,1.55s1-1.55,0-1.55Z"/>
        <path class="cls-4" d="M96.12,105.23c-.01-.09-.12-.19-.21-.21-.19-.04-.39-.03-.59-.04-.7-.03-1.09.92-.58,1.39.51.47,1.39.15,1.39-.58,0-.19,0-.38-.02-.57Z"/>
        <path class="cls-4" d="M99.97,102.61c-1.18,0-1.18,1.83,0,1.83s1.18-1.83,0-1.83Z"/>
        <path class="cls-4" d="M103.36,109.34c-.51,0-1.01.45-.98.98.02.53.43.98.98.98.51,0,1.01-.45.98-.98-.02-.53-.43-.98-.98-.98Z"/>
        <path class="cls-4" d="M122.03,108.29c-.07-.27-.26-.5-.54-.57-.06-.01-.11-.01-.16-.02-.38-.08-.71.1-1.01.34-.34.26-.38.83-.23,1.19.16.38.56.69,1,.67.38-.02.75-.2.94-.54.21-.37.17-.74,0-1.07Z"/>
        <path class="cls-4" d="M125.75,104.45c-1.24,0-1.24,1.93,0,1.93s1.24-1.93,0-1.93Z"/>
        <path class="cls-4" d="M127.39,106.32c-.62,0-.62.96,0,.96s.62-.96,0-.96Z"/>
        <path class="cls-4" d="M140.15,101.91s-.04-.04-.05-.07c.2-.43-.01-1.06-.63-1.06-.94,0-.94,1.45,0,1.45.14,0,.25-.03.35-.09.02.01.03.03.05.04.17.11.39-.11.28-.28Z"/>
        <path class="cls-4" d="M139.97,106.09c-.58,0-.58.9,0,.9s.58-.9,0-.9Z"/>
        <path class="cls-4" d="M144.5,107.47c-.27,0-.27.41,0,.41s.27-.41,0-.41Z"/>
        <path class="cls-4" d="M129.15,97.07c-1.5,0-1.51,2.34,0,2.34s1.51-2.34,0-2.34Z"/>
        <path class="cls-4" d="M133.05,93.63c-.76,0-.76,1.18,0,1.18s.76-1.18,0-1.18Z"/>
        <path class="cls-4" d="M136.45,102.04c-.62,0-.62.96,0,.96s.62-.96,0-.96Z"/>
        <path class="cls-4" d="M134.43,103.7c-1.24,0-1.24,1.93,0,1.93s1.24-1.93,0-1.93Z"/>
        <path class="cls-4" d="M153.82,111.03c0-.06-.02-.11-.03-.17,0-.02,0-.04,0-.05,0,0,0,.01,0-.02,0-.11-.02-.23-.03-.34-.03-.39-.19-.74-.54-.94-.34-.2-.76-.2-1.1,0-.68.4-.73,1.5,0,1.88.24.13.48.25.71.4.23.14.55.11.75-.05.23-.18.29-.43.24-.71Z"/>
        <path class="cls-4" d="M155.94,109.85c-1.25,0-1.25,1.95,0,1.95s1.25-1.95,0-1.95Z"/>
        <path class="cls-4" d="M152.67,104.3c-1.43,0-1.43,2.22,0,2.22s1.43-2.22,0-2.22Z"/>
        <path class="cls-4" d="M147.26,109.14c-1.19,0-1.19,1.85,0,1.85s1.19-1.85,0-1.85Z"/>
        <path class="cls-4" d="M160.72,114.78c-1.06,0-1.06,1.65,0,1.65s1.06-1.65,0-1.65Z"/>
        <path class="cls-4" d="M163.49,115.33c-.83,0-.84,1.3,0,1.3s.84-1.3,0-1.3Z"/>
        <path class="cls-4" d="M167.14,111.62c-1.24,0-1.24,1.93,0,1.93s1.24-1.93,0-1.93Z"/>
        <path class="cls-4" d="M168.02,114.6c-1.13,0-1.13,1.75,0,1.75s1.13-1.75,0-1.75Z"/>
        <path class="cls-4" d="M165.76,118.96c-.05,0-.05.08,0,.08s.05-.08,0-.08Z"/>
        <path class="cls-4" d="M172.04,113.57c-1.32,0-1.32,2.04,0,2.04s1.32-2.04,0-2.04Z"/>
        <path class="cls-4" d="M169.03,109.57c-.96,0-.96,1.49,0,1.49s.96-1.49,0-1.49Z"/>
        <path class="cls-4" d="M167.39,106.16c-1.63,0-1.63,2.54,0,2.54s1.63-2.54,0-2.54Z"/>
        <path class="cls-4" d="M170.91,104.24c-.54,0-.54.85,0,.85s.54-.85,0-.85Z"/>
        <path class="cls-4" d="M171.04,102.87c-.68,0-.68,1.06,0,1.06s.68-1.06,0-1.06Z"/>
        <path class="cls-4" d="M167.39,94.36c-1.28,0-1.28,1.99,0,1.99s1.28-1.99,0-1.99Z"/>
        <path class="cls-4" d="M162.11,95.09c-1.3,0-1.3,2.02,0,2.02s1.3-2.02,0-2.02Z"/>
        <path class="cls-4" d="M166.89,91.55c-1,0-1,1.55,0,1.55s1-1.55,0-1.55Z"/>
        <path class="cls-4" d="M168.27,86.14c-.85,0-.85,1.32,0,1.32s.85-1.32,0-1.32Z"/>
        <path class="cls-4" d="M168.9,97.65c-.64,0-1.25.56-1.22,1.22.03.66.54,1.22,1.22,1.22.64,0,1.25-.56,1.22-1.22-.03-.66-.54-1.22-1.22-1.22Z"/>
        <path class="cls-4" d="M165.63,78.45c-1.68,0-1.68,2.61,0,2.61s1.68-2.61,0-2.61Z"/>
        <path class="cls-4" d="M166.64,74.99c-.95,0-.95,1.47,0,1.47s.95-1.47,0-1.47Z"/>
        <path class="cls-4" d="M169.28,75.84c-1.32,0-1.32,2.04,0,2.04s1.32-2.04,0-2.04Z"/>
        <path class="cls-4" d="M174.81,68.59c-1.42,0-1.42,2.2,0,2.2s1.42-2.2,0-2.2Z"/>
        <path class="cls-4" d="M180.85,64.33c-1.23,0-1.23,1.91,0,1.91s1.23-1.91,0-1.91Z"/>
        <path class="cls-4" d="M181.98,61.72c-.86,0-.86,1.34,0,1.34s.86-1.34,0-1.34Z"/>
        <path class="cls-4" d="M185.76,60.46c-1.02,0-1.03,1.59,0,1.59s1.03-1.59,0-1.59Z"/>
        <path class="cls-4" d="M188.9,54.18c-1.34,0-1.34,2.08,0,2.08s1.34-2.08,0-2.08Z"/>
        <path class="cls-4" d="M177.33,62.19c-1.08,0-1.08,1.67,0,1.67s1.08-1.67,0-1.67Z"/>
        <path class="cls-4" d="M171.67,70.1c-1.09,0-1.09,1.69,0,1.69s1.09-1.69,0-1.69Z"/>
        <path class="cls-4" d="M98.22,86.69c-.2.22-.27.48-.2.78.12.53,1,.45,1-.08.4-.45-.36-1.19-.8-.7Z"/>
        <path class="cls-4" d="M97.58,92.59c-.4,0-.75.34-.75.75s.34.75.75.75.75-.34.75-.75-.34-.75-.75-.75Z"/>
        <path class="cls-4" d="M94.31,69.78c-.7,0-.7,1.08,0,1.08s.7-1.08,0-1.08Z"/>
        <path class="cls-4" d="M88.73,66.84s-.02-.02-.03-.03c-.16-.16-.45-.16-.61,0-.01.01-.02.02-.03.03-.28.29-.08.81.33.81s.62-.51.33-.81Z"/>
        <path class="cls-4" d="M87.39,62.75c-.83,0-.84,1.3,0,1.3s.84-1.3,0-1.3Z"/>
        <path class="cls-4" d="M81.73,56.01c-.61,0-.61.94,0,.94s.61-.94,0-.94Z"/>
        <path class="cls-4" d="M80.46,57.67c-.23-.13-.57-.06-.7.18-.05.1-.09.19-.11.3-.08.44.45.85.81.47.08-.08.13-.15.18-.25.12-.25.07-.55-.18-.7Z"/>
        <path class="cls-4" d="M83.24,61.61s-.03.05,0,.05.03-.05,0-.05Z"/>
        <path class="cls-4" d="M77.7,54.32s-.04,0-.06,0c-.84-.05-.84,1.35,0,1.3.02,0,.04,0,.06,0,.83-.05.84-1.25,0-1.3Z"/>
        <path class="cls-4" d="M115.85,80.85l-.04-.04c-.25-.27-.76-.27-1,0l-.04.04c-.21.23-.28.54-.16.84.11.27.4.48.7.47.68-.03.99-.81.54-1.31Z"/>
        <path class="cls-4" d="M109.53,87.32c-.95,0-.95,1.47,0,1.47s.95-1.47,0-1.47Z"/>
        <path class="cls-4" d="M138.46,82.86c-.7,0-.7,1.08,0,1.08s.7-1.08,0-1.08Z"/>
        <path class="cls-4" d="M149.53,85.43c-.62,0-.62.96,0,.96s.62-.96,0-.96Z"/>
        <path class="cls-4" d="M132.55,59.33c-.48,0-.48.75,0,.75s.48-.75,0-.75Z"/>
        <path class="cls-4" d="M146.3,50.18s-.04,0-.06.01c-.5.12-.5.88,0,1,.02,0,.04,0,.06.01.34.08.68-.16.68-.52s-.34-.6-.68-.52Z"/>
        <path class="cls-4" d="M148.65,67.85c-.58,0-.58.9,0,.9s.58-.9,0-.9Z"/>
        <path class="cls-4" d="M142.36,92c-.57,0-1.12.5-1.09,1.09.03.59.48,1.09,1.09,1.09.57,0,1.12-.5,1.09-1.09-.03-.59-.48-1.09-1.09-1.09Z"/>
        <path class="cls-4" d="M113.52,95.57s-.03,0-.04,0c-.51-.09-1.03.22-1.1.78-.04.29.05.58.26.79.26.26.58.3.92.24.44-.07.84-.53.81-.98-.04-.48-.36-.8-.84-.84Z"/>
        <path class="cls-4" d="M167.26,58.14c-.94,0-.94,1.45,0,1.45s.94-1.45,0-1.45Z"/>
        <path class="cls-4" d="M107.64,50.48c-1.09,0-1.09,1.69,0,1.69s1.09-1.69,0-1.69Z"/>
      </g>
    </g>
  </g>
</svg>