<?xml version="1.0" encoding="UTF-8"?>
<svg id="Ebene_2" data-name="Ebene 2" xmlns="http://www.w3.org/2000/svg" viewBox="0 0 95.53 88.91">
  <defs>
    <style>
      .cls-1 {
        fill: #fff;
      }
    </style>
  </defs>
  <g id="Layer_1" data-name="Layer 1">
    <g>
      <path class="cls-1" d="M51.07,88.91c-.09,0-.19,0-.28,0-.09,0-.19,0-.28,0-.09,0-.19,0-.28,0-.09,0-.19,0-.28,0-.09,0-.19,0-.28,0s-.19,0-.28,0c-.09,0-.19,0-.28-.01s-.19,0-.28-.01c-.09,0-.19,0-.28-.01-.09,0-.19-.01-.28-.02-.09,0-.19-.01-.28-.02-.09,0-.19-.01-.28-.02-.09,0-.19-.01-.28-.02-.09,0-.18-.02-.28-.02-.09,0-.18-.02-.28-.02-.09,0-.18-.02-.28-.03-.09,0-.18-.02-.28-.03-.09,0-.18-.02-.28-.03-.09-.01-.18-.02-.28-.03-.09-.01-.18-.02-.28-.03-.09-.01-.18-.02-.28-.04-.09-.01-.18-.02-.27-.04-.09-.01-.18-.03-.27-.04-.09-.01-.18-.03-.27-.04s-.18-.03-.27-.04-.18-.03-.27-.04c-.09-.01-.18-.03-.27-.05-.09-.02-.18-.03-.27-.05-.09-.02-.18-.03-.27-.05-.09-.02-.18-.03-.27-.05-.09-.02-.18-.03-.27-.05-.09-.02-.18-.04-.27-.05-.09-.02-.18-.04-.27-.06-.09-.02-.18-.04-.27-.06-.09-.02-.18-.04-.27-.06-.09-.02-.18-.04-.27-.06-.09-.02-.18-.04-.27-.06-.09-.02-.18-.04-.27-.06-.09-.02-.18-.04-.27-.07-.09-.02-.18-.04-.27-.07-.09-.02-.18-.05-.27-.07-.09-.02-.18-.05-.27-.07-.09-.02-.18-.05-.27-.07-.09-.02-.18-.05-.27-.07-.09-.03-.18-.05-.27-.08-.09-.03-.18-.05-.27-.08-.09-.03-.18-.05-.27-.08s-.18-.05-.26-.08c-.09-.03-.18-.05-.26-.08-.09-.03-.18-.06-.26-.08s-.18-.06-.26-.09c-.09-.03-.18-.06-.26-.09-.09-.03-.18-.06-.26-.09-.09-.03-.17-.06-.26-.09-.09-.03-.17-.06-.26-.09-.09-.03-.17-.06-.26-.09-.09-.03-.17-.06-.26-.1s-.17-.06-.26-.1c-.09-.03-.17-.07-.26-.1-.09-.03-.17-.07-.26-.1-.09-.03-.17-.07-.26-.1-.09-.03-.17-.07-.26-.1-.09-.04-.17-.07-.26-.11-.09-.04-.17-.07-.26-.11-.08-.03-.17-.07-.25-.11-.08-.04-.16-.07-.25-.11-.08-.04-.16-.07-.25-.11s-.16-.07-.25-.11c-.08-.04-.16-.07-.24-.11-.08-.04-.16-.07-.24-.11-.08-.04-.16-.08-.24-.11-.08-.04-.16-.08-.24-.12-.08-.04-.16-.08-.24-.12-.08-.04-.16-.08-.24-.12s-.16-.08-.24-.12-.16-.08-.24-.12c-.08-.04-.16-.08-.24-.12-.08-.04-.16-.08-.24-.12-.08-.04-.16-.08-.24-.13s-.16-.08-.24-.13c-.08-.04-.16-.09-.23-.13-.08-.04-.16-.09-.23-.13-.08-.04-.16-.09-.23-.13-.08-.04-.15-.09-.23-.13-.08-.04-.15-.09-.23-.13-.08-.04-.15-.09-.23-.13-.08-.05-.15-.09-.23-.14-.08-.05-.15-.09-.23-.14-.08-.05-.15-.09-.23-.14-.08-.05-.15-.09-.23-.14-.08-.05-.15-.09-.23-.14-.08-.05-.15-.1-.23-.14-.07-.05-.15-.1-.22-.14-.07-.05-.15-.1-.22-.15-.07-.05-.15-.1-.22-.15-.07-.05-.15-.1-.22-.15s-.15-.1-.22-.15c-.07-.05-.15-.1-.22-.15-.07-.05-.15-.1-.22-.15-.07-.05-.15-.1-.22-.15-.07-.05-.14-.1-.22-.16-.07-.05-.14-.1-.22-.16s-.14-.1-.22-.16c-.07-.05-.14-.11-.21-.16-.07-.05-.14-.11-.21-.16-.07-.05-.14-.11-.21-.16-.07-.05-.14-.11-.21-.16-.07-.05-.14-.11-.21-.16-.07-.06-.14-.11-.21-.17-.07-.06-.14-.11-.21-.17-.07-.06-.14-.11-.21-.17-.07-.06-.14-.11-.21-.17-.07-.06-.14-.11-.21-.17-.07-.06-.14-.11-.21-.17-.07-.06-.14-.12-.2-.17-.07-.06-.14-.12-.2-.18s-.14-.12-.2-.18c-.07-.06-.13-.12-.2-.18-.07-.06-.13-.12-.2-.18-.07-.06-.13-.12-.2-.18-.07-.06-.13-.12-.2-.18-.07-.06-.13-.12-.2-.18-.07-.06-.13-.12-.2-.18-.07-.06-.13-.12-.2-.19-.06-.06-.13-.12-.19-.19-.06-.06-.13-.13-.19-.19-.06-.06-.13-.13-.19-.19-.06-.06-.13-.13-.19-.19-.04-.04-.07-.07-.11-.11-.03-.04-.07-.07-.1-.11-.03-.04-.07-.07-.1-.11-.03-.04-.06-.08-.09-.11s-.06-.08-.09-.12c-.03-.04-.06-.08-.09-.12-.03-.04-.06-.08-.08-.12s-.05-.08-.08-.12c-.03-.04-.05-.08-.08-.12-.03-.04-.05-.08-.07-.12-.02-.04-.05-.08-.07-.12s-.05-.08-.07-.13c-.02-.04-.04-.08-.06-.13-.02-.04-.04-.09-.06-.13s-.04-.09-.06-.13c-.02-.04-.04-.09-.05-.13-.02-.04-.03-.09-.05-.13-.02-.04-.03-.09-.05-.13-.02-.04-.03-.09-.04-.13-.01-.04-.03-.09-.04-.13-.01-.04-.03-.09-.04-.14-.01-.05-.02-.09-.03-.14s-.02-.09-.03-.14c0-.05-.02-.09-.03-.14s-.02-.09-.02-.14c0-.05-.01-.09-.02-.14s-.01-.09-.02-.14c0-.05-.01-.09-.01-.14,0-.05,0-.09-.01-.14s0-.09,0-.14c0-.05,0-.09,0-.14s0-.09,0-.14,0-.09,0-.14c0-.05,0-.09,0-.14,0-.05,0-.09,0-.14,0-.05,0-.09.01-.14,0-.05,0-.09.01-.14,0-.05.01-.09.02-.14s.01-.09.02-.14c0-.05.02-.09.02-.14,0-.05.02-.09.03-.14,0-.05.02-.09.03-.14s.02-.09.03-.14c.01-.05.02-.09.04-.14.01-.04.03-.09.04-.13.01-.04.03-.09.04-.13.02-.04.03-.09.05-.13.02-.04.03-.09.05-.13.02-.04.04-.09.05-.13.02-.04.04-.09.06-.13.02-.04.04-.09.06-.13s.04-.09.06-.13c.02-.04.04-.08.07-.13.02-.04.05-.08.07-.12.02-.04.05-.08.07-.12.03-.04.05-.08.08-.12.03-.04.05-.08.08-.12.03-.04.06-.08.08-.12.03-.04.06-.08.09-.12.03-.04.06-.08.09-.12.03-.04.06-.08.09-.11.03-.04.06-.07.1-.11.03-.04.07-.07.1-.11.03-.04.07-.07.11-.11.04-.04.07-.07.11-.1.04-.03.07-.07.11-.1.04-.03.07-.07.11-.1.04-.03.08-.06.11-.1.04-.03.08-.06.12-.09.04-.03.08-.06.12-.09.04-.03.08-.06.12-.09.04-.03.08-.05.12-.08s.08-.05.12-.08c.04-.03.08-.05.12-.07s.08-.05.12-.07c.04-.02.08-.05.13-.07.04-.02.08-.04.13-.06.04-.02.09-.04.13-.06s.09-.04.13-.06c.04-.02.09-.04.13-.05.04-.02.09-.03.13-.05.04-.02.09-.03.13-.05.04-.02.09-.03.13-.04.04-.01.09-.03.13-.04.04-.01.09-.03.14-.04.05-.01.09-.02.14-.03s.09-.02.14-.03c.05,0,.09-.02.14-.03.05,0,.09-.02.14-.02.05,0,.09-.01.14-.02.05,0,.09-.01.14-.02.05,0,.09-.01.14-.01.05,0,.09,0,.14-.01.05,0,.09,0,.14,0,.05,0,.09,0,.14,0,.05,0,.09,0,.14,0s.09,0,.14,0c.05,0,.09,0,.14,0,.05,0,.09,0,.14,0s.09,0,.14.01c.05,0,.09,0,.14.01.05,0,.09.01.14.02.05,0,.09.01.14.02.05,0,.09.02.14.02.05,0,.09.02.14.03s.09.02.14.03c.05.01.09.02.14.03.05.01.09.02.14.04.04.01.09.03.13.04.04.01.09.03.13.04.04.02.09.03.13.05.04.02.09.03.13.05.04.02.09.04.13.05.04.02.09.04.13.06.04.02.09.04.13.06.04.02.09.04.13.06s.08.04.13.07c.04.02.08.05.12.07.04.02.08.05.12.07.04.03.08.05.12.08.04.03.08.05.12.08.04.03.08.06.12.09.04.03.08.06.12.09.04.03.08.06.12.09.04.03.08.06.11.1.04.03.07.07.11.1.04.03.07.07.11.1.04.03.07.07.11.1.05.05.09.09.14.14.05.05.09.09.14.14.05.05.1.09.14.14.05.05.1.09.14.14.05.05.1.09.14.14.05.05.1.09.15.14.05.05.1.09.15.13.05.04.1.09.15.13.05.04.1.09.15.13.05.04.1.09.15.13s.1.09.15.13c.05.04.1.09.15.13.05.04.1.09.15.13.05.04.1.09.15.13.05.04.1.09.15.13.05.04.1.08.15.13.05.04.1.08.15.13.05.04.1.08.15.12.05.04.1.08.15.12s.1.08.16.12c.05.04.1.08.16.12.05.04.1.08.16.12.05.04.1.08.16.12.05.04.1.08.16.12.05.04.11.08.16.12.05.04.11.08.16.12.05.04.11.08.16.12.05.04.11.08.16.11.05.04.11.08.16.11.05.04.11.08.16.11.05.04.11.07.16.11.05.04.11.07.16.11s.11.07.16.11.11.07.16.11c.05.04.11.07.17.11.06.04.11.07.17.11.06.04.11.07.17.11.06.04.11.07.17.1.06.03.11.07.17.1.06.03.11.07.17.1.06.03.11.07.17.1s.11.07.17.1c.06.03.11.07.17.1.06.03.11.07.17.1.06.03.11.07.17.1.06.03.11.06.17.1.06.03.11.06.17.1.06.03.12.06.17.09.06.03.12.06.17.09.06.03.12.06.17.09s.12.06.18.09.12.06.18.09.12.06.18.09c.06.03.12.06.18.09.06.03.12.06.18.09.06.03.12.06.18.09s.12.06.18.09c.06.03.12.06.18.08.06.03.12.06.18.08.06.03.12.05.18.08.06.03.12.05.18.08.06.03.12.05.18.08.06.03.12.05.18.08.06.03.12.05.18.08.13.05.25.11.38.16s.25.1.38.15c.13.05.26.1.38.15s.26.1.38.14.26.09.39.14c.13.05.26.09.39.13.13.04.26.09.39.13.13.04.26.08.39.12.13.04.26.08.39.12s.26.08.39.11c.13.04.26.07.4.11.13.03.26.07.4.1.13.03.26.07.4.1.13.03.27.06.4.09.13.03.27.06.4.09.13.03.27.06.4.08.13.03.27.05.4.08.13.02.27.05.4.07.13.02.27.05.4.07s.27.04.4.06c.13.02.27.04.41.06.14.02.27.04.41.05s.27.03.41.05c.14.01.27.03.41.04.14.01.27.03.41.04.14.01.27.02.41.03.14.01.27.02.41.03.14,0,.27.02.41.02.14,0,.27.01.41.02.14,0,.27,0,.41.01s.27,0,.41,0,.27,0,.41,0,.27,0,.41,0c.14,0,.27,0,.41,0,.14,0,.27,0,.41-.01.14,0,.27-.01.41-.02.14,0,.27-.01.41-.02.14,0,.27-.02.41-.03s.27-.02.41-.03c.14-.01.27-.02.41-.04.14-.01.27-.03.41-.04.14-.01.27-.03.41-.05.14-.02.27-.03.41-.05.14-.02.27-.04.41-.06s.27-.04.4-.06.27-.04.4-.07c.13-.02.27-.05.4-.07.13-.03.27-.05.4-.08s.27-.05.4-.08c.13-.03.27-.06.4-.09.13-.03.27-.06.4-.09.13-.03.27-.06.4-.1.13-.03.26-.07.4-.1.13-.04.26-.07.4-.11.13-.04.26-.07.39-.11s.26-.08.39-.12c.13-.04.26-.08.39-.12.13-.04.26-.08.39-.13.13-.04.26-.09.39-.13.13-.04.26-.09.39-.14.13-.05.26-.09.39-.14.13-.05.26-.1.38-.15.13-.05.25-.1.38-.15s.25-.1.38-.16c.06-.03.12-.05.18-.08.06-.03.12-.05.18-.08s.12-.05.18-.08c.06-.03.12-.05.18-.08.06-.03.12-.05.18-.08.06-.03.12-.06.18-.08.06-.03.12-.06.18-.08.06-.03.12-.06.18-.09.06-.03.12-.06.18-.09.06-.03.12-.06.18-.09.06-.03.12-.06.18-.09.06-.03.12-.06.18-.09.06-.03.12-.06.18-.09.06-.03.12-.06.18-.09.06-.03.12-.06.17-.09.06-.03.12-.06.17-.09.06-.03.12-.06.17-.09.06-.03.12-.06.17-.1.06-.03.11-.06.17-.1.06-.03.11-.06.17-.1.06-.03.11-.07.17-.1.06-.03.11-.07.17-.1.06-.03.11-.07.17-.1.06-.03.11-.07.17-.1.06-.03.11-.07.17-.1.06-.03.11-.07.17-.1.06-.03.11-.07.17-.1.06-.04.11-.07.17-.11.06-.04.11-.07.17-.11.06-.04.11-.07.17-.11s.11-.07.16-.11.11-.07.16-.11c.05-.04.11-.07.16-.11.05-.04.11-.07.16-.11.05-.04.11-.07.16-.11.05-.04.11-.08.16-.11s.11-.08.16-.11c.05-.04.11-.08.16-.12.05-.04.11-.08.16-.12s.11-.08.16-.12c.05-.04.11-.08.16-.12.05-.04.1-.08.16-.12.05-.04.1-.08.16-.12.05-.04.1-.08.16-.12.05-.04.1-.08.16-.12.05-.04.1-.08.15-.12.05-.04.1-.08.15-.12.05-.04.1-.08.15-.13.05-.04.1-.08.15-.13s.1-.08.15-.13c.05-.04.1-.09.15-.13.05-.04.1-.09.15-.13s.1-.09.15-.13c.05-.04.1-.09.15-.13s.1-.09.15-.13c.05-.04.1-.09.15-.13.05-.04.1-.09.15-.13s.1-.09.15-.14c.05-.05.1-.09.15-.14.05-.05.1-.09.14-.14s.1-.09.14-.14c.05-.05.1-.09.14-.14s.1-.09.14-.14c.05-.05.09-.09.14-.14.05-.05.09-.09.14-.14.05-.05.09-.09.14-.14.05-.05.09-.1.14-.14.05-.05.09-.1.14-.14.05-.05.09-.1.14-.14.05-.05.09-.1.14-.15.05-.05.09-.1.14-.15.04-.05.09-.1.13-.15.04-.05.09-.1.13-.15.04-.05.09-.1.13-.15.04-.05.09-.1.13-.15.04-.05.09-.1.13-.15.04-.05.09-.1.13-.15.04-.05.09-.1.13-.15.04-.05.09-.1.13-.15s.08-.1.13-.15.08-.1.13-.15c.04-.05.08-.1.12-.15.04-.05.08-.1.12-.15.04-.05.08-.1.12-.16s.08-.1.12-.16c.04-.05.08-.1.12-.16.04-.05.08-.1.12-.16.04-.05.08-.11.12-.16.04-.05.08-.11.12-.16.04-.05.08-.11.12-.16.04-.05.08-.11.12-.16s.08-.11.11-.16c.04-.05.08-.11.11-.16.04-.05.08-.11.11-.16s.07-.11.11-.16c.04-.05.07-.11.11-.16.04-.05.07-.11.11-.16.04-.05.07-.11.11-.16.04-.05.07-.11.11-.17.04-.06.07-.11.11-.17.04-.06.07-.11.11-.17.03-.06.07-.11.1-.17.03-.06.07-.11.1-.17.03-.06.07-.11.1-.17.03-.06.07-.11.1-.17s.07-.11.1-.17c.03-.06.07-.11.1-.17.03-.06.07-.11.1-.17s.07-.11.1-.17c.03-.06.06-.11.1-.17.03-.06.06-.11.1-.17.03-.06.06-.12.09-.17.03-.06.06-.12.09-.17.03-.06.06-.12.09-.17.03-.06.06-.12.09-.18.03-.06.06-.12.09-.18.03-.06.06-.12.09-.18.03-.06.06-.12.09-.18.03-.06.06-.12.09-.18.03-.06.06-.12.09-.18.03-.06.06-.12.09-.18.03-.06.06-.12.08-.18s.06-.12.08-.18c.03-.06.05-.12.08-.18.03-.06.05-.12.08-.18.03-.06.05-.12.08-.18.03-.06.05-.12.08-.18.03-.06.05-.12.08-.18.03-.06.05-.13.08-.19s.05-.13.08-.19.05-.13.08-.19c.03-.06.05-.13.08-.19.03-.06.05-.13.07-.19.02-.06.05-.13.07-.19.02-.06.05-.13.07-.19.02-.06.05-.13.07-.19.02-.06.05-.13.07-.19.02-.06.05-.13.07-.19s.04-.13.07-.19c.02-.06.04-.13.07-.19.02-.06.04-.13.06-.19.02-.06.04-.13.06-.19s.04-.13.06-.19c.02-.06.04-.13.06-.19.02-.06.04-.13.06-.2.02-.07.04-.13.06-.2.02-.07.04-.13.06-.2.02-.07.04-.13.06-.2.02-.07.04-.13.05-.2.02-.07.04-.13.05-.2.02-.07.03-.13.05-.2.02-.07.03-.13.05-.2.02-.07.03-.13.05-.2.02-.07.03-.13.05-.2.02-.07.03-.13.05-.2.02-.07.03-.13.05-.2s.03-.13.04-.2c.01-.07.03-.13.04-.2.01-.07.03-.13.04-.2.01-.07.03-.13.04-.2.01-.07.03-.13.04-.2s.03-.13.04-.2c.01-.07.02-.13.04-.2.01-.07.02-.13.04-.2s.02-.13.03-.2c.01-.07.02-.13.03-.2.01-.07.02-.13.03-.2s.02-.13.03-.2.02-.13.03-.2c0-.07.02-.13.03-.2,0-.07.02-.14.03-.2,0-.07.02-.14.03-.2,0-.07.02-.14.02-.2s.02-.14.02-.2c0-.07.01-.14.02-.2,0-.07.01-.14.02-.2,0-.07.01-.14.02-.2,0-.07.01-.14.02-.2s.01-.14.02-.2c0-.07.01-.14.02-.2,0-.07,0-.14.01-.21,0-.07,0-.14.01-.21,0-.07,0-.14.01-.21s0-.14.01-.21c0-.07,0-.14,0-.21,0-.07,0-.14,0-.21,0-.07,0-.14,0-.21,0-.07,0-.14,0-.21,0-.07,0-.14,0-.21,0-.07,0-.14,0-.21,0-.07,0-.14,0-.21,0-.07,0-.14,0-.21s0-.14,0-.21c0-.07,0-.14,0-.21,0-.07,0-.14,0-.21,0-.07,0-.14,0-.21,0-.07,0-.14,0-.21s0-.14,0-.21c0-.07,0-.14,0-.21,0-.07,0-.14,0-.21,0-.07,0-.14-.01-.21,0-.07,0-.14-.01-.21,0-.07,0-.14-.01-.21,0-.07,0-.14-.01-.21,0-.07-.01-.14-.02-.2,0-.07-.01-.14-.02-.2,0-.07-.01-.14-.02-.2,0-.07-.01-.14-.02-.2,0-.07-.01-.14-.02-.2s-.01-.14-.02-.2-.02-.14-.02-.2-.02-.14-.02-.2c0-.07-.02-.14-.03-.2,0-.07-.02-.14-.03-.2,0-.07-.02-.14-.03-.2s-.02-.13-.03-.2c-.01-.07-.02-.13-.03-.2s-.02-.13-.03-.2c-.01-.07-.02-.13-.03-.2-.01-.07-.02-.13-.03-.2-.01-.07-.02-.13-.04-.2-.01-.07-.02-.13-.04-.2-.01-.07-.03-.13-.04-.2-.01-.07-.03-.13-.04-.2-.01-.07-.03-.13-.04-.2-.01-.07-.03-.13-.04-.2-.01-.07-.03-.13-.04-.2s-.03-.13-.04-.2c-.02-.07-.03-.13-.05-.2-.02-.07-.03-.13-.05-.2-.02-.07-.03-.13-.05-.2s-.03-.13-.05-.2c-.02-.07-.03-.13-.05-.2s-.03-.13-.05-.2c-.02-.07-.04-.13-.05-.2-.02-.07-.04-.13-.05-.2-.02-.07-.04-.13-.06-.2-.02-.07-.04-.13-.06-.2s-.04-.13-.06-.2c-.02-.07-.04-.13-.06-.2s-.04-.13-.06-.19c-.02-.06-.04-.13-.06-.19-.02-.06-.04-.13-.06-.19-.02-.06-.04-.13-.06-.19-.02-.06-.04-.13-.07-.19-.02-.06-.04-.13-.07-.19-.02-.06-.05-.13-.07-.19s-.05-.13-.07-.19-.05-.13-.07-.19c-.02-.06-.05-.13-.07-.19-.02-.06-.05-.13-.07-.19-.02-.06-.05-.13-.07-.19-.03-.06-.05-.13-.08-.19-.03-.06-.05-.13-.08-.19-.03-.06-.05-.13-.08-.19-.03-.06-.05-.13-.08-.19-.03-.06-.05-.12-.08-.18-.03-.06-.05-.12-.08-.18-.03-.06-.05-.12-.08-.18-.03-.06-.05-.12-.08-.18-.03-.06-.05-.12-.08-.18-.03-.06-.06-.12-.08-.18-.03-.06-.06-.12-.08-.18-.03-.06-.06-.12-.09-.18-.03-.06-.06-.12-.09-.18-.03-.06-.06-.12-.09-.18-.03-.06-.06-.12-.09-.18-.03-.06-.06-.12-.09-.18-.03-.06-.06-.12-.09-.18-.03-.06-.06-.12-.09-.17-.03-.06-.06-.12-.09-.17-.03-.06-.06-.12-.09-.17-.03-.06-.06-.12-.09-.17-.03-.06-.06-.12-.1-.17-.03-.06-.06-.11-.1-.17-.03-.06-.06-.11-.1-.17-.03-.06-.07-.11-.1-.17-.03-.06-.07-.11-.1-.17s-.07-.11-.1-.17-.07-.11-.1-.17c-.03-.06-.07-.11-.1-.17-.03-.06-.07-.11-.1-.17-.03-.06-.07-.11-.1-.17-.04-.06-.07-.11-.11-.17s-.07-.11-.11-.17c-.04-.06-.07-.11-.11-.16-.04-.05-.07-.11-.11-.16-.04-.05-.07-.11-.11-.16-.04-.05-.07-.11-.11-.16-.04-.05-.07-.11-.11-.16-.04-.05-.07-.11-.11-.16-.04-.05-.08-.11-.11-.16-.04-.05-.08-.11-.11-.16s-.08-.11-.12-.16c-.04-.05-.08-.11-.12-.16-.04-.05-.08-.11-.12-.16-.04-.05-.08-.11-.12-.16s-.08-.1-.12-.16c-.04-.05-.08-.1-.12-.16-.04-.05-.08-.1-.12-.16s-.08-.1-.12-.16-.08-.1-.12-.15c-.04-.05-.08-.1-.12-.15-.04-.05-.08-.1-.13-.15s-.08-.1-.13-.15-.08-.1-.13-.15c-.04-.05-.09-.1-.13-.15-.04-.05-.09-.1-.13-.15-.04-.05-.09-.1-.13-.15s-.09-.1-.13-.15c-.04-.05-.09-.1-.13-.15-.04-.05-.09-.1-.13-.15-.04-.05-.09-.1-.13-.15-.04-.05-.09-.1-.14-.15-.05-.05-.09-.1-.14-.15-.05-.05-.09-.1-.14-.14-.05-.05-.09-.1-.14-.14-.05-.05-.09-.1-.14-.14-.05-.05-.09-.1-.14-.14-.05-.05-.09-.09-.14-.14-.05-.05-.09-.09-.14-.14-.05-.05-.09-.09-.14-.14-.05-.05-.1-.09-.14-.14-.05-.05-.1-.09-.14-.14-.05-.05-.1-.09-.14-.14-.05-.05-.1-.09-.15-.14-.05-.05-.1-.09-.15-.14s-.1-.09-.15-.13c-.05-.04-.1-.09-.15-.13-.05-.04-.1-.09-.15-.13s-.1-.09-.15-.13c-.05-.04-.1-.09-.15-.13s-.1-.09-.15-.13c-.05-.04-.1-.09-.15-.13-.05-.04-.1-.09-.15-.13-.05-.04-.1-.08-.15-.13-.05-.04-.1-.08-.15-.13-.05-.04-.1-.08-.15-.12-.05-.04-.1-.08-.15-.12s-.1-.08-.16-.12c-.05-.04-.1-.08-.16-.12-.05-.04-.1-.08-.16-.12-.05-.04-.1-.08-.16-.12s-.11-.08-.16-.12c-.05-.04-.11-.08-.16-.12-.05-.04-.11-.08-.16-.12-.05-.04-.11-.08-.16-.12-.05-.04-.11-.08-.16-.11-.05-.04-.11-.08-.16-.11-.05-.04-.11-.08-.16-.11-.05-.04-.11-.07-.16-.11-.05-.04-.11-.07-.16-.11-.05-.04-.11-.07-.16-.11-.05-.04-.11-.07-.16-.11-.05-.04-.11-.07-.17-.11-.06-.04-.11-.07-.17-.11-.06-.04-.11-.07-.17-.11-.06-.03-.11-.07-.17-.1-.06-.03-.11-.07-.17-.1s-.11-.07-.17-.1c-.06-.03-.11-.07-.17-.1s-.11-.07-.17-.1c-.06-.03-.11-.07-.17-.1-.06-.03-.11-.07-.17-.1-.06-.03-.11-.07-.17-.1-.06-.03-.11-.06-.17-.1-.06-.03-.11-.06-.17-.1-.06-.03-.12-.06-.17-.09-.06-.03-.12-.06-.17-.09-.06-.03-.12-.06-.17-.09-.06-.03-.12-.06-.18-.09s-.12-.06-.18-.09c-.06-.03-.12-.06-.18-.09-.06-.03-.12-.06-.18-.09-.06-.03-.12-.06-.18-.09-.06-.03-.12-.06-.18-.09-.06-.03-.12-.06-.18-.09-.06-.03-.12-.06-.18-.08s-.12-.06-.18-.08c-.06-.03-.12-.05-.18-.08-.06-.03-.12-.05-.18-.08-.06-.03-.12-.05-.18-.08-.06-.03-.12-.05-.18-.08-.06-.03-.12-.05-.18-.08-.13-.05-.25-.11-.38-.16-.13-.05-.25-.1-.38-.15-.13-.05-.26-.1-.38-.15-.13-.05-.26-.1-.39-.14-.13-.05-.26-.09-.39-.14-.13-.05-.26-.09-.39-.13-.13-.04-.26-.09-.39-.13-.13-.04-.26-.08-.39-.12-.13-.04-.26-.08-.39-.12-.13-.04-.26-.08-.39-.11-.13-.04-.26-.07-.4-.11-.13-.04-.26-.07-.4-.1-.13-.03-.26-.07-.4-.1-.13-.03-.27-.06-.4-.09-.13-.03-.27-.06-.4-.09-.13-.03-.27-.06-.4-.08s-.27-.05-.4-.08c-.13-.03-.27-.05-.4-.07-.13-.02-.27-.05-.4-.07-.13-.02-.27-.04-.4-.06-.13-.02-.27-.04-.41-.06-.14-.02-.27-.04-.41-.05-.14-.02-.27-.03-.41-.05-.14-.01-.27-.03-.41-.04-.14-.01-.27-.03-.41-.04-.14-.01-.27-.02-.41-.03s-.27-.02-.41-.03c-.14,0-.27-.02-.41-.02-.14,0-.27-.01-.41-.02-.14,0-.27,0-.41-.01-.14,0-.27,0-.41,0-.14,0-.27,0-.41,0s-.27,0-.41,0-.27,0-.41,0c-.14,0-.27,0-.41.01-.14,0-.27.01-.41.02-.14,0-.27.01-.41.02-.14,0-.27.02-.41.03s-.27.02-.41.03c-.14.01-.27.02-.41.04-.14.01-.27.03-.41.04-.14.02-.27.03-.41.05-.14.02-.27.03-.41.05-.14.02-.27.04-.41.06s-.27.04-.4.06c-.13.02-.27.04-.4.07-.13.02-.27.05-.4.07-.13.02-.27.05-.4.08s-.27.05-.4.08c-.13.03-.27.06-.4.09-.13.03-.27.06-.4.09-.13.03-.27.06-.4.1-.13.03-.26.07-.4.1-.13.03-.26.07-.4.11-.13.04-.26.07-.39.11-.13.04-.26.08-.39.12-.13.04-.26.08-.39.12-.13.04-.26.08-.39.13-.13.04-.26.09-.39.13-.13.05-.26.09-.39.14-.13.05-.26.09-.39.14-.13.05-.26.1-.38.15-.13.05-.25.1-.38.15-.13.05-.25.1-.38.16-.06.03-.12.05-.18.08-.06.03-.12.05-.18.08-.06.03-.12.05-.18.08-.06.03-.12.05-.18.08-.06.03-.12.05-.18.08-.06.03-.12.06-.18.08-.06.03-.12.06-.18.08-.06.03-.12.06-.18.09-.06.03-.12.06-.18.09-.06.03-.12.06-.18.09-.06.03-.12.06-.18.09-.06.03-.12.06-.18.09-.06.03-.12.06-.18.09s-.12.06-.18.09c-.06.03-.12.06-.17.09-.06.03-.12.06-.17.09-.06.03-.12.06-.17.09-.06.03-.12.06-.17.1-.06.03-.11.06-.17.1-.06.03-.11.06-.17.1-.06.03-.11.07-.17.1-.06.03-.11.07-.17.1-.06.03-.11.07-.17.1-.06.03-.11.07-.17.1-.06.03-.11.07-.17.1s-.11.07-.17.1c-.06.03-.11.07-.17.1-.06.04-.11.07-.17.11-.06.04-.11.07-.17.11-.06.04-.11.07-.16.11-.05.04-.11.07-.16.11-.05.04-.11.07-.16.11-.05.04-.11.07-.16.11-.05.04-.11.07-.16.11-.05.04-.11.07-.16.11-.05.04-.11.08-.16.11-.05.04-.11.08-.16.11-.05.04-.11.08-.16.12-.05.04-.11.08-.16.12s-.11.08-.16.12-.11.08-.16.12-.1.08-.16.12c-.05.04-.1.08-.16.12-.05.04-.1.08-.16.12-.05.04-.1.08-.16.12s-.1.08-.15.12c-.05.04-.1.08-.15.12-.05.04-.1.08-.15.13-.05.04-.1.08-.15.13-.05.04-.1.08-.15.13-.05.04-.1.09-.15.13s-.1.09-.15.13-.1.09-.15.13-.1.09-.15.13c-.05.04-.1.09-.15.13-.05.04-.1.09-.15.13-.05.04-.1.09-.15.13-.05.04-.1.09-.15.14-.05.05-.1.09-.15.14-.05.05-.1.09-.14.14-.05.05-.1.09-.14.14-.05.05-.1.09-.14.14-.05.05-.09.09-.14.14-.05.05-.09.09-.14.14s-.09.09-.14.14c-.05.05-.09.09-.14.14-.05.05-.09.1-.14.14-.05.05-.09.1-.14.14-.05.05-.09.1-.14.14-.05.05-.09.1-.14.15-.05.05-.09.1-.14.15-.04.05-.09.1-.13.15-.04.05-.09.1-.13.15-.04.05-.09.1-.13.15-.04.05-.09.1-.13.15s-.09.1-.13.15c-.04.05-.09.1-.13.15-.04.05-.09.1-.13.15-.04.05-.09.1-.13.15-.04.05-.08.1-.13.15-.04.05-.08.1-.13.15-.04.05-.08.1-.12.15-.04.05-.08.1-.12.15s-.08.1-.12.16c-.04.05-.08.1-.12.16-.04.05-.08.1-.12.16s-.08.1-.12.16-.08.11-.12.16c-.04.05-.08.11-.12.16s-.08.11-.12.16c-.04.05-.08.11-.12.16-.04.05-.08.11-.11.16-.04.05-.08.11-.11.16s-.08.11-.11.16c-.04.05-.07.11-.11.16-.04.05-.07.11-.11.16-.04.05-.07.11-.11.16-.04.05-.07.11-.11.16-.04.05-.07.11-.11.16-.04.06-.07.11-.11.17-.04.06-.07.11-.11.17-.04.06-.07.11-.1.17-.03.06-.07.11-.1.17-.03.06-.07.11-.1.17-.03.06-.07.11-.1.17s-.07.11-.1.17-.07.11-.1.17-.07.11-.1.17c-.03.06-.07.11-.1.17-.03.06-.06.11-.1.17-.03.06-.06.11-.1.17-.03.06-.06.12-.09.17-.03.06-.06.12-.09.17-.03.06-.06.12-.09.17-.03.06-.06.12-.09.17-.03.06-.06.12-.09.18-.03.06-.06.12-.09.18-.03.06-.06.12-.09.18-.03.06-.06.12-.09.18-.03.06-.06.12-.09.18-.03.06-.06.12-.09.18-.03.06-.06.12-.08.18-.03.06-.06.12-.08.18-.03.06-.05.12-.08.18-.03.06-.05.12-.08.18-.03.06-.05.12-.08.18-.03.06-.05.12-.08.18s-.05.12-.08.18c-.02.05-.04.09-.06.14s-.04.09-.06.14c-.02.04-.04.09-.07.13-.02.04-.05.09-.07.13-.02.04-.05.09-.07.13-.02.04-.05.08-.08.13-.03.04-.05.08-.08.12-.03.04-.05.08-.08.12-.03.04-.06.08-.08.12-.03.04-.06.08-.09.12s-.06.08-.09.11c-.03.04-.06.07-.09.11-.03.04-.06.07-.09.11-.03.04-.06.07-.1.11-.03.03-.07.07-.1.1-.03.03-.07.07-.1.1-.03.03-.07.07-.1.1-.03.03-.07.06-.1.09-.04.03-.07.06-.11.09-.04.03-.07.06-.11.09-.04.03-.07.06-.11.09-.04.03-.07.06-.11.08-.04.03-.08.05-.11.08-.04.03-.08.05-.12.08-.04.03-.08.05-.12.07-.04.02-.08.05-.12.07-.04.02-.08.05-.12.07-.04.02-.08.04-.12.07-.04.02-.08.04-.12.06s-.08.04-.13.06c-.04.02-.08.04-.13.06-.04.02-.09.04-.13.05-.04.02-.09.03-.13.05-.04.02-.09.03-.13.05-.04.02-.09.03-.13.04-.04.01-.09.03-.13.04-.04.01-.09.03-.13.04-.04.01-.09.02-.14.04s-.09.02-.14.03-.09.02-.14.03c-.05,0-.09.02-.14.03-.05,0-.09.02-.14.02-.05,0-.09.01-.14.02-.05,0-.09.01-.14.02-.05,0-.09,0-.14.01-.05,0-.09,0-.14,0-.05,0-.09,0-.14,0s-.09,0-.14,0-.09,0-.14,0c-.05,0-.09,0-.14,0-.05,0-.09,0-.14,0-.05,0-.1,0-.14-.01-.05,0-.1,0-.14-.02s-.1-.01-.14-.02c-.05,0-.1-.01-.14-.02-.05,0-.1-.02-.14-.03s-.09-.02-.14-.03c-.05-.01-.09-.02-.14-.03-.05-.01-.09-.02-.14-.04-.05-.01-.09-.03-.14-.04-.05-.01-.09-.03-.14-.05-.05-.02-.09-.03-.14-.05-.05-.02-.09-.03-.14-.05-.05-.02-.09-.04-.14-.06-.05-.02-.09-.04-.14-.06s-.09-.04-.14-.06c-.04-.02-.09-.04-.13-.07-.04-.02-.09-.05-.13-.07-.04-.02-.09-.05-.13-.07s-.08-.05-.13-.08c-.04-.03-.08-.05-.12-.08-.04-.03-.08-.05-.12-.08-.04-.03-.08-.06-.12-.08-.04-.03-.08-.06-.12-.09-.04-.03-.08-.06-.11-.09-.04-.03-.07-.06-.11-.09-.04-.03-.07-.06-.11-.09-.04-.03-.07-.06-.11-.1-.03-.03-.07-.07-.1-.1-.03-.03-.07-.07-.1-.1-.03-.03-.07-.07-.1-.1-.03-.03-.06-.07-.09-.1-.03-.04-.06-.07-.09-.11-.03-.04-.06-.07-.09-.11-.03-.04-.06-.07-.09-.11-.03-.04-.06-.07-.08-.11-.03-.04-.05-.08-.08-.11-.03-.04-.05-.08-.08-.12s-.05-.08-.08-.12c-.02-.04-.05-.08-.07-.12-.02-.04-.05-.08-.07-.12-.02-.04-.04-.08-.07-.12-.02-.04-.04-.08-.06-.12-.02-.04-.04-.08-.06-.13-.02-.04-.04-.08-.06-.13-.02-.04-.04-.09-.05-.13-.02-.04-.03-.09-.05-.13-.02-.04-.03-.09-.05-.13-.02-.04-.03-.09-.04-.13-.01-.04-.03-.09-.04-.13-.01-.04-.03-.09-.04-.13-.01-.04-.02-.09-.04-.14s-.02-.09-.03-.14c-.01-.05-.02-.09-.03-.14,0-.05-.02-.09-.03-.14s-.02-.09-.02-.14c0-.05-.01-.09-.02-.14,0-.05-.01-.09-.02-.14,0-.05,0-.09-.01-.14,0-.05,0-.09,0-.14,0-.05,0-.09,0-.14,0-.05,0-.09,0-.14,0-.05,0-.09,0-.14,0-.05,0-.09,0-.14,0-.05,0-.09,0-.14s0-.09.01-.14c0-.05,0-.1.02-.14,0-.05.01-.09.02-.14,0-.05.01-.09.02-.14s.02-.09.03-.14c0-.05.02-.09.03-.14.01-.05.02-.09.03-.14s.02-.09.04-.14c.01-.05.03-.09.04-.14.01-.05.03-.09.05-.14s.03-.09.05-.14.03-.09.05-.14c.02-.05.04-.09.06-.14.03-.08.07-.17.11-.25.04-.08.07-.16.11-.25.04-.08.07-.16.11-.25.04-.08.07-.16.11-.25.04-.08.07-.16.11-.24.04-.08.07-.16.11-.24.04-.08.08-.16.11-.24.04-.08.08-.16.12-.24s.08-.16.12-.24.08-.16.12-.24c.04-.08.08-.16.12-.24.04-.08.08-.16.12-.24s.08-.16.12-.24c.04-.08.08-.16.12-.24.04-.08.08-.16.13-.24.04-.08.08-.16.13-.24.04-.08.09-.16.13-.23.04-.08.09-.16.13-.23.04-.08.09-.16.13-.23.04-.08.09-.16.13-.23.04-.08.09-.15.13-.23.04-.08.09-.15.13-.23.05-.08.09-.15.14-.23.05-.08.09-.15.14-.23s.09-.15.14-.23c.05-.08.09-.15.14-.23s.09-.15.14-.23c.05-.08.1-.15.14-.23.05-.07.1-.15.14-.22.05-.07.1-.15.15-.22s.1-.15.15-.22c.05-.07.1-.15.15-.22.05-.07.1-.15.15-.22.05-.07.1-.15.15-.22.05-.07.1-.15.15-.22.05-.07.1-.15.15-.22.05-.07.1-.14.16-.22s.1-.14.16-.22c.05-.07.11-.14.16-.22.05-.07.11-.14.16-.21s.11-.14.16-.21c.05-.07.11-.14.16-.21.05-.07.11-.14.16-.21.05-.07.11-.14.16-.21.06-.07.11-.14.17-.21.06-.07.11-.14.17-.21s.11-.14.17-.21c.06-.07.11-.14.17-.21.06-.07.11-.14.17-.21.06-.07.11-.14.17-.21.06-.07.12-.14.17-.2.06-.07.12-.14.18-.2.06-.07.12-.14.18-.2.06-.07.12-.13.18-.2.06-.07.12-.13.18-.2.06-.07.12-.13.18-.2.06-.07.12-.13.18-.2s.12-.13.18-.2c.06-.07.12-.13.18-.2.06-.07.12-.13.19-.2s.12-.13.19-.19c.06-.06.13-.13.19-.19.06-.06.13-.13.19-.19.06-.06.13-.13.19-.19.06-.06.13-.13.19-.19.06-.06.13-.13.19-.19.06-.06.13-.13.19-.19.06-.06.13-.12.19-.19.07-.06.13-.12.2-.19.07-.06.13-.12.2-.18.07-.06.13-.12.2-.18.07-.06.13-.12.2-.18.07-.06.13-.12.2-.18.07-.06.13-.12.2-.18.07-.06.13-.12.2-.18s.13-.12.2-.18c.07-.06.14-.12.2-.17.07-.06.14-.12.2-.17.07-.06.14-.12.21-.17.07-.06.14-.11.21-.17.07-.06.14-.11.21-.17.07-.06.14-.11.21-.17.07-.06.14-.11.21-.17.07-.06.14-.11.21-.17.07-.06.14-.11.21-.16.07-.05.14-.11.21-.16.07-.05.14-.11.21-.16.07-.05.14-.11.21-.16.07-.05.14-.11.21-.16.07-.05.14-.11.22-.16.07-.05.14-.1.22-.16.07-.05.14-.1.22-.16.07-.05.15-.1.22-.15.07-.05.15-.1.22-.15.07-.05.15-.1.22-.15.07-.05.15-.1.22-.15.07-.05.15-.1.22-.15.07-.05.15-.1.22-.15.07-.05.15-.1.22-.15.07-.05.15-.1.22-.14.07-.05.15-.1.23-.14.08-.05.15-.09.23-.14.08-.05.15-.09.23-.14.08-.05.15-.09.23-.14.08-.05.15-.09.23-.14.08-.05.15-.09.23-.14.08-.05.15-.09.23-.13.08-.04.15-.09.23-.13.08-.04.15-.09.23-.13.08-.04.16-.09.23-.13.08-.04.16-.09.23-.13s.16-.09.23-.13c.08-.04.16-.08.24-.13.08-.04.16-.08.24-.13.08-.04.16-.08.24-.12.08-.04.16-.08.24-.12.08-.04.16-.08.24-.12.08-.04.16-.08.24-.12.08-.04.16-.08.24-.12.08-.04.16-.08.24-.12.08-.04.16-.08.24-.12.08-.04.16-.08.24-.11.08-.04.16-.08.24-.11.08-.04.16-.07.24-.11.08-.04.16-.07.25-.11.08-.04.16-.07.25-.11s.16-.07.25-.11c.08-.04.17-.07.25-.11.17-.07.34-.14.52-.21.17-.07.35-.14.52-.21.17-.07.35-.13.52-.2.17-.07.35-.13.52-.19.17-.06.35-.13.53-.19.18-.06.35-.12.53-.18.18-.06.35-.12.53-.17.18-.06.35-.11.53-.17.18-.05.35-.11.53-.16.18-.05.36-.1.53-.15.18-.05.36-.1.54-.15.18-.05.36-.09.54-.14.18-.05.36-.09.54-.13.18-.04.36-.08.54-.13.18-.04.36-.08.54-.12.18-.04.36-.08.54-.11.18-.04.36-.07.54-.11s.36-.07.55-.1c.18-.03.36-.06.55-.09.18-.03.37-.06.55-.08s.37-.05.55-.08c.18-.02.37-.05.55-.07.18-.02.37-.04.55-.06.18-.02.37-.04.55-.06.18-.02.37-.04.55-.05.18-.02.37-.03.55-.04s.37-.03.55-.04c.18-.01.37-.02.55-.03.18,0,.37-.02.55-.02.18,0,.37-.01.55-.02.18,0,.37,0,.55-.01.18,0,.37,0,.55,0s.37,0,.55,0c.18,0,.37,0,.55.01.18,0,.37.01.55.02.18,0,.37.01.55.02.18,0,.37.02.55.03.18.01.37.02.55.04.18.01.37.03.55.04.18.02.37.03.55.05.18.02.37.04.55.06.18.02.37.04.55.06.18.02.37.05.55.07.18.02.37.05.55.08s.37.06.55.08c.18.03.36.06.55.09.18.03.36.06.55.1.18.03.36.07.54.11.18.04.36.07.54.11.18.04.36.08.54.12.18.04.36.08.54.13s.36.09.54.13c.18.05.36.09.54.14.18.05.36.1.54.15.18.05.36.1.53.15.18.05.36.11.53.16s.35.11.53.17c.18.06.35.11.53.17.18.06.35.12.53.18.18.06.35.12.52.19.17.06.35.13.52.19.17.07.35.13.52.2.17.07.35.14.52.21.17.07.34.14.52.21.08.03.17.07.25.11.08.04.16.07.25.11.08.04.16.07.25.11.08.04.16.07.25.11.08.04.16.07.24.11.08.04.16.07.24.11.08.04.16.08.24.11s.16.08.24.12c.08.04.16.08.24.12s.16.08.24.12c.08.04.16.08.24.12.08.04.16.08.24.12.08.04.16.08.24.12.08.04.16.08.24.12.08.04.16.08.24.13.08.04.16.08.24.13.08.04.16.09.23.13.08.04.16.09.23.13.08.04.16.09.23.13.08.04.15.09.23.13.08.04.15.09.23.13.08.04.15.09.23.13s.15.09.23.14c.08.05.15.09.23.14.08.05.15.09.23.14.08.05.15.09.23.14.08.05.15.09.23.14.08.05.15.1.23.14.07.05.15.1.22.14.07.05.15.1.22.15s.15.1.22.15c.07.05.15.1.22.15.07.05.15.1.22.15.07.05.15.1.22.15.07.05.15.1.22.15s.15.1.22.15.14.1.22.16c.07.05.14.1.22.16s.14.1.22.16c.07.05.14.11.21.16.07.05.14.11.21.16.07.05.14.11.21.16.07.05.14.11.21.16.07.05.14.11.21.16s.14.11.21.17c.07.06.14.11.21.17.07.06.14.11.21.17.07.06.14.11.21.17.07.06.14.11.21.17.07.06.14.11.21.17.07.06.14.12.2.17.07.06.14.12.2.18s.14.12.2.18c.07.06.13.12.2.18.07.06.13.12.2.18.07.06.13.12.2.18.07.06.13.12.2.18.07.06.13.12.2.18.07.06.13.12.2.18.07.06.13.12.2.19.07.06.13.12.19.19.06.06.13.13.19.19.06.06.13.13.19.19.06.06.13.13.19.19.06.06.13.13.19.19.06.06.13.13.19.19.06.06.13.13.19.19.06.06.12.13.19.19.06.07.12.13.19.2.06.07.12.13.18.2.06.07.12.13.18.2.06.07.12.13.18.2.06.07.12.13.18.2.06.07.12.13.18.2s.12.13.18.2c.06.07.12.13.18.2.06.07.12.14.18.2.06.07.12.14.17.2.06.07.12.14.17.21.06.07.11.14.17.21.06.07.11.14.17.21.06.07.11.14.17.21s.11.14.17.21c.06.07.11.14.17.21.06.07.11.14.16.21.05.07.11.14.16.21.05.07.11.14.16.21.05.07.11.14.16.21.05.07.11.14.16.21.05.07.11.14.16.22.05.07.1.14.16.22s.1.14.16.22c.05.07.1.15.15.22.05.07.1.15.15.22.05.07.1.15.15.22.05.07.1.15.15.22.05.07.1.15.15.22s.1.15.15.22c.05.07.1.15.15.22.05.07.1.15.14.22.05.07.1.15.14.23.05.08.09.15.14.23.05.08.09.15.14.23.05.08.09.15.14.23s.09.15.14.23c.05.08.09.15.14.23.05.08.09.15.13.23.04.08.09.15.13.23.04.08.09.15.13.23.04.08.09.16.13.23.04.08.09.16.13.23s.09.16.13.23c.04.08.08.16.13.24.04.08.08.16.13.24.04.08.08.16.12.24.04.08.08.16.12.24s.08.16.12.24c.04.08.08.16.12.24.04.08.08.16.12.24.04.08.08.16.12.24.04.08.08.16.12.24.04.08.08.16.11.24.04.08.08.16.11.24s.07.16.11.24c.04.08.07.16.11.25s.07.16.11.25c.04.08.07.16.11.25.04.08.07.17.11.25.04.09.07.17.11.26.04.09.07.17.11.26.04.09.07.17.1.26s.07.17.1.26c.03.09.07.17.1.26.03.09.07.17.1.26.03.09.07.17.1.26.03.09.06.17.1.26.03.09.06.17.09.26.03.09.06.17.09.26.03.09.06.17.09.26s.06.18.09.26c.03.09.06.18.09.26.03.09.06.18.09.26.03.09.06.18.08.26.03.09.06.18.08.26.03.09.05.18.08.26.03.09.05.18.08.27.03.09.05.18.08.27.03.09.05.18.08.27s.05.18.07.27c.02.09.05.18.07.27.02.09.05.18.07.27.02.09.05.18.07.27.02.09.05.18.07.27.02.09.04.18.07.27.02.09.04.18.06.27.02.09.04.18.06.27.02.09.04.18.06.27.02.09.04.18.06.27s.04.18.06.27.04.18.06.27c.02.09.04.18.05.27.02.09.04.18.05.27.02.09.03.18.05.27.02.09.03.18.05.27.02.09.03.18.05.27.02.09.03.18.05.27.01.09.03.18.04.27.01.09.03.18.04.27s.03.18.04.27c.01.09.03.18.04.27.01.09.02.18.04.27.01.09.02.18.04.28.01.09.02.18.03.28.01.09.02.18.03.28.01.09.02.18.03.28,0,.09.02.18.03.28,0,.09.02.18.03.28,0,.09.02.18.02.28,0,.09.02.18.02.28,0,.09.01.18.02.28,0,.09.01.19.02.28,0,.09.01.19.02.28,0,.09.01.19.02.28,0,.09.01.19.01.28,0,.09,0,.19.01.28,0,.09,0,.19.01.28,0,.09,0,.19,0,.28,0,.09,0,.19,0,.28,0,.09,0,.19,0,.28,0,.09,0,.19,0,.28,0,.09,0,.19,0,.28,0,.09,0,.19,0,.28s0,.19,0,.28c0,.09,0,.19,0,.28,0,.09,0,.19,0,.28,0,.09,0,.19,0,.28s0,.19,0,.28c0,.09,0,.19,0,.28,0,.09,0,.19-.01.28,0,.09,0,.19-.01.28,0,.09,0,.19-.01.28,0,.09-.01.19-.02.28s-.01.19-.02.28-.01.19-.02.28c0,.09-.01.19-.02.28,0,.09-.02.18-.02.28s-.02.18-.02.28c0,.09-.02.18-.03.28,0,.09-.02.18-.03.28,0,.09-.02.18-.03.28-.01.09-.02.18-.03.28-.01.09-.02.18-.03.28-.01.09-.02.18-.04.28-.01.09-.02.18-.04.27-.01.09-.03.18-.04.27-.01.09-.03.18-.04.27s-.03.18-.04.27c-.01.09-.03.18-.04.27-.01.09-.03.18-.05.27-.02.09-.03.18-.05.27-.02.09-.03.18-.05.27-.02.09-.03.18-.05.27s-.03.18-.05.27c-.02.09-.04.18-.05.27-.02.09-.04.18-.06.27s-.04.18-.06.27c-.02.09-.04.18-.06.27-.02.09-.04.18-.06.27-.02.09-.04.18-.06.27-.02.09-.04.18-.06.27-.02.09-.04.18-.07.27-.02.09-.04.18-.07.27-.02.09-.05.18-.07.27-.02.09-.05.18-.07.27-.02.09-.05.18-.07.27-.02.09-.05.18-.07.27-.02.09-.05.18-.08.27-.03.09-.05.18-.08.27-.03.09-.05.18-.08.27-.03.09-.05.18-.08.26-.03.09-.05.18-.08.26-.03.09-.06.18-.08.26-.03.09-.06.18-.09.26-.03.09-.06.18-.09.26-.03.09-.06.18-.09.26-.03.09-.06.17-.09.26-.03.09-.06.17-.09.26-.03.09-.06.17-.09.26-.03.09-.06.17-.1.26-.03.09-.06.17-.1.26-.03.09-.07.17-.1.26-.03.09-.07.17-.1.26-.03.09-.07.17-.1.26-.03.09-.07.17-.1.26-.04.09-.07.17-.11.26-.04.09-.07.17-.11.26-.03.08-.07.17-.11.25-.04.08-.07.16-.11.25-.04.08-.07.16-.11.25-.04.08-.07.16-.11.25-.04.08-.07.16-.11.24-.04.08-.07.16-.11.24-.04.08-.08.16-.11.24-.04.08-.08.16-.12.24-.04.08-.08.16-.12.24-.04.08-.08.16-.12.24-.04.08-.08.16-.12.24-.04.08-.08.16-.12.24s-.08.16-.12.24c-.04.08-.08.16-.12.24-.04.08-.08.16-.13.24-.04.08-.08.16-.13.24-.04.08-.09.16-.13.23-.04.08-.09.16-.13.23-.04.08-.09.16-.13.23-.04.08-.09.15-.13.23-.04.08-.09.15-.13.23-.04.08-.09.15-.13.23-.05.08-.09.15-.14.23-.05.08-.09.15-.14.23-.05.08-.09.15-.14.23-.05.08-.09.15-.14.23-.05.08-.09.15-.14.23-.05.08-.1.15-.14.23-.05.07-.1.15-.14.22-.05.07-.1.15-.15.22-.05.07-.1.15-.15.22-.05.07-.1.15-.15.22-.05.07-.1.15-.15.22-.05.07-.1.15-.15.22-.05.07-.1.15-.15.22s-.1.15-.15.22c-.05.07-.1.14-.16.22-.05.07-.1.14-.16.22-.05.07-.11.14-.16.22-.05.07-.11.14-.16.21-.05.07-.11.14-.16.21-.05.07-.11.14-.16.21-.05.07-.11.14-.16.21-.05.07-.11.14-.16.21-.06.07-.11.14-.17.21-.06.07-.11.14-.17.21-.06.07-.11.14-.17.21-.06.07-.11.14-.17.21-.06.07-.11.14-.17.21-.06.07-.11.14-.17.21-.06.07-.12.14-.17.2-.06.07-.12.14-.18.2-.06.07-.12.14-.18.2-.06.07-.12.13-.18.2s-.12.13-.18.2c-.06.07-.12.13-.18.2-.06.07-.12.13-.18.2-.06.07-.12.13-.18.2s-.12.13-.18.2c-.06.07-.12.13-.19.2-.06.07-.12.13-.19.19-.06.06-.13.13-.19.19s-.13.13-.19.19c-.06.06-.13.13-.19.19-.06.06-.13.13-.19.19-.06.06-.13.13-.19.19s-.13.13-.19.19c-.06.06-.13.12-.19.19-.06.06-.13.12-.2.19-.07.06-.13.12-.2.18-.07.06-.13.12-.2.18-.07.06-.13.12-.2.18-.07.06-.13.12-.2.18-.07.06-.13.12-.2.18s-.13.12-.2.18c-.07.06-.13.12-.2.18s-.14.12-.2.18c-.07.06-.14.12-.2.17-.07.06-.14.12-.21.17-.07.06-.14.11-.21.17-.07.06-.14.11-.21.17-.07.06-.14.11-.21.17-.07.06-.14.11-.21.17s-.14.11-.21.17c-.07.06-.14.11-.21.16-.07.05-.14.11-.21.16-.07.05-.14.11-.21.16-.07.05-.14.11-.21.16-.07.05-.14.11-.21.16-.07.05-.14.11-.22.16-.07.05-.14.1-.22.16s-.14.1-.22.16c-.07.05-.15.1-.22.15-.07.05-.15.1-.22.15-.07.05-.15.1-.22.15-.07.05-.15.1-.22.15-.07.05-.15.1-.22.15-.07.05-.15.1-.22.15-.07.05-.15.1-.22.15-.07.05-.15.1-.22.14-.07.05-.15.1-.23.14-.08.05-.15.09-.23.14-.08.05-.15.09-.23.14-.08.05-.15.09-.23.14s-.15.09-.23.14c-.08.05-.15.09-.23.14-.08.05-.15.09-.23.13-.08.04-.15.09-.23.13-.08.04-.15.09-.23.13-.08.04-.16.09-.23.13-.08.04-.16.09-.23.13-.08.04-.16.09-.23.13-.08.04-.16.08-.24.13-.08.04-.16.08-.24.13-.08.04-.16.08-.24.12-.08.04-.16.08-.24.12-.08.04-.16.08-.24.12-.08.04-.16.08-.24.12-.08.04-.16.08-.24.12-.08.04-.16.08-.24.12-.08.04-.16.08-.24.12-.08.04-.16.08-.24.11-.08.04-.16.08-.24.11-.08.04-.16.07-.24.11s-.16.07-.25.11-.16.07-.25.11c-.08.04-.16.07-.25.11-.08.04-.17.07-.25.11-.09.04-.17.07-.26.11s-.17.07-.26.11c-.09.04-.17.07-.26.1-.09.03-.17.07-.26.1-.09.03-.17.07-.26.1-.09.03-.17.07-.26.1-.09.03-.17.07-.26.1-.09.03-.17.06-.26.1-.09.03-.17.06-.26.09-.09.03-.17.06-.26.09-.09.03-.17.06-.26.09-.09.03-.18.06-.26.09s-.18.06-.26.09c-.09.03-.18.06-.26.09s-.18.06-.26.08c-.09.03-.18.06-.26.08-.09.03-.18.05-.26.08-.09.03-.18.05-.27.08-.09.03-.18.05-.27.08-.09.03-.18.05-.27.08-.09.02-.18.05-.27.07-.09.02-.18.05-.27.07-.09.02-.18.05-.27.07-.09.02-.18.05-.27.07-.09.02-.18.05-.27.07-.09.02-.18.04-.27.07-.09.02-.18.04-.27.06-.09.02-.18.04-.27.06-.09.02-.18.04-.27.06-.09.02-.18.04-.27.06-.09.02-.18.04-.27.06-.09.02-.18.04-.27.06-.09.02-.18.04-.27.05-.09.02-.18.03-.27.05s-.18.03-.27.05-.18.03-.27.05c-.09.02-.18.03-.27.05s-.18.03-.27.05c-.09.01-.18.03-.27.04-.09.01-.18.03-.27.04-.09.01-.18.03-.27.04s-.18.03-.27.04c-.09.01-.18.02-.27.04-.09.01-.18.02-.28.04-.09.01-.18.02-.28.03-.09.01-.18.02-.28.03-.09.01-.18.02-.28.03-.09,0-.18.02-.28.03-.09,0-.18.02-.28.03-.09,0-.18.02-.28.02-.09,0-.18.02-.28.02-.09,0-.19.01-.28.02-.09,0-.19.01-.28.02-.09,0-.19.01-.28.02-.09,0-.19.01-.28.02-.09,0-.19,0-.28.01-.09,0-.19,0-.28.01-.09,0-.19,0-.28.01-.09,0-.19,0-.28,0s-.19,0-.28,0c-.09,0-.19,0-.28,0-.09,0-.19,0-.28,0-.09,0-.19,0-.28,0-.09,0-.19,0-.28,0Z"/>
      <polygon class="cls-1" points="35.3 31.71 34.83 32.07 34.35 32.43 33.87 32.79 33.39 33.16 32.92 33.52 32.44 33.88 31.96 34.24 31.48 34.6 31 34.96 30.53 35.32 30.05 35.68 29.57 36.04 29.09 36.4 28.61 36.77 28.14 37.13 27.66 37.49 27.18 37.85 26.7 38.21 26.23 38.57 25.75 38.93 25.27 39.29 24.79 39.65 24.31 40.01 23.84 40.38 23.36 40.74 22.88 41.1 22.4 41.46 21.92 41.82 21.45 42.18 20.97 42.54 20.49 42.9 20.01 43.26 19.54 43.62 19.06 43.99 18.58 44.35 18.1 44.71 17.62 45.07 17.15 45.43 16.67 45.79 16.19 46.15 15.71 46.51 15.23 46.87 14.76 47.23 14.28 47.59 13.8 47.96 13.32 48.32 12.85 48.68 12.37 49.04 11.89 49.4 11.41 49.76 10.93 50.12 10.46 50.48 9.98 50.84 9.5 51.2 9.02 51.57 8.54 51.93 8.07 52.29 7.59 52.65 7.11 53.01 6.63 53.37 6.16 53.73 5.68 54.09 5.2 54.45 4.72 54.81 4.65 54.22 4.57 53.63 4.5 53.03 4.43 52.44 4.35 51.84 4.28 51.25 4.21 50.65 4.13 50.06 4.06 49.47 3.98 48.87 3.91 48.28 3.84 47.68 3.76 47.09 3.69 46.49 3.62 45.9 3.54 45.31 3.47 44.71 3.39 44.12 3.32 43.52 3.25 42.93 3.17 42.33 3.1 41.74 3.03 41.15 2.95 40.55 2.88 39.96 2.8 39.36 2.73 38.77 2.66 38.17 2.58 37.58 2.51 36.99 2.43 36.39 2.36 35.8 2.29 35.2 2.21 34.61 2.14 34.01 2.07 33.42 1.99 32.82 1.92 32.23 1.84 31.64 1.77 31.04 1.7 30.45 1.62 29.85 1.55 29.26 1.48 28.66 1.4 28.07 1.33 27.48 1.25 26.88 1.18 26.29 1.11 25.69 1.03 25.1 .96 24.5 .89 23.91 .81 23.32 .74 22.72 .66 22.13 .59 21.53 .52 20.94 .44 20.34 .37 19.75 .3 19.16 .22 18.56 .15 17.97 .07 17.37 0 16.78 .55 17.01 1.1 17.24 1.65 17.48 2.21 17.71 2.76 17.94 3.31 18.18 3.86 18.41 4.41 18.64 4.96 18.88 5.52 19.11 6.07 19.34 6.62 19.58 7.17 19.81 7.72 20.04 8.27 20.28 8.83 20.51 9.38 20.74 9.93 20.98 10.48 21.21 11.03 21.44 11.58 21.68 12.14 21.91 12.69 22.14 13.24 22.38 13.79 22.61 14.34 22.84 14.89 23.08 15.45 23.31 16 23.54 16.55 23.78 17.1 24.01 17.65 24.24 18.2 24.48 18.76 24.71 19.31 24.94 19.86 25.18 20.41 25.41 20.96 25.64 21.51 25.88 22.07 26.11 22.62 26.34 23.17 26.58 23.72 26.81 24.27 27.04 24.82 27.28 25.37 27.51 25.93 27.74 26.48 27.98 27.03 28.21 27.58 28.44 28.13 28.68 28.68 28.91 29.24 29.14 29.79 29.38 30.34 29.61 30.89 29.84 31.44 30.08 31.99 30.31 32.55 30.54 33.1 30.78 33.65 31.01 34.2 31.24 34.75 31.48 35.3 31.71"/>
    </g>
  </g>
</svg>