<?xml version="1.0" encoding="UTF-8"?>
<svg id="Ebene_2" data-name="Ebene 2" xmlns="http://www.w3.org/2000/svg" xmlns:xlink="http://www.w3.org/1999/xlink" viewBox="0 0 276 141.15">
  <defs>
    <style>
      .cls-1 {
        fill: url(#linear-gradient-3);
      }

      .cls-2 {
        fill: url(#linear-gradient-2);
      }

      .cls-3 {
        fill: url(#linear-gradient);
      }

      .cls-4 {
        fill: #ff9d00;
      }

      .cls-5 {
        fill: #ffb600;
      }

      .cls-6 {
        opacity: .4;
      }

      .cls-7 {
        fill: #ffe773;
      }
    </style>
    <linearGradient id="linear-gradient" x1="1588.32" y1="-679.39" x2="1588.32" y2="-773.08" gradientTransform="translate(-1385.06 1073.08) rotate(-10)" gradientUnits="userSpaceOnUse">
      <stop offset="0" stop-color="#ffb000"/>
      <stop offset="1" stop-color="#ffda00"/>
    </linearGradient>
    <linearGradient id="linear-gradient-2" x1="-1148.71" y1="1343.84" x2="-1148.71" y2="1250.15" gradientTransform="translate(1579.45 -995.75) rotate(10)" xlink:href="#linear-gradient"/>
    <linearGradient id="linear-gradient-3" x1="138" y1="124.92" x2="138" y2="4.09" gradientTransform="matrix(1,0,0,1,0,0)" xlink:href="#linear-gradient"/>
  </defs>
  <g id="Ebene_1-2" data-name="Ebene 1">
    <g>
      <g>
        <g>
          <path class="cls-6" d="M101.74,77.12c5.13-7.13-.14-17.06-8.93-16.79l-17.77.54c-3.49.11-6.81-1.51-8.87-4.33l-10.52-14.34c-5.2-7.09-16.27-5.13-18.73,3.3l-4.98,17.07c-.98,3.35-3.54,6-6.86,7.1l-16.88,5.57c-8.35,2.75-9.91,13.88-2.65,18.83l14.69,10.01c2.88,1.97,4.62,5.22,4.63,8.71l.08,17.78c.04,8.79,10.14,13.71,17.09,8.34l14.06-10.88c2.76-2.14,6.39-2.78,9.72-1.71l16.94,5.42c8.37,2.68,16.18-5.41,13.21-13.68l-6-16.74c-1.18-3.28-.66-6.94,1.37-9.77l10.38-14.43Z"/>
          <path class="cls-6" d="M101.17,73.89c5.13-7.13-.14-17.06-8.93-16.79l-17.77.54c-3.49.11-6.81-1.51-8.87-4.33l-10.52-14.34c-5.2-7.09-16.27-5.13-18.73,3.3l-4.98,17.07c-.98,3.35-3.54,6-6.86,7.1l-16.88,5.57c-8.35,2.75-9.91,13.88-2.65,18.83l14.69,10.01c2.88,1.97,4.62,5.22,4.63,8.71l.08,17.78c.04,8.79,10.14,13.71,17.09,8.34l14.06-10.88c2.76-2.14,6.39-2.78,9.72-1.71l16.94,5.42c8.37,2.68,16.18-5.41,13.21-13.68l-6-16.74c-1.18-3.28-.66-6.94,1.37-9.77l10.38-14.43Z"/>
          <g>
            <path class="cls-4" d="M54.73,36.98l10.52,14.34c2.06,2.81,5.38,4.43,8.87,4.33l17.77-.54c8.78-.27,14.06,9.66,8.93,16.79l-10.38,14.43c-2.04,2.83-2.55,6.49-1.37,9.77l6,16.74c2.97,8.27-4.84,16.36-13.21,13.68l-16.94-5.42c-3.32-1.06-6.96-.42-9.72,1.71l-14.06,10.88c-6.95,5.38-17.05.45-17.09-8.34l-.08-17.78c-.02-3.49-1.75-6.75-4.63-8.71l-14.69-10.01c-7.26-4.95-5.7-16.08,2.65-18.83l16.88-5.57c3.31-1.09,5.88-3.75,6.86-7.1l4.98-17.07c2.46-8.44,13.53-10.39,18.73-3.3Z"/>
            <path class="cls-7" d="M99.35,63.75c-.92-3.3-3.94-5.95-7.91-5.84l-20.18.61c-2.62.08-5.1-1.13-6.65-3.24l-11.94-16.28c-3.9-5.32-12.2-3.85-14.04,2.48l-5.65,19.38c-.74,2.51-2.66,4.5-5.15,5.32l-19.17,6.33c-3.77,1.25-5.7,4.77-5.44,8.19-1.09-3.84.81-8.31,5.16-9.75l19.17-6.33c2.49-.82,4.41-2.81,5.15-5.32l5.65-19.38c1.85-6.33,10.15-7.79,14.04-2.48l11.94,16.28c1.55,2.11,4.04,3.32,6.65,3.24l20.18-.61c4.58-.14,7.89,3.42,8.19,7.4Z"/>
            <path class="cls-3" d="M52.68,39.06l11.94,16.28c1.55,2.11,4.04,3.32,6.65,3.24l20.18-.61c6.59-.2,10.55,7.24,6.7,12.59l-11.79,16.39c-1.53,2.12-1.91,4.87-1.03,7.33l6.82,19c2.23,6.2-3.63,12.27-9.91,10.26l-19.23-6.15c-2.49-.8-5.22-.32-7.29,1.29l-15.97,12.35c-5.21,4.03-12.79.34-12.82-6.25l-.09-20.19c-.01-2.62-1.31-5.06-3.47-6.53l-16.68-11.37c-5.45-3.71-4.27-12.06,1.98-14.12l19.17-6.33c2.49-.82,4.41-2.81,5.14-5.32l5.65-19.38c1.85-6.33,10.15-7.79,14.05-2.48Z"/>
          </g>
          <path class="cls-5" d="M31.21,127.67s-.02-.03-.03-.04c-.02-.02-.04-.05-.06-.07-.34-.35-.79-.37-1.19-.1-.28.19-.36.52-.39.83-.09.82.86,1.36,1.53.93.56-.36.57-1.13.13-1.55Z"/>
          <path class="cls-5" d="M33.46,123.9c-.25-.3-.67-.41-1.04-.29-.33.11-.57.37-.65.71-.08.35.05.82.38,1.01.15.09.29.17.44.26.32.19.69.09.84-.26.06-.15.13-.3.19-.46.13-.31.04-.72-.17-.97Z"/>
          <path class="cls-5" d="M35.57,129.68c-.02-.06-.05-.11-.07-.17,0-.01-.01-.07-.02-.08-.03-.12-.04-.24-.05-.36-.03-.53-.7-.79-1.13-.59-.43.21-.65.88-.27,1.24.28.27.56.47.91.63.42.19.78-.31.62-.68Z"/>
          <path class="cls-4" d="M32.81,129c-.15-.05-.31-.05-.46,0-.15.02-.3.06-.42.14-.35.22-.5.64-.37,1.04.11.34.41.6.78.63.38.04.83-.21.94-.59.05-.2.11-.38.07-.58-.05-.29-.26-.54-.54-.63Z"/>
          <path class="cls-4" d="M34.75,123.39c-.09.02-.07.16.02.14s.07-.16-.02-.14Z"/>
          <path class="cls-4" d="M36.75,126.82c-.09-.04-.17-.08-.26-.13-.33-.16-.55.4-.2.55.09.04.18.08.27.11.34.15.52-.38.2-.53Z"/>
          <circle class="cls-4" cx="37.29" cy="129.66" r=".6"/>
          <path class="cls-4" d="M38.72,127.93c-1.08.19-.78,1.86.3,1.67s.78-1.86-.3-1.67Z"/>
          <path class="cls-4" d="M39.89,121.82c-.92.16-.67,1.59.25,1.43s.67-1.59-.25-1.43Z"/>
          <path class="cls-4" d="M42.67,124.26c-.71.12-.52,1.23.19,1.1s.52-1.23-.19-1.1Z"/>
          <path class="cls-4" d="M46.17,120.35c-1.12.2-.81,1.93.31,1.74s.81-1.93-.31-1.74Z"/>
          <path class="cls-4" d="M29.13,124.03c-.79.14-.57,1.36.22,1.22.79-.14.57-1.36-.22-1.22Z"/>
          <path class="cls-4" d="M29.35,120.99c-.02-.07-.12-.13-.19-.13-.15,0-.31.03-.47.05-.55.08-.73.88-.26,1.18.47.3,1.12-.07,1.02-.65-.03-.15-.05-.3-.09-.45Z"/>
          <path class="cls-4" d="M32.03,118.39c-.93.16-.67,1.6.25,1.44s.67-1.6-.25-1.44Z"/>
          <path class="cls-4" d="M35.64,123.22c-.41.07-.73.5-.64.91.09.42.48.71.91.64.41-.07.73-.5.64-.91-.09-.42-.48-.71-.91-.64Z"/>
          <path class="cls-4" d="M50.21,119.8c-.09-.2-.27-.36-.5-.37-.05,0-.09,0-.13,0-.31,0-.55.18-.75.41-.23.26-.18.71-.01.97.18.28.54.47.88.39.3-.07.56-.27.67-.56.12-.32.03-.61-.16-.84Z"/>
          <path class="cls-4" d="M52.61,116.26c-.98.17-.71,1.69.27,1.52.98-.17.71-1.69-.27-1.52Z"/>
          <path class="cls-4" d="M54.16,117.5c-.49.09-.36.85.13.76s.36-.85-.13-.76Z"/>
          <path class="cls-4" d="M63.61,112.26s-.03-.03-.05-.04c.09-.37-.16-.83-.64-.75-.74.13-.54,1.28.2,1.15.11-.02.19-.06.26-.12.02,0,.03.02.05.02.15.06.29-.14.18-.26Z"/>
          <path class="cls-4" d="M64.05,115.58c-.46.08-.33.79.13.71s.33-.79-.13-.71Z"/>
          <path class="cls-4" d="M67.81,116.03c-.21.04-.15.36.06.33s.15-.36-.06-.33Z"/>
          <path class="cls-4" d="M54.26,109.97c-1.19.21-.86,2.05.33,1.84s.86-2.05-.33-1.84Z"/>
          <path class="cls-4" d="M56.86,106.71c-.6.11-.44,1.04.16.93s.44-1.04-.16-.93Z"/>
          <path class="cls-4" d="M60.71,112.87c-.49.09-.36.85.13.76s.36-.85-.13-.76Z"/>
          <path class="cls-4" d="M59.35,114.46c-.98.17-.71,1.69.27,1.52s.71-1.69-.27-1.52Z"/>
          <path class="cls-4" d="M75.65,117.54s-.03-.09-.05-.13c0-.02-.01-.03-.01-.04,0,0,0,0,0-.01-.02-.09-.05-.18-.07-.26-.08-.31-.25-.55-.56-.67-.29-.11-.63-.05-.87.15-.48.41-.37,1.28.26,1.49.21.07.41.13.61.22.2.08.45.01.59-.15.15-.18.17-.38.09-.6Z"/>
          <path class="cls-4" d="M77.16,116.32c-.99.17-.72,1.71.27,1.53s.72-1.71-.27-1.53Z"/>
          <path class="cls-4" d="M73.81,112.4c-1.13.2-.82,1.95.31,1.75s.82-1.95-.31-1.75Z"/>
          <path class="cls-4" d="M70.22,116.97c-.94.17-.68,1.62.26,1.46s.68-1.62-.26-1.46Z"/>
          <path class="cls-4" d="M81.62,119.54c-.84.15-.61,1.45.23,1.3s.61-1.45-.23-1.3Z"/>
          <path class="cls-4" d="M83.87,119.59c-.66.12-.48,1.14.18,1.02s.48-1.14-.18-1.02Z"/>
          <path class="cls-4" d="M86.23,116.16c-.98.17-.71,1.69.27,1.52s.71-1.69-.27-1.52Z"/>
          <path class="cls-4" d="M87.34,118.39c-.89.16-.65,1.54.24,1.38s.65-1.54-.24-1.38Z"/>
          <path class="cls-4" d="M86.16,122.14s-.03.07.01.06.03-.07-.01-.06Z"/>
          <path class="cls-4" d="M90.37,117.02c-1.04.18-.75,1.79.28,1.61,1.04-.18.75-1.79-.28-1.61Z"/>
          <path class="cls-4" d="M87.44,114.28c-.76.13-.55,1.31.21,1.18s.55-1.31-.21-1.18Z"/>
          <path class="cls-4" d="M85.67,111.82c-1.29.23-.94,2.23.35,2s.94-2.23-.35-2Z"/>
          <path class="cls-4" d="M88.18,109.81c-.43.08-.31.74.12.67s.31-.74-.12-.67Z"/>
          <path class="cls-4" d="M88.09,108.72c-.54.09-.39.93.15.84s.39-.93-.15-.84Z"/>
          <path class="cls-4" d="M84.03,102.51c-1.01.18-.73,1.74.28,1.57s.73-1.74-.28-1.57Z"/>
          <path class="cls-4" d="M79.97,103.83c-1.03.18-.75,1.78.28,1.6s.75-1.78-.28-1.6Z"/>
          <path class="cls-4" d="M83.25,100.37c-.79.14-.57,1.36.22,1.22s.57-1.36-.22-1.22Z"/>
          <path class="cls-4" d="M83.58,95.91c-.67.12-.49,1.16.18,1.04s.49-1.16-.18-1.04Z"/>
          <path class="cls-4" d="M85.68,104.9c-.5.09-.91.62-.79,1.13.12.52.59.89,1.13.79.5-.09.91-.62.79-1.13-.12-.52-.59-.89-1.13-.79Z"/>
          <path class="cls-4" d="M80.43,90.21c-1.33.23-.96,2.3.36,2.06s.96-2.3-.36-2.06Z"/>
          <path class="cls-4" d="M80.75,87.35c-.75.13-.54,1.29.2,1.16s.54-1.29-.2-1.16Z"/>
          <path class="cls-4" d="M82.95,87.65c-1.04.18-.75,1.79.28,1.61s.75-1.79-.28-1.61Z"/>
          <path class="cls-4" d="M86.3,81.17c-1.12.2-.81,1.93.31,1.74s.81-1.93-.31-1.74Z"/>
          <path class="cls-4" d="M90.47,76.97c-.97.17-.7,1.67.27,1.5s.7-1.67-.27-1.5Z"/>
          <path class="cls-4" d="M91,74.76c-.68.12-.49,1.17.19,1.05s.49-1.17-.19-1.05Z"/>
          <path class="cls-4" d="M93.8,73.24c-.81.14-.59,1.4.22,1.26s.59-1.4-.22-1.26Z"/>
          <path class="cls-4" d="M95.41,67.85c-1.06.19-.77,1.83.29,1.64s.77-1.83-.29-1.64Z"/>
          <path class="cls-4" d="M87.4,75.77c-.85.15-.62,1.47.23,1.32s.62-1.47-.23-1.32Z"/>
          <path class="cls-4" d="M84.03,82.8c-.86.15-.62,1.48.23,1.33s.62-1.48-.23-1.33Z"/>
          <path class="cls-4" d="M28.44,106.09c-.13.2-.15.42-.05.64.17.4.85.22.78-.2.25-.41-.44-.89-.73-.44Z"/>
          <circle class="cls-4" cx="28.85" cy="111.41" r=".6"/>
          <path class="cls-4" d="M23,93.29c-.55.1-.4.95.15.85s.4-.95-.15-.85Z"/>
          <path class="cls-4" d="M18.19,91.75s-.02-.01-.03-.02c-.15-.11-.37-.07-.48.08,0,0-.01.02-.02.03-.18.27.05.65.37.59s.41-.49.15-.68Z"/>
          <path class="cls-4" d="M16.57,88.72c-.66.12-.48,1.14.18,1.02s.48-1.14-.18-1.02Z"/>
          <path class="cls-4" d="M11.17,84.19c-.48.08-.35.83.13.74s.35-.83-.13-.74Z"/>
          <path class="cls-4" d="M10.4,85.67c-.2-.07-.46.03-.53.24-.03.09-.05.16-.04.25,0,.36.47.61.7.26.05-.07.08-.14.11-.22.06-.21-.03-.45-.24-.53Z"/>
          <path class="cls-4" d="M13.14,88.4s-.02.04,0,.04.02-.04,0-.04Z"/>
          <path class="cls-4" d="M7.76,83.42s-.03,0-.05,0c-.67.08-.48,1.18.18,1.03.02,0,.03,0,.05-.01.65-.15.48-1.1-.18-1.02Z"/>
          <path class="cls-4" d="M41.53,99.02l-.04-.03c-.23-.18-.64-.11-.79.14l-.03.04c-.13.21-.15.47,0,.68.13.2.38.33.62.27.53-.12.67-.77.25-1.11Z"/>
          <path class="cls-4" d="M37.44,105.01c-.75.13-.54,1.29.2,1.16s.54-1.29-.2-1.16Z"/>
          <path class="cls-4" d="M59.63,97.47c-.55.1-.4.95.15.85s.4-.95-.15-.85Z"/>
          <path class="cls-4" d="M68.71,97.96c-.49.09-.36.85.13.76s.36-.85-.13-.76Z"/>
          <path class="cls-4" d="M51.69,79.75c-.38.07-.28.66.1.59s.28-.66-.1-.59Z"/>
          <path class="cls-4" d="M61.27,70.61s-.03.01-.04.02c-.37.16-.27.77.14.79.02,0,.03,0,.05,0,.28.02.51-.22.46-.5s-.35-.42-.61-.31Z"/>
          <path class="cls-4" d="M65.57,84.22c-.46.08-.33.79.13.71s.33-.79-.13-.71Z"/>
          <path class="cls-4" d="M63.97,104.13c-.45.08-.81.55-.71,1.01.1.46.53.79,1.01.71.45-.08.81-.55.71-1.01-.1-.46-.53-.79-1.01-.71Z"/>
          <path class="cls-4" d="M41.73,110.96s-.02,0-.03,0c-.42,0-.78.31-.76.77,0,.24.12.45.31.59.24.17.49.15.76.06.34-.12.59-.53.5-.89-.09-.38-.39-.58-.78-.55Z"/>
          <path class="cls-4" d="M78.9,73.98c-.74.13-.54,1.28.2,1.15s.54-1.28-.2-1.15Z"/>
          <path class="cls-4" d="M30.83,76.23c-.86.15-.62,1.48.23,1.33s.62-1.48-.23-1.33Z"/>
        </g>
        <g>
          <path class="cls-6" d="M270.44,94.08c7.26-4.95,5.7-16.08-2.65-18.83l-16.88-5.57c-3.31-1.09-5.88-3.75-6.86-7.1l-4.98-17.07c-2.46-8.44-13.53-10.39-18.73-3.3l-10.52,14.34c-2.06,2.81-5.38,4.43-8.87,4.33l-17.77-.54c-8.78-.27-14.06,9.66-8.93,16.79l10.38,14.43c2.04,2.83,2.55,6.49,1.37,9.77l-6,16.74c-2.97,8.27,4.84,16.36,13.21,13.68l16.94-5.42c3.32-1.06,6.96-.42,9.72,1.71l14.06,10.88c6.95,5.38,17.05.45,17.09-8.34l.08-17.78c.02-3.49,1.75-6.75,4.63-8.71l14.69-10.01Z"/>
          <path class="cls-6" d="M271.01,90.85c7.26-4.95,5.7-16.08-2.65-18.83l-16.88-5.57c-3.31-1.09-5.88-3.75-6.86-7.1l-4.98-17.07c-2.46-8.44-13.53-10.39-18.73-3.3l-10.52,14.34c-2.06,2.81-5.38,4.43-8.87,4.33l-17.77-.54c-8.78-.27-14.06,9.66-8.93,16.79l10.38,14.43c2.04,2.83,2.55,6.49,1.37,9.77l-6,16.74c-2.97,8.27,4.84,16.36,13.21,13.68l16.94-5.42c3.32-1.06,6.96-.42,9.72,1.71l14.06,10.88c6.95,5.38,17.05.45,17.09-8.34l.08-17.78c.02-3.49,1.75-6.75,4.63-8.71l14.69-10.01Z"/>
          <g>
            <path class="cls-4" d="M240,40.28l4.98,17.07c.98,3.35,3.54,6,6.86,7.1l16.88,5.57c8.35,2.75,9.91,13.88,2.65,18.83l-14.69,10.01c-2.88,1.97-4.62,5.22-4.63,8.71l-.08,17.78c-.04,8.79-10.14,13.71-17.09,8.34l-14.06-10.88c-2.76-2.14-6.39-2.78-9.72-1.71l-16.94,5.42c-8.37,2.68-16.18-5.41-13.21-13.68l6-16.74c1.18-3.28.66-6.94-1.37-9.77l-10.38-14.43c-5.13-7.13.14-17.06,8.93-16.79l17.77.54c3.49.11,6.81-1.51,8.87-4.33l10.52-14.34c5.2-7.09,16.27-5.13,18.73,3.3Z"/>
            <path class="cls-7" d="M272.78,80.7c.26-3.42-1.67-6.94-5.44-8.19l-19.17-6.33c-2.49-.82-4.41-2.81-5.15-5.32l-5.65-19.38c-1.85-6.33-10.15-7.79-14.04-2.48l-11.94,16.28c-1.55,2.11-4.04,3.32-6.65,3.24l-20.18-.61c-3.97-.12-6.99,2.54-7.91,5.84.29-3.98,3.6-7.54,8.19-7.4l20.18.61c2.62.08,5.1-1.13,6.65-3.24l11.94-16.28c3.9-5.32,12.2-3.85,14.04,2.48l5.65,19.38c.74,2.51,2.66,4.5,5.15,5.32l19.17,6.33c4.35,1.44,6.25,5.91,5.16,9.75Z"/>
            <path class="cls-2" d="M237.36,41.54l5.65,19.38c.73,2.51,2.66,4.5,5.14,5.32l19.17,6.33c6.26,2.07,7.43,10.41,1.98,14.12l-16.68,11.37c-2.16,1.47-3.46,3.92-3.47,6.53l-.09,20.19c-.03,6.59-7.61,10.29-12.82,6.25l-15.97-12.35c-2.07-1.6-4.8-2.08-7.29-1.29l-19.23,6.15c-6.28,2.01-12.13-4.06-9.91-10.26l6.82-19c.88-2.46.5-5.2-1.03-7.33l-11.79-16.39c-3.85-5.35.11-12.79,6.7-12.59l20.18.61c2.62.08,5.1-1.13,6.65-3.24l11.94-16.28c3.9-5.31,12.2-3.85,14.05,2.48Z"/>
          </g>
          <path class="cls-5" d="M186.88,117.46s0-.03-.01-.05c-.01-.03-.02-.06-.04-.09-.2-.45-.61-.61-1.08-.5-.33.08-.51.36-.65.64-.36.74.34,1.57,1.12,1.39.65-.15.92-.86.66-1.41Z"/>
          <path class="cls-5" d="M190.28,114.69c-.14-.37-.49-.61-.88-.63-.35-.01-.66.15-.85.44-.2.31-.23.79.01,1.08.11.13.22.26.33.39.24.28.62.32.88.04.11-.12.23-.24.34-.36.23-.25.28-.66.17-.97Z"/>
          <path class="cls-5" d="M190.29,120.84c0-.06,0-.12,0-.18,0-.01,0-.07.01-.08.02-.12.04-.24.08-.36.15-.51-.39-.98-.87-.94-.48.05-.91.6-.68,1.08.17.35.36.64.64.91.33.32.84-.02.82-.43Z"/>
          <path class="cls-4" d="M187.92,119.26c-.12-.1-.28-.15-.43-.15-.15-.04-.3-.05-.44-.01-.4.09-.69.43-.7.85-.01.36.18.7.51.86.34.16.85.09,1.09-.23.12-.16.23-.32.27-.52.05-.29-.06-.6-.29-.78Z"/>
          <path class="cls-4" d="M191.67,114.65c-.09-.02-.11.12-.02.14s.11-.12.02-.14Z"/>
          <path class="cls-4" d="M192.38,118.56c-.07-.07-.14-.14-.2-.21-.26-.27-.65.19-.38.44.07.07.14.13.21.2.27.25.62-.18.37-.43Z"/>
          <circle class="cls-4" cx="191.91" cy="121.41" r=".6"/>
          <path class="cls-4" d="M193.85,120.27c-1.08-.19-1.37,1.48-.3,1.67s1.37-1.48.3-1.67Z"/>
          <path class="cls-4" d="M197.04,114.93c-.92-.16-1.17,1.26-.25,1.43s1.17-1.26.25-1.43Z"/>
          <path class="cls-4" d="M198.82,118.17c-.71-.12-.9.98-.19,1.1s.9-.98.19-1.1Z"/>
          <path class="cls-4" d="M203.45,115.7c-1.12-.2-1.42,1.54-.31,1.74s1.42-1.54.31-1.74Z"/>
          <path class="cls-4" d="M186.18,113.32c-.79-.14-1,1.08-.22,1.22.79.14,1-1.08.22-1.22Z"/>
          <path class="cls-4" d="M187.42,110.55c0-.07-.07-.17-.13-.19-.14-.05-.3-.08-.46-.11-.55-.12-.99.57-.65,1.02.34.44,1.07.31,1.18-.26.03-.15.06-.3.07-.45Z"/>
          <path class="cls-4" d="M190.82,109.02c-.93-.16-1.18,1.28-.25,1.44s1.18-1.28.25-1.44Z"/>
          <path class="cls-4" d="M192.56,114.79c-.41-.07-.86.22-.91.64-.06.42.2.83.64.91.41.07.86-.22.91-.64.06-.42-.2-.83-.64-.91Z"/>
          <path class="cls-4" d="M207.43,116.56c-.02-.22-.13-.43-.34-.52-.04-.02-.08-.03-.12-.04-.29-.12-.58-.02-.84.12-.3.16-.41.6-.34.91.07.32.35.62.69.67.3.04.62-.06.82-.29.22-.26.24-.56.14-.85Z"/>
          <path class="cls-4" d="M210.89,114.05c-.98-.17-1.25,1.35-.27,1.52s1.25-1.35.27-1.52Z"/>
          <path class="cls-4" d="M211.92,115.75c-.49-.09-.62.67-.13.76s.62-.67.13-.76Z"/>
          <path class="cls-4" d="M222.59,114.05s-.02-.04-.03-.06c.21-.31.14-.84-.35-.92-.74-.13-.94,1.02-.2,1.15.11.02.2,0,.29-.02.01.01.02.03.03.04.12.11.33-.03.26-.18Z"/>
          <path class="cls-4" d="M221.87,117.33c-.46-.08-.59.63-.13.71s.59-.63.13-.71Z"/>
          <path class="cls-4" d="M225.25,119.04c-.21-.04-.27.29-.06.33s.27-.29.06-.33Z"/>
          <path class="cls-4" d="M214.6,108.71c-1.19-.21-1.51,1.63-.33,1.84,1.19.21,1.51-1.63.33-1.84Z"/>
          <path class="cls-4" d="M218.15,106.54c-.6-.11-.76.82-.16.93s.76-.82.16-.93Z"/>
          <path class="cls-4" d="M219.66,113.64c-.49-.09-.62.67-.13.76s.62-.67.13-.76Z"/>
          <path class="cls-4" d="M217.84,114.67c-.98-.17-1.25,1.35-.27,1.52s1.25-1.35.27-1.52Z"/>
          <path class="cls-4" d="M232.1,123.14s0-.09,0-.14c0-.02,0-.03,0-.04,0,0,0,0,0-.01.01-.09.02-.18.03-.27.03-.31-.05-.61-.3-.82-.24-.2-.58-.26-.87-.15-.59.22-.79,1.08-.26,1.49.17.13.34.27.5.41.16.15.42.16.6.06.21-.11.29-.3.29-.53Z"/>
          <path class="cls-4" d="M233.94,122.51c-.99-.17-1.26,1.36-.27,1.53.99.17,1.26-1.36.27-1.53Z"/>
          <path class="cls-4" d="M232.14,117.68c-1.13-.2-1.44,1.55-.31,1.75s1.44-1.55.31-1.75Z"/>
          <path class="cls-4" d="M227.2,120.74c-.94-.17-1.2,1.29-.26,1.46s1.2-1.29.26-1.46Z"/>
          <path class="cls-4" d="M237.03,127.06c-.84-.15-1.07,1.15-.23,1.3s1.07-1.15.23-1.3Z"/>
          <path class="cls-4" d="M239.13,127.88c-.66-.12-.84.91-.18,1.02s.84-.91.18-1.02Z"/>
          <path class="cls-4" d="M242.52,125.46c-.98-.17-1.25,1.35-.27,1.52s1.25-1.35.27-1.52Z"/>
          <path class="cls-4" d="M242.8,127.93c-.89-.16-1.13,1.22-.24,1.38s1.13-1.22.24-1.38Z"/>
          <path class="cls-4" d="M240.41,131.05s-.05.05-.01.06.05-.05.01-.06Z"/>
          <path class="cls-4" d="M246.12,127.68c-1.04-.18-1.32,1.43-.28,1.61s1.32-1.43.28-1.61Z"/>
          <path class="cls-4" d="M244.3,124.11c-.76-.13-.97,1.04-.21,1.18s.97-1.04.21-1.18Z"/>
          <path class="cls-4" d="M243.48,121.19c-1.29-.23-1.64,1.77-.35,2s1.64-1.77.35-2Z"/>
          <path class="cls-4" d="M246.52,120.16c-.43-.08-.55.59-.12.67s.55-.59.12-.67Z"/>
          <path class="cls-4" d="M246.81,119.1c-.54-.09-.69.74-.15.84s.69-.74.15-.84Z"/>
          <path class="cls-4" d="M245.12,111.89c-1.01-.18-1.28,1.39-.28,1.57,1.01.18,1.28-1.39.28-1.57Z"/>
          <path class="cls-4" d="M240.85,111.73c-1.03-.18-1.31,1.41-.28,1.6s1.31-1.41.28-1.6Z"/>
          <path class="cls-4" d="M245.11,109.61c-.79-.14-1,1.08-.22,1.22s1-1.08.22-1.22Z"/>
          <path class="cls-4" d="M246.96,105.53c-.67-.12-.85.92-.18,1.04s.85-.92.18-1.04Z"/>
          <path class="cls-4" d="M245.85,114.69c-.5-.09-1.06.27-1.13.79-.07.52.25,1.04.79,1.13.5.09,1.06-.27,1.13-.79.07-.52-.25-1.04-.79-1.13Z"/>
          <path class="cls-4" d="M245.94,99.1c-1.33-.23-1.69,1.83-.36,2.06s1.69-1.83.36-2.06Z"/>
          <path class="cls-4" d="M247.22,96.51c-.75-.13-.95,1.03-.2,1.16s.95-1.03.2-1.16Z"/>
          <path class="cls-4" d="M249.18,97.55c-1.04-.18-1.32,1.43-.28,1.61s1.32-1.43.28-1.61Z"/>
          <path class="cls-4" d="M254.55,92.6c-1.12-.2-1.42,1.54-.31,1.74,1.12.2,1.42-1.54.31-1.74Z"/>
          <path class="cls-4" d="M259.91,90.09c-.97-.17-1.23,1.33-.27,1.5s1.23-1.33.27-1.5Z"/>
          <path class="cls-4" d="M261.16,88.19c-.68-.12-.86.93-.19,1.05s.86-.93.19-1.05Z"/>
          <path class="cls-4" d="M264.31,87.72c-.81-.14-1.03,1.11-.22,1.26s1.03-1.11.22-1.26Z"/>
          <path class="cls-4" d="M267.66,83.2c-1.06-.19-1.35,1.46-.29,1.64s1.35-1.46.29-1.64Z"/>
          <path class="cls-4" d="M257.43,87.9c-.85-.15-1.08,1.17-.23,1.32s1.08-1.17.23-1.32Z"/>
          <path class="cls-4" d="M251.86,93.36c-.86-.15-1.09,1.18-.23,1.33s1.09-1.18.23-1.33Z"/>
          <path class="cls-4" d="M191.66,96.23c-.19.15-.28.34-.27.58.02.44.72.49.8.08.38-.3-.12-.98-.54-.66Z"/>
          <circle class="cls-4" cx="190.23" cy="101.37" r=".6"/>
          <path class="cls-4" d="M190.92,82.35c-.55-.1-.7.76-.15.85s.7-.76.15-.85Z"/>
          <path class="cls-4" d="M186.93,79.26s-.01-.02-.02-.03c-.1-.15-.33-.19-.48-.08,0,0-.02.01-.03.02-.26.19-.18.62.15.68s.56-.32.37-.59Z"/>
          <path class="cls-4" d="M186.44,75.85c-.66-.12-.84.91-.18,1.02s.84-.91.18-1.02Z"/>
          <path class="cls-4" d="M182.92,69.74c-.48-.08-.61.66-.13.74s.61-.66.13-.74Z"/>
          <path class="cls-4" d="M181.69,70.88c-.16-.14-.44-.13-.58.05-.05.07-.1.13-.13.22-.12.34.23.73.57.48.07-.05.13-.1.18-.17.13-.18.13-.43-.05-.58Z"/>
          <path class="cls-4" d="M183.33,74.37s-.03.04,0,.04.03-.04,0-.04Z"/>
          <path class="cls-4" d="M179.98,67.86s-.03,0-.05-.01c-.66-.15-.85.95-.18,1.03.02,0,.03,0,.05,0,.66.08.83-.87.18-1.02Z"/>
          <path class="cls-4" d="M206.37,94.07l-.03-.04c-.16-.25-.56-.32-.79-.14l-.04.03c-.2.16-.3.39-.24.64.05.23.25.44.49.47.54.07.89-.5.61-.96Z"/>
          <path class="cls-4" d="M200.48,98.29c-.75-.13-.95,1.03-.2,1.16s.95-1.03.2-1.16Z"/>
          <path class="cls-4" d="M223.91,98.8c-.55-.1-.7.76-.15.85s.7-.76.15-.85Z"/>
          <path class="cls-4" d="M232.28,102.37c-.49-.09-.62.67-.13.76s.62-.67.13-.76Z"/>
          <path class="cls-4" d="M222.52,79.43c-.38-.07-.48.52-.1.59s.48-.52.1-.59Z"/>
          <path class="cls-4" d="M234.64,74.12s-.03,0-.05,0c-.41.03-.51.63-.14.79.01,0,.03.01.04.02.25.11.56-.03.61-.31s-.19-.52-.46-.5Z"/>
          <path class="cls-4" d="M234.03,88.38c-.46-.08-.59.63-.13.71s.59-.63.13-.71Z"/>
          <path class="cls-4" d="M225.72,106.54c-.45-.08-.95.24-1.01.71-.06.47.23.93.71,1.01.45.08.95-.24,1.01-.71.06-.47-.23-.93-.71-1.01Z"/>
          <path class="cls-4" d="M202.48,105.35s-.02,0-.03,0c-.39-.14-.84.03-.98.46-.07.23-.04.46.09.66.17.24.41.31.69.32.36,0,.73-.3.77-.66.04-.39-.17-.68-.55-.78Z"/>
          <path class="cls-4" d="M250.06,83.32c-.74-.13-.94,1.02-.2,1.15s.94-1.02.2-1.15Z"/>
          <path class="cls-4" d="M204.12,68.99c-.86-.15-1.09,1.18-.23,1.33s1.09-1.18.23-1.33Z"/>
        </g>
      </g>
      <g>
        <path class="cls-6" d="M200.97,69.12c8.12-7.91,3.64-21.69-7.58-23.32l-22.69-3.3c-4.45-.65-8.3-3.44-10.3-7.48l-10.15-20.56c-5.02-10.16-19.51-10.16-24.52,0l-10.15,20.56c-1.99,4.04-5.84,6.83-10.3,7.48l-22.69,3.3c-11.22,1.63-15.69,15.41-7.58,23.32l16.42,16c3.22,3.14,4.69,7.67,3.93,12.1l-3.88,22.6c-1.92,11.17,9.81,19.69,19.84,14.42l20.29-10.67c3.98-2.09,8.74-2.09,12.73,0l20.29,10.67c10.03,5.27,21.76-3.24,19.84-14.42l-3.88-22.6c-.76-4.44.71-8.96,3.93-12.1l16.42-16Z"/>
        <path class="cls-6" d="M200.97,64.9c8.12-7.91,3.64-21.69-7.58-23.32l-22.69-3.3c-4.45-.65-8.3-3.44-10.3-7.48l-10.15-20.56c-5.02-10.16-19.51-10.16-24.52,0l-10.15,20.56c-1.99,4.04-5.84,6.83-10.3,7.48l-22.69,3.3c-11.22,1.63-15.69,15.41-7.58,23.32l16.42,16c3.22,3.14,4.69,7.67,3.93,12.1l-3.88,22.6c-1.92,11.17,9.81,19.69,19.84,14.42l20.29-10.67c3.98-2.09,8.74-2.09,12.73,0l20.29,10.67c10.03,5.27,21.76-3.24,19.84-14.42l-3.88-22.6c-.76-4.44.71-8.96,3.93-12.1l16.42-16Z"/>
        <g>
          <path class="cls-4" d="M150.26,7.62l10.15,20.56c1.99,4.04,5.84,6.83,10.3,7.48l22.69,3.3c11.22,1.63,15.69,15.41,7.58,23.32l-16.42,16c-3.22,3.14-4.69,7.67-3.93,12.1l3.88,22.6c1.92,11.17-9.81,19.69-19.84,14.41l-20.29-10.67c-3.98-2.09-8.74-2.09-12.73,0l-20.29,10.67c-10.03,5.27-21.76-3.24-19.84-14.41l3.88-22.6c.76-4.44-.71-8.96-3.93-12.1l-16.42-16c-8.12-7.91-3.64-21.69,7.58-23.32l22.69-3.3c4.45-.65,8.3-3.44,10.3-7.48l10.15-20.56c5.02-10.16,19.51-10.16,24.52,0Z"/>
          <path class="cls-7" d="M200.94,51.61c-.43-4.4-3.67-8.44-8.74-9.18l-25.76-3.75c-3.34-.49-6.23-2.58-7.73-5.61l-11.52-23.35c-3.76-7.62-14.63-7.62-18.39,0l-11.52,23.35c-1.5,3.02-4.38,5.12-7.73,5.61l-25.76,3.75c-5.07.74-8.31,4.79-8.74,9.18-.52-5.12,2.89-10.38,8.74-11.23l25.76-3.75c3.34-.49,6.23-2.58,7.73-5.61l11.52-23.35c3.76-7.62,14.63-7.62,18.39,0l11.52,23.35c1.5,3.02,4.38,5.12,7.73,5.61l25.76,3.75c5.85.85,9.26,6.11,8.74,11.23Z"/>
          <path class="cls-1" d="M147.2,9.81l11.52,23.34c1.49,3.03,4.38,5.12,7.72,5.61l25.76,3.74c8.41,1.22,11.77,11.56,5.68,17.49l-18.64,18.17c-2.42,2.36-3.52,5.75-2.95,9.08l4.4,25.66c1.44,8.38-7.36,14.77-14.88,10.81l-23.04-12.11c-2.99-1.57-6.56-1.57-9.54,0l-23.04,12.11c-7.52,3.96-16.32-2.43-14.88-10.81l4.4-25.66c.57-3.33-.53-6.72-2.95-9.08l-18.64-18.17c-6.09-5.93-2.73-16.27,5.68-17.49l25.76-3.74c3.34-.49,6.23-2.58,7.72-5.61l11.52-23.34c3.76-7.62,14.63-7.62,18.39,0Z"/>
        </g>
        <path class="cls-5" d="M100.08,117.53s-.01-.04-.02-.06c-.02-.03-.04-.07-.06-.1-.35-.53-.92-.64-1.48-.39-.4.18-.57.58-.68.96-.29,1.02.78,1.92,1.74,1.52.8-.34.97-1.3.52-1.94Z"/>
        <path class="cls-5" d="M103.78,113.25c-.26-.44-.76-.67-1.25-.6-.44.06-.81.34-.98.75-.18.43-.12,1.05.26,1.37.17.14.33.28.5.42.36.31.86.26,1.13-.15.12-.18.23-.36.35-.53.24-.36.21-.9,0-1.27Z"/>
        <path class="cls-5" d="M105.18,121.06c-.02-.08-.03-.15-.05-.23,0-.02,0-.09,0-.11,0-.16,0-.31.02-.47.08-.68-.72-1.16-1.31-1-.6.16-1.02.97-.62,1.52.29.4.6.73,1.02,1.01.49.33,1.06-.22.94-.72Z"/>
        <path class="cls-4" d="M101.81,119.58c-.17-.09-.39-.13-.59-.1-.19-.01-.39,0-.56.08-.49.21-.77.7-.7,1.23.06.46.39.85.84.98.47.13,1.11-.08,1.33-.54.11-.24.22-.46.22-.73,0-.38-.21-.75-.54-.93Z"/>
        <path class="cls-4" d="M105.54,112.89c-.12,0-.12.18,0,.18s.12-.18,0-.18Z"/>
        <path class="cls-4" d="M107.32,117.7c-.1-.07-.2-.15-.3-.22-.39-.28-.79.38-.38.65.1.07.21.14.31.2.4.26.74-.36.37-.63Z"/>
        <path class="cls-4" d="M107.35,120.65c-.42,0-.77.35-.77.77s.35.77.77.77.77-.35.77-.77-.35-.77-.77-.77Z"/>
        <path class="cls-4" d="M109.56,119.54c-1.41,0-1.41,2.19,0,2.19s1.41-2.19,0-2.19Z"/>
        <path class="cls-4" d="M112.42,112.04c-1.2,0-1.2,1.87,0,1.87s1.2-1.87,0-1.87Z"/>
        <path class="cls-4" d="M115.4,115.76c-.93,0-.93,1.44,0,1.44s.93-1.44,0-1.44Z"/>
        <path class="cls-4" d="M120.73,111.58c-1.46,0-1.46,2.27,0,2.27s1.46-2.27,0-2.27Z"/>
        <path class="cls-4" d="M98.26,112.44c-1.03,0-1.03,1.6,0,1.6s1.03-1.6,0-1.6Z"/>
        <path class="cls-4" d="M99.22,108.63c-.01-.1-.12-.2-.21-.21-.19-.04-.4-.03-.61-.04-.72-.03-1.13.95-.6,1.44.53.49,1.43.16,1.44-.6,0-.2,0-.39-.02-.59Z"/>
        <path class="cls-4" d="M103.2,105.93c-1.21,0-1.22,1.89,0,1.89s1.22-1.89,0-1.89Z"/>
        <path class="cls-4" d="M106.7,112.87c-.53,0-1.04.47-1.01,1.01.02.55.45,1.01,1.01,1.01.53,0,1.04-.47,1.01-1.01-.02-.55-.45-1.01-1.01-1.01Z"/>
        <path class="cls-4" d="M125.98,111.79c-.07-.27-.27-.52-.55-.59-.06-.01-.11-.01-.16-.02-.4-.08-.74.11-1.04.35-.35.27-.39.86-.23,1.23.17.39.58.71,1.03.69.39-.02.77-.21.97-.56.22-.38.17-.76,0-1.11Z"/>
        <path class="cls-4" d="M129.82,107.83c-1.28,0-1.28,1.99,0,1.99s1.28-1.99,0-1.99Z"/>
        <path class="cls-4" d="M131.51,109.75c-.64,0-.64.99,0,.99s.64-.99,0-.99Z"/>
        <path class="cls-4" d="M144.68,105.21s-.04-.04-.05-.07c.2-.44-.01-1.09-.65-1.09-.97,0-.97,1.5,0,1.5.14,0,.26-.03.36-.09.02.01.03.03.05.04.18.11.41-.11.29-.29Z"/>
        <path class="cls-4" d="M144.49,109.52c-.6,0-.6.93,0,.93s.6-.93,0-.93Z"/>
        <path class="cls-4" d="M149.17,110.95c-.27,0-.27.43,0,.43s.27-.43,0-.43Z"/>
        <path class="cls-4" d="M133.33,100.21c-1.55,0-1.56,2.41,0,2.41s1.56-2.41,0-2.41Z"/>
        <path class="cls-4" d="M137.35,96.66c-.78,0-.78,1.22,0,1.22s.78-1.22,0-1.22Z"/>
        <path class="cls-4" d="M140.86,105.34c-.64,0-.64.99,0,.99s.64-.99,0-.99Z"/>
        <path class="cls-4" d="M138.78,107.05c-1.28,0-1.28,1.99,0,1.99s1.28-1.99,0-1.99Z"/>
        <path class="cls-4" d="M158.79,114.62c0-.06-.02-.12-.03-.18,0-.02,0-.04,0-.05,0,0,0,.01,0-.02,0-.12-.02-.23-.03-.35-.03-.41-.19-.76-.56-.97-.35-.2-.79-.2-1.14,0-.71.41-.76,1.54,0,1.94.25.13.49.26.73.41.23.15.57.11.78-.05.24-.19.3-.45.25-.74Z"/>
        <path class="cls-4" d="M160.99,113.4c-1.29,0-1.29,2.01,0,2.01s1.29-2.01,0-2.01Z"/>
        <path class="cls-4" d="M157.61,107.68c-1.48,0-1.48,2.29,0,2.29s1.48-2.29,0-2.29Z"/>
        <path class="cls-4" d="M152.02,112.67c-1.23,0-1.23,1.91,0,1.91s1.23-1.91,0-1.91Z"/>
        <path class="cls-4" d="M165.92,118.49c-1.1,0-1.1,1.7,0,1.7s1.1-1.7,0-1.7Z"/>
        <path class="cls-4" d="M168.78,119.06c-.86,0-.86,1.34,0,1.34s.86-1.34,0-1.34Z"/>
        <path class="cls-4" d="M172.54,115.23c-1.28,0-1.28,1.99,0,1.99s1.28-1.99,0-1.99Z"/>
        <path class="cls-4" d="M173.45,118.31c-1.16,0-1.16,1.81,0,1.81s1.16-1.81,0-1.81Z"/>
        <path class="cls-4" d="M171.11,122.81c-.05,0-.05.08,0,.08s.05-.08,0-.08Z"/>
        <path class="cls-4" d="M177.61,117.25c-1.36,0-1.36,2.11,0,2.11s1.36-2.11,0-2.11Z"/>
        <path class="cls-4" d="M174.49,113.12c-.99,0-.99,1.54,0,1.54s.99-1.54,0-1.54Z"/>
        <path class="cls-4" d="M172.8,109.59c-1.68,0-1.69,2.62,0,2.62s1.69-2.62,0-2.62Z"/>
        <path class="cls-4" d="M176.44,107.61c-.56,0-.56.87,0,.87s.56-.87,0-.87Z"/>
        <path class="cls-4" d="M176.57,106.2c-.71,0-.71,1.1,0,1.1s.71-1.1,0-1.1Z"/>
        <path class="cls-4" d="M172.8,97.41c-1.32,0-1.32,2.05,0,2.05s1.32-2.05,0-2.05Z"/>
        <path class="cls-4" d="M167.35,98.17c-1.34,0-1.35,2.09,0,2.09s1.35-2.09,0-2.09Z"/>
        <path class="cls-4" d="M172.28,94.51c-1.03,0-1.03,1.6,0,1.6s1.03-1.6,0-1.6Z"/>
        <path class="cls-4" d="M173.71,88.92c-.87,0-.88,1.36,0,1.36s.88-1.36,0-1.36Z"/>
        <path class="cls-4" d="M174.36,100.81c-.66,0-1.29.58-1.26,1.26.03.68.55,1.26,1.26,1.26.66,0,1.29-.58,1.26-1.26-.03-.68-.55-1.26-1.26-1.26Z"/>
        <path class="cls-4" d="M170.98,80.98c-1.74,0-1.74,2.7,0,2.7s1.74-2.7,0-2.7Z"/>
        <path class="cls-4" d="M172.02,77.41c-.98,0-.98,1.52,0,1.52s.98-1.52,0-1.52Z"/>
        <path class="cls-4" d="M174.75,78.29c-1.36,0-1.36,2.11,0,2.11s1.36-2.11,0-2.11Z"/>
        <path class="cls-4" d="M180.46,70.81c-1.46,0-1.46,2.27,0,2.27s1.46-2.27,0-2.27Z"/>
        <path class="cls-4" d="M186.7,66.41c-1.27,0-1.27,1.97,0,1.97s1.27-1.97,0-1.97Z"/>
        <path class="cls-4" d="M187.87,63.72c-.89,0-.89,1.38,0,1.38s.89-1.38,0-1.38Z"/>
        <path class="cls-4" d="M191.76,62.42c-1.06,0-1.06,1.64,0,1.64s1.06-1.64,0-1.64Z"/>
        <path class="cls-4" d="M195.01,55.93c-1.38,0-1.39,2.15,0,2.15s1.39-2.15,0-2.15Z"/>
        <path class="cls-4" d="M183.06,64.2c-1.11,0-1.11,1.72,0,1.72s1.11-1.72,0-1.72Z"/>
        <path class="cls-4" d="M177.22,72.37c-1.12,0-1.12,1.74,0,1.74s1.12-1.74,0-1.74Z"/>
        <path class="cls-4" d="M101.4,89.5c-.21.23-.28.5-.21.8.13.55,1.03.46,1.03-.08.41-.47-.37-1.22-.83-.72Z"/>
        <path class="cls-4" d="M100.73,95.58c-.42,0-.77.35-.77.77s.35.77.77.77.77-.35.77-.77-.35-.77-.77-.77Z"/>
        <path class="cls-4" d="M97.35,72.03c-.72,0-.72,1.12,0,1.12s.72-1.12,0-1.12Z"/>
        <path class="cls-4" d="M91.6,69s-.02-.02-.03-.03c-.16-.17-.46-.17-.62,0-.01.01-.02.02-.03.03-.29.3-.08.83.34.83s.64-.53.34-.83Z"/>
        <path class="cls-4" d="M90.21,64.78c-.86,0-.86,1.34,0,1.34s.86-1.34,0-1.34Z"/>
        <path class="cls-4" d="M84.37,57.82c-.63,0-.63.97,0,.97s.63-.97,0-.97Z"/>
        <path class="cls-4" d="M83.06,59.53c-.23-.14-.59-.07-.72.19-.05.1-.09.19-.11.31-.08.46.46.88.83.49.08-.08.14-.16.19-.26.13-.25.07-.57-.19-.72Z"/>
        <path class="cls-4" d="M85.93,63.6s-.03.05,0,.05.03-.05,0-.05Z"/>
        <path class="cls-4" d="M80.21,56.08s-.04,0-.06,0c-.87-.05-.87,1.39,0,1.35.02,0,.04,0,.06,0,.86-.05.86-1.29,0-1.34Z"/>
        <path class="cls-4" d="M119.6,83.46l-.04-.05c-.25-.28-.78-.28-1.04,0l-.04.05c-.22.24-.29.56-.16.86.12.28.41.5.72.49.7-.03,1.02-.83.56-1.35Z"/>
        <path class="cls-4" d="M113.07,90.14c-.98,0-.98,1.52,0,1.52s.98-1.52,0-1.52Z"/>
        <path class="cls-4" d="M142.93,85.54c-.72,0-.72,1.12,0,1.12s.72-1.12,0-1.12Z"/>
        <path class="cls-4" d="M154.36,88.2c-.64,0-.64.99,0,.99s.64-.99,0-.99Z"/>
        <path class="cls-4" d="M136.83,61.25c-.5,0-.5.77,0,.77s.5-.77,0-.77Z"/>
        <path class="cls-4" d="M151.03,51.8s-.04,0-.06.01c-.51.12-.51.91,0,1.04.02,0,.04,0,.06.01.35.08.7-.17.7-.53s-.35-.62-.7-.53Z"/>
        <path class="cls-4" d="M153.45,70.05c-.6,0-.6.93,0,.93s.6-.93,0-.93Z"/>
        <path class="cls-4" d="M146.96,94.97c-.59,0-1.15.52-1.13,1.13.03.61.49,1.13,1.13,1.13.59,0,1.15-.52,1.13-1.13-.03-.61-.49-1.13-1.13-1.13Z"/>
        <path class="cls-4" d="M117.19,98.66s-.03,0-.04,0c-.53-.09-1.06.22-1.14.81-.04.3.05.6.27.82.27.27.59.31.95.25.46-.07.87-.55.83-1.01-.04-.5-.37-.82-.87-.87Z"/>
        <path class="cls-4" d="M172.67,60.02c-.97,0-.97,1.5,0,1.5s.97-1.5,0-1.5Z"/>
        <path class="cls-4" d="M111.12,52.11c-1.12,0-1.12,1.74,0,1.74s1.12-1.74,0-1.74Z"/>
      </g>
    </g>
  </g>
</svg>