<?xml version="1.0" encoding="UTF-8"?>
<svg id="Ebene_2" data-name="Ebene 2" xmlns="http://www.w3.org/2000/svg" xmlns:xlink="http://www.w3.org/1999/xlink" viewBox="0 0 276.11 141.21">
  <defs>
    <style>
      .cls-1 {
        fill: url(#linear-gradient-3);
      }

      .cls-2 {
        fill: url(#linear-gradient-2);
      }

      .cls-3 {
        fill: url(#linear-gradient);
      }

      .cls-4 {
        fill: #ff9d00;
      }

      .cls-5 {
        fill: #ffb600;
      }

      .cls-6 {
        fill: #b8b8b8;
      }

      .cls-7 {
        opacity: .4;
      }

      .cls-8 {
        fill: #e1e1e1;
      }

      .cls-9 {
        fill: #a9a9a9;
      }

      .cls-10 {
        fill: #ffe773;
      }
    </style>
    <linearGradient id="linear-gradient" x1="1664.79" y1="-698.71" x2="1664.79" y2="-792.44" gradientTransform="translate(-1456.98 1105.44) rotate(-10)" gradientUnits="userSpaceOnUse">
      <stop offset="0" stop-color="#ffb000"/>
      <stop offset="1" stop-color="#ffda00"/>
    </linearGradient>
    <linearGradient id="linear-gradient-2" x1="-1220.54" y1="1376.23" x2="-1220.54" y2="1282.5" gradientTransform="translate(1655.9 -1015.13) rotate(10)" xlink:href="#linear-gradient"/>
    <linearGradient id="linear-gradient-3" x1="138.06" y1="124.97" x2="138.06" y2="4.09" gradientUnits="userSpaceOnUse">
      <stop offset="0" stop-color="#b4b4b4"/>
      <stop offset="1" stop-color="#cdcdcd"/>
    </linearGradient>
  </defs>
  <g id="Ebene_1-2" data-name="Ebene 1">
    <g>
      <g>
        <g>
          <path class="cls-7" d="M101.78,77.15c5.13-7.14-.14-17.06-8.93-16.8l-17.78.54c-3.49.11-6.81-1.51-8.87-4.33l-10.52-14.34c-5.2-7.09-16.27-5.14-18.74,3.3l-4.98,17.08c-.98,3.35-3.54,6.01-6.86,7.1l-16.89,5.58c-8.35,2.76-9.91,13.89-2.65,18.84l14.7,10.02c2.89,1.97,4.62,5.23,4.63,8.72l.08,17.79c.04,8.79,10.15,13.72,17.1,8.34l14.07-10.89c2.76-2.14,6.4-2.78,9.72-1.71l16.94,5.42c8.37,2.68,16.18-5.41,13.22-13.69l-6.01-16.74c-1.18-3.29-.66-6.94,1.37-9.78l10.39-14.44Z"/>
          <path class="cls-7" d="M101.21,73.92c5.13-7.14-.14-17.06-8.93-16.8l-17.78.54c-3.49.11-6.81-1.51-8.87-4.33l-10.52-14.34c-5.2-7.09-16.27-5.14-18.74,3.3l-4.98,17.08c-.98,3.35-3.54,6.01-6.86,7.1l-16.89,5.58c-8.35,2.76-9.91,13.89-2.65,18.84l14.7,10.02c2.89,1.97,4.62,5.23,4.63,8.72l.08,17.79c.04,8.79,10.15,13.72,17.1,8.34l14.07-10.89c2.76-2.14,6.4-2.78,9.72-1.71l16.94,5.42c8.37,2.68,16.18-5.41,13.22-13.69l-6.01-16.74c-1.18-3.29-.66-6.94,1.37-9.78l10.39-14.44Z"/>
          <g>
            <path class="cls-4" d="M54.75,37l10.52,14.34c2.07,2.81,5.38,4.43,8.87,4.33l17.78-.54c8.79-.27,14.07,9.66,8.93,16.8l-10.39,14.44c-2.04,2.83-2.55,6.49-1.37,9.78l6.01,16.74c2.97,8.28-4.84,16.36-13.22,13.69l-16.94-5.42c-3.33-1.06-6.96-.42-9.72,1.71l-14.07,10.89c-6.95,5.38-17.06.45-17.1-8.34l-.08-17.79c-.02-3.49-1.75-6.75-4.63-8.72l-14.7-10.02c-7.27-4.95-5.7-16.08,2.65-18.84l16.89-5.58c3.32-1.09,5.88-3.75,6.86-7.1l4.98-17.07c2.46-8.44,13.53-10.39,18.74-3.3Z"/>
            <path class="cls-10" d="M99.39,63.77c-.92-3.3-3.94-5.96-7.91-5.84l-20.19.61c-2.62.08-5.11-1.14-6.66-3.24l-11.95-16.29c-3.9-5.32-12.2-3.85-14.05,2.48l-5.66,19.39c-.74,2.51-2.66,4.5-5.15,5.32l-19.18,6.33c-3.77,1.25-5.7,4.78-5.44,8.19-1.09-3.84.81-8.32,5.16-9.76l19.18-6.33c2.49-.82,4.41-2.81,5.15-5.32l5.66-19.39c1.85-6.33,10.15-7.79,14.05-2.48l11.95,16.29c1.55,2.11,4.04,3.32,6.66,3.24l20.19-.61c4.59-.14,7.9,3.42,8.19,7.4Z"/>
            <path class="cls-3" d="M52.7,39.08l11.95,16.28c1.55,2.11,4.04,3.32,6.65,3.25l20.19-.61c6.59-.2,10.55,7.25,6.7,12.6l-11.79,16.39c-1.53,2.13-1.91,4.87-1.03,7.33l6.82,19.01c2.23,6.21-3.63,12.27-9.91,10.26l-19.24-6.15c-2.49-.8-5.22-.32-7.29,1.29l-15.97,12.36c-5.22,4.04-12.79.34-12.82-6.25l-.09-20.2c-.01-2.62-1.31-5.06-3.48-6.54l-16.69-11.37c-5.45-3.71-4.28-12.06,1.99-14.13l19.18-6.33c2.49-.82,4.41-2.81,5.14-5.33l5.66-19.39c1.85-6.33,10.15-7.79,14.05-2.48Z"/>
          </g>
          <path class="cls-5" d="M31.22,127.72s-.02-.03-.03-.04c-.02-.02-.04-.05-.06-.07-.34-.36-.79-.37-1.19-.1-.28.19-.36.52-.39.83-.09.82.86,1.36,1.53.93.56-.36.57-1.13.13-1.55Z"/>
          <path class="cls-5" d="M33.47,123.95c-.25-.3-.67-.41-1.04-.29-.33.11-.57.37-.65.71-.08.35.05.82.38,1.01.15.09.29.17.44.26.32.19.69.09.84-.26.06-.15.13-.3.19-.46.13-.31.04-.72-.17-.97Z"/>
          <path class="cls-5" d="M35.59,129.73c-.02-.06-.05-.11-.07-.17,0-.01-.01-.07-.02-.08-.03-.12-.04-.24-.05-.36-.03-.53-.7-.79-1.14-.59-.43.21-.65.88-.27,1.24.28.27.56.47.91.63.42.19.78-.31.62-.68Z"/>
          <path class="cls-4" d="M32.82,129.06c-.15-.05-.31-.05-.46,0-.15.02-.3.06-.42.14-.35.22-.5.64-.37,1.04.11.34.41.6.78.63.38.04.83-.21.94-.59.05-.2.11-.38.07-.58-.05-.29-.26-.54-.54-.63Z"/>
          <path class="cls-4" d="M34.76,123.44c-.09.02-.07.16.02.14s.07-.16-.02-.14Z"/>
          <path class="cls-4" d="M36.77,126.88c-.09-.04-.17-.08-.26-.13-.33-.16-.55.4-.2.55.09.04.18.08.27.11.34.15.52-.38.2-.53Z"/>
          <circle class="cls-4" cx="37.3" cy="129.71" r=".6"/>
          <path class="cls-4" d="M38.73,127.98c-1.08.19-.78,1.86.3,1.67s.78-1.86-.3-1.67Z"/>
          <path class="cls-4" d="M39.91,121.87c-.92.16-.67,1.59.25,1.43s.67-1.59-.25-1.43Z"/>
          <path class="cls-4" d="M42.69,124.31c-.71.12-.52,1.23.19,1.1s.52-1.23-.19-1.1Z"/>
          <path class="cls-4" d="M46.19,120.4c-1.12.2-.81,1.93.31,1.74s.81-1.93-.31-1.74Z"/>
          <path class="cls-4" d="M29.15,124.08c-.79.14-.57,1.36.22,1.22.79-.14.57-1.36-.22-1.22Z"/>
          <path class="cls-4" d="M29.37,121.04c-.02-.07-.12-.13-.19-.13-.15,0-.31.03-.47.05-.55.08-.73.88-.26,1.18.47.3,1.12-.07,1.02-.65-.03-.15-.05-.3-.09-.45Z"/>
          <path class="cls-4" d="M32.04,118.44c-.93.16-.67,1.61.25,1.44s.67-1.61-.25-1.44Z"/>
          <path class="cls-4" d="M35.65,123.27c-.41.07-.73.5-.64.91.09.42.48.72.91.64.41-.07.73-.5.64-.91-.09-.42-.48-.72-.91-.64Z"/>
          <path class="cls-4" d="M50.23,119.85c-.09-.2-.27-.36-.5-.37-.05,0-.09,0-.13,0-.31,0-.55.18-.75.41-.23.26-.18.71-.01.97.18.28.54.47.88.39.3-.07.56-.27.67-.56.12-.32.03-.61-.16-.84Z"/>
          <path class="cls-4" d="M52.63,116.31c-.98.17-.71,1.69.27,1.52.98-.17.71-1.69-.27-1.52Z"/>
          <path class="cls-4" d="M54.18,117.55c-.49.09-.36.85.13.76s.36-.85-.13-.76Z"/>
          <path class="cls-4" d="M63.63,112.3s-.03-.03-.05-.04c.09-.37-.16-.83-.64-.75-.74.13-.54,1.28.2,1.15.11-.02.19-.06.26-.12.02,0,.03.02.05.02.15.06.29-.14.18-.26Z"/>
          <path class="cls-4" d="M64.07,115.62c-.46.08-.33.79.13.71s.33-.79-.13-.71Z"/>
          <path class="cls-4" d="M67.84,116.08c-.21.04-.15.36.06.33s.15-.36-.06-.33Z"/>
          <path class="cls-4" d="M54.29,110.02c-1.19.21-.86,2.05.33,1.84s.86-2.05-.33-1.84Z"/>
          <path class="cls-4" d="M56.88,106.76c-.6.11-.44,1.04.16.93s.44-1.04-.16-.93Z"/>
          <path class="cls-4" d="M60.73,112.92c-.49.09-.36.85.13.76s.36-.85-.13-.76Z"/>
          <path class="cls-4" d="M59.37,114.5c-.98.17-.71,1.69.27,1.52s.71-1.69-.27-1.52Z"/>
          <path class="cls-4" d="M75.68,117.59s-.03-.09-.05-.13c0-.02-.01-.03-.01-.04,0,0,0,0,0-.01-.02-.09-.05-.18-.07-.26-.08-.31-.25-.55-.56-.67-.29-.11-.63-.05-.87.15-.48.41-.37,1.28.26,1.49.21.07.41.13.61.22.2.08.45.01.59-.15.15-.18.17-.38.09-.6Z"/>
          <path class="cls-4" d="M77.19,116.36c-.99.17-.72,1.71.27,1.53s.72-1.71-.27-1.53Z"/>
          <path class="cls-4" d="M73.84,112.45c-1.13.2-.82,1.95.31,1.75s.82-1.95-.31-1.75Z"/>
          <path class="cls-4" d="M70.25,117.02c-.94.17-.68,1.62.26,1.46s.68-1.62-.26-1.46Z"/>
          <path class="cls-4" d="M81.65,119.59c-.84.15-.61,1.45.23,1.3s.61-1.45-.23-1.3Z"/>
          <path class="cls-4" d="M83.91,119.64c-.66.12-.48,1.14.18,1.02s.48-1.14-.18-1.02Z"/>
          <path class="cls-4" d="M86.27,116.2c-.98.17-.71,1.69.27,1.52s.71-1.69-.27-1.52Z"/>
          <path class="cls-4" d="M87.38,118.43c-.89.16-.65,1.54.24,1.38s.65-1.54-.24-1.38Z"/>
          <path class="cls-4" d="M86.2,122.19s-.03.07.01.06.03-.07-.01-.06Z"/>
          <path class="cls-4" d="M90.41,117.06c-1.04.18-.75,1.8.28,1.61s.75-1.8-.28-1.61Z"/>
          <path class="cls-4" d="M87.47,114.33c-.76.13-.55,1.31.21,1.18s.55-1.31-.21-1.18Z"/>
          <path class="cls-4" d="M85.71,111.86c-1.29.23-.94,2.23.35,2s.94-2.23-.35-2Z"/>
          <path class="cls-4" d="M88.22,109.86c-.43.08-.31.74.12.67s.31-.74-.12-.67Z"/>
          <path class="cls-4" d="M88.13,108.76c-.54.09-.39.93.15.84s.39-.93-.15-.84Z"/>
          <path class="cls-4" d="M84.07,102.55c-1.01.18-.73,1.74.28,1.57s.73-1.74-.28-1.57Z"/>
          <path class="cls-4" d="M80,103.87c-1.03.18-.75,1.78.28,1.6s.75-1.78-.28-1.6Z"/>
          <path class="cls-4" d="M83.28,100.41c-.79.14-.57,1.36.22,1.22s.57-1.36-.22-1.22Z"/>
          <path class="cls-4" d="M83.62,95.95c-.67.12-.49,1.16.18,1.04s.49-1.16-.18-1.04Z"/>
          <path class="cls-4" d="M85.72,104.94c-.5.09-.91.62-.79,1.13.12.52.59.89,1.13.79.5-.09.91-.62.79-1.13-.12-.52-.59-.89-1.13-.79Z"/>
          <path class="cls-4" d="M80.47,90.25c-1.33.23-.97,2.3.36,2.06s.97-2.3-.36-2.06Z"/>
          <path class="cls-4" d="M80.78,87.38c-.75.13-.54,1.29.21,1.16s.54-1.29-.21-1.16Z"/>
          <path class="cls-4" d="M82.98,87.69c-1.04.18-.75,1.8.28,1.61s.75-1.8-.28-1.61Z"/>
          <path class="cls-4" d="M86.34,81.2c-1.12.2-.81,1.93.31,1.74s.81-1.93-.31-1.74Z"/>
          <path class="cls-4" d="M90.51,77c-.97.17-.7,1.67.27,1.5s.7-1.67-.27-1.5Z"/>
          <path class="cls-4" d="M91.04,74.79c-.68.12-.49,1.17.19,1.05s.49-1.17-.19-1.05Z"/>
          <path class="cls-4" d="M93.84,73.27c-.81.14-.59,1.4.22,1.26s.59-1.4-.22-1.26Z"/>
          <path class="cls-4" d="M95.45,67.88c-1.06.19-.77,1.83.29,1.64s.77-1.83-.29-1.64Z"/>
          <path class="cls-4" d="M87.43,75.8c-.85.15-.62,1.47.23,1.32s.62-1.47-.23-1.32Z"/>
          <path class="cls-4" d="M84.07,82.83c-.86.15-.62,1.48.24,1.33s.62-1.48-.24-1.33Z"/>
          <path class="cls-4" d="M28.45,106.13c-.13.2-.15.42-.05.64.17.4.85.22.78-.2.25-.41-.44-.89-.73-.44Z"/>
          <circle class="cls-4" cx="28.86" cy="111.46" r=".6"/>
          <path class="cls-4" d="M23.01,93.33c-.55.1-.4.95.15.85s.4-.95-.15-.85Z"/>
          <path class="cls-4" d="M18.2,91.79s-.02-.01-.03-.02c-.15-.11-.38-.07-.48.08,0,0-.01.02-.02.03-.18.27.05.65.38.59s.41-.49.15-.68Z"/>
          <path class="cls-4" d="M16.58,88.75c-.66.12-.48,1.14.18,1.02s.48-1.14-.18-1.02Z"/>
          <path class="cls-4" d="M11.17,84.22c-.48.08-.35.83.13.74s.35-.83-.13-.74Z"/>
          <path class="cls-4" d="M10.41,85.71c-.2-.07-.46.03-.53.24-.03.09-.05.16-.04.25,0,.36.47.61.7.26.05-.07.08-.14.11-.22.06-.21-.03-.45-.24-.53Z"/>
          <path class="cls-4" d="M13.14,88.43s-.02.04,0,.04.02-.04,0-.04Z"/>
          <path class="cls-4" d="M7.76,83.45s-.03,0-.05,0c-.67.08-.48,1.18.18,1.03.02,0,.03,0,.05-.01.65-.15.48-1.1-.18-1.02Z"/>
          <path class="cls-4" d="M41.54,99.06l-.04-.03c-.23-.18-.64-.11-.79.14l-.03.04c-.13.21-.15.47,0,.68.13.2.38.33.62.27.53-.12.67-.77.25-1.11Z"/>
          <path class="cls-4" d="M37.45,105.05c-.75.13-.54,1.29.21,1.16s.54-1.29-.21-1.16Z"/>
          <path class="cls-4" d="M59.65,97.51c-.55.1-.4.95.15.85s.4-.95-.15-.85Z"/>
          <path class="cls-4" d="M68.74,98c-.49.09-.36.85.13.76s.36-.85-.13-.76Z"/>
          <path class="cls-4" d="M51.72,79.78c-.38.07-.28.66.1.59s.28-.66-.1-.59Z"/>
          <path class="cls-4" d="M61.29,70.64s-.03.01-.04.02c-.37.16-.27.77.14.79.02,0,.03,0,.05,0,.28.02.51-.22.46-.5s-.35-.42-.61-.31Z"/>
          <path class="cls-4" d="M65.6,84.26c-.46.08-.33.79.13.71s.33-.79-.13-.71Z"/>
          <path class="cls-4" d="M64,104.17c-.45.08-.81.55-.71,1.01.1.46.53.79,1.01.71.45-.08.81-.55.71-1.01-.1-.46-.53-.79-1.01-.71Z"/>
          <path class="cls-4" d="M41.75,111s-.02,0-.03,0c-.42,0-.78.31-.76.77,0,.24.12.45.31.59.24.17.5.16.76.06.34-.12.59-.53.5-.89-.09-.38-.39-.58-.78-.55Z"/>
          <path class="cls-4" d="M78.93,74.01c-.74.13-.54,1.28.2,1.15s.54-1.28-.2-1.15Z"/>
          <path class="cls-4" d="M30.84,76.26c-.86.15-.62,1.48.24,1.33s.62-1.48-.24-1.33Z"/>
        </g>
        <g>
          <path class="cls-7" d="M270.56,94.12c7.27-4.95,5.7-16.08-2.65-18.84l-16.89-5.58c-3.32-1.09-5.88-3.75-6.86-7.1l-4.98-17.08c-2.46-8.44-13.53-10.39-18.74-3.3l-10.52,14.34c-2.07,2.81-5.38,4.43-8.87,4.33l-17.78-.54c-8.79-.27-14.07,9.66-8.93,16.8l10.39,14.44c2.04,2.83,2.55,6.49,1.37,9.78l-6.01,16.74c-2.97,8.28,4.84,16.36,13.22,13.69l16.94-5.42c3.33-1.06,6.96-.42,9.72,1.71l14.07,10.89c6.95,5.38,17.06.45,17.1-8.34l.08-17.79c.02-3.49,1.75-6.75,4.63-8.72l14.7-10.02Z"/>
          <path class="cls-7" d="M271.12,90.89c7.27-4.95,5.7-16.08-2.65-18.84l-16.89-5.58c-3.32-1.09-5.88-3.75-6.86-7.1l-4.98-17.08c-2.46-8.44-13.53-10.39-18.74-3.3l-10.52,14.34c-2.07,2.81-5.38,4.43-8.87,4.33l-17.78-.54c-8.79-.27-14.07,9.66-8.93,16.8l10.39,14.44c2.04,2.83,2.55,6.49,1.37,9.78l-6.01,16.74c-2.97,8.28,4.84,16.36,13.22,13.69l16.94-5.42c3.33-1.06,6.96-.42,9.72,1.71l14.07,10.89c6.95,5.38,17.06.45,17.1-8.34l.08-17.79c.02-3.49,1.75-6.75,4.63-8.72l14.7-10.02Z"/>
          <g>
            <path class="cls-4" d="M240.1,40.3l4.98,17.07c.98,3.35,3.54,6.01,6.86,7.1l16.89,5.58c8.35,2.76,9.91,13.89,2.65,18.84l-14.7,10.02c-2.89,1.97-4.62,5.23-4.63,8.72l-.08,17.79c-.04,8.79-10.15,13.72-17.1,8.34l-14.07-10.89c-2.76-2.14-6.4-2.78-9.72-1.71l-16.94,5.42c-8.37,2.68-16.18-5.41-13.22-13.69l6.01-16.74c1.18-3.29.66-6.94-1.37-9.78l-10.39-14.44c-5.13-7.14.14-17.06,8.93-16.8l17.78.54c3.49.11,6.81-1.51,8.87-4.33l10.52-14.34c5.2-7.09,16.27-5.14,18.74,3.3Z"/>
            <path class="cls-10" d="M272.89,80.73c.26-3.42-1.67-6.95-5.44-8.19l-19.18-6.33c-2.49-.82-4.41-2.81-5.15-5.32l-5.66-19.39c-1.85-6.33-10.15-7.79-14.05-2.48l-11.95,16.29c-1.55,2.11-4.04,3.32-6.66,3.24l-20.19-.61c-3.97-.12-6.99,2.54-7.91,5.84.29-3.98,3.6-7.54,8.19-7.4l20.19.61c2.62.08,5.11-1.14,6.66-3.24l11.95-16.29c3.9-5.32,12.2-3.85,14.05,2.48l5.66,19.39c.74,2.51,2.66,4.5,5.15,5.32l19.18,6.33c4.36,1.44,6.25,5.92,5.16,9.76Z"/>
            <path class="cls-2" d="M237.46,41.56l5.66,19.39c.73,2.51,2.66,4.51,5.14,5.33l19.18,6.33c6.26,2.07,7.44,10.42,1.99,14.13l-16.69,11.37c-2.16,1.47-3.46,3.92-3.48,6.54l-.09,20.2c-.03,6.59-7.61,10.29-12.82,6.25l-15.97-12.36c-2.07-1.6-4.8-2.08-7.29-1.29l-19.24,6.15c-6.28,2.01-12.14-4.06-9.91-10.26l6.82-19.01c.88-2.46.5-5.21-1.03-7.33l-11.79-16.39c-3.85-5.35.11-12.8,6.7-12.6l20.19.61c2.62.08,5.11-1.13,6.65-3.25l11.95-16.28c3.9-5.32,12.2-3.85,14.05,2.48Z"/>
          </g>
          <path class="cls-5" d="M186.95,117.51s0-.03-.01-.05c-.01-.03-.02-.06-.04-.09-.2-.45-.62-.61-1.08-.5-.33.08-.51.36-.65.65-.36.74.34,1.57,1.12,1.4.65-.15.92-.86.66-1.41Z"/>
          <path class="cls-5" d="M190.36,114.74c-.14-.37-.49-.61-.88-.63-.35-.01-.66.15-.85.44-.2.31-.23.79.01,1.08.11.13.22.26.33.39.24.28.62.32.88.04.11-.12.23-.24.34-.36.23-.25.29-.66.17-.97Z"/>
          <path class="cls-5" d="M190.37,120.89c0-.06,0-.12,0-.18,0-.01,0-.07.01-.08.02-.12.04-.24.08-.36.15-.51-.39-.98-.87-.94-.48.05-.91.6-.68,1.08.17.35.36.64.64.91.33.32.84-.02.82-.43Z"/>
          <path class="cls-4" d="M188,119.31c-.12-.1-.28-.15-.43-.15-.15-.04-.3-.05-.44-.01-.4.09-.69.43-.7.85-.01.36.18.7.51.86.34.16.86.09,1.09-.23.12-.16.23-.32.27-.53.05-.29-.06-.6-.29-.78Z"/>
          <path class="cls-4" d="M191.75,114.69c-.09-.02-.11.12-.02.14s.11-.12.02-.14Z"/>
          <path class="cls-4" d="M192.46,118.61c-.07-.07-.14-.14-.2-.21-.26-.27-.65.19-.38.44.07.07.14.13.21.2.27.25.62-.18.37-.43Z"/>
          <circle class="cls-4" cx="191.99" cy="121.46" r=".6"/>
          <path class="cls-4" d="M193.93,120.32c-1.08-.19-1.37,1.48-.3,1.67s1.37-1.48.3-1.67Z"/>
          <path class="cls-4" d="M197.12,114.98c-.92-.16-1.17,1.26-.25,1.43s1.17-1.26.25-1.43Z"/>
          <path class="cls-4" d="M198.9,118.22c-.71-.12-.9.98-.19,1.1s.9-.98.19-1.1Z"/>
          <path class="cls-4" d="M203.53,115.74c-1.12-.2-1.43,1.54-.31,1.74s1.43-1.54.31-1.74Z"/>
          <path class="cls-4" d="M186.25,113.37c-.79-.14-1.01,1.09-.22,1.22.79.14,1.01-1.09.22-1.22Z"/>
          <path class="cls-4" d="M187.5,110.59c0-.07-.07-.17-.13-.19-.14-.05-.3-.08-.46-.11-.55-.12-.99.57-.65,1.02.34.44,1.07.31,1.18-.26.03-.15.06-.3.07-.45Z"/>
          <path class="cls-4" d="M190.9,109.07c-.93-.16-1.18,1.28-.25,1.44s1.18-1.28.25-1.44Z"/>
          <path class="cls-4" d="M192.64,114.84c-.41-.07-.86.22-.91.64-.06.42.2.84.64.91.41.07.86-.22.91-.64.06-.42-.2-.84-.64-.91Z"/>
          <path class="cls-4" d="M207.51,116.61c-.02-.22-.13-.43-.34-.52-.04-.02-.08-.03-.12-.04-.29-.12-.58-.02-.84.12-.3.16-.41.6-.34.91.07.32.35.62.69.67.3.04.62-.06.82-.3.22-.26.24-.56.14-.85Z"/>
          <path class="cls-4" d="M210.98,114.1c-.98-.17-1.25,1.35-.27,1.52s1.25-1.35.27-1.52Z"/>
          <path class="cls-4" d="M212.01,115.8c-.49-.09-.62.67-.13.76s.62-.67.13-.76Z"/>
          <path class="cls-4" d="M222.68,114.1s-.02-.04-.03-.06c.21-.31.14-.84-.35-.92-.74-.13-.94,1.02-.2,1.15.11.02.2,0,.29-.02.01.01.02.03.03.04.12.11.33-.03.26-.18Z"/>
          <path class="cls-4" d="M221.96,117.37c-.46-.08-.59.63-.13.71s.59-.63.13-.71Z"/>
          <path class="cls-4" d="M225.34,119.09c-.21-.04-.27.29-.06.33s.27-.29.06-.33Z"/>
          <path class="cls-4" d="M214.68,108.76c-1.19-.21-1.51,1.64-.33,1.84,1.19.21,1.51-1.64.33-1.84Z"/>
          <path class="cls-4" d="M218.24,106.58c-.6-.11-.76.82-.16.93s.76-.82.16-.93Z"/>
          <path class="cls-4" d="M219.75,113.69c-.49-.09-.62.67-.13.76s.62-.67.13-.76Z"/>
          <path class="cls-4" d="M217.93,114.71c-.98-.17-1.25,1.35-.27,1.52s1.25-1.35.27-1.52Z"/>
          <path class="cls-4" d="M232.2,123.19s0-.09,0-.14c0-.02,0-.03,0-.04,0,0,0,0,0-.01.01-.09.02-.18.03-.27.03-.31-.05-.61-.3-.82-.24-.2-.58-.26-.87-.15-.6.22-.79,1.08-.26,1.49.17.13.34.27.5.41.16.15.42.16.6.06.21-.11.29-.3.29-.53Z"/>
          <path class="cls-4" d="M234.04,122.56c-.99-.17-1.26,1.36-.27,1.53.99.17,1.26-1.36.27-1.53Z"/>
          <path class="cls-4" d="M232.23,117.73c-1.13-.2-1.44,1.55-.31,1.75s1.44-1.55.31-1.75Z"/>
          <path class="cls-4" d="M227.29,120.79c-.94-.17-1.2,1.29-.26,1.46s1.2-1.29.26-1.46Z"/>
          <path class="cls-4" d="M237.12,127.11c-.84-.15-1.07,1.15-.23,1.3s1.07-1.15.23-1.3Z"/>
          <path class="cls-4" d="M239.23,127.93c-.66-.12-.84.91-.18,1.02s.84-.91.18-1.02Z"/>
          <path class="cls-4" d="M242.62,125.51c-.98-.17-1.25,1.35-.27,1.52s1.25-1.35.27-1.52Z"/>
          <path class="cls-4" d="M242.9,127.99c-.89-.16-1.13,1.22-.24,1.38s1.13-1.22.24-1.38Z"/>
          <path class="cls-4" d="M240.51,131.11s-.05.05-.01.06.05-.05.01-.06Z"/>
          <path class="cls-4" d="M246.22,127.73c-1.04-.18-1.32,1.43-.28,1.61s1.32-1.43.28-1.61Z"/>
          <path class="cls-4" d="M244.4,124.16c-.76-.13-.97,1.04-.21,1.18s.97-1.04.21-1.18Z"/>
          <path class="cls-4" d="M243.58,121.24c-1.29-.23-1.64,1.77-.35,2s1.64-1.77.35-2Z"/>
          <path class="cls-4" d="M246.63,120.21c-.43-.08-.55.59-.12.67s.55-.59.12-.67Z"/>
          <path class="cls-4" d="M246.92,119.15c-.54-.09-.69.74-.15.84s.69-.74.15-.84Z"/>
          <path class="cls-4" d="M245.22,111.93c-1.01-.18-1.29,1.39-.28,1.57,1.01.18,1.29-1.39.28-1.57Z"/>
          <path class="cls-4" d="M240.95,111.78c-1.03-.18-1.31,1.42-.28,1.6s1.31-1.42.28-1.6Z"/>
          <path class="cls-4" d="M245.22,109.65c-.79-.14-1.01,1.09-.22,1.22s1.01-1.09.22-1.22Z"/>
          <path class="cls-4" d="M247.06,105.57c-.67-.12-.85.92-.18,1.04s.85-.92.18-1.04Z"/>
          <path class="cls-4" d="M245.95,114.74c-.5-.09-1.06.27-1.13.79-.07.52.25,1.04.79,1.13.5.09,1.06-.27,1.13-.79.07-.52-.25-1.04-.79-1.13Z"/>
          <path class="cls-4" d="M246.05,99.14c-1.33-.23-1.69,1.83-.36,2.06s1.69-1.83.36-2.06Z"/>
          <path class="cls-4" d="M247.32,96.55c-.75-.13-.95,1.03-.2,1.16s.95-1.03.2-1.16Z"/>
          <path class="cls-4" d="M249.29,97.59c-1.04-.18-1.32,1.43-.28,1.61s1.32-1.43.28-1.61Z"/>
          <path class="cls-4" d="M254.66,92.64c-1.12-.2-1.43,1.54-.31,1.74,1.12.2,1.43-1.54.31-1.74Z"/>
          <path class="cls-4" d="M260.01,90.12c-.97-.17-1.23,1.33-.27,1.5s1.23-1.33.27-1.5Z"/>
          <path class="cls-4" d="M261.27,88.22c-.68-.12-.87.93-.19,1.05s.87-.93.19-1.05Z"/>
          <path class="cls-4" d="M264.42,87.75c-.81-.14-1.03,1.11-.22,1.26s1.03-1.11.22-1.26Z"/>
          <path class="cls-4" d="M267.77,83.24c-1.06-.19-1.35,1.46-.29,1.64s1.35-1.46.29-1.64Z"/>
          <path class="cls-4" d="M257.53,87.94c-.85-.15-1.08,1.17-.23,1.32s1.08-1.17.23-1.32Z"/>
          <path class="cls-4" d="M251.97,93.4c-.86-.15-1.09,1.18-.24,1.33s1.09-1.18.24-1.33Z"/>
          <path class="cls-4" d="M191.74,96.27c-.19.15-.28.34-.27.58.02.44.72.49.8.08.38-.3-.12-.98-.54-.66Z"/>
          <circle class="cls-4" cx="190.3" cy="101.42" r=".6"/>
          <path class="cls-4" d="M191,82.38c-.55-.1-.7.76-.15.85s.7-.76.15-.85Z"/>
          <path class="cls-4" d="M187.01,79.29s-.01-.02-.02-.03c-.1-.15-.33-.19-.48-.08,0,0-.02.01-.03.02-.26.19-.18.62.15.68s.56-.32.38-.59Z"/>
          <path class="cls-4" d="M186.52,75.88c-.66-.12-.84.91-.18,1.02s.84-.91.18-1.02Z"/>
          <path class="cls-4" d="M182.99,69.77c-.48-.08-.61.66-.13.74s.61-.66.13-.74Z"/>
          <path class="cls-4" d="M181.77,70.91c-.16-.14-.44-.13-.58.05-.05.07-.1.13-.13.22-.12.34.23.73.57.48.07-.05.13-.1.18-.17.13-.18.13-.43-.05-.58Z"/>
          <path class="cls-4" d="M183.4,74.4s-.03.04,0,.04.03-.04,0-.04Z"/>
          <path class="cls-4" d="M180.05,67.88s-.03,0-.05-.01c-.66-.15-.85.95-.18,1.03.02,0,.03,0,.05,0,.66.08.83-.87.18-1.02Z"/>
          <path class="cls-4" d="M206.46,94.11l-.03-.04c-.16-.25-.56-.32-.79-.14l-.04.03c-.2.16-.3.39-.24.64.05.23.25.44.49.47.54.07.89-.5.61-.96Z"/>
          <path class="cls-4" d="M200.57,98.33c-.75-.13-.95,1.03-.2,1.16s.95-1.03.2-1.16Z"/>
          <path class="cls-4" d="M224,98.84c-.55-.1-.7.76-.15.85s.7-.76.15-.85Z"/>
          <path class="cls-4" d="M232.38,102.41c-.49-.09-.62.67-.13.76s.62-.67.13-.76Z"/>
          <path class="cls-4" d="M222.61,79.46c-.38-.07-.48.52-.1.59s.48-.52.1-.59Z"/>
          <path class="cls-4" d="M234.74,74.15s-.03,0-.05,0c-.41.03-.51.63-.14.79.01,0,.03.01.04.02.25.11.56-.03.61-.31s-.19-.52-.46-.5Z"/>
          <path class="cls-4" d="M234.13,88.42c-.46-.08-.59.63-.13.71s.59-.63.13-.71Z"/>
          <path class="cls-4" d="M225.81,106.59c-.45-.08-.95.24-1.01.71-.06.47.23.93.71,1.01.45.08.95-.24,1.01-.71.06-.47-.23-.93-.71-1.01Z"/>
          <path class="cls-4" d="M202.57,105.39s-.02,0-.03,0c-.39-.14-.84.03-.98.47-.07.23-.04.46.09.66.17.24.41.32.69.32.36,0,.73-.3.77-.66.04-.39-.17-.68-.55-.78Z"/>
          <path class="cls-4" d="M250.16,83.35c-.74-.13-.94,1.02-.2,1.15s.94-1.02.2-1.15Z"/>
          <path class="cls-4" d="M204.2,69.01c-.86-.15-1.09,1.18-.24,1.33s1.09-1.18.24-1.33Z"/>
        </g>
      </g>
      <g>
        <path class="cls-7" d="M201.06,69.15c8.12-7.91,3.64-21.7-7.58-23.33l-22.7-3.3c-4.46-.65-8.31-3.45-10.3-7.48l-10.15-20.57c-5.02-10.17-19.52-10.17-24.53,0l-10.15,20.57c-1.99,4.04-5.84,6.84-10.3,7.48l-22.7,3.3c-11.22,1.63-15.7,15.42-7.58,23.33l16.43,16.01c3.22,3.14,4.7,7.67,3.93,12.11l-3.88,22.61c-1.92,11.18,9.81,19.7,19.85,14.42l20.3-10.67c3.99-2.1,8.75-2.1,12.73,0l20.3,10.67c10.04,5.28,21.77-3.25,19.85-14.42l-3.88-22.61c-.76-4.44.71-8.97,3.93-12.11l16.43-16.01Z"/>
        <path class="cls-7" d="M201.06,64.93c8.12-7.91,3.64-21.7-7.58-23.33l-22.7-3.3c-4.46-.65-8.31-3.45-10.3-7.48l-10.15-20.57c-5.02-10.17-19.52-10.17-24.53,0l-10.15,20.57c-1.99,4.04-5.84,6.84-10.3,7.48l-22.7,3.3c-11.22,1.63-15.7,15.42-7.58,23.33l16.43,16.01c3.22,3.14,4.7,7.67,3.93,12.11l-3.88,22.61c-1.92,11.18,9.81,19.7,19.85,14.42l20.3-10.67c3.99-2.1,8.75-2.1,12.73,0l20.3,10.67c10.04,5.28,21.77-3.25,19.85-14.42l-3.88-22.61c-.76-4.44.71-8.97,3.93-12.11l16.43-16.01Z"/>
        <g>
          <path class="cls-9" d="M150.32,7.63l10.15,20.57c1.99,4.04,5.84,6.84,10.3,7.48l22.7,3.3c11.22,1.63,15.7,15.42,7.58,23.33l-16.43,16.01c-3.22,3.14-4.7,7.67-3.93,12.11l3.88,22.61c1.92,11.17-9.81,19.7-19.85,14.42l-20.3-10.67c-3.99-2.1-8.75-2.1-12.73,0l-20.3,10.67c-10.04,5.28-21.76-3.25-19.85-14.42l3.88-22.61c.76-4.44-.71-8.97-3.93-12.11l-16.43-16.01c-8.12-7.91-3.64-21.7,7.58-23.33l22.7-3.3c4.46-.65,8.31-3.45,10.3-7.48l10.15-20.57c5.02-10.17,19.52-10.17,24.53,0Z"/>
          <path class="cls-8" d="M201.02,51.63c-.43-4.4-3.67-8.45-8.74-9.19l-25.77-3.75c-3.34-.49-6.23-2.59-7.73-5.61l-11.53-23.36c-3.76-7.63-14.64-7.63-18.4,0l-11.53,23.36c-1.5,3.02-4.38,5.12-7.73,5.61l-25.77,3.75c-5.07.74-8.31,4.79-8.74,9.19-.52-5.12,2.89-10.38,8.74-11.24l25.77-3.75c3.34-.49,6.23-2.59,7.73-5.61l11.53-23.36c3.76-7.63,14.64-7.63,18.4,0l11.53,23.36c1.5,3.02,4.38,5.12,7.73,5.61l25.77,3.75c5.85.85,9.26,6.11,8.74,11.24Z"/>
          <path class="cls-1" d="M147.26,9.81l11.53,23.35c1.49,3.03,4.38,5.13,7.72,5.61l25.77,3.75c8.42,1.22,11.78,11.56,5.69,17.5l-18.65,18.18c-2.42,2.36-3.52,5.75-2.95,9.08l4.4,25.67c1.44,8.38-7.36,14.77-14.89,10.82l-23.05-12.12c-2.99-1.57-6.56-1.57-9.55,0l-23.05,12.12c-7.53,3.96-16.32-2.43-14.89-10.82l4.4-25.67c.57-3.33-.53-6.72-2.95-9.08l-18.65-18.18c-6.09-5.94-2.73-16.28,5.69-17.5l25.77-3.75c3.34-.49,6.23-2.58,7.72-5.61l11.53-23.35c3.76-7.63,14.64-7.63,18.4,0Z"/>
        </g>
        <path class="cls-6" d="M100.12,117.58s-.01-.04-.02-.06c-.02-.03-.04-.07-.06-.1-.35-.53-.92-.64-1.48-.39-.4.18-.57.58-.68.97-.3,1.02.78,1.92,1.74,1.52.8-.34.97-1.3.52-1.94Z"/>
        <path class="cls-6" d="M103.82,113.3c-.26-.44-.76-.67-1.25-.6-.44.06-.81.34-.98.75-.18.43-.12,1.05.26,1.37.17.14.33.28.5.43.36.31.86.26,1.13-.15.12-.18.23-.36.35-.53.24-.36.21-.91,0-1.27Z"/>
        <path class="cls-6" d="M105.22,121.11c-.02-.08-.03-.15-.05-.23,0-.02,0-.09,0-.11,0-.16,0-.31.02-.47.08-.68-.72-1.16-1.31-1-.6.16-1.02.97-.62,1.52.29.4.6.73,1.02,1.01.49.33,1.06-.22.94-.72Z"/>
        <path class="cls-9" d="M101.86,119.63c-.17-.09-.39-.13-.59-.1-.19-.01-.39,0-.56.08-.49.21-.77.7-.7,1.23.06.46.39.85.84.98.47.13,1.11-.08,1.33-.54.11-.24.22-.46.22-.73,0-.38-.21-.75-.54-.93Z"/>
        <path class="cls-9" d="M105.58,112.93c-.12,0-.12.18,0,.18s.12-.18,0-.18Z"/>
        <path class="cls-9" d="M107.36,117.74c-.1-.07-.2-.15-.3-.22-.39-.28-.79.38-.38.65.1.07.21.14.31.2.4.26.75-.36.37-.63Z"/>
        <path class="cls-9" d="M107.4,120.7c-.42,0-.77.35-.77.77s.35.77.77.77.77-.35.77-.77-.35-.77-.77-.77Z"/>
        <path class="cls-9" d="M109.61,119.59c-1.41,0-1.41,2.19,0,2.19s1.41-2.19,0-2.19Z"/>
        <path class="cls-9" d="M112.46,112.09c-1.2,0-1.2,1.87,0,1.87s1.2-1.87,0-1.87Z"/>
        <path class="cls-9" d="M115.45,115.81c-.93,0-.93,1.44,0,1.44s.93-1.44,0-1.44Z"/>
        <path class="cls-9" d="M120.78,111.63c-1.46,0-1.47,2.27,0,2.27s1.47-2.27,0-2.27Z"/>
        <path class="cls-9" d="M98.3,112.48c-1.03,0-1.03,1.6,0,1.6s1.03-1.6,0-1.6Z"/>
        <path class="cls-9" d="M99.26,108.67c-.01-.1-.12-.2-.21-.21-.19-.04-.4-.03-.61-.04-.72-.03-1.13.95-.6,1.44.53.49,1.43.16,1.44-.6,0-.2,0-.39-.02-.59Z"/>
        <path class="cls-9" d="M103.24,105.97c-1.21,0-1.22,1.89,0,1.89s1.22-1.89,0-1.89Z"/>
        <path class="cls-9" d="M106.75,112.92c-.53,0-1.04.47-1.01,1.01.02.55.45,1.01,1.01,1.01.53,0,1.04-.47,1.01-1.01-.02-.55-.45-1.01-1.01-1.01Z"/>
        <path class="cls-9" d="M126.03,111.84c-.07-.28-.27-.52-.55-.59-.06-.01-.11-.01-.16-.02-.4-.08-.74.11-1.04.35-.35.27-.39.86-.23,1.23.17.4.58.71,1.03.69.39-.02.77-.21.97-.56.22-.38.17-.76,0-1.11Z"/>
        <path class="cls-9" d="M129.87,107.87c-1.28,0-1.28,1.99,0,1.99s1.28-1.99,0-1.99Z"/>
        <path class="cls-9" d="M131.56,109.8c-.64,0-.64.99,0,.99s.64-.99,0-.99Z"/>
        <path class="cls-9" d="M144.74,105.25s-.04-.04-.05-.07c.2-.44-.01-1.09-.65-1.09-.97,0-.97,1.5,0,1.5.14,0,.26-.03.36-.09.02.01.03.03.05.04.18.11.41-.11.29-.29Z"/>
        <path class="cls-9" d="M144.55,109.57c-.6,0-.6.93,0,.93s.6-.93,0-.93Z"/>
        <path class="cls-9" d="M149.23,110.99c-.27,0-.27.43,0,.43s.27-.43,0-.43Z"/>
        <path class="cls-9" d="M133.38,100.25c-1.55,0-1.56,2.42,0,2.42s1.56-2.42,0-2.42Z"/>
        <path class="cls-9" d="M137.41,96.7c-.78,0-.78,1.22,0,1.22s.78-1.22,0-1.22Z"/>
        <path class="cls-9" d="M140.91,105.38c-.64,0-.64.99,0,.99s.64-.99,0-.99Z"/>
        <path class="cls-9" d="M138.84,107.09c-1.28,0-1.28,1.99,0,1.99s1.28-1.99,0-1.99Z"/>
        <path class="cls-9" d="M158.85,114.67c0-.06-.02-.12-.03-.18,0-.02,0-.04,0-.05,0,0,0,.01,0-.02,0-.12-.02-.23-.03-.35-.03-.41-.19-.76-.56-.97-.35-.2-.79-.2-1.14,0-.71.41-.76,1.55,0,1.95.25.13.49.26.73.41.23.15.57.11.78-.05.24-.19.3-.45.25-.74Z"/>
        <path class="cls-9" d="M161.05,113.45c-1.29,0-1.3,2.01,0,2.01s1.3-2.01,0-2.01Z"/>
        <path class="cls-9" d="M157.67,107.72c-1.48,0-1.48,2.29,0,2.29s1.48-2.29,0-2.29Z"/>
        <path class="cls-9" d="M152.09,112.72c-1.23,0-1.23,1.91,0,1.91s1.23-1.91,0-1.91Z"/>
        <path class="cls-9" d="M165.99,118.54c-1.1,0-1.1,1.71,0,1.71s1.1-1.71,0-1.71Z"/>
        <path class="cls-9" d="M168.85,119.11c-.86,0-.86,1.34,0,1.34s.86-1.34,0-1.34Z"/>
        <path class="cls-9" d="M172.61,115.28c-1.28,0-1.28,1.99,0,1.99s1.28-1.99,0-1.99Z"/>
        <path class="cls-9" d="M173.52,118.36c-1.16,0-1.16,1.81,0,1.81s1.16-1.81,0-1.81Z"/>
        <path class="cls-9" d="M171.18,122.86c-.05,0-.05.08,0,.08s.05-.08,0-.08Z"/>
        <path class="cls-9" d="M177.68,117.29c-1.36,0-1.36,2.11,0,2.11s1.36-2.11,0-2.11Z"/>
        <path class="cls-9" d="M174.56,113.16c-.99,0-.99,1.54,0,1.54s.99-1.54,0-1.54Z"/>
        <path class="cls-9" d="M172.87,109.64c-1.68,0-1.69,2.62,0,2.62s1.69-2.62,0-2.62Z"/>
        <path class="cls-9" d="M176.51,107.65c-.56,0-.56.87,0,.87s.56-.87,0-.87Z"/>
        <path class="cls-9" d="M176.64,106.24c-.71,0-.71,1.1,0,1.1s.71-1.1,0-1.1Z"/>
        <path class="cls-9" d="M172.87,97.45c-1.32,0-1.32,2.05,0,2.05s1.32-2.05,0-2.05Z"/>
        <path class="cls-9" d="M167.42,98.21c-1.35,0-1.35,2.09,0,2.09s1.35-2.09,0-2.09Z"/>
        <path class="cls-9" d="M172.35,94.55c-1.03,0-1.03,1.6,0,1.6s1.03-1.6,0-1.6Z"/>
        <path class="cls-9" d="M173.78,88.96c-.88,0-.88,1.36,0,1.36s.88-1.36,0-1.36Z"/>
        <path class="cls-9" d="M174.43,100.85c-.66,0-1.29.58-1.26,1.26.03.68.55,1.26,1.26,1.26.66,0,1.29-.58,1.26-1.26-.03-.68-.55-1.26-1.26-1.26Z"/>
        <path class="cls-9" d="M171.05,81.01c-1.74,0-1.74,2.7,0,2.7s1.74-2.7,0-2.7Z"/>
        <path class="cls-9" d="M172.09,77.45c-.98,0-.98,1.52,0,1.52s.98-1.52,0-1.52Z"/>
        <path class="cls-9" d="M174.82,78.32c-1.36,0-1.36,2.11,0,2.11s1.36-2.11,0-2.11Z"/>
        <path class="cls-9" d="M180.54,70.83c-1.46,0-1.47,2.27,0,2.27s1.47-2.27,0-2.27Z"/>
        <path class="cls-9" d="M186.77,66.44c-1.27,0-1.27,1.97,0,1.97s1.27-1.97,0-1.97Z"/>
        <path class="cls-9" d="M187.94,63.75c-.89,0-.89,1.38,0,1.38s.89-1.38,0-1.38Z"/>
        <path class="cls-9" d="M191.84,62.45c-1.06,0-1.06,1.64,0,1.64s1.06-1.64,0-1.64Z"/>
        <path class="cls-9" d="M195.09,55.96c-1.38,0-1.39,2.15,0,2.15s1.39-2.15,0-2.15Z"/>
        <path class="cls-9" d="M183.14,64.22c-1.11,0-1.11,1.73,0,1.73s1.11-1.73,0-1.73Z"/>
        <path class="cls-9" d="M177.29,72.4c-1.12,0-1.13,1.75,0,1.75s1.13-1.75,0-1.75Z"/>
        <path class="cls-9" d="M101.44,89.53c-.21.23-.28.5-.21.8.13.55,1.03.46,1.03-.08.41-.47-.37-1.22-.83-.72Z"/>
        <path class="cls-9" d="M100.77,95.62c-.42,0-.77.35-.77.77s.35.77.77.77.77-.35.77-.77-.35-.77-.77-.77Z"/>
        <path class="cls-9" d="M97.39,72.06c-.72,0-.72,1.12,0,1.12s.72-1.12,0-1.12Z"/>
        <path class="cls-9" d="M91.63,69.03s-.02-.02-.03-.03c-.16-.17-.46-.17-.63,0-.01.01-.02.02-.03.03-.29.3-.08.83.34.83s.64-.53.34-.83Z"/>
        <path class="cls-9" d="M90.25,64.81c-.86,0-.86,1.34,0,1.34s.86-1.34,0-1.34Z"/>
        <path class="cls-9" d="M84.4,57.84c-.63,0-.63.97,0,.97s.63-.97,0-.97Z"/>
        <path class="cls-9" d="M83.1,59.56c-.23-.14-.59-.07-.72.19-.05.1-.09.19-.11.31-.08.46.46.88.83.49.08-.08.14-.16.19-.26.13-.25.07-.57-.19-.72Z"/>
        <path class="cls-9" d="M85.96,63.63s-.03.05,0,.05.03-.05,0-.05Z"/>
        <path class="cls-9" d="M80.25,56.1s-.04,0-.06,0c-.87-.05-.87,1.39,0,1.35.02,0,.04,0,.06,0,.86-.05.86-1.29,0-1.34Z"/>
        <path class="cls-9" d="M119.65,83.49l-.04-.05c-.25-.28-.78-.28-1.04,0l-.04.05c-.22.24-.29.56-.16.86.12.28.41.5.72.49.7-.03,1.02-.83.56-1.35Z"/>
        <path class="cls-9" d="M113.11,90.18c-.98,0-.98,1.52,0,1.52s.98-1.52,0-1.52Z"/>
        <path class="cls-9" d="M142.99,85.57c-.72,0-.72,1.12,0,1.12s.72-1.12,0-1.12Z"/>
        <path class="cls-9" d="M154.43,88.23c-.64,0-.64.99,0,.99s.64-.99,0-.99Z"/>
        <path class="cls-9" d="M136.89,61.28c-.5,0-.5.77,0,.77s.5-.77,0-.77Z"/>
        <path class="cls-9" d="M151.1,51.82s-.04,0-.06.01c-.51.12-.51.91,0,1.04.02,0,.04,0,.06.01.35.08.7-.17.7-.53s-.35-.62-.7-.53Z"/>
        <path class="cls-9" d="M153.52,70.08c-.6,0-.6.93,0,.93s.6-.93,0-.93Z"/>
        <path class="cls-9" d="M147.02,95.01c-.59,0-1.15.52-1.13,1.13.03.61.5,1.13,1.13,1.13.59,0,1.15-.52,1.13-1.13-.03-.61-.5-1.13-1.13-1.13Z"/>
        <path class="cls-9" d="M117.24,98.7s-.03,0-.04,0c-.53-.09-1.06.22-1.14.81-.04.3.05.6.27.82.27.27.59.31.95.25.46-.07.87-.55.83-1.01-.04-.5-.37-.82-.87-.87Z"/>
        <path class="cls-9" d="M172.74,60.05c-.97,0-.97,1.5,0,1.5s.97-1.5,0-1.5Z"/>
        <path class="cls-9" d="M111.16,52.13c-1.12,0-1.13,1.75,0,1.75s1.13-1.75,0-1.75Z"/>
      </g>
    </g>
  </g>
</svg>