<?xml version="1.0" encoding="UTF-8"?>
<svg id="Ebene_2" data-name="Ebene 2" xmlns="http://www.w3.org/2000/svg" xmlns:xlink="http://www.w3.org/1999/xlink" viewBox="0 0 248.29 22.23">
  <defs>
    <style>
      .cls-1 {
        fill: #8c000e;
        opacity: .4;
      }

      .cls-2 {
        fill: #fff;
      }

      .cls-3 {
        fill: #ffccd9;
      }

      .cls-4 {
        opacity: .5;
      }

      .cls-4, .cls-5 {
        fill: #ff557a;
      }

      .cls-5 {
        opacity: .2;
      }

      .cls-6 {
        fill: url(#GradientFill_1);
      }

      .cls-7 {
        fill: url(#Unbenannter_Verlauf_37);
      }

      .cls-8 {
        fill: #e00026;
      }

      .cls-9 {
        fill: #ff5a72;
      }
    </style>
    <linearGradient id="GradientFill_1" data-name="GradientFill 1" x1="131.66" y1="19.8" x2="131.66" y2="2.42" gradientUnits="userSpaceOnUse">
      <stop offset="0" stop-color="#390800"/>
      <stop offset="1" stop-color="#9f5829"/>
    </linearGradient>
    <linearGradient id="Unbenannter_Verlauf_37" data-name="Unbenannter Verlauf 37" x1="40.42" y1="17.37" x2="40.42" y2="4.86" gradientUnits="userSpaceOnUse">
      <stop offset="0" stop-color="#e00026"/>
      <stop offset=".97" stop-color="#ff557a"/>
    </linearGradient>
  </defs>
  <g id="Decor">
    <g>
      <g>
        <rect class="cls-6" x="15.04" y="2.42" width="233.24" height="17.38" rx="8.69" ry="8.69"/>
        <rect class="cls-2" x="17.14" y="4.08" width="229.05" height="14.07" rx="7.04" ry="7.04"/>
        <rect class="cls-7" x="18.19" y="4.86" width="44.46" height="12.51" rx="6.25" ry="6.25"/>
      </g>
      <g id="HEART">
        <path class="cls-8" d="M24.58,5.25c1.99,6.11-3.89,15.97-7.54,16.84S2.42,19.56.42,13.45C-1.57,7.34,3.72.5,11.12,5.11c1.92-7.65,11.47-5.97,13.46.14Z"/>
        <path class="cls-5" d="M22.59,4.61c1.51,4.63-5.77,8.71-8.53,9.37s-10.93,1.57-12.44-3.06S6.04,3.23,11.64,6.72C13.1.93,21.08-.02,22.59,4.61Z"/>
        <path class="cls-4" d="M21.88,4.92c.4,3-5.84,5.78-8.61,6.44s-9.53,2.04-10.95-.74C.12,6.28,6.04,3.23,11.64,6.72,13.1.93,21.24.09,21.88,4.92Z"/>
        <path class="cls-1" d="M22,1.65c.11.15.22.3.32.46,1.43,2.31,1.65,5.55.06,7.86-.91,1.33-1.76,2.26-3.12,3.19-.87.6-1.83,1.02-2.79,1.44-2.77,1.23-6,1.18-8.96.88-1.98-.2-3.85-.91-5.39-2.19-.89-.74-1.73-2.04-1.98-3.18-.03-.15-.06-.29-.08-.42-.16,1.21-.06,2.5.35,3.75,1.99,6.11,12.96,9.51,16.61,8.64s9.53-10.73,7.54-16.84c-.48-1.48-1.41-2.71-2.57-3.6Z"/>
        <path class="cls-9" d="M23.24,13.82c-.79,1.53-1.82,3.11-3.15,4.22-.79.67-1.56,1.37-2.51,1.81-1.36.64-2.34,1-3.85,1.18-2.09.24-4.24-.48-6.11-1.3-1.78-.78-3.61-1.91-4.91-3.36-1.07-1.2-1.85-2.29-2.39-3.81-.13-.38-.23-.76-.29-1.13.05.67.18,1.35.4,2.02,1.99,6.11,12.96,9.51,16.61,8.64,2.96-.7,7.39-7.33,7.9-13.07-.33,1.66-.92,3.31-1.69,4.8Z"/>
        <ellipse class="cls-3" cx="6.08" cy="6.19" rx="2.4" ry="1.53" transform="translate(-.51 .55) rotate(-4.94)"/>
        <circle class="cls-3" cx="2.53" cy="8.51" r=".49"/>
      </g>
    </g>
  </g>
</svg>