<?xml version="1.0" encoding="UTF-8"?>
<svg id="Ebene_2" xmlns="http://www.w3.org/2000/svg" xmlns:xlink="http://www.w3.org/1999/xlink" viewBox="0 0 1501.73 178.91">
  <defs>
    <style>
      .cls-1 {
        fill: url(#Unbenannter_Verlauf_3);
      }

      .cls-2 {
        fill: #8c000e;
        opacity: .4;
      }

      .cls-3 {
        fill: url(#Unbenannter_Verlauf_75-2);
      }

      .cls-3, .cls-4, .cls-5, .cls-6, .cls-7 {
        fill-rule: evenodd;
      }

      .cls-4 {
        fill: #c6b390;
      }

      .cls-8 {
        fill: #ffccd9;
      }

      .cls-5 {
        fill: url(#GradientFill_1);
      }

      .cls-6 {
        fill: url(#GradientFill_2);
      }

      .cls-9 {
        opacity: .5;
      }

      .cls-9, .cls-10 {
        fill: #ff557a;
      }

      .cls-10 {
        opacity: .2;
      }

      .cls-7 {
        fill: url(#Unbenannter_Verlauf_75);
      }

      .cls-11 {
        fill: #e00026;
      }

      .cls-12 {
        fill: #ff5a72;
      }
    </style>
    <linearGradient id="GradientFill_1" data-name="GradientFill 1" x1="1178.95" y1="161.85" x2="1178.95" y2="72.97" gradientUnits="userSpaceOnUse">
      <stop offset="0" stop-color="#390800"/>
      <stop offset="1" stop-color="#9f5829"/>
    </linearGradient>
    <linearGradient id="GradientFill_2" data-name="GradientFill 2" x1="1178.95" y1="156.87" x2="1178.95" y2="72.97" gradientUnits="userSpaceOnUse">
      <stop offset="0" stop-color="#f3d6a2"/>
      <stop offset="1" stop-color="#f3e7cf"/>
    </linearGradient>
    <linearGradient id="Unbenannter_Verlauf_3" data-name="Unbenannter Verlauf 3" x1="785.08" y1="178.91" x2="785.08" y2="58.33" gradientUnits="userSpaceOnUse">
      <stop offset="0" stop-color="#390800"/>
      <stop offset="1" stop-color="#9f5829"/>
    </linearGradient>
    <linearGradient id="Unbenannter_Verlauf_75" data-name="Unbenannter Verlauf 75" x1="506.55" y1="164.29" x2="506.55" y2="72.97" gradientUnits="userSpaceOnUse">
      <stop offset="0" stop-color="#8c000e"/>
      <stop offset=".97" stop-color="#ff557a" stop-opacity=".6"/>
    </linearGradient>
    <linearGradient id="Unbenannter_Verlauf_75-2" data-name="Unbenannter Verlauf 75" x1="489.49" y1="162.66" x2="489.49" y2="145.87" xlink:href="#Unbenannter_Verlauf_75"/>
  </defs>
  <g id="Decor">
    <g>
      <path class="cls-5" d="M1405.35,164.28h-524.17c51.37-17.3,51.36-74.02-.03-91.31h524.2c95.21,0,95.21,91.31,0,91.31Z"/>
      <path class="cls-4" d="M1405.35,164.28h-524.17c51.37-17.3,51.36-74.02-.03-91.31h524.2c95.21,0,95.21,91.31,0,91.31Z"/>
      <path class="cls-6" d="M1405.35,164.28h-524.17c51.37-17.3,51.36-74.02-.03-91.31h524.2c95.21,0,95.21,91.31,0,91.31Z"/>
    </g>
    <path class="cls-1" d="M1427.75,58.33H142.41c-17.07,0-31.19,3.61-42.35,9.58-42.18,22.57-42.18,78.85,0,101.42,11.16,5.97,25.28,9.58,42.35,9.58h1285.34c98.64,0,98.64-120.58,0-120.58ZM1413.58,169.33H156.58c-96.47,0-96.47-101.42,0-101.42h1257c96.46,0,96.46,101.42,0,101.42Z"/>
    <path class="cls-4" d="M1413.58,67.91H156.58c-96.47,0-96.47,101.42,0,101.42h1257c96.46,0,96.46-101.42,0-101.42ZM1405.35,164.27H164.8c-28.26,0-48.13-8.05-59.62-19.37-15.71-15.48-15.7-37.09,0-52.57.3-.3.61-.6.93-.89,2.82-2.64,6.12-5.09,9.88-7.28.84-.49,1.7-.97,2.58-1.43,6.63-3.46,14.56-6.18,23.8-7.86,1.23-.23,2.48-.43,3.76-.62,5.75-.84,11.98-1.29,18.67-1.29h1240.55c95.21,0,95.21,91.31,0,91.31Z"/>
    <path class="cls-7" d="M881.18,164.28s-.02.01-.03.01h-15.06s.01-.01.02-.01H164.8c-28.26,0-48.13-8.05-59.62-19.37-15.71-15.48-15.7-37.09,0-52.57.31-.3.61-.6.93-.89,2.82-2.64,6.12-5.09,9.88-7.28.84-.49,1.7-.97,2.58-1.43,6.63-3.46,14.56-6.18,23.8-7.86,1.23-.23,2.48-.43,3.76-.62,5.75-.84,11.98-1.29,18.67-1.29h716.35c51.39,17.29,51.4,74.01.03,91.31Z"/>
    <path class="cls-3" d="M873.8,164.27s-.02.01-.03.01H164.8c-28.27,0-48.15-8.05-59.62-19.38,11.49,11.32,31.36,19.37,59.62,19.37h709Z"/>
    <g id="HEART">
      <path class="cls-11" d="M197.83,42.28c16.03,49.19-31.3,128.57-60.71,135.56-29.41,6.98-117.68-20.39-133.72-69.58C-12.63,59.06,29.92,4.04,89.5,41.16c15.47-61.58,92.29-48.08,108.33,1.11Z"/>
      <path class="cls-10" d="M181.83,37.08c12.14,37.26-46.41,70.11-68.68,75.4-22.27,5.29-87.99,12.63-100.13-24.63C.87,50.6,48.59,25.98,93.72,54.1,105.44,7.45,169.69-.17,181.83,37.08Z"/>
      <path class="cls-9" d="M176.14,39.59c3.24,24.19-47,46.56-69.28,51.85-22.27,5.29-76.73,16.43-88.12-5.96C.98,50.55,48.59,25.98,93.72,54.1,105.44,7.45,170.94.75,176.14,39.59Z"/>
      <path class="cls-2" d="M177.12,13.31c.89,1.21,1.75,2.44,2.54,3.72,11.54,18.62,13.27,44.66.52,63.26-7.36,10.73-14.19,18.17-25.09,25.68-6.98,4.81-14.7,8.2-22.44,11.62-22.31,9.86-48.32,9.49-72.09,7.07-15.93-1.62-31-7.32-43.39-17.62-7.2-5.98-13.94-16.4-15.91-25.63-.26-1.2-.48-2.32-.68-3.37-1.29,9.75-.48,20.1,2.82,30.21,16.03,49.19,104.31,76.57,133.72,69.58s76.74-86.37,60.71-135.56c-3.9-11.95-11.39-21.79-20.71-28.96Z"/>
      <path class="cls-12" d="M187.1,111.27c-6.38,12.28-14.68,25-25.36,34-6.4,5.4-12.6,11-20.2,14.6-10.95,5.18-18.81,8.05-30.99,9.47-16.79,1.95-34.11-3.86-49.21-10.48-14.29-6.26-29.06-15.39-39.5-27.07-8.62-9.65-14.9-18.41-19.26-30.65-1.09-3.05-1.85-6.08-2.37-9.1.4,5.39,1.44,10.84,3.19,16.23,16.03,49.19,104.31,76.57,133.72,69.58,23.86-5.67,59.52-59,63.56-105.19-2.62,13.34-7.37,26.64-13.58,38.62Z"/>
      <ellipse class="cls-8" cx="48.91" cy="49.86" rx="19.29" ry="12.35" transform="translate(-4.11 4.4) rotate(-4.94)"/>
      <circle class="cls-8" cx="20.34" cy="68.53" r="3.91"/>
    </g>
  </g>
</svg>