<?xml version="1.0" encoding="UTF-8"?>
<svg id="Ebene_2" xmlns="http://www.w3.org/2000/svg" xmlns:xlink="http://www.w3.org/1999/xlink" viewBox="0 0 1511.35 181.32">
  <defs>
    <style>
      .cls-1 {
        fill: url(#GradientFill_2-4);
      }

      .cls-1, .cls-2, .cls-3, .cls-4, .cls-5, .cls-6, .cls-7, .cls-8, .cls-9, .cls-10, .cls-11, .cls-12, .cls-13, .cls-14, .cls-15, .cls-16, .cls-17, .cls-18, .cls-19, .cls-20, .cls-21, .cls-22, .cls-23, .cls-24, .cls-25, .cls-26, .cls-27, .cls-28, .cls-29 {
        fill-rule: evenodd;
      }

      .cls-2 {
        fill: url(#GradientFill_2-2);
      }

      .cls-3 {
        fill: url(#GradientFill_2-7);
      }

      .cls-4 {
        fill: url(#GradientFill_2-3);
      }

      .cls-5 {
        fill: url(#GradientFill_2-6);
      }

      .cls-6 {
        fill: url(#GradientFill_2-8);
      }

      .cls-7 {
        fill: url(#GradientFill_2-9);
      }

      .cls-8 {
        fill: url(#GradientFill_2-5);
      }

      .cls-30 {
        fill: #8c000e;
        opacity: .4;
      }

      .cls-9 {
        fill: #c6b390;
      }

      .cls-31 {
        fill: #ffccd9;
      }

      .cls-10 {
        fill: url(#GradientFill_1);
      }

      .cls-11 {
        fill: url(#GradientFill_2);
      }

      .cls-32 {
        opacity: .5;
      }

      .cls-32, .cls-33 {
        fill: #ff557a;
      }

      .cls-33 {
        opacity: .2;
      }

      .cls-12 {
        fill: url(#GradientFill_2-21);
      }

      .cls-13 {
        fill: url(#GradientFill_2-20);
      }

      .cls-14 {
        fill: url(#GradientFill_2-26);
      }

      .cls-15 {
        fill: url(#GradientFill_2-24);
      }

      .cls-16 {
        fill: url(#GradientFill_2-23);
      }

      .cls-17 {
        fill: url(#GradientFill_2-22);
      }

      .cls-18 {
        fill: url(#GradientFill_2-25);
      }

      .cls-19 {
        fill: url(#GradientFill_2-13);
      }

      .cls-20 {
        fill: url(#GradientFill_2-12);
      }

      .cls-21 {
        fill: url(#GradientFill_2-16);
      }

      .cls-22 {
        fill: url(#GradientFill_2-15);
      }

      .cls-23 {
        fill: url(#GradientFill_2-14);
      }

      .cls-24 {
        fill: url(#GradientFill_2-17);
      }

      .cls-25 {
        fill: url(#GradientFill_2-11);
      }

      .cls-26 {
        fill: url(#GradientFill_2-10);
      }

      .cls-27 {
        fill: url(#GradientFill_2-19);
      }

      .cls-28 {
        fill: url(#GradientFill_2-18);
      }

      .cls-29 {
        fill: url(#Unbenannter_Verlauf_75);
      }

      .cls-34 {
        fill: #e00026;
      }

      .cls-35 {
        fill: #ff5a72;
      }
    </style>
    <linearGradient id="GradientFill_1" data-name="GradientFill 1" x1="794.7" y1="178.11" x2="794.7" y2="60.74" gradientUnits="userSpaceOnUse">
      <stop offset="0" stop-color="#390800"/>
      <stop offset="1" stop-color="#9f5829"/>
    </linearGradient>
    <linearGradient id="GradientFill_2" data-name="GradientFill 2" x1="120.84" y1="94.02" x2="120.84" y2="85.85" gradientUnits="userSpaceOnUse">
      <stop offset="0" stop-color="#f3d6a2"/>
      <stop offset="1" stop-color="#f3e7cf"/>
    </linearGradient>
    <linearGradient id="GradientFill_2-2" data-name="GradientFill 2" x1="140.37" y1="85.13" x2="140.37" y2="76.96" xlink:href="#GradientFill_2"/>
    <linearGradient id="GradientFill_2-3" data-name="GradientFill 2" x1="789.86" y1="76.83" x2="789.86" y2="75.36" xlink:href="#GradientFill_2"/>
    <linearGradient id="GradientFill_2-4" data-name="GradientFill 2" x1="1430.88" y1="76.92" x2="1430.88" y2="75.8" xlink:href="#GradientFill_2"/>
    <linearGradient id="GradientFill_2-5" data-name="GradientFill 2" x1="1439.09" y1="78.19" x2="1439.09" y2="77.02" xlink:href="#GradientFill_2"/>
    <linearGradient id="GradientFill_2-6" data-name="GradientFill 2" x1="1440.26" y1="164.6" x2="1440.26" y2="163.69" xlink:href="#GradientFill_2"/>
    <linearGradient id="GradientFill_2-7" data-name="GradientFill 2" x1="1447.56" y1="80.25" x2="1447.56" y2="79.08" xlink:href="#GradientFill_2"/>
    <linearGradient id="GradientFill_2-8" data-name="GradientFill 2" x1="1468.65" y1="89.77" x2="1468.65" y2="89.7" xlink:href="#GradientFill_2"/>
    <linearGradient id="GradientFill_2-9" data-name="GradientFill 2" x1="1469.5" y1="90.87" x2="1469.5" y2="89.78" xlink:href="#GradientFill_2"/>
    <linearGradient id="GradientFill_2-10" data-name="GradientFill 2" x1="1470.34" y1="91.05" x2="1470.34" y2="90.97" xlink:href="#GradientFill_2"/>
    <linearGradient id="GradientFill_2-11" data-name="GradientFill 2" x1="1472.65" y1="93.51" x2="1472.65" y2="92.27" xlink:href="#GradientFill_2"/>
    <linearGradient id="GradientFill_2-12" data-name="GradientFill 2" x1="1471.15" y1="92.18" x2="1471.15" y2="91.06" xlink:href="#GradientFill_2"/>
    <linearGradient id="GradientFill_2-13" data-name="GradientFill 2" x1="1462.1" y1="86.03" x2="1462.1" y2="85.18" xlink:href="#GradientFill_2"/>
    <linearGradient id="GradientFill_2-14" data-name="GradientFill 2" x1="1460.02" y1="84.91" x2="1460.02" y2="84.15" xlink:href="#GradientFill_2"/>
    <linearGradient id="GradientFill_2-15" data-name="GradientFill 2" x1="1463.09" y1="86.24" x2="1463.09" y2="86.11" xlink:href="#GradientFill_2"/>
    <linearGradient id="GradientFill_2-16" data-name="GradientFill 2" x1="1461.05" y1="85.16" x2="1461.05" y2="84.98" xlink:href="#GradientFill_2"/>
    <linearGradient id="GradientFill_2-17" data-name="GradientFill 2" x1="1458.45" y1="84.1" x2="1458.45" y2="83.45" xlink:href="#GradientFill_2"/>
    <linearGradient id="GradientFill_2-18" data-name="GradientFill 2" x1="1465.03" y1="87.37" x2="1465.03" y2="87.27" xlink:href="#GradientFill_2"/>
    <linearGradient id="GradientFill_2-19" data-name="GradientFill 2" x1="1465.97" y1="88.37" x2="1465.97" y2="87.38" xlink:href="#GradientFill_2"/>
    <linearGradient id="GradientFill_2-20" data-name="GradientFill 2" x1="1466.88" y1="88.55" x2="1466.88" y2="88.46" xlink:href="#GradientFill_2"/>
    <linearGradient id="GradientFill_2-21" data-name="GradientFill 2" x1="1467.77" y1="89.6" x2="1467.77" y2="88.56" xlink:href="#GradientFill_2"/>
    <linearGradient id="GradientFill_2-22" data-name="GradientFill 2" x1="1464.08" y1="87.18" x2="1464.08" y2="86.26" xlink:href="#GradientFill_2"/>
    <linearGradient id="GradientFill_2-23" data-name="GradientFill 2" x1="1470.94" y1="151.41" x2="1470.94" y2="149.5" xlink:href="#GradientFill_2"/>
    <linearGradient id="GradientFill_2-24" data-name="GradientFill 2" x1="1476.69" y1="97.94" x2="1476.69" y2="95.84" xlink:href="#GradientFill_2"/>
    <linearGradient id="GradientFill_2-25" data-name="GradientFill 2" x1="1479.03" y1="101.41" x2="1479.03" y2="98.13" xlink:href="#GradientFill_2"/>
    <linearGradient id="GradientFill_2-26" data-name="GradientFill 2" x1="1478.62" y1="143.73" x2="1478.62" y2="141.56" xlink:href="#GradientFill_2"/>
    <linearGradient id="Unbenannter_Verlauf_75" data-name="Unbenannter Verlauf 75" x1="794.7" y1="166.69" x2="794.7" y2="75.38" gradientUnits="userSpaceOnUse">
      <stop offset="0" stop-color="#8c000e"/>
      <stop offset=".97" stop-color="#ff557a" stop-opacity=".6"/>
    </linearGradient>
  </defs>
  <g id="Decor">
    <g>
      <path class="cls-10" d="M1437.37,60.74H152.03c-98.64,0-98.64,120.58,0,120.58h1285.34c98.64,0,98.64-120.58,0-120.58ZM1480.28,140.47c-.24.36-.49.73-.75,1.09-.57.8-1.18,1.59-1.82,2.36-.31.38-.63.76-.96,1.13-.02.02-.04.03-.05.05-.32.37-.65.73-.99,1.08-.76.8-1.55,1.58-2.39,2.35-.36.33-.72.66-1.1.97-.82.71-1.67,1.4-2.57,2.08,0,.01-.02.02-.03.03-.43.33-.88.66-1.33.97-.46.34-.94.67-1.42.98-.47.32-.94.62-1.42.92-.02.01-.05.03-.07.04-.49.31-.99.62-1.5.91-.04.02-.07.04-.1.06-.48.29-.98.56-1.48.83-.52.29-1.05.58-1.59.85-.04.01-.07.03-.1.05-.54.28-1.08.54-1.63.8-1.09.52-2.21,1.02-3.36,1.5-.49.21-.98.41-1.48.6-.5.2-1,.39-1.52.58-1.34.49-2.72.96-4.13,1.39-.47.15-.95.29-1.43.43-.48.14-.97.28-1.46.41-.53.15-1.06.28-1.59.42-.46.12-.93.23-1.41.34-1.52.36-3.09.69-4.69.99-.54.11-1.07.21-1.62.29-.81.15-1.63.28-2.46.4-1.49.22-3.01.41-4.57.58-.31.03-.63.07-.95.1-.55.06-1.1.11-1.66.15-1.75.16-3.55.27-5.38.35-.52.03-1.03.05-1.56.06-.3.01-.61.02-.92.02-.45.02-.9.03-1.36.03-.81.02-1.63.03-2.46.03H174.42c-66.94,0-86.81-45.14-59.62-71.95,3.33-3.27,7.35-6.27,12.08-8.89,7.31-4.03,16.3-7.14,26.97-8.89,6.28-1.02,13.13-1.58,20.57-1.58h1240.55c3.78,0,7.42.15,10.9.42,3.49.28,6.82.69,10.01,1.22,2.21.37,4.35.8,6.42,1.28.48.1.95.22,1.42.34.57.15,1.13.29,1.69.44,1.47.4,2.91.83,4.3,1.28.94.31,1.87.63,2.78.96.9.32,1.79.67,2.66,1.03.45.19.89.37,1.33.56.41.17.82.35,1.22.54.51.23,1,.47,1.5.71.56.27,1.11.54,1.66.82.13.07.26.13.39.2.58.3,1.15.61,1.71.93.09.05.18.1.26.15.58.33,1.16.67,1.72,1.01.06.04.12.08.19.12.57.35,1.14.71,1.69,1.08.05.03.09.06.14.1.56.37,1.11.75,1.64,1.14.04.03.07.06.11.08.54.39,1.07.78,1.58,1.19.04.03.08.06.11.09.51.4,1.01.8,1.49,1.22.52.44,1.03.89,1.52,1.34.39.35.78.72,1.15,1.1.32.29.62.6.92.92.06.07.12.14.19.2.71.75,1.39,1.51,2.03,2.29.96,1.16,1.85,2.35,2.65,3.57.22.32.43.65.62.98.31.49.6.98.88,1.47.24.42.46.83.67,1.25.16.32.32.64.47.96.13.26.25.52.36.78.33.74.64,1.49.92,2.23.14.38.27.75.39,1.13.13.38.25.76.36,1.14.08.3.17.6.25.89.07.26.13.53.2.8.07.28.13.55.18.83.31,1.44.52,2.89.63,4.34.03.35.05.7.06,1.05.05.99.05,1.97,0,2.96,0,.35-.03.7-.06,1.05-.11,1.45-.32,2.9-.63,4.34-.05.28-.11.55-.18.83-.06.24-.12.47-.18.71-.08.31-.17.62-.25.92-.1.35-.21.7-.32,1.04-.16.48-.33.96-.51,1.44-.15.42-.32.84-.5,1.25-.01.03-.02.06-.04.09-.13.32-.27.64-.42.96-.42.93-.89,1.85-1.39,2.76-.23.41-.47.82-.73,1.23-.27.45-.55.89-.85,1.34Z"/>
      <path class="cls-9" d="M1423.2,70.32H166.2c-96.47,0-96.47,101.42,0,101.42h1257c96.46,0,96.46-101.42,0-101.42ZM1486.28,123.56c-.11,1.45-.32,2.9-.63,4.34-.05.28-.11.55-.18.83-.06.24-.12.47-.18.71-.08.31-.17.62-.25.92-.1.35-.21.7-.32,1.04-.16.48-.33.96-.51,1.44-.15.42-.32.84-.5,1.25-.01.03-.02.06-.04.09-.13.32-.27.64-.42.96-.42.93-.89,1.85-1.39,2.76-.23.41-.47.82-.73,1.23-.27.45-.55.89-.85,1.34-.24.36-.49.73-.75,1.09-.57.8-1.18,1.59-1.82,2.36-.31.38-.63.76-.96,1.13-.02.02-.04.03-.05.05-.32.37-.65.73-.99,1.08-.76.8-1.55,1.58-2.39,2.35-.36.33-.72.66-1.1.97-.82.71-1.67,1.4-2.57,2.08,0,.01-.02.02-.03.03-.43.33-.88.66-1.33.97-.46.34-.94.67-1.42.98-.47.32-.94.62-1.42.92-.02.01-.05.03-.07.04-.49.31-.99.62-1.5.91-.04.02-.07.04-.1.06-.48.29-.98.56-1.48.83-.52.29-1.05.58-1.59.85-.04.01-.07.03-.1.05-.54.28-1.08.54-1.63.8-1.09.52-2.21,1.02-3.36,1.5-.49.21-.98.41-1.48.6-.5.2-1,.39-1.52.58-1.34.49-2.72.96-4.13,1.39-.47.15-.95.29-1.43.43-.48.14-.97.28-1.46.41-.53.15-1.06.28-1.59.42-.46.12-.93.23-1.41.34-1.52.36-3.09.69-4.69.99-.54.11-1.07.21-1.62.29-.81.15-1.63.28-2.46.4-1.49.22-3.01.41-4.57.58-.31.03-.63.07-.95.1-.55.06-1.1.11-1.66.15-1.75.16-3.55.27-5.38.35-.52.03-1.03.05-1.56.06-.3.01-.61.02-.92.02-.45.02-.9.03-1.36.03-.81.02-1.63.03-2.46.03H174.42c-66.94,0-86.81-45.14-59.62-71.95,3.33-3.27,7.35-6.27,12.08-8.89,7.31-4.03,16.3-7.14,26.97-8.89,6.28-1.02,13.13-1.58,20.57-1.58h1240.55c3.78,0,7.42.15,10.9.42,3.49.28,6.82.69,10.01,1.22,2.21.37,4.35.8,6.42,1.28.48.1.95.22,1.42.34.57.15,1.13.29,1.69.44,1.47.4,2.91.83,4.3,1.28.94.31,1.87.63,2.78.96.9.32,1.79.67,2.66,1.03.45.19.89.37,1.33.56.41.17.82.35,1.22.54.51.23,1,.47,1.5.71.56.27,1.11.54,1.66.82.13.07.26.13.39.2.58.3,1.15.61,1.71.93.09.05.18.1.26.15.58.33,1.16.67,1.72,1.01.06.04.12.08.19.12.57.35,1.14.71,1.69,1.08.05.03.09.06.14.1.56.37,1.11.75,1.64,1.14.04.03.07.06.11.08.54.39,1.07.78,1.58,1.19.04.03.08.06.11.09.51.4,1.01.8,1.49,1.22.52.44,1.03.89,1.52,1.34.39.35.78.72,1.15,1.1.32.29.62.6.92.92.06.07.12.14.19.2.71.75,1.39,1.51,2.03,2.29.96,1.16,1.85,2.35,2.65,3.57.22.32.43.65.62.98.31.49.6.98.88,1.47.24.42.46.83.67,1.25.16.32.32.64.47.96.13.26.25.52.36.78.33.74.64,1.49.92,2.23.14.38.27.75.39,1.13.13.38.25.76.36,1.14.08.3.17.6.25.89.07.26.13.53.2.8.07.28.13.55.18.83.31,1.44.52,2.89.63,4.34.03.35.05.7.06,1.05.05.99.05,1.97,0,2.96,0,.35-.03.7-.06,1.05Z"/>
      <path class="cls-11" d="M114.8,94.74c3.33-3.28,7.35-6.28,12.08-8.89-4.73,2.62-8.75,5.62-12.08,8.89Z"/>
      <path class="cls-2" d="M126.88,85.85c7.31-4.04,16.3-7.15,26.97-8.89-10.67,1.75-19.66,4.86-26.97,8.89Z"/>
      <path class="cls-4" d="M1414.97,75.37c3.78,0,7.42.14,10.9.43-3.48-.27-7.12-.42-10.9-.42H174.42c-7.44,0-14.29.56-20.57,1.58,6.28-1.03,13.13-1.59,20.57-1.59h1240.55Z"/>
      <path class="cls-1" d="M1435.88,77.02c-3.19-.53-6.52-.94-10.01-1.22,3.49.27,6.83.68,10.01,1.22Z"/>
      <path class="cls-8" d="M1442.3,78.3c-2.07-.48-4.21-.91-6.42-1.28,2.21.36,4.35.79,6.42,1.28Z"/>
      <path class="cls-5" d="M1437.91,164.68c1.6-.3,3.17-.63,4.69-.99-1.52.37-3.09.7-4.69.99Z"/>
      <path class="cls-3" d="M1445.41,79.08c1.47.39,2.91.82,4.3,1.28-1.39-.45-2.83-.88-4.3-1.28Z"/>
      <path class="cls-6" d="M1468.59,89.7s.07.06.11.08c-.04-.03-.07-.06-.11-.08Z"/>
      <path class="cls-7" d="M1468.71,89.78c.54.39,1.07.78,1.58,1.19-.51-.4-1.04-.8-1.58-1.19Z"/>
      <path class="cls-26" d="M1470.29,90.97s.08.06.11.09c-.04-.03-.08-.06-.11-.09Z"/>
      <path class="cls-25" d="M1471.89,92.27c.52.44,1.03.89,1.52,1.34-.49-.45-1-.9-1.52-1.34Z"/>
      <path class="cls-20" d="M1470.4,91.06c.51.4,1.01.8,1.49,1.22-.48-.41-.98-.82-1.49-1.22Z"/>
      <path class="cls-19" d="M1461.24,85.18c.58.3,1.15.61,1.71.93-.56-.31-1.13-.62-1.71-.93Z"/>
      <path class="cls-23" d="M1459.2,84.15c.56.27,1.11.54,1.66.82-.54-.28-1.1-.55-1.66-.82Z"/>
      <path class="cls-22" d="M1462.95,86.11c.09.05.18.1.26.15-.09-.05-.17-.1-.26-.15Z"/>
      <path class="cls-21" d="M1460.85,84.98c.13.07.26.13.39.2-.13-.07-.26-.13-.39-.2Z"/>
      <path class="cls-24" d="M1458.94,84.03c.09.04.17.09.26.13-.5-.24-.99-.48-1.5-.71.42.19.83.38,1.24.58Z"/>
      <path class="cls-28" d="M1464.94,87.27c.06.04.12.08.19.12-.06-.04-.12-.08-.19-.12Z"/>
      <path class="cls-27" d="M1465.12,87.38c.57.35,1.14.71,1.69,1.08-.55-.37-1.12-.73-1.69-1.08Z"/>
      <path class="cls-13" d="M1466.81,88.46s.09.06.14.1c-.05-.03-.09-.06-.14-.1Z"/>
      <path class="cls-12" d="M1466.95,88.56c.56.37,1.11.75,1.64,1.14-.53-.39-1.08-.76-1.64-1.14Z"/>
      <path class="cls-17" d="M1463.22,86.26c.58.33,1.16.67,1.72,1.01-.56-.34-1.13-.68-1.72-1.01Z"/>
      <path class="cls-16" d="M1469.65,151.58c.9-.68,1.75-1.37,2.57-2.08-.82.72-1.67,1.41-2.57,2.08Z"/>
      <path class="cls-15" d="M1475.67,95.84c.72.75,1.4,1.51,2.03,2.29-.64-.78-1.32-1.54-2.03-2.29Z"/>
      <path class="cls-18" d="M1477.7,98.13c.97,1.16,1.85,2.36,2.65,3.57-.8-1.22-1.69-2.41-2.65-3.57Z"/>
      <path class="cls-14" d="M1477.71,143.92c.64-.77,1.25-1.56,1.82-2.36-.57.8-1.17,1.58-1.82,2.36Z"/>
    </g>
    <path class="cls-29" d="M1486.34,122.51c0,.35-.03.7-.06,1.05-.11,1.45-.32,2.9-.63,4.34-.05.28-.11.55-.18.83-.06.24-.12.47-.18.71-.08.31-.17.62-.25.92-.1.35-.21.7-.32,1.04-.16.48-.33.96-.51,1.44-.16.42-.32.84-.5,1.25-.01.03-.02.06-.04.09-.13.32-.27.64-.42.96-.42.93-.89,1.85-1.39,2.76-.24.41-.48.82-.73,1.23-.27.45-.55.89-.85,1.34-.24.36-.49.73-.75,1.09-.57.8-1.18,1.59-1.82,2.36-.32.38-.64.76-.96,1.13-.02.02-.04.03-.05.05-.32.36-.65.72-.99,1.08-.76.8-1.55,1.58-2.39,2.35-.36.33-.72.65-1.1.97-.82.71-1.67,1.4-2.57,2.08,0,.01-.02.02-.03.03-.43.32-.88.65-1.33.97-.46.33-.94.66-1.42.98-.46.31-.94.62-1.42.92-.02.01-.05.03-.07.04-.49.31-.99.61-1.5.91-.04.02-.07.04-.1.06-.49.28-.98.56-1.48.83-.52.29-1.06.57-1.59.85-.04.01-.07.03-.1.05-.54.27-1.08.54-1.63.8-1.09.52-2.21,1.02-3.36,1.5-.48.21-.98.41-1.48.6-.5.2-1,.39-1.52.58-1.34.49-2.72.96-4.13,1.39-.47.15-.95.29-1.43.43-.48.14-.97.28-1.46.41-.53.15-1.06.28-1.59.42-.47.12-.93.23-1.41.34-1.52.36-3.09.69-4.69.99-.54.1-1.08.2-1.62.29-.81.14-1.63.27-2.46.4-1.49.22-3.01.41-4.57.58-.32.04-.63.07-.95.1-.55.05-1.1.11-1.66.15-1.75.16-3.55.27-5.38.35-.52.03-1.03.05-1.56.06-.3.01-.61.02-.92.02-.45.02-.9.03-1.36.03-.81.02-1.63.03-2.46.03H174.42c-66.94,0-86.81-45.14-59.62-71.95,3.33-3.27,7.35-6.27,12.08-8.89,7.31-4.03,16.3-7.14,26.97-8.89,6.28-1.02,13.13-1.58,20.57-1.58h1240.55c3.78,0,7.42.15,10.9.42,3.49.28,6.82.69,10.01,1.22,2.21.37,4.35.8,6.42,1.28.48.11.95.23,1.42.34.57.15,1.13.29,1.69.44,1.47.4,2.91.83,4.3,1.28.94.31,1.87.63,2.78.96.9.33,1.79.68,2.66,1.03.45.19.89.37,1.33.56.41.18.82.36,1.22.54.42.19.83.38,1.24.58,5.72,2.72,10.54,5.97,14.47,9.59.39.36.78.73,1.15,1.1.31.3.62.61.92.92.06.07.12.14.19.2.71.75,1.39,1.51,2.03,2.29.96,1.16,1.85,2.35,2.65,3.57.21.32.42.65.62.98.31.49.6.98.88,1.47.23.42.46.83.67,1.25.16.32.32.64.47.96.13.26.25.52.36.78.33.74.64,1.49.92,2.23.14.38.27.76.39,1.13.13.38.25.76.36,1.14.08.3.17.6.25.89.07.27.14.53.2.8.06.27.13.55.18.83.31,1.44.52,2.89.63,4.34.03.35.05.7.06,1.05.05.99.05,1.97,0,2.96Z"/>
    <g id="HEART">
      <path class="cls-34" d="M197.83,42.28c16.03,49.19-31.3,128.57-60.71,135.56S19.44,157.44,3.41,108.25C-12.63,59.06,29.92,4.04,89.5,41.16c15.47-61.58,92.29-48.08,108.33,1.11Z"/>
      <path class="cls-33" d="M181.83,37.08c12.14,37.26-46.41,70.11-68.68,75.4-22.27,5.29-87.99,12.63-100.13-24.63C.87,50.6,48.59,25.98,93.72,54.1,105.44,7.45,169.69-.17,181.83,37.08Z"/>
      <path class="cls-32" d="M176.14,39.59c3.24,24.19-47,46.56-69.28,51.85-22.27,5.29-76.73,16.43-88.12-5.96C.98,50.55,48.59,25.98,93.72,54.1,105.44,7.45,170.94.75,176.14,39.59Z"/>
      <path class="cls-30" d="M177.12,13.31c.89,1.21,1.75,2.44,2.54,3.72,11.54,18.62,13.27,44.66.52,63.26-7.36,10.73-14.19,18.17-25.09,25.68-6.98,4.81-14.7,8.2-22.44,11.62-22.31,9.86-48.32,9.49-72.09,7.07-15.93-1.62-31-7.32-43.39-17.62-7.2-5.98-13.94-16.4-15.91-25.63-.26-1.2-.48-2.32-.68-3.37-1.29,9.75-.48,20.1,2.82,30.21,16.03,49.19,104.31,76.57,133.72,69.58,29.41-6.98,76.74-86.37,60.71-135.56-3.9-11.95-11.39-21.79-20.71-28.96Z"/>
      <path class="cls-35" d="M187.1,111.27c-6.38,12.28-14.68,25-25.36,34-6.4,5.4-12.6,11-20.2,14.6-10.95,5.18-18.81,8.05-30.99,9.47-16.79,1.95-34.11-3.86-49.21-10.48-14.29-6.26-29.06-15.39-39.5-27.07-8.62-9.65-14.9-18.41-19.26-30.65-1.09-3.05-1.85-6.08-2.37-9.1.4,5.39,1.44,10.84,3.19,16.23,16.03,49.19,104.31,76.57,133.72,69.58,23.86-5.67,59.52-59,63.56-105.19-2.62,13.34-7.37,26.64-13.58,38.62Z"/>
      <ellipse class="cls-31" cx="48.91" cy="49.86" rx="19.29" ry="12.35" transform="translate(-4.11 4.4) rotate(-4.94)"/>
      <circle class="cls-31" cx="20.34" cy="68.53" r="3.91"/>
    </g>
  </g>
</svg>