<?xml version="1.0" encoding="UTF-8"?>
<svg id="Ebene_2" xmlns="http://www.w3.org/2000/svg" xmlns:xlink="http://www.w3.org/1999/xlink" viewBox="0 0 1529.2 178.91">
  <defs>
    <style>
      .cls-1 {
        fill: #8c000e;
        opacity: .4;
      }

      .cls-2 {
        fill: #c6b390;
      }

      .cls-2, .cls-3, .cls-4 {
        fill-rule: evenodd;
      }

      .cls-5 {
        fill: #ffccd9;
      }

      .cls-3 {
        fill: url(#GradientFill_1);
      }

      .cls-4 {
        fill: url(#GradientFill_2);
      }

      .cls-6 {
        opacity: .5;
      }

      .cls-6, .cls-7 {
        fill: #ff557a;
      }

      .cls-7 {
        opacity: .2;
      }

      .cls-8 {
        fill: #e00026;
      }

      .cls-9 {
        fill: #ff5a72;
      }
    </style>
    <linearGradient id="GradientFill_1" data-name="GradientFill 1" x1="812.55" y1="175.53" x2="812.55" y2="58.16" gradientUnits="userSpaceOnUse">
      <stop offset="0" stop-color="#390800"/>
      <stop offset="1" stop-color="#9f5829"/>
    </linearGradient>
    <linearGradient id="GradientFill_2" data-name="GradientFill 2" x1="812.55" y1="156.7" x2="812.55" y2="72.79" gradientUnits="userSpaceOnUse">
      <stop offset="0" stop-color="#f3d6a2"/>
      <stop offset="1" stop-color="#f3e7cf"/>
    </linearGradient>
  </defs>
  <g id="Decor">
    <g>
      <path class="cls-3" d="M169.87,58.15h1285.34c98.64,0,98.64,120.58,0,120.58H169.87c-98.64,0-98.64-120.58,0-120.58Z"/>
      <path class="cls-2" d="M184.05,67.73h1257c96.47,0,96.47,101.42,0,101.42H184.05c-96.47,0-96.47-101.42,0-101.42Z"/>
      <path class="cls-4" d="M192.27,72.79h1240.55c95.2,0,95.2,91.31,0,91.31H192.27c-95.2,0-95.2-91.31,0-91.31Z"/>
    </g>
    <g id="HEART">
      <path class="cls-8" d="M197.83,42.28c16.03,49.19-31.3,128.57-60.71,135.56-29.41,6.98-117.68-20.39-133.72-69.58C-12.63,59.06,29.92,4.04,89.5,41.16c15.47-61.58,92.29-48.08,108.33,1.11Z"/>
      <path class="cls-7" d="M181.83,37.08c12.14,37.26-46.41,70.11-68.68,75.4-22.27,5.29-87.99,12.63-100.13-24.63C.87,50.6,48.59,25.98,93.72,54.1,105.44,7.45,169.69-.17,181.83,37.08Z"/>
      <path class="cls-6" d="M176.14,39.59c3.24,24.19-47,46.56-69.28,51.85-22.27,5.29-76.73,16.43-88.12-5.96C.98,50.55,48.59,25.98,93.72,54.1,105.44,7.45,170.94.75,176.14,39.59Z"/>
      <path class="cls-1" d="M177.12,13.31c.89,1.21,1.75,2.44,2.54,3.72,11.54,18.62,13.27,44.66.52,63.26-7.36,10.73-14.19,18.17-25.09,25.68-6.98,4.81-14.7,8.2-22.44,11.62-22.31,9.86-48.32,9.49-72.09,7.07-15.93-1.62-31-7.32-43.39-17.62-7.2-5.98-13.94-16.4-15.91-25.63-.26-1.2-.48-2.32-.68-3.37-1.29,9.75-.48,20.1,2.82,30.21,16.03,49.19,104.31,76.57,133.72,69.58,29.41-6.98,76.74-86.37,60.71-135.56-3.9-11.95-11.39-21.79-20.71-28.96Z"/>
      <path class="cls-9" d="M187.1,111.27c-6.38,12.28-14.68,25-25.36,34-6.4,5.4-12.6,11-20.2,14.6-10.95,5.18-18.81,8.05-30.99,9.47-16.79,1.95-34.11-3.86-49.21-10.48-14.29-6.26-29.06-15.39-39.5-27.07-8.62-9.65-14.9-18.41-19.26-30.65-1.09-3.05-1.85-6.08-2.37-9.1.4,5.39,1.44,10.84,3.19,16.23,16.03,49.19,104.31,76.57,133.72,69.58,23.86-5.67,59.52-59,63.56-105.19-2.62,13.34-7.37,26.64-13.58,38.62Z"/>
      <ellipse class="cls-5" cx="48.91" cy="49.86" rx="19.29" ry="12.35" transform="translate(-4.11 4.4) rotate(-4.94)"/>
      <circle class="cls-5" cx="20.34" cy="68.53" r="3.91"/>
    </g>
  </g>
</svg>